G04 #@! TF.GenerationSoftware,KiCad,Pcbnew,5.0.2-bee76a0~70~ubuntu18.04.1*
G04 #@! TF.CreationDate,2019-11-19T20:55:50-08:00*
G04 #@! TF.ProjectId,A3P250_Dev_Board,41335032-3530-45f4-9465-765f426f6172,rev?*
G04 #@! TF.SameCoordinates,Original*
G04 #@! TF.FileFunction,Copper,L3,Inr*
G04 #@! TF.FilePolarity,Positive*
%FSLAX46Y46*%
G04 Gerber Fmt 4.6, Leading zero omitted, Abs format (unit mm)*
G04 Created by KiCad (PCBNEW 5.0.2-bee76a0~70~ubuntu18.04.1) date Tue 19 Nov 2019 08:55:50 PM PST*
%MOMM*%
%LPD*%
G01*
G04 APERTURE LIST*
G04 #@! TA.AperFunction,ViaPad*
%ADD10O,1.350000X1.350000*%
G04 #@! TD*
G04 #@! TA.AperFunction,ViaPad*
%ADD11R,1.350000X1.350000*%
G04 #@! TD*
G04 #@! TA.AperFunction,ViaPad*
%ADD12C,1.000000*%
G04 #@! TD*
G04 #@! TA.AperFunction,ViaPad*
%ADD13C,0.508000*%
G04 #@! TD*
G04 #@! TA.AperFunction,Conductor*
%ADD14C,1.016000*%
G04 #@! TD*
G04 #@! TA.AperFunction,Conductor*
%ADD15C,1.270000*%
G04 #@! TD*
G04 #@! TA.AperFunction,Conductor*
%ADD16C,0.762000*%
G04 #@! TD*
G04 #@! TA.AperFunction,Conductor*
%ADD17C,0.508000*%
G04 #@! TD*
G04 #@! TA.AperFunction,Conductor*
%ADD18C,0.254000*%
G04 #@! TD*
G04 APERTURE END LIST*
D10*
G04 #@! TO.N,Net-(J3-Pad20)*
G04 #@! TO.C,J3*
X104870000Y-132270000D03*
G04 #@! TO.N,Net-(J3-Pad19)*
X106870000Y-132270000D03*
G04 #@! TO.N,Net-(J3-Pad18)*
X108870000Y-132270000D03*
G04 #@! TO.N,Net-(J3-Pad17)*
X110870000Y-132270000D03*
G04 #@! TO.N,Net-(J3-Pad16)*
X112870000Y-132270000D03*
G04 #@! TO.N,Net-(J3-Pad15)*
X114870000Y-132270000D03*
G04 #@! TO.N,Net-(J3-Pad14)*
X116870000Y-132270000D03*
G04 #@! TO.N,Net-(J3-Pad13)*
X118870000Y-132270000D03*
G04 #@! TO.N,Net-(J3-Pad12)*
X120870000Y-132270000D03*
G04 #@! TO.N,Net-(J3-Pad11)*
X122870000Y-132270000D03*
G04 #@! TO.N,Net-(J3-Pad10)*
X124870000Y-132270000D03*
G04 #@! TO.N,Net-(C26-Pad1)*
X126870000Y-132270000D03*
G04 #@! TO.N,Net-(J3-Pad8)*
X128870000Y-132270000D03*
G04 #@! TO.N,Net-(J3-Pad7)*
X130870000Y-132270000D03*
G04 #@! TO.N,Net-(J3-Pad6)*
X132870000Y-132270000D03*
G04 #@! TO.N,Net-(J3-Pad5)*
X134870000Y-132270000D03*
G04 #@! TO.N,Net-(J3-Pad4)*
X136870000Y-132270000D03*
G04 #@! TO.N,Net-(J3-Pad3)*
X138870000Y-132270000D03*
G04 #@! TO.N,TCK*
X140870000Y-132270000D03*
D11*
G04 #@! TO.N,TDI*
X142870000Y-132270000D03*
G04 #@! TD*
G04 #@! TO.N,Net-(J2-Pad1)*
G04 #@! TO.C,J2*
X146870000Y-90270000D03*
D10*
G04 #@! TO.N,Net-(J2-Pad2)*
X146870000Y-92270000D03*
G04 #@! TO.N,Net-(J2-Pad3)*
X146870000Y-94270000D03*
G04 #@! TO.N,Net-(J2-Pad4)*
X146870000Y-96270000D03*
G04 #@! TO.N,Net-(J2-Pad5)*
X146870000Y-98270000D03*
G04 #@! TO.N,Net-(C24-Pad1)*
X146870000Y-100270000D03*
G04 #@! TO.N,Net-(J2-Pad7)*
X146870000Y-102270000D03*
G04 #@! TO.N,Net-(J2-Pad8)*
X146870000Y-104270000D03*
G04 #@! TO.N,Net-(J2-Pad9)*
X146870000Y-106270000D03*
G04 #@! TO.N,Net-(J2-Pad10)*
X146870000Y-108270000D03*
G04 #@! TO.N,Net-(J2-Pad11)*
X146870000Y-110270000D03*
G04 #@! TO.N,Net-(J2-Pad12)*
X146870000Y-112270000D03*
G04 #@! TO.N,Net-(J2-Pad13)*
X146870000Y-114270000D03*
G04 #@! TO.N,Net-(J2-Pad14)*
X146870000Y-116270000D03*
G04 #@! TO.N,Net-(J2-Pad15)*
X146870000Y-118270000D03*
G04 #@! TO.N,VCCIB3*
X146870000Y-120270000D03*
G04 #@! TO.N,TRST*
X146870000Y-122270000D03*
G04 #@! TO.N,TDO*
X146870000Y-124270000D03*
G04 #@! TO.N,VPUMP*
X146870000Y-126270000D03*
G04 #@! TO.N,TMS*
X146870000Y-128270000D03*
G04 #@! TD*
G04 #@! TO.N,Net-(J1-Pad20)*
G04 #@! TO.C,J1*
X142870000Y-86270000D03*
G04 #@! TO.N,Net-(J1-Pad19)*
X140870000Y-86270000D03*
G04 #@! TO.N,Net-(J1-Pad18)*
X138870000Y-86270000D03*
G04 #@! TO.N,Net-(J1-Pad17)*
X136870000Y-86270000D03*
G04 #@! TO.N,Net-(J1-Pad16)*
X134870000Y-86270000D03*
G04 #@! TO.N,Net-(J1-Pad15)*
X132870000Y-86270000D03*
G04 #@! TO.N,Net-(J1-Pad14)*
X130870000Y-86270000D03*
G04 #@! TO.N,Net-(J1-Pad13)*
X128870000Y-86270000D03*
G04 #@! TO.N,Net-(J1-Pad12)*
X126870000Y-86270000D03*
G04 #@! TO.N,Net-(J1-Pad11)*
X124870000Y-86270000D03*
G04 #@! TO.N,Net-(J1-Pad10)*
X122870000Y-86270000D03*
G04 #@! TO.N,Net-(C22-Pad1)*
X120870000Y-86270000D03*
G04 #@! TO.N,Net-(J1-Pad8)*
X118870000Y-86270000D03*
G04 #@! TO.N,Net-(J1-Pad7)*
X116870000Y-86270000D03*
G04 #@! TO.N,Net-(J1-Pad6)*
X114870000Y-86270000D03*
G04 #@! TO.N,Net-(J1-Pad5)*
X112870000Y-86270000D03*
G04 #@! TO.N,Net-(J1-Pad4)*
X110870000Y-86270000D03*
G04 #@! TO.N,Net-(J1-Pad3)*
X108870000Y-86270000D03*
G04 #@! TO.N,Net-(J1-Pad2)*
X106870000Y-86270000D03*
D11*
G04 #@! TO.N,Net-(J1-Pad1)*
X104870000Y-86270000D03*
G04 #@! TD*
G04 #@! TO.N,Net-(J4-Pad1)*
G04 #@! TO.C,J4*
X100870000Y-128270000D03*
D10*
G04 #@! TO.N,Net-(J4-Pad2)*
X100870000Y-126270000D03*
G04 #@! TO.N,Net-(J4-Pad3)*
X100870000Y-124270000D03*
G04 #@! TO.N,Net-(J4-Pad4)*
X100870000Y-122270000D03*
G04 #@! TO.N,Net-(J4-Pad5)*
X100870000Y-120270000D03*
G04 #@! TO.N,VCCIB3*
X100870000Y-118270000D03*
G04 #@! TO.N,Net-(J4-Pad7)*
X100870000Y-116270000D03*
G04 #@! TO.N,Net-(J4-Pad8)*
X100870000Y-114270000D03*
G04 #@! TO.N,Net-(J4-Pad9)*
X100870000Y-112270000D03*
G04 #@! TO.N,Net-(J4-Pad10)*
X100870000Y-110270000D03*
G04 #@! TO.N,Net-(J4-Pad11)*
X100870000Y-108270000D03*
G04 #@! TO.N,Net-(D1-Pad2)*
X100870000Y-106270000D03*
G04 #@! TO.N,Net-(J4-Pad13)*
X100870000Y-104270000D03*
G04 #@! TO.N,Net-(J4-Pad14)*
X100870000Y-102270000D03*
G04 #@! TO.N,Net-(J4-Pad15)*
X100870000Y-100270000D03*
G04 #@! TO.N,Net-(J4-Pad16)*
X100870000Y-98270000D03*
G04 #@! TO.N,Net-(J4-Pad17)*
X100870000Y-96270000D03*
G04 #@! TO.N,GAA_IO00RSB0*
X100870000Y-94270000D03*
G04 #@! TO.N,GND*
X100870000Y-92270000D03*
G04 #@! TO.N,+5V*
X100870000Y-90270000D03*
G04 #@! TD*
G04 #@! TO.N,+5V*
G04 #@! TO.C,J4*
X102870000Y-90270000D03*
G04 #@! TO.N,GND*
X102870000Y-92270000D03*
G04 #@! TO.N,GAA_IO00RSB0*
X102870000Y-94270000D03*
G04 #@! TO.N,Net-(J4-Pad17)*
X102870000Y-96270000D03*
G04 #@! TO.N,Net-(J4-Pad16)*
X102870000Y-98270000D03*
G04 #@! TO.N,Net-(J4-Pad15)*
X102870000Y-100270000D03*
G04 #@! TO.N,Net-(J4-Pad14)*
X102870000Y-102270000D03*
G04 #@! TO.N,Net-(J4-Pad13)*
X102870000Y-104270000D03*
G04 #@! TO.N,Net-(D1-Pad2)*
X102870000Y-106270000D03*
G04 #@! TO.N,Net-(J4-Pad11)*
X102870000Y-108270000D03*
G04 #@! TO.N,Net-(J4-Pad10)*
X102870000Y-110270000D03*
G04 #@! TO.N,Net-(J4-Pad9)*
X102870000Y-112270000D03*
G04 #@! TO.N,Net-(J4-Pad8)*
X102870000Y-114270000D03*
G04 #@! TO.N,Net-(J4-Pad7)*
X102870000Y-116270000D03*
G04 #@! TO.N,VCCIB3*
X102870000Y-118270000D03*
G04 #@! TO.N,Net-(J4-Pad5)*
X102870000Y-120270000D03*
G04 #@! TO.N,Net-(J4-Pad4)*
X102870000Y-122270000D03*
G04 #@! TO.N,Net-(J4-Pad3)*
X102870000Y-124270000D03*
G04 #@! TO.N,Net-(J4-Pad2)*
X102870000Y-126270000D03*
D11*
G04 #@! TO.N,Net-(J4-Pad1)*
X102870000Y-128270000D03*
G04 #@! TD*
G04 #@! TO.N,TDI*
G04 #@! TO.C,J3*
X142870000Y-130270000D03*
D10*
G04 #@! TO.N,TCK*
X140870000Y-130270000D03*
G04 #@! TO.N,Net-(J3-Pad3)*
X138870000Y-130270000D03*
G04 #@! TO.N,Net-(J3-Pad4)*
X136870000Y-130270000D03*
G04 #@! TO.N,Net-(J3-Pad5)*
X134870000Y-130270000D03*
G04 #@! TO.N,Net-(J3-Pad6)*
X132870000Y-130270000D03*
G04 #@! TO.N,Net-(J3-Pad7)*
X130870000Y-130270000D03*
G04 #@! TO.N,Net-(J3-Pad8)*
X128870000Y-130270000D03*
G04 #@! TO.N,Net-(C26-Pad1)*
X126870000Y-130270000D03*
G04 #@! TO.N,Net-(J3-Pad10)*
X124870000Y-130270000D03*
G04 #@! TO.N,Net-(J3-Pad11)*
X122870000Y-130270000D03*
G04 #@! TO.N,Net-(J3-Pad12)*
X120870000Y-130270000D03*
G04 #@! TO.N,Net-(J3-Pad13)*
X118870000Y-130270000D03*
G04 #@! TO.N,Net-(J3-Pad14)*
X116870000Y-130270000D03*
G04 #@! TO.N,Net-(J3-Pad15)*
X114870000Y-130270000D03*
G04 #@! TO.N,Net-(J3-Pad16)*
X112870000Y-130270000D03*
G04 #@! TO.N,Net-(J3-Pad17)*
X110870000Y-130270000D03*
G04 #@! TO.N,Net-(J3-Pad18)*
X108870000Y-130270000D03*
G04 #@! TO.N,Net-(J3-Pad19)*
X106870000Y-130270000D03*
G04 #@! TO.N,Net-(J3-Pad20)*
X104870000Y-130270000D03*
G04 #@! TD*
D11*
G04 #@! TO.N,Net-(J1-Pad1)*
G04 #@! TO.C,J1*
X104870000Y-88270000D03*
D10*
G04 #@! TO.N,Net-(J1-Pad2)*
X106870000Y-88270000D03*
G04 #@! TO.N,Net-(J1-Pad3)*
X108870000Y-88270000D03*
G04 #@! TO.N,Net-(J1-Pad4)*
X110870000Y-88270000D03*
G04 #@! TO.N,Net-(J1-Pad5)*
X112870000Y-88270000D03*
G04 #@! TO.N,Net-(J1-Pad6)*
X114870000Y-88270000D03*
G04 #@! TO.N,Net-(J1-Pad7)*
X116870000Y-88270000D03*
G04 #@! TO.N,Net-(J1-Pad8)*
X118870000Y-88270000D03*
G04 #@! TO.N,Net-(C22-Pad1)*
X120870000Y-88270000D03*
G04 #@! TO.N,Net-(J1-Pad10)*
X122870000Y-88270000D03*
G04 #@! TO.N,Net-(J1-Pad11)*
X124870000Y-88270000D03*
G04 #@! TO.N,Net-(J1-Pad12)*
X126870000Y-88270000D03*
G04 #@! TO.N,Net-(J1-Pad13)*
X128870000Y-88270000D03*
G04 #@! TO.N,Net-(J1-Pad14)*
X130870000Y-88270000D03*
G04 #@! TO.N,Net-(J1-Pad15)*
X132870000Y-88270000D03*
G04 #@! TO.N,Net-(J1-Pad16)*
X134870000Y-88270000D03*
G04 #@! TO.N,Net-(J1-Pad17)*
X136870000Y-88270000D03*
G04 #@! TO.N,Net-(J1-Pad18)*
X138870000Y-88270000D03*
G04 #@! TO.N,Net-(J1-Pad19)*
X140870000Y-88270000D03*
G04 #@! TO.N,Net-(J1-Pad20)*
X142870000Y-88270000D03*
G04 #@! TD*
G04 #@! TO.N,TMS*
G04 #@! TO.C,J2*
X144870000Y-128270000D03*
G04 #@! TO.N,VPUMP*
X144870000Y-126270000D03*
G04 #@! TO.N,TDO*
X144870000Y-124270000D03*
G04 #@! TO.N,TRST*
X144870000Y-122270000D03*
G04 #@! TO.N,VCCIB3*
X144870000Y-120270000D03*
G04 #@! TO.N,Net-(J2-Pad15)*
X144870000Y-118270000D03*
G04 #@! TO.N,Net-(J2-Pad14)*
X144870000Y-116270000D03*
G04 #@! TO.N,Net-(J2-Pad13)*
X144870000Y-114270000D03*
G04 #@! TO.N,Net-(J2-Pad12)*
X144870000Y-112270000D03*
G04 #@! TO.N,Net-(J2-Pad11)*
X144870000Y-110270000D03*
G04 #@! TO.N,Net-(J2-Pad10)*
X144870000Y-108270000D03*
G04 #@! TO.N,Net-(J2-Pad9)*
X144870000Y-106270000D03*
G04 #@! TO.N,Net-(J2-Pad8)*
X144870000Y-104270000D03*
G04 #@! TO.N,Net-(J2-Pad7)*
X144870000Y-102270000D03*
G04 #@! TO.N,Net-(C24-Pad1)*
X144870000Y-100270000D03*
G04 #@! TO.N,Net-(J2-Pad5)*
X144870000Y-98270000D03*
G04 #@! TO.N,Net-(J2-Pad4)*
X144870000Y-96270000D03*
G04 #@! TO.N,Net-(J2-Pad3)*
X144870000Y-94270000D03*
G04 #@! TO.N,Net-(J2-Pad2)*
X144870000Y-92270000D03*
D11*
G04 #@! TO.N,Net-(J2-Pad1)*
X144870000Y-90270000D03*
G04 #@! TD*
D12*
G04 #@! TO.N,VCCIB3*
G04 #@! TO.C,VIO*
X135991600Y-101854000D03*
G04 #@! TD*
G04 #@! TO.N,Net-(J4-Pad11)*
G04 #@! TO.C,CLK*
X112293400Y-111582200D03*
G04 #@! TD*
G04 #@! TO.N,+5V*
G04 #@! TO.C,+5V*
X107111800Y-92887800D03*
G04 #@! TD*
G04 #@! TO.N,GND*
G04 #@! TO.C,GND*
X106984800Y-96469200D03*
G04 #@! TD*
G04 #@! TO.N,Net-(C10-Pad1)*
G04 #@! TO.C,VCore*
X110744000Y-121793000D03*
G04 #@! TD*
G04 #@! TO.N,Net-(C11-Pad1)*
G04 #@! TO.C,VPLL*
X116662200Y-101269800D03*
G04 #@! TD*
D13*
G04 #@! TO.N,GND*
X112522000Y-95845000D03*
X112562000Y-96647000D03*
X111887000Y-97790000D03*
X112903000Y-101092000D03*
X114173000Y-94361000D03*
X115824000Y-94996000D03*
X113665000Y-98171000D03*
X114388948Y-99860668D03*
X117094000Y-96266000D03*
X110295968Y-100948768D03*
X114427000Y-102997000D03*
X135531696Y-96703249D03*
X139722696Y-97592249D03*
X139595696Y-94036249D03*
X117983000Y-101473000D03*
X119761000Y-101473000D03*
X104140000Y-92329000D03*
X105156000Y-92329000D03*
X112776000Y-108077000D03*
X120396000Y-106426000D03*
X121869200Y-111379000D03*
X119373614Y-107840729D03*
X123063000Y-107442000D03*
X135255000Y-112141000D03*
X135001000Y-119888000D03*
G04 #@! TO.N,Net-(C26-Pad1)*
X134747000Y-123190000D03*
G04 #@! TO.N,GND*
X132461000Y-120904000D03*
X138963400Y-120497600D03*
X139065000Y-119380000D03*
X117201488Y-106726189D03*
G04 #@! TO.N,Net-(C11-Pad1)*
X118516400Y-113893600D03*
G04 #@! TO.N,Net-(C10-Pad1)*
X116078000Y-95631000D03*
X109220000Y-94996000D03*
G04 #@! TO.N,VCCIB3*
X136674696Y-96703249D03*
X136674696Y-98100249D03*
G04 #@! TO.N,Net-(J1-Pad1)*
X123063000Y-104013000D03*
G04 #@! TO.N,Net-(J1-Pad2)*
X123063000Y-102997000D03*
G04 #@! TO.N,Net-(J1-Pad16)*
X132582800Y-105239950D03*
G04 #@! TO.N,Net-(J1-Pad17)*
X132969000Y-104521000D03*
G04 #@! TO.N,Net-(J1-Pad18)*
X133598801Y-104927041D03*
G04 #@! TO.N,Net-(J1-Pad19)*
X134366000Y-104775000D03*
G04 #@! TO.N,Net-(J1-Pad20)*
X135001000Y-105029000D03*
G04 #@! TO.N,TMS*
X134035800Y-120980200D03*
G04 #@! TO.N,Net-(J3-Pad13)*
X126082800Y-123190000D03*
G04 #@! TO.N,+5V*
X133858000Y-90297000D03*
X106299000Y-90270000D03*
G04 #@! TO.N,Net-(J4-Pad16)*
X117465485Y-108658226D03*
G04 #@! TO.N,Net-(J4-Pad15)*
X119380000Y-110109000D03*
G04 #@! TO.N,Net-(J4-Pad11)*
X122174000Y-112649000D03*
G04 #@! TO.N,Net-(C11-Pad1)*
X117983000Y-99695000D03*
G04 #@! TO.N,GND*
X116558851Y-113893600D03*
X116027200Y-113893600D03*
X129015704Y-101722090D03*
X129015704Y-102253741D03*
X140978881Y-109900025D03*
X140447230Y-109900025D03*
X140975919Y-112672330D03*
X126190398Y-101722268D03*
X140444268Y-112672330D03*
X126190398Y-102253919D03*
X126061371Y-126618619D03*
X116103400Y-116687600D03*
X129001848Y-126635420D03*
X126061371Y-126086968D03*
X116635051Y-116687600D03*
X129001848Y-126103769D03*
X115951000Y-119354600D03*
X116482651Y-119354600D03*
G04 #@! TO.N,Net-(C10-Pad1)*
X117548420Y-119354600D03*
G04 #@! TO.N,Net-(C11-Pad1)*
X117624620Y-113893600D03*
G04 #@! TO.N,Net-(C22-Pad1)*
X129015704Y-104211290D03*
X129015704Y-103319510D03*
G04 #@! TO.N,Net-(C10-Pad1)*
X138489681Y-109900025D03*
X139381461Y-109900025D03*
G04 #@! TO.N,Net-(C24-Pad1)*
X138486719Y-112672330D03*
G04 #@! TO.N,Net-(C10-Pad1)*
X126190398Y-104211468D03*
X126190398Y-103319688D03*
X126061371Y-124129419D03*
X126061371Y-125021199D03*
G04 #@! TO.N,VCCIB3*
X117700820Y-116687600D03*
G04 #@! TO.N,Net-(C10-Pad1)*
X128168400Y-123190000D03*
X137617200Y-111785400D03*
X128244600Y-105029000D03*
G04 #@! TO.N,VCCIB3*
X118592600Y-116687600D03*
G04 #@! TO.N,Net-(J1-Pad3)*
X125017728Y-104979272D03*
G04 #@! TO.N,Net-(J1-Pad5)*
X126009400Y-107467400D03*
G04 #@! TO.N,Net-(J1-Pad6)*
X126517400Y-105003600D03*
G04 #@! TO.N,Net-(J1-Pad7)*
X127061607Y-104629458D03*
G04 #@! TO.N,Net-(J2-Pad8)*
X135255000Y-113665000D03*
G04 #@! TO.N,Net-(J2-Pad7)*
X137972800Y-113309400D03*
G04 #@! TO.N,Net-(J2-Pad4)*
X137896600Y-110540800D03*
G04 #@! TO.N,Net-(J2-Pad3)*
X135229600Y-110185200D03*
G04 #@! TO.N,Net-(J3-Pad7)*
X130022600Y-120904000D03*
G04 #@! TO.N,Net-(J3-Pad8)*
X129582800Y-123647200D03*
G04 #@! TO.N,Net-(J3-Pad12)*
X126606526Y-123655848D03*
G04 #@! TO.N,Net-(J3-Pad14)*
X125142968Y-123339568D03*
G04 #@! TO.N,Net-(J3-Pad15)*
X125018800Y-120929400D03*
G04 #@! TO.N,GND*
X121920000Y-113665000D03*
G04 #@! TO.N,VCCIB3*
X121691400Y-119684800D03*
G04 #@! TO.N,GND*
X119608600Y-120167400D03*
X121234200Y-121589800D03*
X128456894Y-107442000D03*
X135331144Y-108314799D03*
X128447790Y-120904000D03*
G04 #@! TO.N,Net-(C10-Pad1)*
X118414790Y-119354600D03*
X119507000Y-116128800D03*
X117703600Y-94361000D03*
G04 #@! TO.N,Net-(J1-Pad10)*
X129581436Y-104673072D03*
G04 #@! TO.N,Net-(J1-Pad11)*
X130026875Y-105160645D03*
G04 #@! TO.N,GAA_IO00RSB0*
X123074580Y-104896462D03*
G04 #@! TO.N,Net-(J4-Pad9)*
X119354600Y-113792000D03*
G04 #@! TO.N,Net-(J4-Pad7)*
X121818400Y-115671600D03*
G04 #@! TO.N,Net-(J4-Pad5)*
X119430800Y-117246412D03*
G04 #@! TO.N,Net-(J4-Pad4)*
X121843800Y-117678200D03*
G04 #@! TO.N,Net-(J4-Pad2)*
X118973600Y-118643410D03*
G04 #@! TO.N,Net-(C11-Pad1)*
X119761000Y-99949000D03*
X119502435Y-114544246D03*
G04 #@! TO.N,Net-(J4-Pad17)*
X118266210Y-108060980D03*
G04 #@! TO.N,Net-(C22-Pad1)*
X122478800Y-105181400D03*
G04 #@! TO.N,Net-(C24-Pad1)*
X139378499Y-112672330D03*
X137795000Y-107721400D03*
G04 #@! TO.N,Net-(C26-Pad1)*
X129001848Y-124146220D03*
X129001848Y-125038000D03*
G04 #@! TD*
D14*
G04 #@! TO.N,+5V*
X114746394Y-90270000D02*
X114773394Y-90297000D01*
X114773394Y-90297000D02*
X133858000Y-90297000D01*
X110871000Y-90270000D02*
X114746394Y-90270000D01*
X102870000Y-90270000D02*
X106299000Y-90270000D01*
X106299000Y-90270000D02*
X110871000Y-90270000D01*
D15*
G04 #@! TO.N,Net-(C11-Pad1)*
X115788863Y-109068773D02*
X115247335Y-109610301D01*
X119761000Y-99949000D02*
X117965726Y-99949000D01*
X117965726Y-99949000D02*
X115788863Y-102125863D01*
X115247335Y-109610301D02*
X115247335Y-110588155D01*
X115247335Y-110588155D02*
X115831933Y-111172753D01*
X115831933Y-111172753D02*
X116633753Y-111172753D01*
X115788863Y-102125863D02*
X115788863Y-109068773D01*
D16*
X118516400Y-113893600D02*
X117624620Y-113893600D01*
X117624620Y-112163620D02*
X116633753Y-111172753D01*
X117624620Y-113893600D02*
X117624620Y-112163620D01*
D17*
X118516400Y-113893600D02*
X119167046Y-114544246D01*
X119167046Y-114544246D02*
X119502435Y-114544246D01*
G04 #@! TD*
D18*
G04 #@! TO.N,Net-(C10-Pad1)*
G36*
X103806536Y-86666024D02*
X103806536Y-86945000D01*
X103836106Y-87093659D01*
X103920314Y-87219686D01*
X103995615Y-87270000D01*
X103920314Y-87320314D01*
X103836106Y-87446341D01*
X103806536Y-87595000D01*
X103806536Y-88945000D01*
X103836106Y-89093659D01*
X103920314Y-89219686D01*
X104046341Y-89303894D01*
X104195000Y-89333464D01*
X105545000Y-89333464D01*
X105693659Y-89303894D01*
X105819686Y-89219686D01*
X105903894Y-89093659D01*
X105933464Y-88945000D01*
X105933464Y-88769124D01*
X106108667Y-89031333D01*
X106457969Y-89264730D01*
X106765994Y-89326000D01*
X106974006Y-89326000D01*
X107282031Y-89264730D01*
X107631333Y-89031333D01*
X107864730Y-88682031D01*
X107870000Y-88655537D01*
X107875270Y-88682031D01*
X108108667Y-89031333D01*
X108457969Y-89264730D01*
X108765994Y-89326000D01*
X108974006Y-89326000D01*
X109282031Y-89264730D01*
X109631333Y-89031333D01*
X109864730Y-88682031D01*
X109870000Y-88655537D01*
X109875270Y-88682031D01*
X110108667Y-89031333D01*
X110457969Y-89264730D01*
X110765994Y-89326000D01*
X110974006Y-89326000D01*
X111282031Y-89264730D01*
X111631333Y-89031333D01*
X111864730Y-88682031D01*
X111870000Y-88655537D01*
X111875270Y-88682031D01*
X112108667Y-89031333D01*
X112457969Y-89264730D01*
X112765994Y-89326000D01*
X112974006Y-89326000D01*
X113282031Y-89264730D01*
X113631333Y-89031333D01*
X113864730Y-88682031D01*
X113870000Y-88655537D01*
X113875270Y-88682031D01*
X114108667Y-89031333D01*
X114457969Y-89264730D01*
X114765994Y-89326000D01*
X114974006Y-89326000D01*
X115282031Y-89264730D01*
X115631333Y-89031333D01*
X115864730Y-88682031D01*
X115870000Y-88655537D01*
X115875270Y-88682031D01*
X116108667Y-89031333D01*
X116457969Y-89264730D01*
X116765994Y-89326000D01*
X116974006Y-89326000D01*
X117282031Y-89264730D01*
X117631333Y-89031333D01*
X117864730Y-88682031D01*
X117870000Y-88655537D01*
X117875270Y-88682031D01*
X118108667Y-89031333D01*
X118457969Y-89264730D01*
X118765994Y-89326000D01*
X118974006Y-89326000D01*
X119282031Y-89264730D01*
X119631333Y-89031333D01*
X119864730Y-88682031D01*
X119870000Y-88655537D01*
X119875270Y-88682031D01*
X120108667Y-89031333D01*
X120457969Y-89264730D01*
X120765994Y-89326000D01*
X120974006Y-89326000D01*
X121282031Y-89264730D01*
X121631333Y-89031333D01*
X121864730Y-88682031D01*
X121870000Y-88655537D01*
X121875270Y-88682031D01*
X122108667Y-89031333D01*
X122457969Y-89264730D01*
X122765994Y-89326000D01*
X122974006Y-89326000D01*
X123282031Y-89264730D01*
X123631333Y-89031333D01*
X123864730Y-88682031D01*
X123870000Y-88655537D01*
X123875270Y-88682031D01*
X124108667Y-89031333D01*
X124457969Y-89264730D01*
X124765994Y-89326000D01*
X124974006Y-89326000D01*
X125282031Y-89264730D01*
X125631333Y-89031333D01*
X125864730Y-88682031D01*
X125870000Y-88655537D01*
X125875270Y-88682031D01*
X126108667Y-89031333D01*
X126457969Y-89264730D01*
X126765994Y-89326000D01*
X126974006Y-89326000D01*
X127282031Y-89264730D01*
X127631333Y-89031333D01*
X127864730Y-88682031D01*
X127870000Y-88655537D01*
X127875270Y-88682031D01*
X128108667Y-89031333D01*
X128457969Y-89264730D01*
X128765994Y-89326000D01*
X128974006Y-89326000D01*
X129282031Y-89264730D01*
X129631333Y-89031333D01*
X129864730Y-88682031D01*
X129870000Y-88655537D01*
X129875270Y-88682031D01*
X130108667Y-89031333D01*
X130457969Y-89264730D01*
X130765994Y-89326000D01*
X130974006Y-89326000D01*
X131282031Y-89264730D01*
X131631333Y-89031333D01*
X131864730Y-88682031D01*
X131870000Y-88655537D01*
X131875270Y-88682031D01*
X132108667Y-89031333D01*
X132457969Y-89264730D01*
X132765994Y-89326000D01*
X132974006Y-89326000D01*
X133282031Y-89264730D01*
X133631333Y-89031333D01*
X133864730Y-88682031D01*
X133870000Y-88655537D01*
X133875270Y-88682031D01*
X134108667Y-89031333D01*
X134457969Y-89264730D01*
X134765994Y-89326000D01*
X134974006Y-89326000D01*
X135282031Y-89264730D01*
X135631333Y-89031333D01*
X135864730Y-88682031D01*
X135870000Y-88655537D01*
X135875270Y-88682031D01*
X136108667Y-89031333D01*
X136457969Y-89264730D01*
X136765994Y-89326000D01*
X136974006Y-89326000D01*
X137282031Y-89264730D01*
X137631333Y-89031333D01*
X137864730Y-88682031D01*
X137870000Y-88655537D01*
X137875270Y-88682031D01*
X138108667Y-89031333D01*
X138457969Y-89264730D01*
X138765994Y-89326000D01*
X138974006Y-89326000D01*
X139282031Y-89264730D01*
X139631333Y-89031333D01*
X139864730Y-88682031D01*
X139870000Y-88655537D01*
X139875270Y-88682031D01*
X140108667Y-89031333D01*
X140457969Y-89264730D01*
X140765994Y-89326000D01*
X140974006Y-89326000D01*
X141282031Y-89264730D01*
X141631333Y-89031333D01*
X141864730Y-88682031D01*
X141870000Y-88655537D01*
X141875270Y-88682031D01*
X142108667Y-89031333D01*
X142457969Y-89264730D01*
X142765994Y-89326000D01*
X142974006Y-89326000D01*
X143282031Y-89264730D01*
X143631333Y-89031333D01*
X143864730Y-88682031D01*
X143946688Y-88270000D01*
X143864730Y-87857969D01*
X143631333Y-87508667D01*
X143282031Y-87275270D01*
X143255537Y-87270000D01*
X143282031Y-87264730D01*
X143631333Y-87031333D01*
X143860647Y-86688142D01*
X146456800Y-86689576D01*
X146456800Y-89206536D01*
X146195000Y-89206536D01*
X146046341Y-89236106D01*
X145920314Y-89320314D01*
X145870000Y-89395615D01*
X145819686Y-89320314D01*
X145693659Y-89236106D01*
X145545000Y-89206536D01*
X144195000Y-89206536D01*
X144046341Y-89236106D01*
X143920314Y-89320314D01*
X143836106Y-89446341D01*
X143806536Y-89595000D01*
X143806536Y-90945000D01*
X143836106Y-91093659D01*
X143920314Y-91219686D01*
X144046341Y-91303894D01*
X144195000Y-91333464D01*
X144370876Y-91333464D01*
X144108667Y-91508667D01*
X143875270Y-91857969D01*
X143793312Y-92270000D01*
X143875270Y-92682031D01*
X144108667Y-93031333D01*
X144457969Y-93264730D01*
X144484463Y-93270000D01*
X144457969Y-93275270D01*
X144108667Y-93508667D01*
X143875270Y-93857969D01*
X143793312Y-94270000D01*
X143875270Y-94682031D01*
X144108667Y-95031333D01*
X144457969Y-95264730D01*
X144484463Y-95270000D01*
X144457969Y-95275270D01*
X144108667Y-95508667D01*
X143875270Y-95857969D01*
X143793312Y-96270000D01*
X143875270Y-96682031D01*
X144108667Y-97031333D01*
X144457969Y-97264730D01*
X144484463Y-97270000D01*
X144457969Y-97275270D01*
X144108667Y-97508667D01*
X143875270Y-97857969D01*
X143793312Y-98270000D01*
X143875270Y-98682031D01*
X144108667Y-99031333D01*
X144457969Y-99264730D01*
X144484463Y-99270000D01*
X144457969Y-99275270D01*
X144108667Y-99508667D01*
X143875270Y-99857969D01*
X143793312Y-100270000D01*
X143875270Y-100682031D01*
X144108667Y-101031333D01*
X144457969Y-101264730D01*
X144484463Y-101270000D01*
X144457969Y-101275270D01*
X144108667Y-101508667D01*
X143875270Y-101857969D01*
X143793312Y-102270000D01*
X143875270Y-102682031D01*
X144108667Y-103031333D01*
X144457969Y-103264730D01*
X144484463Y-103270000D01*
X144457969Y-103275270D01*
X144108667Y-103508667D01*
X143875270Y-103857969D01*
X143793312Y-104270000D01*
X143875270Y-104682031D01*
X144108667Y-105031333D01*
X144457969Y-105264730D01*
X144484463Y-105270000D01*
X144457969Y-105275270D01*
X144108667Y-105508667D01*
X143875270Y-105857969D01*
X143793312Y-106270000D01*
X143875270Y-106682031D01*
X144108667Y-107031333D01*
X144457969Y-107264730D01*
X144484463Y-107270000D01*
X144457969Y-107275270D01*
X144108667Y-107508667D01*
X143875270Y-107857969D01*
X143793312Y-108270000D01*
X143875270Y-108682031D01*
X144108667Y-109031333D01*
X144457969Y-109264730D01*
X144484463Y-109270000D01*
X144457969Y-109275270D01*
X144108667Y-109508667D01*
X143875270Y-109857969D01*
X143793312Y-110270000D01*
X143875270Y-110682031D01*
X144108667Y-111031333D01*
X144457969Y-111264730D01*
X144484463Y-111270000D01*
X144457969Y-111275270D01*
X144108667Y-111508667D01*
X143875270Y-111857969D01*
X143793312Y-112270000D01*
X143875270Y-112682031D01*
X144108667Y-113031333D01*
X144457969Y-113264730D01*
X144484463Y-113270000D01*
X144457969Y-113275270D01*
X144108667Y-113508667D01*
X143875270Y-113857969D01*
X143793312Y-114270000D01*
X143875270Y-114682031D01*
X144108667Y-115031333D01*
X144457969Y-115264730D01*
X144484463Y-115270000D01*
X144457969Y-115275270D01*
X144108667Y-115508667D01*
X143875270Y-115857969D01*
X143793312Y-116270000D01*
X143875270Y-116682031D01*
X144108667Y-117031333D01*
X144457969Y-117264730D01*
X144484463Y-117270000D01*
X144457969Y-117275270D01*
X144108667Y-117508667D01*
X143875270Y-117857969D01*
X143793312Y-118270000D01*
X143875270Y-118682031D01*
X144108667Y-119031333D01*
X144457969Y-119264730D01*
X144484463Y-119270000D01*
X144457969Y-119275270D01*
X144108667Y-119508667D01*
X143875270Y-119857969D01*
X143793312Y-120270000D01*
X143875270Y-120682031D01*
X144108667Y-121031333D01*
X144457969Y-121264730D01*
X144484463Y-121270000D01*
X144457969Y-121275270D01*
X144108667Y-121508667D01*
X143875270Y-121857969D01*
X143793312Y-122270000D01*
X143875270Y-122682031D01*
X144108667Y-123031333D01*
X144457969Y-123264730D01*
X144484463Y-123270000D01*
X144457969Y-123275270D01*
X144108667Y-123508667D01*
X143875270Y-123857969D01*
X143793312Y-124270000D01*
X143875270Y-124682031D01*
X144108667Y-125031333D01*
X144457969Y-125264730D01*
X144484463Y-125270000D01*
X144457969Y-125275270D01*
X144108667Y-125508667D01*
X143875270Y-125857969D01*
X143793312Y-126270000D01*
X143875270Y-126682031D01*
X144108667Y-127031333D01*
X144457969Y-127264730D01*
X144484463Y-127270000D01*
X144457969Y-127275270D01*
X144108667Y-127508667D01*
X143875270Y-127857969D01*
X143793312Y-128270000D01*
X143875270Y-128682031D01*
X144108667Y-129031333D01*
X144457969Y-129264730D01*
X144765994Y-129326000D01*
X144974006Y-129326000D01*
X145282031Y-129264730D01*
X145631333Y-129031333D01*
X145864730Y-128682031D01*
X145870000Y-128655537D01*
X145875270Y-128682031D01*
X146108667Y-129031333D01*
X146456801Y-129263950D01*
X146456801Y-131876976D01*
X143933464Y-131875582D01*
X143933464Y-131595000D01*
X143903894Y-131446341D01*
X143819686Y-131320314D01*
X143744385Y-131270000D01*
X143819686Y-131219686D01*
X143903894Y-131093659D01*
X143933464Y-130945000D01*
X143933464Y-129595000D01*
X143903894Y-129446341D01*
X143819686Y-129320314D01*
X143693659Y-129236106D01*
X143545000Y-129206536D01*
X142195000Y-129206536D01*
X142046341Y-129236106D01*
X141920314Y-129320314D01*
X141836106Y-129446341D01*
X141806536Y-129595000D01*
X141806536Y-129770876D01*
X141631333Y-129508667D01*
X141282031Y-129275270D01*
X140974006Y-129214000D01*
X140765994Y-129214000D01*
X140457969Y-129275270D01*
X140108667Y-129508667D01*
X139875270Y-129857969D01*
X139870000Y-129884463D01*
X139864730Y-129857969D01*
X139631333Y-129508667D01*
X139282031Y-129275270D01*
X138974006Y-129214000D01*
X138765994Y-129214000D01*
X138457969Y-129275270D01*
X138108667Y-129508667D01*
X137875270Y-129857969D01*
X137870000Y-129884463D01*
X137864730Y-129857969D01*
X137631333Y-129508667D01*
X137282031Y-129275270D01*
X136974006Y-129214000D01*
X136765994Y-129214000D01*
X136457969Y-129275270D01*
X136108667Y-129508667D01*
X135875270Y-129857969D01*
X135870000Y-129884463D01*
X135864730Y-129857969D01*
X135631333Y-129508667D01*
X135282031Y-129275270D01*
X134974006Y-129214000D01*
X134765994Y-129214000D01*
X134457969Y-129275270D01*
X134108667Y-129508667D01*
X133875270Y-129857969D01*
X133870000Y-129884463D01*
X133864730Y-129857969D01*
X133631333Y-129508667D01*
X133282031Y-129275270D01*
X132974006Y-129214000D01*
X132765994Y-129214000D01*
X132457969Y-129275270D01*
X132108667Y-129508667D01*
X131875270Y-129857969D01*
X131870000Y-129884463D01*
X131864730Y-129857969D01*
X131631333Y-129508667D01*
X131282031Y-129275270D01*
X130974006Y-129214000D01*
X130765994Y-129214000D01*
X130457969Y-129275270D01*
X130108667Y-129508667D01*
X129875270Y-129857969D01*
X129870000Y-129884463D01*
X129864730Y-129857969D01*
X129631333Y-129508667D01*
X129282031Y-129275270D01*
X128974006Y-129214000D01*
X128765994Y-129214000D01*
X128457969Y-129275270D01*
X128108667Y-129508667D01*
X127875270Y-129857969D01*
X127870000Y-129884463D01*
X127864730Y-129857969D01*
X127631333Y-129508667D01*
X127282031Y-129275270D01*
X126974006Y-129214000D01*
X126765994Y-129214000D01*
X126457969Y-129275270D01*
X126108667Y-129508667D01*
X125875270Y-129857969D01*
X125870000Y-129884463D01*
X125864730Y-129857969D01*
X125631333Y-129508667D01*
X125282031Y-129275270D01*
X124974006Y-129214000D01*
X124765994Y-129214000D01*
X124457969Y-129275270D01*
X124108667Y-129508667D01*
X123875270Y-129857969D01*
X123870000Y-129884463D01*
X123864730Y-129857969D01*
X123631333Y-129508667D01*
X123282031Y-129275270D01*
X122974006Y-129214000D01*
X122765994Y-129214000D01*
X122457969Y-129275270D01*
X122108667Y-129508667D01*
X121875270Y-129857969D01*
X121870000Y-129884463D01*
X121864730Y-129857969D01*
X121631333Y-129508667D01*
X121282031Y-129275270D01*
X120974006Y-129214000D01*
X120765994Y-129214000D01*
X120457969Y-129275270D01*
X120108667Y-129508667D01*
X119875270Y-129857969D01*
X119870000Y-129884463D01*
X119864730Y-129857969D01*
X119631333Y-129508667D01*
X119282031Y-129275270D01*
X118974006Y-129214000D01*
X118765994Y-129214000D01*
X118457969Y-129275270D01*
X118108667Y-129508667D01*
X117875270Y-129857969D01*
X117870000Y-129884463D01*
X117864730Y-129857969D01*
X117631333Y-129508667D01*
X117282031Y-129275270D01*
X116974006Y-129214000D01*
X116765994Y-129214000D01*
X116457969Y-129275270D01*
X116108667Y-129508667D01*
X115875270Y-129857969D01*
X115870000Y-129884463D01*
X115864730Y-129857969D01*
X115631333Y-129508667D01*
X115282031Y-129275270D01*
X114974006Y-129214000D01*
X114765994Y-129214000D01*
X114457969Y-129275270D01*
X114108667Y-129508667D01*
X113875270Y-129857969D01*
X113870000Y-129884463D01*
X113864730Y-129857969D01*
X113631333Y-129508667D01*
X113282031Y-129275270D01*
X112974006Y-129214000D01*
X112765994Y-129214000D01*
X112457969Y-129275270D01*
X112108667Y-129508667D01*
X111875270Y-129857969D01*
X111870000Y-129884463D01*
X111864730Y-129857969D01*
X111631333Y-129508667D01*
X111282031Y-129275270D01*
X110974006Y-129214000D01*
X110765994Y-129214000D01*
X110457969Y-129275270D01*
X110108667Y-129508667D01*
X109875270Y-129857969D01*
X109870000Y-129884463D01*
X109864730Y-129857969D01*
X109631333Y-129508667D01*
X109282031Y-129275270D01*
X108974006Y-129214000D01*
X108765994Y-129214000D01*
X108457969Y-129275270D01*
X108108667Y-129508667D01*
X107875270Y-129857969D01*
X107870000Y-129884463D01*
X107864730Y-129857969D01*
X107631333Y-129508667D01*
X107282031Y-129275270D01*
X106974006Y-129214000D01*
X106765994Y-129214000D01*
X106457969Y-129275270D01*
X106108667Y-129508667D01*
X105875270Y-129857969D01*
X105870000Y-129884463D01*
X105864730Y-129857969D01*
X105631333Y-129508667D01*
X105282031Y-129275270D01*
X104974006Y-129214000D01*
X104765994Y-129214000D01*
X104457969Y-129275270D01*
X104108667Y-129508667D01*
X103875270Y-129857969D01*
X103793312Y-130270000D01*
X103875270Y-130682031D01*
X104108667Y-131031333D01*
X104457969Y-131264730D01*
X104484463Y-131270000D01*
X104457969Y-131275270D01*
X104108667Y-131508667D01*
X103878288Y-131853452D01*
X101294576Y-131852024D01*
X101293185Y-129333464D01*
X101545000Y-129333464D01*
X101693659Y-129303894D01*
X101819686Y-129219686D01*
X101870000Y-129144385D01*
X101920314Y-129219686D01*
X102046341Y-129303894D01*
X102195000Y-129333464D01*
X103545000Y-129333464D01*
X103693659Y-129303894D01*
X103819686Y-129219686D01*
X103903894Y-129093659D01*
X103933464Y-128945000D01*
X103933464Y-127595000D01*
X103903894Y-127446341D01*
X103819686Y-127320314D01*
X103693659Y-127236106D01*
X103545000Y-127206536D01*
X103369124Y-127206536D01*
X103631333Y-127031333D01*
X103864730Y-126682031D01*
X103946688Y-126270000D01*
X103885157Y-125960659D01*
X125426371Y-125960659D01*
X125426371Y-126213277D01*
X125484161Y-126352794D01*
X125426371Y-126492310D01*
X125426371Y-126744928D01*
X125523044Y-126978317D01*
X125701673Y-127156946D01*
X125935062Y-127253619D01*
X126187680Y-127253619D01*
X126421069Y-127156946D01*
X126599698Y-126978317D01*
X126696371Y-126744928D01*
X126696371Y-126492310D01*
X126638581Y-126352794D01*
X126696371Y-126213277D01*
X126696371Y-125960659D01*
X126599698Y-125727270D01*
X126421069Y-125548641D01*
X126187680Y-125451968D01*
X125935062Y-125451968D01*
X125701673Y-125548641D01*
X125523044Y-125727270D01*
X125426371Y-125960659D01*
X103885157Y-125960659D01*
X103864730Y-125857969D01*
X103631333Y-125508667D01*
X103282031Y-125275270D01*
X103255537Y-125270000D01*
X103282031Y-125264730D01*
X103631333Y-125031333D01*
X103864730Y-124682031D01*
X103946688Y-124270000D01*
X103864730Y-123857969D01*
X103631333Y-123508667D01*
X103282031Y-123275270D01*
X103255537Y-123270000D01*
X103282031Y-123264730D01*
X103359062Y-123213259D01*
X124507968Y-123213259D01*
X124507968Y-123465877D01*
X124604641Y-123699266D01*
X124783270Y-123877895D01*
X125016659Y-123974568D01*
X125269277Y-123974568D01*
X125502666Y-123877895D01*
X125681295Y-123699266D01*
X125685028Y-123690253D01*
X125723102Y-123728327D01*
X125956491Y-123825000D01*
X125989272Y-123825000D01*
X126068199Y-124015546D01*
X126246828Y-124194175D01*
X126480217Y-124290848D01*
X126732835Y-124290848D01*
X126966224Y-124194175D01*
X127140488Y-124019911D01*
X128366848Y-124019911D01*
X128366848Y-124272529D01*
X128463521Y-124505918D01*
X128549713Y-124592110D01*
X128463521Y-124678302D01*
X128366848Y-124911691D01*
X128366848Y-125164309D01*
X128463521Y-125397698D01*
X128636708Y-125570885D01*
X128463521Y-125744071D01*
X128366848Y-125977460D01*
X128366848Y-126230078D01*
X128424638Y-126369595D01*
X128366848Y-126509111D01*
X128366848Y-126761729D01*
X128463521Y-126995118D01*
X128642150Y-127173747D01*
X128875539Y-127270420D01*
X129128157Y-127270420D01*
X129361546Y-127173747D01*
X129540175Y-126995118D01*
X129636848Y-126761729D01*
X129636848Y-126509111D01*
X129579058Y-126369594D01*
X129636848Y-126230078D01*
X129636848Y-125977460D01*
X129540175Y-125744071D01*
X129366989Y-125570885D01*
X129540175Y-125397698D01*
X129636848Y-125164309D01*
X129636848Y-124911691D01*
X129540175Y-124678302D01*
X129453983Y-124592110D01*
X129540175Y-124505918D01*
X129632842Y-124282200D01*
X129709109Y-124282200D01*
X129942498Y-124185527D01*
X130121127Y-124006898D01*
X130217800Y-123773509D01*
X130217800Y-123520891D01*
X130121127Y-123287502D01*
X129942498Y-123108873D01*
X129833420Y-123063691D01*
X134112000Y-123063691D01*
X134112000Y-123316309D01*
X134208673Y-123549698D01*
X134387302Y-123728327D01*
X134620691Y-123825000D01*
X134873309Y-123825000D01*
X135106698Y-123728327D01*
X135285327Y-123549698D01*
X135382000Y-123316309D01*
X135382000Y-123063691D01*
X135285327Y-122830302D01*
X135106698Y-122651673D01*
X134873309Y-122555000D01*
X134620691Y-122555000D01*
X134387302Y-122651673D01*
X134208673Y-122830302D01*
X134112000Y-123063691D01*
X129833420Y-123063691D01*
X129709109Y-123012200D01*
X129456491Y-123012200D01*
X129223102Y-123108873D01*
X129044473Y-123287502D01*
X128951806Y-123511220D01*
X128875539Y-123511220D01*
X128642150Y-123607893D01*
X128463521Y-123786522D01*
X128366848Y-124019911D01*
X127140488Y-124019911D01*
X127144853Y-124015546D01*
X127241526Y-123782157D01*
X127241526Y-123529539D01*
X127144853Y-123296150D01*
X126966224Y-123117521D01*
X126732835Y-123020848D01*
X126700054Y-123020848D01*
X126621127Y-122830302D01*
X126442498Y-122651673D01*
X126209109Y-122555000D01*
X125956491Y-122555000D01*
X125723102Y-122651673D01*
X125544473Y-122830302D01*
X125540740Y-122839315D01*
X125502666Y-122801241D01*
X125269277Y-122704568D01*
X125016659Y-122704568D01*
X124783270Y-122801241D01*
X124604641Y-122979870D01*
X124507968Y-123213259D01*
X103359062Y-123213259D01*
X103631333Y-123031333D01*
X103864730Y-122682031D01*
X103884407Y-122583104D01*
X110133501Y-122583104D01*
X110170648Y-122798217D01*
X110598972Y-122941112D01*
X111049375Y-122909217D01*
X111317352Y-122798217D01*
X111354499Y-122583104D01*
X110744000Y-121972605D01*
X110133501Y-122583104D01*
X103884407Y-122583104D01*
X103946688Y-122270000D01*
X103864730Y-121857969D01*
X103724414Y-121647972D01*
X109595888Y-121647972D01*
X109627783Y-122098375D01*
X109738783Y-122366352D01*
X109953896Y-122403499D01*
X110564395Y-121793000D01*
X110923605Y-121793000D01*
X111534104Y-122403499D01*
X111749217Y-122366352D01*
X111892112Y-121938028D01*
X111860217Y-121487625D01*
X111850221Y-121463491D01*
X120599200Y-121463491D01*
X120599200Y-121716109D01*
X120695873Y-121949498D01*
X120874502Y-122128127D01*
X121107891Y-122224800D01*
X121360509Y-122224800D01*
X121593898Y-122128127D01*
X121772527Y-121949498D01*
X121869200Y-121716109D01*
X121869200Y-121463491D01*
X121772527Y-121230102D01*
X121593898Y-121051473D01*
X121360509Y-120954800D01*
X121107891Y-120954800D01*
X120874502Y-121051473D01*
X120695873Y-121230102D01*
X120599200Y-121463491D01*
X111850221Y-121463491D01*
X111749217Y-121219648D01*
X111534104Y-121182501D01*
X110923605Y-121793000D01*
X110564395Y-121793000D01*
X109953896Y-121182501D01*
X109738783Y-121219648D01*
X109595888Y-121647972D01*
X103724414Y-121647972D01*
X103631333Y-121508667D01*
X103282031Y-121275270D01*
X103255537Y-121270000D01*
X103282031Y-121264730D01*
X103631333Y-121031333D01*
X103650334Y-121002896D01*
X110133501Y-121002896D01*
X110744000Y-121613395D01*
X111354499Y-121002896D01*
X111319996Y-120803091D01*
X124383800Y-120803091D01*
X124383800Y-121055709D01*
X124480473Y-121289098D01*
X124659102Y-121467727D01*
X124892491Y-121564400D01*
X125145109Y-121564400D01*
X125378498Y-121467727D01*
X125557127Y-121289098D01*
X125653800Y-121055709D01*
X125653800Y-120803091D01*
X125643279Y-120777691D01*
X127812790Y-120777691D01*
X127812790Y-121030309D01*
X127909463Y-121263698D01*
X128088092Y-121442327D01*
X128321481Y-121539000D01*
X128574099Y-121539000D01*
X128807488Y-121442327D01*
X128986117Y-121263698D01*
X129082790Y-121030309D01*
X129082790Y-120777691D01*
X129387600Y-120777691D01*
X129387600Y-121030309D01*
X129484273Y-121263698D01*
X129662902Y-121442327D01*
X129896291Y-121539000D01*
X130148909Y-121539000D01*
X130382298Y-121442327D01*
X130560927Y-121263698D01*
X130657600Y-121030309D01*
X130657600Y-120777691D01*
X131826000Y-120777691D01*
X131826000Y-121030309D01*
X131922673Y-121263698D01*
X132101302Y-121442327D01*
X132334691Y-121539000D01*
X132587309Y-121539000D01*
X132820698Y-121442327D01*
X132999327Y-121263698D01*
X133096000Y-121030309D01*
X133096000Y-120853891D01*
X133400800Y-120853891D01*
X133400800Y-121106509D01*
X133497473Y-121339898D01*
X133676102Y-121518527D01*
X133909491Y-121615200D01*
X134162109Y-121615200D01*
X134395498Y-121518527D01*
X134574127Y-121339898D01*
X134670800Y-121106509D01*
X134670800Y-120853891D01*
X134574127Y-120620502D01*
X134395498Y-120441873D01*
X134162109Y-120345200D01*
X133909491Y-120345200D01*
X133676102Y-120441873D01*
X133497473Y-120620502D01*
X133400800Y-120853891D01*
X133096000Y-120853891D01*
X133096000Y-120777691D01*
X132999327Y-120544302D01*
X132820698Y-120365673D01*
X132587309Y-120269000D01*
X132334691Y-120269000D01*
X132101302Y-120365673D01*
X131922673Y-120544302D01*
X131826000Y-120777691D01*
X130657600Y-120777691D01*
X130560927Y-120544302D01*
X130382298Y-120365673D01*
X130148909Y-120269000D01*
X129896291Y-120269000D01*
X129662902Y-120365673D01*
X129484273Y-120544302D01*
X129387600Y-120777691D01*
X129082790Y-120777691D01*
X128986117Y-120544302D01*
X128807488Y-120365673D01*
X128574099Y-120269000D01*
X128321481Y-120269000D01*
X128088092Y-120365673D01*
X127909463Y-120544302D01*
X127812790Y-120777691D01*
X125643279Y-120777691D01*
X125557127Y-120569702D01*
X125378498Y-120391073D01*
X125145109Y-120294400D01*
X124892491Y-120294400D01*
X124659102Y-120391073D01*
X124480473Y-120569702D01*
X124383800Y-120803091D01*
X111319996Y-120803091D01*
X111317352Y-120787783D01*
X110889028Y-120644888D01*
X110438625Y-120676783D01*
X110170648Y-120787783D01*
X110133501Y-121002896D01*
X103650334Y-121002896D01*
X103864730Y-120682031D01*
X103946688Y-120270000D01*
X103901156Y-120041091D01*
X118973600Y-120041091D01*
X118973600Y-120293709D01*
X119070273Y-120527098D01*
X119248902Y-120705727D01*
X119482291Y-120802400D01*
X119734909Y-120802400D01*
X119968298Y-120705727D01*
X120146927Y-120527098D01*
X120243600Y-120293709D01*
X120243600Y-120041091D01*
X120146927Y-119807702D01*
X119968298Y-119629073D01*
X119797899Y-119558491D01*
X121056400Y-119558491D01*
X121056400Y-119811109D01*
X121153073Y-120044498D01*
X121331702Y-120223127D01*
X121565091Y-120319800D01*
X121817709Y-120319800D01*
X122051098Y-120223127D01*
X122229727Y-120044498D01*
X122326400Y-119811109D01*
X122326400Y-119761691D01*
X134366000Y-119761691D01*
X134366000Y-120014309D01*
X134462673Y-120247698D01*
X134641302Y-120426327D01*
X134874691Y-120523000D01*
X135127309Y-120523000D01*
X135360698Y-120426327D01*
X135415734Y-120371291D01*
X138328400Y-120371291D01*
X138328400Y-120623909D01*
X138425073Y-120857298D01*
X138603702Y-121035927D01*
X138837091Y-121132600D01*
X139089709Y-121132600D01*
X139323098Y-121035927D01*
X139501727Y-120857298D01*
X139598400Y-120623909D01*
X139598400Y-120371291D01*
X139501727Y-120137902D01*
X139323903Y-119960078D01*
X139424698Y-119918327D01*
X139603327Y-119739698D01*
X139700000Y-119506309D01*
X139700000Y-119253691D01*
X139603327Y-119020302D01*
X139424698Y-118841673D01*
X139191309Y-118745000D01*
X138938691Y-118745000D01*
X138705302Y-118841673D01*
X138526673Y-119020302D01*
X138430000Y-119253691D01*
X138430000Y-119506309D01*
X138526673Y-119739698D01*
X138704497Y-119917522D01*
X138603702Y-119959273D01*
X138425073Y-120137902D01*
X138328400Y-120371291D01*
X135415734Y-120371291D01*
X135539327Y-120247698D01*
X135636000Y-120014309D01*
X135636000Y-119761691D01*
X135539327Y-119528302D01*
X135360698Y-119349673D01*
X135127309Y-119253000D01*
X134874691Y-119253000D01*
X134641302Y-119349673D01*
X134462673Y-119528302D01*
X134366000Y-119761691D01*
X122326400Y-119761691D01*
X122326400Y-119558491D01*
X122229727Y-119325102D01*
X122051098Y-119146473D01*
X121817709Y-119049800D01*
X121565091Y-119049800D01*
X121331702Y-119146473D01*
X121153073Y-119325102D01*
X121056400Y-119558491D01*
X119797899Y-119558491D01*
X119734909Y-119532400D01*
X119482291Y-119532400D01*
X119248902Y-119629073D01*
X119070273Y-119807702D01*
X118973600Y-120041091D01*
X103901156Y-120041091D01*
X103864730Y-119857969D01*
X103631333Y-119508667D01*
X103282031Y-119275270D01*
X103255537Y-119270000D01*
X103282031Y-119264730D01*
X103336565Y-119228291D01*
X115316000Y-119228291D01*
X115316000Y-119480909D01*
X115412673Y-119714298D01*
X115591302Y-119892927D01*
X115824691Y-119989600D01*
X116077309Y-119989600D01*
X116216826Y-119931810D01*
X116356342Y-119989600D01*
X116608960Y-119989600D01*
X116842349Y-119892927D01*
X117020978Y-119714298D01*
X117117651Y-119480909D01*
X117117651Y-119228291D01*
X117020978Y-118994902D01*
X116842349Y-118816273D01*
X116608960Y-118719600D01*
X116356342Y-118719600D01*
X116216826Y-118777390D01*
X116077309Y-118719600D01*
X115824691Y-118719600D01*
X115591302Y-118816273D01*
X115412673Y-118994902D01*
X115316000Y-119228291D01*
X103336565Y-119228291D01*
X103631333Y-119031333D01*
X103864730Y-118682031D01*
X103897536Y-118517101D01*
X118338600Y-118517101D01*
X118338600Y-118769719D01*
X118435273Y-119003108D01*
X118613902Y-119181737D01*
X118847291Y-119278410D01*
X119099909Y-119278410D01*
X119333298Y-119181737D01*
X119511927Y-119003108D01*
X119608600Y-118769719D01*
X119608600Y-118517101D01*
X119511927Y-118283712D01*
X119333298Y-118105083D01*
X119099909Y-118008410D01*
X118847291Y-118008410D01*
X118613902Y-118105083D01*
X118435273Y-118283712D01*
X118338600Y-118517101D01*
X103897536Y-118517101D01*
X103946688Y-118270000D01*
X103864730Y-117857969D01*
X103631333Y-117508667D01*
X103282031Y-117275270D01*
X103255537Y-117270000D01*
X103282031Y-117264730D01*
X103631333Y-117031333D01*
X103864730Y-116682031D01*
X103888746Y-116561291D01*
X115468400Y-116561291D01*
X115468400Y-116813909D01*
X115565073Y-117047298D01*
X115743702Y-117225927D01*
X115977091Y-117322600D01*
X116229709Y-117322600D01*
X116369226Y-117264810D01*
X116508742Y-117322600D01*
X116761360Y-117322600D01*
X116994749Y-117225927D01*
X117167936Y-117052741D01*
X117341122Y-117225927D01*
X117574511Y-117322600D01*
X117827129Y-117322600D01*
X118060518Y-117225927D01*
X118146710Y-117139735D01*
X118232902Y-117225927D01*
X118466291Y-117322600D01*
X118718909Y-117322600D01*
X118795800Y-117290751D01*
X118795800Y-117372721D01*
X118892473Y-117606110D01*
X119071102Y-117784739D01*
X119304491Y-117881412D01*
X119557109Y-117881412D01*
X119790498Y-117784739D01*
X119969127Y-117606110D01*
X119991585Y-117551891D01*
X121208800Y-117551891D01*
X121208800Y-117804509D01*
X121305473Y-118037898D01*
X121484102Y-118216527D01*
X121717491Y-118313200D01*
X121970109Y-118313200D01*
X122203498Y-118216527D01*
X122382127Y-118037898D01*
X122478800Y-117804509D01*
X122478800Y-117551891D01*
X122382127Y-117318502D01*
X122203498Y-117139873D01*
X121970109Y-117043200D01*
X121717491Y-117043200D01*
X121484102Y-117139873D01*
X121305473Y-117318502D01*
X121208800Y-117551891D01*
X119991585Y-117551891D01*
X120065800Y-117372721D01*
X120065800Y-117120103D01*
X119969127Y-116886714D01*
X119790498Y-116708085D01*
X119557109Y-116611412D01*
X119304491Y-116611412D01*
X119227600Y-116643261D01*
X119227600Y-116561291D01*
X119130927Y-116327902D01*
X118952298Y-116149273D01*
X118718909Y-116052600D01*
X118466291Y-116052600D01*
X118232902Y-116149273D01*
X118146710Y-116235465D01*
X118060518Y-116149273D01*
X117827129Y-116052600D01*
X117574511Y-116052600D01*
X117341122Y-116149273D01*
X117167936Y-116322460D01*
X116994749Y-116149273D01*
X116761360Y-116052600D01*
X116508742Y-116052600D01*
X116369226Y-116110390D01*
X116229709Y-116052600D01*
X115977091Y-116052600D01*
X115743702Y-116149273D01*
X115565073Y-116327902D01*
X115468400Y-116561291D01*
X103888746Y-116561291D01*
X103946688Y-116270000D01*
X103864730Y-115857969D01*
X103655805Y-115545291D01*
X121183400Y-115545291D01*
X121183400Y-115797909D01*
X121280073Y-116031298D01*
X121458702Y-116209927D01*
X121692091Y-116306600D01*
X121944709Y-116306600D01*
X122178098Y-116209927D01*
X122356727Y-116031298D01*
X122453400Y-115797909D01*
X122453400Y-115545291D01*
X122356727Y-115311902D01*
X122178098Y-115133273D01*
X121944709Y-115036600D01*
X121692091Y-115036600D01*
X121458702Y-115133273D01*
X121280073Y-115311902D01*
X121183400Y-115545291D01*
X103655805Y-115545291D01*
X103631333Y-115508667D01*
X103282031Y-115275270D01*
X103255537Y-115270000D01*
X103282031Y-115264730D01*
X103631333Y-115031333D01*
X103864730Y-114682031D01*
X103946688Y-114270000D01*
X103864730Y-113857969D01*
X103631333Y-113508667D01*
X103282031Y-113275270D01*
X103255537Y-113270000D01*
X103282031Y-113264730D01*
X103631333Y-113031333D01*
X103864730Y-112682031D01*
X103946688Y-112270000D01*
X103864730Y-111857969D01*
X103631333Y-111508667D01*
X103479116Y-111406958D01*
X111412400Y-111406958D01*
X111412400Y-111757442D01*
X111546524Y-112081247D01*
X111794353Y-112329076D01*
X112118158Y-112463200D01*
X112468642Y-112463200D01*
X112792447Y-112329076D01*
X113040276Y-112081247D01*
X113174400Y-111757442D01*
X113174400Y-111406958D01*
X113040276Y-111083153D01*
X112792447Y-110835324D01*
X112468642Y-110701200D01*
X112118158Y-110701200D01*
X111794353Y-110835324D01*
X111546524Y-111083153D01*
X111412400Y-111406958D01*
X103479116Y-111406958D01*
X103282031Y-111275270D01*
X103255537Y-111270000D01*
X103282031Y-111264730D01*
X103631333Y-111031333D01*
X103864730Y-110682031D01*
X103946688Y-110270000D01*
X103864730Y-109857969D01*
X103631333Y-109508667D01*
X103282031Y-109275270D01*
X103255537Y-109270000D01*
X103282031Y-109264730D01*
X103631333Y-109031333D01*
X103864730Y-108682031D01*
X103946688Y-108270000D01*
X103883174Y-107950691D01*
X112141000Y-107950691D01*
X112141000Y-108203309D01*
X112237673Y-108436698D01*
X112416302Y-108615327D01*
X112649691Y-108712000D01*
X112902309Y-108712000D01*
X113135698Y-108615327D01*
X113314327Y-108436698D01*
X113411000Y-108203309D01*
X113411000Y-107950691D01*
X113314327Y-107717302D01*
X113135698Y-107538673D01*
X112902309Y-107442000D01*
X112649691Y-107442000D01*
X112416302Y-107538673D01*
X112237673Y-107717302D01*
X112141000Y-107950691D01*
X103883174Y-107950691D01*
X103864730Y-107857969D01*
X103631333Y-107508667D01*
X103282031Y-107275270D01*
X103255537Y-107270000D01*
X103282031Y-107264730D01*
X103631333Y-107031333D01*
X103864730Y-106682031D01*
X103946688Y-106270000D01*
X103864730Y-105857969D01*
X103631333Y-105508667D01*
X103282031Y-105275270D01*
X103255537Y-105270000D01*
X103282031Y-105264730D01*
X103631333Y-105031333D01*
X103864730Y-104682031D01*
X103946688Y-104270000D01*
X103864730Y-103857969D01*
X103631333Y-103508667D01*
X103282031Y-103275270D01*
X103255537Y-103270000D01*
X103282031Y-103264730D01*
X103631333Y-103031333D01*
X103738670Y-102870691D01*
X113792000Y-102870691D01*
X113792000Y-103123309D01*
X113888673Y-103356698D01*
X114067302Y-103535327D01*
X114300691Y-103632000D01*
X114553309Y-103632000D01*
X114772863Y-103541058D01*
X114772864Y-108647932D01*
X114599675Y-108821121D01*
X114514840Y-108877806D01*
X114290284Y-109213879D01*
X114240294Y-109465196D01*
X114211431Y-109610301D01*
X114231335Y-109710365D01*
X114231336Y-110488087D01*
X114211431Y-110588155D01*
X114290285Y-110984578D01*
X114514841Y-111320650D01*
X114599673Y-111377333D01*
X115042753Y-111820413D01*
X115099438Y-111905248D01*
X115362839Y-112081247D01*
X115435508Y-112129803D01*
X115435509Y-112129803D01*
X115435510Y-112129804D01*
X115731868Y-112188753D01*
X115831932Y-112208657D01*
X115931996Y-112188753D01*
X116572123Y-112188753D01*
X116862621Y-112479252D01*
X116862620Y-113332107D01*
X116685160Y-113258600D01*
X116432542Y-113258600D01*
X116293026Y-113316390D01*
X116153509Y-113258600D01*
X115900891Y-113258600D01*
X115667502Y-113355273D01*
X115488873Y-113533902D01*
X115392200Y-113767291D01*
X115392200Y-114019909D01*
X115488873Y-114253298D01*
X115667502Y-114431927D01*
X115900891Y-114528600D01*
X116153509Y-114528600D01*
X116293026Y-114470810D01*
X116432542Y-114528600D01*
X116685160Y-114528600D01*
X116918549Y-114431927D01*
X117008060Y-114342416D01*
X117075249Y-114442971D01*
X117327303Y-114611388D01*
X117624620Y-114670528D01*
X117699668Y-114655600D01*
X118380376Y-114655600D01*
X118673809Y-114949034D01*
X118709237Y-115002055D01*
X118919281Y-115142403D01*
X119104505Y-115179246D01*
X119104510Y-115179246D01*
X119167045Y-115191685D01*
X119229581Y-115179246D01*
X119628744Y-115179246D01*
X119687657Y-115154844D01*
X119750200Y-115142403D01*
X119803221Y-115106975D01*
X119862133Y-115082573D01*
X119907224Y-115037482D01*
X119960244Y-115002055D01*
X119995671Y-114949035D01*
X120040762Y-114903944D01*
X120065164Y-114845032D01*
X120100592Y-114792011D01*
X120113032Y-114729468D01*
X120137435Y-114670555D01*
X120137435Y-114606787D01*
X120149875Y-114544246D01*
X120137435Y-114481705D01*
X120137435Y-114417937D01*
X120113032Y-114359024D01*
X120100592Y-114296481D01*
X120065164Y-114243460D01*
X120040762Y-114184548D01*
X119995670Y-114139456D01*
X119960244Y-114086437D01*
X119928692Y-114065354D01*
X119989600Y-113918309D01*
X119989600Y-113665691D01*
X119936995Y-113538691D01*
X121285000Y-113538691D01*
X121285000Y-113791309D01*
X121381673Y-114024698D01*
X121560302Y-114203327D01*
X121793691Y-114300000D01*
X122046309Y-114300000D01*
X122279698Y-114203327D01*
X122458327Y-114024698D01*
X122555000Y-113791309D01*
X122555000Y-113538691D01*
X134620000Y-113538691D01*
X134620000Y-113791309D01*
X134716673Y-114024698D01*
X134895302Y-114203327D01*
X135128691Y-114300000D01*
X135381309Y-114300000D01*
X135614698Y-114203327D01*
X135793327Y-114024698D01*
X135890000Y-113791309D01*
X135890000Y-113538691D01*
X135793327Y-113305302D01*
X135671116Y-113183091D01*
X137337800Y-113183091D01*
X137337800Y-113435709D01*
X137434473Y-113669098D01*
X137613102Y-113847727D01*
X137846491Y-113944400D01*
X138099109Y-113944400D01*
X138332498Y-113847727D01*
X138511127Y-113669098D01*
X138607800Y-113435709D01*
X138607800Y-113307330D01*
X138613028Y-113307330D01*
X138846417Y-113210657D01*
X138932609Y-113124465D01*
X139018801Y-113210657D01*
X139252190Y-113307330D01*
X139504808Y-113307330D01*
X139738197Y-113210657D01*
X139911384Y-113037471D01*
X140084570Y-113210657D01*
X140317959Y-113307330D01*
X140570577Y-113307330D01*
X140710094Y-113249540D01*
X140849610Y-113307330D01*
X141102228Y-113307330D01*
X141335617Y-113210657D01*
X141514246Y-113032028D01*
X141610919Y-112798639D01*
X141610919Y-112546021D01*
X141514246Y-112312632D01*
X141335617Y-112134003D01*
X141102228Y-112037330D01*
X140849610Y-112037330D01*
X140710094Y-112095120D01*
X140570577Y-112037330D01*
X140317959Y-112037330D01*
X140084570Y-112134003D01*
X139911384Y-112307190D01*
X139738197Y-112134003D01*
X139504808Y-112037330D01*
X139252190Y-112037330D01*
X139018801Y-112134003D01*
X138932609Y-112220195D01*
X138846417Y-112134003D01*
X138613028Y-112037330D01*
X138360410Y-112037330D01*
X138127021Y-112134003D01*
X137948392Y-112312632D01*
X137851719Y-112546021D01*
X137851719Y-112674400D01*
X137846491Y-112674400D01*
X137613102Y-112771073D01*
X137434473Y-112949702D01*
X137337800Y-113183091D01*
X135671116Y-113183091D01*
X135614698Y-113126673D01*
X135381309Y-113030000D01*
X135128691Y-113030000D01*
X134895302Y-113126673D01*
X134716673Y-113305302D01*
X134620000Y-113538691D01*
X122555000Y-113538691D01*
X122458327Y-113305302D01*
X122396982Y-113243957D01*
X122533698Y-113187327D01*
X122712327Y-113008698D01*
X122809000Y-112775309D01*
X122809000Y-112522691D01*
X122712327Y-112289302D01*
X122533698Y-112110673D01*
X122301978Y-112014691D01*
X134620000Y-112014691D01*
X134620000Y-112267309D01*
X134716673Y-112500698D01*
X134895302Y-112679327D01*
X135128691Y-112776000D01*
X135381309Y-112776000D01*
X135614698Y-112679327D01*
X135793327Y-112500698D01*
X135890000Y-112267309D01*
X135890000Y-112014691D01*
X135793327Y-111781302D01*
X135614698Y-111602673D01*
X135381309Y-111506000D01*
X135128691Y-111506000D01*
X134895302Y-111602673D01*
X134716673Y-111781302D01*
X134620000Y-112014691D01*
X122301978Y-112014691D01*
X122300309Y-112014000D01*
X122047691Y-112014000D01*
X121814302Y-112110673D01*
X121635673Y-112289302D01*
X121539000Y-112522691D01*
X121539000Y-112775309D01*
X121635673Y-113008698D01*
X121697018Y-113070043D01*
X121560302Y-113126673D01*
X121381673Y-113305302D01*
X121285000Y-113538691D01*
X119936995Y-113538691D01*
X119892927Y-113432302D01*
X119714298Y-113253673D01*
X119480909Y-113157000D01*
X119228291Y-113157000D01*
X118994902Y-113253673D01*
X118969004Y-113279571D01*
X118813717Y-113175812D01*
X118591448Y-113131600D01*
X118386620Y-113131600D01*
X118386620Y-112238667D01*
X118401548Y-112163620D01*
X118371924Y-112014691D01*
X118342408Y-111866303D01*
X118173991Y-111614249D01*
X118110369Y-111571738D01*
X117791322Y-111252691D01*
X121234200Y-111252691D01*
X121234200Y-111505309D01*
X121330873Y-111738698D01*
X121509502Y-111917327D01*
X121742891Y-112014000D01*
X121995509Y-112014000D01*
X122228898Y-111917327D01*
X122407527Y-111738698D01*
X122504200Y-111505309D01*
X122504200Y-111252691D01*
X122407527Y-111019302D01*
X122228898Y-110840673D01*
X121995509Y-110744000D01*
X121742891Y-110744000D01*
X121509502Y-110840673D01*
X121330873Y-111019302D01*
X121234200Y-111252691D01*
X117791322Y-111252691D01*
X117659296Y-111120666D01*
X117590804Y-110776330D01*
X117366248Y-110440258D01*
X117030176Y-110215702D01*
X116733818Y-110156753D01*
X116263335Y-110156753D01*
X116263335Y-110031141D01*
X116311785Y-109982691D01*
X118745000Y-109982691D01*
X118745000Y-110235309D01*
X118841673Y-110468698D01*
X119020302Y-110647327D01*
X119253691Y-110744000D01*
X119506309Y-110744000D01*
X119739698Y-110647327D01*
X119918327Y-110468698D01*
X120015000Y-110235309D01*
X120015000Y-110058891D01*
X134594600Y-110058891D01*
X134594600Y-110311509D01*
X134691273Y-110544898D01*
X134869902Y-110723527D01*
X135103291Y-110820200D01*
X135355909Y-110820200D01*
X135589298Y-110723527D01*
X135767927Y-110544898D01*
X135821943Y-110414491D01*
X137261600Y-110414491D01*
X137261600Y-110667109D01*
X137358273Y-110900498D01*
X137536902Y-111079127D01*
X137770291Y-111175800D01*
X138022909Y-111175800D01*
X138256298Y-111079127D01*
X138434927Y-110900498D01*
X138531600Y-110667109D01*
X138531600Y-110414491D01*
X138434927Y-110181102D01*
X138256298Y-110002473D01*
X138022909Y-109905800D01*
X137770291Y-109905800D01*
X137536902Y-110002473D01*
X137358273Y-110181102D01*
X137261600Y-110414491D01*
X135821943Y-110414491D01*
X135864600Y-110311509D01*
X135864600Y-110058891D01*
X135767927Y-109825502D01*
X135716141Y-109773716D01*
X139812230Y-109773716D01*
X139812230Y-110026334D01*
X139908903Y-110259723D01*
X140087532Y-110438352D01*
X140320921Y-110535025D01*
X140573539Y-110535025D01*
X140713056Y-110477235D01*
X140852572Y-110535025D01*
X141105190Y-110535025D01*
X141338579Y-110438352D01*
X141517208Y-110259723D01*
X141613881Y-110026334D01*
X141613881Y-109773716D01*
X141517208Y-109540327D01*
X141338579Y-109361698D01*
X141105190Y-109265025D01*
X140852572Y-109265025D01*
X140713055Y-109322815D01*
X140573539Y-109265025D01*
X140320921Y-109265025D01*
X140087532Y-109361698D01*
X139908903Y-109540327D01*
X139812230Y-109773716D01*
X135716141Y-109773716D01*
X135589298Y-109646873D01*
X135355909Y-109550200D01*
X135103291Y-109550200D01*
X134869902Y-109646873D01*
X134691273Y-109825502D01*
X134594600Y-110058891D01*
X120015000Y-110058891D01*
X120015000Y-109982691D01*
X119918327Y-109749302D01*
X119739698Y-109570673D01*
X119506309Y-109474000D01*
X119253691Y-109474000D01*
X119020302Y-109570673D01*
X118841673Y-109749302D01*
X118745000Y-109982691D01*
X116311785Y-109982691D01*
X116436523Y-109857953D01*
X116521358Y-109801268D01*
X116716868Y-109508667D01*
X116745913Y-109465198D01*
X116745913Y-109465197D01*
X116745914Y-109465196D01*
X116804863Y-109168838D01*
X116824767Y-109068774D01*
X116804863Y-108968710D01*
X116804863Y-108531917D01*
X116830485Y-108531917D01*
X116830485Y-108784535D01*
X116927158Y-109017924D01*
X117105787Y-109196553D01*
X117339176Y-109293226D01*
X117591794Y-109293226D01*
X117825183Y-109196553D01*
X118003812Y-109017924D01*
X118100485Y-108784535D01*
X118100485Y-108679653D01*
X118139901Y-108695980D01*
X118392519Y-108695980D01*
X118625908Y-108599307D01*
X118804537Y-108420678D01*
X118878054Y-108243194D01*
X119013916Y-108379056D01*
X119247305Y-108475729D01*
X119499923Y-108475729D01*
X119733312Y-108379056D01*
X119911941Y-108200427D01*
X119916885Y-108188490D01*
X134696144Y-108188490D01*
X134696144Y-108441108D01*
X134792817Y-108674497D01*
X134971446Y-108853126D01*
X135204835Y-108949799D01*
X135457453Y-108949799D01*
X135690842Y-108853126D01*
X135869471Y-108674497D01*
X135966144Y-108441108D01*
X135966144Y-108188490D01*
X135869471Y-107955101D01*
X135690842Y-107776472D01*
X135457453Y-107679799D01*
X135204835Y-107679799D01*
X134971446Y-107776472D01*
X134792817Y-107955101D01*
X134696144Y-108188490D01*
X119916885Y-108188490D01*
X120008614Y-107967038D01*
X120008614Y-107714420D01*
X119911941Y-107481031D01*
X119746601Y-107315691D01*
X122428000Y-107315691D01*
X122428000Y-107568309D01*
X122524673Y-107801698D01*
X122703302Y-107980327D01*
X122936691Y-108077000D01*
X123189309Y-108077000D01*
X123422698Y-107980327D01*
X123601327Y-107801698D01*
X123698000Y-107568309D01*
X123698000Y-107341091D01*
X125374400Y-107341091D01*
X125374400Y-107593709D01*
X125471073Y-107827098D01*
X125649702Y-108005727D01*
X125883091Y-108102400D01*
X126135709Y-108102400D01*
X126369098Y-108005727D01*
X126547727Y-107827098D01*
X126644400Y-107593709D01*
X126644400Y-107341091D01*
X126633879Y-107315691D01*
X127821894Y-107315691D01*
X127821894Y-107568309D01*
X127918567Y-107801698D01*
X128097196Y-107980327D01*
X128330585Y-108077000D01*
X128583203Y-108077000D01*
X128816592Y-107980327D01*
X128995221Y-107801698D01*
X129080800Y-107595091D01*
X137160000Y-107595091D01*
X137160000Y-107847709D01*
X137256673Y-108081098D01*
X137435302Y-108259727D01*
X137668691Y-108356400D01*
X137921309Y-108356400D01*
X138154698Y-108259727D01*
X138333327Y-108081098D01*
X138430000Y-107847709D01*
X138430000Y-107595091D01*
X138333327Y-107361702D01*
X138154698Y-107183073D01*
X137921309Y-107086400D01*
X137668691Y-107086400D01*
X137435302Y-107183073D01*
X137256673Y-107361702D01*
X137160000Y-107595091D01*
X129080800Y-107595091D01*
X129091894Y-107568309D01*
X129091894Y-107315691D01*
X128995221Y-107082302D01*
X128816592Y-106903673D01*
X128583203Y-106807000D01*
X128330585Y-106807000D01*
X128097196Y-106903673D01*
X127918567Y-107082302D01*
X127821894Y-107315691D01*
X126633879Y-107315691D01*
X126547727Y-107107702D01*
X126369098Y-106929073D01*
X126135709Y-106832400D01*
X125883091Y-106832400D01*
X125649702Y-106929073D01*
X125471073Y-107107702D01*
X125374400Y-107341091D01*
X123698000Y-107341091D01*
X123698000Y-107315691D01*
X123601327Y-107082302D01*
X123422698Y-106903673D01*
X123189309Y-106807000D01*
X122936691Y-106807000D01*
X122703302Y-106903673D01*
X122524673Y-107082302D01*
X122428000Y-107315691D01*
X119746601Y-107315691D01*
X119733312Y-107302402D01*
X119499923Y-107205729D01*
X119247305Y-107205729D01*
X119013916Y-107302402D01*
X118835287Y-107481031D01*
X118761770Y-107658515D01*
X118625908Y-107522653D01*
X118392519Y-107425980D01*
X118139901Y-107425980D01*
X117906512Y-107522653D01*
X117727883Y-107701282D01*
X117631210Y-107934671D01*
X117631210Y-108039553D01*
X117591794Y-108023226D01*
X117339176Y-108023226D01*
X117105787Y-108119899D01*
X116927158Y-108298528D01*
X116830485Y-108531917D01*
X116804863Y-108531917D01*
X116804863Y-107227589D01*
X116841790Y-107264516D01*
X117075179Y-107361189D01*
X117327797Y-107361189D01*
X117561186Y-107264516D01*
X117739815Y-107085887D01*
X117836488Y-106852498D01*
X117836488Y-106599880D01*
X117739815Y-106366491D01*
X117673015Y-106299691D01*
X119761000Y-106299691D01*
X119761000Y-106552309D01*
X119857673Y-106785698D01*
X120036302Y-106964327D01*
X120269691Y-107061000D01*
X120522309Y-107061000D01*
X120755698Y-106964327D01*
X120934327Y-106785698D01*
X121031000Y-106552309D01*
X121031000Y-106299691D01*
X120934327Y-106066302D01*
X120755698Y-105887673D01*
X120522309Y-105791000D01*
X120269691Y-105791000D01*
X120036302Y-105887673D01*
X119857673Y-106066302D01*
X119761000Y-106299691D01*
X117673015Y-106299691D01*
X117561186Y-106187862D01*
X117327797Y-106091189D01*
X117075179Y-106091189D01*
X116841790Y-106187862D01*
X116804863Y-106224789D01*
X116804863Y-105055091D01*
X121843800Y-105055091D01*
X121843800Y-105307709D01*
X121940473Y-105541098D01*
X122119102Y-105719727D01*
X122352491Y-105816400D01*
X122605109Y-105816400D01*
X122838498Y-105719727D01*
X123017127Y-105541098D01*
X123021118Y-105531462D01*
X123200889Y-105531462D01*
X123434278Y-105434789D01*
X123612907Y-105256160D01*
X123709580Y-105022771D01*
X123709580Y-104852963D01*
X124382728Y-104852963D01*
X124382728Y-105105581D01*
X124479401Y-105338970D01*
X124658030Y-105517599D01*
X124891419Y-105614272D01*
X125144037Y-105614272D01*
X125377426Y-105517599D01*
X125556055Y-105338970D01*
X125652728Y-105105581D01*
X125652728Y-104877291D01*
X125882400Y-104877291D01*
X125882400Y-105129909D01*
X125979073Y-105363298D01*
X126157702Y-105541927D01*
X126391091Y-105638600D01*
X126643709Y-105638600D01*
X126877098Y-105541927D01*
X127055727Y-105363298D01*
X127096668Y-105264458D01*
X127187916Y-105264458D01*
X127421305Y-105167785D01*
X127599934Y-104989156D01*
X127696607Y-104755767D01*
X127696607Y-104503149D01*
X127599934Y-104269760D01*
X127421305Y-104091131D01*
X127187916Y-103994458D01*
X126935298Y-103994458D01*
X126701909Y-104091131D01*
X126523280Y-104269760D01*
X126482339Y-104368600D01*
X126391091Y-104368600D01*
X126157702Y-104465273D01*
X125979073Y-104643902D01*
X125882400Y-104877291D01*
X125652728Y-104877291D01*
X125652728Y-104852963D01*
X125556055Y-104619574D01*
X125377426Y-104440945D01*
X125144037Y-104344272D01*
X124891419Y-104344272D01*
X124658030Y-104440945D01*
X124479401Y-104619574D01*
X124382728Y-104852963D01*
X123709580Y-104852963D01*
X123709580Y-104770153D01*
X123612907Y-104536764D01*
X123525084Y-104448941D01*
X123601327Y-104372698D01*
X123698000Y-104139309D01*
X123698000Y-103886691D01*
X123601327Y-103653302D01*
X123453025Y-103505000D01*
X123601327Y-103356698D01*
X123698000Y-103123309D01*
X123698000Y-102870691D01*
X123601327Y-102637302D01*
X123422698Y-102458673D01*
X123189309Y-102362000D01*
X122936691Y-102362000D01*
X122703302Y-102458673D01*
X122524673Y-102637302D01*
X122428000Y-102870691D01*
X122428000Y-103123309D01*
X122524673Y-103356698D01*
X122672975Y-103505000D01*
X122524673Y-103653302D01*
X122428000Y-103886691D01*
X122428000Y-104139309D01*
X122524673Y-104372698D01*
X122612496Y-104460521D01*
X122536253Y-104536764D01*
X122532262Y-104546400D01*
X122352491Y-104546400D01*
X122119102Y-104643073D01*
X121940473Y-104821702D01*
X121843800Y-105055091D01*
X116804863Y-105055091D01*
X116804863Y-102546703D01*
X117481771Y-101869796D01*
X117623302Y-102011327D01*
X117856691Y-102108000D01*
X118109309Y-102108000D01*
X118342698Y-102011327D01*
X118521327Y-101832698D01*
X118618000Y-101599309D01*
X118618000Y-101346691D01*
X118521327Y-101113302D01*
X118379796Y-100971771D01*
X118386567Y-100965000D01*
X119370975Y-100965000D01*
X119222673Y-101113302D01*
X119126000Y-101346691D01*
X119126000Y-101599309D01*
X119222673Y-101832698D01*
X119401302Y-102011327D01*
X119634691Y-102108000D01*
X119887309Y-102108000D01*
X120120698Y-102011327D01*
X120299327Y-101832698D01*
X120396000Y-101599309D01*
X120396000Y-101595959D01*
X125555398Y-101595959D01*
X125555398Y-101848577D01*
X125613188Y-101988094D01*
X125555398Y-102127610D01*
X125555398Y-102380228D01*
X125652071Y-102613617D01*
X125830700Y-102792246D01*
X126064089Y-102888919D01*
X126316707Y-102888919D01*
X126550096Y-102792246D01*
X126728725Y-102613617D01*
X126825398Y-102380228D01*
X126825398Y-102127610D01*
X126767608Y-101988094D01*
X126825398Y-101848577D01*
X126825398Y-101595959D01*
X126825325Y-101595781D01*
X128380704Y-101595781D01*
X128380704Y-101848399D01*
X128438494Y-101987915D01*
X128380704Y-102127432D01*
X128380704Y-102380050D01*
X128477377Y-102613439D01*
X128650564Y-102786626D01*
X128477377Y-102959812D01*
X128380704Y-103193201D01*
X128380704Y-103445819D01*
X128477377Y-103679208D01*
X128563569Y-103765400D01*
X128477377Y-103851592D01*
X128380704Y-104084981D01*
X128380704Y-104337599D01*
X128477377Y-104570988D01*
X128656006Y-104749617D01*
X128889395Y-104846290D01*
X128965866Y-104846290D01*
X129043109Y-105032770D01*
X129221738Y-105211399D01*
X129391875Y-105281872D01*
X129391875Y-105286954D01*
X129488548Y-105520343D01*
X129667177Y-105698972D01*
X129900566Y-105795645D01*
X130153184Y-105795645D01*
X130386573Y-105698972D01*
X130565202Y-105520343D01*
X130661875Y-105286954D01*
X130661875Y-105113641D01*
X131947800Y-105113641D01*
X131947800Y-105366259D01*
X132044473Y-105599648D01*
X132223102Y-105778277D01*
X132456491Y-105874950D01*
X132709109Y-105874950D01*
X132942498Y-105778277D01*
X133121127Y-105599648D01*
X133195011Y-105421276D01*
X133239103Y-105465368D01*
X133472492Y-105562041D01*
X133725110Y-105562041D01*
X133958499Y-105465368D01*
X134080009Y-105343858D01*
X134239691Y-105410000D01*
X134483975Y-105410000D01*
X134641302Y-105567327D01*
X134874691Y-105664000D01*
X135127309Y-105664000D01*
X135360698Y-105567327D01*
X135539327Y-105388698D01*
X135636000Y-105155309D01*
X135636000Y-104902691D01*
X135539327Y-104669302D01*
X135360698Y-104490673D01*
X135127309Y-104394000D01*
X134883025Y-104394000D01*
X134725698Y-104236673D01*
X134492309Y-104140000D01*
X134239691Y-104140000D01*
X134006302Y-104236673D01*
X133884792Y-104358183D01*
X133725110Y-104292041D01*
X133561481Y-104292041D01*
X133507327Y-104161302D01*
X133328698Y-103982673D01*
X133095309Y-103886000D01*
X132842691Y-103886000D01*
X132609302Y-103982673D01*
X132430673Y-104161302D01*
X132334000Y-104394691D01*
X132334000Y-104647309D01*
X132336962Y-104654460D01*
X132223102Y-104701623D01*
X132044473Y-104880252D01*
X131947800Y-105113641D01*
X130661875Y-105113641D01*
X130661875Y-105034336D01*
X130565202Y-104800947D01*
X130386573Y-104622318D01*
X130216436Y-104551845D01*
X130216436Y-104546763D01*
X130119763Y-104313374D01*
X129941134Y-104134745D01*
X129707745Y-104038072D01*
X129631274Y-104038072D01*
X129554031Y-103851592D01*
X129467839Y-103765400D01*
X129554031Y-103679208D01*
X129650704Y-103445819D01*
X129650704Y-103193201D01*
X129554031Y-102959812D01*
X129380845Y-102786626D01*
X129554031Y-102613439D01*
X129650704Y-102380050D01*
X129650704Y-102127432D01*
X129592914Y-101987916D01*
X129650704Y-101848399D01*
X129650704Y-101678758D01*
X135110600Y-101678758D01*
X135110600Y-102029242D01*
X135244724Y-102353047D01*
X135492553Y-102600876D01*
X135816358Y-102735000D01*
X136166842Y-102735000D01*
X136490647Y-102600876D01*
X136738476Y-102353047D01*
X136872600Y-102029242D01*
X136872600Y-101678758D01*
X136738476Y-101354953D01*
X136490647Y-101107124D01*
X136166842Y-100973000D01*
X135816358Y-100973000D01*
X135492553Y-101107124D01*
X135244724Y-101354953D01*
X135110600Y-101678758D01*
X129650704Y-101678758D01*
X129650704Y-101595781D01*
X129554031Y-101362392D01*
X129375402Y-101183763D01*
X129142013Y-101087090D01*
X128889395Y-101087090D01*
X128656006Y-101183763D01*
X128477377Y-101362392D01*
X128380704Y-101595781D01*
X126825325Y-101595781D01*
X126728725Y-101362570D01*
X126550096Y-101183941D01*
X126316707Y-101087268D01*
X126064089Y-101087268D01*
X125830700Y-101183941D01*
X125652071Y-101362570D01*
X125555398Y-101595959D01*
X120396000Y-101595959D01*
X120396000Y-101346691D01*
X120299327Y-101113302D01*
X120120698Y-100934673D01*
X120085930Y-100920272D01*
X120157423Y-100906051D01*
X120493495Y-100681495D01*
X120718051Y-100345423D01*
X120796904Y-99949000D01*
X120718051Y-99552577D01*
X120493495Y-99216505D01*
X120157423Y-98991949D01*
X119861065Y-98933000D01*
X118065789Y-98933000D01*
X117965725Y-98913096D01*
X117865662Y-98933000D01*
X117865661Y-98933000D01*
X117569303Y-98991949D01*
X117233231Y-99216505D01*
X117176548Y-99301337D01*
X115141203Y-101336683D01*
X115056368Y-101393368D01*
X114831812Y-101729441D01*
X114775742Y-102011327D01*
X114752959Y-102125863D01*
X114772863Y-102225927D01*
X114772863Y-102452942D01*
X114553309Y-102362000D01*
X114300691Y-102362000D01*
X114067302Y-102458673D01*
X113888673Y-102637302D01*
X113792000Y-102870691D01*
X103738670Y-102870691D01*
X103864730Y-102682031D01*
X103946688Y-102270000D01*
X103864730Y-101857969D01*
X103631333Y-101508667D01*
X103282031Y-101275270D01*
X103255537Y-101270000D01*
X103282031Y-101264730D01*
X103631333Y-101031333D01*
X103770898Y-100822459D01*
X109660968Y-100822459D01*
X109660968Y-101075077D01*
X109757641Y-101308466D01*
X109936270Y-101487095D01*
X110169659Y-101583768D01*
X110422277Y-101583768D01*
X110655666Y-101487095D01*
X110834295Y-101308466D01*
X110930968Y-101075077D01*
X110930968Y-100965691D01*
X112268000Y-100965691D01*
X112268000Y-101218309D01*
X112364673Y-101451698D01*
X112543302Y-101630327D01*
X112776691Y-101727000D01*
X113029309Y-101727000D01*
X113262698Y-101630327D01*
X113441327Y-101451698D01*
X113538000Y-101218309D01*
X113538000Y-100965691D01*
X113441327Y-100732302D01*
X113262698Y-100553673D01*
X113029309Y-100457000D01*
X112776691Y-100457000D01*
X112543302Y-100553673D01*
X112364673Y-100732302D01*
X112268000Y-100965691D01*
X110930968Y-100965691D01*
X110930968Y-100822459D01*
X110834295Y-100589070D01*
X110655666Y-100410441D01*
X110422277Y-100313768D01*
X110169659Y-100313768D01*
X109936270Y-100410441D01*
X109757641Y-100589070D01*
X109660968Y-100822459D01*
X103770898Y-100822459D01*
X103864730Y-100682031D01*
X103946688Y-100270000D01*
X103864730Y-99857969D01*
X103782137Y-99734359D01*
X113753948Y-99734359D01*
X113753948Y-99986977D01*
X113850621Y-100220366D01*
X114029250Y-100398995D01*
X114262639Y-100495668D01*
X114515257Y-100495668D01*
X114748646Y-100398995D01*
X114927275Y-100220366D01*
X115023948Y-99986977D01*
X115023948Y-99734359D01*
X114927275Y-99500970D01*
X114748646Y-99322341D01*
X114515257Y-99225668D01*
X114262639Y-99225668D01*
X114029250Y-99322341D01*
X113850621Y-99500970D01*
X113753948Y-99734359D01*
X103782137Y-99734359D01*
X103631333Y-99508667D01*
X103282031Y-99275270D01*
X103255537Y-99270000D01*
X103282031Y-99264730D01*
X103631333Y-99031333D01*
X103864730Y-98682031D01*
X103946688Y-98270000D01*
X103864730Y-97857969D01*
X103734918Y-97663691D01*
X111252000Y-97663691D01*
X111252000Y-97916309D01*
X111348673Y-98149698D01*
X111527302Y-98328327D01*
X111760691Y-98425000D01*
X112013309Y-98425000D01*
X112246698Y-98328327D01*
X112425327Y-98149698D01*
X112468822Y-98044691D01*
X113030000Y-98044691D01*
X113030000Y-98297309D01*
X113126673Y-98530698D01*
X113305302Y-98709327D01*
X113538691Y-98806000D01*
X113791309Y-98806000D01*
X114024698Y-98709327D01*
X114203327Y-98530698D01*
X114300000Y-98297309D01*
X114300000Y-98044691D01*
X114270694Y-97973940D01*
X136039696Y-97973940D01*
X136039696Y-98226558D01*
X136136369Y-98459947D01*
X136314998Y-98638576D01*
X136548387Y-98735249D01*
X136801005Y-98735249D01*
X137034394Y-98638576D01*
X137213023Y-98459947D01*
X137309696Y-98226558D01*
X137309696Y-97973940D01*
X137213023Y-97740551D01*
X137034394Y-97561922D01*
X136802674Y-97465940D01*
X139087696Y-97465940D01*
X139087696Y-97718558D01*
X139184369Y-97951947D01*
X139362998Y-98130576D01*
X139596387Y-98227249D01*
X139849005Y-98227249D01*
X140082394Y-98130576D01*
X140261023Y-97951947D01*
X140357696Y-97718558D01*
X140357696Y-97465940D01*
X140261023Y-97232551D01*
X140082394Y-97053922D01*
X139849005Y-96957249D01*
X139596387Y-96957249D01*
X139362998Y-97053922D01*
X139184369Y-97232551D01*
X139087696Y-97465940D01*
X136802674Y-97465940D01*
X136801005Y-97465249D01*
X136548387Y-97465249D01*
X136314998Y-97561922D01*
X136136369Y-97740551D01*
X136039696Y-97973940D01*
X114270694Y-97973940D01*
X114203327Y-97811302D01*
X114024698Y-97632673D01*
X113791309Y-97536000D01*
X113538691Y-97536000D01*
X113305302Y-97632673D01*
X113126673Y-97811302D01*
X113030000Y-98044691D01*
X112468822Y-98044691D01*
X112522000Y-97916309D01*
X112522000Y-97663691D01*
X112425327Y-97430302D01*
X112246698Y-97251673D01*
X112013309Y-97155000D01*
X111760691Y-97155000D01*
X111527302Y-97251673D01*
X111348673Y-97430302D01*
X111252000Y-97663691D01*
X103734918Y-97663691D01*
X103631333Y-97508667D01*
X103282031Y-97275270D01*
X103255537Y-97270000D01*
X103282031Y-97264730D01*
X103631333Y-97031333D01*
X103864730Y-96682031D01*
X103941922Y-96293958D01*
X106103800Y-96293958D01*
X106103800Y-96644442D01*
X106237924Y-96968247D01*
X106485753Y-97216076D01*
X106809558Y-97350200D01*
X107160042Y-97350200D01*
X107483847Y-97216076D01*
X107731676Y-96968247D01*
X107865800Y-96644442D01*
X107865800Y-96293958D01*
X107731676Y-95970153D01*
X107483847Y-95722324D01*
X107475077Y-95718691D01*
X111887000Y-95718691D01*
X111887000Y-95971309D01*
X111983673Y-96204698D01*
X112044975Y-96266000D01*
X112023673Y-96287302D01*
X111927000Y-96520691D01*
X111927000Y-96773309D01*
X112023673Y-97006698D01*
X112202302Y-97185327D01*
X112435691Y-97282000D01*
X112688309Y-97282000D01*
X112921698Y-97185327D01*
X113100327Y-97006698D01*
X113197000Y-96773309D01*
X113197000Y-96520691D01*
X113100327Y-96287302D01*
X113039025Y-96226000D01*
X113060327Y-96204698D01*
X113087253Y-96139691D01*
X116459000Y-96139691D01*
X116459000Y-96392309D01*
X116555673Y-96625698D01*
X116734302Y-96804327D01*
X116967691Y-96901000D01*
X117220309Y-96901000D01*
X117453698Y-96804327D01*
X117632327Y-96625698D01*
X117652523Y-96576940D01*
X134896696Y-96576940D01*
X134896696Y-96829558D01*
X134993369Y-97062947D01*
X135171998Y-97241576D01*
X135405387Y-97338249D01*
X135658005Y-97338249D01*
X135891394Y-97241576D01*
X136070023Y-97062947D01*
X136103196Y-96982860D01*
X136136369Y-97062947D01*
X136314998Y-97241576D01*
X136548387Y-97338249D01*
X136801005Y-97338249D01*
X137034394Y-97241576D01*
X137213023Y-97062947D01*
X137309696Y-96829558D01*
X137309696Y-96576940D01*
X137213023Y-96343551D01*
X137034394Y-96164922D01*
X136801005Y-96068249D01*
X136548387Y-96068249D01*
X136314998Y-96164922D01*
X136136369Y-96343551D01*
X136103196Y-96423638D01*
X136070023Y-96343551D01*
X135891394Y-96164922D01*
X135658005Y-96068249D01*
X135405387Y-96068249D01*
X135171998Y-96164922D01*
X134993369Y-96343551D01*
X134896696Y-96576940D01*
X117652523Y-96576940D01*
X117729000Y-96392309D01*
X117729000Y-96139691D01*
X117632327Y-95906302D01*
X117453698Y-95727673D01*
X117220309Y-95631000D01*
X116967691Y-95631000D01*
X116734302Y-95727673D01*
X116555673Y-95906302D01*
X116459000Y-96139691D01*
X113087253Y-96139691D01*
X113157000Y-95971309D01*
X113157000Y-95718691D01*
X113060327Y-95485302D01*
X112881698Y-95306673D01*
X112648309Y-95210000D01*
X112395691Y-95210000D01*
X112162302Y-95306673D01*
X111983673Y-95485302D01*
X111887000Y-95718691D01*
X107475077Y-95718691D01*
X107160042Y-95588200D01*
X106809558Y-95588200D01*
X106485753Y-95722324D01*
X106237924Y-95970153D01*
X106103800Y-96293958D01*
X103941922Y-96293958D01*
X103946688Y-96270000D01*
X103864730Y-95857969D01*
X103631333Y-95508667D01*
X103282031Y-95275270D01*
X103255537Y-95270000D01*
X103282031Y-95264730D01*
X103631333Y-95031333D01*
X103864730Y-94682031D01*
X103946688Y-94270000D01*
X103939665Y-94234691D01*
X113538000Y-94234691D01*
X113538000Y-94487309D01*
X113634673Y-94720698D01*
X113813302Y-94899327D01*
X114046691Y-94996000D01*
X114299309Y-94996000D01*
X114532698Y-94899327D01*
X114562334Y-94869691D01*
X115189000Y-94869691D01*
X115189000Y-95122309D01*
X115285673Y-95355698D01*
X115464302Y-95534327D01*
X115697691Y-95631000D01*
X115950309Y-95631000D01*
X116183698Y-95534327D01*
X116362327Y-95355698D01*
X116459000Y-95122309D01*
X116459000Y-94869691D01*
X116362327Y-94636302D01*
X116183698Y-94457673D01*
X115950309Y-94361000D01*
X115697691Y-94361000D01*
X115464302Y-94457673D01*
X115285673Y-94636302D01*
X115189000Y-94869691D01*
X114562334Y-94869691D01*
X114711327Y-94720698D01*
X114808000Y-94487309D01*
X114808000Y-94234691D01*
X114711327Y-94001302D01*
X114619965Y-93909940D01*
X138960696Y-93909940D01*
X138960696Y-94162558D01*
X139057369Y-94395947D01*
X139235998Y-94574576D01*
X139469387Y-94671249D01*
X139722005Y-94671249D01*
X139955394Y-94574576D01*
X140134023Y-94395947D01*
X140230696Y-94162558D01*
X140230696Y-93909940D01*
X140134023Y-93676551D01*
X139955394Y-93497922D01*
X139722005Y-93401249D01*
X139469387Y-93401249D01*
X139235998Y-93497922D01*
X139057369Y-93676551D01*
X138960696Y-93909940D01*
X114619965Y-93909940D01*
X114532698Y-93822673D01*
X114299309Y-93726000D01*
X114046691Y-93726000D01*
X113813302Y-93822673D01*
X113634673Y-94001302D01*
X113538000Y-94234691D01*
X103939665Y-94234691D01*
X103864730Y-93857969D01*
X103631333Y-93508667D01*
X103282031Y-93275270D01*
X103255537Y-93270000D01*
X103282031Y-93264730D01*
X103631333Y-93031333D01*
X103756693Y-92843718D01*
X103780302Y-92867327D01*
X104013691Y-92964000D01*
X104266309Y-92964000D01*
X104499698Y-92867327D01*
X104648000Y-92719025D01*
X104796302Y-92867327D01*
X105029691Y-92964000D01*
X105282309Y-92964000D01*
X105515698Y-92867327D01*
X105670467Y-92712558D01*
X106230800Y-92712558D01*
X106230800Y-93063042D01*
X106364924Y-93386847D01*
X106612753Y-93634676D01*
X106936558Y-93768800D01*
X107287042Y-93768800D01*
X107610847Y-93634676D01*
X107858676Y-93386847D01*
X107992800Y-93063042D01*
X107992800Y-92712558D01*
X107858676Y-92388753D01*
X107610847Y-92140924D01*
X107287042Y-92006800D01*
X106936558Y-92006800D01*
X106612753Y-92140924D01*
X106364924Y-92388753D01*
X106230800Y-92712558D01*
X105670467Y-92712558D01*
X105694327Y-92688698D01*
X105791000Y-92455309D01*
X105791000Y-92202691D01*
X105694327Y-91969302D01*
X105515698Y-91790673D01*
X105282309Y-91694000D01*
X105029691Y-91694000D01*
X104796302Y-91790673D01*
X104648000Y-91938975D01*
X104499698Y-91790673D01*
X104266309Y-91694000D01*
X104013691Y-91694000D01*
X103811210Y-91777871D01*
X103631333Y-91508667D01*
X103282031Y-91275270D01*
X103255537Y-91270000D01*
X103282031Y-91264730D01*
X103440267Y-91159000D01*
X114550100Y-91159000D01*
X114685838Y-91186000D01*
X114685839Y-91186000D01*
X114773394Y-91203416D01*
X114860949Y-91186000D01*
X133945556Y-91186000D01*
X134204870Y-91134419D01*
X134498933Y-90937933D01*
X134695419Y-90643870D01*
X134764416Y-90297000D01*
X134695419Y-89950130D01*
X134498933Y-89656067D01*
X134204870Y-89459581D01*
X133945556Y-89408000D01*
X114969688Y-89408000D01*
X114833950Y-89381000D01*
X114833949Y-89381000D01*
X114746394Y-89363584D01*
X114658839Y-89381000D01*
X103440267Y-89381000D01*
X103282031Y-89275270D01*
X102974006Y-89214000D01*
X102765994Y-89214000D01*
X102457969Y-89275270D01*
X102108667Y-89508667D01*
X101875270Y-89857969D01*
X101870000Y-89884463D01*
X101864730Y-89857969D01*
X101631333Y-89508667D01*
X101282031Y-89275270D01*
X101271064Y-89273089D01*
X101269624Y-86664624D01*
X103806536Y-86666024D01*
X103806536Y-86666024D01*
G37*
X103806536Y-86666024D02*
X103806536Y-86945000D01*
X103836106Y-87093659D01*
X103920314Y-87219686D01*
X103995615Y-87270000D01*
X103920314Y-87320314D01*
X103836106Y-87446341D01*
X103806536Y-87595000D01*
X103806536Y-88945000D01*
X103836106Y-89093659D01*
X103920314Y-89219686D01*
X104046341Y-89303894D01*
X104195000Y-89333464D01*
X105545000Y-89333464D01*
X105693659Y-89303894D01*
X105819686Y-89219686D01*
X105903894Y-89093659D01*
X105933464Y-88945000D01*
X105933464Y-88769124D01*
X106108667Y-89031333D01*
X106457969Y-89264730D01*
X106765994Y-89326000D01*
X106974006Y-89326000D01*
X107282031Y-89264730D01*
X107631333Y-89031333D01*
X107864730Y-88682031D01*
X107870000Y-88655537D01*
X107875270Y-88682031D01*
X108108667Y-89031333D01*
X108457969Y-89264730D01*
X108765994Y-89326000D01*
X108974006Y-89326000D01*
X109282031Y-89264730D01*
X109631333Y-89031333D01*
X109864730Y-88682031D01*
X109870000Y-88655537D01*
X109875270Y-88682031D01*
X110108667Y-89031333D01*
X110457969Y-89264730D01*
X110765994Y-89326000D01*
X110974006Y-89326000D01*
X111282031Y-89264730D01*
X111631333Y-89031333D01*
X111864730Y-88682031D01*
X111870000Y-88655537D01*
X111875270Y-88682031D01*
X112108667Y-89031333D01*
X112457969Y-89264730D01*
X112765994Y-89326000D01*
X112974006Y-89326000D01*
X113282031Y-89264730D01*
X113631333Y-89031333D01*
X113864730Y-88682031D01*
X113870000Y-88655537D01*
X113875270Y-88682031D01*
X114108667Y-89031333D01*
X114457969Y-89264730D01*
X114765994Y-89326000D01*
X114974006Y-89326000D01*
X115282031Y-89264730D01*
X115631333Y-89031333D01*
X115864730Y-88682031D01*
X115870000Y-88655537D01*
X115875270Y-88682031D01*
X116108667Y-89031333D01*
X116457969Y-89264730D01*
X116765994Y-89326000D01*
X116974006Y-89326000D01*
X117282031Y-89264730D01*
X117631333Y-89031333D01*
X117864730Y-88682031D01*
X117870000Y-88655537D01*
X117875270Y-88682031D01*
X118108667Y-89031333D01*
X118457969Y-89264730D01*
X118765994Y-89326000D01*
X118974006Y-89326000D01*
X119282031Y-89264730D01*
X119631333Y-89031333D01*
X119864730Y-88682031D01*
X119870000Y-88655537D01*
X119875270Y-88682031D01*
X120108667Y-89031333D01*
X120457969Y-89264730D01*
X120765994Y-89326000D01*
X120974006Y-89326000D01*
X121282031Y-89264730D01*
X121631333Y-89031333D01*
X121864730Y-88682031D01*
X121870000Y-88655537D01*
X121875270Y-88682031D01*
X122108667Y-89031333D01*
X122457969Y-89264730D01*
X122765994Y-89326000D01*
X122974006Y-89326000D01*
X123282031Y-89264730D01*
X123631333Y-89031333D01*
X123864730Y-88682031D01*
X123870000Y-88655537D01*
X123875270Y-88682031D01*
X124108667Y-89031333D01*
X124457969Y-89264730D01*
X124765994Y-89326000D01*
X124974006Y-89326000D01*
X125282031Y-89264730D01*
X125631333Y-89031333D01*
X125864730Y-88682031D01*
X125870000Y-88655537D01*
X125875270Y-88682031D01*
X126108667Y-89031333D01*
X126457969Y-89264730D01*
X126765994Y-89326000D01*
X126974006Y-89326000D01*
X127282031Y-89264730D01*
X127631333Y-89031333D01*
X127864730Y-88682031D01*
X127870000Y-88655537D01*
X127875270Y-88682031D01*
X128108667Y-89031333D01*
X128457969Y-89264730D01*
X128765994Y-89326000D01*
X128974006Y-89326000D01*
X129282031Y-89264730D01*
X129631333Y-89031333D01*
X129864730Y-88682031D01*
X129870000Y-88655537D01*
X129875270Y-88682031D01*
X130108667Y-89031333D01*
X130457969Y-89264730D01*
X130765994Y-89326000D01*
X130974006Y-89326000D01*
X131282031Y-89264730D01*
X131631333Y-89031333D01*
X131864730Y-88682031D01*
X131870000Y-88655537D01*
X131875270Y-88682031D01*
X132108667Y-89031333D01*
X132457969Y-89264730D01*
X132765994Y-89326000D01*
X132974006Y-89326000D01*
X133282031Y-89264730D01*
X133631333Y-89031333D01*
X133864730Y-88682031D01*
X133870000Y-88655537D01*
X133875270Y-88682031D01*
X134108667Y-89031333D01*
X134457969Y-89264730D01*
X134765994Y-89326000D01*
X134974006Y-89326000D01*
X135282031Y-89264730D01*
X135631333Y-89031333D01*
X135864730Y-88682031D01*
X135870000Y-88655537D01*
X135875270Y-88682031D01*
X136108667Y-89031333D01*
X136457969Y-89264730D01*
X136765994Y-89326000D01*
X136974006Y-89326000D01*
X137282031Y-89264730D01*
X137631333Y-89031333D01*
X137864730Y-88682031D01*
X137870000Y-88655537D01*
X137875270Y-88682031D01*
X138108667Y-89031333D01*
X138457969Y-89264730D01*
X138765994Y-89326000D01*
X138974006Y-89326000D01*
X139282031Y-89264730D01*
X139631333Y-89031333D01*
X139864730Y-88682031D01*
X139870000Y-88655537D01*
X139875270Y-88682031D01*
X140108667Y-89031333D01*
X140457969Y-89264730D01*
X140765994Y-89326000D01*
X140974006Y-89326000D01*
X141282031Y-89264730D01*
X141631333Y-89031333D01*
X141864730Y-88682031D01*
X141870000Y-88655537D01*
X141875270Y-88682031D01*
X142108667Y-89031333D01*
X142457969Y-89264730D01*
X142765994Y-89326000D01*
X142974006Y-89326000D01*
X143282031Y-89264730D01*
X143631333Y-89031333D01*
X143864730Y-88682031D01*
X143946688Y-88270000D01*
X143864730Y-87857969D01*
X143631333Y-87508667D01*
X143282031Y-87275270D01*
X143255537Y-87270000D01*
X143282031Y-87264730D01*
X143631333Y-87031333D01*
X143860647Y-86688142D01*
X146456800Y-86689576D01*
X146456800Y-89206536D01*
X146195000Y-89206536D01*
X146046341Y-89236106D01*
X145920314Y-89320314D01*
X145870000Y-89395615D01*
X145819686Y-89320314D01*
X145693659Y-89236106D01*
X145545000Y-89206536D01*
X144195000Y-89206536D01*
X144046341Y-89236106D01*
X143920314Y-89320314D01*
X143836106Y-89446341D01*
X143806536Y-89595000D01*
X143806536Y-90945000D01*
X143836106Y-91093659D01*
X143920314Y-91219686D01*
X144046341Y-91303894D01*
X144195000Y-91333464D01*
X144370876Y-91333464D01*
X144108667Y-91508667D01*
X143875270Y-91857969D01*
X143793312Y-92270000D01*
X143875270Y-92682031D01*
X144108667Y-93031333D01*
X144457969Y-93264730D01*
X144484463Y-93270000D01*
X144457969Y-93275270D01*
X144108667Y-93508667D01*
X143875270Y-93857969D01*
X143793312Y-94270000D01*
X143875270Y-94682031D01*
X144108667Y-95031333D01*
X144457969Y-95264730D01*
X144484463Y-95270000D01*
X144457969Y-95275270D01*
X144108667Y-95508667D01*
X143875270Y-95857969D01*
X143793312Y-96270000D01*
X143875270Y-96682031D01*
X144108667Y-97031333D01*
X144457969Y-97264730D01*
X144484463Y-97270000D01*
X144457969Y-97275270D01*
X144108667Y-97508667D01*
X143875270Y-97857969D01*
X143793312Y-98270000D01*
X143875270Y-98682031D01*
X144108667Y-99031333D01*
X144457969Y-99264730D01*
X144484463Y-99270000D01*
X144457969Y-99275270D01*
X144108667Y-99508667D01*
X143875270Y-99857969D01*
X143793312Y-100270000D01*
X143875270Y-100682031D01*
X144108667Y-101031333D01*
X144457969Y-101264730D01*
X144484463Y-101270000D01*
X144457969Y-101275270D01*
X144108667Y-101508667D01*
X143875270Y-101857969D01*
X143793312Y-102270000D01*
X143875270Y-102682031D01*
X144108667Y-103031333D01*
X144457969Y-103264730D01*
X144484463Y-103270000D01*
X144457969Y-103275270D01*
X144108667Y-103508667D01*
X143875270Y-103857969D01*
X143793312Y-104270000D01*
X143875270Y-104682031D01*
X144108667Y-105031333D01*
X144457969Y-105264730D01*
X144484463Y-105270000D01*
X144457969Y-105275270D01*
X144108667Y-105508667D01*
X143875270Y-105857969D01*
X143793312Y-106270000D01*
X143875270Y-106682031D01*
X144108667Y-107031333D01*
X144457969Y-107264730D01*
X144484463Y-107270000D01*
X144457969Y-107275270D01*
X144108667Y-107508667D01*
X143875270Y-107857969D01*
X143793312Y-108270000D01*
X143875270Y-108682031D01*
X144108667Y-109031333D01*
X144457969Y-109264730D01*
X144484463Y-109270000D01*
X144457969Y-109275270D01*
X144108667Y-109508667D01*
X143875270Y-109857969D01*
X143793312Y-110270000D01*
X143875270Y-110682031D01*
X144108667Y-111031333D01*
X144457969Y-111264730D01*
X144484463Y-111270000D01*
X144457969Y-111275270D01*
X144108667Y-111508667D01*
X143875270Y-111857969D01*
X143793312Y-112270000D01*
X143875270Y-112682031D01*
X144108667Y-113031333D01*
X144457969Y-113264730D01*
X144484463Y-113270000D01*
X144457969Y-113275270D01*
X144108667Y-113508667D01*
X143875270Y-113857969D01*
X143793312Y-114270000D01*
X143875270Y-114682031D01*
X144108667Y-115031333D01*
X144457969Y-115264730D01*
X144484463Y-115270000D01*
X144457969Y-115275270D01*
X144108667Y-115508667D01*
X143875270Y-115857969D01*
X143793312Y-116270000D01*
X143875270Y-116682031D01*
X144108667Y-117031333D01*
X144457969Y-117264730D01*
X144484463Y-117270000D01*
X144457969Y-117275270D01*
X144108667Y-117508667D01*
X143875270Y-117857969D01*
X143793312Y-118270000D01*
X143875270Y-118682031D01*
X144108667Y-119031333D01*
X144457969Y-119264730D01*
X144484463Y-119270000D01*
X144457969Y-119275270D01*
X144108667Y-119508667D01*
X143875270Y-119857969D01*
X143793312Y-120270000D01*
X143875270Y-120682031D01*
X144108667Y-121031333D01*
X144457969Y-121264730D01*
X144484463Y-121270000D01*
X144457969Y-121275270D01*
X144108667Y-121508667D01*
X143875270Y-121857969D01*
X143793312Y-122270000D01*
X143875270Y-122682031D01*
X144108667Y-123031333D01*
X144457969Y-123264730D01*
X144484463Y-123270000D01*
X144457969Y-123275270D01*
X144108667Y-123508667D01*
X143875270Y-123857969D01*
X143793312Y-124270000D01*
X143875270Y-124682031D01*
X144108667Y-125031333D01*
X144457969Y-125264730D01*
X144484463Y-125270000D01*
X144457969Y-125275270D01*
X144108667Y-125508667D01*
X143875270Y-125857969D01*
X143793312Y-126270000D01*
X143875270Y-126682031D01*
X144108667Y-127031333D01*
X144457969Y-127264730D01*
X144484463Y-127270000D01*
X144457969Y-127275270D01*
X144108667Y-127508667D01*
X143875270Y-127857969D01*
X143793312Y-128270000D01*
X143875270Y-128682031D01*
X144108667Y-129031333D01*
X144457969Y-129264730D01*
X144765994Y-129326000D01*
X144974006Y-129326000D01*
X145282031Y-129264730D01*
X145631333Y-129031333D01*
X145864730Y-128682031D01*
X145870000Y-128655537D01*
X145875270Y-128682031D01*
X146108667Y-129031333D01*
X146456801Y-129263950D01*
X146456801Y-131876976D01*
X143933464Y-131875582D01*
X143933464Y-131595000D01*
X143903894Y-131446341D01*
X143819686Y-131320314D01*
X143744385Y-131270000D01*
X143819686Y-131219686D01*
X143903894Y-131093659D01*
X143933464Y-130945000D01*
X143933464Y-129595000D01*
X143903894Y-129446341D01*
X143819686Y-129320314D01*
X143693659Y-129236106D01*
X143545000Y-129206536D01*
X142195000Y-129206536D01*
X142046341Y-129236106D01*
X141920314Y-129320314D01*
X141836106Y-129446341D01*
X141806536Y-129595000D01*
X141806536Y-129770876D01*
X141631333Y-129508667D01*
X141282031Y-129275270D01*
X140974006Y-129214000D01*
X140765994Y-129214000D01*
X140457969Y-129275270D01*
X140108667Y-129508667D01*
X139875270Y-129857969D01*
X139870000Y-129884463D01*
X139864730Y-129857969D01*
X139631333Y-129508667D01*
X139282031Y-129275270D01*
X138974006Y-129214000D01*
X138765994Y-129214000D01*
X138457969Y-129275270D01*
X138108667Y-129508667D01*
X137875270Y-129857969D01*
X137870000Y-129884463D01*
X137864730Y-129857969D01*
X137631333Y-129508667D01*
X137282031Y-129275270D01*
X136974006Y-129214000D01*
X136765994Y-129214000D01*
X136457969Y-129275270D01*
X136108667Y-129508667D01*
X135875270Y-129857969D01*
X135870000Y-129884463D01*
X135864730Y-129857969D01*
X135631333Y-129508667D01*
X135282031Y-129275270D01*
X134974006Y-129214000D01*
X134765994Y-129214000D01*
X134457969Y-129275270D01*
X134108667Y-129508667D01*
X133875270Y-129857969D01*
X133870000Y-129884463D01*
X133864730Y-129857969D01*
X133631333Y-129508667D01*
X133282031Y-129275270D01*
X132974006Y-129214000D01*
X132765994Y-129214000D01*
X132457969Y-129275270D01*
X132108667Y-129508667D01*
X131875270Y-129857969D01*
X131870000Y-129884463D01*
X131864730Y-129857969D01*
X131631333Y-129508667D01*
X131282031Y-129275270D01*
X130974006Y-129214000D01*
X130765994Y-129214000D01*
X130457969Y-129275270D01*
X130108667Y-129508667D01*
X129875270Y-129857969D01*
X129870000Y-129884463D01*
X129864730Y-129857969D01*
X129631333Y-129508667D01*
X129282031Y-129275270D01*
X128974006Y-129214000D01*
X128765994Y-129214000D01*
X128457969Y-129275270D01*
X128108667Y-129508667D01*
X127875270Y-129857969D01*
X127870000Y-129884463D01*
X127864730Y-129857969D01*
X127631333Y-129508667D01*
X127282031Y-129275270D01*
X126974006Y-129214000D01*
X126765994Y-129214000D01*
X126457969Y-129275270D01*
X126108667Y-129508667D01*
X125875270Y-129857969D01*
X125870000Y-129884463D01*
X125864730Y-129857969D01*
X125631333Y-129508667D01*
X125282031Y-129275270D01*
X124974006Y-129214000D01*
X124765994Y-129214000D01*
X124457969Y-129275270D01*
X124108667Y-129508667D01*
X123875270Y-129857969D01*
X123870000Y-129884463D01*
X123864730Y-129857969D01*
X123631333Y-129508667D01*
X123282031Y-129275270D01*
X122974006Y-129214000D01*
X122765994Y-129214000D01*
X122457969Y-129275270D01*
X122108667Y-129508667D01*
X121875270Y-129857969D01*
X121870000Y-129884463D01*
X121864730Y-129857969D01*
X121631333Y-129508667D01*
X121282031Y-129275270D01*
X120974006Y-129214000D01*
X120765994Y-129214000D01*
X120457969Y-129275270D01*
X120108667Y-129508667D01*
X119875270Y-129857969D01*
X119870000Y-129884463D01*
X119864730Y-129857969D01*
X119631333Y-129508667D01*
X119282031Y-129275270D01*
X118974006Y-129214000D01*
X118765994Y-129214000D01*
X118457969Y-129275270D01*
X118108667Y-129508667D01*
X117875270Y-129857969D01*
X117870000Y-129884463D01*
X117864730Y-129857969D01*
X117631333Y-129508667D01*
X117282031Y-129275270D01*
X116974006Y-129214000D01*
X116765994Y-129214000D01*
X116457969Y-129275270D01*
X116108667Y-129508667D01*
X115875270Y-129857969D01*
X115870000Y-129884463D01*
X115864730Y-129857969D01*
X115631333Y-129508667D01*
X115282031Y-129275270D01*
X114974006Y-129214000D01*
X114765994Y-129214000D01*
X114457969Y-129275270D01*
X114108667Y-129508667D01*
X113875270Y-129857969D01*
X113870000Y-129884463D01*
X113864730Y-129857969D01*
X113631333Y-129508667D01*
X113282031Y-129275270D01*
X112974006Y-129214000D01*
X112765994Y-129214000D01*
X112457969Y-129275270D01*
X112108667Y-129508667D01*
X111875270Y-129857969D01*
X111870000Y-129884463D01*
X111864730Y-129857969D01*
X111631333Y-129508667D01*
X111282031Y-129275270D01*
X110974006Y-129214000D01*
X110765994Y-129214000D01*
X110457969Y-129275270D01*
X110108667Y-129508667D01*
X109875270Y-129857969D01*
X109870000Y-129884463D01*
X109864730Y-129857969D01*
X109631333Y-129508667D01*
X109282031Y-129275270D01*
X108974006Y-129214000D01*
X108765994Y-129214000D01*
X108457969Y-129275270D01*
X108108667Y-129508667D01*
X107875270Y-129857969D01*
X107870000Y-129884463D01*
X107864730Y-129857969D01*
X107631333Y-129508667D01*
X107282031Y-129275270D01*
X106974006Y-129214000D01*
X106765994Y-129214000D01*
X106457969Y-129275270D01*
X106108667Y-129508667D01*
X105875270Y-129857969D01*
X105870000Y-129884463D01*
X105864730Y-129857969D01*
X105631333Y-129508667D01*
X105282031Y-129275270D01*
X104974006Y-129214000D01*
X104765994Y-129214000D01*
X104457969Y-129275270D01*
X104108667Y-129508667D01*
X103875270Y-129857969D01*
X103793312Y-130270000D01*
X103875270Y-130682031D01*
X104108667Y-131031333D01*
X104457969Y-131264730D01*
X104484463Y-131270000D01*
X104457969Y-131275270D01*
X104108667Y-131508667D01*
X103878288Y-131853452D01*
X101294576Y-131852024D01*
X101293185Y-129333464D01*
X101545000Y-129333464D01*
X101693659Y-129303894D01*
X101819686Y-129219686D01*
X101870000Y-129144385D01*
X101920314Y-129219686D01*
X102046341Y-129303894D01*
X102195000Y-129333464D01*
X103545000Y-129333464D01*
X103693659Y-129303894D01*
X103819686Y-129219686D01*
X103903894Y-129093659D01*
X103933464Y-128945000D01*
X103933464Y-127595000D01*
X103903894Y-127446341D01*
X103819686Y-127320314D01*
X103693659Y-127236106D01*
X103545000Y-127206536D01*
X103369124Y-127206536D01*
X103631333Y-127031333D01*
X103864730Y-126682031D01*
X103946688Y-126270000D01*
X103885157Y-125960659D01*
X125426371Y-125960659D01*
X125426371Y-126213277D01*
X125484161Y-126352794D01*
X125426371Y-126492310D01*
X125426371Y-126744928D01*
X125523044Y-126978317D01*
X125701673Y-127156946D01*
X125935062Y-127253619D01*
X126187680Y-127253619D01*
X126421069Y-127156946D01*
X126599698Y-126978317D01*
X126696371Y-126744928D01*
X126696371Y-126492310D01*
X126638581Y-126352794D01*
X126696371Y-126213277D01*
X126696371Y-125960659D01*
X126599698Y-125727270D01*
X126421069Y-125548641D01*
X126187680Y-125451968D01*
X125935062Y-125451968D01*
X125701673Y-125548641D01*
X125523044Y-125727270D01*
X125426371Y-125960659D01*
X103885157Y-125960659D01*
X103864730Y-125857969D01*
X103631333Y-125508667D01*
X103282031Y-125275270D01*
X103255537Y-125270000D01*
X103282031Y-125264730D01*
X103631333Y-125031333D01*
X103864730Y-124682031D01*
X103946688Y-124270000D01*
X103864730Y-123857969D01*
X103631333Y-123508667D01*
X103282031Y-123275270D01*
X103255537Y-123270000D01*
X103282031Y-123264730D01*
X103359062Y-123213259D01*
X124507968Y-123213259D01*
X124507968Y-123465877D01*
X124604641Y-123699266D01*
X124783270Y-123877895D01*
X125016659Y-123974568D01*
X125269277Y-123974568D01*
X125502666Y-123877895D01*
X125681295Y-123699266D01*
X125685028Y-123690253D01*
X125723102Y-123728327D01*
X125956491Y-123825000D01*
X125989272Y-123825000D01*
X126068199Y-124015546D01*
X126246828Y-124194175D01*
X126480217Y-124290848D01*
X126732835Y-124290848D01*
X126966224Y-124194175D01*
X127140488Y-124019911D01*
X128366848Y-124019911D01*
X128366848Y-124272529D01*
X128463521Y-124505918D01*
X128549713Y-124592110D01*
X128463521Y-124678302D01*
X128366848Y-124911691D01*
X128366848Y-125164309D01*
X128463521Y-125397698D01*
X128636708Y-125570885D01*
X128463521Y-125744071D01*
X128366848Y-125977460D01*
X128366848Y-126230078D01*
X128424638Y-126369595D01*
X128366848Y-126509111D01*
X128366848Y-126761729D01*
X128463521Y-126995118D01*
X128642150Y-127173747D01*
X128875539Y-127270420D01*
X129128157Y-127270420D01*
X129361546Y-127173747D01*
X129540175Y-126995118D01*
X129636848Y-126761729D01*
X129636848Y-126509111D01*
X129579058Y-126369594D01*
X129636848Y-126230078D01*
X129636848Y-125977460D01*
X129540175Y-125744071D01*
X129366989Y-125570885D01*
X129540175Y-125397698D01*
X129636848Y-125164309D01*
X129636848Y-124911691D01*
X129540175Y-124678302D01*
X129453983Y-124592110D01*
X129540175Y-124505918D01*
X129632842Y-124282200D01*
X129709109Y-124282200D01*
X129942498Y-124185527D01*
X130121127Y-124006898D01*
X130217800Y-123773509D01*
X130217800Y-123520891D01*
X130121127Y-123287502D01*
X129942498Y-123108873D01*
X129833420Y-123063691D01*
X134112000Y-123063691D01*
X134112000Y-123316309D01*
X134208673Y-123549698D01*
X134387302Y-123728327D01*
X134620691Y-123825000D01*
X134873309Y-123825000D01*
X135106698Y-123728327D01*
X135285327Y-123549698D01*
X135382000Y-123316309D01*
X135382000Y-123063691D01*
X135285327Y-122830302D01*
X135106698Y-122651673D01*
X134873309Y-122555000D01*
X134620691Y-122555000D01*
X134387302Y-122651673D01*
X134208673Y-122830302D01*
X134112000Y-123063691D01*
X129833420Y-123063691D01*
X129709109Y-123012200D01*
X129456491Y-123012200D01*
X129223102Y-123108873D01*
X129044473Y-123287502D01*
X128951806Y-123511220D01*
X128875539Y-123511220D01*
X128642150Y-123607893D01*
X128463521Y-123786522D01*
X128366848Y-124019911D01*
X127140488Y-124019911D01*
X127144853Y-124015546D01*
X127241526Y-123782157D01*
X127241526Y-123529539D01*
X127144853Y-123296150D01*
X126966224Y-123117521D01*
X126732835Y-123020848D01*
X126700054Y-123020848D01*
X126621127Y-122830302D01*
X126442498Y-122651673D01*
X126209109Y-122555000D01*
X125956491Y-122555000D01*
X125723102Y-122651673D01*
X125544473Y-122830302D01*
X125540740Y-122839315D01*
X125502666Y-122801241D01*
X125269277Y-122704568D01*
X125016659Y-122704568D01*
X124783270Y-122801241D01*
X124604641Y-122979870D01*
X124507968Y-123213259D01*
X103359062Y-123213259D01*
X103631333Y-123031333D01*
X103864730Y-122682031D01*
X103884407Y-122583104D01*
X110133501Y-122583104D01*
X110170648Y-122798217D01*
X110598972Y-122941112D01*
X111049375Y-122909217D01*
X111317352Y-122798217D01*
X111354499Y-122583104D01*
X110744000Y-121972605D01*
X110133501Y-122583104D01*
X103884407Y-122583104D01*
X103946688Y-122270000D01*
X103864730Y-121857969D01*
X103724414Y-121647972D01*
X109595888Y-121647972D01*
X109627783Y-122098375D01*
X109738783Y-122366352D01*
X109953896Y-122403499D01*
X110564395Y-121793000D01*
X110923605Y-121793000D01*
X111534104Y-122403499D01*
X111749217Y-122366352D01*
X111892112Y-121938028D01*
X111860217Y-121487625D01*
X111850221Y-121463491D01*
X120599200Y-121463491D01*
X120599200Y-121716109D01*
X120695873Y-121949498D01*
X120874502Y-122128127D01*
X121107891Y-122224800D01*
X121360509Y-122224800D01*
X121593898Y-122128127D01*
X121772527Y-121949498D01*
X121869200Y-121716109D01*
X121869200Y-121463491D01*
X121772527Y-121230102D01*
X121593898Y-121051473D01*
X121360509Y-120954800D01*
X121107891Y-120954800D01*
X120874502Y-121051473D01*
X120695873Y-121230102D01*
X120599200Y-121463491D01*
X111850221Y-121463491D01*
X111749217Y-121219648D01*
X111534104Y-121182501D01*
X110923605Y-121793000D01*
X110564395Y-121793000D01*
X109953896Y-121182501D01*
X109738783Y-121219648D01*
X109595888Y-121647972D01*
X103724414Y-121647972D01*
X103631333Y-121508667D01*
X103282031Y-121275270D01*
X103255537Y-121270000D01*
X103282031Y-121264730D01*
X103631333Y-121031333D01*
X103650334Y-121002896D01*
X110133501Y-121002896D01*
X110744000Y-121613395D01*
X111354499Y-121002896D01*
X111319996Y-120803091D01*
X124383800Y-120803091D01*
X124383800Y-121055709D01*
X124480473Y-121289098D01*
X124659102Y-121467727D01*
X124892491Y-121564400D01*
X125145109Y-121564400D01*
X125378498Y-121467727D01*
X125557127Y-121289098D01*
X125653800Y-121055709D01*
X125653800Y-120803091D01*
X125643279Y-120777691D01*
X127812790Y-120777691D01*
X127812790Y-121030309D01*
X127909463Y-121263698D01*
X128088092Y-121442327D01*
X128321481Y-121539000D01*
X128574099Y-121539000D01*
X128807488Y-121442327D01*
X128986117Y-121263698D01*
X129082790Y-121030309D01*
X129082790Y-120777691D01*
X129387600Y-120777691D01*
X129387600Y-121030309D01*
X129484273Y-121263698D01*
X129662902Y-121442327D01*
X129896291Y-121539000D01*
X130148909Y-121539000D01*
X130382298Y-121442327D01*
X130560927Y-121263698D01*
X130657600Y-121030309D01*
X130657600Y-120777691D01*
X131826000Y-120777691D01*
X131826000Y-121030309D01*
X131922673Y-121263698D01*
X132101302Y-121442327D01*
X132334691Y-121539000D01*
X132587309Y-121539000D01*
X132820698Y-121442327D01*
X132999327Y-121263698D01*
X133096000Y-121030309D01*
X133096000Y-120853891D01*
X133400800Y-120853891D01*
X133400800Y-121106509D01*
X133497473Y-121339898D01*
X133676102Y-121518527D01*
X133909491Y-121615200D01*
X134162109Y-121615200D01*
X134395498Y-121518527D01*
X134574127Y-121339898D01*
X134670800Y-121106509D01*
X134670800Y-120853891D01*
X134574127Y-120620502D01*
X134395498Y-120441873D01*
X134162109Y-120345200D01*
X133909491Y-120345200D01*
X133676102Y-120441873D01*
X133497473Y-120620502D01*
X133400800Y-120853891D01*
X133096000Y-120853891D01*
X133096000Y-120777691D01*
X132999327Y-120544302D01*
X132820698Y-120365673D01*
X132587309Y-120269000D01*
X132334691Y-120269000D01*
X132101302Y-120365673D01*
X131922673Y-120544302D01*
X131826000Y-120777691D01*
X130657600Y-120777691D01*
X130560927Y-120544302D01*
X130382298Y-120365673D01*
X130148909Y-120269000D01*
X129896291Y-120269000D01*
X129662902Y-120365673D01*
X129484273Y-120544302D01*
X129387600Y-120777691D01*
X129082790Y-120777691D01*
X128986117Y-120544302D01*
X128807488Y-120365673D01*
X128574099Y-120269000D01*
X128321481Y-120269000D01*
X128088092Y-120365673D01*
X127909463Y-120544302D01*
X127812790Y-120777691D01*
X125643279Y-120777691D01*
X125557127Y-120569702D01*
X125378498Y-120391073D01*
X125145109Y-120294400D01*
X124892491Y-120294400D01*
X124659102Y-120391073D01*
X124480473Y-120569702D01*
X124383800Y-120803091D01*
X111319996Y-120803091D01*
X111317352Y-120787783D01*
X110889028Y-120644888D01*
X110438625Y-120676783D01*
X110170648Y-120787783D01*
X110133501Y-121002896D01*
X103650334Y-121002896D01*
X103864730Y-120682031D01*
X103946688Y-120270000D01*
X103901156Y-120041091D01*
X118973600Y-120041091D01*
X118973600Y-120293709D01*
X119070273Y-120527098D01*
X119248902Y-120705727D01*
X119482291Y-120802400D01*
X119734909Y-120802400D01*
X119968298Y-120705727D01*
X120146927Y-120527098D01*
X120243600Y-120293709D01*
X120243600Y-120041091D01*
X120146927Y-119807702D01*
X119968298Y-119629073D01*
X119797899Y-119558491D01*
X121056400Y-119558491D01*
X121056400Y-119811109D01*
X121153073Y-120044498D01*
X121331702Y-120223127D01*
X121565091Y-120319800D01*
X121817709Y-120319800D01*
X122051098Y-120223127D01*
X122229727Y-120044498D01*
X122326400Y-119811109D01*
X122326400Y-119761691D01*
X134366000Y-119761691D01*
X134366000Y-120014309D01*
X134462673Y-120247698D01*
X134641302Y-120426327D01*
X134874691Y-120523000D01*
X135127309Y-120523000D01*
X135360698Y-120426327D01*
X135415734Y-120371291D01*
X138328400Y-120371291D01*
X138328400Y-120623909D01*
X138425073Y-120857298D01*
X138603702Y-121035927D01*
X138837091Y-121132600D01*
X139089709Y-121132600D01*
X139323098Y-121035927D01*
X139501727Y-120857298D01*
X139598400Y-120623909D01*
X139598400Y-120371291D01*
X139501727Y-120137902D01*
X139323903Y-119960078D01*
X139424698Y-119918327D01*
X139603327Y-119739698D01*
X139700000Y-119506309D01*
X139700000Y-119253691D01*
X139603327Y-119020302D01*
X139424698Y-118841673D01*
X139191309Y-118745000D01*
X138938691Y-118745000D01*
X138705302Y-118841673D01*
X138526673Y-119020302D01*
X138430000Y-119253691D01*
X138430000Y-119506309D01*
X138526673Y-119739698D01*
X138704497Y-119917522D01*
X138603702Y-119959273D01*
X138425073Y-120137902D01*
X138328400Y-120371291D01*
X135415734Y-120371291D01*
X135539327Y-120247698D01*
X135636000Y-120014309D01*
X135636000Y-119761691D01*
X135539327Y-119528302D01*
X135360698Y-119349673D01*
X135127309Y-119253000D01*
X134874691Y-119253000D01*
X134641302Y-119349673D01*
X134462673Y-119528302D01*
X134366000Y-119761691D01*
X122326400Y-119761691D01*
X122326400Y-119558491D01*
X122229727Y-119325102D01*
X122051098Y-119146473D01*
X121817709Y-119049800D01*
X121565091Y-119049800D01*
X121331702Y-119146473D01*
X121153073Y-119325102D01*
X121056400Y-119558491D01*
X119797899Y-119558491D01*
X119734909Y-119532400D01*
X119482291Y-119532400D01*
X119248902Y-119629073D01*
X119070273Y-119807702D01*
X118973600Y-120041091D01*
X103901156Y-120041091D01*
X103864730Y-119857969D01*
X103631333Y-119508667D01*
X103282031Y-119275270D01*
X103255537Y-119270000D01*
X103282031Y-119264730D01*
X103336565Y-119228291D01*
X115316000Y-119228291D01*
X115316000Y-119480909D01*
X115412673Y-119714298D01*
X115591302Y-119892927D01*
X115824691Y-119989600D01*
X116077309Y-119989600D01*
X116216826Y-119931810D01*
X116356342Y-119989600D01*
X116608960Y-119989600D01*
X116842349Y-119892927D01*
X117020978Y-119714298D01*
X117117651Y-119480909D01*
X117117651Y-119228291D01*
X117020978Y-118994902D01*
X116842349Y-118816273D01*
X116608960Y-118719600D01*
X116356342Y-118719600D01*
X116216826Y-118777390D01*
X116077309Y-118719600D01*
X115824691Y-118719600D01*
X115591302Y-118816273D01*
X115412673Y-118994902D01*
X115316000Y-119228291D01*
X103336565Y-119228291D01*
X103631333Y-119031333D01*
X103864730Y-118682031D01*
X103897536Y-118517101D01*
X118338600Y-118517101D01*
X118338600Y-118769719D01*
X118435273Y-119003108D01*
X118613902Y-119181737D01*
X118847291Y-119278410D01*
X119099909Y-119278410D01*
X119333298Y-119181737D01*
X119511927Y-119003108D01*
X119608600Y-118769719D01*
X119608600Y-118517101D01*
X119511927Y-118283712D01*
X119333298Y-118105083D01*
X119099909Y-118008410D01*
X118847291Y-118008410D01*
X118613902Y-118105083D01*
X118435273Y-118283712D01*
X118338600Y-118517101D01*
X103897536Y-118517101D01*
X103946688Y-118270000D01*
X103864730Y-117857969D01*
X103631333Y-117508667D01*
X103282031Y-117275270D01*
X103255537Y-117270000D01*
X103282031Y-117264730D01*
X103631333Y-117031333D01*
X103864730Y-116682031D01*
X103888746Y-116561291D01*
X115468400Y-116561291D01*
X115468400Y-116813909D01*
X115565073Y-117047298D01*
X115743702Y-117225927D01*
X115977091Y-117322600D01*
X116229709Y-117322600D01*
X116369226Y-117264810D01*
X116508742Y-117322600D01*
X116761360Y-117322600D01*
X116994749Y-117225927D01*
X117167936Y-117052741D01*
X117341122Y-117225927D01*
X117574511Y-117322600D01*
X117827129Y-117322600D01*
X118060518Y-117225927D01*
X118146710Y-117139735D01*
X118232902Y-117225927D01*
X118466291Y-117322600D01*
X118718909Y-117322600D01*
X118795800Y-117290751D01*
X118795800Y-117372721D01*
X118892473Y-117606110D01*
X119071102Y-117784739D01*
X119304491Y-117881412D01*
X119557109Y-117881412D01*
X119790498Y-117784739D01*
X119969127Y-117606110D01*
X119991585Y-117551891D01*
X121208800Y-117551891D01*
X121208800Y-117804509D01*
X121305473Y-118037898D01*
X121484102Y-118216527D01*
X121717491Y-118313200D01*
X121970109Y-118313200D01*
X122203498Y-118216527D01*
X122382127Y-118037898D01*
X122478800Y-117804509D01*
X122478800Y-117551891D01*
X122382127Y-117318502D01*
X122203498Y-117139873D01*
X121970109Y-117043200D01*
X121717491Y-117043200D01*
X121484102Y-117139873D01*
X121305473Y-117318502D01*
X121208800Y-117551891D01*
X119991585Y-117551891D01*
X120065800Y-117372721D01*
X120065800Y-117120103D01*
X119969127Y-116886714D01*
X119790498Y-116708085D01*
X119557109Y-116611412D01*
X119304491Y-116611412D01*
X119227600Y-116643261D01*
X119227600Y-116561291D01*
X119130927Y-116327902D01*
X118952298Y-116149273D01*
X118718909Y-116052600D01*
X118466291Y-116052600D01*
X118232902Y-116149273D01*
X118146710Y-116235465D01*
X118060518Y-116149273D01*
X117827129Y-116052600D01*
X117574511Y-116052600D01*
X117341122Y-116149273D01*
X117167936Y-116322460D01*
X116994749Y-116149273D01*
X116761360Y-116052600D01*
X116508742Y-116052600D01*
X116369226Y-116110390D01*
X116229709Y-116052600D01*
X115977091Y-116052600D01*
X115743702Y-116149273D01*
X115565073Y-116327902D01*
X115468400Y-116561291D01*
X103888746Y-116561291D01*
X103946688Y-116270000D01*
X103864730Y-115857969D01*
X103655805Y-115545291D01*
X121183400Y-115545291D01*
X121183400Y-115797909D01*
X121280073Y-116031298D01*
X121458702Y-116209927D01*
X121692091Y-116306600D01*
X121944709Y-116306600D01*
X122178098Y-116209927D01*
X122356727Y-116031298D01*
X122453400Y-115797909D01*
X122453400Y-115545291D01*
X122356727Y-115311902D01*
X122178098Y-115133273D01*
X121944709Y-115036600D01*
X121692091Y-115036600D01*
X121458702Y-115133273D01*
X121280073Y-115311902D01*
X121183400Y-115545291D01*
X103655805Y-115545291D01*
X103631333Y-115508667D01*
X103282031Y-115275270D01*
X103255537Y-115270000D01*
X103282031Y-115264730D01*
X103631333Y-115031333D01*
X103864730Y-114682031D01*
X103946688Y-114270000D01*
X103864730Y-113857969D01*
X103631333Y-113508667D01*
X103282031Y-113275270D01*
X103255537Y-113270000D01*
X103282031Y-113264730D01*
X103631333Y-113031333D01*
X103864730Y-112682031D01*
X103946688Y-112270000D01*
X103864730Y-111857969D01*
X103631333Y-111508667D01*
X103479116Y-111406958D01*
X111412400Y-111406958D01*
X111412400Y-111757442D01*
X111546524Y-112081247D01*
X111794353Y-112329076D01*
X112118158Y-112463200D01*
X112468642Y-112463200D01*
X112792447Y-112329076D01*
X113040276Y-112081247D01*
X113174400Y-111757442D01*
X113174400Y-111406958D01*
X113040276Y-111083153D01*
X112792447Y-110835324D01*
X112468642Y-110701200D01*
X112118158Y-110701200D01*
X111794353Y-110835324D01*
X111546524Y-111083153D01*
X111412400Y-111406958D01*
X103479116Y-111406958D01*
X103282031Y-111275270D01*
X103255537Y-111270000D01*
X103282031Y-111264730D01*
X103631333Y-111031333D01*
X103864730Y-110682031D01*
X103946688Y-110270000D01*
X103864730Y-109857969D01*
X103631333Y-109508667D01*
X103282031Y-109275270D01*
X103255537Y-109270000D01*
X103282031Y-109264730D01*
X103631333Y-109031333D01*
X103864730Y-108682031D01*
X103946688Y-108270000D01*
X103883174Y-107950691D01*
X112141000Y-107950691D01*
X112141000Y-108203309D01*
X112237673Y-108436698D01*
X112416302Y-108615327D01*
X112649691Y-108712000D01*
X112902309Y-108712000D01*
X113135698Y-108615327D01*
X113314327Y-108436698D01*
X113411000Y-108203309D01*
X113411000Y-107950691D01*
X113314327Y-107717302D01*
X113135698Y-107538673D01*
X112902309Y-107442000D01*
X112649691Y-107442000D01*
X112416302Y-107538673D01*
X112237673Y-107717302D01*
X112141000Y-107950691D01*
X103883174Y-107950691D01*
X103864730Y-107857969D01*
X103631333Y-107508667D01*
X103282031Y-107275270D01*
X103255537Y-107270000D01*
X103282031Y-107264730D01*
X103631333Y-107031333D01*
X103864730Y-106682031D01*
X103946688Y-106270000D01*
X103864730Y-105857969D01*
X103631333Y-105508667D01*
X103282031Y-105275270D01*
X103255537Y-105270000D01*
X103282031Y-105264730D01*
X103631333Y-105031333D01*
X103864730Y-104682031D01*
X103946688Y-104270000D01*
X103864730Y-103857969D01*
X103631333Y-103508667D01*
X103282031Y-103275270D01*
X103255537Y-103270000D01*
X103282031Y-103264730D01*
X103631333Y-103031333D01*
X103738670Y-102870691D01*
X113792000Y-102870691D01*
X113792000Y-103123309D01*
X113888673Y-103356698D01*
X114067302Y-103535327D01*
X114300691Y-103632000D01*
X114553309Y-103632000D01*
X114772863Y-103541058D01*
X114772864Y-108647932D01*
X114599675Y-108821121D01*
X114514840Y-108877806D01*
X114290284Y-109213879D01*
X114240294Y-109465196D01*
X114211431Y-109610301D01*
X114231335Y-109710365D01*
X114231336Y-110488087D01*
X114211431Y-110588155D01*
X114290285Y-110984578D01*
X114514841Y-111320650D01*
X114599673Y-111377333D01*
X115042753Y-111820413D01*
X115099438Y-111905248D01*
X115362839Y-112081247D01*
X115435508Y-112129803D01*
X115435509Y-112129803D01*
X115435510Y-112129804D01*
X115731868Y-112188753D01*
X115831932Y-112208657D01*
X115931996Y-112188753D01*
X116572123Y-112188753D01*
X116862621Y-112479252D01*
X116862620Y-113332107D01*
X116685160Y-113258600D01*
X116432542Y-113258600D01*
X116293026Y-113316390D01*
X116153509Y-113258600D01*
X115900891Y-113258600D01*
X115667502Y-113355273D01*
X115488873Y-113533902D01*
X115392200Y-113767291D01*
X115392200Y-114019909D01*
X115488873Y-114253298D01*
X115667502Y-114431927D01*
X115900891Y-114528600D01*
X116153509Y-114528600D01*
X116293026Y-114470810D01*
X116432542Y-114528600D01*
X116685160Y-114528600D01*
X116918549Y-114431927D01*
X117008060Y-114342416D01*
X117075249Y-114442971D01*
X117327303Y-114611388D01*
X117624620Y-114670528D01*
X117699668Y-114655600D01*
X118380376Y-114655600D01*
X118673809Y-114949034D01*
X118709237Y-115002055D01*
X118919281Y-115142403D01*
X119104505Y-115179246D01*
X119104510Y-115179246D01*
X119167045Y-115191685D01*
X119229581Y-115179246D01*
X119628744Y-115179246D01*
X119687657Y-115154844D01*
X119750200Y-115142403D01*
X119803221Y-115106975D01*
X119862133Y-115082573D01*
X119907224Y-115037482D01*
X119960244Y-115002055D01*
X119995671Y-114949035D01*
X120040762Y-114903944D01*
X120065164Y-114845032D01*
X120100592Y-114792011D01*
X120113032Y-114729468D01*
X120137435Y-114670555D01*
X120137435Y-114606787D01*
X120149875Y-114544246D01*
X120137435Y-114481705D01*
X120137435Y-114417937D01*
X120113032Y-114359024D01*
X120100592Y-114296481D01*
X120065164Y-114243460D01*
X120040762Y-114184548D01*
X119995670Y-114139456D01*
X119960244Y-114086437D01*
X119928692Y-114065354D01*
X119989600Y-113918309D01*
X119989600Y-113665691D01*
X119936995Y-113538691D01*
X121285000Y-113538691D01*
X121285000Y-113791309D01*
X121381673Y-114024698D01*
X121560302Y-114203327D01*
X121793691Y-114300000D01*
X122046309Y-114300000D01*
X122279698Y-114203327D01*
X122458327Y-114024698D01*
X122555000Y-113791309D01*
X122555000Y-113538691D01*
X134620000Y-113538691D01*
X134620000Y-113791309D01*
X134716673Y-114024698D01*
X134895302Y-114203327D01*
X135128691Y-114300000D01*
X135381309Y-114300000D01*
X135614698Y-114203327D01*
X135793327Y-114024698D01*
X135890000Y-113791309D01*
X135890000Y-113538691D01*
X135793327Y-113305302D01*
X135671116Y-113183091D01*
X137337800Y-113183091D01*
X137337800Y-113435709D01*
X137434473Y-113669098D01*
X137613102Y-113847727D01*
X137846491Y-113944400D01*
X138099109Y-113944400D01*
X138332498Y-113847727D01*
X138511127Y-113669098D01*
X138607800Y-113435709D01*
X138607800Y-113307330D01*
X138613028Y-113307330D01*
X138846417Y-113210657D01*
X138932609Y-113124465D01*
X139018801Y-113210657D01*
X139252190Y-113307330D01*
X139504808Y-113307330D01*
X139738197Y-113210657D01*
X139911384Y-113037471D01*
X140084570Y-113210657D01*
X140317959Y-113307330D01*
X140570577Y-113307330D01*
X140710094Y-113249540D01*
X140849610Y-113307330D01*
X141102228Y-113307330D01*
X141335617Y-113210657D01*
X141514246Y-113032028D01*
X141610919Y-112798639D01*
X141610919Y-112546021D01*
X141514246Y-112312632D01*
X141335617Y-112134003D01*
X141102228Y-112037330D01*
X140849610Y-112037330D01*
X140710094Y-112095120D01*
X140570577Y-112037330D01*
X140317959Y-112037330D01*
X140084570Y-112134003D01*
X139911384Y-112307190D01*
X139738197Y-112134003D01*
X139504808Y-112037330D01*
X139252190Y-112037330D01*
X139018801Y-112134003D01*
X138932609Y-112220195D01*
X138846417Y-112134003D01*
X138613028Y-112037330D01*
X138360410Y-112037330D01*
X138127021Y-112134003D01*
X137948392Y-112312632D01*
X137851719Y-112546021D01*
X137851719Y-112674400D01*
X137846491Y-112674400D01*
X137613102Y-112771073D01*
X137434473Y-112949702D01*
X137337800Y-113183091D01*
X135671116Y-113183091D01*
X135614698Y-113126673D01*
X135381309Y-113030000D01*
X135128691Y-113030000D01*
X134895302Y-113126673D01*
X134716673Y-113305302D01*
X134620000Y-113538691D01*
X122555000Y-113538691D01*
X122458327Y-113305302D01*
X122396982Y-113243957D01*
X122533698Y-113187327D01*
X122712327Y-113008698D01*
X122809000Y-112775309D01*
X122809000Y-112522691D01*
X122712327Y-112289302D01*
X122533698Y-112110673D01*
X122301978Y-112014691D01*
X134620000Y-112014691D01*
X134620000Y-112267309D01*
X134716673Y-112500698D01*
X134895302Y-112679327D01*
X135128691Y-112776000D01*
X135381309Y-112776000D01*
X135614698Y-112679327D01*
X135793327Y-112500698D01*
X135890000Y-112267309D01*
X135890000Y-112014691D01*
X135793327Y-111781302D01*
X135614698Y-111602673D01*
X135381309Y-111506000D01*
X135128691Y-111506000D01*
X134895302Y-111602673D01*
X134716673Y-111781302D01*
X134620000Y-112014691D01*
X122301978Y-112014691D01*
X122300309Y-112014000D01*
X122047691Y-112014000D01*
X121814302Y-112110673D01*
X121635673Y-112289302D01*
X121539000Y-112522691D01*
X121539000Y-112775309D01*
X121635673Y-113008698D01*
X121697018Y-113070043D01*
X121560302Y-113126673D01*
X121381673Y-113305302D01*
X121285000Y-113538691D01*
X119936995Y-113538691D01*
X119892927Y-113432302D01*
X119714298Y-113253673D01*
X119480909Y-113157000D01*
X119228291Y-113157000D01*
X118994902Y-113253673D01*
X118969004Y-113279571D01*
X118813717Y-113175812D01*
X118591448Y-113131600D01*
X118386620Y-113131600D01*
X118386620Y-112238667D01*
X118401548Y-112163620D01*
X118371924Y-112014691D01*
X118342408Y-111866303D01*
X118173991Y-111614249D01*
X118110369Y-111571738D01*
X117791322Y-111252691D01*
X121234200Y-111252691D01*
X121234200Y-111505309D01*
X121330873Y-111738698D01*
X121509502Y-111917327D01*
X121742891Y-112014000D01*
X121995509Y-112014000D01*
X122228898Y-111917327D01*
X122407527Y-111738698D01*
X122504200Y-111505309D01*
X122504200Y-111252691D01*
X122407527Y-111019302D01*
X122228898Y-110840673D01*
X121995509Y-110744000D01*
X121742891Y-110744000D01*
X121509502Y-110840673D01*
X121330873Y-111019302D01*
X121234200Y-111252691D01*
X117791322Y-111252691D01*
X117659296Y-111120666D01*
X117590804Y-110776330D01*
X117366248Y-110440258D01*
X117030176Y-110215702D01*
X116733818Y-110156753D01*
X116263335Y-110156753D01*
X116263335Y-110031141D01*
X116311785Y-109982691D01*
X118745000Y-109982691D01*
X118745000Y-110235309D01*
X118841673Y-110468698D01*
X119020302Y-110647327D01*
X119253691Y-110744000D01*
X119506309Y-110744000D01*
X119739698Y-110647327D01*
X119918327Y-110468698D01*
X120015000Y-110235309D01*
X120015000Y-110058891D01*
X134594600Y-110058891D01*
X134594600Y-110311509D01*
X134691273Y-110544898D01*
X134869902Y-110723527D01*
X135103291Y-110820200D01*
X135355909Y-110820200D01*
X135589298Y-110723527D01*
X135767927Y-110544898D01*
X135821943Y-110414491D01*
X137261600Y-110414491D01*
X137261600Y-110667109D01*
X137358273Y-110900498D01*
X137536902Y-111079127D01*
X137770291Y-111175800D01*
X138022909Y-111175800D01*
X138256298Y-111079127D01*
X138434927Y-110900498D01*
X138531600Y-110667109D01*
X138531600Y-110414491D01*
X138434927Y-110181102D01*
X138256298Y-110002473D01*
X138022909Y-109905800D01*
X137770291Y-109905800D01*
X137536902Y-110002473D01*
X137358273Y-110181102D01*
X137261600Y-110414491D01*
X135821943Y-110414491D01*
X135864600Y-110311509D01*
X135864600Y-110058891D01*
X135767927Y-109825502D01*
X135716141Y-109773716D01*
X139812230Y-109773716D01*
X139812230Y-110026334D01*
X139908903Y-110259723D01*
X140087532Y-110438352D01*
X140320921Y-110535025D01*
X140573539Y-110535025D01*
X140713056Y-110477235D01*
X140852572Y-110535025D01*
X141105190Y-110535025D01*
X141338579Y-110438352D01*
X141517208Y-110259723D01*
X141613881Y-110026334D01*
X141613881Y-109773716D01*
X141517208Y-109540327D01*
X141338579Y-109361698D01*
X141105190Y-109265025D01*
X140852572Y-109265025D01*
X140713055Y-109322815D01*
X140573539Y-109265025D01*
X140320921Y-109265025D01*
X140087532Y-109361698D01*
X139908903Y-109540327D01*
X139812230Y-109773716D01*
X135716141Y-109773716D01*
X135589298Y-109646873D01*
X135355909Y-109550200D01*
X135103291Y-109550200D01*
X134869902Y-109646873D01*
X134691273Y-109825502D01*
X134594600Y-110058891D01*
X120015000Y-110058891D01*
X120015000Y-109982691D01*
X119918327Y-109749302D01*
X119739698Y-109570673D01*
X119506309Y-109474000D01*
X119253691Y-109474000D01*
X119020302Y-109570673D01*
X118841673Y-109749302D01*
X118745000Y-109982691D01*
X116311785Y-109982691D01*
X116436523Y-109857953D01*
X116521358Y-109801268D01*
X116716868Y-109508667D01*
X116745913Y-109465198D01*
X116745913Y-109465197D01*
X116745914Y-109465196D01*
X116804863Y-109168838D01*
X116824767Y-109068774D01*
X116804863Y-108968710D01*
X116804863Y-108531917D01*
X116830485Y-108531917D01*
X116830485Y-108784535D01*
X116927158Y-109017924D01*
X117105787Y-109196553D01*
X117339176Y-109293226D01*
X117591794Y-109293226D01*
X117825183Y-109196553D01*
X118003812Y-109017924D01*
X118100485Y-108784535D01*
X118100485Y-108679653D01*
X118139901Y-108695980D01*
X118392519Y-108695980D01*
X118625908Y-108599307D01*
X118804537Y-108420678D01*
X118878054Y-108243194D01*
X119013916Y-108379056D01*
X119247305Y-108475729D01*
X119499923Y-108475729D01*
X119733312Y-108379056D01*
X119911941Y-108200427D01*
X119916885Y-108188490D01*
X134696144Y-108188490D01*
X134696144Y-108441108D01*
X134792817Y-108674497D01*
X134971446Y-108853126D01*
X135204835Y-108949799D01*
X135457453Y-108949799D01*
X135690842Y-108853126D01*
X135869471Y-108674497D01*
X135966144Y-108441108D01*
X135966144Y-108188490D01*
X135869471Y-107955101D01*
X135690842Y-107776472D01*
X135457453Y-107679799D01*
X135204835Y-107679799D01*
X134971446Y-107776472D01*
X134792817Y-107955101D01*
X134696144Y-108188490D01*
X119916885Y-108188490D01*
X120008614Y-107967038D01*
X120008614Y-107714420D01*
X119911941Y-107481031D01*
X119746601Y-107315691D01*
X122428000Y-107315691D01*
X122428000Y-107568309D01*
X122524673Y-107801698D01*
X122703302Y-107980327D01*
X122936691Y-108077000D01*
X123189309Y-108077000D01*
X123422698Y-107980327D01*
X123601327Y-107801698D01*
X123698000Y-107568309D01*
X123698000Y-107341091D01*
X125374400Y-107341091D01*
X125374400Y-107593709D01*
X125471073Y-107827098D01*
X125649702Y-108005727D01*
X125883091Y-108102400D01*
X126135709Y-108102400D01*
X126369098Y-108005727D01*
X126547727Y-107827098D01*
X126644400Y-107593709D01*
X126644400Y-107341091D01*
X126633879Y-107315691D01*
X127821894Y-107315691D01*
X127821894Y-107568309D01*
X127918567Y-107801698D01*
X128097196Y-107980327D01*
X128330585Y-108077000D01*
X128583203Y-108077000D01*
X128816592Y-107980327D01*
X128995221Y-107801698D01*
X129080800Y-107595091D01*
X137160000Y-107595091D01*
X137160000Y-107847709D01*
X137256673Y-108081098D01*
X137435302Y-108259727D01*
X137668691Y-108356400D01*
X137921309Y-108356400D01*
X138154698Y-108259727D01*
X138333327Y-108081098D01*
X138430000Y-107847709D01*
X138430000Y-107595091D01*
X138333327Y-107361702D01*
X138154698Y-107183073D01*
X137921309Y-107086400D01*
X137668691Y-107086400D01*
X137435302Y-107183073D01*
X137256673Y-107361702D01*
X137160000Y-107595091D01*
X129080800Y-107595091D01*
X129091894Y-107568309D01*
X129091894Y-107315691D01*
X128995221Y-107082302D01*
X128816592Y-106903673D01*
X128583203Y-106807000D01*
X128330585Y-106807000D01*
X128097196Y-106903673D01*
X127918567Y-107082302D01*
X127821894Y-107315691D01*
X126633879Y-107315691D01*
X126547727Y-107107702D01*
X126369098Y-106929073D01*
X126135709Y-106832400D01*
X125883091Y-106832400D01*
X125649702Y-106929073D01*
X125471073Y-107107702D01*
X125374400Y-107341091D01*
X123698000Y-107341091D01*
X123698000Y-107315691D01*
X123601327Y-107082302D01*
X123422698Y-106903673D01*
X123189309Y-106807000D01*
X122936691Y-106807000D01*
X122703302Y-106903673D01*
X122524673Y-107082302D01*
X122428000Y-107315691D01*
X119746601Y-107315691D01*
X119733312Y-107302402D01*
X119499923Y-107205729D01*
X119247305Y-107205729D01*
X119013916Y-107302402D01*
X118835287Y-107481031D01*
X118761770Y-107658515D01*
X118625908Y-107522653D01*
X118392519Y-107425980D01*
X118139901Y-107425980D01*
X117906512Y-107522653D01*
X117727883Y-107701282D01*
X117631210Y-107934671D01*
X117631210Y-108039553D01*
X117591794Y-108023226D01*
X117339176Y-108023226D01*
X117105787Y-108119899D01*
X116927158Y-108298528D01*
X116830485Y-108531917D01*
X116804863Y-108531917D01*
X116804863Y-107227589D01*
X116841790Y-107264516D01*
X117075179Y-107361189D01*
X117327797Y-107361189D01*
X117561186Y-107264516D01*
X117739815Y-107085887D01*
X117836488Y-106852498D01*
X117836488Y-106599880D01*
X117739815Y-106366491D01*
X117673015Y-106299691D01*
X119761000Y-106299691D01*
X119761000Y-106552309D01*
X119857673Y-106785698D01*
X120036302Y-106964327D01*
X120269691Y-107061000D01*
X120522309Y-107061000D01*
X120755698Y-106964327D01*
X120934327Y-106785698D01*
X121031000Y-106552309D01*
X121031000Y-106299691D01*
X120934327Y-106066302D01*
X120755698Y-105887673D01*
X120522309Y-105791000D01*
X120269691Y-105791000D01*
X120036302Y-105887673D01*
X119857673Y-106066302D01*
X119761000Y-106299691D01*
X117673015Y-106299691D01*
X117561186Y-106187862D01*
X117327797Y-106091189D01*
X117075179Y-106091189D01*
X116841790Y-106187862D01*
X116804863Y-106224789D01*
X116804863Y-105055091D01*
X121843800Y-105055091D01*
X121843800Y-105307709D01*
X121940473Y-105541098D01*
X122119102Y-105719727D01*
X122352491Y-105816400D01*
X122605109Y-105816400D01*
X122838498Y-105719727D01*
X123017127Y-105541098D01*
X123021118Y-105531462D01*
X123200889Y-105531462D01*
X123434278Y-105434789D01*
X123612907Y-105256160D01*
X123709580Y-105022771D01*
X123709580Y-104852963D01*
X124382728Y-104852963D01*
X124382728Y-105105581D01*
X124479401Y-105338970D01*
X124658030Y-105517599D01*
X124891419Y-105614272D01*
X125144037Y-105614272D01*
X125377426Y-105517599D01*
X125556055Y-105338970D01*
X125652728Y-105105581D01*
X125652728Y-104877291D01*
X125882400Y-104877291D01*
X125882400Y-105129909D01*
X125979073Y-105363298D01*
X126157702Y-105541927D01*
X126391091Y-105638600D01*
X126643709Y-105638600D01*
X126877098Y-105541927D01*
X127055727Y-105363298D01*
X127096668Y-105264458D01*
X127187916Y-105264458D01*
X127421305Y-105167785D01*
X127599934Y-104989156D01*
X127696607Y-104755767D01*
X127696607Y-104503149D01*
X127599934Y-104269760D01*
X127421305Y-104091131D01*
X127187916Y-103994458D01*
X126935298Y-103994458D01*
X126701909Y-104091131D01*
X126523280Y-104269760D01*
X126482339Y-104368600D01*
X126391091Y-104368600D01*
X126157702Y-104465273D01*
X125979073Y-104643902D01*
X125882400Y-104877291D01*
X125652728Y-104877291D01*
X125652728Y-104852963D01*
X125556055Y-104619574D01*
X125377426Y-104440945D01*
X125144037Y-104344272D01*
X124891419Y-104344272D01*
X124658030Y-104440945D01*
X124479401Y-104619574D01*
X124382728Y-104852963D01*
X123709580Y-104852963D01*
X123709580Y-104770153D01*
X123612907Y-104536764D01*
X123525084Y-104448941D01*
X123601327Y-104372698D01*
X123698000Y-104139309D01*
X123698000Y-103886691D01*
X123601327Y-103653302D01*
X123453025Y-103505000D01*
X123601327Y-103356698D01*
X123698000Y-103123309D01*
X123698000Y-102870691D01*
X123601327Y-102637302D01*
X123422698Y-102458673D01*
X123189309Y-102362000D01*
X122936691Y-102362000D01*
X122703302Y-102458673D01*
X122524673Y-102637302D01*
X122428000Y-102870691D01*
X122428000Y-103123309D01*
X122524673Y-103356698D01*
X122672975Y-103505000D01*
X122524673Y-103653302D01*
X122428000Y-103886691D01*
X122428000Y-104139309D01*
X122524673Y-104372698D01*
X122612496Y-104460521D01*
X122536253Y-104536764D01*
X122532262Y-104546400D01*
X122352491Y-104546400D01*
X122119102Y-104643073D01*
X121940473Y-104821702D01*
X121843800Y-105055091D01*
X116804863Y-105055091D01*
X116804863Y-102546703D01*
X117481771Y-101869796D01*
X117623302Y-102011327D01*
X117856691Y-102108000D01*
X118109309Y-102108000D01*
X118342698Y-102011327D01*
X118521327Y-101832698D01*
X118618000Y-101599309D01*
X118618000Y-101346691D01*
X118521327Y-101113302D01*
X118379796Y-100971771D01*
X118386567Y-100965000D01*
X119370975Y-100965000D01*
X119222673Y-101113302D01*
X119126000Y-101346691D01*
X119126000Y-101599309D01*
X119222673Y-101832698D01*
X119401302Y-102011327D01*
X119634691Y-102108000D01*
X119887309Y-102108000D01*
X120120698Y-102011327D01*
X120299327Y-101832698D01*
X120396000Y-101599309D01*
X120396000Y-101595959D01*
X125555398Y-101595959D01*
X125555398Y-101848577D01*
X125613188Y-101988094D01*
X125555398Y-102127610D01*
X125555398Y-102380228D01*
X125652071Y-102613617D01*
X125830700Y-102792246D01*
X126064089Y-102888919D01*
X126316707Y-102888919D01*
X126550096Y-102792246D01*
X126728725Y-102613617D01*
X126825398Y-102380228D01*
X126825398Y-102127610D01*
X126767608Y-101988094D01*
X126825398Y-101848577D01*
X126825398Y-101595959D01*
X126825325Y-101595781D01*
X128380704Y-101595781D01*
X128380704Y-101848399D01*
X128438494Y-101987915D01*
X128380704Y-102127432D01*
X128380704Y-102380050D01*
X128477377Y-102613439D01*
X128650564Y-102786626D01*
X128477377Y-102959812D01*
X128380704Y-103193201D01*
X128380704Y-103445819D01*
X128477377Y-103679208D01*
X128563569Y-103765400D01*
X128477377Y-103851592D01*
X128380704Y-104084981D01*
X128380704Y-104337599D01*
X128477377Y-104570988D01*
X128656006Y-104749617D01*
X128889395Y-104846290D01*
X128965866Y-104846290D01*
X129043109Y-105032770D01*
X129221738Y-105211399D01*
X129391875Y-105281872D01*
X129391875Y-105286954D01*
X129488548Y-105520343D01*
X129667177Y-105698972D01*
X129900566Y-105795645D01*
X130153184Y-105795645D01*
X130386573Y-105698972D01*
X130565202Y-105520343D01*
X130661875Y-105286954D01*
X130661875Y-105113641D01*
X131947800Y-105113641D01*
X131947800Y-105366259D01*
X132044473Y-105599648D01*
X132223102Y-105778277D01*
X132456491Y-105874950D01*
X132709109Y-105874950D01*
X132942498Y-105778277D01*
X133121127Y-105599648D01*
X133195011Y-105421276D01*
X133239103Y-105465368D01*
X133472492Y-105562041D01*
X133725110Y-105562041D01*
X133958499Y-105465368D01*
X134080009Y-105343858D01*
X134239691Y-105410000D01*
X134483975Y-105410000D01*
X134641302Y-105567327D01*
X134874691Y-105664000D01*
X135127309Y-105664000D01*
X135360698Y-105567327D01*
X135539327Y-105388698D01*
X135636000Y-105155309D01*
X135636000Y-104902691D01*
X135539327Y-104669302D01*
X135360698Y-104490673D01*
X135127309Y-104394000D01*
X134883025Y-104394000D01*
X134725698Y-104236673D01*
X134492309Y-104140000D01*
X134239691Y-104140000D01*
X134006302Y-104236673D01*
X133884792Y-104358183D01*
X133725110Y-104292041D01*
X133561481Y-104292041D01*
X133507327Y-104161302D01*
X133328698Y-103982673D01*
X133095309Y-103886000D01*
X132842691Y-103886000D01*
X132609302Y-103982673D01*
X132430673Y-104161302D01*
X132334000Y-104394691D01*
X132334000Y-104647309D01*
X132336962Y-104654460D01*
X132223102Y-104701623D01*
X132044473Y-104880252D01*
X131947800Y-105113641D01*
X130661875Y-105113641D01*
X130661875Y-105034336D01*
X130565202Y-104800947D01*
X130386573Y-104622318D01*
X130216436Y-104551845D01*
X130216436Y-104546763D01*
X130119763Y-104313374D01*
X129941134Y-104134745D01*
X129707745Y-104038072D01*
X129631274Y-104038072D01*
X129554031Y-103851592D01*
X129467839Y-103765400D01*
X129554031Y-103679208D01*
X129650704Y-103445819D01*
X129650704Y-103193201D01*
X129554031Y-102959812D01*
X129380845Y-102786626D01*
X129554031Y-102613439D01*
X129650704Y-102380050D01*
X129650704Y-102127432D01*
X129592914Y-101987916D01*
X129650704Y-101848399D01*
X129650704Y-101678758D01*
X135110600Y-101678758D01*
X135110600Y-102029242D01*
X135244724Y-102353047D01*
X135492553Y-102600876D01*
X135816358Y-102735000D01*
X136166842Y-102735000D01*
X136490647Y-102600876D01*
X136738476Y-102353047D01*
X136872600Y-102029242D01*
X136872600Y-101678758D01*
X136738476Y-101354953D01*
X136490647Y-101107124D01*
X136166842Y-100973000D01*
X135816358Y-100973000D01*
X135492553Y-101107124D01*
X135244724Y-101354953D01*
X135110600Y-101678758D01*
X129650704Y-101678758D01*
X129650704Y-101595781D01*
X129554031Y-101362392D01*
X129375402Y-101183763D01*
X129142013Y-101087090D01*
X128889395Y-101087090D01*
X128656006Y-101183763D01*
X128477377Y-101362392D01*
X128380704Y-101595781D01*
X126825325Y-101595781D01*
X126728725Y-101362570D01*
X126550096Y-101183941D01*
X126316707Y-101087268D01*
X126064089Y-101087268D01*
X125830700Y-101183941D01*
X125652071Y-101362570D01*
X125555398Y-101595959D01*
X120396000Y-101595959D01*
X120396000Y-101346691D01*
X120299327Y-101113302D01*
X120120698Y-100934673D01*
X120085930Y-100920272D01*
X120157423Y-100906051D01*
X120493495Y-100681495D01*
X120718051Y-100345423D01*
X120796904Y-99949000D01*
X120718051Y-99552577D01*
X120493495Y-99216505D01*
X120157423Y-98991949D01*
X119861065Y-98933000D01*
X118065789Y-98933000D01*
X117965725Y-98913096D01*
X117865662Y-98933000D01*
X117865661Y-98933000D01*
X117569303Y-98991949D01*
X117233231Y-99216505D01*
X117176548Y-99301337D01*
X115141203Y-101336683D01*
X115056368Y-101393368D01*
X114831812Y-101729441D01*
X114775742Y-102011327D01*
X114752959Y-102125863D01*
X114772863Y-102225927D01*
X114772863Y-102452942D01*
X114553309Y-102362000D01*
X114300691Y-102362000D01*
X114067302Y-102458673D01*
X113888673Y-102637302D01*
X113792000Y-102870691D01*
X103738670Y-102870691D01*
X103864730Y-102682031D01*
X103946688Y-102270000D01*
X103864730Y-101857969D01*
X103631333Y-101508667D01*
X103282031Y-101275270D01*
X103255537Y-101270000D01*
X103282031Y-101264730D01*
X103631333Y-101031333D01*
X103770898Y-100822459D01*
X109660968Y-100822459D01*
X109660968Y-101075077D01*
X109757641Y-101308466D01*
X109936270Y-101487095D01*
X110169659Y-101583768D01*
X110422277Y-101583768D01*
X110655666Y-101487095D01*
X110834295Y-101308466D01*
X110930968Y-101075077D01*
X110930968Y-100965691D01*
X112268000Y-100965691D01*
X112268000Y-101218309D01*
X112364673Y-101451698D01*
X112543302Y-101630327D01*
X112776691Y-101727000D01*
X113029309Y-101727000D01*
X113262698Y-101630327D01*
X113441327Y-101451698D01*
X113538000Y-101218309D01*
X113538000Y-100965691D01*
X113441327Y-100732302D01*
X113262698Y-100553673D01*
X113029309Y-100457000D01*
X112776691Y-100457000D01*
X112543302Y-100553673D01*
X112364673Y-100732302D01*
X112268000Y-100965691D01*
X110930968Y-100965691D01*
X110930968Y-100822459D01*
X110834295Y-100589070D01*
X110655666Y-100410441D01*
X110422277Y-100313768D01*
X110169659Y-100313768D01*
X109936270Y-100410441D01*
X109757641Y-100589070D01*
X109660968Y-100822459D01*
X103770898Y-100822459D01*
X103864730Y-100682031D01*
X103946688Y-100270000D01*
X103864730Y-99857969D01*
X103782137Y-99734359D01*
X113753948Y-99734359D01*
X113753948Y-99986977D01*
X113850621Y-100220366D01*
X114029250Y-100398995D01*
X114262639Y-100495668D01*
X114515257Y-100495668D01*
X114748646Y-100398995D01*
X114927275Y-100220366D01*
X115023948Y-99986977D01*
X115023948Y-99734359D01*
X114927275Y-99500970D01*
X114748646Y-99322341D01*
X114515257Y-99225668D01*
X114262639Y-99225668D01*
X114029250Y-99322341D01*
X113850621Y-99500970D01*
X113753948Y-99734359D01*
X103782137Y-99734359D01*
X103631333Y-99508667D01*
X103282031Y-99275270D01*
X103255537Y-99270000D01*
X103282031Y-99264730D01*
X103631333Y-99031333D01*
X103864730Y-98682031D01*
X103946688Y-98270000D01*
X103864730Y-97857969D01*
X103734918Y-97663691D01*
X111252000Y-97663691D01*
X111252000Y-97916309D01*
X111348673Y-98149698D01*
X111527302Y-98328327D01*
X111760691Y-98425000D01*
X112013309Y-98425000D01*
X112246698Y-98328327D01*
X112425327Y-98149698D01*
X112468822Y-98044691D01*
X113030000Y-98044691D01*
X113030000Y-98297309D01*
X113126673Y-98530698D01*
X113305302Y-98709327D01*
X113538691Y-98806000D01*
X113791309Y-98806000D01*
X114024698Y-98709327D01*
X114203327Y-98530698D01*
X114300000Y-98297309D01*
X114300000Y-98044691D01*
X114270694Y-97973940D01*
X136039696Y-97973940D01*
X136039696Y-98226558D01*
X136136369Y-98459947D01*
X136314998Y-98638576D01*
X136548387Y-98735249D01*
X136801005Y-98735249D01*
X137034394Y-98638576D01*
X137213023Y-98459947D01*
X137309696Y-98226558D01*
X137309696Y-97973940D01*
X137213023Y-97740551D01*
X137034394Y-97561922D01*
X136802674Y-97465940D01*
X139087696Y-97465940D01*
X139087696Y-97718558D01*
X139184369Y-97951947D01*
X139362998Y-98130576D01*
X139596387Y-98227249D01*
X139849005Y-98227249D01*
X140082394Y-98130576D01*
X140261023Y-97951947D01*
X140357696Y-97718558D01*
X140357696Y-97465940D01*
X140261023Y-97232551D01*
X140082394Y-97053922D01*
X139849005Y-96957249D01*
X139596387Y-96957249D01*
X139362998Y-97053922D01*
X139184369Y-97232551D01*
X139087696Y-97465940D01*
X136802674Y-97465940D01*
X136801005Y-97465249D01*
X136548387Y-97465249D01*
X136314998Y-97561922D01*
X136136369Y-97740551D01*
X136039696Y-97973940D01*
X114270694Y-97973940D01*
X114203327Y-97811302D01*
X114024698Y-97632673D01*
X113791309Y-97536000D01*
X113538691Y-97536000D01*
X113305302Y-97632673D01*
X113126673Y-97811302D01*
X113030000Y-98044691D01*
X112468822Y-98044691D01*
X112522000Y-97916309D01*
X112522000Y-97663691D01*
X112425327Y-97430302D01*
X112246698Y-97251673D01*
X112013309Y-97155000D01*
X111760691Y-97155000D01*
X111527302Y-97251673D01*
X111348673Y-97430302D01*
X111252000Y-97663691D01*
X103734918Y-97663691D01*
X103631333Y-97508667D01*
X103282031Y-97275270D01*
X103255537Y-97270000D01*
X103282031Y-97264730D01*
X103631333Y-97031333D01*
X103864730Y-96682031D01*
X103941922Y-96293958D01*
X106103800Y-96293958D01*
X106103800Y-96644442D01*
X106237924Y-96968247D01*
X106485753Y-97216076D01*
X106809558Y-97350200D01*
X107160042Y-97350200D01*
X107483847Y-97216076D01*
X107731676Y-96968247D01*
X107865800Y-96644442D01*
X107865800Y-96293958D01*
X107731676Y-95970153D01*
X107483847Y-95722324D01*
X107475077Y-95718691D01*
X111887000Y-95718691D01*
X111887000Y-95971309D01*
X111983673Y-96204698D01*
X112044975Y-96266000D01*
X112023673Y-96287302D01*
X111927000Y-96520691D01*
X111927000Y-96773309D01*
X112023673Y-97006698D01*
X112202302Y-97185327D01*
X112435691Y-97282000D01*
X112688309Y-97282000D01*
X112921698Y-97185327D01*
X113100327Y-97006698D01*
X113197000Y-96773309D01*
X113197000Y-96520691D01*
X113100327Y-96287302D01*
X113039025Y-96226000D01*
X113060327Y-96204698D01*
X113087253Y-96139691D01*
X116459000Y-96139691D01*
X116459000Y-96392309D01*
X116555673Y-96625698D01*
X116734302Y-96804327D01*
X116967691Y-96901000D01*
X117220309Y-96901000D01*
X117453698Y-96804327D01*
X117632327Y-96625698D01*
X117652523Y-96576940D01*
X134896696Y-96576940D01*
X134896696Y-96829558D01*
X134993369Y-97062947D01*
X135171998Y-97241576D01*
X135405387Y-97338249D01*
X135658005Y-97338249D01*
X135891394Y-97241576D01*
X136070023Y-97062947D01*
X136103196Y-96982860D01*
X136136369Y-97062947D01*
X136314998Y-97241576D01*
X136548387Y-97338249D01*
X136801005Y-97338249D01*
X137034394Y-97241576D01*
X137213023Y-97062947D01*
X137309696Y-96829558D01*
X137309696Y-96576940D01*
X137213023Y-96343551D01*
X137034394Y-96164922D01*
X136801005Y-96068249D01*
X136548387Y-96068249D01*
X136314998Y-96164922D01*
X136136369Y-96343551D01*
X136103196Y-96423638D01*
X136070023Y-96343551D01*
X135891394Y-96164922D01*
X135658005Y-96068249D01*
X135405387Y-96068249D01*
X135171998Y-96164922D01*
X134993369Y-96343551D01*
X134896696Y-96576940D01*
X117652523Y-96576940D01*
X117729000Y-96392309D01*
X117729000Y-96139691D01*
X117632327Y-95906302D01*
X117453698Y-95727673D01*
X117220309Y-95631000D01*
X116967691Y-95631000D01*
X116734302Y-95727673D01*
X116555673Y-95906302D01*
X116459000Y-96139691D01*
X113087253Y-96139691D01*
X113157000Y-95971309D01*
X113157000Y-95718691D01*
X113060327Y-95485302D01*
X112881698Y-95306673D01*
X112648309Y-95210000D01*
X112395691Y-95210000D01*
X112162302Y-95306673D01*
X111983673Y-95485302D01*
X111887000Y-95718691D01*
X107475077Y-95718691D01*
X107160042Y-95588200D01*
X106809558Y-95588200D01*
X106485753Y-95722324D01*
X106237924Y-95970153D01*
X106103800Y-96293958D01*
X103941922Y-96293958D01*
X103946688Y-96270000D01*
X103864730Y-95857969D01*
X103631333Y-95508667D01*
X103282031Y-95275270D01*
X103255537Y-95270000D01*
X103282031Y-95264730D01*
X103631333Y-95031333D01*
X103864730Y-94682031D01*
X103946688Y-94270000D01*
X103939665Y-94234691D01*
X113538000Y-94234691D01*
X113538000Y-94487309D01*
X113634673Y-94720698D01*
X113813302Y-94899327D01*
X114046691Y-94996000D01*
X114299309Y-94996000D01*
X114532698Y-94899327D01*
X114562334Y-94869691D01*
X115189000Y-94869691D01*
X115189000Y-95122309D01*
X115285673Y-95355698D01*
X115464302Y-95534327D01*
X115697691Y-95631000D01*
X115950309Y-95631000D01*
X116183698Y-95534327D01*
X116362327Y-95355698D01*
X116459000Y-95122309D01*
X116459000Y-94869691D01*
X116362327Y-94636302D01*
X116183698Y-94457673D01*
X115950309Y-94361000D01*
X115697691Y-94361000D01*
X115464302Y-94457673D01*
X115285673Y-94636302D01*
X115189000Y-94869691D01*
X114562334Y-94869691D01*
X114711327Y-94720698D01*
X114808000Y-94487309D01*
X114808000Y-94234691D01*
X114711327Y-94001302D01*
X114619965Y-93909940D01*
X138960696Y-93909940D01*
X138960696Y-94162558D01*
X139057369Y-94395947D01*
X139235998Y-94574576D01*
X139469387Y-94671249D01*
X139722005Y-94671249D01*
X139955394Y-94574576D01*
X140134023Y-94395947D01*
X140230696Y-94162558D01*
X140230696Y-93909940D01*
X140134023Y-93676551D01*
X139955394Y-93497922D01*
X139722005Y-93401249D01*
X139469387Y-93401249D01*
X139235998Y-93497922D01*
X139057369Y-93676551D01*
X138960696Y-93909940D01*
X114619965Y-93909940D01*
X114532698Y-93822673D01*
X114299309Y-93726000D01*
X114046691Y-93726000D01*
X113813302Y-93822673D01*
X113634673Y-94001302D01*
X113538000Y-94234691D01*
X103939665Y-94234691D01*
X103864730Y-93857969D01*
X103631333Y-93508667D01*
X103282031Y-93275270D01*
X103255537Y-93270000D01*
X103282031Y-93264730D01*
X103631333Y-93031333D01*
X103756693Y-92843718D01*
X103780302Y-92867327D01*
X104013691Y-92964000D01*
X104266309Y-92964000D01*
X104499698Y-92867327D01*
X104648000Y-92719025D01*
X104796302Y-92867327D01*
X105029691Y-92964000D01*
X105282309Y-92964000D01*
X105515698Y-92867327D01*
X105670467Y-92712558D01*
X106230800Y-92712558D01*
X106230800Y-93063042D01*
X106364924Y-93386847D01*
X106612753Y-93634676D01*
X106936558Y-93768800D01*
X107287042Y-93768800D01*
X107610847Y-93634676D01*
X107858676Y-93386847D01*
X107992800Y-93063042D01*
X107992800Y-92712558D01*
X107858676Y-92388753D01*
X107610847Y-92140924D01*
X107287042Y-92006800D01*
X106936558Y-92006800D01*
X106612753Y-92140924D01*
X106364924Y-92388753D01*
X106230800Y-92712558D01*
X105670467Y-92712558D01*
X105694327Y-92688698D01*
X105791000Y-92455309D01*
X105791000Y-92202691D01*
X105694327Y-91969302D01*
X105515698Y-91790673D01*
X105282309Y-91694000D01*
X105029691Y-91694000D01*
X104796302Y-91790673D01*
X104648000Y-91938975D01*
X104499698Y-91790673D01*
X104266309Y-91694000D01*
X104013691Y-91694000D01*
X103811210Y-91777871D01*
X103631333Y-91508667D01*
X103282031Y-91275270D01*
X103255537Y-91270000D01*
X103282031Y-91264730D01*
X103440267Y-91159000D01*
X114550100Y-91159000D01*
X114685838Y-91186000D01*
X114685839Y-91186000D01*
X114773394Y-91203416D01*
X114860949Y-91186000D01*
X133945556Y-91186000D01*
X134204870Y-91134419D01*
X134498933Y-90937933D01*
X134695419Y-90643870D01*
X134764416Y-90297000D01*
X134695419Y-89950130D01*
X134498933Y-89656067D01*
X134204870Y-89459581D01*
X133945556Y-89408000D01*
X114969688Y-89408000D01*
X114833950Y-89381000D01*
X114833949Y-89381000D01*
X114746394Y-89363584D01*
X114658839Y-89381000D01*
X103440267Y-89381000D01*
X103282031Y-89275270D01*
X102974006Y-89214000D01*
X102765994Y-89214000D01*
X102457969Y-89275270D01*
X102108667Y-89508667D01*
X101875270Y-89857969D01*
X101870000Y-89884463D01*
X101864730Y-89857969D01*
X101631333Y-89508667D01*
X101282031Y-89275270D01*
X101271064Y-89273089D01*
X101269624Y-86664624D01*
X103806536Y-86666024D01*
G04 #@! TD*
M02*
