G04 #@! TF.GenerationSoftware,KiCad,Pcbnew,5.0.2-bee76a0~70~ubuntu18.04.1*
G04 #@! TF.CreationDate,2019-11-19T20:55:50-08:00*
G04 #@! TF.ProjectId,A3P250_Dev_Board,41335032-3530-45f4-9465-765f426f6172,rev?*
G04 #@! TF.SameCoordinates,Original*
G04 #@! TF.FileFunction,Soldermask,Bot*
G04 #@! TF.FilePolarity,Negative*
%FSLAX46Y46*%
G04 Gerber Fmt 4.6, Leading zero omitted, Abs format (unit mm)*
G04 Created by KiCad (PCBNEW 5.0.2-bee76a0~70~ubuntu18.04.1) date Tue 19 Nov 2019 08:55:50 PM PST*
%MOMM*%
%LPD*%
G01*
G04 APERTURE LIST*
%ADD10C,0.100000*%
G04 APERTURE END LIST*
D10*
G36*
X105012280Y-131554702D02*
X105149097Y-131596204D01*
X105275184Y-131663600D01*
X105385701Y-131754299D01*
X105476400Y-131864816D01*
X105543796Y-131990903D01*
X105585298Y-132127720D01*
X105599311Y-132270000D01*
X105585298Y-132412280D01*
X105543796Y-132549097D01*
X105476400Y-132675184D01*
X105385701Y-132785701D01*
X105275184Y-132876400D01*
X105149097Y-132943796D01*
X105012280Y-132985298D01*
X104905651Y-132995800D01*
X104834349Y-132995800D01*
X104727720Y-132985298D01*
X104590903Y-132943796D01*
X104464816Y-132876400D01*
X104354299Y-132785701D01*
X104263600Y-132675184D01*
X104196204Y-132549097D01*
X104154702Y-132412280D01*
X104140689Y-132270000D01*
X104154702Y-132127720D01*
X104196204Y-131990903D01*
X104263600Y-131864816D01*
X104354299Y-131754299D01*
X104464816Y-131663600D01*
X104590903Y-131596204D01*
X104727720Y-131554702D01*
X104834349Y-131544200D01*
X104905651Y-131544200D01*
X105012280Y-131554702D01*
X105012280Y-131554702D01*
G37*
G36*
X125012280Y-131554702D02*
X125149097Y-131596204D01*
X125275184Y-131663600D01*
X125385701Y-131754299D01*
X125476400Y-131864816D01*
X125543796Y-131990903D01*
X125585298Y-132127720D01*
X125599311Y-132270000D01*
X125585298Y-132412280D01*
X125543796Y-132549097D01*
X125476400Y-132675184D01*
X125385701Y-132785701D01*
X125275184Y-132876400D01*
X125149097Y-132943796D01*
X125012280Y-132985298D01*
X124905651Y-132995800D01*
X124834349Y-132995800D01*
X124727720Y-132985298D01*
X124590903Y-132943796D01*
X124464816Y-132876400D01*
X124354299Y-132785701D01*
X124263600Y-132675184D01*
X124196204Y-132549097D01*
X124154702Y-132412280D01*
X124140689Y-132270000D01*
X124154702Y-132127720D01*
X124196204Y-131990903D01*
X124263600Y-131864816D01*
X124354299Y-131754299D01*
X124464816Y-131663600D01*
X124590903Y-131596204D01*
X124727720Y-131554702D01*
X124834349Y-131544200D01*
X124905651Y-131544200D01*
X125012280Y-131554702D01*
X125012280Y-131554702D01*
G37*
G36*
X143595800Y-132995800D02*
X142144200Y-132995800D01*
X142144200Y-131544200D01*
X143595800Y-131544200D01*
X143595800Y-132995800D01*
X143595800Y-132995800D01*
G37*
G36*
X139012280Y-131554702D02*
X139149097Y-131596204D01*
X139275184Y-131663600D01*
X139385701Y-131754299D01*
X139476400Y-131864816D01*
X139543796Y-131990903D01*
X139585298Y-132127720D01*
X139599311Y-132270000D01*
X139585298Y-132412280D01*
X139543796Y-132549097D01*
X139476400Y-132675184D01*
X139385701Y-132785701D01*
X139275184Y-132876400D01*
X139149097Y-132943796D01*
X139012280Y-132985298D01*
X138905651Y-132995800D01*
X138834349Y-132995800D01*
X138727720Y-132985298D01*
X138590903Y-132943796D01*
X138464816Y-132876400D01*
X138354299Y-132785701D01*
X138263600Y-132675184D01*
X138196204Y-132549097D01*
X138154702Y-132412280D01*
X138140689Y-132270000D01*
X138154702Y-132127720D01*
X138196204Y-131990903D01*
X138263600Y-131864816D01*
X138354299Y-131754299D01*
X138464816Y-131663600D01*
X138590903Y-131596204D01*
X138727720Y-131554702D01*
X138834349Y-131544200D01*
X138905651Y-131544200D01*
X139012280Y-131554702D01*
X139012280Y-131554702D01*
G37*
G36*
X137012280Y-131554702D02*
X137149097Y-131596204D01*
X137275184Y-131663600D01*
X137385701Y-131754299D01*
X137476400Y-131864816D01*
X137543796Y-131990903D01*
X137585298Y-132127720D01*
X137599311Y-132270000D01*
X137585298Y-132412280D01*
X137543796Y-132549097D01*
X137476400Y-132675184D01*
X137385701Y-132785701D01*
X137275184Y-132876400D01*
X137149097Y-132943796D01*
X137012280Y-132985298D01*
X136905651Y-132995800D01*
X136834349Y-132995800D01*
X136727720Y-132985298D01*
X136590903Y-132943796D01*
X136464816Y-132876400D01*
X136354299Y-132785701D01*
X136263600Y-132675184D01*
X136196204Y-132549097D01*
X136154702Y-132412280D01*
X136140689Y-132270000D01*
X136154702Y-132127720D01*
X136196204Y-131990903D01*
X136263600Y-131864816D01*
X136354299Y-131754299D01*
X136464816Y-131663600D01*
X136590903Y-131596204D01*
X136727720Y-131554702D01*
X136834349Y-131544200D01*
X136905651Y-131544200D01*
X137012280Y-131554702D01*
X137012280Y-131554702D01*
G37*
G36*
X135012280Y-131554702D02*
X135149097Y-131596204D01*
X135275184Y-131663600D01*
X135385701Y-131754299D01*
X135476400Y-131864816D01*
X135543796Y-131990903D01*
X135585298Y-132127720D01*
X135599311Y-132270000D01*
X135585298Y-132412280D01*
X135543796Y-132549097D01*
X135476400Y-132675184D01*
X135385701Y-132785701D01*
X135275184Y-132876400D01*
X135149097Y-132943796D01*
X135012280Y-132985298D01*
X134905651Y-132995800D01*
X134834349Y-132995800D01*
X134727720Y-132985298D01*
X134590903Y-132943796D01*
X134464816Y-132876400D01*
X134354299Y-132785701D01*
X134263600Y-132675184D01*
X134196204Y-132549097D01*
X134154702Y-132412280D01*
X134140689Y-132270000D01*
X134154702Y-132127720D01*
X134196204Y-131990903D01*
X134263600Y-131864816D01*
X134354299Y-131754299D01*
X134464816Y-131663600D01*
X134590903Y-131596204D01*
X134727720Y-131554702D01*
X134834349Y-131544200D01*
X134905651Y-131544200D01*
X135012280Y-131554702D01*
X135012280Y-131554702D01*
G37*
G36*
X133012280Y-131554702D02*
X133149097Y-131596204D01*
X133275184Y-131663600D01*
X133385701Y-131754299D01*
X133476400Y-131864816D01*
X133543796Y-131990903D01*
X133585298Y-132127720D01*
X133599311Y-132270000D01*
X133585298Y-132412280D01*
X133543796Y-132549097D01*
X133476400Y-132675184D01*
X133385701Y-132785701D01*
X133275184Y-132876400D01*
X133149097Y-132943796D01*
X133012280Y-132985298D01*
X132905651Y-132995800D01*
X132834349Y-132995800D01*
X132727720Y-132985298D01*
X132590903Y-132943796D01*
X132464816Y-132876400D01*
X132354299Y-132785701D01*
X132263600Y-132675184D01*
X132196204Y-132549097D01*
X132154702Y-132412280D01*
X132140689Y-132270000D01*
X132154702Y-132127720D01*
X132196204Y-131990903D01*
X132263600Y-131864816D01*
X132354299Y-131754299D01*
X132464816Y-131663600D01*
X132590903Y-131596204D01*
X132727720Y-131554702D01*
X132834349Y-131544200D01*
X132905651Y-131544200D01*
X133012280Y-131554702D01*
X133012280Y-131554702D01*
G37*
G36*
X131012280Y-131554702D02*
X131149097Y-131596204D01*
X131275184Y-131663600D01*
X131385701Y-131754299D01*
X131476400Y-131864816D01*
X131543796Y-131990903D01*
X131585298Y-132127720D01*
X131599311Y-132270000D01*
X131585298Y-132412280D01*
X131543796Y-132549097D01*
X131476400Y-132675184D01*
X131385701Y-132785701D01*
X131275184Y-132876400D01*
X131149097Y-132943796D01*
X131012280Y-132985298D01*
X130905651Y-132995800D01*
X130834349Y-132995800D01*
X130727720Y-132985298D01*
X130590903Y-132943796D01*
X130464816Y-132876400D01*
X130354299Y-132785701D01*
X130263600Y-132675184D01*
X130196204Y-132549097D01*
X130154702Y-132412280D01*
X130140689Y-132270000D01*
X130154702Y-132127720D01*
X130196204Y-131990903D01*
X130263600Y-131864816D01*
X130354299Y-131754299D01*
X130464816Y-131663600D01*
X130590903Y-131596204D01*
X130727720Y-131554702D01*
X130834349Y-131544200D01*
X130905651Y-131544200D01*
X131012280Y-131554702D01*
X131012280Y-131554702D01*
G37*
G36*
X129012280Y-131554702D02*
X129149097Y-131596204D01*
X129275184Y-131663600D01*
X129385701Y-131754299D01*
X129476400Y-131864816D01*
X129543796Y-131990903D01*
X129585298Y-132127720D01*
X129599311Y-132270000D01*
X129585298Y-132412280D01*
X129543796Y-132549097D01*
X129476400Y-132675184D01*
X129385701Y-132785701D01*
X129275184Y-132876400D01*
X129149097Y-132943796D01*
X129012280Y-132985298D01*
X128905651Y-132995800D01*
X128834349Y-132995800D01*
X128727720Y-132985298D01*
X128590903Y-132943796D01*
X128464816Y-132876400D01*
X128354299Y-132785701D01*
X128263600Y-132675184D01*
X128196204Y-132549097D01*
X128154702Y-132412280D01*
X128140689Y-132270000D01*
X128154702Y-132127720D01*
X128196204Y-131990903D01*
X128263600Y-131864816D01*
X128354299Y-131754299D01*
X128464816Y-131663600D01*
X128590903Y-131596204D01*
X128727720Y-131554702D01*
X128834349Y-131544200D01*
X128905651Y-131544200D01*
X129012280Y-131554702D01*
X129012280Y-131554702D01*
G37*
G36*
X127012280Y-131554702D02*
X127149097Y-131596204D01*
X127275184Y-131663600D01*
X127385701Y-131754299D01*
X127476400Y-131864816D01*
X127543796Y-131990903D01*
X127585298Y-132127720D01*
X127599311Y-132270000D01*
X127585298Y-132412280D01*
X127543796Y-132549097D01*
X127476400Y-132675184D01*
X127385701Y-132785701D01*
X127275184Y-132876400D01*
X127149097Y-132943796D01*
X127012280Y-132985298D01*
X126905651Y-132995800D01*
X126834349Y-132995800D01*
X126727720Y-132985298D01*
X126590903Y-132943796D01*
X126464816Y-132876400D01*
X126354299Y-132785701D01*
X126263600Y-132675184D01*
X126196204Y-132549097D01*
X126154702Y-132412280D01*
X126140689Y-132270000D01*
X126154702Y-132127720D01*
X126196204Y-131990903D01*
X126263600Y-131864816D01*
X126354299Y-131754299D01*
X126464816Y-131663600D01*
X126590903Y-131596204D01*
X126727720Y-131554702D01*
X126834349Y-131544200D01*
X126905651Y-131544200D01*
X127012280Y-131554702D01*
X127012280Y-131554702D01*
G37*
G36*
X141012280Y-131554702D02*
X141149097Y-131596204D01*
X141275184Y-131663600D01*
X141385701Y-131754299D01*
X141476400Y-131864816D01*
X141543796Y-131990903D01*
X141585298Y-132127720D01*
X141599311Y-132270000D01*
X141585298Y-132412280D01*
X141543796Y-132549097D01*
X141476400Y-132675184D01*
X141385701Y-132785701D01*
X141275184Y-132876400D01*
X141149097Y-132943796D01*
X141012280Y-132985298D01*
X140905651Y-132995800D01*
X140834349Y-132995800D01*
X140727720Y-132985298D01*
X140590903Y-132943796D01*
X140464816Y-132876400D01*
X140354299Y-132785701D01*
X140263600Y-132675184D01*
X140196204Y-132549097D01*
X140154702Y-132412280D01*
X140140689Y-132270000D01*
X140154702Y-132127720D01*
X140196204Y-131990903D01*
X140263600Y-131864816D01*
X140354299Y-131754299D01*
X140464816Y-131663600D01*
X140590903Y-131596204D01*
X140727720Y-131554702D01*
X140834349Y-131544200D01*
X140905651Y-131544200D01*
X141012280Y-131554702D01*
X141012280Y-131554702D01*
G37*
G36*
X121012280Y-131554702D02*
X121149097Y-131596204D01*
X121275184Y-131663600D01*
X121385701Y-131754299D01*
X121476400Y-131864816D01*
X121543796Y-131990903D01*
X121585298Y-132127720D01*
X121599311Y-132270000D01*
X121585298Y-132412280D01*
X121543796Y-132549097D01*
X121476400Y-132675184D01*
X121385701Y-132785701D01*
X121275184Y-132876400D01*
X121149097Y-132943796D01*
X121012280Y-132985298D01*
X120905651Y-132995800D01*
X120834349Y-132995800D01*
X120727720Y-132985298D01*
X120590903Y-132943796D01*
X120464816Y-132876400D01*
X120354299Y-132785701D01*
X120263600Y-132675184D01*
X120196204Y-132549097D01*
X120154702Y-132412280D01*
X120140689Y-132270000D01*
X120154702Y-132127720D01*
X120196204Y-131990903D01*
X120263600Y-131864816D01*
X120354299Y-131754299D01*
X120464816Y-131663600D01*
X120590903Y-131596204D01*
X120727720Y-131554702D01*
X120834349Y-131544200D01*
X120905651Y-131544200D01*
X121012280Y-131554702D01*
X121012280Y-131554702D01*
G37*
G36*
X123012280Y-131554702D02*
X123149097Y-131596204D01*
X123275184Y-131663600D01*
X123385701Y-131754299D01*
X123476400Y-131864816D01*
X123543796Y-131990903D01*
X123585298Y-132127720D01*
X123599311Y-132270000D01*
X123585298Y-132412280D01*
X123543796Y-132549097D01*
X123476400Y-132675184D01*
X123385701Y-132785701D01*
X123275184Y-132876400D01*
X123149097Y-132943796D01*
X123012280Y-132985298D01*
X122905651Y-132995800D01*
X122834349Y-132995800D01*
X122727720Y-132985298D01*
X122590903Y-132943796D01*
X122464816Y-132876400D01*
X122354299Y-132785701D01*
X122263600Y-132675184D01*
X122196204Y-132549097D01*
X122154702Y-132412280D01*
X122140689Y-132270000D01*
X122154702Y-132127720D01*
X122196204Y-131990903D01*
X122263600Y-131864816D01*
X122354299Y-131754299D01*
X122464816Y-131663600D01*
X122590903Y-131596204D01*
X122727720Y-131554702D01*
X122834349Y-131544200D01*
X122905651Y-131544200D01*
X123012280Y-131554702D01*
X123012280Y-131554702D01*
G37*
G36*
X107012280Y-131554702D02*
X107149097Y-131596204D01*
X107275184Y-131663600D01*
X107385701Y-131754299D01*
X107476400Y-131864816D01*
X107543796Y-131990903D01*
X107585298Y-132127720D01*
X107599311Y-132270000D01*
X107585298Y-132412280D01*
X107543796Y-132549097D01*
X107476400Y-132675184D01*
X107385701Y-132785701D01*
X107275184Y-132876400D01*
X107149097Y-132943796D01*
X107012280Y-132985298D01*
X106905651Y-132995800D01*
X106834349Y-132995800D01*
X106727720Y-132985298D01*
X106590903Y-132943796D01*
X106464816Y-132876400D01*
X106354299Y-132785701D01*
X106263600Y-132675184D01*
X106196204Y-132549097D01*
X106154702Y-132412280D01*
X106140689Y-132270000D01*
X106154702Y-132127720D01*
X106196204Y-131990903D01*
X106263600Y-131864816D01*
X106354299Y-131754299D01*
X106464816Y-131663600D01*
X106590903Y-131596204D01*
X106727720Y-131554702D01*
X106834349Y-131544200D01*
X106905651Y-131544200D01*
X107012280Y-131554702D01*
X107012280Y-131554702D01*
G37*
G36*
X109012280Y-131554702D02*
X109149097Y-131596204D01*
X109275184Y-131663600D01*
X109385701Y-131754299D01*
X109476400Y-131864816D01*
X109543796Y-131990903D01*
X109585298Y-132127720D01*
X109599311Y-132270000D01*
X109585298Y-132412280D01*
X109543796Y-132549097D01*
X109476400Y-132675184D01*
X109385701Y-132785701D01*
X109275184Y-132876400D01*
X109149097Y-132943796D01*
X109012280Y-132985298D01*
X108905651Y-132995800D01*
X108834349Y-132995800D01*
X108727720Y-132985298D01*
X108590903Y-132943796D01*
X108464816Y-132876400D01*
X108354299Y-132785701D01*
X108263600Y-132675184D01*
X108196204Y-132549097D01*
X108154702Y-132412280D01*
X108140689Y-132270000D01*
X108154702Y-132127720D01*
X108196204Y-131990903D01*
X108263600Y-131864816D01*
X108354299Y-131754299D01*
X108464816Y-131663600D01*
X108590903Y-131596204D01*
X108727720Y-131554702D01*
X108834349Y-131544200D01*
X108905651Y-131544200D01*
X109012280Y-131554702D01*
X109012280Y-131554702D01*
G37*
G36*
X111012280Y-131554702D02*
X111149097Y-131596204D01*
X111275184Y-131663600D01*
X111385701Y-131754299D01*
X111476400Y-131864816D01*
X111543796Y-131990903D01*
X111585298Y-132127720D01*
X111599311Y-132270000D01*
X111585298Y-132412280D01*
X111543796Y-132549097D01*
X111476400Y-132675184D01*
X111385701Y-132785701D01*
X111275184Y-132876400D01*
X111149097Y-132943796D01*
X111012280Y-132985298D01*
X110905651Y-132995800D01*
X110834349Y-132995800D01*
X110727720Y-132985298D01*
X110590903Y-132943796D01*
X110464816Y-132876400D01*
X110354299Y-132785701D01*
X110263600Y-132675184D01*
X110196204Y-132549097D01*
X110154702Y-132412280D01*
X110140689Y-132270000D01*
X110154702Y-132127720D01*
X110196204Y-131990903D01*
X110263600Y-131864816D01*
X110354299Y-131754299D01*
X110464816Y-131663600D01*
X110590903Y-131596204D01*
X110727720Y-131554702D01*
X110834349Y-131544200D01*
X110905651Y-131544200D01*
X111012280Y-131554702D01*
X111012280Y-131554702D01*
G37*
G36*
X113012280Y-131554702D02*
X113149097Y-131596204D01*
X113275184Y-131663600D01*
X113385701Y-131754299D01*
X113476400Y-131864816D01*
X113543796Y-131990903D01*
X113585298Y-132127720D01*
X113599311Y-132270000D01*
X113585298Y-132412280D01*
X113543796Y-132549097D01*
X113476400Y-132675184D01*
X113385701Y-132785701D01*
X113275184Y-132876400D01*
X113149097Y-132943796D01*
X113012280Y-132985298D01*
X112905651Y-132995800D01*
X112834349Y-132995800D01*
X112727720Y-132985298D01*
X112590903Y-132943796D01*
X112464816Y-132876400D01*
X112354299Y-132785701D01*
X112263600Y-132675184D01*
X112196204Y-132549097D01*
X112154702Y-132412280D01*
X112140689Y-132270000D01*
X112154702Y-132127720D01*
X112196204Y-131990903D01*
X112263600Y-131864816D01*
X112354299Y-131754299D01*
X112464816Y-131663600D01*
X112590903Y-131596204D01*
X112727720Y-131554702D01*
X112834349Y-131544200D01*
X112905651Y-131544200D01*
X113012280Y-131554702D01*
X113012280Y-131554702D01*
G37*
G36*
X115012280Y-131554702D02*
X115149097Y-131596204D01*
X115275184Y-131663600D01*
X115385701Y-131754299D01*
X115476400Y-131864816D01*
X115543796Y-131990903D01*
X115585298Y-132127720D01*
X115599311Y-132270000D01*
X115585298Y-132412280D01*
X115543796Y-132549097D01*
X115476400Y-132675184D01*
X115385701Y-132785701D01*
X115275184Y-132876400D01*
X115149097Y-132943796D01*
X115012280Y-132985298D01*
X114905651Y-132995800D01*
X114834349Y-132995800D01*
X114727720Y-132985298D01*
X114590903Y-132943796D01*
X114464816Y-132876400D01*
X114354299Y-132785701D01*
X114263600Y-132675184D01*
X114196204Y-132549097D01*
X114154702Y-132412280D01*
X114140689Y-132270000D01*
X114154702Y-132127720D01*
X114196204Y-131990903D01*
X114263600Y-131864816D01*
X114354299Y-131754299D01*
X114464816Y-131663600D01*
X114590903Y-131596204D01*
X114727720Y-131554702D01*
X114834349Y-131544200D01*
X114905651Y-131544200D01*
X115012280Y-131554702D01*
X115012280Y-131554702D01*
G37*
G36*
X117012280Y-131554702D02*
X117149097Y-131596204D01*
X117275184Y-131663600D01*
X117385701Y-131754299D01*
X117476400Y-131864816D01*
X117543796Y-131990903D01*
X117585298Y-132127720D01*
X117599311Y-132270000D01*
X117585298Y-132412280D01*
X117543796Y-132549097D01*
X117476400Y-132675184D01*
X117385701Y-132785701D01*
X117275184Y-132876400D01*
X117149097Y-132943796D01*
X117012280Y-132985298D01*
X116905651Y-132995800D01*
X116834349Y-132995800D01*
X116727720Y-132985298D01*
X116590903Y-132943796D01*
X116464816Y-132876400D01*
X116354299Y-132785701D01*
X116263600Y-132675184D01*
X116196204Y-132549097D01*
X116154702Y-132412280D01*
X116140689Y-132270000D01*
X116154702Y-132127720D01*
X116196204Y-131990903D01*
X116263600Y-131864816D01*
X116354299Y-131754299D01*
X116464816Y-131663600D01*
X116590903Y-131596204D01*
X116727720Y-131554702D01*
X116834349Y-131544200D01*
X116905651Y-131544200D01*
X117012280Y-131554702D01*
X117012280Y-131554702D01*
G37*
G36*
X119012280Y-131554702D02*
X119149097Y-131596204D01*
X119275184Y-131663600D01*
X119385701Y-131754299D01*
X119476400Y-131864816D01*
X119543796Y-131990903D01*
X119585298Y-132127720D01*
X119599311Y-132270000D01*
X119585298Y-132412280D01*
X119543796Y-132549097D01*
X119476400Y-132675184D01*
X119385701Y-132785701D01*
X119275184Y-132876400D01*
X119149097Y-132943796D01*
X119012280Y-132985298D01*
X118905651Y-132995800D01*
X118834349Y-132995800D01*
X118727720Y-132985298D01*
X118590903Y-132943796D01*
X118464816Y-132876400D01*
X118354299Y-132785701D01*
X118263600Y-132675184D01*
X118196204Y-132549097D01*
X118154702Y-132412280D01*
X118140689Y-132270000D01*
X118154702Y-132127720D01*
X118196204Y-131990903D01*
X118263600Y-131864816D01*
X118354299Y-131754299D01*
X118464816Y-131663600D01*
X118590903Y-131596204D01*
X118727720Y-131554702D01*
X118834349Y-131544200D01*
X118905651Y-131544200D01*
X119012280Y-131554702D01*
X119012280Y-131554702D01*
G37*
G36*
X117012280Y-129554702D02*
X117149097Y-129596204D01*
X117275184Y-129663600D01*
X117385701Y-129754299D01*
X117476400Y-129864816D01*
X117543796Y-129990903D01*
X117585298Y-130127720D01*
X117599311Y-130270000D01*
X117585298Y-130412280D01*
X117543796Y-130549097D01*
X117476400Y-130675184D01*
X117385701Y-130785701D01*
X117275184Y-130876400D01*
X117149097Y-130943796D01*
X117012280Y-130985298D01*
X116905651Y-130995800D01*
X116834349Y-130995800D01*
X116727720Y-130985298D01*
X116590903Y-130943796D01*
X116464816Y-130876400D01*
X116354299Y-130785701D01*
X116263600Y-130675184D01*
X116196204Y-130549097D01*
X116154702Y-130412280D01*
X116140689Y-130270000D01*
X116154702Y-130127720D01*
X116196204Y-129990903D01*
X116263600Y-129864816D01*
X116354299Y-129754299D01*
X116464816Y-129663600D01*
X116590903Y-129596204D01*
X116727720Y-129554702D01*
X116834349Y-129544200D01*
X116905651Y-129544200D01*
X117012280Y-129554702D01*
X117012280Y-129554702D01*
G37*
G36*
X141012280Y-129554702D02*
X141149097Y-129596204D01*
X141275184Y-129663600D01*
X141385701Y-129754299D01*
X141476400Y-129864816D01*
X141543796Y-129990903D01*
X141585298Y-130127720D01*
X141599311Y-130270000D01*
X141585298Y-130412280D01*
X141543796Y-130549097D01*
X141476400Y-130675184D01*
X141385701Y-130785701D01*
X141275184Y-130876400D01*
X141149097Y-130943796D01*
X141012280Y-130985298D01*
X140905651Y-130995800D01*
X140834349Y-130995800D01*
X140727720Y-130985298D01*
X140590903Y-130943796D01*
X140464816Y-130876400D01*
X140354299Y-130785701D01*
X140263600Y-130675184D01*
X140196204Y-130549097D01*
X140154702Y-130412280D01*
X140140689Y-130270000D01*
X140154702Y-130127720D01*
X140196204Y-129990903D01*
X140263600Y-129864816D01*
X140354299Y-129754299D01*
X140464816Y-129663600D01*
X140590903Y-129596204D01*
X140727720Y-129554702D01*
X140834349Y-129544200D01*
X140905651Y-129544200D01*
X141012280Y-129554702D01*
X141012280Y-129554702D01*
G37*
G36*
X137012280Y-129554702D02*
X137149097Y-129596204D01*
X137275184Y-129663600D01*
X137385701Y-129754299D01*
X137476400Y-129864816D01*
X137543796Y-129990903D01*
X137585298Y-130127720D01*
X137599311Y-130270000D01*
X137585298Y-130412280D01*
X137543796Y-130549097D01*
X137476400Y-130675184D01*
X137385701Y-130785701D01*
X137275184Y-130876400D01*
X137149097Y-130943796D01*
X137012280Y-130985298D01*
X136905651Y-130995800D01*
X136834349Y-130995800D01*
X136727720Y-130985298D01*
X136590903Y-130943796D01*
X136464816Y-130876400D01*
X136354299Y-130785701D01*
X136263600Y-130675184D01*
X136196204Y-130549097D01*
X136154702Y-130412280D01*
X136140689Y-130270000D01*
X136154702Y-130127720D01*
X136196204Y-129990903D01*
X136263600Y-129864816D01*
X136354299Y-129754299D01*
X136464816Y-129663600D01*
X136590903Y-129596204D01*
X136727720Y-129554702D01*
X136834349Y-129544200D01*
X136905651Y-129544200D01*
X137012280Y-129554702D01*
X137012280Y-129554702D01*
G37*
G36*
X135012280Y-129554702D02*
X135149097Y-129596204D01*
X135275184Y-129663600D01*
X135385701Y-129754299D01*
X135476400Y-129864816D01*
X135543796Y-129990903D01*
X135585298Y-130127720D01*
X135599311Y-130270000D01*
X135585298Y-130412280D01*
X135543796Y-130549097D01*
X135476400Y-130675184D01*
X135385701Y-130785701D01*
X135275184Y-130876400D01*
X135149097Y-130943796D01*
X135012280Y-130985298D01*
X134905651Y-130995800D01*
X134834349Y-130995800D01*
X134727720Y-130985298D01*
X134590903Y-130943796D01*
X134464816Y-130876400D01*
X134354299Y-130785701D01*
X134263600Y-130675184D01*
X134196204Y-130549097D01*
X134154702Y-130412280D01*
X134140689Y-130270000D01*
X134154702Y-130127720D01*
X134196204Y-129990903D01*
X134263600Y-129864816D01*
X134354299Y-129754299D01*
X134464816Y-129663600D01*
X134590903Y-129596204D01*
X134727720Y-129554702D01*
X134834349Y-129544200D01*
X134905651Y-129544200D01*
X135012280Y-129554702D01*
X135012280Y-129554702D01*
G37*
G36*
X133012280Y-129554702D02*
X133149097Y-129596204D01*
X133275184Y-129663600D01*
X133385701Y-129754299D01*
X133476400Y-129864816D01*
X133543796Y-129990903D01*
X133585298Y-130127720D01*
X133599311Y-130270000D01*
X133585298Y-130412280D01*
X133543796Y-130549097D01*
X133476400Y-130675184D01*
X133385701Y-130785701D01*
X133275184Y-130876400D01*
X133149097Y-130943796D01*
X133012280Y-130985298D01*
X132905651Y-130995800D01*
X132834349Y-130995800D01*
X132727720Y-130985298D01*
X132590903Y-130943796D01*
X132464816Y-130876400D01*
X132354299Y-130785701D01*
X132263600Y-130675184D01*
X132196204Y-130549097D01*
X132154702Y-130412280D01*
X132140689Y-130270000D01*
X132154702Y-130127720D01*
X132196204Y-129990903D01*
X132263600Y-129864816D01*
X132354299Y-129754299D01*
X132464816Y-129663600D01*
X132590903Y-129596204D01*
X132727720Y-129554702D01*
X132834349Y-129544200D01*
X132905651Y-129544200D01*
X133012280Y-129554702D01*
X133012280Y-129554702D01*
G37*
G36*
X131012280Y-129554702D02*
X131149097Y-129596204D01*
X131275184Y-129663600D01*
X131385701Y-129754299D01*
X131476400Y-129864816D01*
X131543796Y-129990903D01*
X131585298Y-130127720D01*
X131599311Y-130270000D01*
X131585298Y-130412280D01*
X131543796Y-130549097D01*
X131476400Y-130675184D01*
X131385701Y-130785701D01*
X131275184Y-130876400D01*
X131149097Y-130943796D01*
X131012280Y-130985298D01*
X130905651Y-130995800D01*
X130834349Y-130995800D01*
X130727720Y-130985298D01*
X130590903Y-130943796D01*
X130464816Y-130876400D01*
X130354299Y-130785701D01*
X130263600Y-130675184D01*
X130196204Y-130549097D01*
X130154702Y-130412280D01*
X130140689Y-130270000D01*
X130154702Y-130127720D01*
X130196204Y-129990903D01*
X130263600Y-129864816D01*
X130354299Y-129754299D01*
X130464816Y-129663600D01*
X130590903Y-129596204D01*
X130727720Y-129554702D01*
X130834349Y-129544200D01*
X130905651Y-129544200D01*
X131012280Y-129554702D01*
X131012280Y-129554702D01*
G37*
G36*
X129012280Y-129554702D02*
X129149097Y-129596204D01*
X129275184Y-129663600D01*
X129385701Y-129754299D01*
X129476400Y-129864816D01*
X129543796Y-129990903D01*
X129585298Y-130127720D01*
X129599311Y-130270000D01*
X129585298Y-130412280D01*
X129543796Y-130549097D01*
X129476400Y-130675184D01*
X129385701Y-130785701D01*
X129275184Y-130876400D01*
X129149097Y-130943796D01*
X129012280Y-130985298D01*
X128905651Y-130995800D01*
X128834349Y-130995800D01*
X128727720Y-130985298D01*
X128590903Y-130943796D01*
X128464816Y-130876400D01*
X128354299Y-130785701D01*
X128263600Y-130675184D01*
X128196204Y-130549097D01*
X128154702Y-130412280D01*
X128140689Y-130270000D01*
X128154702Y-130127720D01*
X128196204Y-129990903D01*
X128263600Y-129864816D01*
X128354299Y-129754299D01*
X128464816Y-129663600D01*
X128590903Y-129596204D01*
X128727720Y-129554702D01*
X128834349Y-129544200D01*
X128905651Y-129544200D01*
X129012280Y-129554702D01*
X129012280Y-129554702D01*
G37*
G36*
X127012280Y-129554702D02*
X127149097Y-129596204D01*
X127275184Y-129663600D01*
X127385701Y-129754299D01*
X127476400Y-129864816D01*
X127543796Y-129990903D01*
X127585298Y-130127720D01*
X127599311Y-130270000D01*
X127585298Y-130412280D01*
X127543796Y-130549097D01*
X127476400Y-130675184D01*
X127385701Y-130785701D01*
X127275184Y-130876400D01*
X127149097Y-130943796D01*
X127012280Y-130985298D01*
X126905651Y-130995800D01*
X126834349Y-130995800D01*
X126727720Y-130985298D01*
X126590903Y-130943796D01*
X126464816Y-130876400D01*
X126354299Y-130785701D01*
X126263600Y-130675184D01*
X126196204Y-130549097D01*
X126154702Y-130412280D01*
X126140689Y-130270000D01*
X126154702Y-130127720D01*
X126196204Y-129990903D01*
X126263600Y-129864816D01*
X126354299Y-129754299D01*
X126464816Y-129663600D01*
X126590903Y-129596204D01*
X126727720Y-129554702D01*
X126834349Y-129544200D01*
X126905651Y-129544200D01*
X127012280Y-129554702D01*
X127012280Y-129554702D01*
G37*
G36*
X125012280Y-129554702D02*
X125149097Y-129596204D01*
X125275184Y-129663600D01*
X125385701Y-129754299D01*
X125476400Y-129864816D01*
X125543796Y-129990903D01*
X125585298Y-130127720D01*
X125599311Y-130270000D01*
X125585298Y-130412280D01*
X125543796Y-130549097D01*
X125476400Y-130675184D01*
X125385701Y-130785701D01*
X125275184Y-130876400D01*
X125149097Y-130943796D01*
X125012280Y-130985298D01*
X124905651Y-130995800D01*
X124834349Y-130995800D01*
X124727720Y-130985298D01*
X124590903Y-130943796D01*
X124464816Y-130876400D01*
X124354299Y-130785701D01*
X124263600Y-130675184D01*
X124196204Y-130549097D01*
X124154702Y-130412280D01*
X124140689Y-130270000D01*
X124154702Y-130127720D01*
X124196204Y-129990903D01*
X124263600Y-129864816D01*
X124354299Y-129754299D01*
X124464816Y-129663600D01*
X124590903Y-129596204D01*
X124727720Y-129554702D01*
X124834349Y-129544200D01*
X124905651Y-129544200D01*
X125012280Y-129554702D01*
X125012280Y-129554702D01*
G37*
G36*
X139012280Y-129554702D02*
X139149097Y-129596204D01*
X139275184Y-129663600D01*
X139385701Y-129754299D01*
X139476400Y-129864816D01*
X139543796Y-129990903D01*
X139585298Y-130127720D01*
X139599311Y-130270000D01*
X139585298Y-130412280D01*
X139543796Y-130549097D01*
X139476400Y-130675184D01*
X139385701Y-130785701D01*
X139275184Y-130876400D01*
X139149097Y-130943796D01*
X139012280Y-130985298D01*
X138905651Y-130995800D01*
X138834349Y-130995800D01*
X138727720Y-130985298D01*
X138590903Y-130943796D01*
X138464816Y-130876400D01*
X138354299Y-130785701D01*
X138263600Y-130675184D01*
X138196204Y-130549097D01*
X138154702Y-130412280D01*
X138140689Y-130270000D01*
X138154702Y-130127720D01*
X138196204Y-129990903D01*
X138263600Y-129864816D01*
X138354299Y-129754299D01*
X138464816Y-129663600D01*
X138590903Y-129596204D01*
X138727720Y-129554702D01*
X138834349Y-129544200D01*
X138905651Y-129544200D01*
X139012280Y-129554702D01*
X139012280Y-129554702D01*
G37*
G36*
X121012280Y-129554702D02*
X121149097Y-129596204D01*
X121275184Y-129663600D01*
X121385701Y-129754299D01*
X121476400Y-129864816D01*
X121543796Y-129990903D01*
X121585298Y-130127720D01*
X121599311Y-130270000D01*
X121585298Y-130412280D01*
X121543796Y-130549097D01*
X121476400Y-130675184D01*
X121385701Y-130785701D01*
X121275184Y-130876400D01*
X121149097Y-130943796D01*
X121012280Y-130985298D01*
X120905651Y-130995800D01*
X120834349Y-130995800D01*
X120727720Y-130985298D01*
X120590903Y-130943796D01*
X120464816Y-130876400D01*
X120354299Y-130785701D01*
X120263600Y-130675184D01*
X120196204Y-130549097D01*
X120154702Y-130412280D01*
X120140689Y-130270000D01*
X120154702Y-130127720D01*
X120196204Y-129990903D01*
X120263600Y-129864816D01*
X120354299Y-129754299D01*
X120464816Y-129663600D01*
X120590903Y-129596204D01*
X120727720Y-129554702D01*
X120834349Y-129544200D01*
X120905651Y-129544200D01*
X121012280Y-129554702D01*
X121012280Y-129554702D01*
G37*
G36*
X119012280Y-129554702D02*
X119149097Y-129596204D01*
X119275184Y-129663600D01*
X119385701Y-129754299D01*
X119476400Y-129864816D01*
X119543796Y-129990903D01*
X119585298Y-130127720D01*
X119599311Y-130270000D01*
X119585298Y-130412280D01*
X119543796Y-130549097D01*
X119476400Y-130675184D01*
X119385701Y-130785701D01*
X119275184Y-130876400D01*
X119149097Y-130943796D01*
X119012280Y-130985298D01*
X118905651Y-130995800D01*
X118834349Y-130995800D01*
X118727720Y-130985298D01*
X118590903Y-130943796D01*
X118464816Y-130876400D01*
X118354299Y-130785701D01*
X118263600Y-130675184D01*
X118196204Y-130549097D01*
X118154702Y-130412280D01*
X118140689Y-130270000D01*
X118154702Y-130127720D01*
X118196204Y-129990903D01*
X118263600Y-129864816D01*
X118354299Y-129754299D01*
X118464816Y-129663600D01*
X118590903Y-129596204D01*
X118727720Y-129554702D01*
X118834349Y-129544200D01*
X118905651Y-129544200D01*
X119012280Y-129554702D01*
X119012280Y-129554702D01*
G37*
G36*
X115012280Y-129554702D02*
X115149097Y-129596204D01*
X115275184Y-129663600D01*
X115385701Y-129754299D01*
X115476400Y-129864816D01*
X115543796Y-129990903D01*
X115585298Y-130127720D01*
X115599311Y-130270000D01*
X115585298Y-130412280D01*
X115543796Y-130549097D01*
X115476400Y-130675184D01*
X115385701Y-130785701D01*
X115275184Y-130876400D01*
X115149097Y-130943796D01*
X115012280Y-130985298D01*
X114905651Y-130995800D01*
X114834349Y-130995800D01*
X114727720Y-130985298D01*
X114590903Y-130943796D01*
X114464816Y-130876400D01*
X114354299Y-130785701D01*
X114263600Y-130675184D01*
X114196204Y-130549097D01*
X114154702Y-130412280D01*
X114140689Y-130270000D01*
X114154702Y-130127720D01*
X114196204Y-129990903D01*
X114263600Y-129864816D01*
X114354299Y-129754299D01*
X114464816Y-129663600D01*
X114590903Y-129596204D01*
X114727720Y-129554702D01*
X114834349Y-129544200D01*
X114905651Y-129544200D01*
X115012280Y-129554702D01*
X115012280Y-129554702D01*
G37*
G36*
X113012280Y-129554702D02*
X113149097Y-129596204D01*
X113275184Y-129663600D01*
X113385701Y-129754299D01*
X113476400Y-129864816D01*
X113543796Y-129990903D01*
X113585298Y-130127720D01*
X113599311Y-130270000D01*
X113585298Y-130412280D01*
X113543796Y-130549097D01*
X113476400Y-130675184D01*
X113385701Y-130785701D01*
X113275184Y-130876400D01*
X113149097Y-130943796D01*
X113012280Y-130985298D01*
X112905651Y-130995800D01*
X112834349Y-130995800D01*
X112727720Y-130985298D01*
X112590903Y-130943796D01*
X112464816Y-130876400D01*
X112354299Y-130785701D01*
X112263600Y-130675184D01*
X112196204Y-130549097D01*
X112154702Y-130412280D01*
X112140689Y-130270000D01*
X112154702Y-130127720D01*
X112196204Y-129990903D01*
X112263600Y-129864816D01*
X112354299Y-129754299D01*
X112464816Y-129663600D01*
X112590903Y-129596204D01*
X112727720Y-129554702D01*
X112834349Y-129544200D01*
X112905651Y-129544200D01*
X113012280Y-129554702D01*
X113012280Y-129554702D01*
G37*
G36*
X111012280Y-129554702D02*
X111149097Y-129596204D01*
X111275184Y-129663600D01*
X111385701Y-129754299D01*
X111476400Y-129864816D01*
X111543796Y-129990903D01*
X111585298Y-130127720D01*
X111599311Y-130270000D01*
X111585298Y-130412280D01*
X111543796Y-130549097D01*
X111476400Y-130675184D01*
X111385701Y-130785701D01*
X111275184Y-130876400D01*
X111149097Y-130943796D01*
X111012280Y-130985298D01*
X110905651Y-130995800D01*
X110834349Y-130995800D01*
X110727720Y-130985298D01*
X110590903Y-130943796D01*
X110464816Y-130876400D01*
X110354299Y-130785701D01*
X110263600Y-130675184D01*
X110196204Y-130549097D01*
X110154702Y-130412280D01*
X110140689Y-130270000D01*
X110154702Y-130127720D01*
X110196204Y-129990903D01*
X110263600Y-129864816D01*
X110354299Y-129754299D01*
X110464816Y-129663600D01*
X110590903Y-129596204D01*
X110727720Y-129554702D01*
X110834349Y-129544200D01*
X110905651Y-129544200D01*
X111012280Y-129554702D01*
X111012280Y-129554702D01*
G37*
G36*
X109012280Y-129554702D02*
X109149097Y-129596204D01*
X109275184Y-129663600D01*
X109385701Y-129754299D01*
X109476400Y-129864816D01*
X109543796Y-129990903D01*
X109585298Y-130127720D01*
X109599311Y-130270000D01*
X109585298Y-130412280D01*
X109543796Y-130549097D01*
X109476400Y-130675184D01*
X109385701Y-130785701D01*
X109275184Y-130876400D01*
X109149097Y-130943796D01*
X109012280Y-130985298D01*
X108905651Y-130995800D01*
X108834349Y-130995800D01*
X108727720Y-130985298D01*
X108590903Y-130943796D01*
X108464816Y-130876400D01*
X108354299Y-130785701D01*
X108263600Y-130675184D01*
X108196204Y-130549097D01*
X108154702Y-130412280D01*
X108140689Y-130270000D01*
X108154702Y-130127720D01*
X108196204Y-129990903D01*
X108263600Y-129864816D01*
X108354299Y-129754299D01*
X108464816Y-129663600D01*
X108590903Y-129596204D01*
X108727720Y-129554702D01*
X108834349Y-129544200D01*
X108905651Y-129544200D01*
X109012280Y-129554702D01*
X109012280Y-129554702D01*
G37*
G36*
X107012280Y-129554702D02*
X107149097Y-129596204D01*
X107275184Y-129663600D01*
X107385701Y-129754299D01*
X107476400Y-129864816D01*
X107543796Y-129990903D01*
X107585298Y-130127720D01*
X107599311Y-130270000D01*
X107585298Y-130412280D01*
X107543796Y-130549097D01*
X107476400Y-130675184D01*
X107385701Y-130785701D01*
X107275184Y-130876400D01*
X107149097Y-130943796D01*
X107012280Y-130985298D01*
X106905651Y-130995800D01*
X106834349Y-130995800D01*
X106727720Y-130985298D01*
X106590903Y-130943796D01*
X106464816Y-130876400D01*
X106354299Y-130785701D01*
X106263600Y-130675184D01*
X106196204Y-130549097D01*
X106154702Y-130412280D01*
X106140689Y-130270000D01*
X106154702Y-130127720D01*
X106196204Y-129990903D01*
X106263600Y-129864816D01*
X106354299Y-129754299D01*
X106464816Y-129663600D01*
X106590903Y-129596204D01*
X106727720Y-129554702D01*
X106834349Y-129544200D01*
X106905651Y-129544200D01*
X107012280Y-129554702D01*
X107012280Y-129554702D01*
G37*
G36*
X105012280Y-129554702D02*
X105149097Y-129596204D01*
X105275184Y-129663600D01*
X105385701Y-129754299D01*
X105476400Y-129864816D01*
X105543796Y-129990903D01*
X105585298Y-130127720D01*
X105599311Y-130270000D01*
X105585298Y-130412280D01*
X105543796Y-130549097D01*
X105476400Y-130675184D01*
X105385701Y-130785701D01*
X105275184Y-130876400D01*
X105149097Y-130943796D01*
X105012280Y-130985298D01*
X104905651Y-130995800D01*
X104834349Y-130995800D01*
X104727720Y-130985298D01*
X104590903Y-130943796D01*
X104464816Y-130876400D01*
X104354299Y-130785701D01*
X104263600Y-130675184D01*
X104196204Y-130549097D01*
X104154702Y-130412280D01*
X104140689Y-130270000D01*
X104154702Y-130127720D01*
X104196204Y-129990903D01*
X104263600Y-129864816D01*
X104354299Y-129754299D01*
X104464816Y-129663600D01*
X104590903Y-129596204D01*
X104727720Y-129554702D01*
X104834349Y-129544200D01*
X104905651Y-129544200D01*
X105012280Y-129554702D01*
X105012280Y-129554702D01*
G37*
G36*
X123012280Y-129554702D02*
X123149097Y-129596204D01*
X123275184Y-129663600D01*
X123385701Y-129754299D01*
X123476400Y-129864816D01*
X123543796Y-129990903D01*
X123585298Y-130127720D01*
X123599311Y-130270000D01*
X123585298Y-130412280D01*
X123543796Y-130549097D01*
X123476400Y-130675184D01*
X123385701Y-130785701D01*
X123275184Y-130876400D01*
X123149097Y-130943796D01*
X123012280Y-130985298D01*
X122905651Y-130995800D01*
X122834349Y-130995800D01*
X122727720Y-130985298D01*
X122590903Y-130943796D01*
X122464816Y-130876400D01*
X122354299Y-130785701D01*
X122263600Y-130675184D01*
X122196204Y-130549097D01*
X122154702Y-130412280D01*
X122140689Y-130270000D01*
X122154702Y-130127720D01*
X122196204Y-129990903D01*
X122263600Y-129864816D01*
X122354299Y-129754299D01*
X122464816Y-129663600D01*
X122590903Y-129596204D01*
X122727720Y-129554702D01*
X122834349Y-129544200D01*
X122905651Y-129544200D01*
X123012280Y-129554702D01*
X123012280Y-129554702D01*
G37*
G36*
X143595800Y-130995800D02*
X142144200Y-130995800D01*
X142144200Y-129544200D01*
X143595800Y-129544200D01*
X143595800Y-130995800D01*
X143595800Y-130995800D01*
G37*
G36*
X147012280Y-127554702D02*
X147149097Y-127596204D01*
X147275184Y-127663600D01*
X147385701Y-127754299D01*
X147476400Y-127864816D01*
X147543796Y-127990903D01*
X147585298Y-128127720D01*
X147599311Y-128270000D01*
X147585298Y-128412280D01*
X147543796Y-128549097D01*
X147476400Y-128675184D01*
X147385701Y-128785701D01*
X147275184Y-128876400D01*
X147149097Y-128943796D01*
X147012280Y-128985298D01*
X146905651Y-128995800D01*
X146834349Y-128995800D01*
X146727720Y-128985298D01*
X146590903Y-128943796D01*
X146464816Y-128876400D01*
X146354299Y-128785701D01*
X146263600Y-128675184D01*
X146196204Y-128549097D01*
X146154702Y-128412280D01*
X146140689Y-128270000D01*
X146154702Y-128127720D01*
X146196204Y-127990903D01*
X146263600Y-127864816D01*
X146354299Y-127754299D01*
X146464816Y-127663600D01*
X146590903Y-127596204D01*
X146727720Y-127554702D01*
X146834349Y-127544200D01*
X146905651Y-127544200D01*
X147012280Y-127554702D01*
X147012280Y-127554702D01*
G37*
G36*
X101595800Y-128995800D02*
X100144200Y-128995800D01*
X100144200Y-127544200D01*
X101595800Y-127544200D01*
X101595800Y-128995800D01*
X101595800Y-128995800D01*
G37*
G36*
X103595800Y-128995800D02*
X102144200Y-128995800D01*
X102144200Y-127544200D01*
X103595800Y-127544200D01*
X103595800Y-128995800D01*
X103595800Y-128995800D01*
G37*
G36*
X145012280Y-127554702D02*
X145149097Y-127596204D01*
X145275184Y-127663600D01*
X145385701Y-127754299D01*
X145476400Y-127864816D01*
X145543796Y-127990903D01*
X145585298Y-128127720D01*
X145599311Y-128270000D01*
X145585298Y-128412280D01*
X145543796Y-128549097D01*
X145476400Y-128675184D01*
X145385701Y-128785701D01*
X145275184Y-128876400D01*
X145149097Y-128943796D01*
X145012280Y-128985298D01*
X144905651Y-128995800D01*
X144834349Y-128995800D01*
X144727720Y-128985298D01*
X144590903Y-128943796D01*
X144464816Y-128876400D01*
X144354299Y-128785701D01*
X144263600Y-128675184D01*
X144196204Y-128549097D01*
X144154702Y-128412280D01*
X144140689Y-128270000D01*
X144154702Y-128127720D01*
X144196204Y-127990903D01*
X144263600Y-127864816D01*
X144354299Y-127754299D01*
X144464816Y-127663600D01*
X144590903Y-127596204D01*
X144727720Y-127554702D01*
X144834349Y-127544200D01*
X144905651Y-127544200D01*
X145012280Y-127554702D01*
X145012280Y-127554702D01*
G37*
G36*
X147012280Y-125554702D02*
X147149097Y-125596204D01*
X147275184Y-125663600D01*
X147385701Y-125754299D01*
X147476400Y-125864816D01*
X147543796Y-125990903D01*
X147585298Y-126127720D01*
X147599311Y-126270000D01*
X147585298Y-126412280D01*
X147543796Y-126549097D01*
X147476400Y-126675184D01*
X147385701Y-126785701D01*
X147275184Y-126876400D01*
X147149097Y-126943796D01*
X147012280Y-126985298D01*
X146905651Y-126995800D01*
X146834349Y-126995800D01*
X146727720Y-126985298D01*
X146590903Y-126943796D01*
X146464816Y-126876400D01*
X146354299Y-126785701D01*
X146263600Y-126675184D01*
X146196204Y-126549097D01*
X146154702Y-126412280D01*
X146140689Y-126270000D01*
X146154702Y-126127720D01*
X146196204Y-125990903D01*
X146263600Y-125864816D01*
X146354299Y-125754299D01*
X146464816Y-125663600D01*
X146590903Y-125596204D01*
X146727720Y-125554702D01*
X146834349Y-125544200D01*
X146905651Y-125544200D01*
X147012280Y-125554702D01*
X147012280Y-125554702D01*
G37*
G36*
X101012280Y-125554702D02*
X101149097Y-125596204D01*
X101275184Y-125663600D01*
X101385701Y-125754299D01*
X101476400Y-125864816D01*
X101543796Y-125990903D01*
X101585298Y-126127720D01*
X101599311Y-126270000D01*
X101585298Y-126412280D01*
X101543796Y-126549097D01*
X101476400Y-126675184D01*
X101385701Y-126785701D01*
X101275184Y-126876400D01*
X101149097Y-126943796D01*
X101012280Y-126985298D01*
X100905651Y-126995800D01*
X100834349Y-126995800D01*
X100727720Y-126985298D01*
X100590903Y-126943796D01*
X100464816Y-126876400D01*
X100354299Y-126785701D01*
X100263600Y-126675184D01*
X100196204Y-126549097D01*
X100154702Y-126412280D01*
X100140689Y-126270000D01*
X100154702Y-126127720D01*
X100196204Y-125990903D01*
X100263600Y-125864816D01*
X100354299Y-125754299D01*
X100464816Y-125663600D01*
X100590903Y-125596204D01*
X100727720Y-125554702D01*
X100834349Y-125544200D01*
X100905651Y-125544200D01*
X101012280Y-125554702D01*
X101012280Y-125554702D01*
G37*
G36*
X103012280Y-125554702D02*
X103149097Y-125596204D01*
X103275184Y-125663600D01*
X103385701Y-125754299D01*
X103476400Y-125864816D01*
X103543796Y-125990903D01*
X103585298Y-126127720D01*
X103599311Y-126270000D01*
X103585298Y-126412280D01*
X103543796Y-126549097D01*
X103476400Y-126675184D01*
X103385701Y-126785701D01*
X103275184Y-126876400D01*
X103149097Y-126943796D01*
X103012280Y-126985298D01*
X102905651Y-126995800D01*
X102834349Y-126995800D01*
X102727720Y-126985298D01*
X102590903Y-126943796D01*
X102464816Y-126876400D01*
X102354299Y-126785701D01*
X102263600Y-126675184D01*
X102196204Y-126549097D01*
X102154702Y-126412280D01*
X102140689Y-126270000D01*
X102154702Y-126127720D01*
X102196204Y-125990903D01*
X102263600Y-125864816D01*
X102354299Y-125754299D01*
X102464816Y-125663600D01*
X102590903Y-125596204D01*
X102727720Y-125554702D01*
X102834349Y-125544200D01*
X102905651Y-125544200D01*
X103012280Y-125554702D01*
X103012280Y-125554702D01*
G37*
G36*
X145012280Y-125554702D02*
X145149097Y-125596204D01*
X145275184Y-125663600D01*
X145385701Y-125754299D01*
X145476400Y-125864816D01*
X145543796Y-125990903D01*
X145585298Y-126127720D01*
X145599311Y-126270000D01*
X145585298Y-126412280D01*
X145543796Y-126549097D01*
X145476400Y-126675184D01*
X145385701Y-126785701D01*
X145275184Y-126876400D01*
X145149097Y-126943796D01*
X145012280Y-126985298D01*
X144905651Y-126995800D01*
X144834349Y-126995800D01*
X144727720Y-126985298D01*
X144590903Y-126943796D01*
X144464816Y-126876400D01*
X144354299Y-126785701D01*
X144263600Y-126675184D01*
X144196204Y-126549097D01*
X144154702Y-126412280D01*
X144140689Y-126270000D01*
X144154702Y-126127720D01*
X144196204Y-125990903D01*
X144263600Y-125864816D01*
X144354299Y-125754299D01*
X144464816Y-125663600D01*
X144590903Y-125596204D01*
X144727720Y-125554702D01*
X144834349Y-125544200D01*
X144905651Y-125544200D01*
X145012280Y-125554702D01*
X145012280Y-125554702D01*
G37*
G36*
X103012280Y-123554702D02*
X103149097Y-123596204D01*
X103275184Y-123663600D01*
X103385701Y-123754299D01*
X103476400Y-123864816D01*
X103543796Y-123990903D01*
X103585298Y-124127720D01*
X103599311Y-124270000D01*
X103585298Y-124412280D01*
X103543796Y-124549097D01*
X103476400Y-124675184D01*
X103385701Y-124785701D01*
X103275184Y-124876400D01*
X103149097Y-124943796D01*
X103012280Y-124985298D01*
X102905651Y-124995800D01*
X102834349Y-124995800D01*
X102727720Y-124985298D01*
X102590903Y-124943796D01*
X102464816Y-124876400D01*
X102354299Y-124785701D01*
X102263600Y-124675184D01*
X102196204Y-124549097D01*
X102154702Y-124412280D01*
X102140689Y-124270000D01*
X102154702Y-124127720D01*
X102196204Y-123990903D01*
X102263600Y-123864816D01*
X102354299Y-123754299D01*
X102464816Y-123663600D01*
X102590903Y-123596204D01*
X102727720Y-123554702D01*
X102834349Y-123544200D01*
X102905651Y-123544200D01*
X103012280Y-123554702D01*
X103012280Y-123554702D01*
G37*
G36*
X145012280Y-123554702D02*
X145149097Y-123596204D01*
X145275184Y-123663600D01*
X145385701Y-123754299D01*
X145476400Y-123864816D01*
X145543796Y-123990903D01*
X145585298Y-124127720D01*
X145599311Y-124270000D01*
X145585298Y-124412280D01*
X145543796Y-124549097D01*
X145476400Y-124675184D01*
X145385701Y-124785701D01*
X145275184Y-124876400D01*
X145149097Y-124943796D01*
X145012280Y-124985298D01*
X144905651Y-124995800D01*
X144834349Y-124995800D01*
X144727720Y-124985298D01*
X144590903Y-124943796D01*
X144464816Y-124876400D01*
X144354299Y-124785701D01*
X144263600Y-124675184D01*
X144196204Y-124549097D01*
X144154702Y-124412280D01*
X144140689Y-124270000D01*
X144154702Y-124127720D01*
X144196204Y-123990903D01*
X144263600Y-123864816D01*
X144354299Y-123754299D01*
X144464816Y-123663600D01*
X144590903Y-123596204D01*
X144727720Y-123554702D01*
X144834349Y-123544200D01*
X144905651Y-123544200D01*
X145012280Y-123554702D01*
X145012280Y-123554702D01*
G37*
G36*
X147012280Y-123554702D02*
X147149097Y-123596204D01*
X147275184Y-123663600D01*
X147385701Y-123754299D01*
X147476400Y-123864816D01*
X147543796Y-123990903D01*
X147585298Y-124127720D01*
X147599311Y-124270000D01*
X147585298Y-124412280D01*
X147543796Y-124549097D01*
X147476400Y-124675184D01*
X147385701Y-124785701D01*
X147275184Y-124876400D01*
X147149097Y-124943796D01*
X147012280Y-124985298D01*
X146905651Y-124995800D01*
X146834349Y-124995800D01*
X146727720Y-124985298D01*
X146590903Y-124943796D01*
X146464816Y-124876400D01*
X146354299Y-124785701D01*
X146263600Y-124675184D01*
X146196204Y-124549097D01*
X146154702Y-124412280D01*
X146140689Y-124270000D01*
X146154702Y-124127720D01*
X146196204Y-123990903D01*
X146263600Y-123864816D01*
X146354299Y-123754299D01*
X146464816Y-123663600D01*
X146590903Y-123596204D01*
X146727720Y-123554702D01*
X146834349Y-123544200D01*
X146905651Y-123544200D01*
X147012280Y-123554702D01*
X147012280Y-123554702D01*
G37*
G36*
X101012280Y-123554702D02*
X101149097Y-123596204D01*
X101275184Y-123663600D01*
X101385701Y-123754299D01*
X101476400Y-123864816D01*
X101543796Y-123990903D01*
X101585298Y-124127720D01*
X101599311Y-124270000D01*
X101585298Y-124412280D01*
X101543796Y-124549097D01*
X101476400Y-124675184D01*
X101385701Y-124785701D01*
X101275184Y-124876400D01*
X101149097Y-124943796D01*
X101012280Y-124985298D01*
X100905651Y-124995800D01*
X100834349Y-124995800D01*
X100727720Y-124985298D01*
X100590903Y-124943796D01*
X100464816Y-124876400D01*
X100354299Y-124785701D01*
X100263600Y-124675184D01*
X100196204Y-124549097D01*
X100154702Y-124412280D01*
X100140689Y-124270000D01*
X100154702Y-124127720D01*
X100196204Y-123990903D01*
X100263600Y-123864816D01*
X100354299Y-123754299D01*
X100464816Y-123663600D01*
X100590903Y-123596204D01*
X100727720Y-123554702D01*
X100834349Y-123544200D01*
X100905651Y-123544200D01*
X101012280Y-123554702D01*
X101012280Y-123554702D01*
G37*
G36*
X101012280Y-121554702D02*
X101149097Y-121596204D01*
X101275184Y-121663600D01*
X101385701Y-121754299D01*
X101476400Y-121864816D01*
X101543796Y-121990903D01*
X101585298Y-122127720D01*
X101599311Y-122270000D01*
X101585298Y-122412280D01*
X101543796Y-122549097D01*
X101476400Y-122675184D01*
X101385701Y-122785701D01*
X101275184Y-122876400D01*
X101149097Y-122943796D01*
X101012280Y-122985298D01*
X100905651Y-122995800D01*
X100834349Y-122995800D01*
X100727720Y-122985298D01*
X100590903Y-122943796D01*
X100464816Y-122876400D01*
X100354299Y-122785701D01*
X100263600Y-122675184D01*
X100196204Y-122549097D01*
X100154702Y-122412280D01*
X100140689Y-122270000D01*
X100154702Y-122127720D01*
X100196204Y-121990903D01*
X100263600Y-121864816D01*
X100354299Y-121754299D01*
X100464816Y-121663600D01*
X100590903Y-121596204D01*
X100727720Y-121554702D01*
X100834349Y-121544200D01*
X100905651Y-121544200D01*
X101012280Y-121554702D01*
X101012280Y-121554702D01*
G37*
G36*
X147012280Y-121554702D02*
X147149097Y-121596204D01*
X147275184Y-121663600D01*
X147385701Y-121754299D01*
X147476400Y-121864816D01*
X147543796Y-121990903D01*
X147585298Y-122127720D01*
X147599311Y-122270000D01*
X147585298Y-122412280D01*
X147543796Y-122549097D01*
X147476400Y-122675184D01*
X147385701Y-122785701D01*
X147275184Y-122876400D01*
X147149097Y-122943796D01*
X147012280Y-122985298D01*
X146905651Y-122995800D01*
X146834349Y-122995800D01*
X146727720Y-122985298D01*
X146590903Y-122943796D01*
X146464816Y-122876400D01*
X146354299Y-122785701D01*
X146263600Y-122675184D01*
X146196204Y-122549097D01*
X146154702Y-122412280D01*
X146140689Y-122270000D01*
X146154702Y-122127720D01*
X146196204Y-121990903D01*
X146263600Y-121864816D01*
X146354299Y-121754299D01*
X146464816Y-121663600D01*
X146590903Y-121596204D01*
X146727720Y-121554702D01*
X146834349Y-121544200D01*
X146905651Y-121544200D01*
X147012280Y-121554702D01*
X147012280Y-121554702D01*
G37*
G36*
X103012280Y-121554702D02*
X103149097Y-121596204D01*
X103275184Y-121663600D01*
X103385701Y-121754299D01*
X103476400Y-121864816D01*
X103543796Y-121990903D01*
X103585298Y-122127720D01*
X103599311Y-122270000D01*
X103585298Y-122412280D01*
X103543796Y-122549097D01*
X103476400Y-122675184D01*
X103385701Y-122785701D01*
X103275184Y-122876400D01*
X103149097Y-122943796D01*
X103012280Y-122985298D01*
X102905651Y-122995800D01*
X102834349Y-122995800D01*
X102727720Y-122985298D01*
X102590903Y-122943796D01*
X102464816Y-122876400D01*
X102354299Y-122785701D01*
X102263600Y-122675184D01*
X102196204Y-122549097D01*
X102154702Y-122412280D01*
X102140689Y-122270000D01*
X102154702Y-122127720D01*
X102196204Y-121990903D01*
X102263600Y-121864816D01*
X102354299Y-121754299D01*
X102464816Y-121663600D01*
X102590903Y-121596204D01*
X102727720Y-121554702D01*
X102834349Y-121544200D01*
X102905651Y-121544200D01*
X103012280Y-121554702D01*
X103012280Y-121554702D01*
G37*
G36*
X145012280Y-121554702D02*
X145149097Y-121596204D01*
X145275184Y-121663600D01*
X145385701Y-121754299D01*
X145476400Y-121864816D01*
X145543796Y-121990903D01*
X145585298Y-122127720D01*
X145599311Y-122270000D01*
X145585298Y-122412280D01*
X145543796Y-122549097D01*
X145476400Y-122675184D01*
X145385701Y-122785701D01*
X145275184Y-122876400D01*
X145149097Y-122943796D01*
X145012280Y-122985298D01*
X144905651Y-122995800D01*
X144834349Y-122995800D01*
X144727720Y-122985298D01*
X144590903Y-122943796D01*
X144464816Y-122876400D01*
X144354299Y-122785701D01*
X144263600Y-122675184D01*
X144196204Y-122549097D01*
X144154702Y-122412280D01*
X144140689Y-122270000D01*
X144154702Y-122127720D01*
X144196204Y-121990903D01*
X144263600Y-121864816D01*
X144354299Y-121754299D01*
X144464816Y-121663600D01*
X144590903Y-121596204D01*
X144727720Y-121554702D01*
X144834349Y-121544200D01*
X144905651Y-121544200D01*
X145012280Y-121554702D01*
X145012280Y-121554702D01*
G37*
G36*
X110904662Y-121263367D02*
X111004902Y-121304887D01*
X111050008Y-121335027D01*
X111095112Y-121365164D01*
X111171836Y-121441888D01*
X111201973Y-121486992D01*
X111232113Y-121532098D01*
X111273633Y-121632338D01*
X111294800Y-121738751D01*
X111294800Y-121847249D01*
X111273633Y-121953662D01*
X111232113Y-122053902D01*
X111201973Y-122099008D01*
X111171836Y-122144112D01*
X111095112Y-122220836D01*
X111050008Y-122250974D01*
X111004902Y-122281113D01*
X110904662Y-122322633D01*
X110798249Y-122343800D01*
X110689751Y-122343800D01*
X110583338Y-122322633D01*
X110483098Y-122281113D01*
X110437992Y-122250973D01*
X110392888Y-122220836D01*
X110316164Y-122144112D01*
X110286027Y-122099008D01*
X110255887Y-122053902D01*
X110214367Y-121953662D01*
X110193200Y-121847249D01*
X110193200Y-121738751D01*
X110214367Y-121632338D01*
X110255887Y-121532098D01*
X110286027Y-121486992D01*
X110316164Y-121441888D01*
X110392888Y-121365164D01*
X110437992Y-121335026D01*
X110483098Y-121304887D01*
X110583338Y-121263367D01*
X110689751Y-121242200D01*
X110798249Y-121242200D01*
X110904662Y-121263367D01*
X110904662Y-121263367D01*
G37*
G36*
X103012280Y-119554702D02*
X103149097Y-119596204D01*
X103275184Y-119663600D01*
X103385701Y-119754299D01*
X103476400Y-119864816D01*
X103543796Y-119990903D01*
X103585298Y-120127720D01*
X103599311Y-120270000D01*
X103585298Y-120412280D01*
X103543796Y-120549097D01*
X103476400Y-120675184D01*
X103385701Y-120785701D01*
X103275184Y-120876400D01*
X103149097Y-120943796D01*
X103012280Y-120985298D01*
X102905651Y-120995800D01*
X102834349Y-120995800D01*
X102727720Y-120985298D01*
X102590903Y-120943796D01*
X102464816Y-120876400D01*
X102354299Y-120785701D01*
X102263600Y-120675184D01*
X102196204Y-120549097D01*
X102154702Y-120412280D01*
X102140689Y-120270000D01*
X102154702Y-120127720D01*
X102196204Y-119990903D01*
X102263600Y-119864816D01*
X102354299Y-119754299D01*
X102464816Y-119663600D01*
X102590903Y-119596204D01*
X102727720Y-119554702D01*
X102834349Y-119544200D01*
X102905651Y-119544200D01*
X103012280Y-119554702D01*
X103012280Y-119554702D01*
G37*
G36*
X101012280Y-119554702D02*
X101149097Y-119596204D01*
X101275184Y-119663600D01*
X101385701Y-119754299D01*
X101476400Y-119864816D01*
X101543796Y-119990903D01*
X101585298Y-120127720D01*
X101599311Y-120270000D01*
X101585298Y-120412280D01*
X101543796Y-120549097D01*
X101476400Y-120675184D01*
X101385701Y-120785701D01*
X101275184Y-120876400D01*
X101149097Y-120943796D01*
X101012280Y-120985298D01*
X100905651Y-120995800D01*
X100834349Y-120995800D01*
X100727720Y-120985298D01*
X100590903Y-120943796D01*
X100464816Y-120876400D01*
X100354299Y-120785701D01*
X100263600Y-120675184D01*
X100196204Y-120549097D01*
X100154702Y-120412280D01*
X100140689Y-120270000D01*
X100154702Y-120127720D01*
X100196204Y-119990903D01*
X100263600Y-119864816D01*
X100354299Y-119754299D01*
X100464816Y-119663600D01*
X100590903Y-119596204D01*
X100727720Y-119554702D01*
X100834349Y-119544200D01*
X100905651Y-119544200D01*
X101012280Y-119554702D01*
X101012280Y-119554702D01*
G37*
G36*
X145012280Y-119554702D02*
X145149097Y-119596204D01*
X145275184Y-119663600D01*
X145385701Y-119754299D01*
X145476400Y-119864816D01*
X145543796Y-119990903D01*
X145585298Y-120127720D01*
X145599311Y-120270000D01*
X145585298Y-120412280D01*
X145543796Y-120549097D01*
X145476400Y-120675184D01*
X145385701Y-120785701D01*
X145275184Y-120876400D01*
X145149097Y-120943796D01*
X145012280Y-120985298D01*
X144905651Y-120995800D01*
X144834349Y-120995800D01*
X144727720Y-120985298D01*
X144590903Y-120943796D01*
X144464816Y-120876400D01*
X144354299Y-120785701D01*
X144263600Y-120675184D01*
X144196204Y-120549097D01*
X144154702Y-120412280D01*
X144140689Y-120270000D01*
X144154702Y-120127720D01*
X144196204Y-119990903D01*
X144263600Y-119864816D01*
X144354299Y-119754299D01*
X144464816Y-119663600D01*
X144590903Y-119596204D01*
X144727720Y-119554702D01*
X144834349Y-119544200D01*
X144905651Y-119544200D01*
X145012280Y-119554702D01*
X145012280Y-119554702D01*
G37*
G36*
X147012280Y-119554702D02*
X147149097Y-119596204D01*
X147275184Y-119663600D01*
X147385701Y-119754299D01*
X147476400Y-119864816D01*
X147543796Y-119990903D01*
X147585298Y-120127720D01*
X147599311Y-120270000D01*
X147585298Y-120412280D01*
X147543796Y-120549097D01*
X147476400Y-120675184D01*
X147385701Y-120785701D01*
X147275184Y-120876400D01*
X147149097Y-120943796D01*
X147012280Y-120985298D01*
X146905651Y-120995800D01*
X146834349Y-120995800D01*
X146727720Y-120985298D01*
X146590903Y-120943796D01*
X146464816Y-120876400D01*
X146354299Y-120785701D01*
X146263600Y-120675184D01*
X146196204Y-120549097D01*
X146154702Y-120412280D01*
X146140689Y-120270000D01*
X146154702Y-120127720D01*
X146196204Y-119990903D01*
X146263600Y-119864816D01*
X146354299Y-119754299D01*
X146464816Y-119663600D01*
X146590903Y-119596204D01*
X146727720Y-119554702D01*
X146834349Y-119544200D01*
X146905651Y-119544200D01*
X147012280Y-119554702D01*
X147012280Y-119554702D01*
G37*
G36*
X147012280Y-117554702D02*
X147149097Y-117596204D01*
X147275184Y-117663600D01*
X147385701Y-117754299D01*
X147476400Y-117864816D01*
X147543796Y-117990903D01*
X147585298Y-118127720D01*
X147599311Y-118270000D01*
X147585298Y-118412280D01*
X147543796Y-118549097D01*
X147476400Y-118675184D01*
X147385701Y-118785701D01*
X147275184Y-118876400D01*
X147149097Y-118943796D01*
X147012280Y-118985298D01*
X146905651Y-118995800D01*
X146834349Y-118995800D01*
X146727720Y-118985298D01*
X146590903Y-118943796D01*
X146464816Y-118876400D01*
X146354299Y-118785701D01*
X146263600Y-118675184D01*
X146196204Y-118549097D01*
X146154702Y-118412280D01*
X146140689Y-118270000D01*
X146154702Y-118127720D01*
X146196204Y-117990903D01*
X146263600Y-117864816D01*
X146354299Y-117754299D01*
X146464816Y-117663600D01*
X146590903Y-117596204D01*
X146727720Y-117554702D01*
X146834349Y-117544200D01*
X146905651Y-117544200D01*
X147012280Y-117554702D01*
X147012280Y-117554702D01*
G37*
G36*
X145012280Y-117554702D02*
X145149097Y-117596204D01*
X145275184Y-117663600D01*
X145385701Y-117754299D01*
X145476400Y-117864816D01*
X145543796Y-117990903D01*
X145585298Y-118127720D01*
X145599311Y-118270000D01*
X145585298Y-118412280D01*
X145543796Y-118549097D01*
X145476400Y-118675184D01*
X145385701Y-118785701D01*
X145275184Y-118876400D01*
X145149097Y-118943796D01*
X145012280Y-118985298D01*
X144905651Y-118995800D01*
X144834349Y-118995800D01*
X144727720Y-118985298D01*
X144590903Y-118943796D01*
X144464816Y-118876400D01*
X144354299Y-118785701D01*
X144263600Y-118675184D01*
X144196204Y-118549097D01*
X144154702Y-118412280D01*
X144140689Y-118270000D01*
X144154702Y-118127720D01*
X144196204Y-117990903D01*
X144263600Y-117864816D01*
X144354299Y-117754299D01*
X144464816Y-117663600D01*
X144590903Y-117596204D01*
X144727720Y-117554702D01*
X144834349Y-117544200D01*
X144905651Y-117544200D01*
X145012280Y-117554702D01*
X145012280Y-117554702D01*
G37*
G36*
X103012280Y-117554702D02*
X103149097Y-117596204D01*
X103275184Y-117663600D01*
X103385701Y-117754299D01*
X103476400Y-117864816D01*
X103543796Y-117990903D01*
X103585298Y-118127720D01*
X103599311Y-118270000D01*
X103585298Y-118412280D01*
X103543796Y-118549097D01*
X103476400Y-118675184D01*
X103385701Y-118785701D01*
X103275184Y-118876400D01*
X103149097Y-118943796D01*
X103012280Y-118985298D01*
X102905651Y-118995800D01*
X102834349Y-118995800D01*
X102727720Y-118985298D01*
X102590903Y-118943796D01*
X102464816Y-118876400D01*
X102354299Y-118785701D01*
X102263600Y-118675184D01*
X102196204Y-118549097D01*
X102154702Y-118412280D01*
X102140689Y-118270000D01*
X102154702Y-118127720D01*
X102196204Y-117990903D01*
X102263600Y-117864816D01*
X102354299Y-117754299D01*
X102464816Y-117663600D01*
X102590903Y-117596204D01*
X102727720Y-117554702D01*
X102834349Y-117544200D01*
X102905651Y-117544200D01*
X103012280Y-117554702D01*
X103012280Y-117554702D01*
G37*
G36*
X101012280Y-117554702D02*
X101149097Y-117596204D01*
X101275184Y-117663600D01*
X101385701Y-117754299D01*
X101476400Y-117864816D01*
X101543796Y-117990903D01*
X101585298Y-118127720D01*
X101599311Y-118270000D01*
X101585298Y-118412280D01*
X101543796Y-118549097D01*
X101476400Y-118675184D01*
X101385701Y-118785701D01*
X101275184Y-118876400D01*
X101149097Y-118943796D01*
X101012280Y-118985298D01*
X100905651Y-118995800D01*
X100834349Y-118995800D01*
X100727720Y-118985298D01*
X100590903Y-118943796D01*
X100464816Y-118876400D01*
X100354299Y-118785701D01*
X100263600Y-118675184D01*
X100196204Y-118549097D01*
X100154702Y-118412280D01*
X100140689Y-118270000D01*
X100154702Y-118127720D01*
X100196204Y-117990903D01*
X100263600Y-117864816D01*
X100354299Y-117754299D01*
X100464816Y-117663600D01*
X100590903Y-117596204D01*
X100727720Y-117554702D01*
X100834349Y-117544200D01*
X100905651Y-117544200D01*
X101012280Y-117554702D01*
X101012280Y-117554702D01*
G37*
G36*
X101012280Y-115554702D02*
X101149097Y-115596204D01*
X101275184Y-115663600D01*
X101385701Y-115754299D01*
X101476400Y-115864816D01*
X101543796Y-115990903D01*
X101585298Y-116127720D01*
X101599311Y-116270000D01*
X101585298Y-116412280D01*
X101543796Y-116549097D01*
X101476400Y-116675184D01*
X101385701Y-116785701D01*
X101275184Y-116876400D01*
X101149097Y-116943796D01*
X101012280Y-116985298D01*
X100905651Y-116995800D01*
X100834349Y-116995800D01*
X100727720Y-116985298D01*
X100590903Y-116943796D01*
X100464816Y-116876400D01*
X100354299Y-116785701D01*
X100263600Y-116675184D01*
X100196204Y-116549097D01*
X100154702Y-116412280D01*
X100140689Y-116270000D01*
X100154702Y-116127720D01*
X100196204Y-115990903D01*
X100263600Y-115864816D01*
X100354299Y-115754299D01*
X100464816Y-115663600D01*
X100590903Y-115596204D01*
X100727720Y-115554702D01*
X100834349Y-115544200D01*
X100905651Y-115544200D01*
X101012280Y-115554702D01*
X101012280Y-115554702D01*
G37*
G36*
X103012280Y-115554702D02*
X103149097Y-115596204D01*
X103275184Y-115663600D01*
X103385701Y-115754299D01*
X103476400Y-115864816D01*
X103543796Y-115990903D01*
X103585298Y-116127720D01*
X103599311Y-116270000D01*
X103585298Y-116412280D01*
X103543796Y-116549097D01*
X103476400Y-116675184D01*
X103385701Y-116785701D01*
X103275184Y-116876400D01*
X103149097Y-116943796D01*
X103012280Y-116985298D01*
X102905651Y-116995800D01*
X102834349Y-116995800D01*
X102727720Y-116985298D01*
X102590903Y-116943796D01*
X102464816Y-116876400D01*
X102354299Y-116785701D01*
X102263600Y-116675184D01*
X102196204Y-116549097D01*
X102154702Y-116412280D01*
X102140689Y-116270000D01*
X102154702Y-116127720D01*
X102196204Y-115990903D01*
X102263600Y-115864816D01*
X102354299Y-115754299D01*
X102464816Y-115663600D01*
X102590903Y-115596204D01*
X102727720Y-115554702D01*
X102834349Y-115544200D01*
X102905651Y-115544200D01*
X103012280Y-115554702D01*
X103012280Y-115554702D01*
G37*
G36*
X147012280Y-115554702D02*
X147149097Y-115596204D01*
X147275184Y-115663600D01*
X147385701Y-115754299D01*
X147476400Y-115864816D01*
X147543796Y-115990903D01*
X147585298Y-116127720D01*
X147599311Y-116270000D01*
X147585298Y-116412280D01*
X147543796Y-116549097D01*
X147476400Y-116675184D01*
X147385701Y-116785701D01*
X147275184Y-116876400D01*
X147149097Y-116943796D01*
X147012280Y-116985298D01*
X146905651Y-116995800D01*
X146834349Y-116995800D01*
X146727720Y-116985298D01*
X146590903Y-116943796D01*
X146464816Y-116876400D01*
X146354299Y-116785701D01*
X146263600Y-116675184D01*
X146196204Y-116549097D01*
X146154702Y-116412280D01*
X146140689Y-116270000D01*
X146154702Y-116127720D01*
X146196204Y-115990903D01*
X146263600Y-115864816D01*
X146354299Y-115754299D01*
X146464816Y-115663600D01*
X146590903Y-115596204D01*
X146727720Y-115554702D01*
X146834349Y-115544200D01*
X146905651Y-115544200D01*
X147012280Y-115554702D01*
X147012280Y-115554702D01*
G37*
G36*
X145012280Y-115554702D02*
X145149097Y-115596204D01*
X145275184Y-115663600D01*
X145385701Y-115754299D01*
X145476400Y-115864816D01*
X145543796Y-115990903D01*
X145585298Y-116127720D01*
X145599311Y-116270000D01*
X145585298Y-116412280D01*
X145543796Y-116549097D01*
X145476400Y-116675184D01*
X145385701Y-116785701D01*
X145275184Y-116876400D01*
X145149097Y-116943796D01*
X145012280Y-116985298D01*
X144905651Y-116995800D01*
X144834349Y-116995800D01*
X144727720Y-116985298D01*
X144590903Y-116943796D01*
X144464816Y-116876400D01*
X144354299Y-116785701D01*
X144263600Y-116675184D01*
X144196204Y-116549097D01*
X144154702Y-116412280D01*
X144140689Y-116270000D01*
X144154702Y-116127720D01*
X144196204Y-115990903D01*
X144263600Y-115864816D01*
X144354299Y-115754299D01*
X144464816Y-115663600D01*
X144590903Y-115596204D01*
X144727720Y-115554702D01*
X144834349Y-115544200D01*
X144905651Y-115544200D01*
X145012280Y-115554702D01*
X145012280Y-115554702D01*
G37*
G36*
X145012280Y-113554702D02*
X145149097Y-113596204D01*
X145275184Y-113663600D01*
X145385701Y-113754299D01*
X145476400Y-113864816D01*
X145543796Y-113990903D01*
X145585298Y-114127720D01*
X145599311Y-114270000D01*
X145585298Y-114412280D01*
X145543796Y-114549097D01*
X145476400Y-114675184D01*
X145385701Y-114785701D01*
X145275184Y-114876400D01*
X145149097Y-114943796D01*
X145012280Y-114985298D01*
X144905651Y-114995800D01*
X144834349Y-114995800D01*
X144727720Y-114985298D01*
X144590903Y-114943796D01*
X144464816Y-114876400D01*
X144354299Y-114785701D01*
X144263600Y-114675184D01*
X144196204Y-114549097D01*
X144154702Y-114412280D01*
X144140689Y-114270000D01*
X144154702Y-114127720D01*
X144196204Y-113990903D01*
X144263600Y-113864816D01*
X144354299Y-113754299D01*
X144464816Y-113663600D01*
X144590903Y-113596204D01*
X144727720Y-113554702D01*
X144834349Y-113544200D01*
X144905651Y-113544200D01*
X145012280Y-113554702D01*
X145012280Y-113554702D01*
G37*
G36*
X147012280Y-113554702D02*
X147149097Y-113596204D01*
X147275184Y-113663600D01*
X147385701Y-113754299D01*
X147476400Y-113864816D01*
X147543796Y-113990903D01*
X147585298Y-114127720D01*
X147599311Y-114270000D01*
X147585298Y-114412280D01*
X147543796Y-114549097D01*
X147476400Y-114675184D01*
X147385701Y-114785701D01*
X147275184Y-114876400D01*
X147149097Y-114943796D01*
X147012280Y-114985298D01*
X146905651Y-114995800D01*
X146834349Y-114995800D01*
X146727720Y-114985298D01*
X146590903Y-114943796D01*
X146464816Y-114876400D01*
X146354299Y-114785701D01*
X146263600Y-114675184D01*
X146196204Y-114549097D01*
X146154702Y-114412280D01*
X146140689Y-114270000D01*
X146154702Y-114127720D01*
X146196204Y-113990903D01*
X146263600Y-113864816D01*
X146354299Y-113754299D01*
X146464816Y-113663600D01*
X146590903Y-113596204D01*
X146727720Y-113554702D01*
X146834349Y-113544200D01*
X146905651Y-113544200D01*
X147012280Y-113554702D01*
X147012280Y-113554702D01*
G37*
G36*
X103012280Y-113554702D02*
X103149097Y-113596204D01*
X103275184Y-113663600D01*
X103385701Y-113754299D01*
X103476400Y-113864816D01*
X103543796Y-113990903D01*
X103585298Y-114127720D01*
X103599311Y-114270000D01*
X103585298Y-114412280D01*
X103543796Y-114549097D01*
X103476400Y-114675184D01*
X103385701Y-114785701D01*
X103275184Y-114876400D01*
X103149097Y-114943796D01*
X103012280Y-114985298D01*
X102905651Y-114995800D01*
X102834349Y-114995800D01*
X102727720Y-114985298D01*
X102590903Y-114943796D01*
X102464816Y-114876400D01*
X102354299Y-114785701D01*
X102263600Y-114675184D01*
X102196204Y-114549097D01*
X102154702Y-114412280D01*
X102140689Y-114270000D01*
X102154702Y-114127720D01*
X102196204Y-113990903D01*
X102263600Y-113864816D01*
X102354299Y-113754299D01*
X102464816Y-113663600D01*
X102590903Y-113596204D01*
X102727720Y-113554702D01*
X102834349Y-113544200D01*
X102905651Y-113544200D01*
X103012280Y-113554702D01*
X103012280Y-113554702D01*
G37*
G36*
X101012280Y-113554702D02*
X101149097Y-113596204D01*
X101275184Y-113663600D01*
X101385701Y-113754299D01*
X101476400Y-113864816D01*
X101543796Y-113990903D01*
X101585298Y-114127720D01*
X101599311Y-114270000D01*
X101585298Y-114412280D01*
X101543796Y-114549097D01*
X101476400Y-114675184D01*
X101385701Y-114785701D01*
X101275184Y-114876400D01*
X101149097Y-114943796D01*
X101012280Y-114985298D01*
X100905651Y-114995800D01*
X100834349Y-114995800D01*
X100727720Y-114985298D01*
X100590903Y-114943796D01*
X100464816Y-114876400D01*
X100354299Y-114785701D01*
X100263600Y-114675184D01*
X100196204Y-114549097D01*
X100154702Y-114412280D01*
X100140689Y-114270000D01*
X100154702Y-114127720D01*
X100196204Y-113990903D01*
X100263600Y-113864816D01*
X100354299Y-113754299D01*
X100464816Y-113663600D01*
X100590903Y-113596204D01*
X100727720Y-113554702D01*
X100834349Y-113544200D01*
X100905651Y-113544200D01*
X101012280Y-113554702D01*
X101012280Y-113554702D01*
G37*
G36*
X101012280Y-111554702D02*
X101149097Y-111596204D01*
X101275184Y-111663600D01*
X101385701Y-111754299D01*
X101476400Y-111864816D01*
X101543796Y-111990903D01*
X101585298Y-112127720D01*
X101599311Y-112270000D01*
X101585298Y-112412280D01*
X101543796Y-112549097D01*
X101476400Y-112675184D01*
X101385701Y-112785701D01*
X101275184Y-112876400D01*
X101149097Y-112943796D01*
X101012280Y-112985298D01*
X100905651Y-112995800D01*
X100834349Y-112995800D01*
X100727720Y-112985298D01*
X100590903Y-112943796D01*
X100464816Y-112876400D01*
X100354299Y-112785701D01*
X100263600Y-112675184D01*
X100196204Y-112549097D01*
X100154702Y-112412280D01*
X100140689Y-112270000D01*
X100154702Y-112127720D01*
X100196204Y-111990903D01*
X100263600Y-111864816D01*
X100354299Y-111754299D01*
X100464816Y-111663600D01*
X100590903Y-111596204D01*
X100727720Y-111554702D01*
X100834349Y-111544200D01*
X100905651Y-111544200D01*
X101012280Y-111554702D01*
X101012280Y-111554702D01*
G37*
G36*
X147012280Y-111554702D02*
X147149097Y-111596204D01*
X147275184Y-111663600D01*
X147385701Y-111754299D01*
X147476400Y-111864816D01*
X147543796Y-111990903D01*
X147585298Y-112127720D01*
X147599311Y-112270000D01*
X147585298Y-112412280D01*
X147543796Y-112549097D01*
X147476400Y-112675184D01*
X147385701Y-112785701D01*
X147275184Y-112876400D01*
X147149097Y-112943796D01*
X147012280Y-112985298D01*
X146905651Y-112995800D01*
X146834349Y-112995800D01*
X146727720Y-112985298D01*
X146590903Y-112943796D01*
X146464816Y-112876400D01*
X146354299Y-112785701D01*
X146263600Y-112675184D01*
X146196204Y-112549097D01*
X146154702Y-112412280D01*
X146140689Y-112270000D01*
X146154702Y-112127720D01*
X146196204Y-111990903D01*
X146263600Y-111864816D01*
X146354299Y-111754299D01*
X146464816Y-111663600D01*
X146590903Y-111596204D01*
X146727720Y-111554702D01*
X146834349Y-111544200D01*
X146905651Y-111544200D01*
X147012280Y-111554702D01*
X147012280Y-111554702D01*
G37*
G36*
X103012280Y-111554702D02*
X103149097Y-111596204D01*
X103275184Y-111663600D01*
X103385701Y-111754299D01*
X103476400Y-111864816D01*
X103543796Y-111990903D01*
X103585298Y-112127720D01*
X103599311Y-112270000D01*
X103585298Y-112412280D01*
X103543796Y-112549097D01*
X103476400Y-112675184D01*
X103385701Y-112785701D01*
X103275184Y-112876400D01*
X103149097Y-112943796D01*
X103012280Y-112985298D01*
X102905651Y-112995800D01*
X102834349Y-112995800D01*
X102727720Y-112985298D01*
X102590903Y-112943796D01*
X102464816Y-112876400D01*
X102354299Y-112785701D01*
X102263600Y-112675184D01*
X102196204Y-112549097D01*
X102154702Y-112412280D01*
X102140689Y-112270000D01*
X102154702Y-112127720D01*
X102196204Y-111990903D01*
X102263600Y-111864816D01*
X102354299Y-111754299D01*
X102464816Y-111663600D01*
X102590903Y-111596204D01*
X102727720Y-111554702D01*
X102834349Y-111544200D01*
X102905651Y-111544200D01*
X103012280Y-111554702D01*
X103012280Y-111554702D01*
G37*
G36*
X145012280Y-111554702D02*
X145149097Y-111596204D01*
X145275184Y-111663600D01*
X145385701Y-111754299D01*
X145476400Y-111864816D01*
X145543796Y-111990903D01*
X145585298Y-112127720D01*
X145599311Y-112270000D01*
X145585298Y-112412280D01*
X145543796Y-112549097D01*
X145476400Y-112675184D01*
X145385701Y-112785701D01*
X145275184Y-112876400D01*
X145149097Y-112943796D01*
X145012280Y-112985298D01*
X144905651Y-112995800D01*
X144834349Y-112995800D01*
X144727720Y-112985298D01*
X144590903Y-112943796D01*
X144464816Y-112876400D01*
X144354299Y-112785701D01*
X144263600Y-112675184D01*
X144196204Y-112549097D01*
X144154702Y-112412280D01*
X144140689Y-112270000D01*
X144154702Y-112127720D01*
X144196204Y-111990903D01*
X144263600Y-111864816D01*
X144354299Y-111754299D01*
X144464816Y-111663600D01*
X144590903Y-111596204D01*
X144727720Y-111554702D01*
X144834349Y-111544200D01*
X144905651Y-111544200D01*
X145012280Y-111554702D01*
X145012280Y-111554702D01*
G37*
G36*
X112454062Y-111052567D02*
X112554302Y-111094087D01*
X112599408Y-111124226D01*
X112644512Y-111154364D01*
X112721236Y-111231088D01*
X112751374Y-111276192D01*
X112781513Y-111321298D01*
X112823033Y-111421538D01*
X112844200Y-111527951D01*
X112844200Y-111636449D01*
X112823033Y-111742862D01*
X112781513Y-111843102D01*
X112767004Y-111864816D01*
X112721236Y-111933312D01*
X112644512Y-112010036D01*
X112599408Y-112040173D01*
X112554302Y-112070313D01*
X112454062Y-112111833D01*
X112347649Y-112133000D01*
X112239151Y-112133000D01*
X112132738Y-112111833D01*
X112032498Y-112070313D01*
X111987392Y-112040174D01*
X111942288Y-112010036D01*
X111865564Y-111933312D01*
X111819796Y-111864816D01*
X111805287Y-111843102D01*
X111763767Y-111742862D01*
X111742600Y-111636449D01*
X111742600Y-111527951D01*
X111763767Y-111421538D01*
X111805287Y-111321298D01*
X111835426Y-111276192D01*
X111865564Y-111231088D01*
X111942288Y-111154364D01*
X111987392Y-111124226D01*
X112032498Y-111094087D01*
X112132738Y-111052567D01*
X112239151Y-111031400D01*
X112347649Y-111031400D01*
X112454062Y-111052567D01*
X112454062Y-111052567D01*
G37*
G36*
X101012280Y-109554702D02*
X101149097Y-109596204D01*
X101275184Y-109663600D01*
X101385701Y-109754299D01*
X101476400Y-109864816D01*
X101543796Y-109990903D01*
X101585298Y-110127720D01*
X101599311Y-110270000D01*
X101585298Y-110412280D01*
X101543796Y-110549097D01*
X101476400Y-110675184D01*
X101385701Y-110785701D01*
X101275184Y-110876400D01*
X101149097Y-110943796D01*
X101012280Y-110985298D01*
X100905651Y-110995800D01*
X100834349Y-110995800D01*
X100727720Y-110985298D01*
X100590903Y-110943796D01*
X100464816Y-110876400D01*
X100354299Y-110785701D01*
X100263600Y-110675184D01*
X100196204Y-110549097D01*
X100154702Y-110412280D01*
X100140689Y-110270000D01*
X100154702Y-110127720D01*
X100196204Y-109990903D01*
X100263600Y-109864816D01*
X100354299Y-109754299D01*
X100464816Y-109663600D01*
X100590903Y-109596204D01*
X100727720Y-109554702D01*
X100834349Y-109544200D01*
X100905651Y-109544200D01*
X101012280Y-109554702D01*
X101012280Y-109554702D01*
G37*
G36*
X103012280Y-109554702D02*
X103149097Y-109596204D01*
X103275184Y-109663600D01*
X103385701Y-109754299D01*
X103476400Y-109864816D01*
X103543796Y-109990903D01*
X103585298Y-110127720D01*
X103599311Y-110270000D01*
X103585298Y-110412280D01*
X103543796Y-110549097D01*
X103476400Y-110675184D01*
X103385701Y-110785701D01*
X103275184Y-110876400D01*
X103149097Y-110943796D01*
X103012280Y-110985298D01*
X102905651Y-110995800D01*
X102834349Y-110995800D01*
X102727720Y-110985298D01*
X102590903Y-110943796D01*
X102464816Y-110876400D01*
X102354299Y-110785701D01*
X102263600Y-110675184D01*
X102196204Y-110549097D01*
X102154702Y-110412280D01*
X102140689Y-110270000D01*
X102154702Y-110127720D01*
X102196204Y-109990903D01*
X102263600Y-109864816D01*
X102354299Y-109754299D01*
X102464816Y-109663600D01*
X102590903Y-109596204D01*
X102727720Y-109554702D01*
X102834349Y-109544200D01*
X102905651Y-109544200D01*
X103012280Y-109554702D01*
X103012280Y-109554702D01*
G37*
G36*
X145012280Y-109554702D02*
X145149097Y-109596204D01*
X145275184Y-109663600D01*
X145385701Y-109754299D01*
X145476400Y-109864816D01*
X145543796Y-109990903D01*
X145585298Y-110127720D01*
X145599311Y-110270000D01*
X145585298Y-110412280D01*
X145543796Y-110549097D01*
X145476400Y-110675184D01*
X145385701Y-110785701D01*
X145275184Y-110876400D01*
X145149097Y-110943796D01*
X145012280Y-110985298D01*
X144905651Y-110995800D01*
X144834349Y-110995800D01*
X144727720Y-110985298D01*
X144590903Y-110943796D01*
X144464816Y-110876400D01*
X144354299Y-110785701D01*
X144263600Y-110675184D01*
X144196204Y-110549097D01*
X144154702Y-110412280D01*
X144140689Y-110270000D01*
X144154702Y-110127720D01*
X144196204Y-109990903D01*
X144263600Y-109864816D01*
X144354299Y-109754299D01*
X144464816Y-109663600D01*
X144590903Y-109596204D01*
X144727720Y-109554702D01*
X144834349Y-109544200D01*
X144905651Y-109544200D01*
X145012280Y-109554702D01*
X145012280Y-109554702D01*
G37*
G36*
X147012280Y-109554702D02*
X147149097Y-109596204D01*
X147275184Y-109663600D01*
X147385701Y-109754299D01*
X147476400Y-109864816D01*
X147543796Y-109990903D01*
X147585298Y-110127720D01*
X147599311Y-110270000D01*
X147585298Y-110412280D01*
X147543796Y-110549097D01*
X147476400Y-110675184D01*
X147385701Y-110785701D01*
X147275184Y-110876400D01*
X147149097Y-110943796D01*
X147012280Y-110985298D01*
X146905651Y-110995800D01*
X146834349Y-110995800D01*
X146727720Y-110985298D01*
X146590903Y-110943796D01*
X146464816Y-110876400D01*
X146354299Y-110785701D01*
X146263600Y-110675184D01*
X146196204Y-110549097D01*
X146154702Y-110412280D01*
X146140689Y-110270000D01*
X146154702Y-110127720D01*
X146196204Y-109990903D01*
X146263600Y-109864816D01*
X146354299Y-109754299D01*
X146464816Y-109663600D01*
X146590903Y-109596204D01*
X146727720Y-109554702D01*
X146834349Y-109544200D01*
X146905651Y-109544200D01*
X147012280Y-109554702D01*
X147012280Y-109554702D01*
G37*
G36*
X145012280Y-107554702D02*
X145149097Y-107596204D01*
X145275184Y-107663600D01*
X145385701Y-107754299D01*
X145476400Y-107864816D01*
X145543796Y-107990903D01*
X145585298Y-108127720D01*
X145599311Y-108270000D01*
X145585298Y-108412280D01*
X145543796Y-108549097D01*
X145476400Y-108675184D01*
X145385701Y-108785701D01*
X145275184Y-108876400D01*
X145149097Y-108943796D01*
X145012280Y-108985298D01*
X144905651Y-108995800D01*
X144834349Y-108995800D01*
X144727720Y-108985298D01*
X144590903Y-108943796D01*
X144464816Y-108876400D01*
X144354299Y-108785701D01*
X144263600Y-108675184D01*
X144196204Y-108549097D01*
X144154702Y-108412280D01*
X144140689Y-108270000D01*
X144154702Y-108127720D01*
X144196204Y-107990903D01*
X144263600Y-107864816D01*
X144354299Y-107754299D01*
X144464816Y-107663600D01*
X144590903Y-107596204D01*
X144727720Y-107554702D01*
X144834349Y-107544200D01*
X144905651Y-107544200D01*
X145012280Y-107554702D01*
X145012280Y-107554702D01*
G37*
G36*
X103012280Y-107554702D02*
X103149097Y-107596204D01*
X103275184Y-107663600D01*
X103385701Y-107754299D01*
X103476400Y-107864816D01*
X103543796Y-107990903D01*
X103585298Y-108127720D01*
X103599311Y-108270000D01*
X103585298Y-108412280D01*
X103543796Y-108549097D01*
X103476400Y-108675184D01*
X103385701Y-108785701D01*
X103275184Y-108876400D01*
X103149097Y-108943796D01*
X103012280Y-108985298D01*
X102905651Y-108995800D01*
X102834349Y-108995800D01*
X102727720Y-108985298D01*
X102590903Y-108943796D01*
X102464816Y-108876400D01*
X102354299Y-108785701D01*
X102263600Y-108675184D01*
X102196204Y-108549097D01*
X102154702Y-108412280D01*
X102140689Y-108270000D01*
X102154702Y-108127720D01*
X102196204Y-107990903D01*
X102263600Y-107864816D01*
X102354299Y-107754299D01*
X102464816Y-107663600D01*
X102590903Y-107596204D01*
X102727720Y-107554702D01*
X102834349Y-107544200D01*
X102905651Y-107544200D01*
X103012280Y-107554702D01*
X103012280Y-107554702D01*
G37*
G36*
X147012280Y-107554702D02*
X147149097Y-107596204D01*
X147275184Y-107663600D01*
X147385701Y-107754299D01*
X147476400Y-107864816D01*
X147543796Y-107990903D01*
X147585298Y-108127720D01*
X147599311Y-108270000D01*
X147585298Y-108412280D01*
X147543796Y-108549097D01*
X147476400Y-108675184D01*
X147385701Y-108785701D01*
X147275184Y-108876400D01*
X147149097Y-108943796D01*
X147012280Y-108985298D01*
X146905651Y-108995800D01*
X146834349Y-108995800D01*
X146727720Y-108985298D01*
X146590903Y-108943796D01*
X146464816Y-108876400D01*
X146354299Y-108785701D01*
X146263600Y-108675184D01*
X146196204Y-108549097D01*
X146154702Y-108412280D01*
X146140689Y-108270000D01*
X146154702Y-108127720D01*
X146196204Y-107990903D01*
X146263600Y-107864816D01*
X146354299Y-107754299D01*
X146464816Y-107663600D01*
X146590903Y-107596204D01*
X146727720Y-107554702D01*
X146834349Y-107544200D01*
X146905651Y-107544200D01*
X147012280Y-107554702D01*
X147012280Y-107554702D01*
G37*
G36*
X101012280Y-107554702D02*
X101149097Y-107596204D01*
X101275184Y-107663600D01*
X101385701Y-107754299D01*
X101476400Y-107864816D01*
X101543796Y-107990903D01*
X101585298Y-108127720D01*
X101599311Y-108270000D01*
X101585298Y-108412280D01*
X101543796Y-108549097D01*
X101476400Y-108675184D01*
X101385701Y-108785701D01*
X101275184Y-108876400D01*
X101149097Y-108943796D01*
X101012280Y-108985298D01*
X100905651Y-108995800D01*
X100834349Y-108995800D01*
X100727720Y-108985298D01*
X100590903Y-108943796D01*
X100464816Y-108876400D01*
X100354299Y-108785701D01*
X100263600Y-108675184D01*
X100196204Y-108549097D01*
X100154702Y-108412280D01*
X100140689Y-108270000D01*
X100154702Y-108127720D01*
X100196204Y-107990903D01*
X100263600Y-107864816D01*
X100354299Y-107754299D01*
X100464816Y-107663600D01*
X100590903Y-107596204D01*
X100727720Y-107554702D01*
X100834349Y-107544200D01*
X100905651Y-107544200D01*
X101012280Y-107554702D01*
X101012280Y-107554702D01*
G37*
G36*
X145012280Y-105554702D02*
X145149097Y-105596204D01*
X145275184Y-105663600D01*
X145385701Y-105754299D01*
X145476400Y-105864816D01*
X145543796Y-105990903D01*
X145585298Y-106127720D01*
X145599311Y-106270000D01*
X145585298Y-106412280D01*
X145543796Y-106549097D01*
X145476400Y-106675184D01*
X145385701Y-106785701D01*
X145275184Y-106876400D01*
X145149097Y-106943796D01*
X145012280Y-106985298D01*
X144905651Y-106995800D01*
X144834349Y-106995800D01*
X144727720Y-106985298D01*
X144590903Y-106943796D01*
X144464816Y-106876400D01*
X144354299Y-106785701D01*
X144263600Y-106675184D01*
X144196204Y-106549097D01*
X144154702Y-106412280D01*
X144140689Y-106270000D01*
X144154702Y-106127720D01*
X144196204Y-105990903D01*
X144263600Y-105864816D01*
X144354299Y-105754299D01*
X144464816Y-105663600D01*
X144590903Y-105596204D01*
X144727720Y-105554702D01*
X144834349Y-105544200D01*
X144905651Y-105544200D01*
X145012280Y-105554702D01*
X145012280Y-105554702D01*
G37*
G36*
X147012280Y-105554702D02*
X147149097Y-105596204D01*
X147275184Y-105663600D01*
X147385701Y-105754299D01*
X147476400Y-105864816D01*
X147543796Y-105990903D01*
X147585298Y-106127720D01*
X147599311Y-106270000D01*
X147585298Y-106412280D01*
X147543796Y-106549097D01*
X147476400Y-106675184D01*
X147385701Y-106785701D01*
X147275184Y-106876400D01*
X147149097Y-106943796D01*
X147012280Y-106985298D01*
X146905651Y-106995800D01*
X146834349Y-106995800D01*
X146727720Y-106985298D01*
X146590903Y-106943796D01*
X146464816Y-106876400D01*
X146354299Y-106785701D01*
X146263600Y-106675184D01*
X146196204Y-106549097D01*
X146154702Y-106412280D01*
X146140689Y-106270000D01*
X146154702Y-106127720D01*
X146196204Y-105990903D01*
X146263600Y-105864816D01*
X146354299Y-105754299D01*
X146464816Y-105663600D01*
X146590903Y-105596204D01*
X146727720Y-105554702D01*
X146834349Y-105544200D01*
X146905651Y-105544200D01*
X147012280Y-105554702D01*
X147012280Y-105554702D01*
G37*
G36*
X103012280Y-105554702D02*
X103149097Y-105596204D01*
X103275184Y-105663600D01*
X103385701Y-105754299D01*
X103476400Y-105864816D01*
X103543796Y-105990903D01*
X103585298Y-106127720D01*
X103599311Y-106270000D01*
X103585298Y-106412280D01*
X103543796Y-106549097D01*
X103476400Y-106675184D01*
X103385701Y-106785701D01*
X103275184Y-106876400D01*
X103149097Y-106943796D01*
X103012280Y-106985298D01*
X102905651Y-106995800D01*
X102834349Y-106995800D01*
X102727720Y-106985298D01*
X102590903Y-106943796D01*
X102464816Y-106876400D01*
X102354299Y-106785701D01*
X102263600Y-106675184D01*
X102196204Y-106549097D01*
X102154702Y-106412280D01*
X102140689Y-106270000D01*
X102154702Y-106127720D01*
X102196204Y-105990903D01*
X102263600Y-105864816D01*
X102354299Y-105754299D01*
X102464816Y-105663600D01*
X102590903Y-105596204D01*
X102727720Y-105554702D01*
X102834349Y-105544200D01*
X102905651Y-105544200D01*
X103012280Y-105554702D01*
X103012280Y-105554702D01*
G37*
G36*
X101012280Y-105554702D02*
X101149097Y-105596204D01*
X101275184Y-105663600D01*
X101385701Y-105754299D01*
X101476400Y-105864816D01*
X101543796Y-105990903D01*
X101585298Y-106127720D01*
X101599311Y-106270000D01*
X101585298Y-106412280D01*
X101543796Y-106549097D01*
X101476400Y-106675184D01*
X101385701Y-106785701D01*
X101275184Y-106876400D01*
X101149097Y-106943796D01*
X101012280Y-106985298D01*
X100905651Y-106995800D01*
X100834349Y-106995800D01*
X100727720Y-106985298D01*
X100590903Y-106943796D01*
X100464816Y-106876400D01*
X100354299Y-106785701D01*
X100263600Y-106675184D01*
X100196204Y-106549097D01*
X100154702Y-106412280D01*
X100140689Y-106270000D01*
X100154702Y-106127720D01*
X100196204Y-105990903D01*
X100263600Y-105864816D01*
X100354299Y-105754299D01*
X100464816Y-105663600D01*
X100590903Y-105596204D01*
X100727720Y-105554702D01*
X100834349Y-105544200D01*
X100905651Y-105544200D01*
X101012280Y-105554702D01*
X101012280Y-105554702D01*
G37*
G36*
X145012280Y-103554702D02*
X145149097Y-103596204D01*
X145275184Y-103663600D01*
X145385701Y-103754299D01*
X145476400Y-103864816D01*
X145543796Y-103990903D01*
X145585298Y-104127720D01*
X145599311Y-104270000D01*
X145585298Y-104412280D01*
X145543796Y-104549097D01*
X145476400Y-104675184D01*
X145385701Y-104785701D01*
X145275184Y-104876400D01*
X145149097Y-104943796D01*
X145012280Y-104985298D01*
X144905651Y-104995800D01*
X144834349Y-104995800D01*
X144727720Y-104985298D01*
X144590903Y-104943796D01*
X144464816Y-104876400D01*
X144354299Y-104785701D01*
X144263600Y-104675184D01*
X144196204Y-104549097D01*
X144154702Y-104412280D01*
X144140689Y-104270000D01*
X144154702Y-104127720D01*
X144196204Y-103990903D01*
X144263600Y-103864816D01*
X144354299Y-103754299D01*
X144464816Y-103663600D01*
X144590903Y-103596204D01*
X144727720Y-103554702D01*
X144834349Y-103544200D01*
X144905651Y-103544200D01*
X145012280Y-103554702D01*
X145012280Y-103554702D01*
G37*
G36*
X101012280Y-103554702D02*
X101149097Y-103596204D01*
X101275184Y-103663600D01*
X101385701Y-103754299D01*
X101476400Y-103864816D01*
X101543796Y-103990903D01*
X101585298Y-104127720D01*
X101599311Y-104270000D01*
X101585298Y-104412280D01*
X101543796Y-104549097D01*
X101476400Y-104675184D01*
X101385701Y-104785701D01*
X101275184Y-104876400D01*
X101149097Y-104943796D01*
X101012280Y-104985298D01*
X100905651Y-104995800D01*
X100834349Y-104995800D01*
X100727720Y-104985298D01*
X100590903Y-104943796D01*
X100464816Y-104876400D01*
X100354299Y-104785701D01*
X100263600Y-104675184D01*
X100196204Y-104549097D01*
X100154702Y-104412280D01*
X100140689Y-104270000D01*
X100154702Y-104127720D01*
X100196204Y-103990903D01*
X100263600Y-103864816D01*
X100354299Y-103754299D01*
X100464816Y-103663600D01*
X100590903Y-103596204D01*
X100727720Y-103554702D01*
X100834349Y-103544200D01*
X100905651Y-103544200D01*
X101012280Y-103554702D01*
X101012280Y-103554702D01*
G37*
G36*
X103012280Y-103554702D02*
X103149097Y-103596204D01*
X103275184Y-103663600D01*
X103385701Y-103754299D01*
X103476400Y-103864816D01*
X103543796Y-103990903D01*
X103585298Y-104127720D01*
X103599311Y-104270000D01*
X103585298Y-104412280D01*
X103543796Y-104549097D01*
X103476400Y-104675184D01*
X103385701Y-104785701D01*
X103275184Y-104876400D01*
X103149097Y-104943796D01*
X103012280Y-104985298D01*
X102905651Y-104995800D01*
X102834349Y-104995800D01*
X102727720Y-104985298D01*
X102590903Y-104943796D01*
X102464816Y-104876400D01*
X102354299Y-104785701D01*
X102263600Y-104675184D01*
X102196204Y-104549097D01*
X102154702Y-104412280D01*
X102140689Y-104270000D01*
X102154702Y-104127720D01*
X102196204Y-103990903D01*
X102263600Y-103864816D01*
X102354299Y-103754299D01*
X102464816Y-103663600D01*
X102590903Y-103596204D01*
X102727720Y-103554702D01*
X102834349Y-103544200D01*
X102905651Y-103544200D01*
X103012280Y-103554702D01*
X103012280Y-103554702D01*
G37*
G36*
X147012280Y-103554702D02*
X147149097Y-103596204D01*
X147275184Y-103663600D01*
X147385701Y-103754299D01*
X147476400Y-103864816D01*
X147543796Y-103990903D01*
X147585298Y-104127720D01*
X147599311Y-104270000D01*
X147585298Y-104412280D01*
X147543796Y-104549097D01*
X147476400Y-104675184D01*
X147385701Y-104785701D01*
X147275184Y-104876400D01*
X147149097Y-104943796D01*
X147012280Y-104985298D01*
X146905651Y-104995800D01*
X146834349Y-104995800D01*
X146727720Y-104985298D01*
X146590903Y-104943796D01*
X146464816Y-104876400D01*
X146354299Y-104785701D01*
X146263600Y-104675184D01*
X146196204Y-104549097D01*
X146154702Y-104412280D01*
X146140689Y-104270000D01*
X146154702Y-104127720D01*
X146196204Y-103990903D01*
X146263600Y-103864816D01*
X146354299Y-103754299D01*
X146464816Y-103663600D01*
X146590903Y-103596204D01*
X146727720Y-103554702D01*
X146834349Y-103544200D01*
X146905651Y-103544200D01*
X147012280Y-103554702D01*
X147012280Y-103554702D01*
G37*
G36*
X101012280Y-101554702D02*
X101149097Y-101596204D01*
X101275184Y-101663600D01*
X101385701Y-101754299D01*
X101476400Y-101864816D01*
X101543796Y-101990903D01*
X101585298Y-102127720D01*
X101599311Y-102270000D01*
X101585298Y-102412280D01*
X101543796Y-102549097D01*
X101476400Y-102675184D01*
X101385701Y-102785701D01*
X101275184Y-102876400D01*
X101149097Y-102943796D01*
X101012280Y-102985298D01*
X100905651Y-102995800D01*
X100834349Y-102995800D01*
X100727720Y-102985298D01*
X100590903Y-102943796D01*
X100464816Y-102876400D01*
X100354299Y-102785701D01*
X100263600Y-102675184D01*
X100196204Y-102549097D01*
X100154702Y-102412280D01*
X100140689Y-102270000D01*
X100154702Y-102127720D01*
X100196204Y-101990903D01*
X100263600Y-101864816D01*
X100354299Y-101754299D01*
X100464816Y-101663600D01*
X100590903Y-101596204D01*
X100727720Y-101554702D01*
X100834349Y-101544200D01*
X100905651Y-101544200D01*
X101012280Y-101554702D01*
X101012280Y-101554702D01*
G37*
G36*
X145012280Y-101554702D02*
X145149097Y-101596204D01*
X145275184Y-101663600D01*
X145385701Y-101754299D01*
X145476400Y-101864816D01*
X145543796Y-101990903D01*
X145585298Y-102127720D01*
X145599311Y-102270000D01*
X145585298Y-102412280D01*
X145543796Y-102549097D01*
X145476400Y-102675184D01*
X145385701Y-102785701D01*
X145275184Y-102876400D01*
X145149097Y-102943796D01*
X145012280Y-102985298D01*
X144905651Y-102995800D01*
X144834349Y-102995800D01*
X144727720Y-102985298D01*
X144590903Y-102943796D01*
X144464816Y-102876400D01*
X144354299Y-102785701D01*
X144263600Y-102675184D01*
X144196204Y-102549097D01*
X144154702Y-102412280D01*
X144140689Y-102270000D01*
X144154702Y-102127720D01*
X144196204Y-101990903D01*
X144263600Y-101864816D01*
X144354299Y-101754299D01*
X144464816Y-101663600D01*
X144590903Y-101596204D01*
X144727720Y-101554702D01*
X144834349Y-101544200D01*
X144905651Y-101544200D01*
X145012280Y-101554702D01*
X145012280Y-101554702D01*
G37*
G36*
X103012280Y-101554702D02*
X103149097Y-101596204D01*
X103275184Y-101663600D01*
X103385701Y-101754299D01*
X103476400Y-101864816D01*
X103543796Y-101990903D01*
X103585298Y-102127720D01*
X103599311Y-102270000D01*
X103585298Y-102412280D01*
X103543796Y-102549097D01*
X103476400Y-102675184D01*
X103385701Y-102785701D01*
X103275184Y-102876400D01*
X103149097Y-102943796D01*
X103012280Y-102985298D01*
X102905651Y-102995800D01*
X102834349Y-102995800D01*
X102727720Y-102985298D01*
X102590903Y-102943796D01*
X102464816Y-102876400D01*
X102354299Y-102785701D01*
X102263600Y-102675184D01*
X102196204Y-102549097D01*
X102154702Y-102412280D01*
X102140689Y-102270000D01*
X102154702Y-102127720D01*
X102196204Y-101990903D01*
X102263600Y-101864816D01*
X102354299Y-101754299D01*
X102464816Y-101663600D01*
X102590903Y-101596204D01*
X102727720Y-101554702D01*
X102834349Y-101544200D01*
X102905651Y-101544200D01*
X103012280Y-101554702D01*
X103012280Y-101554702D01*
G37*
G36*
X147012280Y-101554702D02*
X147149097Y-101596204D01*
X147275184Y-101663600D01*
X147385701Y-101754299D01*
X147476400Y-101864816D01*
X147543796Y-101990903D01*
X147585298Y-102127720D01*
X147599311Y-102270000D01*
X147585298Y-102412280D01*
X147543796Y-102549097D01*
X147476400Y-102675184D01*
X147385701Y-102785701D01*
X147275184Y-102876400D01*
X147149097Y-102943796D01*
X147012280Y-102985298D01*
X146905651Y-102995800D01*
X146834349Y-102995800D01*
X146727720Y-102985298D01*
X146590903Y-102943796D01*
X146464816Y-102876400D01*
X146354299Y-102785701D01*
X146263600Y-102675184D01*
X146196204Y-102549097D01*
X146154702Y-102412280D01*
X146140689Y-102270000D01*
X146154702Y-102127720D01*
X146196204Y-101990903D01*
X146263600Y-101864816D01*
X146354299Y-101754299D01*
X146464816Y-101663600D01*
X146590903Y-101596204D01*
X146727720Y-101554702D01*
X146834349Y-101544200D01*
X146905651Y-101544200D01*
X147012280Y-101554702D01*
X147012280Y-101554702D01*
G37*
G36*
X136152262Y-101324367D02*
X136252502Y-101365887D01*
X136297608Y-101396026D01*
X136342712Y-101426164D01*
X136419436Y-101502888D01*
X136438022Y-101530704D01*
X136479713Y-101593098D01*
X136521233Y-101693338D01*
X136542400Y-101799751D01*
X136542400Y-101908249D01*
X136521233Y-102014662D01*
X136479713Y-102114902D01*
X136471149Y-102127718D01*
X136419436Y-102205112D01*
X136342712Y-102281836D01*
X136297608Y-102311973D01*
X136252502Y-102342113D01*
X136152262Y-102383633D01*
X136045849Y-102404800D01*
X135937351Y-102404800D01*
X135830938Y-102383633D01*
X135730698Y-102342113D01*
X135685592Y-102311973D01*
X135640488Y-102281836D01*
X135563764Y-102205112D01*
X135512051Y-102127718D01*
X135503487Y-102114902D01*
X135461967Y-102014662D01*
X135440800Y-101908249D01*
X135440800Y-101799751D01*
X135461967Y-101693338D01*
X135503487Y-101593098D01*
X135545178Y-101530704D01*
X135563764Y-101502888D01*
X135640488Y-101426164D01*
X135685592Y-101396026D01*
X135730698Y-101365887D01*
X135830938Y-101324367D01*
X135937351Y-101303200D01*
X136045849Y-101303200D01*
X136152262Y-101324367D01*
X136152262Y-101324367D01*
G37*
G36*
X116822862Y-100740167D02*
X116923102Y-100781687D01*
X116968208Y-100811826D01*
X117013312Y-100841964D01*
X117090036Y-100918688D01*
X117120173Y-100963792D01*
X117150313Y-101008898D01*
X117191833Y-101109138D01*
X117213000Y-101215551D01*
X117213000Y-101324049D01*
X117191833Y-101430462D01*
X117150313Y-101530702D01*
X117120173Y-101575808D01*
X117090036Y-101620912D01*
X117013312Y-101697636D01*
X116968208Y-101727773D01*
X116923102Y-101757913D01*
X116822862Y-101799433D01*
X116716449Y-101820600D01*
X116607951Y-101820600D01*
X116501538Y-101799433D01*
X116401298Y-101757913D01*
X116356192Y-101727773D01*
X116311088Y-101697636D01*
X116234364Y-101620912D01*
X116204227Y-101575808D01*
X116174087Y-101530702D01*
X116132567Y-101430462D01*
X116111400Y-101324049D01*
X116111400Y-101215551D01*
X116132567Y-101109138D01*
X116174087Y-101008898D01*
X116204227Y-100963792D01*
X116234364Y-100918688D01*
X116311088Y-100841964D01*
X116356192Y-100811826D01*
X116401298Y-100781687D01*
X116501538Y-100740167D01*
X116607951Y-100719000D01*
X116716449Y-100719000D01*
X116822862Y-100740167D01*
X116822862Y-100740167D01*
G37*
G36*
X101012280Y-99554702D02*
X101149097Y-99596204D01*
X101275184Y-99663600D01*
X101385701Y-99754299D01*
X101476400Y-99864816D01*
X101543796Y-99990903D01*
X101585298Y-100127720D01*
X101599311Y-100270000D01*
X101585298Y-100412280D01*
X101543796Y-100549097D01*
X101476400Y-100675184D01*
X101385701Y-100785701D01*
X101275184Y-100876400D01*
X101149097Y-100943796D01*
X101012280Y-100985298D01*
X100905651Y-100995800D01*
X100834349Y-100995800D01*
X100727720Y-100985298D01*
X100590903Y-100943796D01*
X100464816Y-100876400D01*
X100354299Y-100785701D01*
X100263600Y-100675184D01*
X100196204Y-100549097D01*
X100154702Y-100412280D01*
X100140689Y-100270000D01*
X100154702Y-100127720D01*
X100196204Y-99990903D01*
X100263600Y-99864816D01*
X100354299Y-99754299D01*
X100464816Y-99663600D01*
X100590903Y-99596204D01*
X100727720Y-99554702D01*
X100834349Y-99544200D01*
X100905651Y-99544200D01*
X101012280Y-99554702D01*
X101012280Y-99554702D01*
G37*
G36*
X147012280Y-99554702D02*
X147149097Y-99596204D01*
X147275184Y-99663600D01*
X147385701Y-99754299D01*
X147476400Y-99864816D01*
X147543796Y-99990903D01*
X147585298Y-100127720D01*
X147599311Y-100270000D01*
X147585298Y-100412280D01*
X147543796Y-100549097D01*
X147476400Y-100675184D01*
X147385701Y-100785701D01*
X147275184Y-100876400D01*
X147149097Y-100943796D01*
X147012280Y-100985298D01*
X146905651Y-100995800D01*
X146834349Y-100995800D01*
X146727720Y-100985298D01*
X146590903Y-100943796D01*
X146464816Y-100876400D01*
X146354299Y-100785701D01*
X146263600Y-100675184D01*
X146196204Y-100549097D01*
X146154702Y-100412280D01*
X146140689Y-100270000D01*
X146154702Y-100127720D01*
X146196204Y-99990903D01*
X146263600Y-99864816D01*
X146354299Y-99754299D01*
X146464816Y-99663600D01*
X146590903Y-99596204D01*
X146727720Y-99554702D01*
X146834349Y-99544200D01*
X146905651Y-99544200D01*
X147012280Y-99554702D01*
X147012280Y-99554702D01*
G37*
G36*
X103012280Y-99554702D02*
X103149097Y-99596204D01*
X103275184Y-99663600D01*
X103385701Y-99754299D01*
X103476400Y-99864816D01*
X103543796Y-99990903D01*
X103585298Y-100127720D01*
X103599311Y-100270000D01*
X103585298Y-100412280D01*
X103543796Y-100549097D01*
X103476400Y-100675184D01*
X103385701Y-100785701D01*
X103275184Y-100876400D01*
X103149097Y-100943796D01*
X103012280Y-100985298D01*
X102905651Y-100995800D01*
X102834349Y-100995800D01*
X102727720Y-100985298D01*
X102590903Y-100943796D01*
X102464816Y-100876400D01*
X102354299Y-100785701D01*
X102263600Y-100675184D01*
X102196204Y-100549097D01*
X102154702Y-100412280D01*
X102140689Y-100270000D01*
X102154702Y-100127720D01*
X102196204Y-99990903D01*
X102263600Y-99864816D01*
X102354299Y-99754299D01*
X102464816Y-99663600D01*
X102590903Y-99596204D01*
X102727720Y-99554702D01*
X102834349Y-99544200D01*
X102905651Y-99544200D01*
X103012280Y-99554702D01*
X103012280Y-99554702D01*
G37*
G36*
X145012280Y-99554702D02*
X145149097Y-99596204D01*
X145275184Y-99663600D01*
X145385701Y-99754299D01*
X145476400Y-99864816D01*
X145543796Y-99990903D01*
X145585298Y-100127720D01*
X145599311Y-100270000D01*
X145585298Y-100412280D01*
X145543796Y-100549097D01*
X145476400Y-100675184D01*
X145385701Y-100785701D01*
X145275184Y-100876400D01*
X145149097Y-100943796D01*
X145012280Y-100985298D01*
X144905651Y-100995800D01*
X144834349Y-100995800D01*
X144727720Y-100985298D01*
X144590903Y-100943796D01*
X144464816Y-100876400D01*
X144354299Y-100785701D01*
X144263600Y-100675184D01*
X144196204Y-100549097D01*
X144154702Y-100412280D01*
X144140689Y-100270000D01*
X144154702Y-100127720D01*
X144196204Y-99990903D01*
X144263600Y-99864816D01*
X144354299Y-99754299D01*
X144464816Y-99663600D01*
X144590903Y-99596204D01*
X144727720Y-99554702D01*
X144834349Y-99544200D01*
X144905651Y-99544200D01*
X145012280Y-99554702D01*
X145012280Y-99554702D01*
G37*
G36*
X145012280Y-97554702D02*
X145149097Y-97596204D01*
X145275184Y-97663600D01*
X145385701Y-97754299D01*
X145476400Y-97864816D01*
X145543796Y-97990903D01*
X145585298Y-98127720D01*
X145599311Y-98270000D01*
X145585298Y-98412280D01*
X145543796Y-98549097D01*
X145476400Y-98675184D01*
X145385701Y-98785701D01*
X145275184Y-98876400D01*
X145149097Y-98943796D01*
X145012280Y-98985298D01*
X144905651Y-98995800D01*
X144834349Y-98995800D01*
X144727720Y-98985298D01*
X144590903Y-98943796D01*
X144464816Y-98876400D01*
X144354299Y-98785701D01*
X144263600Y-98675184D01*
X144196204Y-98549097D01*
X144154702Y-98412280D01*
X144140689Y-98270000D01*
X144154702Y-98127720D01*
X144196204Y-97990903D01*
X144263600Y-97864816D01*
X144354299Y-97754299D01*
X144464816Y-97663600D01*
X144590903Y-97596204D01*
X144727720Y-97554702D01*
X144834349Y-97544200D01*
X144905651Y-97544200D01*
X145012280Y-97554702D01*
X145012280Y-97554702D01*
G37*
G36*
X147012280Y-97554702D02*
X147149097Y-97596204D01*
X147275184Y-97663600D01*
X147385701Y-97754299D01*
X147476400Y-97864816D01*
X147543796Y-97990903D01*
X147585298Y-98127720D01*
X147599311Y-98270000D01*
X147585298Y-98412280D01*
X147543796Y-98549097D01*
X147476400Y-98675184D01*
X147385701Y-98785701D01*
X147275184Y-98876400D01*
X147149097Y-98943796D01*
X147012280Y-98985298D01*
X146905651Y-98995800D01*
X146834349Y-98995800D01*
X146727720Y-98985298D01*
X146590903Y-98943796D01*
X146464816Y-98876400D01*
X146354299Y-98785701D01*
X146263600Y-98675184D01*
X146196204Y-98549097D01*
X146154702Y-98412280D01*
X146140689Y-98270000D01*
X146154702Y-98127720D01*
X146196204Y-97990903D01*
X146263600Y-97864816D01*
X146354299Y-97754299D01*
X146464816Y-97663600D01*
X146590903Y-97596204D01*
X146727720Y-97554702D01*
X146834349Y-97544200D01*
X146905651Y-97544200D01*
X147012280Y-97554702D01*
X147012280Y-97554702D01*
G37*
G36*
X103012280Y-97554702D02*
X103149097Y-97596204D01*
X103275184Y-97663600D01*
X103385701Y-97754299D01*
X103476400Y-97864816D01*
X103543796Y-97990903D01*
X103585298Y-98127720D01*
X103599311Y-98270000D01*
X103585298Y-98412280D01*
X103543796Y-98549097D01*
X103476400Y-98675184D01*
X103385701Y-98785701D01*
X103275184Y-98876400D01*
X103149097Y-98943796D01*
X103012280Y-98985298D01*
X102905651Y-98995800D01*
X102834349Y-98995800D01*
X102727720Y-98985298D01*
X102590903Y-98943796D01*
X102464816Y-98876400D01*
X102354299Y-98785701D01*
X102263600Y-98675184D01*
X102196204Y-98549097D01*
X102154702Y-98412280D01*
X102140689Y-98270000D01*
X102154702Y-98127720D01*
X102196204Y-97990903D01*
X102263600Y-97864816D01*
X102354299Y-97754299D01*
X102464816Y-97663600D01*
X102590903Y-97596204D01*
X102727720Y-97554702D01*
X102834349Y-97544200D01*
X102905651Y-97544200D01*
X103012280Y-97554702D01*
X103012280Y-97554702D01*
G37*
G36*
X101012280Y-97554702D02*
X101149097Y-97596204D01*
X101275184Y-97663600D01*
X101385701Y-97754299D01*
X101476400Y-97864816D01*
X101543796Y-97990903D01*
X101585298Y-98127720D01*
X101599311Y-98270000D01*
X101585298Y-98412280D01*
X101543796Y-98549097D01*
X101476400Y-98675184D01*
X101385701Y-98785701D01*
X101275184Y-98876400D01*
X101149097Y-98943796D01*
X101012280Y-98985298D01*
X100905651Y-98995800D01*
X100834349Y-98995800D01*
X100727720Y-98985298D01*
X100590903Y-98943796D01*
X100464816Y-98876400D01*
X100354299Y-98785701D01*
X100263600Y-98675184D01*
X100196204Y-98549097D01*
X100154702Y-98412280D01*
X100140689Y-98270000D01*
X100154702Y-98127720D01*
X100196204Y-97990903D01*
X100263600Y-97864816D01*
X100354299Y-97754299D01*
X100464816Y-97663600D01*
X100590903Y-97596204D01*
X100727720Y-97554702D01*
X100834349Y-97544200D01*
X100905651Y-97544200D01*
X101012280Y-97554702D01*
X101012280Y-97554702D01*
G37*
G36*
X107145462Y-95939567D02*
X107245702Y-95981087D01*
X107260392Y-95990903D01*
X107335912Y-96041364D01*
X107412636Y-96118088D01*
X107442774Y-96163192D01*
X107472913Y-96208298D01*
X107514433Y-96308538D01*
X107535600Y-96414951D01*
X107535600Y-96523449D01*
X107514433Y-96629862D01*
X107472913Y-96730102D01*
X107442774Y-96775208D01*
X107412636Y-96820312D01*
X107335912Y-96897036D01*
X107290808Y-96927174D01*
X107245702Y-96957313D01*
X107145462Y-96998833D01*
X107039049Y-97020000D01*
X106930551Y-97020000D01*
X106824138Y-96998833D01*
X106723898Y-96957313D01*
X106678792Y-96927174D01*
X106633688Y-96897036D01*
X106556964Y-96820312D01*
X106526826Y-96775208D01*
X106496687Y-96730102D01*
X106455167Y-96629862D01*
X106434000Y-96523449D01*
X106434000Y-96414951D01*
X106455167Y-96308538D01*
X106496687Y-96208298D01*
X106526826Y-96163192D01*
X106556964Y-96118088D01*
X106633688Y-96041364D01*
X106709208Y-95990903D01*
X106723898Y-95981087D01*
X106824138Y-95939567D01*
X106930551Y-95918400D01*
X107039049Y-95918400D01*
X107145462Y-95939567D01*
X107145462Y-95939567D01*
G37*
G36*
X145012280Y-95554702D02*
X145149097Y-95596204D01*
X145275184Y-95663600D01*
X145385701Y-95754299D01*
X145476400Y-95864816D01*
X145543796Y-95990903D01*
X145585298Y-96127720D01*
X145599311Y-96270000D01*
X145585298Y-96412280D01*
X145543796Y-96549097D01*
X145476400Y-96675184D01*
X145385701Y-96785701D01*
X145275184Y-96876400D01*
X145149097Y-96943796D01*
X145012280Y-96985298D01*
X144905651Y-96995800D01*
X144834349Y-96995800D01*
X144727720Y-96985298D01*
X144590903Y-96943796D01*
X144464816Y-96876400D01*
X144354299Y-96785701D01*
X144263600Y-96675184D01*
X144196204Y-96549097D01*
X144154702Y-96412280D01*
X144140689Y-96270000D01*
X144154702Y-96127720D01*
X144196204Y-95990903D01*
X144263600Y-95864816D01*
X144354299Y-95754299D01*
X144464816Y-95663600D01*
X144590903Y-95596204D01*
X144727720Y-95554702D01*
X144834349Y-95544200D01*
X144905651Y-95544200D01*
X145012280Y-95554702D01*
X145012280Y-95554702D01*
G37*
G36*
X103012280Y-95554702D02*
X103149097Y-95596204D01*
X103275184Y-95663600D01*
X103385701Y-95754299D01*
X103476400Y-95864816D01*
X103543796Y-95990903D01*
X103585298Y-96127720D01*
X103599311Y-96270000D01*
X103585298Y-96412280D01*
X103543796Y-96549097D01*
X103476400Y-96675184D01*
X103385701Y-96785701D01*
X103275184Y-96876400D01*
X103149097Y-96943796D01*
X103012280Y-96985298D01*
X102905651Y-96995800D01*
X102834349Y-96995800D01*
X102727720Y-96985298D01*
X102590903Y-96943796D01*
X102464816Y-96876400D01*
X102354299Y-96785701D01*
X102263600Y-96675184D01*
X102196204Y-96549097D01*
X102154702Y-96412280D01*
X102140689Y-96270000D01*
X102154702Y-96127720D01*
X102196204Y-95990903D01*
X102263600Y-95864816D01*
X102354299Y-95754299D01*
X102464816Y-95663600D01*
X102590903Y-95596204D01*
X102727720Y-95554702D01*
X102834349Y-95544200D01*
X102905651Y-95544200D01*
X103012280Y-95554702D01*
X103012280Y-95554702D01*
G37*
G36*
X147012280Y-95554702D02*
X147149097Y-95596204D01*
X147275184Y-95663600D01*
X147385701Y-95754299D01*
X147476400Y-95864816D01*
X147543796Y-95990903D01*
X147585298Y-96127720D01*
X147599311Y-96270000D01*
X147585298Y-96412280D01*
X147543796Y-96549097D01*
X147476400Y-96675184D01*
X147385701Y-96785701D01*
X147275184Y-96876400D01*
X147149097Y-96943796D01*
X147012280Y-96985298D01*
X146905651Y-96995800D01*
X146834349Y-96995800D01*
X146727720Y-96985298D01*
X146590903Y-96943796D01*
X146464816Y-96876400D01*
X146354299Y-96785701D01*
X146263600Y-96675184D01*
X146196204Y-96549097D01*
X146154702Y-96412280D01*
X146140689Y-96270000D01*
X146154702Y-96127720D01*
X146196204Y-95990903D01*
X146263600Y-95864816D01*
X146354299Y-95754299D01*
X146464816Y-95663600D01*
X146590903Y-95596204D01*
X146727720Y-95554702D01*
X146834349Y-95544200D01*
X146905651Y-95544200D01*
X147012280Y-95554702D01*
X147012280Y-95554702D01*
G37*
G36*
X101012280Y-95554702D02*
X101149097Y-95596204D01*
X101275184Y-95663600D01*
X101385701Y-95754299D01*
X101476400Y-95864816D01*
X101543796Y-95990903D01*
X101585298Y-96127720D01*
X101599311Y-96270000D01*
X101585298Y-96412280D01*
X101543796Y-96549097D01*
X101476400Y-96675184D01*
X101385701Y-96785701D01*
X101275184Y-96876400D01*
X101149097Y-96943796D01*
X101012280Y-96985298D01*
X100905651Y-96995800D01*
X100834349Y-96995800D01*
X100727720Y-96985298D01*
X100590903Y-96943796D01*
X100464816Y-96876400D01*
X100354299Y-96785701D01*
X100263600Y-96675184D01*
X100196204Y-96549097D01*
X100154702Y-96412280D01*
X100140689Y-96270000D01*
X100154702Y-96127720D01*
X100196204Y-95990903D01*
X100263600Y-95864816D01*
X100354299Y-95754299D01*
X100464816Y-95663600D01*
X100590903Y-95596204D01*
X100727720Y-95554702D01*
X100834349Y-95544200D01*
X100905651Y-95544200D01*
X101012280Y-95554702D01*
X101012280Y-95554702D01*
G37*
G36*
X145012280Y-93554702D02*
X145149097Y-93596204D01*
X145275184Y-93663600D01*
X145385701Y-93754299D01*
X145476400Y-93864816D01*
X145543796Y-93990903D01*
X145585298Y-94127720D01*
X145599311Y-94270000D01*
X145585298Y-94412280D01*
X145543796Y-94549097D01*
X145476400Y-94675184D01*
X145385701Y-94785701D01*
X145275184Y-94876400D01*
X145149097Y-94943796D01*
X145012280Y-94985298D01*
X144905651Y-94995800D01*
X144834349Y-94995800D01*
X144727720Y-94985298D01*
X144590903Y-94943796D01*
X144464816Y-94876400D01*
X144354299Y-94785701D01*
X144263600Y-94675184D01*
X144196204Y-94549097D01*
X144154702Y-94412280D01*
X144140689Y-94270000D01*
X144154702Y-94127720D01*
X144196204Y-93990903D01*
X144263600Y-93864816D01*
X144354299Y-93754299D01*
X144464816Y-93663600D01*
X144590903Y-93596204D01*
X144727720Y-93554702D01*
X144834349Y-93544200D01*
X144905651Y-93544200D01*
X145012280Y-93554702D01*
X145012280Y-93554702D01*
G37*
G36*
X147012280Y-93554702D02*
X147149097Y-93596204D01*
X147275184Y-93663600D01*
X147385701Y-93754299D01*
X147476400Y-93864816D01*
X147543796Y-93990903D01*
X147585298Y-94127720D01*
X147599311Y-94270000D01*
X147585298Y-94412280D01*
X147543796Y-94549097D01*
X147476400Y-94675184D01*
X147385701Y-94785701D01*
X147275184Y-94876400D01*
X147149097Y-94943796D01*
X147012280Y-94985298D01*
X146905651Y-94995800D01*
X146834349Y-94995800D01*
X146727720Y-94985298D01*
X146590903Y-94943796D01*
X146464816Y-94876400D01*
X146354299Y-94785701D01*
X146263600Y-94675184D01*
X146196204Y-94549097D01*
X146154702Y-94412280D01*
X146140689Y-94270000D01*
X146154702Y-94127720D01*
X146196204Y-93990903D01*
X146263600Y-93864816D01*
X146354299Y-93754299D01*
X146464816Y-93663600D01*
X146590903Y-93596204D01*
X146727720Y-93554702D01*
X146834349Y-93544200D01*
X146905651Y-93544200D01*
X147012280Y-93554702D01*
X147012280Y-93554702D01*
G37*
G36*
X103012280Y-93554702D02*
X103149097Y-93596204D01*
X103275184Y-93663600D01*
X103385701Y-93754299D01*
X103476400Y-93864816D01*
X103543796Y-93990903D01*
X103585298Y-94127720D01*
X103599311Y-94270000D01*
X103585298Y-94412280D01*
X103543796Y-94549097D01*
X103476400Y-94675184D01*
X103385701Y-94785701D01*
X103275184Y-94876400D01*
X103149097Y-94943796D01*
X103012280Y-94985298D01*
X102905651Y-94995800D01*
X102834349Y-94995800D01*
X102727720Y-94985298D01*
X102590903Y-94943796D01*
X102464816Y-94876400D01*
X102354299Y-94785701D01*
X102263600Y-94675184D01*
X102196204Y-94549097D01*
X102154702Y-94412280D01*
X102140689Y-94270000D01*
X102154702Y-94127720D01*
X102196204Y-93990903D01*
X102263600Y-93864816D01*
X102354299Y-93754299D01*
X102464816Y-93663600D01*
X102590903Y-93596204D01*
X102727720Y-93554702D01*
X102834349Y-93544200D01*
X102905651Y-93544200D01*
X103012280Y-93554702D01*
X103012280Y-93554702D01*
G37*
G36*
X101012280Y-93554702D02*
X101149097Y-93596204D01*
X101275184Y-93663600D01*
X101385701Y-93754299D01*
X101476400Y-93864816D01*
X101543796Y-93990903D01*
X101585298Y-94127720D01*
X101599311Y-94270000D01*
X101585298Y-94412280D01*
X101543796Y-94549097D01*
X101476400Y-94675184D01*
X101385701Y-94785701D01*
X101275184Y-94876400D01*
X101149097Y-94943796D01*
X101012280Y-94985298D01*
X100905651Y-94995800D01*
X100834349Y-94995800D01*
X100727720Y-94985298D01*
X100590903Y-94943796D01*
X100464816Y-94876400D01*
X100354299Y-94785701D01*
X100263600Y-94675184D01*
X100196204Y-94549097D01*
X100154702Y-94412280D01*
X100140689Y-94270000D01*
X100154702Y-94127720D01*
X100196204Y-93990903D01*
X100263600Y-93864816D01*
X100354299Y-93754299D01*
X100464816Y-93663600D01*
X100590903Y-93596204D01*
X100727720Y-93554702D01*
X100834349Y-93544200D01*
X100905651Y-93544200D01*
X101012280Y-93554702D01*
X101012280Y-93554702D01*
G37*
G36*
X107272462Y-92358167D02*
X107372702Y-92399687D01*
X107391548Y-92412280D01*
X107462912Y-92459964D01*
X107539636Y-92536688D01*
X107547926Y-92549095D01*
X107599913Y-92626898D01*
X107641433Y-92727138D01*
X107662600Y-92833551D01*
X107662600Y-92942049D01*
X107641433Y-93048462D01*
X107599913Y-93148702D01*
X107569774Y-93193808D01*
X107539636Y-93238912D01*
X107462912Y-93315636D01*
X107417808Y-93345773D01*
X107372702Y-93375913D01*
X107272462Y-93417433D01*
X107166049Y-93438600D01*
X107057551Y-93438600D01*
X106951138Y-93417433D01*
X106850898Y-93375913D01*
X106805792Y-93345773D01*
X106760688Y-93315636D01*
X106683964Y-93238912D01*
X106653826Y-93193808D01*
X106623687Y-93148702D01*
X106582167Y-93048462D01*
X106561000Y-92942049D01*
X106561000Y-92833551D01*
X106582167Y-92727138D01*
X106623687Y-92626898D01*
X106675674Y-92549095D01*
X106683964Y-92536688D01*
X106760688Y-92459964D01*
X106832052Y-92412280D01*
X106850898Y-92399687D01*
X106951138Y-92358167D01*
X107057551Y-92337000D01*
X107166049Y-92337000D01*
X107272462Y-92358167D01*
X107272462Y-92358167D01*
G37*
G36*
X103012280Y-91554702D02*
X103149097Y-91596204D01*
X103275184Y-91663600D01*
X103385701Y-91754299D01*
X103476400Y-91864816D01*
X103543796Y-91990903D01*
X103585298Y-92127720D01*
X103599311Y-92270000D01*
X103585298Y-92412280D01*
X103543796Y-92549097D01*
X103476400Y-92675184D01*
X103385701Y-92785701D01*
X103275184Y-92876400D01*
X103149097Y-92943796D01*
X103012280Y-92985298D01*
X102905651Y-92995800D01*
X102834349Y-92995800D01*
X102727720Y-92985298D01*
X102590903Y-92943796D01*
X102464816Y-92876400D01*
X102354299Y-92785701D01*
X102263600Y-92675184D01*
X102196204Y-92549097D01*
X102154702Y-92412280D01*
X102140689Y-92270000D01*
X102154702Y-92127720D01*
X102196204Y-91990903D01*
X102263600Y-91864816D01*
X102354299Y-91754299D01*
X102464816Y-91663600D01*
X102590903Y-91596204D01*
X102727720Y-91554702D01*
X102834349Y-91544200D01*
X102905651Y-91544200D01*
X103012280Y-91554702D01*
X103012280Y-91554702D01*
G37*
G36*
X101012280Y-91554702D02*
X101149097Y-91596204D01*
X101275184Y-91663600D01*
X101385701Y-91754299D01*
X101476400Y-91864816D01*
X101543796Y-91990903D01*
X101585298Y-92127720D01*
X101599311Y-92270000D01*
X101585298Y-92412280D01*
X101543796Y-92549097D01*
X101476400Y-92675184D01*
X101385701Y-92785701D01*
X101275184Y-92876400D01*
X101149097Y-92943796D01*
X101012280Y-92985298D01*
X100905651Y-92995800D01*
X100834349Y-92995800D01*
X100727720Y-92985298D01*
X100590903Y-92943796D01*
X100464816Y-92876400D01*
X100354299Y-92785701D01*
X100263600Y-92675184D01*
X100196204Y-92549097D01*
X100154702Y-92412280D01*
X100140689Y-92270000D01*
X100154702Y-92127720D01*
X100196204Y-91990903D01*
X100263600Y-91864816D01*
X100354299Y-91754299D01*
X100464816Y-91663600D01*
X100590903Y-91596204D01*
X100727720Y-91554702D01*
X100834349Y-91544200D01*
X100905651Y-91544200D01*
X101012280Y-91554702D01*
X101012280Y-91554702D01*
G37*
G36*
X147012280Y-91554702D02*
X147149097Y-91596204D01*
X147275184Y-91663600D01*
X147385701Y-91754299D01*
X147476400Y-91864816D01*
X147543796Y-91990903D01*
X147585298Y-92127720D01*
X147599311Y-92270000D01*
X147585298Y-92412280D01*
X147543796Y-92549097D01*
X147476400Y-92675184D01*
X147385701Y-92785701D01*
X147275184Y-92876400D01*
X147149097Y-92943796D01*
X147012280Y-92985298D01*
X146905651Y-92995800D01*
X146834349Y-92995800D01*
X146727720Y-92985298D01*
X146590903Y-92943796D01*
X146464816Y-92876400D01*
X146354299Y-92785701D01*
X146263600Y-92675184D01*
X146196204Y-92549097D01*
X146154702Y-92412280D01*
X146140689Y-92270000D01*
X146154702Y-92127720D01*
X146196204Y-91990903D01*
X146263600Y-91864816D01*
X146354299Y-91754299D01*
X146464816Y-91663600D01*
X146590903Y-91596204D01*
X146727720Y-91554702D01*
X146834349Y-91544200D01*
X146905651Y-91544200D01*
X147012280Y-91554702D01*
X147012280Y-91554702D01*
G37*
G36*
X145012280Y-91554702D02*
X145149097Y-91596204D01*
X145275184Y-91663600D01*
X145385701Y-91754299D01*
X145476400Y-91864816D01*
X145543796Y-91990903D01*
X145585298Y-92127720D01*
X145599311Y-92270000D01*
X145585298Y-92412280D01*
X145543796Y-92549097D01*
X145476400Y-92675184D01*
X145385701Y-92785701D01*
X145275184Y-92876400D01*
X145149097Y-92943796D01*
X145012280Y-92985298D01*
X144905651Y-92995800D01*
X144834349Y-92995800D01*
X144727720Y-92985298D01*
X144590903Y-92943796D01*
X144464816Y-92876400D01*
X144354299Y-92785701D01*
X144263600Y-92675184D01*
X144196204Y-92549097D01*
X144154702Y-92412280D01*
X144140689Y-92270000D01*
X144154702Y-92127720D01*
X144196204Y-91990903D01*
X144263600Y-91864816D01*
X144354299Y-91754299D01*
X144464816Y-91663600D01*
X144590903Y-91596204D01*
X144727720Y-91554702D01*
X144834349Y-91544200D01*
X144905651Y-91544200D01*
X145012280Y-91554702D01*
X145012280Y-91554702D01*
G37*
G36*
X147595800Y-90995800D02*
X146144200Y-90995800D01*
X146144200Y-89544200D01*
X147595800Y-89544200D01*
X147595800Y-90995800D01*
X147595800Y-90995800D01*
G37*
G36*
X145595800Y-90995800D02*
X144144200Y-90995800D01*
X144144200Y-89544200D01*
X145595800Y-89544200D01*
X145595800Y-90995800D01*
X145595800Y-90995800D01*
G37*
G36*
X103012280Y-89554702D02*
X103149097Y-89596204D01*
X103275184Y-89663600D01*
X103385701Y-89754299D01*
X103476400Y-89864816D01*
X103543796Y-89990903D01*
X103585298Y-90127720D01*
X103599311Y-90270000D01*
X103585298Y-90412280D01*
X103543796Y-90549097D01*
X103476400Y-90675184D01*
X103385701Y-90785701D01*
X103275184Y-90876400D01*
X103149097Y-90943796D01*
X103012280Y-90985298D01*
X102905651Y-90995800D01*
X102834349Y-90995800D01*
X102727720Y-90985298D01*
X102590903Y-90943796D01*
X102464816Y-90876400D01*
X102354299Y-90785701D01*
X102263600Y-90675184D01*
X102196204Y-90549097D01*
X102154702Y-90412280D01*
X102140689Y-90270000D01*
X102154702Y-90127720D01*
X102196204Y-89990903D01*
X102263600Y-89864816D01*
X102354299Y-89754299D01*
X102464816Y-89663600D01*
X102590903Y-89596204D01*
X102727720Y-89554702D01*
X102834349Y-89544200D01*
X102905651Y-89544200D01*
X103012280Y-89554702D01*
X103012280Y-89554702D01*
G37*
G36*
X101012280Y-89554702D02*
X101149097Y-89596204D01*
X101275184Y-89663600D01*
X101385701Y-89754299D01*
X101476400Y-89864816D01*
X101543796Y-89990903D01*
X101585298Y-90127720D01*
X101599311Y-90270000D01*
X101585298Y-90412280D01*
X101543796Y-90549097D01*
X101476400Y-90675184D01*
X101385701Y-90785701D01*
X101275184Y-90876400D01*
X101149097Y-90943796D01*
X101012280Y-90985298D01*
X100905651Y-90995800D01*
X100834349Y-90995800D01*
X100727720Y-90985298D01*
X100590903Y-90943796D01*
X100464816Y-90876400D01*
X100354299Y-90785701D01*
X100263600Y-90675184D01*
X100196204Y-90549097D01*
X100154702Y-90412280D01*
X100140689Y-90270000D01*
X100154702Y-90127720D01*
X100196204Y-89990903D01*
X100263600Y-89864816D01*
X100354299Y-89754299D01*
X100464816Y-89663600D01*
X100590903Y-89596204D01*
X100727720Y-89554702D01*
X100834349Y-89544200D01*
X100905651Y-89544200D01*
X101012280Y-89554702D01*
X101012280Y-89554702D01*
G37*
G36*
X131012280Y-87554702D02*
X131149097Y-87596204D01*
X131275184Y-87663600D01*
X131385701Y-87754299D01*
X131476400Y-87864816D01*
X131543796Y-87990903D01*
X131585298Y-88127720D01*
X131599311Y-88270000D01*
X131585298Y-88412280D01*
X131543796Y-88549097D01*
X131476400Y-88675184D01*
X131385701Y-88785701D01*
X131275184Y-88876400D01*
X131149097Y-88943796D01*
X131012280Y-88985298D01*
X130905651Y-88995800D01*
X130834349Y-88995800D01*
X130727720Y-88985298D01*
X130590903Y-88943796D01*
X130464816Y-88876400D01*
X130354299Y-88785701D01*
X130263600Y-88675184D01*
X130196204Y-88549097D01*
X130154702Y-88412280D01*
X130140689Y-88270000D01*
X130154702Y-88127720D01*
X130196204Y-87990903D01*
X130263600Y-87864816D01*
X130354299Y-87754299D01*
X130464816Y-87663600D01*
X130590903Y-87596204D01*
X130727720Y-87554702D01*
X130834349Y-87544200D01*
X130905651Y-87544200D01*
X131012280Y-87554702D01*
X131012280Y-87554702D01*
G37*
G36*
X135012280Y-87554702D02*
X135149097Y-87596204D01*
X135275184Y-87663600D01*
X135385701Y-87754299D01*
X135476400Y-87864816D01*
X135543796Y-87990903D01*
X135585298Y-88127720D01*
X135599311Y-88270000D01*
X135585298Y-88412280D01*
X135543796Y-88549097D01*
X135476400Y-88675184D01*
X135385701Y-88785701D01*
X135275184Y-88876400D01*
X135149097Y-88943796D01*
X135012280Y-88985298D01*
X134905651Y-88995800D01*
X134834349Y-88995800D01*
X134727720Y-88985298D01*
X134590903Y-88943796D01*
X134464816Y-88876400D01*
X134354299Y-88785701D01*
X134263600Y-88675184D01*
X134196204Y-88549097D01*
X134154702Y-88412280D01*
X134140689Y-88270000D01*
X134154702Y-88127720D01*
X134196204Y-87990903D01*
X134263600Y-87864816D01*
X134354299Y-87754299D01*
X134464816Y-87663600D01*
X134590903Y-87596204D01*
X134727720Y-87554702D01*
X134834349Y-87544200D01*
X134905651Y-87544200D01*
X135012280Y-87554702D01*
X135012280Y-87554702D01*
G37*
G36*
X137012280Y-87554702D02*
X137149097Y-87596204D01*
X137275184Y-87663600D01*
X137385701Y-87754299D01*
X137476400Y-87864816D01*
X137543796Y-87990903D01*
X137585298Y-88127720D01*
X137599311Y-88270000D01*
X137585298Y-88412280D01*
X137543796Y-88549097D01*
X137476400Y-88675184D01*
X137385701Y-88785701D01*
X137275184Y-88876400D01*
X137149097Y-88943796D01*
X137012280Y-88985298D01*
X136905651Y-88995800D01*
X136834349Y-88995800D01*
X136727720Y-88985298D01*
X136590903Y-88943796D01*
X136464816Y-88876400D01*
X136354299Y-88785701D01*
X136263600Y-88675184D01*
X136196204Y-88549097D01*
X136154702Y-88412280D01*
X136140689Y-88270000D01*
X136154702Y-88127720D01*
X136196204Y-87990903D01*
X136263600Y-87864816D01*
X136354299Y-87754299D01*
X136464816Y-87663600D01*
X136590903Y-87596204D01*
X136727720Y-87554702D01*
X136834349Y-87544200D01*
X136905651Y-87544200D01*
X137012280Y-87554702D01*
X137012280Y-87554702D01*
G37*
G36*
X139012280Y-87554702D02*
X139149097Y-87596204D01*
X139275184Y-87663600D01*
X139385701Y-87754299D01*
X139476400Y-87864816D01*
X139543796Y-87990903D01*
X139585298Y-88127720D01*
X139599311Y-88270000D01*
X139585298Y-88412280D01*
X139543796Y-88549097D01*
X139476400Y-88675184D01*
X139385701Y-88785701D01*
X139275184Y-88876400D01*
X139149097Y-88943796D01*
X139012280Y-88985298D01*
X138905651Y-88995800D01*
X138834349Y-88995800D01*
X138727720Y-88985298D01*
X138590903Y-88943796D01*
X138464816Y-88876400D01*
X138354299Y-88785701D01*
X138263600Y-88675184D01*
X138196204Y-88549097D01*
X138154702Y-88412280D01*
X138140689Y-88270000D01*
X138154702Y-88127720D01*
X138196204Y-87990903D01*
X138263600Y-87864816D01*
X138354299Y-87754299D01*
X138464816Y-87663600D01*
X138590903Y-87596204D01*
X138727720Y-87554702D01*
X138834349Y-87544200D01*
X138905651Y-87544200D01*
X139012280Y-87554702D01*
X139012280Y-87554702D01*
G37*
G36*
X141012280Y-87554702D02*
X141149097Y-87596204D01*
X141275184Y-87663600D01*
X141385701Y-87754299D01*
X141476400Y-87864816D01*
X141543796Y-87990903D01*
X141585298Y-88127720D01*
X141599311Y-88270000D01*
X141585298Y-88412280D01*
X141543796Y-88549097D01*
X141476400Y-88675184D01*
X141385701Y-88785701D01*
X141275184Y-88876400D01*
X141149097Y-88943796D01*
X141012280Y-88985298D01*
X140905651Y-88995800D01*
X140834349Y-88995800D01*
X140727720Y-88985298D01*
X140590903Y-88943796D01*
X140464816Y-88876400D01*
X140354299Y-88785701D01*
X140263600Y-88675184D01*
X140196204Y-88549097D01*
X140154702Y-88412280D01*
X140140689Y-88270000D01*
X140154702Y-88127720D01*
X140196204Y-87990903D01*
X140263600Y-87864816D01*
X140354299Y-87754299D01*
X140464816Y-87663600D01*
X140590903Y-87596204D01*
X140727720Y-87554702D01*
X140834349Y-87544200D01*
X140905651Y-87544200D01*
X141012280Y-87554702D01*
X141012280Y-87554702D01*
G37*
G36*
X143012280Y-87554702D02*
X143149097Y-87596204D01*
X143275184Y-87663600D01*
X143385701Y-87754299D01*
X143476400Y-87864816D01*
X143543796Y-87990903D01*
X143585298Y-88127720D01*
X143599311Y-88270000D01*
X143585298Y-88412280D01*
X143543796Y-88549097D01*
X143476400Y-88675184D01*
X143385701Y-88785701D01*
X143275184Y-88876400D01*
X143149097Y-88943796D01*
X143012280Y-88985298D01*
X142905651Y-88995800D01*
X142834349Y-88995800D01*
X142727720Y-88985298D01*
X142590903Y-88943796D01*
X142464816Y-88876400D01*
X142354299Y-88785701D01*
X142263600Y-88675184D01*
X142196204Y-88549097D01*
X142154702Y-88412280D01*
X142140689Y-88270000D01*
X142154702Y-88127720D01*
X142196204Y-87990903D01*
X142263600Y-87864816D01*
X142354299Y-87754299D01*
X142464816Y-87663600D01*
X142590903Y-87596204D01*
X142727720Y-87554702D01*
X142834349Y-87544200D01*
X142905651Y-87544200D01*
X143012280Y-87554702D01*
X143012280Y-87554702D01*
G37*
G36*
X133012280Y-87554702D02*
X133149097Y-87596204D01*
X133275184Y-87663600D01*
X133385701Y-87754299D01*
X133476400Y-87864816D01*
X133543796Y-87990903D01*
X133585298Y-88127720D01*
X133599311Y-88270000D01*
X133585298Y-88412280D01*
X133543796Y-88549097D01*
X133476400Y-88675184D01*
X133385701Y-88785701D01*
X133275184Y-88876400D01*
X133149097Y-88943796D01*
X133012280Y-88985298D01*
X132905651Y-88995800D01*
X132834349Y-88995800D01*
X132727720Y-88985298D01*
X132590903Y-88943796D01*
X132464816Y-88876400D01*
X132354299Y-88785701D01*
X132263600Y-88675184D01*
X132196204Y-88549097D01*
X132154702Y-88412280D01*
X132140689Y-88270000D01*
X132154702Y-88127720D01*
X132196204Y-87990903D01*
X132263600Y-87864816D01*
X132354299Y-87754299D01*
X132464816Y-87663600D01*
X132590903Y-87596204D01*
X132727720Y-87554702D01*
X132834349Y-87544200D01*
X132905651Y-87544200D01*
X133012280Y-87554702D01*
X133012280Y-87554702D01*
G37*
G36*
X105595800Y-88995800D02*
X104144200Y-88995800D01*
X104144200Y-87544200D01*
X105595800Y-87544200D01*
X105595800Y-88995800D01*
X105595800Y-88995800D01*
G37*
G36*
X107012280Y-87554702D02*
X107149097Y-87596204D01*
X107275184Y-87663600D01*
X107385701Y-87754299D01*
X107476400Y-87864816D01*
X107543796Y-87990903D01*
X107585298Y-88127720D01*
X107599311Y-88270000D01*
X107585298Y-88412280D01*
X107543796Y-88549097D01*
X107476400Y-88675184D01*
X107385701Y-88785701D01*
X107275184Y-88876400D01*
X107149097Y-88943796D01*
X107012280Y-88985298D01*
X106905651Y-88995800D01*
X106834349Y-88995800D01*
X106727720Y-88985298D01*
X106590903Y-88943796D01*
X106464816Y-88876400D01*
X106354299Y-88785701D01*
X106263600Y-88675184D01*
X106196204Y-88549097D01*
X106154702Y-88412280D01*
X106140689Y-88270000D01*
X106154702Y-88127720D01*
X106196204Y-87990903D01*
X106263600Y-87864816D01*
X106354299Y-87754299D01*
X106464816Y-87663600D01*
X106590903Y-87596204D01*
X106727720Y-87554702D01*
X106834349Y-87544200D01*
X106905651Y-87544200D01*
X107012280Y-87554702D01*
X107012280Y-87554702D01*
G37*
G36*
X109012280Y-87554702D02*
X109149097Y-87596204D01*
X109275184Y-87663600D01*
X109385701Y-87754299D01*
X109476400Y-87864816D01*
X109543796Y-87990903D01*
X109585298Y-88127720D01*
X109599311Y-88270000D01*
X109585298Y-88412280D01*
X109543796Y-88549097D01*
X109476400Y-88675184D01*
X109385701Y-88785701D01*
X109275184Y-88876400D01*
X109149097Y-88943796D01*
X109012280Y-88985298D01*
X108905651Y-88995800D01*
X108834349Y-88995800D01*
X108727720Y-88985298D01*
X108590903Y-88943796D01*
X108464816Y-88876400D01*
X108354299Y-88785701D01*
X108263600Y-88675184D01*
X108196204Y-88549097D01*
X108154702Y-88412280D01*
X108140689Y-88270000D01*
X108154702Y-88127720D01*
X108196204Y-87990903D01*
X108263600Y-87864816D01*
X108354299Y-87754299D01*
X108464816Y-87663600D01*
X108590903Y-87596204D01*
X108727720Y-87554702D01*
X108834349Y-87544200D01*
X108905651Y-87544200D01*
X109012280Y-87554702D01*
X109012280Y-87554702D01*
G37*
G36*
X113012280Y-87554702D02*
X113149097Y-87596204D01*
X113275184Y-87663600D01*
X113385701Y-87754299D01*
X113476400Y-87864816D01*
X113543796Y-87990903D01*
X113585298Y-88127720D01*
X113599311Y-88270000D01*
X113585298Y-88412280D01*
X113543796Y-88549097D01*
X113476400Y-88675184D01*
X113385701Y-88785701D01*
X113275184Y-88876400D01*
X113149097Y-88943796D01*
X113012280Y-88985298D01*
X112905651Y-88995800D01*
X112834349Y-88995800D01*
X112727720Y-88985298D01*
X112590903Y-88943796D01*
X112464816Y-88876400D01*
X112354299Y-88785701D01*
X112263600Y-88675184D01*
X112196204Y-88549097D01*
X112154702Y-88412280D01*
X112140689Y-88270000D01*
X112154702Y-88127720D01*
X112196204Y-87990903D01*
X112263600Y-87864816D01*
X112354299Y-87754299D01*
X112464816Y-87663600D01*
X112590903Y-87596204D01*
X112727720Y-87554702D01*
X112834349Y-87544200D01*
X112905651Y-87544200D01*
X113012280Y-87554702D01*
X113012280Y-87554702D01*
G37*
G36*
X111012280Y-87554702D02*
X111149097Y-87596204D01*
X111275184Y-87663600D01*
X111385701Y-87754299D01*
X111476400Y-87864816D01*
X111543796Y-87990903D01*
X111585298Y-88127720D01*
X111599311Y-88270000D01*
X111585298Y-88412280D01*
X111543796Y-88549097D01*
X111476400Y-88675184D01*
X111385701Y-88785701D01*
X111275184Y-88876400D01*
X111149097Y-88943796D01*
X111012280Y-88985298D01*
X110905651Y-88995800D01*
X110834349Y-88995800D01*
X110727720Y-88985298D01*
X110590903Y-88943796D01*
X110464816Y-88876400D01*
X110354299Y-88785701D01*
X110263600Y-88675184D01*
X110196204Y-88549097D01*
X110154702Y-88412280D01*
X110140689Y-88270000D01*
X110154702Y-88127720D01*
X110196204Y-87990903D01*
X110263600Y-87864816D01*
X110354299Y-87754299D01*
X110464816Y-87663600D01*
X110590903Y-87596204D01*
X110727720Y-87554702D01*
X110834349Y-87544200D01*
X110905651Y-87544200D01*
X111012280Y-87554702D01*
X111012280Y-87554702D01*
G37*
G36*
X129012280Y-87554702D02*
X129149097Y-87596204D01*
X129275184Y-87663600D01*
X129385701Y-87754299D01*
X129476400Y-87864816D01*
X129543796Y-87990903D01*
X129585298Y-88127720D01*
X129599311Y-88270000D01*
X129585298Y-88412280D01*
X129543796Y-88549097D01*
X129476400Y-88675184D01*
X129385701Y-88785701D01*
X129275184Y-88876400D01*
X129149097Y-88943796D01*
X129012280Y-88985298D01*
X128905651Y-88995800D01*
X128834349Y-88995800D01*
X128727720Y-88985298D01*
X128590903Y-88943796D01*
X128464816Y-88876400D01*
X128354299Y-88785701D01*
X128263600Y-88675184D01*
X128196204Y-88549097D01*
X128154702Y-88412280D01*
X128140689Y-88270000D01*
X128154702Y-88127720D01*
X128196204Y-87990903D01*
X128263600Y-87864816D01*
X128354299Y-87754299D01*
X128464816Y-87663600D01*
X128590903Y-87596204D01*
X128727720Y-87554702D01*
X128834349Y-87544200D01*
X128905651Y-87544200D01*
X129012280Y-87554702D01*
X129012280Y-87554702D01*
G37*
G36*
X119012280Y-87554702D02*
X119149097Y-87596204D01*
X119275184Y-87663600D01*
X119385701Y-87754299D01*
X119476400Y-87864816D01*
X119543796Y-87990903D01*
X119585298Y-88127720D01*
X119599311Y-88270000D01*
X119585298Y-88412280D01*
X119543796Y-88549097D01*
X119476400Y-88675184D01*
X119385701Y-88785701D01*
X119275184Y-88876400D01*
X119149097Y-88943796D01*
X119012280Y-88985298D01*
X118905651Y-88995800D01*
X118834349Y-88995800D01*
X118727720Y-88985298D01*
X118590903Y-88943796D01*
X118464816Y-88876400D01*
X118354299Y-88785701D01*
X118263600Y-88675184D01*
X118196204Y-88549097D01*
X118154702Y-88412280D01*
X118140689Y-88270000D01*
X118154702Y-88127720D01*
X118196204Y-87990903D01*
X118263600Y-87864816D01*
X118354299Y-87754299D01*
X118464816Y-87663600D01*
X118590903Y-87596204D01*
X118727720Y-87554702D01*
X118834349Y-87544200D01*
X118905651Y-87544200D01*
X119012280Y-87554702D01*
X119012280Y-87554702D01*
G37*
G36*
X121012280Y-87554702D02*
X121149097Y-87596204D01*
X121275184Y-87663600D01*
X121385701Y-87754299D01*
X121476400Y-87864816D01*
X121543796Y-87990903D01*
X121585298Y-88127720D01*
X121599311Y-88270000D01*
X121585298Y-88412280D01*
X121543796Y-88549097D01*
X121476400Y-88675184D01*
X121385701Y-88785701D01*
X121275184Y-88876400D01*
X121149097Y-88943796D01*
X121012280Y-88985298D01*
X120905651Y-88995800D01*
X120834349Y-88995800D01*
X120727720Y-88985298D01*
X120590903Y-88943796D01*
X120464816Y-88876400D01*
X120354299Y-88785701D01*
X120263600Y-88675184D01*
X120196204Y-88549097D01*
X120154702Y-88412280D01*
X120140689Y-88270000D01*
X120154702Y-88127720D01*
X120196204Y-87990903D01*
X120263600Y-87864816D01*
X120354299Y-87754299D01*
X120464816Y-87663600D01*
X120590903Y-87596204D01*
X120727720Y-87554702D01*
X120834349Y-87544200D01*
X120905651Y-87544200D01*
X121012280Y-87554702D01*
X121012280Y-87554702D01*
G37*
G36*
X127012280Y-87554702D02*
X127149097Y-87596204D01*
X127275184Y-87663600D01*
X127385701Y-87754299D01*
X127476400Y-87864816D01*
X127543796Y-87990903D01*
X127585298Y-88127720D01*
X127599311Y-88270000D01*
X127585298Y-88412280D01*
X127543796Y-88549097D01*
X127476400Y-88675184D01*
X127385701Y-88785701D01*
X127275184Y-88876400D01*
X127149097Y-88943796D01*
X127012280Y-88985298D01*
X126905651Y-88995800D01*
X126834349Y-88995800D01*
X126727720Y-88985298D01*
X126590903Y-88943796D01*
X126464816Y-88876400D01*
X126354299Y-88785701D01*
X126263600Y-88675184D01*
X126196204Y-88549097D01*
X126154702Y-88412280D01*
X126140689Y-88270000D01*
X126154702Y-88127720D01*
X126196204Y-87990903D01*
X126263600Y-87864816D01*
X126354299Y-87754299D01*
X126464816Y-87663600D01*
X126590903Y-87596204D01*
X126727720Y-87554702D01*
X126834349Y-87544200D01*
X126905651Y-87544200D01*
X127012280Y-87554702D01*
X127012280Y-87554702D01*
G37*
G36*
X125012280Y-87554702D02*
X125149097Y-87596204D01*
X125275184Y-87663600D01*
X125385701Y-87754299D01*
X125476400Y-87864816D01*
X125543796Y-87990903D01*
X125585298Y-88127720D01*
X125599311Y-88270000D01*
X125585298Y-88412280D01*
X125543796Y-88549097D01*
X125476400Y-88675184D01*
X125385701Y-88785701D01*
X125275184Y-88876400D01*
X125149097Y-88943796D01*
X125012280Y-88985298D01*
X124905651Y-88995800D01*
X124834349Y-88995800D01*
X124727720Y-88985298D01*
X124590903Y-88943796D01*
X124464816Y-88876400D01*
X124354299Y-88785701D01*
X124263600Y-88675184D01*
X124196204Y-88549097D01*
X124154702Y-88412280D01*
X124140689Y-88270000D01*
X124154702Y-88127720D01*
X124196204Y-87990903D01*
X124263600Y-87864816D01*
X124354299Y-87754299D01*
X124464816Y-87663600D01*
X124590903Y-87596204D01*
X124727720Y-87554702D01*
X124834349Y-87544200D01*
X124905651Y-87544200D01*
X125012280Y-87554702D01*
X125012280Y-87554702D01*
G37*
G36*
X123012280Y-87554702D02*
X123149097Y-87596204D01*
X123275184Y-87663600D01*
X123385701Y-87754299D01*
X123476400Y-87864816D01*
X123543796Y-87990903D01*
X123585298Y-88127720D01*
X123599311Y-88270000D01*
X123585298Y-88412280D01*
X123543796Y-88549097D01*
X123476400Y-88675184D01*
X123385701Y-88785701D01*
X123275184Y-88876400D01*
X123149097Y-88943796D01*
X123012280Y-88985298D01*
X122905651Y-88995800D01*
X122834349Y-88995800D01*
X122727720Y-88985298D01*
X122590903Y-88943796D01*
X122464816Y-88876400D01*
X122354299Y-88785701D01*
X122263600Y-88675184D01*
X122196204Y-88549097D01*
X122154702Y-88412280D01*
X122140689Y-88270000D01*
X122154702Y-88127720D01*
X122196204Y-87990903D01*
X122263600Y-87864816D01*
X122354299Y-87754299D01*
X122464816Y-87663600D01*
X122590903Y-87596204D01*
X122727720Y-87554702D01*
X122834349Y-87544200D01*
X122905651Y-87544200D01*
X123012280Y-87554702D01*
X123012280Y-87554702D01*
G37*
G36*
X117012280Y-87554702D02*
X117149097Y-87596204D01*
X117275184Y-87663600D01*
X117385701Y-87754299D01*
X117476400Y-87864816D01*
X117543796Y-87990903D01*
X117585298Y-88127720D01*
X117599311Y-88270000D01*
X117585298Y-88412280D01*
X117543796Y-88549097D01*
X117476400Y-88675184D01*
X117385701Y-88785701D01*
X117275184Y-88876400D01*
X117149097Y-88943796D01*
X117012280Y-88985298D01*
X116905651Y-88995800D01*
X116834349Y-88995800D01*
X116727720Y-88985298D01*
X116590903Y-88943796D01*
X116464816Y-88876400D01*
X116354299Y-88785701D01*
X116263600Y-88675184D01*
X116196204Y-88549097D01*
X116154702Y-88412280D01*
X116140689Y-88270000D01*
X116154702Y-88127720D01*
X116196204Y-87990903D01*
X116263600Y-87864816D01*
X116354299Y-87754299D01*
X116464816Y-87663600D01*
X116590903Y-87596204D01*
X116727720Y-87554702D01*
X116834349Y-87544200D01*
X116905651Y-87544200D01*
X117012280Y-87554702D01*
X117012280Y-87554702D01*
G37*
G36*
X115012280Y-87554702D02*
X115149097Y-87596204D01*
X115275184Y-87663600D01*
X115385701Y-87754299D01*
X115476400Y-87864816D01*
X115543796Y-87990903D01*
X115585298Y-88127720D01*
X115599311Y-88270000D01*
X115585298Y-88412280D01*
X115543796Y-88549097D01*
X115476400Y-88675184D01*
X115385701Y-88785701D01*
X115275184Y-88876400D01*
X115149097Y-88943796D01*
X115012280Y-88985298D01*
X114905651Y-88995800D01*
X114834349Y-88995800D01*
X114727720Y-88985298D01*
X114590903Y-88943796D01*
X114464816Y-88876400D01*
X114354299Y-88785701D01*
X114263600Y-88675184D01*
X114196204Y-88549097D01*
X114154702Y-88412280D01*
X114140689Y-88270000D01*
X114154702Y-88127720D01*
X114196204Y-87990903D01*
X114263600Y-87864816D01*
X114354299Y-87754299D01*
X114464816Y-87663600D01*
X114590903Y-87596204D01*
X114727720Y-87554702D01*
X114834349Y-87544200D01*
X114905651Y-87544200D01*
X115012280Y-87554702D01*
X115012280Y-87554702D01*
G37*
G36*
X143012280Y-85554702D02*
X143149097Y-85596204D01*
X143275184Y-85663600D01*
X143385701Y-85754299D01*
X143476400Y-85864816D01*
X143543796Y-85990903D01*
X143585298Y-86127720D01*
X143599311Y-86270000D01*
X143585298Y-86412280D01*
X143543796Y-86549097D01*
X143476400Y-86675184D01*
X143385701Y-86785701D01*
X143275184Y-86876400D01*
X143149097Y-86943796D01*
X143012280Y-86985298D01*
X142905651Y-86995800D01*
X142834349Y-86995800D01*
X142727720Y-86985298D01*
X142590903Y-86943796D01*
X142464816Y-86876400D01*
X142354299Y-86785701D01*
X142263600Y-86675184D01*
X142196204Y-86549097D01*
X142154702Y-86412280D01*
X142140689Y-86270000D01*
X142154702Y-86127720D01*
X142196204Y-85990903D01*
X142263600Y-85864816D01*
X142354299Y-85754299D01*
X142464816Y-85663600D01*
X142590903Y-85596204D01*
X142727720Y-85554702D01*
X142834349Y-85544200D01*
X142905651Y-85544200D01*
X143012280Y-85554702D01*
X143012280Y-85554702D01*
G37*
G36*
X141012280Y-85554702D02*
X141149097Y-85596204D01*
X141275184Y-85663600D01*
X141385701Y-85754299D01*
X141476400Y-85864816D01*
X141543796Y-85990903D01*
X141585298Y-86127720D01*
X141599311Y-86270000D01*
X141585298Y-86412280D01*
X141543796Y-86549097D01*
X141476400Y-86675184D01*
X141385701Y-86785701D01*
X141275184Y-86876400D01*
X141149097Y-86943796D01*
X141012280Y-86985298D01*
X140905651Y-86995800D01*
X140834349Y-86995800D01*
X140727720Y-86985298D01*
X140590903Y-86943796D01*
X140464816Y-86876400D01*
X140354299Y-86785701D01*
X140263600Y-86675184D01*
X140196204Y-86549097D01*
X140154702Y-86412280D01*
X140140689Y-86270000D01*
X140154702Y-86127720D01*
X140196204Y-85990903D01*
X140263600Y-85864816D01*
X140354299Y-85754299D01*
X140464816Y-85663600D01*
X140590903Y-85596204D01*
X140727720Y-85554702D01*
X140834349Y-85544200D01*
X140905651Y-85544200D01*
X141012280Y-85554702D01*
X141012280Y-85554702D01*
G37*
G36*
X135012280Y-85554702D02*
X135149097Y-85596204D01*
X135275184Y-85663600D01*
X135385701Y-85754299D01*
X135476400Y-85864816D01*
X135543796Y-85990903D01*
X135585298Y-86127720D01*
X135599311Y-86270000D01*
X135585298Y-86412280D01*
X135543796Y-86549097D01*
X135476400Y-86675184D01*
X135385701Y-86785701D01*
X135275184Y-86876400D01*
X135149097Y-86943796D01*
X135012280Y-86985298D01*
X134905651Y-86995800D01*
X134834349Y-86995800D01*
X134727720Y-86985298D01*
X134590903Y-86943796D01*
X134464816Y-86876400D01*
X134354299Y-86785701D01*
X134263600Y-86675184D01*
X134196204Y-86549097D01*
X134154702Y-86412280D01*
X134140689Y-86270000D01*
X134154702Y-86127720D01*
X134196204Y-85990903D01*
X134263600Y-85864816D01*
X134354299Y-85754299D01*
X134464816Y-85663600D01*
X134590903Y-85596204D01*
X134727720Y-85554702D01*
X134834349Y-85544200D01*
X134905651Y-85544200D01*
X135012280Y-85554702D01*
X135012280Y-85554702D01*
G37*
G36*
X139012280Y-85554702D02*
X139149097Y-85596204D01*
X139275184Y-85663600D01*
X139385701Y-85754299D01*
X139476400Y-85864816D01*
X139543796Y-85990903D01*
X139585298Y-86127720D01*
X139599311Y-86270000D01*
X139585298Y-86412280D01*
X139543796Y-86549097D01*
X139476400Y-86675184D01*
X139385701Y-86785701D01*
X139275184Y-86876400D01*
X139149097Y-86943796D01*
X139012280Y-86985298D01*
X138905651Y-86995800D01*
X138834349Y-86995800D01*
X138727720Y-86985298D01*
X138590903Y-86943796D01*
X138464816Y-86876400D01*
X138354299Y-86785701D01*
X138263600Y-86675184D01*
X138196204Y-86549097D01*
X138154702Y-86412280D01*
X138140689Y-86270000D01*
X138154702Y-86127720D01*
X138196204Y-85990903D01*
X138263600Y-85864816D01*
X138354299Y-85754299D01*
X138464816Y-85663600D01*
X138590903Y-85596204D01*
X138727720Y-85554702D01*
X138834349Y-85544200D01*
X138905651Y-85544200D01*
X139012280Y-85554702D01*
X139012280Y-85554702D01*
G37*
G36*
X131012280Y-85554702D02*
X131149097Y-85596204D01*
X131275184Y-85663600D01*
X131385701Y-85754299D01*
X131476400Y-85864816D01*
X131543796Y-85990903D01*
X131585298Y-86127720D01*
X131599311Y-86270000D01*
X131585298Y-86412280D01*
X131543796Y-86549097D01*
X131476400Y-86675184D01*
X131385701Y-86785701D01*
X131275184Y-86876400D01*
X131149097Y-86943796D01*
X131012280Y-86985298D01*
X130905651Y-86995800D01*
X130834349Y-86995800D01*
X130727720Y-86985298D01*
X130590903Y-86943796D01*
X130464816Y-86876400D01*
X130354299Y-86785701D01*
X130263600Y-86675184D01*
X130196204Y-86549097D01*
X130154702Y-86412280D01*
X130140689Y-86270000D01*
X130154702Y-86127720D01*
X130196204Y-85990903D01*
X130263600Y-85864816D01*
X130354299Y-85754299D01*
X130464816Y-85663600D01*
X130590903Y-85596204D01*
X130727720Y-85554702D01*
X130834349Y-85544200D01*
X130905651Y-85544200D01*
X131012280Y-85554702D01*
X131012280Y-85554702D01*
G37*
G36*
X129012280Y-85554702D02*
X129149097Y-85596204D01*
X129275184Y-85663600D01*
X129385701Y-85754299D01*
X129476400Y-85864816D01*
X129543796Y-85990903D01*
X129585298Y-86127720D01*
X129599311Y-86270000D01*
X129585298Y-86412280D01*
X129543796Y-86549097D01*
X129476400Y-86675184D01*
X129385701Y-86785701D01*
X129275184Y-86876400D01*
X129149097Y-86943796D01*
X129012280Y-86985298D01*
X128905651Y-86995800D01*
X128834349Y-86995800D01*
X128727720Y-86985298D01*
X128590903Y-86943796D01*
X128464816Y-86876400D01*
X128354299Y-86785701D01*
X128263600Y-86675184D01*
X128196204Y-86549097D01*
X128154702Y-86412280D01*
X128140689Y-86270000D01*
X128154702Y-86127720D01*
X128196204Y-85990903D01*
X128263600Y-85864816D01*
X128354299Y-85754299D01*
X128464816Y-85663600D01*
X128590903Y-85596204D01*
X128727720Y-85554702D01*
X128834349Y-85544200D01*
X128905651Y-85544200D01*
X129012280Y-85554702D01*
X129012280Y-85554702D01*
G37*
G36*
X127012280Y-85554702D02*
X127149097Y-85596204D01*
X127275184Y-85663600D01*
X127385701Y-85754299D01*
X127476400Y-85864816D01*
X127543796Y-85990903D01*
X127585298Y-86127720D01*
X127599311Y-86270000D01*
X127585298Y-86412280D01*
X127543796Y-86549097D01*
X127476400Y-86675184D01*
X127385701Y-86785701D01*
X127275184Y-86876400D01*
X127149097Y-86943796D01*
X127012280Y-86985298D01*
X126905651Y-86995800D01*
X126834349Y-86995800D01*
X126727720Y-86985298D01*
X126590903Y-86943796D01*
X126464816Y-86876400D01*
X126354299Y-86785701D01*
X126263600Y-86675184D01*
X126196204Y-86549097D01*
X126154702Y-86412280D01*
X126140689Y-86270000D01*
X126154702Y-86127720D01*
X126196204Y-85990903D01*
X126263600Y-85864816D01*
X126354299Y-85754299D01*
X126464816Y-85663600D01*
X126590903Y-85596204D01*
X126727720Y-85554702D01*
X126834349Y-85544200D01*
X126905651Y-85544200D01*
X127012280Y-85554702D01*
X127012280Y-85554702D01*
G37*
G36*
X125012280Y-85554702D02*
X125149097Y-85596204D01*
X125275184Y-85663600D01*
X125385701Y-85754299D01*
X125476400Y-85864816D01*
X125543796Y-85990903D01*
X125585298Y-86127720D01*
X125599311Y-86270000D01*
X125585298Y-86412280D01*
X125543796Y-86549097D01*
X125476400Y-86675184D01*
X125385701Y-86785701D01*
X125275184Y-86876400D01*
X125149097Y-86943796D01*
X125012280Y-86985298D01*
X124905651Y-86995800D01*
X124834349Y-86995800D01*
X124727720Y-86985298D01*
X124590903Y-86943796D01*
X124464816Y-86876400D01*
X124354299Y-86785701D01*
X124263600Y-86675184D01*
X124196204Y-86549097D01*
X124154702Y-86412280D01*
X124140689Y-86270000D01*
X124154702Y-86127720D01*
X124196204Y-85990903D01*
X124263600Y-85864816D01*
X124354299Y-85754299D01*
X124464816Y-85663600D01*
X124590903Y-85596204D01*
X124727720Y-85554702D01*
X124834349Y-85544200D01*
X124905651Y-85544200D01*
X125012280Y-85554702D01*
X125012280Y-85554702D01*
G37*
G36*
X123012280Y-85554702D02*
X123149097Y-85596204D01*
X123275184Y-85663600D01*
X123385701Y-85754299D01*
X123476400Y-85864816D01*
X123543796Y-85990903D01*
X123585298Y-86127720D01*
X123599311Y-86270000D01*
X123585298Y-86412280D01*
X123543796Y-86549097D01*
X123476400Y-86675184D01*
X123385701Y-86785701D01*
X123275184Y-86876400D01*
X123149097Y-86943796D01*
X123012280Y-86985298D01*
X122905651Y-86995800D01*
X122834349Y-86995800D01*
X122727720Y-86985298D01*
X122590903Y-86943796D01*
X122464816Y-86876400D01*
X122354299Y-86785701D01*
X122263600Y-86675184D01*
X122196204Y-86549097D01*
X122154702Y-86412280D01*
X122140689Y-86270000D01*
X122154702Y-86127720D01*
X122196204Y-85990903D01*
X122263600Y-85864816D01*
X122354299Y-85754299D01*
X122464816Y-85663600D01*
X122590903Y-85596204D01*
X122727720Y-85554702D01*
X122834349Y-85544200D01*
X122905651Y-85544200D01*
X123012280Y-85554702D01*
X123012280Y-85554702D01*
G37*
G36*
X121012280Y-85554702D02*
X121149097Y-85596204D01*
X121275184Y-85663600D01*
X121385701Y-85754299D01*
X121476400Y-85864816D01*
X121543796Y-85990903D01*
X121585298Y-86127720D01*
X121599311Y-86270000D01*
X121585298Y-86412280D01*
X121543796Y-86549097D01*
X121476400Y-86675184D01*
X121385701Y-86785701D01*
X121275184Y-86876400D01*
X121149097Y-86943796D01*
X121012280Y-86985298D01*
X120905651Y-86995800D01*
X120834349Y-86995800D01*
X120727720Y-86985298D01*
X120590903Y-86943796D01*
X120464816Y-86876400D01*
X120354299Y-86785701D01*
X120263600Y-86675184D01*
X120196204Y-86549097D01*
X120154702Y-86412280D01*
X120140689Y-86270000D01*
X120154702Y-86127720D01*
X120196204Y-85990903D01*
X120263600Y-85864816D01*
X120354299Y-85754299D01*
X120464816Y-85663600D01*
X120590903Y-85596204D01*
X120727720Y-85554702D01*
X120834349Y-85544200D01*
X120905651Y-85544200D01*
X121012280Y-85554702D01*
X121012280Y-85554702D01*
G37*
G36*
X119012280Y-85554702D02*
X119149097Y-85596204D01*
X119275184Y-85663600D01*
X119385701Y-85754299D01*
X119476400Y-85864816D01*
X119543796Y-85990903D01*
X119585298Y-86127720D01*
X119599311Y-86270000D01*
X119585298Y-86412280D01*
X119543796Y-86549097D01*
X119476400Y-86675184D01*
X119385701Y-86785701D01*
X119275184Y-86876400D01*
X119149097Y-86943796D01*
X119012280Y-86985298D01*
X118905651Y-86995800D01*
X118834349Y-86995800D01*
X118727720Y-86985298D01*
X118590903Y-86943796D01*
X118464816Y-86876400D01*
X118354299Y-86785701D01*
X118263600Y-86675184D01*
X118196204Y-86549097D01*
X118154702Y-86412280D01*
X118140689Y-86270000D01*
X118154702Y-86127720D01*
X118196204Y-85990903D01*
X118263600Y-85864816D01*
X118354299Y-85754299D01*
X118464816Y-85663600D01*
X118590903Y-85596204D01*
X118727720Y-85554702D01*
X118834349Y-85544200D01*
X118905651Y-85544200D01*
X119012280Y-85554702D01*
X119012280Y-85554702D01*
G37*
G36*
X117012280Y-85554702D02*
X117149097Y-85596204D01*
X117275184Y-85663600D01*
X117385701Y-85754299D01*
X117476400Y-85864816D01*
X117543796Y-85990903D01*
X117585298Y-86127720D01*
X117599311Y-86270000D01*
X117585298Y-86412280D01*
X117543796Y-86549097D01*
X117476400Y-86675184D01*
X117385701Y-86785701D01*
X117275184Y-86876400D01*
X117149097Y-86943796D01*
X117012280Y-86985298D01*
X116905651Y-86995800D01*
X116834349Y-86995800D01*
X116727720Y-86985298D01*
X116590903Y-86943796D01*
X116464816Y-86876400D01*
X116354299Y-86785701D01*
X116263600Y-86675184D01*
X116196204Y-86549097D01*
X116154702Y-86412280D01*
X116140689Y-86270000D01*
X116154702Y-86127720D01*
X116196204Y-85990903D01*
X116263600Y-85864816D01*
X116354299Y-85754299D01*
X116464816Y-85663600D01*
X116590903Y-85596204D01*
X116727720Y-85554702D01*
X116834349Y-85544200D01*
X116905651Y-85544200D01*
X117012280Y-85554702D01*
X117012280Y-85554702D01*
G37*
G36*
X115012280Y-85554702D02*
X115149097Y-85596204D01*
X115275184Y-85663600D01*
X115385701Y-85754299D01*
X115476400Y-85864816D01*
X115543796Y-85990903D01*
X115585298Y-86127720D01*
X115599311Y-86270000D01*
X115585298Y-86412280D01*
X115543796Y-86549097D01*
X115476400Y-86675184D01*
X115385701Y-86785701D01*
X115275184Y-86876400D01*
X115149097Y-86943796D01*
X115012280Y-86985298D01*
X114905651Y-86995800D01*
X114834349Y-86995800D01*
X114727720Y-86985298D01*
X114590903Y-86943796D01*
X114464816Y-86876400D01*
X114354299Y-86785701D01*
X114263600Y-86675184D01*
X114196204Y-86549097D01*
X114154702Y-86412280D01*
X114140689Y-86270000D01*
X114154702Y-86127720D01*
X114196204Y-85990903D01*
X114263600Y-85864816D01*
X114354299Y-85754299D01*
X114464816Y-85663600D01*
X114590903Y-85596204D01*
X114727720Y-85554702D01*
X114834349Y-85544200D01*
X114905651Y-85544200D01*
X115012280Y-85554702D01*
X115012280Y-85554702D01*
G37*
G36*
X113012280Y-85554702D02*
X113149097Y-85596204D01*
X113275184Y-85663600D01*
X113385701Y-85754299D01*
X113476400Y-85864816D01*
X113543796Y-85990903D01*
X113585298Y-86127720D01*
X113599311Y-86270000D01*
X113585298Y-86412280D01*
X113543796Y-86549097D01*
X113476400Y-86675184D01*
X113385701Y-86785701D01*
X113275184Y-86876400D01*
X113149097Y-86943796D01*
X113012280Y-86985298D01*
X112905651Y-86995800D01*
X112834349Y-86995800D01*
X112727720Y-86985298D01*
X112590903Y-86943796D01*
X112464816Y-86876400D01*
X112354299Y-86785701D01*
X112263600Y-86675184D01*
X112196204Y-86549097D01*
X112154702Y-86412280D01*
X112140689Y-86270000D01*
X112154702Y-86127720D01*
X112196204Y-85990903D01*
X112263600Y-85864816D01*
X112354299Y-85754299D01*
X112464816Y-85663600D01*
X112590903Y-85596204D01*
X112727720Y-85554702D01*
X112834349Y-85544200D01*
X112905651Y-85544200D01*
X113012280Y-85554702D01*
X113012280Y-85554702D01*
G37*
G36*
X111012280Y-85554702D02*
X111149097Y-85596204D01*
X111275184Y-85663600D01*
X111385701Y-85754299D01*
X111476400Y-85864816D01*
X111543796Y-85990903D01*
X111585298Y-86127720D01*
X111599311Y-86270000D01*
X111585298Y-86412280D01*
X111543796Y-86549097D01*
X111476400Y-86675184D01*
X111385701Y-86785701D01*
X111275184Y-86876400D01*
X111149097Y-86943796D01*
X111012280Y-86985298D01*
X110905651Y-86995800D01*
X110834349Y-86995800D01*
X110727720Y-86985298D01*
X110590903Y-86943796D01*
X110464816Y-86876400D01*
X110354299Y-86785701D01*
X110263600Y-86675184D01*
X110196204Y-86549097D01*
X110154702Y-86412280D01*
X110140689Y-86270000D01*
X110154702Y-86127720D01*
X110196204Y-85990903D01*
X110263600Y-85864816D01*
X110354299Y-85754299D01*
X110464816Y-85663600D01*
X110590903Y-85596204D01*
X110727720Y-85554702D01*
X110834349Y-85544200D01*
X110905651Y-85544200D01*
X111012280Y-85554702D01*
X111012280Y-85554702D01*
G37*
G36*
X109012280Y-85554702D02*
X109149097Y-85596204D01*
X109275184Y-85663600D01*
X109385701Y-85754299D01*
X109476400Y-85864816D01*
X109543796Y-85990903D01*
X109585298Y-86127720D01*
X109599311Y-86270000D01*
X109585298Y-86412280D01*
X109543796Y-86549097D01*
X109476400Y-86675184D01*
X109385701Y-86785701D01*
X109275184Y-86876400D01*
X109149097Y-86943796D01*
X109012280Y-86985298D01*
X108905651Y-86995800D01*
X108834349Y-86995800D01*
X108727720Y-86985298D01*
X108590903Y-86943796D01*
X108464816Y-86876400D01*
X108354299Y-86785701D01*
X108263600Y-86675184D01*
X108196204Y-86549097D01*
X108154702Y-86412280D01*
X108140689Y-86270000D01*
X108154702Y-86127720D01*
X108196204Y-85990903D01*
X108263600Y-85864816D01*
X108354299Y-85754299D01*
X108464816Y-85663600D01*
X108590903Y-85596204D01*
X108727720Y-85554702D01*
X108834349Y-85544200D01*
X108905651Y-85544200D01*
X109012280Y-85554702D01*
X109012280Y-85554702D01*
G37*
G36*
X107012280Y-85554702D02*
X107149097Y-85596204D01*
X107275184Y-85663600D01*
X107385701Y-85754299D01*
X107476400Y-85864816D01*
X107543796Y-85990903D01*
X107585298Y-86127720D01*
X107599311Y-86270000D01*
X107585298Y-86412280D01*
X107543796Y-86549097D01*
X107476400Y-86675184D01*
X107385701Y-86785701D01*
X107275184Y-86876400D01*
X107149097Y-86943796D01*
X107012280Y-86985298D01*
X106905651Y-86995800D01*
X106834349Y-86995800D01*
X106727720Y-86985298D01*
X106590903Y-86943796D01*
X106464816Y-86876400D01*
X106354299Y-86785701D01*
X106263600Y-86675184D01*
X106196204Y-86549097D01*
X106154702Y-86412280D01*
X106140689Y-86270000D01*
X106154702Y-86127720D01*
X106196204Y-85990903D01*
X106263600Y-85864816D01*
X106354299Y-85754299D01*
X106464816Y-85663600D01*
X106590903Y-85596204D01*
X106727720Y-85554702D01*
X106834349Y-85544200D01*
X106905651Y-85544200D01*
X107012280Y-85554702D01*
X107012280Y-85554702D01*
G37*
G36*
X137012280Y-85554702D02*
X137149097Y-85596204D01*
X137275184Y-85663600D01*
X137385701Y-85754299D01*
X137476400Y-85864816D01*
X137543796Y-85990903D01*
X137585298Y-86127720D01*
X137599311Y-86270000D01*
X137585298Y-86412280D01*
X137543796Y-86549097D01*
X137476400Y-86675184D01*
X137385701Y-86785701D01*
X137275184Y-86876400D01*
X137149097Y-86943796D01*
X137012280Y-86985298D01*
X136905651Y-86995800D01*
X136834349Y-86995800D01*
X136727720Y-86985298D01*
X136590903Y-86943796D01*
X136464816Y-86876400D01*
X136354299Y-86785701D01*
X136263600Y-86675184D01*
X136196204Y-86549097D01*
X136154702Y-86412280D01*
X136140689Y-86270000D01*
X136154702Y-86127720D01*
X136196204Y-85990903D01*
X136263600Y-85864816D01*
X136354299Y-85754299D01*
X136464816Y-85663600D01*
X136590903Y-85596204D01*
X136727720Y-85554702D01*
X136834349Y-85544200D01*
X136905651Y-85544200D01*
X137012280Y-85554702D01*
X137012280Y-85554702D01*
G37*
G36*
X133012280Y-85554702D02*
X133149097Y-85596204D01*
X133275184Y-85663600D01*
X133385701Y-85754299D01*
X133476400Y-85864816D01*
X133543796Y-85990903D01*
X133585298Y-86127720D01*
X133599311Y-86270000D01*
X133585298Y-86412280D01*
X133543796Y-86549097D01*
X133476400Y-86675184D01*
X133385701Y-86785701D01*
X133275184Y-86876400D01*
X133149097Y-86943796D01*
X133012280Y-86985298D01*
X132905651Y-86995800D01*
X132834349Y-86995800D01*
X132727720Y-86985298D01*
X132590903Y-86943796D01*
X132464816Y-86876400D01*
X132354299Y-86785701D01*
X132263600Y-86675184D01*
X132196204Y-86549097D01*
X132154702Y-86412280D01*
X132140689Y-86270000D01*
X132154702Y-86127720D01*
X132196204Y-85990903D01*
X132263600Y-85864816D01*
X132354299Y-85754299D01*
X132464816Y-85663600D01*
X132590903Y-85596204D01*
X132727720Y-85554702D01*
X132834349Y-85544200D01*
X132905651Y-85544200D01*
X133012280Y-85554702D01*
X133012280Y-85554702D01*
G37*
G36*
X105595800Y-86995800D02*
X104144200Y-86995800D01*
X104144200Y-85544200D01*
X105595800Y-85544200D01*
X105595800Y-86995800D01*
X105595800Y-86995800D01*
G37*
M02*
