G04 #@! TF.GenerationSoftware,KiCad,Pcbnew,5.0.2-bee76a0~70~ubuntu18.04.1*
G04 #@! TF.CreationDate,2019-11-19T20:55:50-08:00*
G04 #@! TF.ProjectId,A3P250_Dev_Board,41335032-3530-45f4-9465-765f426f6172,rev?*
G04 #@! TF.SameCoordinates,Original*
G04 #@! TF.FileFunction,Legend,Top*
G04 #@! TF.FilePolarity,Positive*
%FSLAX46Y46*%
G04 Gerber Fmt 4.6, Leading zero omitted, Abs format (unit mm)*
G04 Created by KiCad (PCBNEW 5.0.2-bee76a0~70~ubuntu18.04.1) date Tue 19 Nov 2019 08:55:50 PM PST*
%MOMM*%
%LPD*%
G01*
G04 APERTURE LIST*
%ADD10C,0.250000*%
%ADD11C,0.100000*%
%ADD12C,0.120000*%
%ADD13C,0.150000*%
G04 APERTURE END LIST*
D10*
X124926971Y-93352857D02*
X124926971Y-92152857D01*
X125384114Y-92152857D01*
X125498400Y-92210000D01*
X125555542Y-92267142D01*
X125612685Y-92381428D01*
X125612685Y-92552857D01*
X125555542Y-92667142D01*
X125498400Y-92724285D01*
X125384114Y-92781428D01*
X124926971Y-92781428D01*
X126069828Y-93295714D02*
X126241257Y-93352857D01*
X126526971Y-93352857D01*
X126641257Y-93295714D01*
X126698400Y-93238571D01*
X126755542Y-93124285D01*
X126755542Y-93010000D01*
X126698400Y-92895714D01*
X126641257Y-92838571D01*
X126526971Y-92781428D01*
X126298400Y-92724285D01*
X126184114Y-92667142D01*
X126126971Y-92610000D01*
X126069828Y-92495714D01*
X126069828Y-92381428D01*
X126126971Y-92267142D01*
X126184114Y-92210000D01*
X126298400Y-92152857D01*
X126584114Y-92152857D01*
X126755542Y-92210000D01*
X127212685Y-93010000D02*
X127784114Y-93010000D01*
X127098400Y-93352857D02*
X127498400Y-92152857D01*
X127898400Y-93352857D01*
X128241257Y-93295714D02*
X128412685Y-93352857D01*
X128698400Y-93352857D01*
X128812685Y-93295714D01*
X128869828Y-93238571D01*
X128926971Y-93124285D01*
X128926971Y-93010000D01*
X128869828Y-92895714D01*
X128812685Y-92838571D01*
X128698400Y-92781428D01*
X128469828Y-92724285D01*
X128355542Y-92667142D01*
X128298400Y-92610000D01*
X128241257Y-92495714D01*
X128241257Y-92381428D01*
X128298400Y-92267142D01*
X128355542Y-92210000D01*
X128469828Y-92152857D01*
X128755542Y-92152857D01*
X128926971Y-92210000D01*
X123726971Y-95060000D02*
X124298400Y-95060000D01*
X123612685Y-95402857D02*
X124012685Y-94202857D01*
X124412685Y-95402857D01*
X124698400Y-94202857D02*
X125441257Y-94202857D01*
X125041257Y-94660000D01*
X125212685Y-94660000D01*
X125326971Y-94717142D01*
X125384114Y-94774285D01*
X125441257Y-94888571D01*
X125441257Y-95174285D01*
X125384114Y-95288571D01*
X125326971Y-95345714D01*
X125212685Y-95402857D01*
X124869828Y-95402857D01*
X124755542Y-95345714D01*
X124698400Y-95288571D01*
X125955542Y-95402857D02*
X125955542Y-94202857D01*
X126412685Y-94202857D01*
X126526971Y-94260000D01*
X126584114Y-94317142D01*
X126641257Y-94431428D01*
X126641257Y-94602857D01*
X126584114Y-94717142D01*
X126526971Y-94774285D01*
X126412685Y-94831428D01*
X125955542Y-94831428D01*
X127098400Y-94317142D02*
X127155542Y-94260000D01*
X127269828Y-94202857D01*
X127555542Y-94202857D01*
X127669828Y-94260000D01*
X127726971Y-94317142D01*
X127784114Y-94431428D01*
X127784114Y-94545714D01*
X127726971Y-94717142D01*
X127041257Y-95402857D01*
X127784114Y-95402857D01*
X128869828Y-94202857D02*
X128298400Y-94202857D01*
X128241257Y-94774285D01*
X128298400Y-94717142D01*
X128412685Y-94660000D01*
X128698400Y-94660000D01*
X128812685Y-94717142D01*
X128869828Y-94774285D01*
X128926971Y-94888571D01*
X128926971Y-95174285D01*
X128869828Y-95288571D01*
X128812685Y-95345714D01*
X128698400Y-95402857D01*
X128412685Y-95402857D01*
X128298400Y-95345714D01*
X128241257Y-95288571D01*
X129669828Y-94202857D02*
X129784114Y-94202857D01*
X129898400Y-94260000D01*
X129955542Y-94317142D01*
X130012685Y-94431428D01*
X130069828Y-94660000D01*
X130069828Y-94945714D01*
X130012685Y-95174285D01*
X129955542Y-95288571D01*
X129898400Y-95345714D01*
X129784114Y-95402857D01*
X129669828Y-95402857D01*
X129555542Y-95345714D01*
X129498400Y-95288571D01*
X129441257Y-95174285D01*
X129384114Y-94945714D01*
X129384114Y-94660000D01*
X129441257Y-94431428D01*
X129498400Y-94317142D01*
X129555542Y-94260000D01*
X129669828Y-94202857D01*
X123841257Y-97452857D02*
X123841257Y-96252857D01*
X124126971Y-96252857D01*
X124298400Y-96310000D01*
X124412685Y-96424285D01*
X124469828Y-96538571D01*
X124526971Y-96767142D01*
X124526971Y-96938571D01*
X124469828Y-97167142D01*
X124412685Y-97281428D01*
X124298400Y-97395714D01*
X124126971Y-97452857D01*
X123841257Y-97452857D01*
X125498400Y-97395714D02*
X125384114Y-97452857D01*
X125155542Y-97452857D01*
X125041257Y-97395714D01*
X124984114Y-97281428D01*
X124984114Y-96824285D01*
X125041257Y-96710000D01*
X125155542Y-96652857D01*
X125384114Y-96652857D01*
X125498400Y-96710000D01*
X125555542Y-96824285D01*
X125555542Y-96938571D01*
X124984114Y-97052857D01*
X125955542Y-96652857D02*
X126241257Y-97452857D01*
X126526971Y-96652857D01*
X126984114Y-97338571D02*
X127041257Y-97395714D01*
X126984114Y-97452857D01*
X126926971Y-97395714D01*
X126984114Y-97338571D01*
X126984114Y-97452857D01*
X128355542Y-96652857D02*
X128641257Y-97452857D01*
X128926971Y-96652857D01*
X129612685Y-96252857D02*
X129726971Y-96252857D01*
X129841257Y-96310000D01*
X129898400Y-96367142D01*
X129955542Y-96481428D01*
X130012685Y-96710000D01*
X130012685Y-96995714D01*
X129955542Y-97224285D01*
X129898400Y-97338571D01*
X129841257Y-97395714D01*
X129726971Y-97452857D01*
X129612685Y-97452857D01*
X129498400Y-97395714D01*
X129441257Y-97338571D01*
X129384114Y-97224285D01*
X129326971Y-96995714D01*
X129326971Y-96710000D01*
X129384114Y-96481428D01*
X129441257Y-96367142D01*
X129498400Y-96310000D01*
X129612685Y-96252857D01*
X124898400Y-99502857D02*
X124212685Y-99502857D01*
X124555542Y-99502857D02*
X124555542Y-98302857D01*
X124441257Y-98474285D01*
X124326971Y-98588571D01*
X124212685Y-98645714D01*
X126041257Y-99502857D02*
X125355542Y-99502857D01*
X125698400Y-99502857D02*
X125698400Y-98302857D01*
X125584114Y-98474285D01*
X125469828Y-98588571D01*
X125355542Y-98645714D01*
X127412685Y-98245714D02*
X126384114Y-99788571D01*
X128441257Y-99502857D02*
X127755542Y-99502857D01*
X128098400Y-99502857D02*
X128098400Y-98302857D01*
X127984114Y-98474285D01*
X127869828Y-98588571D01*
X127755542Y-98645714D01*
X129012685Y-99502857D02*
X129241257Y-99502857D01*
X129355542Y-99445714D01*
X129412685Y-99388571D01*
X129526971Y-99217142D01*
X129584114Y-98988571D01*
X129584114Y-98531428D01*
X129526971Y-98417142D01*
X129469828Y-98360000D01*
X129355542Y-98302857D01*
X129126971Y-98302857D01*
X129012685Y-98360000D01*
X128955542Y-98417142D01*
X128898400Y-98531428D01*
X128898400Y-98817142D01*
X128955542Y-98931428D01*
X129012685Y-98988571D01*
X129126971Y-99045714D01*
X129355542Y-99045714D01*
X129469828Y-98988571D01*
X129526971Y-98931428D01*
X129584114Y-98817142D01*
D11*
X144054800Y-88688828D02*
X144054800Y-88088828D01*
X144283371Y-88088828D01*
X144340514Y-88117400D01*
X144369085Y-88145971D01*
X144397657Y-88203114D01*
X144397657Y-88288828D01*
X144369085Y-88345971D01*
X144340514Y-88374542D01*
X144283371Y-88403114D01*
X144054800Y-88403114D01*
X144597657Y-88088828D02*
X144997657Y-88088828D01*
X144740514Y-88688828D01*
X145483371Y-88088828D02*
X145369085Y-88088828D01*
X145311942Y-88117400D01*
X145283371Y-88145971D01*
X145226228Y-88231685D01*
X145197657Y-88345971D01*
X145197657Y-88574542D01*
X145226228Y-88631685D01*
X145254800Y-88660257D01*
X145311942Y-88688828D01*
X145426228Y-88688828D01*
X145483371Y-88660257D01*
X145511942Y-88631685D01*
X145540514Y-88574542D01*
X145540514Y-88431685D01*
X145511942Y-88374542D01*
X145483371Y-88345971D01*
X145426228Y-88317400D01*
X145311942Y-88317400D01*
X145254800Y-88345971D01*
X145226228Y-88374542D01*
X145197657Y-88431685D01*
X102068600Y-88485628D02*
X102068600Y-87885628D01*
X102297171Y-87885628D01*
X102354314Y-87914200D01*
X102382885Y-87942771D01*
X102411457Y-87999914D01*
X102411457Y-88085628D01*
X102382885Y-88142771D01*
X102354314Y-88171342D01*
X102297171Y-88199914D01*
X102068600Y-88199914D01*
X102697171Y-88485628D02*
X102811457Y-88485628D01*
X102868600Y-88457057D01*
X102897171Y-88428485D01*
X102954314Y-88342771D01*
X102982885Y-88228485D01*
X102982885Y-87999914D01*
X102954314Y-87942771D01*
X102925742Y-87914200D01*
X102868600Y-87885628D01*
X102754314Y-87885628D01*
X102697171Y-87914200D01*
X102668600Y-87942771D01*
X102640028Y-87999914D01*
X102640028Y-88142771D01*
X102668600Y-88199914D01*
X102697171Y-88228485D01*
X102754314Y-88257057D01*
X102868600Y-88257057D01*
X102925742Y-88228485D01*
X102954314Y-88199914D01*
X102982885Y-88142771D01*
X103182885Y-87885628D02*
X103582885Y-87885628D01*
X103325742Y-88485628D01*
X107223428Y-90946000D02*
X106623428Y-90946000D01*
X106623428Y-90717428D01*
X106652000Y-90660285D01*
X106680571Y-90631714D01*
X106737714Y-90603142D01*
X106823428Y-90603142D01*
X106880571Y-90631714D01*
X106909142Y-90660285D01*
X106937714Y-90717428D01*
X106937714Y-90946000D01*
X107223428Y-90317428D02*
X107223428Y-90203142D01*
X107194857Y-90146000D01*
X107166285Y-90117428D01*
X107080571Y-90060285D01*
X106966285Y-90031714D01*
X106737714Y-90031714D01*
X106680571Y-90060285D01*
X106652000Y-90088857D01*
X106623428Y-90146000D01*
X106623428Y-90260285D01*
X106652000Y-90317428D01*
X106680571Y-90346000D01*
X106737714Y-90374571D01*
X106880571Y-90374571D01*
X106937714Y-90346000D01*
X106966285Y-90317428D01*
X106994857Y-90260285D01*
X106994857Y-90146000D01*
X106966285Y-90088857D01*
X106937714Y-90060285D01*
X106880571Y-90031714D01*
X106623428Y-89517428D02*
X106623428Y-89631714D01*
X106652000Y-89688857D01*
X106680571Y-89717428D01*
X106766285Y-89774571D01*
X106880571Y-89803142D01*
X107109142Y-89803142D01*
X107166285Y-89774571D01*
X107194857Y-89746000D01*
X107223428Y-89688857D01*
X107223428Y-89574571D01*
X107194857Y-89517428D01*
X107166285Y-89488857D01*
X107109142Y-89460285D01*
X106966285Y-89460285D01*
X106909142Y-89488857D01*
X106880571Y-89517428D01*
X106852000Y-89574571D01*
X106852000Y-89688857D01*
X106880571Y-89746000D01*
X106909142Y-89774571D01*
X106966285Y-89803142D01*
X109223428Y-90946000D02*
X108623428Y-90946000D01*
X108623428Y-90717428D01*
X108652000Y-90660285D01*
X108680571Y-90631714D01*
X108737714Y-90603142D01*
X108823428Y-90603142D01*
X108880571Y-90631714D01*
X108909142Y-90660285D01*
X108937714Y-90717428D01*
X108937714Y-90946000D01*
X109223428Y-90317428D02*
X109223428Y-90203142D01*
X109194857Y-90146000D01*
X109166285Y-90117428D01*
X109080571Y-90060285D01*
X108966285Y-90031714D01*
X108737714Y-90031714D01*
X108680571Y-90060285D01*
X108652000Y-90088857D01*
X108623428Y-90146000D01*
X108623428Y-90260285D01*
X108652000Y-90317428D01*
X108680571Y-90346000D01*
X108737714Y-90374571D01*
X108880571Y-90374571D01*
X108937714Y-90346000D01*
X108966285Y-90317428D01*
X108994857Y-90260285D01*
X108994857Y-90146000D01*
X108966285Y-90088857D01*
X108937714Y-90060285D01*
X108880571Y-90031714D01*
X108623428Y-89488857D02*
X108623428Y-89774571D01*
X108909142Y-89803142D01*
X108880571Y-89774571D01*
X108852000Y-89717428D01*
X108852000Y-89574571D01*
X108880571Y-89517428D01*
X108909142Y-89488857D01*
X108966285Y-89460285D01*
X109109142Y-89460285D01*
X109166285Y-89488857D01*
X109194857Y-89517428D01*
X109223428Y-89574571D01*
X109223428Y-89717428D01*
X109194857Y-89774571D01*
X109166285Y-89803142D01*
X111223428Y-90946000D02*
X110623428Y-90946000D01*
X110623428Y-90717428D01*
X110652000Y-90660285D01*
X110680571Y-90631714D01*
X110737714Y-90603142D01*
X110823428Y-90603142D01*
X110880571Y-90631714D01*
X110909142Y-90660285D01*
X110937714Y-90717428D01*
X110937714Y-90946000D01*
X111223428Y-90317428D02*
X111223428Y-90203142D01*
X111194857Y-90146000D01*
X111166285Y-90117428D01*
X111080571Y-90060285D01*
X110966285Y-90031714D01*
X110737714Y-90031714D01*
X110680571Y-90060285D01*
X110652000Y-90088857D01*
X110623428Y-90146000D01*
X110623428Y-90260285D01*
X110652000Y-90317428D01*
X110680571Y-90346000D01*
X110737714Y-90374571D01*
X110880571Y-90374571D01*
X110937714Y-90346000D01*
X110966285Y-90317428D01*
X110994857Y-90260285D01*
X110994857Y-90146000D01*
X110966285Y-90088857D01*
X110937714Y-90060285D01*
X110880571Y-90031714D01*
X110823428Y-89517428D02*
X111223428Y-89517428D01*
X110594857Y-89660285D02*
X111023428Y-89803142D01*
X111023428Y-89431714D01*
X113223428Y-90946000D02*
X112623428Y-90946000D01*
X112623428Y-90717428D01*
X112652000Y-90660285D01*
X112680571Y-90631714D01*
X112737714Y-90603142D01*
X112823428Y-90603142D01*
X112880571Y-90631714D01*
X112909142Y-90660285D01*
X112937714Y-90717428D01*
X112937714Y-90946000D01*
X113223428Y-90317428D02*
X113223428Y-90203142D01*
X113194857Y-90146000D01*
X113166285Y-90117428D01*
X113080571Y-90060285D01*
X112966285Y-90031714D01*
X112737714Y-90031714D01*
X112680571Y-90060285D01*
X112652000Y-90088857D01*
X112623428Y-90146000D01*
X112623428Y-90260285D01*
X112652000Y-90317428D01*
X112680571Y-90346000D01*
X112737714Y-90374571D01*
X112880571Y-90374571D01*
X112937714Y-90346000D01*
X112966285Y-90317428D01*
X112994857Y-90260285D01*
X112994857Y-90146000D01*
X112966285Y-90088857D01*
X112937714Y-90060285D01*
X112880571Y-90031714D01*
X112623428Y-89831714D02*
X112623428Y-89460285D01*
X112852000Y-89660285D01*
X112852000Y-89574571D01*
X112880571Y-89517428D01*
X112909142Y-89488857D01*
X112966285Y-89460285D01*
X113109142Y-89460285D01*
X113166285Y-89488857D01*
X113194857Y-89517428D01*
X113223428Y-89574571D01*
X113223428Y-89746000D01*
X113194857Y-89803142D01*
X113166285Y-89831714D01*
X115223428Y-90946000D02*
X114623428Y-90946000D01*
X114623428Y-90717428D01*
X114652000Y-90660285D01*
X114680571Y-90631714D01*
X114737714Y-90603142D01*
X114823428Y-90603142D01*
X114880571Y-90631714D01*
X114909142Y-90660285D01*
X114937714Y-90717428D01*
X114937714Y-90946000D01*
X115223428Y-90317428D02*
X115223428Y-90203142D01*
X115194857Y-90146000D01*
X115166285Y-90117428D01*
X115080571Y-90060285D01*
X114966285Y-90031714D01*
X114737714Y-90031714D01*
X114680571Y-90060285D01*
X114652000Y-90088857D01*
X114623428Y-90146000D01*
X114623428Y-90260285D01*
X114652000Y-90317428D01*
X114680571Y-90346000D01*
X114737714Y-90374571D01*
X114880571Y-90374571D01*
X114937714Y-90346000D01*
X114966285Y-90317428D01*
X114994857Y-90260285D01*
X114994857Y-90146000D01*
X114966285Y-90088857D01*
X114937714Y-90060285D01*
X114880571Y-90031714D01*
X114680571Y-89803142D02*
X114652000Y-89774571D01*
X114623428Y-89717428D01*
X114623428Y-89574571D01*
X114652000Y-89517428D01*
X114680571Y-89488857D01*
X114737714Y-89460285D01*
X114794857Y-89460285D01*
X114880571Y-89488857D01*
X115223428Y-89831714D01*
X115223428Y-89460285D01*
X117223428Y-90946000D02*
X116623428Y-90946000D01*
X116623428Y-90717428D01*
X116652000Y-90660285D01*
X116680571Y-90631714D01*
X116737714Y-90603142D01*
X116823428Y-90603142D01*
X116880571Y-90631714D01*
X116909142Y-90660285D01*
X116937714Y-90717428D01*
X116937714Y-90946000D01*
X117223428Y-90317428D02*
X117223428Y-90203142D01*
X117194857Y-90146000D01*
X117166285Y-90117428D01*
X117080571Y-90060285D01*
X116966285Y-90031714D01*
X116737714Y-90031714D01*
X116680571Y-90060285D01*
X116652000Y-90088857D01*
X116623428Y-90146000D01*
X116623428Y-90260285D01*
X116652000Y-90317428D01*
X116680571Y-90346000D01*
X116737714Y-90374571D01*
X116880571Y-90374571D01*
X116937714Y-90346000D01*
X116966285Y-90317428D01*
X116994857Y-90260285D01*
X116994857Y-90146000D01*
X116966285Y-90088857D01*
X116937714Y-90060285D01*
X116880571Y-90031714D01*
X117223428Y-89460285D02*
X117223428Y-89803142D01*
X117223428Y-89631714D02*
X116623428Y-89631714D01*
X116709142Y-89688857D01*
X116766285Y-89746000D01*
X116794857Y-89803142D01*
X119223428Y-90946000D02*
X118623428Y-90946000D01*
X118623428Y-90717428D01*
X118652000Y-90660285D01*
X118680571Y-90631714D01*
X118737714Y-90603142D01*
X118823428Y-90603142D01*
X118880571Y-90631714D01*
X118909142Y-90660285D01*
X118937714Y-90717428D01*
X118937714Y-90946000D01*
X119223428Y-90317428D02*
X119223428Y-90203142D01*
X119194857Y-90146000D01*
X119166285Y-90117428D01*
X119080571Y-90060285D01*
X118966285Y-90031714D01*
X118737714Y-90031714D01*
X118680571Y-90060285D01*
X118652000Y-90088857D01*
X118623428Y-90146000D01*
X118623428Y-90260285D01*
X118652000Y-90317428D01*
X118680571Y-90346000D01*
X118737714Y-90374571D01*
X118880571Y-90374571D01*
X118937714Y-90346000D01*
X118966285Y-90317428D01*
X118994857Y-90260285D01*
X118994857Y-90146000D01*
X118966285Y-90088857D01*
X118937714Y-90060285D01*
X118880571Y-90031714D01*
X118623428Y-89660285D02*
X118623428Y-89603142D01*
X118652000Y-89546000D01*
X118680571Y-89517428D01*
X118737714Y-89488857D01*
X118852000Y-89460285D01*
X118994857Y-89460285D01*
X119109142Y-89488857D01*
X119166285Y-89517428D01*
X119194857Y-89546000D01*
X119223428Y-89603142D01*
X119223428Y-89660285D01*
X119194857Y-89717428D01*
X119166285Y-89746000D01*
X119109142Y-89774571D01*
X118994857Y-89803142D01*
X118852000Y-89803142D01*
X118737714Y-89774571D01*
X118680571Y-89746000D01*
X118652000Y-89717428D01*
X118623428Y-89660285D01*
X121223428Y-90946000D02*
X120623428Y-90946000D01*
X120623428Y-90717428D01*
X120652000Y-90660285D01*
X120680571Y-90631714D01*
X120737714Y-90603142D01*
X120823428Y-90603142D01*
X120880571Y-90631714D01*
X120909142Y-90660285D01*
X120937714Y-90717428D01*
X120937714Y-90946000D01*
X120880571Y-90260285D02*
X120852000Y-90317428D01*
X120823428Y-90346000D01*
X120766285Y-90374571D01*
X120737714Y-90374571D01*
X120680571Y-90346000D01*
X120652000Y-90317428D01*
X120623428Y-90260285D01*
X120623428Y-90146000D01*
X120652000Y-90088857D01*
X120680571Y-90060285D01*
X120737714Y-90031714D01*
X120766285Y-90031714D01*
X120823428Y-90060285D01*
X120852000Y-90088857D01*
X120880571Y-90146000D01*
X120880571Y-90260285D01*
X120909142Y-90317428D01*
X120937714Y-90346000D01*
X120994857Y-90374571D01*
X121109142Y-90374571D01*
X121166285Y-90346000D01*
X121194857Y-90317428D01*
X121223428Y-90260285D01*
X121223428Y-90146000D01*
X121194857Y-90088857D01*
X121166285Y-90060285D01*
X121109142Y-90031714D01*
X120994857Y-90031714D01*
X120937714Y-90060285D01*
X120909142Y-90088857D01*
X120880571Y-90146000D01*
X120623428Y-89831714D02*
X120623428Y-89431714D01*
X121223428Y-89688857D01*
X123223428Y-90946000D02*
X122623428Y-90946000D01*
X122623428Y-90717428D01*
X122652000Y-90660285D01*
X122680571Y-90631714D01*
X122737714Y-90603142D01*
X122823428Y-90603142D01*
X122880571Y-90631714D01*
X122909142Y-90660285D01*
X122937714Y-90717428D01*
X122937714Y-90946000D01*
X122880571Y-90260285D02*
X122852000Y-90317428D01*
X122823428Y-90346000D01*
X122766285Y-90374571D01*
X122737714Y-90374571D01*
X122680571Y-90346000D01*
X122652000Y-90317428D01*
X122623428Y-90260285D01*
X122623428Y-90146000D01*
X122652000Y-90088857D01*
X122680571Y-90060285D01*
X122737714Y-90031714D01*
X122766285Y-90031714D01*
X122823428Y-90060285D01*
X122852000Y-90088857D01*
X122880571Y-90146000D01*
X122880571Y-90260285D01*
X122909142Y-90317428D01*
X122937714Y-90346000D01*
X122994857Y-90374571D01*
X123109142Y-90374571D01*
X123166285Y-90346000D01*
X123194857Y-90317428D01*
X123223428Y-90260285D01*
X123223428Y-90146000D01*
X123194857Y-90088857D01*
X123166285Y-90060285D01*
X123109142Y-90031714D01*
X122994857Y-90031714D01*
X122937714Y-90060285D01*
X122909142Y-90088857D01*
X122880571Y-90146000D01*
X122623428Y-89517428D02*
X122623428Y-89631714D01*
X122652000Y-89688857D01*
X122680571Y-89717428D01*
X122766285Y-89774571D01*
X122880571Y-89803142D01*
X123109142Y-89803142D01*
X123166285Y-89774571D01*
X123194857Y-89746000D01*
X123223428Y-89688857D01*
X123223428Y-89574571D01*
X123194857Y-89517428D01*
X123166285Y-89488857D01*
X123109142Y-89460285D01*
X122966285Y-89460285D01*
X122909142Y-89488857D01*
X122880571Y-89517428D01*
X122852000Y-89574571D01*
X122852000Y-89688857D01*
X122880571Y-89746000D01*
X122909142Y-89774571D01*
X122966285Y-89803142D01*
X125223428Y-90946000D02*
X124623428Y-90946000D01*
X124623428Y-90717428D01*
X124652000Y-90660285D01*
X124680571Y-90631714D01*
X124737714Y-90603142D01*
X124823428Y-90603142D01*
X124880571Y-90631714D01*
X124909142Y-90660285D01*
X124937714Y-90717428D01*
X124937714Y-90946000D01*
X124880571Y-90260285D02*
X124852000Y-90317428D01*
X124823428Y-90346000D01*
X124766285Y-90374571D01*
X124737714Y-90374571D01*
X124680571Y-90346000D01*
X124652000Y-90317428D01*
X124623428Y-90260285D01*
X124623428Y-90146000D01*
X124652000Y-90088857D01*
X124680571Y-90060285D01*
X124737714Y-90031714D01*
X124766285Y-90031714D01*
X124823428Y-90060285D01*
X124852000Y-90088857D01*
X124880571Y-90146000D01*
X124880571Y-90260285D01*
X124909142Y-90317428D01*
X124937714Y-90346000D01*
X124994857Y-90374571D01*
X125109142Y-90374571D01*
X125166285Y-90346000D01*
X125194857Y-90317428D01*
X125223428Y-90260285D01*
X125223428Y-90146000D01*
X125194857Y-90088857D01*
X125166285Y-90060285D01*
X125109142Y-90031714D01*
X124994857Y-90031714D01*
X124937714Y-90060285D01*
X124909142Y-90088857D01*
X124880571Y-90146000D01*
X124623428Y-89488857D02*
X124623428Y-89774571D01*
X124909142Y-89803142D01*
X124880571Y-89774571D01*
X124852000Y-89717428D01*
X124852000Y-89574571D01*
X124880571Y-89517428D01*
X124909142Y-89488857D01*
X124966285Y-89460285D01*
X125109142Y-89460285D01*
X125166285Y-89488857D01*
X125194857Y-89517428D01*
X125223428Y-89574571D01*
X125223428Y-89717428D01*
X125194857Y-89774571D01*
X125166285Y-89803142D01*
X127223428Y-90946000D02*
X126623428Y-90946000D01*
X126623428Y-90717428D01*
X126652000Y-90660285D01*
X126680571Y-90631714D01*
X126737714Y-90603142D01*
X126823428Y-90603142D01*
X126880571Y-90631714D01*
X126909142Y-90660285D01*
X126937714Y-90717428D01*
X126937714Y-90946000D01*
X126880571Y-90260285D02*
X126852000Y-90317428D01*
X126823428Y-90346000D01*
X126766285Y-90374571D01*
X126737714Y-90374571D01*
X126680571Y-90346000D01*
X126652000Y-90317428D01*
X126623428Y-90260285D01*
X126623428Y-90146000D01*
X126652000Y-90088857D01*
X126680571Y-90060285D01*
X126737714Y-90031714D01*
X126766285Y-90031714D01*
X126823428Y-90060285D01*
X126852000Y-90088857D01*
X126880571Y-90146000D01*
X126880571Y-90260285D01*
X126909142Y-90317428D01*
X126937714Y-90346000D01*
X126994857Y-90374571D01*
X127109142Y-90374571D01*
X127166285Y-90346000D01*
X127194857Y-90317428D01*
X127223428Y-90260285D01*
X127223428Y-90146000D01*
X127194857Y-90088857D01*
X127166285Y-90060285D01*
X127109142Y-90031714D01*
X126994857Y-90031714D01*
X126937714Y-90060285D01*
X126909142Y-90088857D01*
X126880571Y-90146000D01*
X126823428Y-89517428D02*
X127223428Y-89517428D01*
X126594857Y-89660285D02*
X127023428Y-89803142D01*
X127023428Y-89431714D01*
X129223428Y-90946000D02*
X128623428Y-90946000D01*
X128623428Y-90717428D01*
X128652000Y-90660285D01*
X128680571Y-90631714D01*
X128737714Y-90603142D01*
X128823428Y-90603142D01*
X128880571Y-90631714D01*
X128909142Y-90660285D01*
X128937714Y-90717428D01*
X128937714Y-90946000D01*
X128880571Y-90260285D02*
X128852000Y-90317428D01*
X128823428Y-90346000D01*
X128766285Y-90374571D01*
X128737714Y-90374571D01*
X128680571Y-90346000D01*
X128652000Y-90317428D01*
X128623428Y-90260285D01*
X128623428Y-90146000D01*
X128652000Y-90088857D01*
X128680571Y-90060285D01*
X128737714Y-90031714D01*
X128766285Y-90031714D01*
X128823428Y-90060285D01*
X128852000Y-90088857D01*
X128880571Y-90146000D01*
X128880571Y-90260285D01*
X128909142Y-90317428D01*
X128937714Y-90346000D01*
X128994857Y-90374571D01*
X129109142Y-90374571D01*
X129166285Y-90346000D01*
X129194857Y-90317428D01*
X129223428Y-90260285D01*
X129223428Y-90146000D01*
X129194857Y-90088857D01*
X129166285Y-90060285D01*
X129109142Y-90031714D01*
X128994857Y-90031714D01*
X128937714Y-90060285D01*
X128909142Y-90088857D01*
X128880571Y-90146000D01*
X128623428Y-89831714D02*
X128623428Y-89460285D01*
X128852000Y-89660285D01*
X128852000Y-89574571D01*
X128880571Y-89517428D01*
X128909142Y-89488857D01*
X128966285Y-89460285D01*
X129109142Y-89460285D01*
X129166285Y-89488857D01*
X129194857Y-89517428D01*
X129223428Y-89574571D01*
X129223428Y-89746000D01*
X129194857Y-89803142D01*
X129166285Y-89831714D01*
X131223428Y-90946000D02*
X130623428Y-90946000D01*
X130623428Y-90717428D01*
X130652000Y-90660285D01*
X130680571Y-90631714D01*
X130737714Y-90603142D01*
X130823428Y-90603142D01*
X130880571Y-90631714D01*
X130909142Y-90660285D01*
X130937714Y-90717428D01*
X130937714Y-90946000D01*
X130880571Y-90260285D02*
X130852000Y-90317428D01*
X130823428Y-90346000D01*
X130766285Y-90374571D01*
X130737714Y-90374571D01*
X130680571Y-90346000D01*
X130652000Y-90317428D01*
X130623428Y-90260285D01*
X130623428Y-90146000D01*
X130652000Y-90088857D01*
X130680571Y-90060285D01*
X130737714Y-90031714D01*
X130766285Y-90031714D01*
X130823428Y-90060285D01*
X130852000Y-90088857D01*
X130880571Y-90146000D01*
X130880571Y-90260285D01*
X130909142Y-90317428D01*
X130937714Y-90346000D01*
X130994857Y-90374571D01*
X131109142Y-90374571D01*
X131166285Y-90346000D01*
X131194857Y-90317428D01*
X131223428Y-90260285D01*
X131223428Y-90146000D01*
X131194857Y-90088857D01*
X131166285Y-90060285D01*
X131109142Y-90031714D01*
X130994857Y-90031714D01*
X130937714Y-90060285D01*
X130909142Y-90088857D01*
X130880571Y-90146000D01*
X130680571Y-89803142D02*
X130652000Y-89774571D01*
X130623428Y-89717428D01*
X130623428Y-89574571D01*
X130652000Y-89517428D01*
X130680571Y-89488857D01*
X130737714Y-89460285D01*
X130794857Y-89460285D01*
X130880571Y-89488857D01*
X131223428Y-89831714D01*
X131223428Y-89460285D01*
X133223428Y-90946000D02*
X132623428Y-90946000D01*
X132623428Y-90717428D01*
X132652000Y-90660285D01*
X132680571Y-90631714D01*
X132737714Y-90603142D01*
X132823428Y-90603142D01*
X132880571Y-90631714D01*
X132909142Y-90660285D01*
X132937714Y-90717428D01*
X132937714Y-90946000D01*
X132880571Y-90260285D02*
X132852000Y-90317428D01*
X132823428Y-90346000D01*
X132766285Y-90374571D01*
X132737714Y-90374571D01*
X132680571Y-90346000D01*
X132652000Y-90317428D01*
X132623428Y-90260285D01*
X132623428Y-90146000D01*
X132652000Y-90088857D01*
X132680571Y-90060285D01*
X132737714Y-90031714D01*
X132766285Y-90031714D01*
X132823428Y-90060285D01*
X132852000Y-90088857D01*
X132880571Y-90146000D01*
X132880571Y-90260285D01*
X132909142Y-90317428D01*
X132937714Y-90346000D01*
X132994857Y-90374571D01*
X133109142Y-90374571D01*
X133166285Y-90346000D01*
X133194857Y-90317428D01*
X133223428Y-90260285D01*
X133223428Y-90146000D01*
X133194857Y-90088857D01*
X133166285Y-90060285D01*
X133109142Y-90031714D01*
X132994857Y-90031714D01*
X132937714Y-90060285D01*
X132909142Y-90088857D01*
X132880571Y-90146000D01*
X133223428Y-89460285D02*
X133223428Y-89803142D01*
X133223428Y-89631714D02*
X132623428Y-89631714D01*
X132709142Y-89688857D01*
X132766285Y-89746000D01*
X132794857Y-89803142D01*
X135223428Y-90946000D02*
X134623428Y-90946000D01*
X134623428Y-90717428D01*
X134652000Y-90660285D01*
X134680571Y-90631714D01*
X134737714Y-90603142D01*
X134823428Y-90603142D01*
X134880571Y-90631714D01*
X134909142Y-90660285D01*
X134937714Y-90717428D01*
X134937714Y-90946000D01*
X134880571Y-90260285D02*
X134852000Y-90317428D01*
X134823428Y-90346000D01*
X134766285Y-90374571D01*
X134737714Y-90374571D01*
X134680571Y-90346000D01*
X134652000Y-90317428D01*
X134623428Y-90260285D01*
X134623428Y-90146000D01*
X134652000Y-90088857D01*
X134680571Y-90060285D01*
X134737714Y-90031714D01*
X134766285Y-90031714D01*
X134823428Y-90060285D01*
X134852000Y-90088857D01*
X134880571Y-90146000D01*
X134880571Y-90260285D01*
X134909142Y-90317428D01*
X134937714Y-90346000D01*
X134994857Y-90374571D01*
X135109142Y-90374571D01*
X135166285Y-90346000D01*
X135194857Y-90317428D01*
X135223428Y-90260285D01*
X135223428Y-90146000D01*
X135194857Y-90088857D01*
X135166285Y-90060285D01*
X135109142Y-90031714D01*
X134994857Y-90031714D01*
X134937714Y-90060285D01*
X134909142Y-90088857D01*
X134880571Y-90146000D01*
X134623428Y-89660285D02*
X134623428Y-89603142D01*
X134652000Y-89546000D01*
X134680571Y-89517428D01*
X134737714Y-89488857D01*
X134852000Y-89460285D01*
X134994857Y-89460285D01*
X135109142Y-89488857D01*
X135166285Y-89517428D01*
X135194857Y-89546000D01*
X135223428Y-89603142D01*
X135223428Y-89660285D01*
X135194857Y-89717428D01*
X135166285Y-89746000D01*
X135109142Y-89774571D01*
X134994857Y-89803142D01*
X134852000Y-89803142D01*
X134737714Y-89774571D01*
X134680571Y-89746000D01*
X134652000Y-89717428D01*
X134623428Y-89660285D01*
X137223428Y-90946000D02*
X136623428Y-90946000D01*
X136623428Y-90717428D01*
X136652000Y-90660285D01*
X136680571Y-90631714D01*
X136737714Y-90603142D01*
X136823428Y-90603142D01*
X136880571Y-90631714D01*
X136909142Y-90660285D01*
X136937714Y-90717428D01*
X136937714Y-90946000D01*
X136623428Y-90403142D02*
X136623428Y-90003142D01*
X137223428Y-90260285D01*
X137223428Y-89746000D02*
X137223428Y-89631714D01*
X137194857Y-89574571D01*
X137166285Y-89546000D01*
X137080571Y-89488857D01*
X136966285Y-89460285D01*
X136737714Y-89460285D01*
X136680571Y-89488857D01*
X136652000Y-89517428D01*
X136623428Y-89574571D01*
X136623428Y-89688857D01*
X136652000Y-89746000D01*
X136680571Y-89774571D01*
X136737714Y-89803142D01*
X136880571Y-89803142D01*
X136937714Y-89774571D01*
X136966285Y-89746000D01*
X136994857Y-89688857D01*
X136994857Y-89574571D01*
X136966285Y-89517428D01*
X136937714Y-89488857D01*
X136880571Y-89460285D01*
X139223428Y-90946000D02*
X138623428Y-90946000D01*
X138623428Y-90717428D01*
X138652000Y-90660285D01*
X138680571Y-90631714D01*
X138737714Y-90603142D01*
X138823428Y-90603142D01*
X138880571Y-90631714D01*
X138909142Y-90660285D01*
X138937714Y-90717428D01*
X138937714Y-90946000D01*
X138623428Y-90403142D02*
X138623428Y-90003142D01*
X139223428Y-90260285D01*
X138880571Y-89688857D02*
X138852000Y-89746000D01*
X138823428Y-89774571D01*
X138766285Y-89803142D01*
X138737714Y-89803142D01*
X138680571Y-89774571D01*
X138652000Y-89746000D01*
X138623428Y-89688857D01*
X138623428Y-89574571D01*
X138652000Y-89517428D01*
X138680571Y-89488857D01*
X138737714Y-89460285D01*
X138766285Y-89460285D01*
X138823428Y-89488857D01*
X138852000Y-89517428D01*
X138880571Y-89574571D01*
X138880571Y-89688857D01*
X138909142Y-89746000D01*
X138937714Y-89774571D01*
X138994857Y-89803142D01*
X139109142Y-89803142D01*
X139166285Y-89774571D01*
X139194857Y-89746000D01*
X139223428Y-89688857D01*
X139223428Y-89574571D01*
X139194857Y-89517428D01*
X139166285Y-89488857D01*
X139109142Y-89460285D01*
X138994857Y-89460285D01*
X138937714Y-89488857D01*
X138909142Y-89517428D01*
X138880571Y-89574571D01*
X141223428Y-90946000D02*
X140623428Y-90946000D01*
X140623428Y-90717428D01*
X140652000Y-90660285D01*
X140680571Y-90631714D01*
X140737714Y-90603142D01*
X140823428Y-90603142D01*
X140880571Y-90631714D01*
X140909142Y-90660285D01*
X140937714Y-90717428D01*
X140937714Y-90946000D01*
X140623428Y-90403142D02*
X140623428Y-90003142D01*
X141223428Y-90260285D01*
X140623428Y-89831714D02*
X140623428Y-89431714D01*
X141223428Y-89688857D01*
X144445285Y-130024228D02*
X144788142Y-130024228D01*
X144616714Y-130624228D02*
X144616714Y-130024228D01*
X144988142Y-130624228D02*
X144988142Y-130024228D01*
X145131000Y-130024228D01*
X145216714Y-130052800D01*
X145273857Y-130109942D01*
X145302428Y-130167085D01*
X145331000Y-130281371D01*
X145331000Y-130367085D01*
X145302428Y-130481371D01*
X145273857Y-130538514D01*
X145216714Y-130595657D01*
X145131000Y-130624228D01*
X144988142Y-130624228D01*
X145588142Y-130624228D02*
X145588142Y-130024228D01*
X101890800Y-130522628D02*
X101890800Y-129922628D01*
X102119371Y-129922628D01*
X102176514Y-129951200D01*
X102205085Y-129979771D01*
X102233657Y-130036914D01*
X102233657Y-130122628D01*
X102205085Y-130179771D01*
X102176514Y-130208342D01*
X102119371Y-130236914D01*
X101890800Y-130236914D01*
X102462228Y-129979771D02*
X102490800Y-129951200D01*
X102547942Y-129922628D01*
X102690800Y-129922628D01*
X102747942Y-129951200D01*
X102776514Y-129979771D01*
X102805085Y-130036914D01*
X102805085Y-130094057D01*
X102776514Y-130179771D01*
X102433657Y-130522628D01*
X102805085Y-130522628D01*
X103319371Y-129922628D02*
X103205085Y-129922628D01*
X103147942Y-129951200D01*
X103119371Y-129979771D01*
X103062228Y-130065485D01*
X103033657Y-130179771D01*
X103033657Y-130408342D01*
X103062228Y-130465485D01*
X103090800Y-130494057D01*
X103147942Y-130522628D01*
X103262228Y-130522628D01*
X103319371Y-130494057D01*
X103347942Y-130465485D01*
X103376514Y-130408342D01*
X103376514Y-130265485D01*
X103347942Y-130208342D01*
X103319371Y-130179771D01*
X103262228Y-130151200D01*
X103147942Y-130151200D01*
X103090800Y-130179771D01*
X103062228Y-130208342D01*
X103033657Y-130265485D01*
X107020228Y-129071400D02*
X106420228Y-129071400D01*
X106420228Y-128842828D01*
X106448800Y-128785685D01*
X106477371Y-128757114D01*
X106534514Y-128728542D01*
X106620228Y-128728542D01*
X106677371Y-128757114D01*
X106705942Y-128785685D01*
X106734514Y-128842828D01*
X106734514Y-129071400D01*
X106477371Y-128499971D02*
X106448800Y-128471400D01*
X106420228Y-128414257D01*
X106420228Y-128271400D01*
X106448800Y-128214257D01*
X106477371Y-128185685D01*
X106534514Y-128157114D01*
X106591657Y-128157114D01*
X106677371Y-128185685D01*
X107020228Y-128528542D01*
X107020228Y-128157114D01*
X106420228Y-127957114D02*
X106420228Y-127557114D01*
X107020228Y-127814257D01*
X109020228Y-129071400D02*
X108420228Y-129071400D01*
X108420228Y-128842828D01*
X108448800Y-128785685D01*
X108477371Y-128757114D01*
X108534514Y-128728542D01*
X108620228Y-128728542D01*
X108677371Y-128757114D01*
X108705942Y-128785685D01*
X108734514Y-128842828D01*
X108734514Y-129071400D01*
X108477371Y-128499971D02*
X108448800Y-128471400D01*
X108420228Y-128414257D01*
X108420228Y-128271400D01*
X108448800Y-128214257D01*
X108477371Y-128185685D01*
X108534514Y-128157114D01*
X108591657Y-128157114D01*
X108677371Y-128185685D01*
X109020228Y-128528542D01*
X109020228Y-128157114D01*
X108677371Y-127814257D02*
X108648800Y-127871400D01*
X108620228Y-127899971D01*
X108563085Y-127928542D01*
X108534514Y-127928542D01*
X108477371Y-127899971D01*
X108448800Y-127871400D01*
X108420228Y-127814257D01*
X108420228Y-127699971D01*
X108448800Y-127642828D01*
X108477371Y-127614257D01*
X108534514Y-127585685D01*
X108563085Y-127585685D01*
X108620228Y-127614257D01*
X108648800Y-127642828D01*
X108677371Y-127699971D01*
X108677371Y-127814257D01*
X108705942Y-127871400D01*
X108734514Y-127899971D01*
X108791657Y-127928542D01*
X108905942Y-127928542D01*
X108963085Y-127899971D01*
X108991657Y-127871400D01*
X109020228Y-127814257D01*
X109020228Y-127699971D01*
X108991657Y-127642828D01*
X108963085Y-127614257D01*
X108905942Y-127585685D01*
X108791657Y-127585685D01*
X108734514Y-127614257D01*
X108705942Y-127642828D01*
X108677371Y-127699971D01*
X111020228Y-129071400D02*
X110420228Y-129071400D01*
X110420228Y-128842828D01*
X110448800Y-128785685D01*
X110477371Y-128757114D01*
X110534514Y-128728542D01*
X110620228Y-128728542D01*
X110677371Y-128757114D01*
X110705942Y-128785685D01*
X110734514Y-128842828D01*
X110734514Y-129071400D01*
X110477371Y-128499971D02*
X110448800Y-128471400D01*
X110420228Y-128414257D01*
X110420228Y-128271400D01*
X110448800Y-128214257D01*
X110477371Y-128185685D01*
X110534514Y-128157114D01*
X110591657Y-128157114D01*
X110677371Y-128185685D01*
X111020228Y-128528542D01*
X111020228Y-128157114D01*
X111020228Y-127871400D02*
X111020228Y-127757114D01*
X110991657Y-127699971D01*
X110963085Y-127671400D01*
X110877371Y-127614257D01*
X110763085Y-127585685D01*
X110534514Y-127585685D01*
X110477371Y-127614257D01*
X110448800Y-127642828D01*
X110420228Y-127699971D01*
X110420228Y-127814257D01*
X110448800Y-127871400D01*
X110477371Y-127899971D01*
X110534514Y-127928542D01*
X110677371Y-127928542D01*
X110734514Y-127899971D01*
X110763085Y-127871400D01*
X110791657Y-127814257D01*
X110791657Y-127699971D01*
X110763085Y-127642828D01*
X110734514Y-127614257D01*
X110677371Y-127585685D01*
X113020228Y-129071400D02*
X112420228Y-129071400D01*
X112420228Y-128842828D01*
X112448800Y-128785685D01*
X112477371Y-128757114D01*
X112534514Y-128728542D01*
X112620228Y-128728542D01*
X112677371Y-128757114D01*
X112705942Y-128785685D01*
X112734514Y-128842828D01*
X112734514Y-129071400D01*
X112420228Y-128528542D02*
X112420228Y-128157114D01*
X112648800Y-128357114D01*
X112648800Y-128271400D01*
X112677371Y-128214257D01*
X112705942Y-128185685D01*
X112763085Y-128157114D01*
X112905942Y-128157114D01*
X112963085Y-128185685D01*
X112991657Y-128214257D01*
X113020228Y-128271400D01*
X113020228Y-128442828D01*
X112991657Y-128499971D01*
X112963085Y-128528542D01*
X112420228Y-127785685D02*
X112420228Y-127728542D01*
X112448800Y-127671400D01*
X112477371Y-127642828D01*
X112534514Y-127614257D01*
X112648800Y-127585685D01*
X112791657Y-127585685D01*
X112905942Y-127614257D01*
X112963085Y-127642828D01*
X112991657Y-127671400D01*
X113020228Y-127728542D01*
X113020228Y-127785685D01*
X112991657Y-127842828D01*
X112963085Y-127871400D01*
X112905942Y-127899971D01*
X112791657Y-127928542D01*
X112648800Y-127928542D01*
X112534514Y-127899971D01*
X112477371Y-127871400D01*
X112448800Y-127842828D01*
X112420228Y-127785685D01*
X115020228Y-129071400D02*
X114420228Y-129071400D01*
X114420228Y-128842828D01*
X114448800Y-128785685D01*
X114477371Y-128757114D01*
X114534514Y-128728542D01*
X114620228Y-128728542D01*
X114677371Y-128757114D01*
X114705942Y-128785685D01*
X114734514Y-128842828D01*
X114734514Y-129071400D01*
X114420228Y-128528542D02*
X114420228Y-128157114D01*
X114648800Y-128357114D01*
X114648800Y-128271400D01*
X114677371Y-128214257D01*
X114705942Y-128185685D01*
X114763085Y-128157114D01*
X114905942Y-128157114D01*
X114963085Y-128185685D01*
X114991657Y-128214257D01*
X115020228Y-128271400D01*
X115020228Y-128442828D01*
X114991657Y-128499971D01*
X114963085Y-128528542D01*
X115020228Y-127585685D02*
X115020228Y-127928542D01*
X115020228Y-127757114D02*
X114420228Y-127757114D01*
X114505942Y-127814257D01*
X114563085Y-127871400D01*
X114591657Y-127928542D01*
X117020228Y-129071400D02*
X116420228Y-129071400D01*
X116420228Y-128842828D01*
X116448800Y-128785685D01*
X116477371Y-128757114D01*
X116534514Y-128728542D01*
X116620228Y-128728542D01*
X116677371Y-128757114D01*
X116705942Y-128785685D01*
X116734514Y-128842828D01*
X116734514Y-129071400D01*
X116420228Y-128528542D02*
X116420228Y-128157114D01*
X116648800Y-128357114D01*
X116648800Y-128271400D01*
X116677371Y-128214257D01*
X116705942Y-128185685D01*
X116763085Y-128157114D01*
X116905942Y-128157114D01*
X116963085Y-128185685D01*
X116991657Y-128214257D01*
X117020228Y-128271400D01*
X117020228Y-128442828D01*
X116991657Y-128499971D01*
X116963085Y-128528542D01*
X116477371Y-127928542D02*
X116448800Y-127899971D01*
X116420228Y-127842828D01*
X116420228Y-127699971D01*
X116448800Y-127642828D01*
X116477371Y-127614257D01*
X116534514Y-127585685D01*
X116591657Y-127585685D01*
X116677371Y-127614257D01*
X117020228Y-127957114D01*
X117020228Y-127585685D01*
X119020228Y-129071400D02*
X118420228Y-129071400D01*
X118420228Y-128842828D01*
X118448800Y-128785685D01*
X118477371Y-128757114D01*
X118534514Y-128728542D01*
X118620228Y-128728542D01*
X118677371Y-128757114D01*
X118705942Y-128785685D01*
X118734514Y-128842828D01*
X118734514Y-129071400D01*
X118420228Y-128528542D02*
X118420228Y-128157114D01*
X118648800Y-128357114D01*
X118648800Y-128271400D01*
X118677371Y-128214257D01*
X118705942Y-128185685D01*
X118763085Y-128157114D01*
X118905942Y-128157114D01*
X118963085Y-128185685D01*
X118991657Y-128214257D01*
X119020228Y-128271400D01*
X119020228Y-128442828D01*
X118991657Y-128499971D01*
X118963085Y-128528542D01*
X118420228Y-127957114D02*
X118420228Y-127585685D01*
X118648800Y-127785685D01*
X118648800Y-127699971D01*
X118677371Y-127642828D01*
X118705942Y-127614257D01*
X118763085Y-127585685D01*
X118905942Y-127585685D01*
X118963085Y-127614257D01*
X118991657Y-127642828D01*
X119020228Y-127699971D01*
X119020228Y-127871400D01*
X118991657Y-127928542D01*
X118963085Y-127957114D01*
X121020228Y-129071400D02*
X120420228Y-129071400D01*
X120420228Y-128842828D01*
X120448800Y-128785685D01*
X120477371Y-128757114D01*
X120534514Y-128728542D01*
X120620228Y-128728542D01*
X120677371Y-128757114D01*
X120705942Y-128785685D01*
X120734514Y-128842828D01*
X120734514Y-129071400D01*
X120420228Y-128528542D02*
X120420228Y-128157114D01*
X120648800Y-128357114D01*
X120648800Y-128271400D01*
X120677371Y-128214257D01*
X120705942Y-128185685D01*
X120763085Y-128157114D01*
X120905942Y-128157114D01*
X120963085Y-128185685D01*
X120991657Y-128214257D01*
X121020228Y-128271400D01*
X121020228Y-128442828D01*
X120991657Y-128499971D01*
X120963085Y-128528542D01*
X120620228Y-127642828D02*
X121020228Y-127642828D01*
X120391657Y-127785685D02*
X120820228Y-127928542D01*
X120820228Y-127557114D01*
X123020228Y-129071400D02*
X122420228Y-129071400D01*
X122420228Y-128842828D01*
X122448800Y-128785685D01*
X122477371Y-128757114D01*
X122534514Y-128728542D01*
X122620228Y-128728542D01*
X122677371Y-128757114D01*
X122705942Y-128785685D01*
X122734514Y-128842828D01*
X122734514Y-129071400D01*
X122420228Y-128528542D02*
X122420228Y-128157114D01*
X122648800Y-128357114D01*
X122648800Y-128271400D01*
X122677371Y-128214257D01*
X122705942Y-128185685D01*
X122763085Y-128157114D01*
X122905942Y-128157114D01*
X122963085Y-128185685D01*
X122991657Y-128214257D01*
X123020228Y-128271400D01*
X123020228Y-128442828D01*
X122991657Y-128499971D01*
X122963085Y-128528542D01*
X122420228Y-127614257D02*
X122420228Y-127899971D01*
X122705942Y-127928542D01*
X122677371Y-127899971D01*
X122648800Y-127842828D01*
X122648800Y-127699971D01*
X122677371Y-127642828D01*
X122705942Y-127614257D01*
X122763085Y-127585685D01*
X122905942Y-127585685D01*
X122963085Y-127614257D01*
X122991657Y-127642828D01*
X123020228Y-127699971D01*
X123020228Y-127842828D01*
X122991657Y-127899971D01*
X122963085Y-127928542D01*
X125020228Y-129071400D02*
X124420228Y-129071400D01*
X124420228Y-128842828D01*
X124448800Y-128785685D01*
X124477371Y-128757114D01*
X124534514Y-128728542D01*
X124620228Y-128728542D01*
X124677371Y-128757114D01*
X124705942Y-128785685D01*
X124734514Y-128842828D01*
X124734514Y-129071400D01*
X124420228Y-128528542D02*
X124420228Y-128157114D01*
X124648800Y-128357114D01*
X124648800Y-128271400D01*
X124677371Y-128214257D01*
X124705942Y-128185685D01*
X124763085Y-128157114D01*
X124905942Y-128157114D01*
X124963085Y-128185685D01*
X124991657Y-128214257D01*
X125020228Y-128271400D01*
X125020228Y-128442828D01*
X124991657Y-128499971D01*
X124963085Y-128528542D01*
X124420228Y-127642828D02*
X124420228Y-127757114D01*
X124448800Y-127814257D01*
X124477371Y-127842828D01*
X124563085Y-127899971D01*
X124677371Y-127928542D01*
X124905942Y-127928542D01*
X124963085Y-127899971D01*
X124991657Y-127871400D01*
X125020228Y-127814257D01*
X125020228Y-127699971D01*
X124991657Y-127642828D01*
X124963085Y-127614257D01*
X124905942Y-127585685D01*
X124763085Y-127585685D01*
X124705942Y-127614257D01*
X124677371Y-127642828D01*
X124648800Y-127699971D01*
X124648800Y-127814257D01*
X124677371Y-127871400D01*
X124705942Y-127899971D01*
X124763085Y-127928542D01*
X127020228Y-129071400D02*
X126420228Y-129071400D01*
X126420228Y-128842828D01*
X126448800Y-128785685D01*
X126477371Y-128757114D01*
X126534514Y-128728542D01*
X126620228Y-128728542D01*
X126677371Y-128757114D01*
X126705942Y-128785685D01*
X126734514Y-128842828D01*
X126734514Y-129071400D01*
X126420228Y-128528542D02*
X126420228Y-128157114D01*
X126648800Y-128357114D01*
X126648800Y-128271400D01*
X126677371Y-128214257D01*
X126705942Y-128185685D01*
X126763085Y-128157114D01*
X126905942Y-128157114D01*
X126963085Y-128185685D01*
X126991657Y-128214257D01*
X127020228Y-128271400D01*
X127020228Y-128442828D01*
X126991657Y-128499971D01*
X126963085Y-128528542D01*
X127020228Y-127871400D02*
X127020228Y-127757114D01*
X126991657Y-127699971D01*
X126963085Y-127671400D01*
X126877371Y-127614257D01*
X126763085Y-127585685D01*
X126534514Y-127585685D01*
X126477371Y-127614257D01*
X126448800Y-127642828D01*
X126420228Y-127699971D01*
X126420228Y-127814257D01*
X126448800Y-127871400D01*
X126477371Y-127899971D01*
X126534514Y-127928542D01*
X126677371Y-127928542D01*
X126734514Y-127899971D01*
X126763085Y-127871400D01*
X126791657Y-127814257D01*
X126791657Y-127699971D01*
X126763085Y-127642828D01*
X126734514Y-127614257D01*
X126677371Y-127585685D01*
X129020228Y-129071400D02*
X128420228Y-129071400D01*
X128420228Y-128842828D01*
X128448800Y-128785685D01*
X128477371Y-128757114D01*
X128534514Y-128728542D01*
X128620228Y-128728542D01*
X128677371Y-128757114D01*
X128705942Y-128785685D01*
X128734514Y-128842828D01*
X128734514Y-129071400D01*
X128620228Y-128214257D02*
X129020228Y-128214257D01*
X128391657Y-128357114D02*
X128820228Y-128499971D01*
X128820228Y-128128542D01*
X128420228Y-127785685D02*
X128420228Y-127728542D01*
X128448800Y-127671400D01*
X128477371Y-127642828D01*
X128534514Y-127614257D01*
X128648800Y-127585685D01*
X128791657Y-127585685D01*
X128905942Y-127614257D01*
X128963085Y-127642828D01*
X128991657Y-127671400D01*
X129020228Y-127728542D01*
X129020228Y-127785685D01*
X128991657Y-127842828D01*
X128963085Y-127871400D01*
X128905942Y-127899971D01*
X128791657Y-127928542D01*
X128648800Y-127928542D01*
X128534514Y-127899971D01*
X128477371Y-127871400D01*
X128448800Y-127842828D01*
X128420228Y-127785685D01*
X131020228Y-129071400D02*
X130420228Y-129071400D01*
X130420228Y-128842828D01*
X130448800Y-128785685D01*
X130477371Y-128757114D01*
X130534514Y-128728542D01*
X130620228Y-128728542D01*
X130677371Y-128757114D01*
X130705942Y-128785685D01*
X130734514Y-128842828D01*
X130734514Y-129071400D01*
X130620228Y-128214257D02*
X131020228Y-128214257D01*
X130391657Y-128357114D02*
X130820228Y-128499971D01*
X130820228Y-128128542D01*
X131020228Y-127585685D02*
X131020228Y-127928542D01*
X131020228Y-127757114D02*
X130420228Y-127757114D01*
X130505942Y-127814257D01*
X130563085Y-127871400D01*
X130591657Y-127928542D01*
X133020228Y-129071400D02*
X132420228Y-129071400D01*
X132420228Y-128842828D01*
X132448800Y-128785685D01*
X132477371Y-128757114D01*
X132534514Y-128728542D01*
X132620228Y-128728542D01*
X132677371Y-128757114D01*
X132705942Y-128785685D01*
X132734514Y-128842828D01*
X132734514Y-129071400D01*
X132620228Y-128214257D02*
X133020228Y-128214257D01*
X132391657Y-128357114D02*
X132820228Y-128499971D01*
X132820228Y-128128542D01*
X132477371Y-127928542D02*
X132448800Y-127899971D01*
X132420228Y-127842828D01*
X132420228Y-127699971D01*
X132448800Y-127642828D01*
X132477371Y-127614257D01*
X132534514Y-127585685D01*
X132591657Y-127585685D01*
X132677371Y-127614257D01*
X133020228Y-127957114D01*
X133020228Y-127585685D01*
X135020228Y-129071400D02*
X134420228Y-129071400D01*
X134420228Y-128842828D01*
X134448800Y-128785685D01*
X134477371Y-128757114D01*
X134534514Y-128728542D01*
X134620228Y-128728542D01*
X134677371Y-128757114D01*
X134705942Y-128785685D01*
X134734514Y-128842828D01*
X134734514Y-129071400D01*
X134620228Y-128214257D02*
X135020228Y-128214257D01*
X134391657Y-128357114D02*
X134820228Y-128499971D01*
X134820228Y-128128542D01*
X134420228Y-127957114D02*
X134420228Y-127585685D01*
X134648800Y-127785685D01*
X134648800Y-127699971D01*
X134677371Y-127642828D01*
X134705942Y-127614257D01*
X134763085Y-127585685D01*
X134905942Y-127585685D01*
X134963085Y-127614257D01*
X134991657Y-127642828D01*
X135020228Y-127699971D01*
X135020228Y-127871400D01*
X134991657Y-127928542D01*
X134963085Y-127957114D01*
X137020228Y-129071400D02*
X136420228Y-129071400D01*
X136420228Y-128842828D01*
X136448800Y-128785685D01*
X136477371Y-128757114D01*
X136534514Y-128728542D01*
X136620228Y-128728542D01*
X136677371Y-128757114D01*
X136705942Y-128785685D01*
X136734514Y-128842828D01*
X136734514Y-129071400D01*
X136620228Y-128214257D02*
X137020228Y-128214257D01*
X136391657Y-128357114D02*
X136820228Y-128499971D01*
X136820228Y-128128542D01*
X136620228Y-127642828D02*
X137020228Y-127642828D01*
X136391657Y-127785685D02*
X136820228Y-127928542D01*
X136820228Y-127557114D01*
X139020228Y-129071400D02*
X138420228Y-129071400D01*
X138420228Y-128842828D01*
X138448800Y-128785685D01*
X138477371Y-128757114D01*
X138534514Y-128728542D01*
X138620228Y-128728542D01*
X138677371Y-128757114D01*
X138705942Y-128785685D01*
X138734514Y-128842828D01*
X138734514Y-129071400D01*
X138620228Y-128214257D02*
X139020228Y-128214257D01*
X138391657Y-128357114D02*
X138820228Y-128499971D01*
X138820228Y-128128542D01*
X138420228Y-127614257D02*
X138420228Y-127899971D01*
X138705942Y-127928542D01*
X138677371Y-127899971D01*
X138648800Y-127842828D01*
X138648800Y-127699971D01*
X138677371Y-127642828D01*
X138705942Y-127614257D01*
X138763085Y-127585685D01*
X138905942Y-127585685D01*
X138963085Y-127614257D01*
X138991657Y-127642828D01*
X139020228Y-127699971D01*
X139020228Y-127842828D01*
X138991657Y-127899971D01*
X138963085Y-127928542D01*
X140420228Y-129071400D02*
X140420228Y-128728542D01*
X141020228Y-128899971D02*
X140420228Y-128899971D01*
X140963085Y-128185685D02*
X140991657Y-128214257D01*
X141020228Y-128299971D01*
X141020228Y-128357114D01*
X140991657Y-128442828D01*
X140934514Y-128499971D01*
X140877371Y-128528542D01*
X140763085Y-128557114D01*
X140677371Y-128557114D01*
X140563085Y-128528542D01*
X140505942Y-128499971D01*
X140448800Y-128442828D01*
X140420228Y-128357114D01*
X140420228Y-128299971D01*
X140448800Y-128214257D01*
X140477371Y-128185685D01*
X141020228Y-127928542D02*
X140420228Y-127928542D01*
X141020228Y-127585685D02*
X140677371Y-127842828D01*
X140420228Y-127585685D02*
X140763085Y-127928542D01*
X142353000Y-90542228D02*
X142353000Y-89942228D01*
X142581571Y-89942228D01*
X142638714Y-89970800D01*
X142667285Y-89999371D01*
X142695857Y-90056514D01*
X142695857Y-90142228D01*
X142667285Y-90199371D01*
X142638714Y-90227942D01*
X142581571Y-90256514D01*
X142353000Y-90256514D01*
X142895857Y-89942228D02*
X143295857Y-89942228D01*
X143038714Y-90542228D01*
X143467285Y-89942228D02*
X143838714Y-89942228D01*
X143638714Y-90170800D01*
X143724428Y-90170800D01*
X143781571Y-90199371D01*
X143810142Y-90227942D01*
X143838714Y-90285085D01*
X143838714Y-90427942D01*
X143810142Y-90485085D01*
X143781571Y-90513657D01*
X143724428Y-90542228D01*
X143553000Y-90542228D01*
X143495857Y-90513657D01*
X143467285Y-90485085D01*
X142353000Y-92542228D02*
X142353000Y-91942228D01*
X142581571Y-91942228D01*
X142638714Y-91970800D01*
X142667285Y-91999371D01*
X142695857Y-92056514D01*
X142695857Y-92142228D01*
X142667285Y-92199371D01*
X142638714Y-92227942D01*
X142581571Y-92256514D01*
X142353000Y-92256514D01*
X142895857Y-91942228D02*
X143295857Y-91942228D01*
X143038714Y-92542228D01*
X143495857Y-91999371D02*
X143524428Y-91970800D01*
X143581571Y-91942228D01*
X143724428Y-91942228D01*
X143781571Y-91970800D01*
X143810142Y-91999371D01*
X143838714Y-92056514D01*
X143838714Y-92113657D01*
X143810142Y-92199371D01*
X143467285Y-92542228D01*
X143838714Y-92542228D01*
X142353000Y-94542228D02*
X142353000Y-93942228D01*
X142581571Y-93942228D01*
X142638714Y-93970800D01*
X142667285Y-93999371D01*
X142695857Y-94056514D01*
X142695857Y-94142228D01*
X142667285Y-94199371D01*
X142638714Y-94227942D01*
X142581571Y-94256514D01*
X142353000Y-94256514D01*
X142895857Y-93942228D02*
X143295857Y-93942228D01*
X143038714Y-94542228D01*
X143838714Y-94542228D02*
X143495857Y-94542228D01*
X143667285Y-94542228D02*
X143667285Y-93942228D01*
X143610142Y-94027942D01*
X143553000Y-94085085D01*
X143495857Y-94113657D01*
X142353000Y-96542228D02*
X142353000Y-95942228D01*
X142581571Y-95942228D01*
X142638714Y-95970800D01*
X142667285Y-95999371D01*
X142695857Y-96056514D01*
X142695857Y-96142228D01*
X142667285Y-96199371D01*
X142638714Y-96227942D01*
X142581571Y-96256514D01*
X142353000Y-96256514D01*
X142895857Y-95942228D02*
X143295857Y-95942228D01*
X143038714Y-96542228D01*
X143638714Y-95942228D02*
X143695857Y-95942228D01*
X143753000Y-95970800D01*
X143781571Y-95999371D01*
X143810142Y-96056514D01*
X143838714Y-96170800D01*
X143838714Y-96313657D01*
X143810142Y-96427942D01*
X143781571Y-96485085D01*
X143753000Y-96513657D01*
X143695857Y-96542228D01*
X143638714Y-96542228D01*
X143581571Y-96513657D01*
X143553000Y-96485085D01*
X143524428Y-96427942D01*
X143495857Y-96313657D01*
X143495857Y-96170800D01*
X143524428Y-96056514D01*
X143553000Y-95999371D01*
X143581571Y-95970800D01*
X143638714Y-95942228D01*
X142353000Y-98542228D02*
X142353000Y-97942228D01*
X142581571Y-97942228D01*
X142638714Y-97970800D01*
X142667285Y-97999371D01*
X142695857Y-98056514D01*
X142695857Y-98142228D01*
X142667285Y-98199371D01*
X142638714Y-98227942D01*
X142581571Y-98256514D01*
X142353000Y-98256514D01*
X143210142Y-97942228D02*
X143095857Y-97942228D01*
X143038714Y-97970800D01*
X143010142Y-97999371D01*
X142953000Y-98085085D01*
X142924428Y-98199371D01*
X142924428Y-98427942D01*
X142953000Y-98485085D01*
X142981571Y-98513657D01*
X143038714Y-98542228D01*
X143153000Y-98542228D01*
X143210142Y-98513657D01*
X143238714Y-98485085D01*
X143267285Y-98427942D01*
X143267285Y-98285085D01*
X143238714Y-98227942D01*
X143210142Y-98199371D01*
X143153000Y-98170800D01*
X143038714Y-98170800D01*
X142981571Y-98199371D01*
X142953000Y-98227942D01*
X142924428Y-98285085D01*
X143553000Y-98542228D02*
X143667285Y-98542228D01*
X143724428Y-98513657D01*
X143753000Y-98485085D01*
X143810142Y-98399371D01*
X143838714Y-98285085D01*
X143838714Y-98056514D01*
X143810142Y-97999371D01*
X143781571Y-97970800D01*
X143724428Y-97942228D01*
X143610142Y-97942228D01*
X143553000Y-97970800D01*
X143524428Y-97999371D01*
X143495857Y-98056514D01*
X143495857Y-98199371D01*
X143524428Y-98256514D01*
X143553000Y-98285085D01*
X143610142Y-98313657D01*
X143724428Y-98313657D01*
X143781571Y-98285085D01*
X143810142Y-98256514D01*
X143838714Y-98199371D01*
X142353000Y-100542228D02*
X142353000Y-99942228D01*
X142581571Y-99942228D01*
X142638714Y-99970800D01*
X142667285Y-99999371D01*
X142695857Y-100056514D01*
X142695857Y-100142228D01*
X142667285Y-100199371D01*
X142638714Y-100227942D01*
X142581571Y-100256514D01*
X142353000Y-100256514D01*
X143210142Y-99942228D02*
X143095857Y-99942228D01*
X143038714Y-99970800D01*
X143010142Y-99999371D01*
X142953000Y-100085085D01*
X142924428Y-100199371D01*
X142924428Y-100427942D01*
X142953000Y-100485085D01*
X142981571Y-100513657D01*
X143038714Y-100542228D01*
X143153000Y-100542228D01*
X143210142Y-100513657D01*
X143238714Y-100485085D01*
X143267285Y-100427942D01*
X143267285Y-100285085D01*
X143238714Y-100227942D01*
X143210142Y-100199371D01*
X143153000Y-100170800D01*
X143038714Y-100170800D01*
X142981571Y-100199371D01*
X142953000Y-100227942D01*
X142924428Y-100285085D01*
X143781571Y-99942228D02*
X143667285Y-99942228D01*
X143610142Y-99970800D01*
X143581571Y-99999371D01*
X143524428Y-100085085D01*
X143495857Y-100199371D01*
X143495857Y-100427942D01*
X143524428Y-100485085D01*
X143553000Y-100513657D01*
X143610142Y-100542228D01*
X143724428Y-100542228D01*
X143781571Y-100513657D01*
X143810142Y-100485085D01*
X143838714Y-100427942D01*
X143838714Y-100285085D01*
X143810142Y-100227942D01*
X143781571Y-100199371D01*
X143724428Y-100170800D01*
X143610142Y-100170800D01*
X143553000Y-100199371D01*
X143524428Y-100227942D01*
X143495857Y-100285085D01*
X142353000Y-102542228D02*
X142353000Y-101942228D01*
X142581571Y-101942228D01*
X142638714Y-101970800D01*
X142667285Y-101999371D01*
X142695857Y-102056514D01*
X142695857Y-102142228D01*
X142667285Y-102199371D01*
X142638714Y-102227942D01*
X142581571Y-102256514D01*
X142353000Y-102256514D01*
X143210142Y-101942228D02*
X143095857Y-101942228D01*
X143038714Y-101970800D01*
X143010142Y-101999371D01*
X142953000Y-102085085D01*
X142924428Y-102199371D01*
X142924428Y-102427942D01*
X142953000Y-102485085D01*
X142981571Y-102513657D01*
X143038714Y-102542228D01*
X143153000Y-102542228D01*
X143210142Y-102513657D01*
X143238714Y-102485085D01*
X143267285Y-102427942D01*
X143267285Y-102285085D01*
X143238714Y-102227942D01*
X143210142Y-102199371D01*
X143153000Y-102170800D01*
X143038714Y-102170800D01*
X142981571Y-102199371D01*
X142953000Y-102227942D01*
X142924428Y-102285085D01*
X143810142Y-101942228D02*
X143524428Y-101942228D01*
X143495857Y-102227942D01*
X143524428Y-102199371D01*
X143581571Y-102170800D01*
X143724428Y-102170800D01*
X143781571Y-102199371D01*
X143810142Y-102227942D01*
X143838714Y-102285085D01*
X143838714Y-102427942D01*
X143810142Y-102485085D01*
X143781571Y-102513657D01*
X143724428Y-102542228D01*
X143581571Y-102542228D01*
X143524428Y-102513657D01*
X143495857Y-102485085D01*
X142353000Y-104542228D02*
X142353000Y-103942228D01*
X142581571Y-103942228D01*
X142638714Y-103970800D01*
X142667285Y-103999371D01*
X142695857Y-104056514D01*
X142695857Y-104142228D01*
X142667285Y-104199371D01*
X142638714Y-104227942D01*
X142581571Y-104256514D01*
X142353000Y-104256514D01*
X143210142Y-103942228D02*
X143095857Y-103942228D01*
X143038714Y-103970800D01*
X143010142Y-103999371D01*
X142953000Y-104085085D01*
X142924428Y-104199371D01*
X142924428Y-104427942D01*
X142953000Y-104485085D01*
X142981571Y-104513657D01*
X143038714Y-104542228D01*
X143153000Y-104542228D01*
X143210142Y-104513657D01*
X143238714Y-104485085D01*
X143267285Y-104427942D01*
X143267285Y-104285085D01*
X143238714Y-104227942D01*
X143210142Y-104199371D01*
X143153000Y-104170800D01*
X143038714Y-104170800D01*
X142981571Y-104199371D01*
X142953000Y-104227942D01*
X142924428Y-104285085D01*
X143781571Y-104142228D02*
X143781571Y-104542228D01*
X143638714Y-103913657D02*
X143495857Y-104342228D01*
X143867285Y-104342228D01*
X142353000Y-106542228D02*
X142353000Y-105942228D01*
X142581571Y-105942228D01*
X142638714Y-105970800D01*
X142667285Y-105999371D01*
X142695857Y-106056514D01*
X142695857Y-106142228D01*
X142667285Y-106199371D01*
X142638714Y-106227942D01*
X142581571Y-106256514D01*
X142353000Y-106256514D01*
X143210142Y-105942228D02*
X143095857Y-105942228D01*
X143038714Y-105970800D01*
X143010142Y-105999371D01*
X142953000Y-106085085D01*
X142924428Y-106199371D01*
X142924428Y-106427942D01*
X142953000Y-106485085D01*
X142981571Y-106513657D01*
X143038714Y-106542228D01*
X143153000Y-106542228D01*
X143210142Y-106513657D01*
X143238714Y-106485085D01*
X143267285Y-106427942D01*
X143267285Y-106285085D01*
X143238714Y-106227942D01*
X143210142Y-106199371D01*
X143153000Y-106170800D01*
X143038714Y-106170800D01*
X142981571Y-106199371D01*
X142953000Y-106227942D01*
X142924428Y-106285085D01*
X143467285Y-105942228D02*
X143838714Y-105942228D01*
X143638714Y-106170800D01*
X143724428Y-106170800D01*
X143781571Y-106199371D01*
X143810142Y-106227942D01*
X143838714Y-106285085D01*
X143838714Y-106427942D01*
X143810142Y-106485085D01*
X143781571Y-106513657D01*
X143724428Y-106542228D01*
X143553000Y-106542228D01*
X143495857Y-106513657D01*
X143467285Y-106485085D01*
X142353000Y-108542228D02*
X142353000Y-107942228D01*
X142581571Y-107942228D01*
X142638714Y-107970800D01*
X142667285Y-107999371D01*
X142695857Y-108056514D01*
X142695857Y-108142228D01*
X142667285Y-108199371D01*
X142638714Y-108227942D01*
X142581571Y-108256514D01*
X142353000Y-108256514D01*
X143210142Y-107942228D02*
X143095857Y-107942228D01*
X143038714Y-107970800D01*
X143010142Y-107999371D01*
X142953000Y-108085085D01*
X142924428Y-108199371D01*
X142924428Y-108427942D01*
X142953000Y-108485085D01*
X142981571Y-108513657D01*
X143038714Y-108542228D01*
X143153000Y-108542228D01*
X143210142Y-108513657D01*
X143238714Y-108485085D01*
X143267285Y-108427942D01*
X143267285Y-108285085D01*
X143238714Y-108227942D01*
X143210142Y-108199371D01*
X143153000Y-108170800D01*
X143038714Y-108170800D01*
X142981571Y-108199371D01*
X142953000Y-108227942D01*
X142924428Y-108285085D01*
X143495857Y-107999371D02*
X143524428Y-107970800D01*
X143581571Y-107942228D01*
X143724428Y-107942228D01*
X143781571Y-107970800D01*
X143810142Y-107999371D01*
X143838714Y-108056514D01*
X143838714Y-108113657D01*
X143810142Y-108199371D01*
X143467285Y-108542228D01*
X143838714Y-108542228D01*
X142353000Y-110542228D02*
X142353000Y-109942228D01*
X142581571Y-109942228D01*
X142638714Y-109970800D01*
X142667285Y-109999371D01*
X142695857Y-110056514D01*
X142695857Y-110142228D01*
X142667285Y-110199371D01*
X142638714Y-110227942D01*
X142581571Y-110256514D01*
X142353000Y-110256514D01*
X143210142Y-109942228D02*
X143095857Y-109942228D01*
X143038714Y-109970800D01*
X143010142Y-109999371D01*
X142953000Y-110085085D01*
X142924428Y-110199371D01*
X142924428Y-110427942D01*
X142953000Y-110485085D01*
X142981571Y-110513657D01*
X143038714Y-110542228D01*
X143153000Y-110542228D01*
X143210142Y-110513657D01*
X143238714Y-110485085D01*
X143267285Y-110427942D01*
X143267285Y-110285085D01*
X143238714Y-110227942D01*
X143210142Y-110199371D01*
X143153000Y-110170800D01*
X143038714Y-110170800D01*
X142981571Y-110199371D01*
X142953000Y-110227942D01*
X142924428Y-110285085D01*
X143838714Y-110542228D02*
X143495857Y-110542228D01*
X143667285Y-110542228D02*
X143667285Y-109942228D01*
X143610142Y-110027942D01*
X143553000Y-110085085D01*
X143495857Y-110113657D01*
X142353000Y-112542228D02*
X142353000Y-111942228D01*
X142581571Y-111942228D01*
X142638714Y-111970800D01*
X142667285Y-111999371D01*
X142695857Y-112056514D01*
X142695857Y-112142228D01*
X142667285Y-112199371D01*
X142638714Y-112227942D01*
X142581571Y-112256514D01*
X142353000Y-112256514D01*
X143210142Y-111942228D02*
X143095857Y-111942228D01*
X143038714Y-111970800D01*
X143010142Y-111999371D01*
X142953000Y-112085085D01*
X142924428Y-112199371D01*
X142924428Y-112427942D01*
X142953000Y-112485085D01*
X142981571Y-112513657D01*
X143038714Y-112542228D01*
X143153000Y-112542228D01*
X143210142Y-112513657D01*
X143238714Y-112485085D01*
X143267285Y-112427942D01*
X143267285Y-112285085D01*
X143238714Y-112227942D01*
X143210142Y-112199371D01*
X143153000Y-112170800D01*
X143038714Y-112170800D01*
X142981571Y-112199371D01*
X142953000Y-112227942D01*
X142924428Y-112285085D01*
X143638714Y-111942228D02*
X143695857Y-111942228D01*
X143753000Y-111970800D01*
X143781571Y-111999371D01*
X143810142Y-112056514D01*
X143838714Y-112170800D01*
X143838714Y-112313657D01*
X143810142Y-112427942D01*
X143781571Y-112485085D01*
X143753000Y-112513657D01*
X143695857Y-112542228D01*
X143638714Y-112542228D01*
X143581571Y-112513657D01*
X143553000Y-112485085D01*
X143524428Y-112427942D01*
X143495857Y-112313657D01*
X143495857Y-112170800D01*
X143524428Y-112056514D01*
X143553000Y-111999371D01*
X143581571Y-111970800D01*
X143638714Y-111942228D01*
X142353000Y-114542228D02*
X142353000Y-113942228D01*
X142581571Y-113942228D01*
X142638714Y-113970800D01*
X142667285Y-113999371D01*
X142695857Y-114056514D01*
X142695857Y-114142228D01*
X142667285Y-114199371D01*
X142638714Y-114227942D01*
X142581571Y-114256514D01*
X142353000Y-114256514D01*
X143238714Y-113942228D02*
X142953000Y-113942228D01*
X142924428Y-114227942D01*
X142953000Y-114199371D01*
X143010142Y-114170800D01*
X143153000Y-114170800D01*
X143210142Y-114199371D01*
X143238714Y-114227942D01*
X143267285Y-114285085D01*
X143267285Y-114427942D01*
X143238714Y-114485085D01*
X143210142Y-114513657D01*
X143153000Y-114542228D01*
X143010142Y-114542228D01*
X142953000Y-114513657D01*
X142924428Y-114485085D01*
X143553000Y-114542228D02*
X143667285Y-114542228D01*
X143724428Y-114513657D01*
X143753000Y-114485085D01*
X143810142Y-114399371D01*
X143838714Y-114285085D01*
X143838714Y-114056514D01*
X143810142Y-113999371D01*
X143781571Y-113970800D01*
X143724428Y-113942228D01*
X143610142Y-113942228D01*
X143553000Y-113970800D01*
X143524428Y-113999371D01*
X143495857Y-114056514D01*
X143495857Y-114199371D01*
X143524428Y-114256514D01*
X143553000Y-114285085D01*
X143610142Y-114313657D01*
X143724428Y-114313657D01*
X143781571Y-114285085D01*
X143810142Y-114256514D01*
X143838714Y-114199371D01*
X142353000Y-116542228D02*
X142353000Y-115942228D01*
X142581571Y-115942228D01*
X142638714Y-115970800D01*
X142667285Y-115999371D01*
X142695857Y-116056514D01*
X142695857Y-116142228D01*
X142667285Y-116199371D01*
X142638714Y-116227942D01*
X142581571Y-116256514D01*
X142353000Y-116256514D01*
X143238714Y-115942228D02*
X142953000Y-115942228D01*
X142924428Y-116227942D01*
X142953000Y-116199371D01*
X143010142Y-116170800D01*
X143153000Y-116170800D01*
X143210142Y-116199371D01*
X143238714Y-116227942D01*
X143267285Y-116285085D01*
X143267285Y-116427942D01*
X143238714Y-116485085D01*
X143210142Y-116513657D01*
X143153000Y-116542228D01*
X143010142Y-116542228D01*
X142953000Y-116513657D01*
X142924428Y-116485085D01*
X143610142Y-116199371D02*
X143553000Y-116170800D01*
X143524428Y-116142228D01*
X143495857Y-116085085D01*
X143495857Y-116056514D01*
X143524428Y-115999371D01*
X143553000Y-115970800D01*
X143610142Y-115942228D01*
X143724428Y-115942228D01*
X143781571Y-115970800D01*
X143810142Y-115999371D01*
X143838714Y-116056514D01*
X143838714Y-116085085D01*
X143810142Y-116142228D01*
X143781571Y-116170800D01*
X143724428Y-116199371D01*
X143610142Y-116199371D01*
X143553000Y-116227942D01*
X143524428Y-116256514D01*
X143495857Y-116313657D01*
X143495857Y-116427942D01*
X143524428Y-116485085D01*
X143553000Y-116513657D01*
X143610142Y-116542228D01*
X143724428Y-116542228D01*
X143781571Y-116513657D01*
X143810142Y-116485085D01*
X143838714Y-116427942D01*
X143838714Y-116313657D01*
X143810142Y-116256514D01*
X143781571Y-116227942D01*
X143724428Y-116199371D01*
X142353000Y-118542228D02*
X142353000Y-117942228D01*
X142581571Y-117942228D01*
X142638714Y-117970800D01*
X142667285Y-117999371D01*
X142695857Y-118056514D01*
X142695857Y-118142228D01*
X142667285Y-118199371D01*
X142638714Y-118227942D01*
X142581571Y-118256514D01*
X142353000Y-118256514D01*
X143238714Y-117942228D02*
X142953000Y-117942228D01*
X142924428Y-118227942D01*
X142953000Y-118199371D01*
X143010142Y-118170800D01*
X143153000Y-118170800D01*
X143210142Y-118199371D01*
X143238714Y-118227942D01*
X143267285Y-118285085D01*
X143267285Y-118427942D01*
X143238714Y-118485085D01*
X143210142Y-118513657D01*
X143153000Y-118542228D01*
X143010142Y-118542228D01*
X142953000Y-118513657D01*
X142924428Y-118485085D01*
X143467285Y-117942228D02*
X143867285Y-117942228D01*
X143610142Y-118542228D01*
X141467285Y-119942228D02*
X141667285Y-120542228D01*
X141867285Y-119942228D01*
X142238714Y-119942228D02*
X142238714Y-120370800D01*
X142210142Y-120456514D01*
X142153000Y-120513657D01*
X142067285Y-120542228D01*
X142010142Y-120542228D01*
X142438714Y-119942228D02*
X142781571Y-119942228D01*
X142610142Y-120542228D02*
X142610142Y-119942228D01*
X142953000Y-120370800D02*
X143238714Y-120370800D01*
X142895857Y-120542228D02*
X143095857Y-119942228D01*
X143295857Y-120542228D01*
X143810142Y-119970800D02*
X143753000Y-119942228D01*
X143667285Y-119942228D01*
X143581571Y-119970800D01*
X143524428Y-120027942D01*
X143495857Y-120085085D01*
X143467285Y-120199371D01*
X143467285Y-120285085D01*
X143495857Y-120399371D01*
X143524428Y-120456514D01*
X143581571Y-120513657D01*
X143667285Y-120542228D01*
X143724428Y-120542228D01*
X143810142Y-120513657D01*
X143838714Y-120485085D01*
X143838714Y-120285085D01*
X143724428Y-120285085D01*
X141924428Y-121942228D02*
X142267285Y-121942228D01*
X142095857Y-122542228D02*
X142095857Y-121942228D01*
X142810142Y-122542228D02*
X142610142Y-122256514D01*
X142467285Y-122542228D02*
X142467285Y-121942228D01*
X142695857Y-121942228D01*
X142753000Y-121970800D01*
X142781571Y-121999371D01*
X142810142Y-122056514D01*
X142810142Y-122142228D01*
X142781571Y-122199371D01*
X142753000Y-122227942D01*
X142695857Y-122256514D01*
X142467285Y-122256514D01*
X143038714Y-122513657D02*
X143124428Y-122542228D01*
X143267285Y-122542228D01*
X143324428Y-122513657D01*
X143353000Y-122485085D01*
X143381571Y-122427942D01*
X143381571Y-122370800D01*
X143353000Y-122313657D01*
X143324428Y-122285085D01*
X143267285Y-122256514D01*
X143153000Y-122227942D01*
X143095857Y-122199371D01*
X143067285Y-122170800D01*
X143038714Y-122113657D01*
X143038714Y-122056514D01*
X143067285Y-121999371D01*
X143095857Y-121970800D01*
X143153000Y-121942228D01*
X143295857Y-121942228D01*
X143381571Y-121970800D01*
X143553000Y-121942228D02*
X143895857Y-121942228D01*
X143724428Y-122542228D02*
X143724428Y-121942228D01*
X142324428Y-123942228D02*
X142667285Y-123942228D01*
X142495857Y-124542228D02*
X142495857Y-123942228D01*
X142867285Y-124542228D02*
X142867285Y-123942228D01*
X143010142Y-123942228D01*
X143095857Y-123970800D01*
X143153000Y-124027942D01*
X143181571Y-124085085D01*
X143210142Y-124199371D01*
X143210142Y-124285085D01*
X143181571Y-124399371D01*
X143153000Y-124456514D01*
X143095857Y-124513657D01*
X143010142Y-124542228D01*
X142867285Y-124542228D01*
X143581571Y-123942228D02*
X143695857Y-123942228D01*
X143753000Y-123970800D01*
X143810142Y-124027942D01*
X143838714Y-124142228D01*
X143838714Y-124342228D01*
X143810142Y-124456514D01*
X143753000Y-124513657D01*
X143695857Y-124542228D01*
X143581571Y-124542228D01*
X143524428Y-124513657D01*
X143467285Y-124456514D01*
X143438714Y-124342228D01*
X143438714Y-124142228D01*
X143467285Y-124027942D01*
X143524428Y-123970800D01*
X143581571Y-123942228D01*
X140981571Y-125942228D02*
X141181571Y-126542228D01*
X141381571Y-125942228D01*
X141581571Y-126542228D02*
X141581571Y-125942228D01*
X141810142Y-125942228D01*
X141867285Y-125970800D01*
X141895857Y-125999371D01*
X141924428Y-126056514D01*
X141924428Y-126142228D01*
X141895857Y-126199371D01*
X141867285Y-126227942D01*
X141810142Y-126256514D01*
X141581571Y-126256514D01*
X142181571Y-125942228D02*
X142181571Y-126427942D01*
X142210142Y-126485085D01*
X142238714Y-126513657D01*
X142295857Y-126542228D01*
X142410142Y-126542228D01*
X142467285Y-126513657D01*
X142495857Y-126485085D01*
X142524428Y-126427942D01*
X142524428Y-125942228D01*
X142810142Y-126542228D02*
X142810142Y-125942228D01*
X143010142Y-126370800D01*
X143210142Y-125942228D01*
X143210142Y-126542228D01*
X143495857Y-126542228D02*
X143495857Y-125942228D01*
X143724428Y-125942228D01*
X143781571Y-125970800D01*
X143810142Y-125999371D01*
X143838714Y-126056514D01*
X143838714Y-126142228D01*
X143810142Y-126199371D01*
X143781571Y-126227942D01*
X143724428Y-126256514D01*
X143495857Y-126256514D01*
X142295857Y-127942228D02*
X142638714Y-127942228D01*
X142467285Y-128542228D02*
X142467285Y-127942228D01*
X142838714Y-128542228D02*
X142838714Y-127942228D01*
X143038714Y-128370800D01*
X143238714Y-127942228D01*
X143238714Y-128542228D01*
X143495857Y-128513657D02*
X143581571Y-128542228D01*
X143724428Y-128542228D01*
X143781571Y-128513657D01*
X143810142Y-128485085D01*
X143838714Y-128427942D01*
X143838714Y-128370800D01*
X143810142Y-128313657D01*
X143781571Y-128285085D01*
X143724428Y-128256514D01*
X143610142Y-128227942D01*
X143553000Y-128199371D01*
X143524428Y-128170800D01*
X143495857Y-128113657D01*
X143495857Y-128056514D01*
X143524428Y-127999371D01*
X143553000Y-127970800D01*
X143610142Y-127942228D01*
X143753000Y-127942228D01*
X143838714Y-127970800D01*
X104043057Y-90262857D02*
X104500200Y-90262857D01*
X104271628Y-90491428D02*
X104271628Y-90034285D01*
X105071628Y-89891428D02*
X104785914Y-89891428D01*
X104757342Y-90177142D01*
X104785914Y-90148571D01*
X104843057Y-90120000D01*
X104985914Y-90120000D01*
X105043057Y-90148571D01*
X105071628Y-90177142D01*
X105100200Y-90234285D01*
X105100200Y-90377142D01*
X105071628Y-90434285D01*
X105043057Y-90462857D01*
X104985914Y-90491428D01*
X104843057Y-90491428D01*
X104785914Y-90462857D01*
X104757342Y-90434285D01*
X105271628Y-89891428D02*
X105471628Y-90491428D01*
X105671628Y-89891428D01*
X104357342Y-91920000D02*
X104300200Y-91891428D01*
X104214485Y-91891428D01*
X104128771Y-91920000D01*
X104071628Y-91977142D01*
X104043057Y-92034285D01*
X104014485Y-92148571D01*
X104014485Y-92234285D01*
X104043057Y-92348571D01*
X104071628Y-92405714D01*
X104128771Y-92462857D01*
X104214485Y-92491428D01*
X104271628Y-92491428D01*
X104357342Y-92462857D01*
X104385914Y-92434285D01*
X104385914Y-92234285D01*
X104271628Y-92234285D01*
X104643057Y-92491428D02*
X104643057Y-91891428D01*
X104985914Y-92491428D01*
X104985914Y-91891428D01*
X105271628Y-92491428D02*
X105271628Y-91891428D01*
X105414485Y-91891428D01*
X105500200Y-91920000D01*
X105557342Y-91977142D01*
X105585914Y-92034285D01*
X105614485Y-92148571D01*
X105614485Y-92234285D01*
X105585914Y-92348571D01*
X105557342Y-92405714D01*
X105500200Y-92462857D01*
X105414485Y-92491428D01*
X105271628Y-92491428D01*
X104043057Y-94491428D02*
X104043057Y-93891428D01*
X104271628Y-93891428D01*
X104328771Y-93920000D01*
X104357342Y-93948571D01*
X104385914Y-94005714D01*
X104385914Y-94091428D01*
X104357342Y-94148571D01*
X104328771Y-94177142D01*
X104271628Y-94205714D01*
X104043057Y-94205714D01*
X104671628Y-94491428D02*
X104785914Y-94491428D01*
X104843057Y-94462857D01*
X104871628Y-94434285D01*
X104928771Y-94348571D01*
X104957342Y-94234285D01*
X104957342Y-94005714D01*
X104928771Y-93948571D01*
X104900200Y-93920000D01*
X104843057Y-93891428D01*
X104728771Y-93891428D01*
X104671628Y-93920000D01*
X104643057Y-93948571D01*
X104614485Y-94005714D01*
X104614485Y-94148571D01*
X104643057Y-94205714D01*
X104671628Y-94234285D01*
X104728771Y-94262857D01*
X104843057Y-94262857D01*
X104900200Y-94234285D01*
X104928771Y-94205714D01*
X104957342Y-94148571D01*
X105300200Y-94148571D02*
X105243057Y-94120000D01*
X105214485Y-94091428D01*
X105185914Y-94034285D01*
X105185914Y-94005714D01*
X105214485Y-93948571D01*
X105243057Y-93920000D01*
X105300200Y-93891428D01*
X105414485Y-93891428D01*
X105471628Y-93920000D01*
X105500200Y-93948571D01*
X105528771Y-94005714D01*
X105528771Y-94034285D01*
X105500200Y-94091428D01*
X105471628Y-94120000D01*
X105414485Y-94148571D01*
X105300200Y-94148571D01*
X105243057Y-94177142D01*
X105214485Y-94205714D01*
X105185914Y-94262857D01*
X105185914Y-94377142D01*
X105214485Y-94434285D01*
X105243057Y-94462857D01*
X105300200Y-94491428D01*
X105414485Y-94491428D01*
X105471628Y-94462857D01*
X105500200Y-94434285D01*
X105528771Y-94377142D01*
X105528771Y-94262857D01*
X105500200Y-94205714D01*
X105471628Y-94177142D01*
X105414485Y-94148571D01*
X104043057Y-96491428D02*
X104043057Y-95891428D01*
X104271628Y-95891428D01*
X104328771Y-95920000D01*
X104357342Y-95948571D01*
X104385914Y-96005714D01*
X104385914Y-96091428D01*
X104357342Y-96148571D01*
X104328771Y-96177142D01*
X104271628Y-96205714D01*
X104043057Y-96205714D01*
X104614485Y-95948571D02*
X104643057Y-95920000D01*
X104700200Y-95891428D01*
X104843057Y-95891428D01*
X104900200Y-95920000D01*
X104928771Y-95948571D01*
X104957342Y-96005714D01*
X104957342Y-96062857D01*
X104928771Y-96148571D01*
X104585914Y-96491428D01*
X104957342Y-96491428D01*
X104043057Y-98491428D02*
X104043057Y-97891428D01*
X104271628Y-97891428D01*
X104328771Y-97920000D01*
X104357342Y-97948571D01*
X104385914Y-98005714D01*
X104385914Y-98091428D01*
X104357342Y-98148571D01*
X104328771Y-98177142D01*
X104271628Y-98205714D01*
X104043057Y-98205714D01*
X104900200Y-98091428D02*
X104900200Y-98491428D01*
X104757342Y-97862857D02*
X104614485Y-98291428D01*
X104985914Y-98291428D01*
X104043057Y-100491428D02*
X104043057Y-99891428D01*
X104271628Y-99891428D01*
X104328771Y-99920000D01*
X104357342Y-99948571D01*
X104385914Y-100005714D01*
X104385914Y-100091428D01*
X104357342Y-100148571D01*
X104328771Y-100177142D01*
X104271628Y-100205714D01*
X104043057Y-100205714D01*
X104928771Y-99891428D02*
X104643057Y-99891428D01*
X104614485Y-100177142D01*
X104643057Y-100148571D01*
X104700200Y-100120000D01*
X104843057Y-100120000D01*
X104900200Y-100148571D01*
X104928771Y-100177142D01*
X104957342Y-100234285D01*
X104957342Y-100377142D01*
X104928771Y-100434285D01*
X104900200Y-100462857D01*
X104843057Y-100491428D01*
X104700200Y-100491428D01*
X104643057Y-100462857D01*
X104614485Y-100434285D01*
X104043057Y-102491428D02*
X104043057Y-101891428D01*
X104271628Y-101891428D01*
X104328771Y-101920000D01*
X104357342Y-101948571D01*
X104385914Y-102005714D01*
X104385914Y-102091428D01*
X104357342Y-102148571D01*
X104328771Y-102177142D01*
X104271628Y-102205714D01*
X104043057Y-102205714D01*
X104900200Y-101891428D02*
X104785914Y-101891428D01*
X104728771Y-101920000D01*
X104700200Y-101948571D01*
X104643057Y-102034285D01*
X104614485Y-102148571D01*
X104614485Y-102377142D01*
X104643057Y-102434285D01*
X104671628Y-102462857D01*
X104728771Y-102491428D01*
X104843057Y-102491428D01*
X104900200Y-102462857D01*
X104928771Y-102434285D01*
X104957342Y-102377142D01*
X104957342Y-102234285D01*
X104928771Y-102177142D01*
X104900200Y-102148571D01*
X104843057Y-102120000D01*
X104728771Y-102120000D01*
X104671628Y-102148571D01*
X104643057Y-102177142D01*
X104614485Y-102234285D01*
X104043057Y-104491428D02*
X104043057Y-103891428D01*
X104271628Y-103891428D01*
X104328771Y-103920000D01*
X104357342Y-103948571D01*
X104385914Y-104005714D01*
X104385914Y-104091428D01*
X104357342Y-104148571D01*
X104328771Y-104177142D01*
X104271628Y-104205714D01*
X104043057Y-104205714D01*
X104585914Y-103891428D02*
X104985914Y-103891428D01*
X104728771Y-104491428D01*
X104043057Y-106491428D02*
X104043057Y-105891428D01*
X104271628Y-105891428D01*
X104328771Y-105920000D01*
X104357342Y-105948571D01*
X104385914Y-106005714D01*
X104385914Y-106091428D01*
X104357342Y-106148571D01*
X104328771Y-106177142D01*
X104271628Y-106205714D01*
X104043057Y-106205714D01*
X104728771Y-106148571D02*
X104671628Y-106120000D01*
X104643057Y-106091428D01*
X104614485Y-106034285D01*
X104614485Y-106005714D01*
X104643057Y-105948571D01*
X104671628Y-105920000D01*
X104728771Y-105891428D01*
X104843057Y-105891428D01*
X104900200Y-105920000D01*
X104928771Y-105948571D01*
X104957342Y-106005714D01*
X104957342Y-106034285D01*
X104928771Y-106091428D01*
X104900200Y-106120000D01*
X104843057Y-106148571D01*
X104728771Y-106148571D01*
X104671628Y-106177142D01*
X104643057Y-106205714D01*
X104614485Y-106262857D01*
X104614485Y-106377142D01*
X104643057Y-106434285D01*
X104671628Y-106462857D01*
X104728771Y-106491428D01*
X104843057Y-106491428D01*
X104900200Y-106462857D01*
X104928771Y-106434285D01*
X104957342Y-106377142D01*
X104957342Y-106262857D01*
X104928771Y-106205714D01*
X104900200Y-106177142D01*
X104843057Y-106148571D01*
X104043057Y-108491428D02*
X104043057Y-107891428D01*
X104271628Y-107891428D01*
X104328771Y-107920000D01*
X104357342Y-107948571D01*
X104385914Y-108005714D01*
X104385914Y-108091428D01*
X104357342Y-108148571D01*
X104328771Y-108177142D01*
X104271628Y-108205714D01*
X104043057Y-108205714D01*
X104957342Y-108491428D02*
X104614485Y-108491428D01*
X104785914Y-108491428D02*
X104785914Y-107891428D01*
X104728771Y-107977142D01*
X104671628Y-108034285D01*
X104614485Y-108062857D01*
X105328771Y-107891428D02*
X105385914Y-107891428D01*
X105443057Y-107920000D01*
X105471628Y-107948571D01*
X105500200Y-108005714D01*
X105528771Y-108120000D01*
X105528771Y-108262857D01*
X105500200Y-108377142D01*
X105471628Y-108434285D01*
X105443057Y-108462857D01*
X105385914Y-108491428D01*
X105328771Y-108491428D01*
X105271628Y-108462857D01*
X105243057Y-108434285D01*
X105214485Y-108377142D01*
X105185914Y-108262857D01*
X105185914Y-108120000D01*
X105214485Y-108005714D01*
X105243057Y-107948571D01*
X105271628Y-107920000D01*
X105328771Y-107891428D01*
X104043057Y-110491428D02*
X104043057Y-109891428D01*
X104271628Y-109891428D01*
X104328771Y-109920000D01*
X104357342Y-109948571D01*
X104385914Y-110005714D01*
X104385914Y-110091428D01*
X104357342Y-110148571D01*
X104328771Y-110177142D01*
X104271628Y-110205714D01*
X104043057Y-110205714D01*
X104957342Y-110491428D02*
X104614485Y-110491428D01*
X104785914Y-110491428D02*
X104785914Y-109891428D01*
X104728771Y-109977142D01*
X104671628Y-110034285D01*
X104614485Y-110062857D01*
X105528771Y-110491428D02*
X105185914Y-110491428D01*
X105357342Y-110491428D02*
X105357342Y-109891428D01*
X105300200Y-109977142D01*
X105243057Y-110034285D01*
X105185914Y-110062857D01*
X104043057Y-112491428D02*
X104043057Y-111891428D01*
X104271628Y-111891428D01*
X104328771Y-111920000D01*
X104357342Y-111948571D01*
X104385914Y-112005714D01*
X104385914Y-112091428D01*
X104357342Y-112148571D01*
X104328771Y-112177142D01*
X104271628Y-112205714D01*
X104043057Y-112205714D01*
X104957342Y-112491428D02*
X104614485Y-112491428D01*
X104785914Y-112491428D02*
X104785914Y-111891428D01*
X104728771Y-111977142D01*
X104671628Y-112034285D01*
X104614485Y-112062857D01*
X105157342Y-111891428D02*
X105528771Y-111891428D01*
X105328771Y-112120000D01*
X105414485Y-112120000D01*
X105471628Y-112148571D01*
X105500200Y-112177142D01*
X105528771Y-112234285D01*
X105528771Y-112377142D01*
X105500200Y-112434285D01*
X105471628Y-112462857D01*
X105414485Y-112491428D01*
X105243057Y-112491428D01*
X105185914Y-112462857D01*
X105157342Y-112434285D01*
X104043057Y-114491428D02*
X104043057Y-113891428D01*
X104271628Y-113891428D01*
X104328771Y-113920000D01*
X104357342Y-113948571D01*
X104385914Y-114005714D01*
X104385914Y-114091428D01*
X104357342Y-114148571D01*
X104328771Y-114177142D01*
X104271628Y-114205714D01*
X104043057Y-114205714D01*
X104957342Y-114491428D02*
X104614485Y-114491428D01*
X104785914Y-114491428D02*
X104785914Y-113891428D01*
X104728771Y-113977142D01*
X104671628Y-114034285D01*
X104614485Y-114062857D01*
X105500200Y-113891428D02*
X105214485Y-113891428D01*
X105185914Y-114177142D01*
X105214485Y-114148571D01*
X105271628Y-114120000D01*
X105414485Y-114120000D01*
X105471628Y-114148571D01*
X105500200Y-114177142D01*
X105528771Y-114234285D01*
X105528771Y-114377142D01*
X105500200Y-114434285D01*
X105471628Y-114462857D01*
X105414485Y-114491428D01*
X105271628Y-114491428D01*
X105214485Y-114462857D01*
X105185914Y-114434285D01*
X104043057Y-116491428D02*
X104043057Y-115891428D01*
X104271628Y-115891428D01*
X104328771Y-115920000D01*
X104357342Y-115948571D01*
X104385914Y-116005714D01*
X104385914Y-116091428D01*
X104357342Y-116148571D01*
X104328771Y-116177142D01*
X104271628Y-116205714D01*
X104043057Y-116205714D01*
X104957342Y-116491428D02*
X104614485Y-116491428D01*
X104785914Y-116491428D02*
X104785914Y-115891428D01*
X104728771Y-115977142D01*
X104671628Y-116034285D01*
X104614485Y-116062857D01*
X105471628Y-115891428D02*
X105357342Y-115891428D01*
X105300200Y-115920000D01*
X105271628Y-115948571D01*
X105214485Y-116034285D01*
X105185914Y-116148571D01*
X105185914Y-116377142D01*
X105214485Y-116434285D01*
X105243057Y-116462857D01*
X105300200Y-116491428D01*
X105414485Y-116491428D01*
X105471628Y-116462857D01*
X105500200Y-116434285D01*
X105528771Y-116377142D01*
X105528771Y-116234285D01*
X105500200Y-116177142D01*
X105471628Y-116148571D01*
X105414485Y-116120000D01*
X105300200Y-116120000D01*
X105243057Y-116148571D01*
X105214485Y-116177142D01*
X105185914Y-116234285D01*
X103957342Y-117891428D02*
X104157342Y-118491428D01*
X104357342Y-117891428D01*
X104900200Y-118434285D02*
X104871628Y-118462857D01*
X104785914Y-118491428D01*
X104728771Y-118491428D01*
X104643057Y-118462857D01*
X104585914Y-118405714D01*
X104557342Y-118348571D01*
X104528771Y-118234285D01*
X104528771Y-118148571D01*
X104557342Y-118034285D01*
X104585914Y-117977142D01*
X104643057Y-117920000D01*
X104728771Y-117891428D01*
X104785914Y-117891428D01*
X104871628Y-117920000D01*
X104900200Y-117948571D01*
X105500200Y-118434285D02*
X105471628Y-118462857D01*
X105385914Y-118491428D01*
X105328771Y-118491428D01*
X105243057Y-118462857D01*
X105185914Y-118405714D01*
X105157342Y-118348571D01*
X105128771Y-118234285D01*
X105128771Y-118148571D01*
X105157342Y-118034285D01*
X105185914Y-117977142D01*
X105243057Y-117920000D01*
X105328771Y-117891428D01*
X105385914Y-117891428D01*
X105471628Y-117920000D01*
X105500200Y-117948571D01*
X105757342Y-118491428D02*
X105757342Y-117891428D01*
X106157342Y-117891428D02*
X106271628Y-117891428D01*
X106328771Y-117920000D01*
X106385914Y-117977142D01*
X106414485Y-118091428D01*
X106414485Y-118291428D01*
X106385914Y-118405714D01*
X106328771Y-118462857D01*
X106271628Y-118491428D01*
X106157342Y-118491428D01*
X106100200Y-118462857D01*
X106043057Y-118405714D01*
X106014485Y-118291428D01*
X106014485Y-118091428D01*
X106043057Y-117977142D01*
X106100200Y-117920000D01*
X106157342Y-117891428D01*
X104043057Y-120491428D02*
X104043057Y-119891428D01*
X104271628Y-119891428D01*
X104328771Y-119920000D01*
X104357342Y-119948571D01*
X104385914Y-120005714D01*
X104385914Y-120091428D01*
X104357342Y-120148571D01*
X104328771Y-120177142D01*
X104271628Y-120205714D01*
X104043057Y-120205714D01*
X104957342Y-120491428D02*
X104614485Y-120491428D01*
X104785914Y-120491428D02*
X104785914Y-119891428D01*
X104728771Y-119977142D01*
X104671628Y-120034285D01*
X104614485Y-120062857D01*
X105243057Y-120491428D02*
X105357342Y-120491428D01*
X105414485Y-120462857D01*
X105443057Y-120434285D01*
X105500200Y-120348571D01*
X105528771Y-120234285D01*
X105528771Y-120005714D01*
X105500200Y-119948571D01*
X105471628Y-119920000D01*
X105414485Y-119891428D01*
X105300200Y-119891428D01*
X105243057Y-119920000D01*
X105214485Y-119948571D01*
X105185914Y-120005714D01*
X105185914Y-120148571D01*
X105214485Y-120205714D01*
X105243057Y-120234285D01*
X105300200Y-120262857D01*
X105414485Y-120262857D01*
X105471628Y-120234285D01*
X105500200Y-120205714D01*
X105528771Y-120148571D01*
X104043057Y-122491428D02*
X104043057Y-121891428D01*
X104271628Y-121891428D01*
X104328771Y-121920000D01*
X104357342Y-121948571D01*
X104385914Y-122005714D01*
X104385914Y-122091428D01*
X104357342Y-122148571D01*
X104328771Y-122177142D01*
X104271628Y-122205714D01*
X104043057Y-122205714D01*
X104614485Y-121948571D02*
X104643057Y-121920000D01*
X104700200Y-121891428D01*
X104843057Y-121891428D01*
X104900200Y-121920000D01*
X104928771Y-121948571D01*
X104957342Y-122005714D01*
X104957342Y-122062857D01*
X104928771Y-122148571D01*
X104585914Y-122491428D01*
X104957342Y-122491428D01*
X105328771Y-121891428D02*
X105385914Y-121891428D01*
X105443057Y-121920000D01*
X105471628Y-121948571D01*
X105500200Y-122005714D01*
X105528771Y-122120000D01*
X105528771Y-122262857D01*
X105500200Y-122377142D01*
X105471628Y-122434285D01*
X105443057Y-122462857D01*
X105385914Y-122491428D01*
X105328771Y-122491428D01*
X105271628Y-122462857D01*
X105243057Y-122434285D01*
X105214485Y-122377142D01*
X105185914Y-122262857D01*
X105185914Y-122120000D01*
X105214485Y-122005714D01*
X105243057Y-121948571D01*
X105271628Y-121920000D01*
X105328771Y-121891428D01*
X104043057Y-124491428D02*
X104043057Y-123891428D01*
X104271628Y-123891428D01*
X104328771Y-123920000D01*
X104357342Y-123948571D01*
X104385914Y-124005714D01*
X104385914Y-124091428D01*
X104357342Y-124148571D01*
X104328771Y-124177142D01*
X104271628Y-124205714D01*
X104043057Y-124205714D01*
X104614485Y-123948571D02*
X104643057Y-123920000D01*
X104700200Y-123891428D01*
X104843057Y-123891428D01*
X104900200Y-123920000D01*
X104928771Y-123948571D01*
X104957342Y-124005714D01*
X104957342Y-124062857D01*
X104928771Y-124148571D01*
X104585914Y-124491428D01*
X104957342Y-124491428D01*
X105528771Y-124491428D02*
X105185914Y-124491428D01*
X105357342Y-124491428D02*
X105357342Y-123891428D01*
X105300200Y-123977142D01*
X105243057Y-124034285D01*
X105185914Y-124062857D01*
X104043057Y-126491428D02*
X104043057Y-125891428D01*
X104271628Y-125891428D01*
X104328771Y-125920000D01*
X104357342Y-125948571D01*
X104385914Y-126005714D01*
X104385914Y-126091428D01*
X104357342Y-126148571D01*
X104328771Y-126177142D01*
X104271628Y-126205714D01*
X104043057Y-126205714D01*
X104614485Y-125948571D02*
X104643057Y-125920000D01*
X104700200Y-125891428D01*
X104843057Y-125891428D01*
X104900200Y-125920000D01*
X104928771Y-125948571D01*
X104957342Y-126005714D01*
X104957342Y-126062857D01*
X104928771Y-126148571D01*
X104585914Y-126491428D01*
X104957342Y-126491428D01*
X105185914Y-125948571D02*
X105214485Y-125920000D01*
X105271628Y-125891428D01*
X105414485Y-125891428D01*
X105471628Y-125920000D01*
X105500200Y-125948571D01*
X105528771Y-126005714D01*
X105528771Y-126062857D01*
X105500200Y-126148571D01*
X105157342Y-126491428D01*
X105528771Y-126491428D01*
X104043057Y-128491428D02*
X104043057Y-127891428D01*
X104271628Y-127891428D01*
X104328771Y-127920000D01*
X104357342Y-127948571D01*
X104385914Y-128005714D01*
X104385914Y-128091428D01*
X104357342Y-128148571D01*
X104328771Y-128177142D01*
X104271628Y-128205714D01*
X104043057Y-128205714D01*
X104614485Y-127948571D02*
X104643057Y-127920000D01*
X104700200Y-127891428D01*
X104843057Y-127891428D01*
X104900200Y-127920000D01*
X104928771Y-127948571D01*
X104957342Y-128005714D01*
X104957342Y-128062857D01*
X104928771Y-128148571D01*
X104585914Y-128491428D01*
X104957342Y-128491428D01*
X105157342Y-127891428D02*
X105528771Y-127891428D01*
X105328771Y-128120000D01*
X105414485Y-128120000D01*
X105471628Y-128148571D01*
X105500200Y-128177142D01*
X105528771Y-128234285D01*
X105528771Y-128377142D01*
X105500200Y-128434285D01*
X105471628Y-128462857D01*
X105414485Y-128491428D01*
X105243057Y-128491428D01*
X105185914Y-128462857D01*
X105157342Y-128434285D01*
D12*
G04 #@! TO.C,C4*
X111631000Y-102905779D02*
X111631000Y-102580221D01*
X112651000Y-102905779D02*
X112651000Y-102580221D01*
G04 #@! TO.C,C9*
X109730000Y-102905779D02*
X109730000Y-102580221D01*
X108710000Y-102905779D02*
X108710000Y-102580221D01*
G04 #@! TO.C,D1*
X109508000Y-105847000D02*
X106823000Y-105847000D01*
X109508000Y-107767000D02*
X109508000Y-105847000D01*
X106823000Y-107767000D02*
X109508000Y-107767000D01*
G04 #@! TO.C,D2*
X139126696Y-97184249D02*
X141411696Y-97184249D01*
X139126696Y-95714249D02*
X139126696Y-97184249D01*
X141411696Y-95714249D02*
X139126696Y-95714249D01*
G04 #@! TO.C,L1*
X116924000Y-98521000D02*
X116924000Y-97821000D01*
X114724000Y-98521000D02*
X114724000Y-97821000D01*
G04 #@! TO.C,L2*
X117835000Y-96425936D02*
X117835000Y-97630064D01*
X119655000Y-96425936D02*
X119655000Y-97630064D01*
G04 #@! TO.C,R1*
X111628422Y-108510000D02*
X112145578Y-108510000D01*
X111628422Y-109930000D02*
X112145578Y-109930000D01*
G04 #@! TO.C,R2*
X110107000Y-102905779D02*
X110107000Y-102580221D01*
X111127000Y-102905779D02*
X111127000Y-102580221D01*
G04 #@! TO.C,R3*
X114175000Y-102905779D02*
X114175000Y-102580221D01*
X113155000Y-102905779D02*
X113155000Y-102580221D01*
G04 #@! TO.C,R4*
X108964000Y-99857779D02*
X108964000Y-99532221D01*
X109984000Y-99857779D02*
X109984000Y-99532221D01*
G04 #@! TO.C,R5*
X108710000Y-96611221D02*
X108710000Y-96936779D01*
X109730000Y-96611221D02*
X109730000Y-96936779D01*
G04 #@! TO.C,R6*
X140813696Y-94421827D02*
X140813696Y-93904671D01*
X139393696Y-94421827D02*
X139393696Y-93904671D01*
D13*
G04 #@! TO.C,U2*
X114093000Y-101066000D02*
X111218000Y-101066000D01*
X113318000Y-97816000D02*
X111218000Y-97816000D01*
G04 #@! TO.C,U3*
X137714696Y-96933249D02*
X138964696Y-96933249D01*
X137714696Y-93758249D02*
X134364696Y-93758249D01*
X137714696Y-97108249D02*
X134364696Y-97108249D01*
X137714696Y-93758249D02*
X137714696Y-94008249D01*
X134364696Y-93758249D02*
X134364696Y-94008249D01*
X134364696Y-97108249D02*
X134364696Y-96858249D01*
X137714696Y-97108249D02*
X137714696Y-96933249D01*
D12*
G04 #@! TO.C,X1*
X116535000Y-103637000D02*
X116535000Y-107437000D01*
X119685000Y-103637000D02*
X116535000Y-103637000D01*
D13*
G04 #@! TO.C,U1*
X121399000Y-107698000D02*
X119874000Y-107698000D01*
X135649000Y-107048000D02*
X134889000Y-107048000D01*
X135649000Y-121298000D02*
X134889000Y-121298000D01*
X121399000Y-121298000D02*
X122159000Y-121298000D01*
X121399000Y-107048000D02*
X122159000Y-107048000D01*
X121399000Y-121298000D02*
X121399000Y-120538000D01*
X135649000Y-121298000D02*
X135649000Y-120538000D01*
X135649000Y-107048000D02*
X135649000Y-107808000D01*
X121399000Y-107048000D02*
X121399000Y-107698000D01*
D12*
G04 #@! TO.C,C1*
X120906000Y-104612221D02*
X120906000Y-104937779D01*
X119886000Y-104612221D02*
X119886000Y-104937779D01*
G04 #@! TO.C,C2*
X138794222Y-120137001D02*
X139119780Y-120137001D01*
X138794222Y-119117001D02*
X139119780Y-119117001D01*
G04 #@! TO.C,C3*
X138775221Y-120521000D02*
X139100779Y-120521000D01*
X138775221Y-121541000D02*
X139100779Y-121541000D01*
G04 #@! TO.C,C5*
X134479917Y-98102249D02*
X134805475Y-98102249D01*
X134479917Y-97082249D02*
X134805475Y-97082249D01*
G04 #@! TO.C,C6*
X111665936Y-97626000D02*
X112870064Y-97626000D01*
X111665936Y-94906000D02*
X112870064Y-94906000D01*
G04 #@! TO.C,C7*
X137273917Y-92637249D02*
X137599475Y-92637249D01*
X137273917Y-93657249D02*
X137599475Y-93657249D01*
G04 #@! TO.C,C8*
X137908917Y-98102249D02*
X138234475Y-98102249D01*
X137908917Y-97082249D02*
X138234475Y-97082249D01*
G04 #@! TO.C,C10*
X115699000Y-95285779D02*
X115699000Y-94960221D01*
X114679000Y-95285779D02*
X114679000Y-94960221D01*
G04 #@! TO.C,C11*
X119382000Y-100548221D02*
X119382000Y-100873779D01*
X118362000Y-100548221D02*
X118362000Y-100873779D01*
G04 #@! TO.C,R7*
X119572821Y-122099800D02*
X119898379Y-122099800D01*
X119572821Y-121079800D02*
X119898379Y-121079800D01*
G04 #@! TO.C,R8*
X117312221Y-108710000D02*
X117637779Y-108710000D01*
X117312221Y-109730000D02*
X117637779Y-109730000D01*
G04 #@! TO.C,VIO*
X136691600Y-101854000D02*
G75*
G03X136691600Y-101854000I-700000J0D01*
G01*
G04 #@! TO.C,CLK*
X112993400Y-111582200D02*
G75*
G03X112993400Y-111582200I-700000J0D01*
G01*
G04 #@! TO.C,+5V*
X107811800Y-92887800D02*
G75*
G03X107811800Y-92887800I-700000J0D01*
G01*
G04 #@! TO.C,GND*
X107684800Y-96469200D02*
G75*
G03X107684800Y-96469200I-700000J0D01*
G01*
G04 #@! TO.C,VCore*
X111444000Y-121793000D02*
G75*
G03X111444000Y-121793000I-700000J0D01*
G01*
G04 #@! TO.C,VPLL*
X117362200Y-101269800D02*
G75*
G03X117362200Y-101269800I-700000J0D01*
G01*
G04 #@! TO.C,C25*
D11*
X140787485Y-113549085D02*
X140758914Y-113577657D01*
X140673200Y-113606228D01*
X140616057Y-113606228D01*
X140530342Y-113577657D01*
X140473200Y-113520514D01*
X140444628Y-113463371D01*
X140416057Y-113349085D01*
X140416057Y-113263371D01*
X140444628Y-113149085D01*
X140473200Y-113091942D01*
X140530342Y-113034800D01*
X140616057Y-113006228D01*
X140673200Y-113006228D01*
X140758914Y-113034800D01*
X140787485Y-113063371D01*
X141016057Y-113063371D02*
X141044628Y-113034800D01*
X141101771Y-113006228D01*
X141244628Y-113006228D01*
X141301771Y-113034800D01*
X141330342Y-113063371D01*
X141358914Y-113120514D01*
X141358914Y-113177657D01*
X141330342Y-113263371D01*
X140987485Y-113606228D01*
X141358914Y-113606228D01*
X141901771Y-113006228D02*
X141616057Y-113006228D01*
X141587485Y-113291942D01*
X141616057Y-113263371D01*
X141673200Y-113234800D01*
X141816057Y-113234800D01*
X141873200Y-113263371D01*
X141901771Y-113291942D01*
X141930342Y-113349085D01*
X141930342Y-113491942D01*
X141901771Y-113549085D01*
X141873200Y-113577657D01*
X141816057Y-113606228D01*
X141673200Y-113606228D01*
X141616057Y-113577657D01*
X141587485Y-113549085D01*
G04 #@! TO.C,C24*
X140812885Y-112228285D02*
X140784314Y-112256857D01*
X140698600Y-112285428D01*
X140641457Y-112285428D01*
X140555742Y-112256857D01*
X140498600Y-112199714D01*
X140470028Y-112142571D01*
X140441457Y-112028285D01*
X140441457Y-111942571D01*
X140470028Y-111828285D01*
X140498600Y-111771142D01*
X140555742Y-111714000D01*
X140641457Y-111685428D01*
X140698600Y-111685428D01*
X140784314Y-111714000D01*
X140812885Y-111742571D01*
X141041457Y-111742571D02*
X141070028Y-111714000D01*
X141127171Y-111685428D01*
X141270028Y-111685428D01*
X141327171Y-111714000D01*
X141355742Y-111742571D01*
X141384314Y-111799714D01*
X141384314Y-111856857D01*
X141355742Y-111942571D01*
X141012885Y-112285428D01*
X141384314Y-112285428D01*
X141898600Y-111885428D02*
X141898600Y-112285428D01*
X141755742Y-111656857D02*
X141612885Y-112085428D01*
X141984314Y-112085428D01*
G04 #@! TO.C,C14*
X115311285Y-118908485D02*
X115282714Y-118937057D01*
X115197000Y-118965628D01*
X115139857Y-118965628D01*
X115054142Y-118937057D01*
X114997000Y-118879914D01*
X114968428Y-118822771D01*
X114939857Y-118708485D01*
X114939857Y-118622771D01*
X114968428Y-118508485D01*
X114997000Y-118451342D01*
X115054142Y-118394200D01*
X115139857Y-118365628D01*
X115197000Y-118365628D01*
X115282714Y-118394200D01*
X115311285Y-118422771D01*
X115882714Y-118965628D02*
X115539857Y-118965628D01*
X115711285Y-118965628D02*
X115711285Y-118365628D01*
X115654142Y-118451342D01*
X115597000Y-118508485D01*
X115539857Y-118537057D01*
X116397000Y-118565628D02*
X116397000Y-118965628D01*
X116254142Y-118337057D02*
X116111285Y-118765628D01*
X116482714Y-118765628D01*
G04 #@! TO.C,C4*
X112447400Y-105040085D02*
X112418828Y-105068657D01*
X112333114Y-105097228D01*
X112275971Y-105097228D01*
X112190257Y-105068657D01*
X112133114Y-105011514D01*
X112104542Y-104954371D01*
X112075971Y-104840085D01*
X112075971Y-104754371D01*
X112104542Y-104640085D01*
X112133114Y-104582942D01*
X112190257Y-104525800D01*
X112275971Y-104497228D01*
X112333114Y-104497228D01*
X112418828Y-104525800D01*
X112447400Y-104554371D01*
X112961685Y-104697228D02*
X112961685Y-105097228D01*
X112818828Y-104468657D02*
X112675971Y-104897228D01*
X113047400Y-104897228D01*
G04 #@! TO.C,C9*
X107469000Y-103287485D02*
X107440428Y-103316057D01*
X107354714Y-103344628D01*
X107297571Y-103344628D01*
X107211857Y-103316057D01*
X107154714Y-103258914D01*
X107126142Y-103201771D01*
X107097571Y-103087485D01*
X107097571Y-103001771D01*
X107126142Y-102887485D01*
X107154714Y-102830342D01*
X107211857Y-102773200D01*
X107297571Y-102744628D01*
X107354714Y-102744628D01*
X107440428Y-102773200D01*
X107469000Y-102801771D01*
X107754714Y-103344628D02*
X107869000Y-103344628D01*
X107926142Y-103316057D01*
X107954714Y-103287485D01*
X108011857Y-103201771D01*
X108040428Y-103087485D01*
X108040428Y-102858914D01*
X108011857Y-102801771D01*
X107983285Y-102773200D01*
X107926142Y-102744628D01*
X107811857Y-102744628D01*
X107754714Y-102773200D01*
X107726142Y-102801771D01*
X107697571Y-102858914D01*
X107697571Y-103001771D01*
X107726142Y-103058914D01*
X107754714Y-103087485D01*
X107811857Y-103116057D01*
X107926142Y-103116057D01*
X107983285Y-103087485D01*
X108011857Y-103058914D01*
X108040428Y-103001771D01*
G04 #@! TO.C,D1*
X107557942Y-105452828D02*
X107557942Y-104852828D01*
X107700800Y-104852828D01*
X107786514Y-104881400D01*
X107843657Y-104938542D01*
X107872228Y-104995685D01*
X107900800Y-105109971D01*
X107900800Y-105195685D01*
X107872228Y-105309971D01*
X107843657Y-105367114D01*
X107786514Y-105424257D01*
X107700800Y-105452828D01*
X107557942Y-105452828D01*
X108472228Y-105452828D02*
X108129371Y-105452828D01*
X108300800Y-105452828D02*
X108300800Y-104852828D01*
X108243657Y-104938542D01*
X108186514Y-104995685D01*
X108129371Y-105024257D01*
G04 #@! TO.C,D2*
X140222342Y-98315428D02*
X140222342Y-97715428D01*
X140365200Y-97715428D01*
X140450914Y-97744000D01*
X140508057Y-97801142D01*
X140536628Y-97858285D01*
X140565200Y-97972571D01*
X140565200Y-98058285D01*
X140536628Y-98172571D01*
X140508057Y-98229714D01*
X140450914Y-98286857D01*
X140365200Y-98315428D01*
X140222342Y-98315428D01*
X140793771Y-97772571D02*
X140822342Y-97744000D01*
X140879485Y-97715428D01*
X141022342Y-97715428D01*
X141079485Y-97744000D01*
X141108057Y-97772571D01*
X141136628Y-97829714D01*
X141136628Y-97886857D01*
X141108057Y-97972571D01*
X140765200Y-98315428D01*
X141136628Y-98315428D01*
G04 #@! TO.C,L1*
X116435200Y-96385028D02*
X116149485Y-96385028D01*
X116149485Y-95785028D01*
X116949485Y-96385028D02*
X116606628Y-96385028D01*
X116778057Y-96385028D02*
X116778057Y-95785028D01*
X116720914Y-95870742D01*
X116663771Y-95927885D01*
X116606628Y-95956457D01*
G04 #@! TO.C,L2*
X120524600Y-97375628D02*
X120238885Y-97375628D01*
X120238885Y-96775628D01*
X120696028Y-96832771D02*
X120724600Y-96804200D01*
X120781742Y-96775628D01*
X120924600Y-96775628D01*
X120981742Y-96804200D01*
X121010314Y-96832771D01*
X121038885Y-96889914D01*
X121038885Y-96947057D01*
X121010314Y-97032771D01*
X120667457Y-97375628D01*
X121038885Y-97375628D01*
G04 #@! TO.C,R1*
X111787000Y-107841428D02*
X111587000Y-107555714D01*
X111444142Y-107841428D02*
X111444142Y-107241428D01*
X111672714Y-107241428D01*
X111729857Y-107270000D01*
X111758428Y-107298571D01*
X111787000Y-107355714D01*
X111787000Y-107441428D01*
X111758428Y-107498571D01*
X111729857Y-107527142D01*
X111672714Y-107555714D01*
X111444142Y-107555714D01*
X112358428Y-107841428D02*
X112015571Y-107841428D01*
X112187000Y-107841428D02*
X112187000Y-107241428D01*
X112129857Y-107327142D01*
X112072714Y-107384285D01*
X112015571Y-107412857D01*
G04 #@! TO.C,R2*
X110440800Y-105097228D02*
X110240800Y-104811514D01*
X110097942Y-105097228D02*
X110097942Y-104497228D01*
X110326514Y-104497228D01*
X110383657Y-104525800D01*
X110412228Y-104554371D01*
X110440800Y-104611514D01*
X110440800Y-104697228D01*
X110412228Y-104754371D01*
X110383657Y-104782942D01*
X110326514Y-104811514D01*
X110097942Y-104811514D01*
X110669371Y-104554371D02*
X110697942Y-104525800D01*
X110755085Y-104497228D01*
X110897942Y-104497228D01*
X110955085Y-104525800D01*
X110983657Y-104554371D01*
X111012228Y-104611514D01*
X111012228Y-104668657D01*
X110983657Y-104754371D01*
X110640800Y-105097228D01*
X111012228Y-105097228D01*
G04 #@! TO.C,R3*
X114149200Y-105046428D02*
X113949200Y-104760714D01*
X113806342Y-105046428D02*
X113806342Y-104446428D01*
X114034914Y-104446428D01*
X114092057Y-104475000D01*
X114120628Y-104503571D01*
X114149200Y-104560714D01*
X114149200Y-104646428D01*
X114120628Y-104703571D01*
X114092057Y-104732142D01*
X114034914Y-104760714D01*
X113806342Y-104760714D01*
X114349200Y-104446428D02*
X114720628Y-104446428D01*
X114520628Y-104675000D01*
X114606342Y-104675000D01*
X114663485Y-104703571D01*
X114692057Y-104732142D01*
X114720628Y-104789285D01*
X114720628Y-104932142D01*
X114692057Y-104989285D01*
X114663485Y-105017857D01*
X114606342Y-105046428D01*
X114434914Y-105046428D01*
X114377771Y-105017857D01*
X114349200Y-104989285D01*
G04 #@! TO.C,R4*
X107723000Y-99763228D02*
X107523000Y-99477514D01*
X107380142Y-99763228D02*
X107380142Y-99163228D01*
X107608714Y-99163228D01*
X107665857Y-99191800D01*
X107694428Y-99220371D01*
X107723000Y-99277514D01*
X107723000Y-99363228D01*
X107694428Y-99420371D01*
X107665857Y-99448942D01*
X107608714Y-99477514D01*
X107380142Y-99477514D01*
X108237285Y-99363228D02*
X108237285Y-99763228D01*
X108094428Y-99134657D02*
X107951571Y-99563228D01*
X108323000Y-99563228D01*
G04 #@! TO.C,R5*
X109120000Y-95115028D02*
X108920000Y-94829314D01*
X108777142Y-95115028D02*
X108777142Y-94515028D01*
X109005714Y-94515028D01*
X109062857Y-94543600D01*
X109091428Y-94572171D01*
X109120000Y-94629314D01*
X109120000Y-94715028D01*
X109091428Y-94772171D01*
X109062857Y-94800742D01*
X109005714Y-94829314D01*
X108777142Y-94829314D01*
X109662857Y-94515028D02*
X109377142Y-94515028D01*
X109348571Y-94800742D01*
X109377142Y-94772171D01*
X109434285Y-94743600D01*
X109577142Y-94743600D01*
X109634285Y-94772171D01*
X109662857Y-94800742D01*
X109691428Y-94857885D01*
X109691428Y-95000742D01*
X109662857Y-95057885D01*
X109634285Y-95086457D01*
X109577142Y-95115028D01*
X109434285Y-95115028D01*
X109377142Y-95086457D01*
X109348571Y-95057885D01*
G04 #@! TO.C,R6*
X140031800Y-92524228D02*
X139831800Y-92238514D01*
X139688942Y-92524228D02*
X139688942Y-91924228D01*
X139917514Y-91924228D01*
X139974657Y-91952800D01*
X140003228Y-91981371D01*
X140031800Y-92038514D01*
X140031800Y-92124228D01*
X140003228Y-92181371D01*
X139974657Y-92209942D01*
X139917514Y-92238514D01*
X139688942Y-92238514D01*
X140546085Y-91924228D02*
X140431800Y-91924228D01*
X140374657Y-91952800D01*
X140346085Y-91981371D01*
X140288942Y-92067085D01*
X140260371Y-92181371D01*
X140260371Y-92409942D01*
X140288942Y-92467085D01*
X140317514Y-92495657D01*
X140374657Y-92524228D01*
X140488942Y-92524228D01*
X140546085Y-92495657D01*
X140574657Y-92467085D01*
X140603228Y-92409942D01*
X140603228Y-92267085D01*
X140574657Y-92209942D01*
X140546085Y-92181371D01*
X140488942Y-92152800D01*
X140374657Y-92152800D01*
X140317514Y-92181371D01*
X140288942Y-92209942D01*
X140260371Y-92267085D01*
G04 #@! TO.C,U2*
X114300057Y-100407828D02*
X114300057Y-100893542D01*
X114328628Y-100950685D01*
X114357200Y-100979257D01*
X114414342Y-101007828D01*
X114528628Y-101007828D01*
X114585771Y-100979257D01*
X114614342Y-100950685D01*
X114642914Y-100893542D01*
X114642914Y-100407828D01*
X114900057Y-100464971D02*
X114928628Y-100436400D01*
X114985771Y-100407828D01*
X115128628Y-100407828D01*
X115185771Y-100436400D01*
X115214342Y-100464971D01*
X115242914Y-100522114D01*
X115242914Y-100579257D01*
X115214342Y-100664971D01*
X114871485Y-101007828D01*
X115242914Y-101007828D01*
G04 #@! TO.C,U3*
X135737657Y-98350428D02*
X135737657Y-98836142D01*
X135766228Y-98893285D01*
X135794800Y-98921857D01*
X135851942Y-98950428D01*
X135966228Y-98950428D01*
X136023371Y-98921857D01*
X136051942Y-98893285D01*
X136080514Y-98836142D01*
X136080514Y-98350428D01*
X136309085Y-98350428D02*
X136680514Y-98350428D01*
X136480514Y-98579000D01*
X136566228Y-98579000D01*
X136623371Y-98607571D01*
X136651942Y-98636142D01*
X136680514Y-98693285D01*
X136680514Y-98836142D01*
X136651942Y-98893285D01*
X136623371Y-98921857D01*
X136566228Y-98950428D01*
X136394800Y-98950428D01*
X136337657Y-98921857D01*
X136309085Y-98893285D01*
G04 #@! TO.C,X1*
X115058885Y-106148228D02*
X115458885Y-106748228D01*
X115458885Y-106148228D02*
X115058885Y-106748228D01*
X116001742Y-106748228D02*
X115658885Y-106748228D01*
X115830314Y-106748228D02*
X115830314Y-106148228D01*
X115773171Y-106233942D01*
X115716028Y-106291085D01*
X115658885Y-106319657D01*
G04 #@! TO.C,U1*
X120116657Y-106834028D02*
X120116657Y-107319742D01*
X120145228Y-107376885D01*
X120173800Y-107405457D01*
X120230942Y-107434028D01*
X120345228Y-107434028D01*
X120402371Y-107405457D01*
X120430942Y-107376885D01*
X120459514Y-107319742D01*
X120459514Y-106834028D01*
X121059514Y-107434028D02*
X120716657Y-107434028D01*
X120888085Y-107434028D02*
X120888085Y-106834028D01*
X120830942Y-106919742D01*
X120773800Y-106976885D01*
X120716657Y-107005457D01*
G04 #@! TO.C,C1*
X121726000Y-104989285D02*
X121697428Y-105017857D01*
X121611714Y-105046428D01*
X121554571Y-105046428D01*
X121468857Y-105017857D01*
X121411714Y-104960714D01*
X121383142Y-104903571D01*
X121354571Y-104789285D01*
X121354571Y-104703571D01*
X121383142Y-104589285D01*
X121411714Y-104532142D01*
X121468857Y-104475000D01*
X121554571Y-104446428D01*
X121611714Y-104446428D01*
X121697428Y-104475000D01*
X121726000Y-104503571D01*
X122297428Y-105046428D02*
X121954571Y-105046428D01*
X122126000Y-105046428D02*
X122126000Y-104446428D01*
X122068857Y-104532142D01*
X122011714Y-104589285D01*
X121954571Y-104617857D01*
G04 #@! TO.C,C2*
X138838000Y-118756085D02*
X138809428Y-118784657D01*
X138723714Y-118813228D01*
X138666571Y-118813228D01*
X138580857Y-118784657D01*
X138523714Y-118727514D01*
X138495142Y-118670371D01*
X138466571Y-118556085D01*
X138466571Y-118470371D01*
X138495142Y-118356085D01*
X138523714Y-118298942D01*
X138580857Y-118241800D01*
X138666571Y-118213228D01*
X138723714Y-118213228D01*
X138809428Y-118241800D01*
X138838000Y-118270371D01*
X139066571Y-118270371D02*
X139095142Y-118241800D01*
X139152285Y-118213228D01*
X139295142Y-118213228D01*
X139352285Y-118241800D01*
X139380857Y-118270371D01*
X139409428Y-118327514D01*
X139409428Y-118384657D01*
X139380857Y-118470371D01*
X139038000Y-118813228D01*
X139409428Y-118813228D01*
G04 #@! TO.C,C3*
X138914200Y-122464485D02*
X138885628Y-122493057D01*
X138799914Y-122521628D01*
X138742771Y-122521628D01*
X138657057Y-122493057D01*
X138599914Y-122435914D01*
X138571342Y-122378771D01*
X138542771Y-122264485D01*
X138542771Y-122178771D01*
X138571342Y-122064485D01*
X138599914Y-122007342D01*
X138657057Y-121950200D01*
X138742771Y-121921628D01*
X138799914Y-121921628D01*
X138885628Y-121950200D01*
X138914200Y-121978771D01*
X139114200Y-121921628D02*
X139485628Y-121921628D01*
X139285628Y-122150200D01*
X139371342Y-122150200D01*
X139428485Y-122178771D01*
X139457057Y-122207342D01*
X139485628Y-122264485D01*
X139485628Y-122407342D01*
X139457057Y-122464485D01*
X139428485Y-122493057D01*
X139371342Y-122521628D01*
X139199914Y-122521628D01*
X139142771Y-122493057D01*
X139114200Y-122464485D01*
G04 #@! TO.C,C5*
X132462600Y-97801085D02*
X132434028Y-97829657D01*
X132348314Y-97858228D01*
X132291171Y-97858228D01*
X132205457Y-97829657D01*
X132148314Y-97772514D01*
X132119742Y-97715371D01*
X132091171Y-97601085D01*
X132091171Y-97515371D01*
X132119742Y-97401085D01*
X132148314Y-97343942D01*
X132205457Y-97286800D01*
X132291171Y-97258228D01*
X132348314Y-97258228D01*
X132434028Y-97286800D01*
X132462600Y-97315371D01*
X133005457Y-97258228D02*
X132719742Y-97258228D01*
X132691171Y-97543942D01*
X132719742Y-97515371D01*
X132776885Y-97486800D01*
X132919742Y-97486800D01*
X132976885Y-97515371D01*
X133005457Y-97543942D01*
X133034028Y-97601085D01*
X133034028Y-97743942D01*
X133005457Y-97801085D01*
X132976885Y-97829657D01*
X132919742Y-97858228D01*
X132776885Y-97858228D01*
X132719742Y-97829657D01*
X132691171Y-97801085D01*
G04 #@! TO.C,C6*
X112168000Y-94200285D02*
X112139428Y-94228857D01*
X112053714Y-94257428D01*
X111996571Y-94257428D01*
X111910857Y-94228857D01*
X111853714Y-94171714D01*
X111825142Y-94114571D01*
X111796571Y-94000285D01*
X111796571Y-93914571D01*
X111825142Y-93800285D01*
X111853714Y-93743142D01*
X111910857Y-93686000D01*
X111996571Y-93657428D01*
X112053714Y-93657428D01*
X112139428Y-93686000D01*
X112168000Y-93714571D01*
X112682285Y-93657428D02*
X112568000Y-93657428D01*
X112510857Y-93686000D01*
X112482285Y-93714571D01*
X112425142Y-93800285D01*
X112396571Y-93914571D01*
X112396571Y-94143142D01*
X112425142Y-94200285D01*
X112453714Y-94228857D01*
X112510857Y-94257428D01*
X112625142Y-94257428D01*
X112682285Y-94228857D01*
X112710857Y-94200285D01*
X112739428Y-94143142D01*
X112739428Y-94000285D01*
X112710857Y-93943142D01*
X112682285Y-93914571D01*
X112625142Y-93886000D01*
X112510857Y-93886000D01*
X112453714Y-93914571D01*
X112425142Y-93943142D01*
X112396571Y-94000285D01*
G04 #@! TO.C,C7*
X137288600Y-92111485D02*
X137260028Y-92140057D01*
X137174314Y-92168628D01*
X137117171Y-92168628D01*
X137031457Y-92140057D01*
X136974314Y-92082914D01*
X136945742Y-92025771D01*
X136917171Y-91911485D01*
X136917171Y-91825771D01*
X136945742Y-91711485D01*
X136974314Y-91654342D01*
X137031457Y-91597200D01*
X137117171Y-91568628D01*
X137174314Y-91568628D01*
X137260028Y-91597200D01*
X137288600Y-91625771D01*
X137488600Y-91568628D02*
X137888600Y-91568628D01*
X137631457Y-92168628D01*
G04 #@! TO.C,C8*
X138050600Y-99198085D02*
X138022028Y-99226657D01*
X137936314Y-99255228D01*
X137879171Y-99255228D01*
X137793457Y-99226657D01*
X137736314Y-99169514D01*
X137707742Y-99112371D01*
X137679171Y-98998085D01*
X137679171Y-98912371D01*
X137707742Y-98798085D01*
X137736314Y-98740942D01*
X137793457Y-98683800D01*
X137879171Y-98655228D01*
X137936314Y-98655228D01*
X138022028Y-98683800D01*
X138050600Y-98712371D01*
X138393457Y-98912371D02*
X138336314Y-98883800D01*
X138307742Y-98855228D01*
X138279171Y-98798085D01*
X138279171Y-98769514D01*
X138307742Y-98712371D01*
X138336314Y-98683800D01*
X138393457Y-98655228D01*
X138507742Y-98655228D01*
X138564885Y-98683800D01*
X138593457Y-98712371D01*
X138622028Y-98769514D01*
X138622028Y-98798085D01*
X138593457Y-98855228D01*
X138564885Y-98883800D01*
X138507742Y-98912371D01*
X138393457Y-98912371D01*
X138336314Y-98940942D01*
X138307742Y-98969514D01*
X138279171Y-99026657D01*
X138279171Y-99140942D01*
X138307742Y-99198085D01*
X138336314Y-99226657D01*
X138393457Y-99255228D01*
X138507742Y-99255228D01*
X138564885Y-99226657D01*
X138593457Y-99198085D01*
X138622028Y-99140942D01*
X138622028Y-99026657D01*
X138593457Y-98969514D01*
X138564885Y-98940942D01*
X138507742Y-98912371D01*
G04 #@! TO.C,C10*
X115412885Y-93279885D02*
X115384314Y-93308457D01*
X115298600Y-93337028D01*
X115241457Y-93337028D01*
X115155742Y-93308457D01*
X115098600Y-93251314D01*
X115070028Y-93194171D01*
X115041457Y-93079885D01*
X115041457Y-92994171D01*
X115070028Y-92879885D01*
X115098600Y-92822742D01*
X115155742Y-92765600D01*
X115241457Y-92737028D01*
X115298600Y-92737028D01*
X115384314Y-92765600D01*
X115412885Y-92794171D01*
X115984314Y-93337028D02*
X115641457Y-93337028D01*
X115812885Y-93337028D02*
X115812885Y-92737028D01*
X115755742Y-92822742D01*
X115698600Y-92879885D01*
X115641457Y-92908457D01*
X116355742Y-92737028D02*
X116412885Y-92737028D01*
X116470028Y-92765600D01*
X116498600Y-92794171D01*
X116527171Y-92851314D01*
X116555742Y-92965600D01*
X116555742Y-93108457D01*
X116527171Y-93222742D01*
X116498600Y-93279885D01*
X116470028Y-93308457D01*
X116412885Y-93337028D01*
X116355742Y-93337028D01*
X116298600Y-93308457D01*
X116270028Y-93279885D01*
X116241457Y-93222742D01*
X116212885Y-93108457D01*
X116212885Y-92965600D01*
X116241457Y-92851314D01*
X116270028Y-92794171D01*
X116298600Y-92765600D01*
X116355742Y-92737028D01*
G04 #@! TO.C,C11*
X120746885Y-100874485D02*
X120718314Y-100903057D01*
X120632600Y-100931628D01*
X120575457Y-100931628D01*
X120489742Y-100903057D01*
X120432600Y-100845914D01*
X120404028Y-100788771D01*
X120375457Y-100674485D01*
X120375457Y-100588771D01*
X120404028Y-100474485D01*
X120432600Y-100417342D01*
X120489742Y-100360200D01*
X120575457Y-100331628D01*
X120632600Y-100331628D01*
X120718314Y-100360200D01*
X120746885Y-100388771D01*
X121318314Y-100931628D02*
X120975457Y-100931628D01*
X121146885Y-100931628D02*
X121146885Y-100331628D01*
X121089742Y-100417342D01*
X121032600Y-100474485D01*
X120975457Y-100503057D01*
X121889742Y-100931628D02*
X121546885Y-100931628D01*
X121718314Y-100931628D02*
X121718314Y-100331628D01*
X121661171Y-100417342D01*
X121604028Y-100474485D01*
X121546885Y-100503057D01*
G04 #@! TO.C,C12*
X115260485Y-114768285D02*
X115231914Y-114796857D01*
X115146200Y-114825428D01*
X115089057Y-114825428D01*
X115003342Y-114796857D01*
X114946200Y-114739714D01*
X114917628Y-114682571D01*
X114889057Y-114568285D01*
X114889057Y-114482571D01*
X114917628Y-114368285D01*
X114946200Y-114311142D01*
X115003342Y-114254000D01*
X115089057Y-114225428D01*
X115146200Y-114225428D01*
X115231914Y-114254000D01*
X115260485Y-114282571D01*
X115831914Y-114825428D02*
X115489057Y-114825428D01*
X115660485Y-114825428D02*
X115660485Y-114225428D01*
X115603342Y-114311142D01*
X115546200Y-114368285D01*
X115489057Y-114396857D01*
X116060485Y-114282571D02*
X116089057Y-114254000D01*
X116146200Y-114225428D01*
X116289057Y-114225428D01*
X116346200Y-114254000D01*
X116374771Y-114282571D01*
X116403342Y-114339714D01*
X116403342Y-114396857D01*
X116374771Y-114482571D01*
X116031914Y-114825428D01*
X116403342Y-114825428D01*
G04 #@! TO.C,C16*
X125588685Y-127207914D02*
X125617257Y-127236485D01*
X125645828Y-127322200D01*
X125645828Y-127379342D01*
X125617257Y-127465057D01*
X125560114Y-127522200D01*
X125502971Y-127550771D01*
X125388685Y-127579342D01*
X125302971Y-127579342D01*
X125188685Y-127550771D01*
X125131542Y-127522200D01*
X125074400Y-127465057D01*
X125045828Y-127379342D01*
X125045828Y-127322200D01*
X125074400Y-127236485D01*
X125102971Y-127207914D01*
X125645828Y-126636485D02*
X125645828Y-126979342D01*
X125645828Y-126807914D02*
X125045828Y-126807914D01*
X125131542Y-126865057D01*
X125188685Y-126922200D01*
X125217257Y-126979342D01*
X125045828Y-126122200D02*
X125045828Y-126236485D01*
X125074400Y-126293628D01*
X125102971Y-126322200D01*
X125188685Y-126379342D01*
X125302971Y-126407914D01*
X125531542Y-126407914D01*
X125588685Y-126379342D01*
X125617257Y-126350771D01*
X125645828Y-126293628D01*
X125645828Y-126179342D01*
X125617257Y-126122200D01*
X125588685Y-126093628D01*
X125531542Y-126065057D01*
X125388685Y-126065057D01*
X125331542Y-126093628D01*
X125302971Y-126122200D01*
X125274400Y-126179342D01*
X125274400Y-126293628D01*
X125302971Y-126350771D01*
X125331542Y-126379342D01*
X125388685Y-126407914D01*
G04 #@! TO.C,C18*
X125780977Y-101807914D02*
X125809549Y-101836485D01*
X125838120Y-101922200D01*
X125838120Y-101979342D01*
X125809549Y-102065057D01*
X125752406Y-102122200D01*
X125695263Y-102150771D01*
X125580977Y-102179342D01*
X125495263Y-102179342D01*
X125380977Y-102150771D01*
X125323834Y-102122200D01*
X125266692Y-102065057D01*
X125238120Y-101979342D01*
X125238120Y-101922200D01*
X125266692Y-101836485D01*
X125295263Y-101807914D01*
X125838120Y-101236485D02*
X125838120Y-101579342D01*
X125838120Y-101407914D02*
X125238120Y-101407914D01*
X125323834Y-101465057D01*
X125380977Y-101522200D01*
X125409549Y-101579342D01*
X125495263Y-100893628D02*
X125466692Y-100950771D01*
X125438120Y-100979342D01*
X125380977Y-101007914D01*
X125352406Y-101007914D01*
X125295263Y-100979342D01*
X125266692Y-100950771D01*
X125238120Y-100893628D01*
X125238120Y-100779342D01*
X125266692Y-100722200D01*
X125295263Y-100693628D01*
X125352406Y-100665057D01*
X125380977Y-100665057D01*
X125438120Y-100693628D01*
X125466692Y-100722200D01*
X125495263Y-100779342D01*
X125495263Y-100893628D01*
X125523834Y-100950771D01*
X125552406Y-100979342D01*
X125609549Y-101007914D01*
X125723834Y-101007914D01*
X125780977Y-100979342D01*
X125809549Y-100950771D01*
X125838120Y-100893628D01*
X125838120Y-100779342D01*
X125809549Y-100722200D01*
X125780977Y-100693628D01*
X125723834Y-100665057D01*
X125609549Y-100665057D01*
X125552406Y-100693628D01*
X125523834Y-100722200D01*
X125495263Y-100779342D01*
G04 #@! TO.C,C20*
X140812885Y-110780485D02*
X140784314Y-110809057D01*
X140698600Y-110837628D01*
X140641457Y-110837628D01*
X140555742Y-110809057D01*
X140498600Y-110751914D01*
X140470028Y-110694771D01*
X140441457Y-110580485D01*
X140441457Y-110494771D01*
X140470028Y-110380485D01*
X140498600Y-110323342D01*
X140555742Y-110266200D01*
X140641457Y-110237628D01*
X140698600Y-110237628D01*
X140784314Y-110266200D01*
X140812885Y-110294771D01*
X141041457Y-110294771D02*
X141070028Y-110266200D01*
X141127171Y-110237628D01*
X141270028Y-110237628D01*
X141327171Y-110266200D01*
X141355742Y-110294771D01*
X141384314Y-110351914D01*
X141384314Y-110409057D01*
X141355742Y-110494771D01*
X141012885Y-110837628D01*
X141384314Y-110837628D01*
X141755742Y-110237628D02*
X141812885Y-110237628D01*
X141870028Y-110266200D01*
X141898600Y-110294771D01*
X141927171Y-110351914D01*
X141955742Y-110466200D01*
X141955742Y-110609057D01*
X141927171Y-110723342D01*
X141898600Y-110780485D01*
X141870028Y-110809057D01*
X141812885Y-110837628D01*
X141755742Y-110837628D01*
X141698600Y-110809057D01*
X141670028Y-110780485D01*
X141641457Y-110723342D01*
X141612885Y-110609057D01*
X141612885Y-110466200D01*
X141641457Y-110351914D01*
X141670028Y-110294771D01*
X141698600Y-110266200D01*
X141755742Y-110237628D01*
G04 #@! TO.C,R7*
X119610200Y-123385228D02*
X119410200Y-123099514D01*
X119267342Y-123385228D02*
X119267342Y-122785228D01*
X119495914Y-122785228D01*
X119553057Y-122813800D01*
X119581628Y-122842371D01*
X119610200Y-122899514D01*
X119610200Y-122985228D01*
X119581628Y-123042371D01*
X119553057Y-123070942D01*
X119495914Y-123099514D01*
X119267342Y-123099514D01*
X119810200Y-122785228D02*
X120210200Y-122785228D01*
X119953057Y-123385228D01*
G04 #@! TO.C,R8*
X114962000Y-109516828D02*
X114762000Y-109231114D01*
X114619142Y-109516828D02*
X114619142Y-108916828D01*
X114847714Y-108916828D01*
X114904857Y-108945400D01*
X114933428Y-108973971D01*
X114962000Y-109031114D01*
X114962000Y-109116828D01*
X114933428Y-109173971D01*
X114904857Y-109202542D01*
X114847714Y-109231114D01*
X114619142Y-109231114D01*
X115304857Y-109173971D02*
X115247714Y-109145400D01*
X115219142Y-109116828D01*
X115190571Y-109059685D01*
X115190571Y-109031114D01*
X115219142Y-108973971D01*
X115247714Y-108945400D01*
X115304857Y-108916828D01*
X115419142Y-108916828D01*
X115476285Y-108945400D01*
X115504857Y-108973971D01*
X115533428Y-109031114D01*
X115533428Y-109059685D01*
X115504857Y-109116828D01*
X115476285Y-109145400D01*
X115419142Y-109173971D01*
X115304857Y-109173971D01*
X115247714Y-109202542D01*
X115219142Y-109231114D01*
X115190571Y-109288257D01*
X115190571Y-109402542D01*
X115219142Y-109459685D01*
X115247714Y-109488257D01*
X115304857Y-109516828D01*
X115419142Y-109516828D01*
X115476285Y-109488257D01*
X115504857Y-109459685D01*
X115533428Y-109402542D01*
X115533428Y-109288257D01*
X115504857Y-109231114D01*
X115476285Y-109202542D01*
X115419142Y-109173971D01*
G04 #@! TO.C,C22*
X128585885Y-101807914D02*
X128614457Y-101836485D01*
X128643028Y-101922200D01*
X128643028Y-101979342D01*
X128614457Y-102065057D01*
X128557314Y-102122200D01*
X128500171Y-102150771D01*
X128385885Y-102179342D01*
X128300171Y-102179342D01*
X128185885Y-102150771D01*
X128128742Y-102122200D01*
X128071600Y-102065057D01*
X128043028Y-101979342D01*
X128043028Y-101922200D01*
X128071600Y-101836485D01*
X128100171Y-101807914D01*
X128100171Y-101579342D02*
X128071600Y-101550771D01*
X128043028Y-101493628D01*
X128043028Y-101350771D01*
X128071600Y-101293628D01*
X128100171Y-101265057D01*
X128157314Y-101236485D01*
X128214457Y-101236485D01*
X128300171Y-101265057D01*
X128643028Y-101607914D01*
X128643028Y-101236485D01*
X128100171Y-101007914D02*
X128071600Y-100979342D01*
X128043028Y-100922200D01*
X128043028Y-100779342D01*
X128071600Y-100722200D01*
X128100171Y-100693628D01*
X128157314Y-100665057D01*
X128214457Y-100665057D01*
X128300171Y-100693628D01*
X128643028Y-101036485D01*
X128643028Y-100665057D01*
G04 #@! TO.C,C23*
X129906685Y-101807914D02*
X129935257Y-101836485D01*
X129963828Y-101922200D01*
X129963828Y-101979342D01*
X129935257Y-102065057D01*
X129878114Y-102122200D01*
X129820971Y-102150771D01*
X129706685Y-102179342D01*
X129620971Y-102179342D01*
X129506685Y-102150771D01*
X129449542Y-102122200D01*
X129392400Y-102065057D01*
X129363828Y-101979342D01*
X129363828Y-101922200D01*
X129392400Y-101836485D01*
X129420971Y-101807914D01*
X129420971Y-101579342D02*
X129392400Y-101550771D01*
X129363828Y-101493628D01*
X129363828Y-101350771D01*
X129392400Y-101293628D01*
X129420971Y-101265057D01*
X129478114Y-101236485D01*
X129535257Y-101236485D01*
X129620971Y-101265057D01*
X129963828Y-101607914D01*
X129963828Y-101236485D01*
X129363828Y-101036485D02*
X129363828Y-100665057D01*
X129592400Y-100865057D01*
X129592400Y-100779342D01*
X129620971Y-100722200D01*
X129649542Y-100693628D01*
X129706685Y-100665057D01*
X129849542Y-100665057D01*
X129906685Y-100693628D01*
X129935257Y-100722200D01*
X129963828Y-100779342D01*
X129963828Y-100950771D01*
X129935257Y-101007914D01*
X129906685Y-101036485D01*
G04 #@! TO.C,C26*
X128433485Y-127182514D02*
X128462057Y-127211085D01*
X128490628Y-127296800D01*
X128490628Y-127353942D01*
X128462057Y-127439657D01*
X128404914Y-127496800D01*
X128347771Y-127525371D01*
X128233485Y-127553942D01*
X128147771Y-127553942D01*
X128033485Y-127525371D01*
X127976342Y-127496800D01*
X127919200Y-127439657D01*
X127890628Y-127353942D01*
X127890628Y-127296800D01*
X127919200Y-127211085D01*
X127947771Y-127182514D01*
X127947771Y-126953942D02*
X127919200Y-126925371D01*
X127890628Y-126868228D01*
X127890628Y-126725371D01*
X127919200Y-126668228D01*
X127947771Y-126639657D01*
X128004914Y-126611085D01*
X128062057Y-126611085D01*
X128147771Y-126639657D01*
X128490628Y-126982514D01*
X128490628Y-126611085D01*
X127890628Y-126096800D02*
X127890628Y-126211085D01*
X127919200Y-126268228D01*
X127947771Y-126296800D01*
X128033485Y-126353942D01*
X128147771Y-126382514D01*
X128376342Y-126382514D01*
X128433485Y-126353942D01*
X128462057Y-126325371D01*
X128490628Y-126268228D01*
X128490628Y-126153942D01*
X128462057Y-126096800D01*
X128433485Y-126068228D01*
X128376342Y-126039657D01*
X128233485Y-126039657D01*
X128176342Y-126068228D01*
X128147771Y-126096800D01*
X128119200Y-126153942D01*
X128119200Y-126268228D01*
X128147771Y-126325371D01*
X128176342Y-126353942D01*
X128233485Y-126382514D01*
G04 #@! TO.C,C27*
X129982885Y-127284114D02*
X130011457Y-127312685D01*
X130040028Y-127398400D01*
X130040028Y-127455542D01*
X130011457Y-127541257D01*
X129954314Y-127598400D01*
X129897171Y-127626971D01*
X129782885Y-127655542D01*
X129697171Y-127655542D01*
X129582885Y-127626971D01*
X129525742Y-127598400D01*
X129468600Y-127541257D01*
X129440028Y-127455542D01*
X129440028Y-127398400D01*
X129468600Y-127312685D01*
X129497171Y-127284114D01*
X129497171Y-127055542D02*
X129468600Y-127026971D01*
X129440028Y-126969828D01*
X129440028Y-126826971D01*
X129468600Y-126769828D01*
X129497171Y-126741257D01*
X129554314Y-126712685D01*
X129611457Y-126712685D01*
X129697171Y-126741257D01*
X130040028Y-127084114D01*
X130040028Y-126712685D01*
X129440028Y-126512685D02*
X129440028Y-126112685D01*
X130040028Y-126369828D01*
G04 #@! TO.C,C28*
X115311285Y-117536885D02*
X115282714Y-117565457D01*
X115197000Y-117594028D01*
X115139857Y-117594028D01*
X115054142Y-117565457D01*
X114997000Y-117508314D01*
X114968428Y-117451171D01*
X114939857Y-117336885D01*
X114939857Y-117251171D01*
X114968428Y-117136885D01*
X114997000Y-117079742D01*
X115054142Y-117022600D01*
X115139857Y-116994028D01*
X115197000Y-116994028D01*
X115282714Y-117022600D01*
X115311285Y-117051171D01*
X115539857Y-117051171D02*
X115568428Y-117022600D01*
X115625571Y-116994028D01*
X115768428Y-116994028D01*
X115825571Y-117022600D01*
X115854142Y-117051171D01*
X115882714Y-117108314D01*
X115882714Y-117165457D01*
X115854142Y-117251171D01*
X115511285Y-117594028D01*
X115882714Y-117594028D01*
X116225571Y-117251171D02*
X116168428Y-117222600D01*
X116139857Y-117194028D01*
X116111285Y-117136885D01*
X116111285Y-117108314D01*
X116139857Y-117051171D01*
X116168428Y-117022600D01*
X116225571Y-116994028D01*
X116339857Y-116994028D01*
X116397000Y-117022600D01*
X116425571Y-117051171D01*
X116454142Y-117108314D01*
X116454142Y-117136885D01*
X116425571Y-117194028D01*
X116397000Y-117222600D01*
X116339857Y-117251171D01*
X116225571Y-117251171D01*
X116168428Y-117279742D01*
X116139857Y-117308314D01*
X116111285Y-117365457D01*
X116111285Y-117479742D01*
X116139857Y-117536885D01*
X116168428Y-117565457D01*
X116225571Y-117594028D01*
X116339857Y-117594028D01*
X116397000Y-117565457D01*
X116425571Y-117536885D01*
X116454142Y-117479742D01*
X116454142Y-117365457D01*
X116425571Y-117308314D01*
X116397000Y-117279742D01*
X116339857Y-117251171D01*
G04 #@! TO.C,C29*
X115311285Y-116266885D02*
X115282714Y-116295457D01*
X115197000Y-116324028D01*
X115139857Y-116324028D01*
X115054142Y-116295457D01*
X114997000Y-116238314D01*
X114968428Y-116181171D01*
X114939857Y-116066885D01*
X114939857Y-115981171D01*
X114968428Y-115866885D01*
X114997000Y-115809742D01*
X115054142Y-115752600D01*
X115139857Y-115724028D01*
X115197000Y-115724028D01*
X115282714Y-115752600D01*
X115311285Y-115781171D01*
X115539857Y-115781171D02*
X115568428Y-115752600D01*
X115625571Y-115724028D01*
X115768428Y-115724028D01*
X115825571Y-115752600D01*
X115854142Y-115781171D01*
X115882714Y-115838314D01*
X115882714Y-115895457D01*
X115854142Y-115981171D01*
X115511285Y-116324028D01*
X115882714Y-116324028D01*
X116168428Y-116324028D02*
X116282714Y-116324028D01*
X116339857Y-116295457D01*
X116368428Y-116266885D01*
X116425571Y-116181171D01*
X116454142Y-116066885D01*
X116454142Y-115838314D01*
X116425571Y-115781171D01*
X116397000Y-115752600D01*
X116339857Y-115724028D01*
X116225571Y-115724028D01*
X116168428Y-115752600D01*
X116139857Y-115781171D01*
X116111285Y-115838314D01*
X116111285Y-115981171D01*
X116139857Y-116038314D01*
X116168428Y-116066885D01*
X116225571Y-116095457D01*
X116339857Y-116095457D01*
X116397000Y-116066885D01*
X116425571Y-116038314D01*
X116454142Y-115981171D01*
G04 #@! TO.C,C13*
X115285885Y-113498285D02*
X115257314Y-113526857D01*
X115171600Y-113555428D01*
X115114457Y-113555428D01*
X115028742Y-113526857D01*
X114971600Y-113469714D01*
X114943028Y-113412571D01*
X114914457Y-113298285D01*
X114914457Y-113212571D01*
X114943028Y-113098285D01*
X114971600Y-113041142D01*
X115028742Y-112984000D01*
X115114457Y-112955428D01*
X115171600Y-112955428D01*
X115257314Y-112984000D01*
X115285885Y-113012571D01*
X115857314Y-113555428D02*
X115514457Y-113555428D01*
X115685885Y-113555428D02*
X115685885Y-112955428D01*
X115628742Y-113041142D01*
X115571600Y-113098285D01*
X115514457Y-113126857D01*
X116057314Y-112955428D02*
X116428742Y-112955428D01*
X116228742Y-113184000D01*
X116314457Y-113184000D01*
X116371600Y-113212571D01*
X116400171Y-113241142D01*
X116428742Y-113298285D01*
X116428742Y-113441142D01*
X116400171Y-113498285D01*
X116371600Y-113526857D01*
X116314457Y-113555428D01*
X116143028Y-113555428D01*
X116085885Y-113526857D01*
X116057314Y-113498285D01*
G04 #@! TO.C,C15*
X115311285Y-120203885D02*
X115282714Y-120232457D01*
X115197000Y-120261028D01*
X115139857Y-120261028D01*
X115054142Y-120232457D01*
X114997000Y-120175314D01*
X114968428Y-120118171D01*
X114939857Y-120003885D01*
X114939857Y-119918171D01*
X114968428Y-119803885D01*
X114997000Y-119746742D01*
X115054142Y-119689600D01*
X115139857Y-119661028D01*
X115197000Y-119661028D01*
X115282714Y-119689600D01*
X115311285Y-119718171D01*
X115882714Y-120261028D02*
X115539857Y-120261028D01*
X115711285Y-120261028D02*
X115711285Y-119661028D01*
X115654142Y-119746742D01*
X115597000Y-119803885D01*
X115539857Y-119832457D01*
X116425571Y-119661028D02*
X116139857Y-119661028D01*
X116111285Y-119946742D01*
X116139857Y-119918171D01*
X116197000Y-119889600D01*
X116339857Y-119889600D01*
X116397000Y-119918171D01*
X116425571Y-119946742D01*
X116454142Y-120003885D01*
X116454142Y-120146742D01*
X116425571Y-120203885D01*
X116397000Y-120232457D01*
X116339857Y-120261028D01*
X116197000Y-120261028D01*
X116139857Y-120232457D01*
X116111285Y-120203885D01*
G04 #@! TO.C,C17*
X127595285Y-127207914D02*
X127623857Y-127236485D01*
X127652428Y-127322200D01*
X127652428Y-127379342D01*
X127623857Y-127465057D01*
X127566714Y-127522200D01*
X127509571Y-127550771D01*
X127395285Y-127579342D01*
X127309571Y-127579342D01*
X127195285Y-127550771D01*
X127138142Y-127522200D01*
X127081000Y-127465057D01*
X127052428Y-127379342D01*
X127052428Y-127322200D01*
X127081000Y-127236485D01*
X127109571Y-127207914D01*
X127652428Y-126636485D02*
X127652428Y-126979342D01*
X127652428Y-126807914D02*
X127052428Y-126807914D01*
X127138142Y-126865057D01*
X127195285Y-126922200D01*
X127223857Y-126979342D01*
X127052428Y-126436485D02*
X127052428Y-126036485D01*
X127652428Y-126293628D01*
G04 #@! TO.C,C19*
X127036485Y-101782514D02*
X127065057Y-101811085D01*
X127093628Y-101896800D01*
X127093628Y-101953942D01*
X127065057Y-102039657D01*
X127007914Y-102096800D01*
X126950771Y-102125371D01*
X126836485Y-102153942D01*
X126750771Y-102153942D01*
X126636485Y-102125371D01*
X126579342Y-102096800D01*
X126522200Y-102039657D01*
X126493628Y-101953942D01*
X126493628Y-101896800D01*
X126522200Y-101811085D01*
X126550771Y-101782514D01*
X127093628Y-101211085D02*
X127093628Y-101553942D01*
X127093628Y-101382514D02*
X126493628Y-101382514D01*
X126579342Y-101439657D01*
X126636485Y-101496800D01*
X126665057Y-101553942D01*
X127093628Y-100925371D02*
X127093628Y-100811085D01*
X127065057Y-100753942D01*
X127036485Y-100725371D01*
X126950771Y-100668228D01*
X126836485Y-100639657D01*
X126607914Y-100639657D01*
X126550771Y-100668228D01*
X126522200Y-100696800D01*
X126493628Y-100753942D01*
X126493628Y-100868228D01*
X126522200Y-100925371D01*
X126550771Y-100953942D01*
X126607914Y-100982514D01*
X126750771Y-100982514D01*
X126807914Y-100953942D01*
X126836485Y-100925371D01*
X126865057Y-100868228D01*
X126865057Y-100753942D01*
X126836485Y-100696800D01*
X126807914Y-100668228D01*
X126750771Y-100639657D01*
G04 #@! TO.C,C21*
X140812885Y-109485085D02*
X140784314Y-109513657D01*
X140698600Y-109542228D01*
X140641457Y-109542228D01*
X140555742Y-109513657D01*
X140498600Y-109456514D01*
X140470028Y-109399371D01*
X140441457Y-109285085D01*
X140441457Y-109199371D01*
X140470028Y-109085085D01*
X140498600Y-109027942D01*
X140555742Y-108970800D01*
X140641457Y-108942228D01*
X140698600Y-108942228D01*
X140784314Y-108970800D01*
X140812885Y-108999371D01*
X141041457Y-108999371D02*
X141070028Y-108970800D01*
X141127171Y-108942228D01*
X141270028Y-108942228D01*
X141327171Y-108970800D01*
X141355742Y-108999371D01*
X141384314Y-109056514D01*
X141384314Y-109113657D01*
X141355742Y-109199371D01*
X141012885Y-109542228D01*
X141384314Y-109542228D01*
X141955742Y-109542228D02*
X141612885Y-109542228D01*
X141784314Y-109542228D02*
X141784314Y-108942228D01*
X141727171Y-109027942D01*
X141670028Y-109085085D01*
X141612885Y-109113657D01*
G04 #@! TO.C,VIO*
D13*
X134896361Y-99858380D02*
X135229695Y-100858380D01*
X135563028Y-99858380D01*
X135896361Y-100858380D02*
X135896361Y-99858380D01*
X136563028Y-99858380D02*
X136753504Y-99858380D01*
X136848742Y-99906000D01*
X136943980Y-100001238D01*
X136991600Y-100191714D01*
X136991600Y-100525047D01*
X136943980Y-100715523D01*
X136848742Y-100810761D01*
X136753504Y-100858380D01*
X136563028Y-100858380D01*
X136467790Y-100810761D01*
X136372552Y-100715523D01*
X136324933Y-100525047D01*
X136324933Y-100191714D01*
X136372552Y-100001238D01*
X136467790Y-99906000D01*
X136563028Y-99858380D01*
G04 #@! TO.C,CLK*
X111952161Y-113641142D02*
X111904542Y-113688761D01*
X111761685Y-113736380D01*
X111666447Y-113736380D01*
X111523590Y-113688761D01*
X111428352Y-113593523D01*
X111380733Y-113498285D01*
X111333114Y-113307809D01*
X111333114Y-113164952D01*
X111380733Y-112974476D01*
X111428352Y-112879238D01*
X111523590Y-112784000D01*
X111666447Y-112736380D01*
X111761685Y-112736380D01*
X111904542Y-112784000D01*
X111952161Y-112831619D01*
X112856923Y-113736380D02*
X112380733Y-113736380D01*
X112380733Y-112736380D01*
X113190257Y-113736380D02*
X113190257Y-112736380D01*
X113761685Y-113736380D02*
X113333114Y-113164952D01*
X113761685Y-112736380D02*
X113190257Y-113307809D01*
G04 #@! TO.C,+5V*
X108010485Y-93060828D02*
X108772390Y-93060828D01*
X108391438Y-93441780D02*
X108391438Y-92679876D01*
X109724771Y-92441780D02*
X109248580Y-92441780D01*
X109200961Y-92917971D01*
X109248580Y-92870352D01*
X109343819Y-92822733D01*
X109581914Y-92822733D01*
X109677152Y-92870352D01*
X109724771Y-92917971D01*
X109772390Y-93013209D01*
X109772390Y-93251304D01*
X109724771Y-93346542D01*
X109677152Y-93394161D01*
X109581914Y-93441780D01*
X109343819Y-93441780D01*
X109248580Y-93394161D01*
X109200961Y-93346542D01*
X110058104Y-92441780D02*
X110391438Y-93441780D01*
X110724771Y-92441780D01*
G04 #@! TO.C,GND*
X106197495Y-97493200D02*
X106102257Y-97445580D01*
X105959400Y-97445580D01*
X105816542Y-97493200D01*
X105721304Y-97588438D01*
X105673685Y-97683676D01*
X105626066Y-97874152D01*
X105626066Y-98017009D01*
X105673685Y-98207485D01*
X105721304Y-98302723D01*
X105816542Y-98397961D01*
X105959400Y-98445580D01*
X106054638Y-98445580D01*
X106197495Y-98397961D01*
X106245114Y-98350342D01*
X106245114Y-98017009D01*
X106054638Y-98017009D01*
X106673685Y-98445580D02*
X106673685Y-97445580D01*
X107245114Y-98445580D01*
X107245114Y-97445580D01*
X107721304Y-98445580D02*
X107721304Y-97445580D01*
X107959400Y-97445580D01*
X108102257Y-97493200D01*
X108197495Y-97588438D01*
X108245114Y-97683676D01*
X108292733Y-97874152D01*
X108292733Y-98017009D01*
X108245114Y-98207485D01*
X108197495Y-98302723D01*
X108102257Y-98397961D01*
X107959400Y-98445580D01*
X107721304Y-98445580D01*
G04 #@! TO.C,VCore*
X108694790Y-122743980D02*
X109028123Y-123743980D01*
X109361457Y-122743980D01*
X110266219Y-123648742D02*
X110218600Y-123696361D01*
X110075742Y-123743980D01*
X109980504Y-123743980D01*
X109837647Y-123696361D01*
X109742409Y-123601123D01*
X109694790Y-123505885D01*
X109647171Y-123315409D01*
X109647171Y-123172552D01*
X109694790Y-122982076D01*
X109742409Y-122886838D01*
X109837647Y-122791600D01*
X109980504Y-122743980D01*
X110075742Y-122743980D01*
X110218600Y-122791600D01*
X110266219Y-122839219D01*
X110837647Y-123743980D02*
X110742409Y-123696361D01*
X110694790Y-123648742D01*
X110647171Y-123553504D01*
X110647171Y-123267790D01*
X110694790Y-123172552D01*
X110742409Y-123124933D01*
X110837647Y-123077314D01*
X110980504Y-123077314D01*
X111075742Y-123124933D01*
X111123361Y-123172552D01*
X111170980Y-123267790D01*
X111170980Y-123553504D01*
X111123361Y-123648742D01*
X111075742Y-123696361D01*
X110980504Y-123743980D01*
X110837647Y-123743980D01*
X111599552Y-123743980D02*
X111599552Y-123077314D01*
X111599552Y-123267790D02*
X111647171Y-123172552D01*
X111694790Y-123124933D01*
X111790028Y-123077314D01*
X111885266Y-123077314D01*
X112599552Y-123696361D02*
X112504314Y-123743980D01*
X112313838Y-123743980D01*
X112218600Y-123696361D01*
X112170980Y-123601123D01*
X112170980Y-123220171D01*
X112218600Y-123124933D01*
X112313838Y-123077314D01*
X112504314Y-123077314D01*
X112599552Y-123124933D01*
X112647171Y-123220171D01*
X112647171Y-123315409D01*
X112170980Y-123410647D01*
G04 #@! TO.C,VPLL*
X114917742Y-102296980D02*
X115251076Y-103296980D01*
X115584409Y-102296980D01*
X115917742Y-103296980D02*
X115917742Y-102296980D01*
X116298695Y-102296980D01*
X116393933Y-102344600D01*
X116441552Y-102392219D01*
X116489171Y-102487457D01*
X116489171Y-102630314D01*
X116441552Y-102725552D01*
X116393933Y-102773171D01*
X116298695Y-102820790D01*
X115917742Y-102820790D01*
X117393933Y-103296980D02*
X116917742Y-103296980D01*
X116917742Y-102296980D01*
X118203457Y-103296980D02*
X117727266Y-103296980D01*
X117727266Y-102296980D01*
G04 #@! TD*
M02*
