G04 #@! TF.GenerationSoftware,KiCad,Pcbnew,5.0.2-bee76a0~70~ubuntu18.04.1*
G04 #@! TF.CreationDate,2019-11-19T20:55:50-08:00*
G04 #@! TF.ProjectId,A3P250_Dev_Board,41335032-3530-45f4-9465-765f426f6172,rev?*
G04 #@! TF.SameCoordinates,Original*
G04 #@! TF.FileFunction,Copper,L2,Inr*
G04 #@! TF.FilePolarity,Positive*
%FSLAX46Y46*%
G04 Gerber Fmt 4.6, Leading zero omitted, Abs format (unit mm)*
G04 Created by KiCad (PCBNEW 5.0.2-bee76a0~70~ubuntu18.04.1) date Tue 19 Nov 2019 08:55:50 PM PST*
%MOMM*%
%LPD*%
G01*
G04 APERTURE LIST*
G04 #@! TA.AperFunction,ViaPad*
%ADD10O,1.350000X1.350000*%
G04 #@! TD*
G04 #@! TA.AperFunction,ViaPad*
%ADD11R,1.350000X1.350000*%
G04 #@! TD*
G04 #@! TA.AperFunction,ViaPad*
%ADD12C,1.000000*%
G04 #@! TD*
G04 #@! TA.AperFunction,ViaPad*
%ADD13C,0.508000*%
G04 #@! TD*
G04 #@! TA.AperFunction,Conductor*
%ADD14C,0.254000*%
G04 #@! TD*
G04 APERTURE END LIST*
D10*
G04 #@! TO.N,Net-(J3-Pad20)*
G04 #@! TO.C,J3*
X104870000Y-132270000D03*
G04 #@! TO.N,Net-(J3-Pad19)*
X106870000Y-132270000D03*
G04 #@! TO.N,Net-(J3-Pad18)*
X108870000Y-132270000D03*
G04 #@! TO.N,Net-(J3-Pad17)*
X110870000Y-132270000D03*
G04 #@! TO.N,Net-(J3-Pad16)*
X112870000Y-132270000D03*
G04 #@! TO.N,Net-(J3-Pad15)*
X114870000Y-132270000D03*
G04 #@! TO.N,Net-(J3-Pad14)*
X116870000Y-132270000D03*
G04 #@! TO.N,Net-(J3-Pad13)*
X118870000Y-132270000D03*
G04 #@! TO.N,Net-(J3-Pad12)*
X120870000Y-132270000D03*
G04 #@! TO.N,Net-(J3-Pad11)*
X122870000Y-132270000D03*
G04 #@! TO.N,Net-(J3-Pad10)*
X124870000Y-132270000D03*
G04 #@! TO.N,Net-(C26-Pad1)*
X126870000Y-132270000D03*
G04 #@! TO.N,Net-(J3-Pad8)*
X128870000Y-132270000D03*
G04 #@! TO.N,Net-(J3-Pad7)*
X130870000Y-132270000D03*
G04 #@! TO.N,Net-(J3-Pad6)*
X132870000Y-132270000D03*
G04 #@! TO.N,Net-(J3-Pad5)*
X134870000Y-132270000D03*
G04 #@! TO.N,Net-(J3-Pad4)*
X136870000Y-132270000D03*
G04 #@! TO.N,Net-(J3-Pad3)*
X138870000Y-132270000D03*
G04 #@! TO.N,TCK*
X140870000Y-132270000D03*
D11*
G04 #@! TO.N,TDI*
X142870000Y-132270000D03*
G04 #@! TD*
G04 #@! TO.N,Net-(J2-Pad1)*
G04 #@! TO.C,J2*
X146870000Y-90270000D03*
D10*
G04 #@! TO.N,Net-(J2-Pad2)*
X146870000Y-92270000D03*
G04 #@! TO.N,Net-(J2-Pad3)*
X146870000Y-94270000D03*
G04 #@! TO.N,Net-(J2-Pad4)*
X146870000Y-96270000D03*
G04 #@! TO.N,Net-(J2-Pad5)*
X146870000Y-98270000D03*
G04 #@! TO.N,Net-(C24-Pad1)*
X146870000Y-100270000D03*
G04 #@! TO.N,Net-(J2-Pad7)*
X146870000Y-102270000D03*
G04 #@! TO.N,Net-(J2-Pad8)*
X146870000Y-104270000D03*
G04 #@! TO.N,Net-(J2-Pad9)*
X146870000Y-106270000D03*
G04 #@! TO.N,Net-(J2-Pad10)*
X146870000Y-108270000D03*
G04 #@! TO.N,Net-(J2-Pad11)*
X146870000Y-110270000D03*
G04 #@! TO.N,Net-(J2-Pad12)*
X146870000Y-112270000D03*
G04 #@! TO.N,Net-(J2-Pad13)*
X146870000Y-114270000D03*
G04 #@! TO.N,Net-(J2-Pad14)*
X146870000Y-116270000D03*
G04 #@! TO.N,Net-(J2-Pad15)*
X146870000Y-118270000D03*
G04 #@! TO.N,VCCIB3*
X146870000Y-120270000D03*
G04 #@! TO.N,TRST*
X146870000Y-122270000D03*
G04 #@! TO.N,TDO*
X146870000Y-124270000D03*
G04 #@! TO.N,VPUMP*
X146870000Y-126270000D03*
G04 #@! TO.N,TMS*
X146870000Y-128270000D03*
G04 #@! TD*
G04 #@! TO.N,Net-(J1-Pad20)*
G04 #@! TO.C,J1*
X142870000Y-86270000D03*
G04 #@! TO.N,Net-(J1-Pad19)*
X140870000Y-86270000D03*
G04 #@! TO.N,Net-(J1-Pad18)*
X138870000Y-86270000D03*
G04 #@! TO.N,Net-(J1-Pad17)*
X136870000Y-86270000D03*
G04 #@! TO.N,Net-(J1-Pad16)*
X134870000Y-86270000D03*
G04 #@! TO.N,Net-(J1-Pad15)*
X132870000Y-86270000D03*
G04 #@! TO.N,Net-(J1-Pad14)*
X130870000Y-86270000D03*
G04 #@! TO.N,Net-(J1-Pad13)*
X128870000Y-86270000D03*
G04 #@! TO.N,Net-(J1-Pad12)*
X126870000Y-86270000D03*
G04 #@! TO.N,Net-(J1-Pad11)*
X124870000Y-86270000D03*
G04 #@! TO.N,Net-(J1-Pad10)*
X122870000Y-86270000D03*
G04 #@! TO.N,Net-(C22-Pad1)*
X120870000Y-86270000D03*
G04 #@! TO.N,Net-(J1-Pad8)*
X118870000Y-86270000D03*
G04 #@! TO.N,Net-(J1-Pad7)*
X116870000Y-86270000D03*
G04 #@! TO.N,Net-(J1-Pad6)*
X114870000Y-86270000D03*
G04 #@! TO.N,Net-(J1-Pad5)*
X112870000Y-86270000D03*
G04 #@! TO.N,Net-(J1-Pad4)*
X110870000Y-86270000D03*
G04 #@! TO.N,Net-(J1-Pad3)*
X108870000Y-86270000D03*
G04 #@! TO.N,Net-(J1-Pad2)*
X106870000Y-86270000D03*
D11*
G04 #@! TO.N,Net-(J1-Pad1)*
X104870000Y-86270000D03*
G04 #@! TD*
G04 #@! TO.N,Net-(J4-Pad1)*
G04 #@! TO.C,J4*
X100870000Y-128270000D03*
D10*
G04 #@! TO.N,Net-(J4-Pad2)*
X100870000Y-126270000D03*
G04 #@! TO.N,Net-(J4-Pad3)*
X100870000Y-124270000D03*
G04 #@! TO.N,Net-(J4-Pad4)*
X100870000Y-122270000D03*
G04 #@! TO.N,Net-(J4-Pad5)*
X100870000Y-120270000D03*
G04 #@! TO.N,VCCIB3*
X100870000Y-118270000D03*
G04 #@! TO.N,Net-(J4-Pad7)*
X100870000Y-116270000D03*
G04 #@! TO.N,Net-(J4-Pad8)*
X100870000Y-114270000D03*
G04 #@! TO.N,Net-(J4-Pad9)*
X100870000Y-112270000D03*
G04 #@! TO.N,Net-(J4-Pad10)*
X100870000Y-110270000D03*
G04 #@! TO.N,Net-(J4-Pad11)*
X100870000Y-108270000D03*
G04 #@! TO.N,Net-(D1-Pad2)*
X100870000Y-106270000D03*
G04 #@! TO.N,Net-(J4-Pad13)*
X100870000Y-104270000D03*
G04 #@! TO.N,Net-(J4-Pad14)*
X100870000Y-102270000D03*
G04 #@! TO.N,Net-(J4-Pad15)*
X100870000Y-100270000D03*
G04 #@! TO.N,Net-(J4-Pad16)*
X100870000Y-98270000D03*
G04 #@! TO.N,Net-(J4-Pad17)*
X100870000Y-96270000D03*
G04 #@! TO.N,GAA_IO00RSB0*
X100870000Y-94270000D03*
G04 #@! TO.N,GND*
X100870000Y-92270000D03*
G04 #@! TO.N,+5V*
X100870000Y-90270000D03*
G04 #@! TD*
G04 #@! TO.N,+5V*
G04 #@! TO.C,J4*
X102870000Y-90270000D03*
G04 #@! TO.N,GND*
X102870000Y-92270000D03*
G04 #@! TO.N,GAA_IO00RSB0*
X102870000Y-94270000D03*
G04 #@! TO.N,Net-(J4-Pad17)*
X102870000Y-96270000D03*
G04 #@! TO.N,Net-(J4-Pad16)*
X102870000Y-98270000D03*
G04 #@! TO.N,Net-(J4-Pad15)*
X102870000Y-100270000D03*
G04 #@! TO.N,Net-(J4-Pad14)*
X102870000Y-102270000D03*
G04 #@! TO.N,Net-(J4-Pad13)*
X102870000Y-104270000D03*
G04 #@! TO.N,Net-(D1-Pad2)*
X102870000Y-106270000D03*
G04 #@! TO.N,Net-(J4-Pad11)*
X102870000Y-108270000D03*
G04 #@! TO.N,Net-(J4-Pad10)*
X102870000Y-110270000D03*
G04 #@! TO.N,Net-(J4-Pad9)*
X102870000Y-112270000D03*
G04 #@! TO.N,Net-(J4-Pad8)*
X102870000Y-114270000D03*
G04 #@! TO.N,Net-(J4-Pad7)*
X102870000Y-116270000D03*
G04 #@! TO.N,VCCIB3*
X102870000Y-118270000D03*
G04 #@! TO.N,Net-(J4-Pad5)*
X102870000Y-120270000D03*
G04 #@! TO.N,Net-(J4-Pad4)*
X102870000Y-122270000D03*
G04 #@! TO.N,Net-(J4-Pad3)*
X102870000Y-124270000D03*
G04 #@! TO.N,Net-(J4-Pad2)*
X102870000Y-126270000D03*
D11*
G04 #@! TO.N,Net-(J4-Pad1)*
X102870000Y-128270000D03*
G04 #@! TD*
G04 #@! TO.N,TDI*
G04 #@! TO.C,J3*
X142870000Y-130270000D03*
D10*
G04 #@! TO.N,TCK*
X140870000Y-130270000D03*
G04 #@! TO.N,Net-(J3-Pad3)*
X138870000Y-130270000D03*
G04 #@! TO.N,Net-(J3-Pad4)*
X136870000Y-130270000D03*
G04 #@! TO.N,Net-(J3-Pad5)*
X134870000Y-130270000D03*
G04 #@! TO.N,Net-(J3-Pad6)*
X132870000Y-130270000D03*
G04 #@! TO.N,Net-(J3-Pad7)*
X130870000Y-130270000D03*
G04 #@! TO.N,Net-(J3-Pad8)*
X128870000Y-130270000D03*
G04 #@! TO.N,Net-(C26-Pad1)*
X126870000Y-130270000D03*
G04 #@! TO.N,Net-(J3-Pad10)*
X124870000Y-130270000D03*
G04 #@! TO.N,Net-(J3-Pad11)*
X122870000Y-130270000D03*
G04 #@! TO.N,Net-(J3-Pad12)*
X120870000Y-130270000D03*
G04 #@! TO.N,Net-(J3-Pad13)*
X118870000Y-130270000D03*
G04 #@! TO.N,Net-(J3-Pad14)*
X116870000Y-130270000D03*
G04 #@! TO.N,Net-(J3-Pad15)*
X114870000Y-130270000D03*
G04 #@! TO.N,Net-(J3-Pad16)*
X112870000Y-130270000D03*
G04 #@! TO.N,Net-(J3-Pad17)*
X110870000Y-130270000D03*
G04 #@! TO.N,Net-(J3-Pad18)*
X108870000Y-130270000D03*
G04 #@! TO.N,Net-(J3-Pad19)*
X106870000Y-130270000D03*
G04 #@! TO.N,Net-(J3-Pad20)*
X104870000Y-130270000D03*
G04 #@! TD*
D11*
G04 #@! TO.N,Net-(J1-Pad1)*
G04 #@! TO.C,J1*
X104870000Y-88270000D03*
D10*
G04 #@! TO.N,Net-(J1-Pad2)*
X106870000Y-88270000D03*
G04 #@! TO.N,Net-(J1-Pad3)*
X108870000Y-88270000D03*
G04 #@! TO.N,Net-(J1-Pad4)*
X110870000Y-88270000D03*
G04 #@! TO.N,Net-(J1-Pad5)*
X112870000Y-88270000D03*
G04 #@! TO.N,Net-(J1-Pad6)*
X114870000Y-88270000D03*
G04 #@! TO.N,Net-(J1-Pad7)*
X116870000Y-88270000D03*
G04 #@! TO.N,Net-(J1-Pad8)*
X118870000Y-88270000D03*
G04 #@! TO.N,Net-(C22-Pad1)*
X120870000Y-88270000D03*
G04 #@! TO.N,Net-(J1-Pad10)*
X122870000Y-88270000D03*
G04 #@! TO.N,Net-(J1-Pad11)*
X124870000Y-88270000D03*
G04 #@! TO.N,Net-(J1-Pad12)*
X126870000Y-88270000D03*
G04 #@! TO.N,Net-(J1-Pad13)*
X128870000Y-88270000D03*
G04 #@! TO.N,Net-(J1-Pad14)*
X130870000Y-88270000D03*
G04 #@! TO.N,Net-(J1-Pad15)*
X132870000Y-88270000D03*
G04 #@! TO.N,Net-(J1-Pad16)*
X134870000Y-88270000D03*
G04 #@! TO.N,Net-(J1-Pad17)*
X136870000Y-88270000D03*
G04 #@! TO.N,Net-(J1-Pad18)*
X138870000Y-88270000D03*
G04 #@! TO.N,Net-(J1-Pad19)*
X140870000Y-88270000D03*
G04 #@! TO.N,Net-(J1-Pad20)*
X142870000Y-88270000D03*
G04 #@! TD*
G04 #@! TO.N,TMS*
G04 #@! TO.C,J2*
X144870000Y-128270000D03*
G04 #@! TO.N,VPUMP*
X144870000Y-126270000D03*
G04 #@! TO.N,TDO*
X144870000Y-124270000D03*
G04 #@! TO.N,TRST*
X144870000Y-122270000D03*
G04 #@! TO.N,VCCIB3*
X144870000Y-120270000D03*
G04 #@! TO.N,Net-(J2-Pad15)*
X144870000Y-118270000D03*
G04 #@! TO.N,Net-(J2-Pad14)*
X144870000Y-116270000D03*
G04 #@! TO.N,Net-(J2-Pad13)*
X144870000Y-114270000D03*
G04 #@! TO.N,Net-(J2-Pad12)*
X144870000Y-112270000D03*
G04 #@! TO.N,Net-(J2-Pad11)*
X144870000Y-110270000D03*
G04 #@! TO.N,Net-(J2-Pad10)*
X144870000Y-108270000D03*
G04 #@! TO.N,Net-(J2-Pad9)*
X144870000Y-106270000D03*
G04 #@! TO.N,Net-(J2-Pad8)*
X144870000Y-104270000D03*
G04 #@! TO.N,Net-(J2-Pad7)*
X144870000Y-102270000D03*
G04 #@! TO.N,Net-(C24-Pad1)*
X144870000Y-100270000D03*
G04 #@! TO.N,Net-(J2-Pad5)*
X144870000Y-98270000D03*
G04 #@! TO.N,Net-(J2-Pad4)*
X144870000Y-96270000D03*
G04 #@! TO.N,Net-(J2-Pad3)*
X144870000Y-94270000D03*
G04 #@! TO.N,Net-(J2-Pad2)*
X144870000Y-92270000D03*
D11*
G04 #@! TO.N,Net-(J2-Pad1)*
X144870000Y-90270000D03*
G04 #@! TD*
D12*
G04 #@! TO.N,VCCIB3*
G04 #@! TO.C,VIO*
X135991600Y-101854000D03*
G04 #@! TD*
G04 #@! TO.N,Net-(J4-Pad11)*
G04 #@! TO.C,CLK*
X112293400Y-111582200D03*
G04 #@! TD*
G04 #@! TO.N,+5V*
G04 #@! TO.C,+5V*
X107111800Y-92887800D03*
G04 #@! TD*
G04 #@! TO.N,GND*
G04 #@! TO.C,GND*
X106984800Y-96469200D03*
G04 #@! TD*
G04 #@! TO.N,Net-(C10-Pad1)*
G04 #@! TO.C,VCore*
X110744000Y-121793000D03*
G04 #@! TD*
G04 #@! TO.N,Net-(C11-Pad1)*
G04 #@! TO.C,VPLL*
X116662200Y-101269800D03*
G04 #@! TD*
D13*
G04 #@! TO.N,GND*
X112522000Y-95845000D03*
X112562000Y-96647000D03*
X111887000Y-97790000D03*
X112903000Y-101092000D03*
X114173000Y-94361000D03*
X115824000Y-94996000D03*
X113665000Y-98171000D03*
X114388948Y-99860668D03*
X117094000Y-96266000D03*
X110295968Y-100948768D03*
X114427000Y-102997000D03*
X135531696Y-96703249D03*
X139722696Y-97592249D03*
X139595696Y-94036249D03*
X117983000Y-101473000D03*
X119761000Y-101473000D03*
X104140000Y-92329000D03*
X105156000Y-92329000D03*
X112776000Y-108077000D03*
X120396000Y-106426000D03*
X121869200Y-111379000D03*
X119373614Y-107840729D03*
X123063000Y-107442000D03*
X135255000Y-112141000D03*
X135001000Y-119888000D03*
G04 #@! TO.N,Net-(C26-Pad1)*
X134747000Y-123190000D03*
G04 #@! TO.N,GND*
X132461000Y-120904000D03*
X138963400Y-120497600D03*
X139065000Y-119380000D03*
X117201488Y-106726189D03*
G04 #@! TO.N,Net-(C11-Pad1)*
X118516400Y-113893600D03*
G04 #@! TO.N,Net-(C10-Pad1)*
X116078000Y-95631000D03*
X109220000Y-94996000D03*
G04 #@! TO.N,VCCIB3*
X136674696Y-96703249D03*
X136674696Y-98100249D03*
G04 #@! TO.N,Net-(J1-Pad1)*
X123063000Y-104013000D03*
G04 #@! TO.N,Net-(J1-Pad2)*
X123063000Y-102997000D03*
G04 #@! TO.N,Net-(J1-Pad16)*
X132582800Y-105239950D03*
G04 #@! TO.N,Net-(J1-Pad17)*
X132969000Y-104521000D03*
G04 #@! TO.N,Net-(J1-Pad18)*
X133598801Y-104927041D03*
G04 #@! TO.N,Net-(J1-Pad19)*
X134366000Y-104775000D03*
G04 #@! TO.N,Net-(J1-Pad20)*
X135001000Y-105029000D03*
G04 #@! TO.N,TMS*
X134035800Y-120980200D03*
G04 #@! TO.N,Net-(J3-Pad13)*
X126082800Y-123190000D03*
G04 #@! TO.N,+5V*
X133858000Y-90297000D03*
X106299000Y-90270000D03*
G04 #@! TO.N,Net-(J4-Pad16)*
X117465485Y-108658226D03*
G04 #@! TO.N,Net-(J4-Pad15)*
X119380000Y-110109000D03*
G04 #@! TO.N,Net-(J4-Pad11)*
X122174000Y-112649000D03*
G04 #@! TO.N,Net-(C11-Pad1)*
X117983000Y-99695000D03*
G04 #@! TO.N,GND*
X116558851Y-113893600D03*
X116027200Y-113893600D03*
X129015704Y-101722090D03*
X129015704Y-102253741D03*
X140978881Y-109900025D03*
X140447230Y-109900025D03*
X140975919Y-112672330D03*
X126190398Y-101722268D03*
X140444268Y-112672330D03*
X126190398Y-102253919D03*
X126061371Y-126618619D03*
X116103400Y-116687600D03*
X129001848Y-126635420D03*
X126061371Y-126086968D03*
X116635051Y-116687600D03*
X129001848Y-126103769D03*
X115951000Y-119354600D03*
X116482651Y-119354600D03*
G04 #@! TO.N,Net-(C10-Pad1)*
X117548420Y-119354600D03*
G04 #@! TO.N,Net-(C11-Pad1)*
X117624620Y-113893600D03*
G04 #@! TO.N,Net-(C22-Pad1)*
X129015704Y-104211290D03*
X129015704Y-103319510D03*
G04 #@! TO.N,Net-(C10-Pad1)*
X138489681Y-109900025D03*
X139381461Y-109900025D03*
G04 #@! TO.N,Net-(C24-Pad1)*
X138486719Y-112672330D03*
G04 #@! TO.N,Net-(C10-Pad1)*
X126190398Y-104211468D03*
X126190398Y-103319688D03*
X126061371Y-124129419D03*
X126061371Y-125021199D03*
G04 #@! TO.N,VCCIB3*
X117700820Y-116687600D03*
G04 #@! TO.N,Net-(C10-Pad1)*
X128168400Y-123190000D03*
X137617200Y-111785400D03*
X128244600Y-105029000D03*
G04 #@! TO.N,VCCIB3*
X118592600Y-116687600D03*
G04 #@! TO.N,Net-(J1-Pad3)*
X125017728Y-104979272D03*
G04 #@! TO.N,Net-(J1-Pad5)*
X126009400Y-107467400D03*
G04 #@! TO.N,Net-(J1-Pad6)*
X126517400Y-105003600D03*
G04 #@! TO.N,Net-(J1-Pad7)*
X127061607Y-104629458D03*
G04 #@! TO.N,Net-(J2-Pad8)*
X135255000Y-113665000D03*
G04 #@! TO.N,Net-(J2-Pad7)*
X137972800Y-113309400D03*
G04 #@! TO.N,Net-(J2-Pad4)*
X137896600Y-110540800D03*
G04 #@! TO.N,Net-(J2-Pad3)*
X135229600Y-110185200D03*
G04 #@! TO.N,Net-(J3-Pad7)*
X130022600Y-120904000D03*
G04 #@! TO.N,Net-(J3-Pad8)*
X129582800Y-123647200D03*
G04 #@! TO.N,Net-(J3-Pad12)*
X126606526Y-123655848D03*
G04 #@! TO.N,Net-(J3-Pad14)*
X125142968Y-123339568D03*
G04 #@! TO.N,Net-(J3-Pad15)*
X125018800Y-120929400D03*
G04 #@! TO.N,GND*
X121920000Y-113665000D03*
G04 #@! TO.N,VCCIB3*
X121691400Y-119684800D03*
G04 #@! TO.N,GND*
X119608600Y-120167400D03*
X121234200Y-121589800D03*
X128456894Y-107442000D03*
X135331144Y-108314799D03*
X128447790Y-120904000D03*
G04 #@! TO.N,Net-(C10-Pad1)*
X118414790Y-119354600D03*
X119507000Y-116128800D03*
X117703600Y-94361000D03*
G04 #@! TO.N,Net-(J1-Pad10)*
X129581436Y-104673072D03*
G04 #@! TO.N,Net-(J1-Pad11)*
X130026875Y-105160645D03*
G04 #@! TO.N,GAA_IO00RSB0*
X123074580Y-104896462D03*
G04 #@! TO.N,Net-(J4-Pad9)*
X119354600Y-113792000D03*
G04 #@! TO.N,Net-(J4-Pad7)*
X121818400Y-115671600D03*
G04 #@! TO.N,Net-(J4-Pad5)*
X119430800Y-117246412D03*
G04 #@! TO.N,Net-(J4-Pad4)*
X121843800Y-117678200D03*
G04 #@! TO.N,Net-(J4-Pad2)*
X118973600Y-118643410D03*
G04 #@! TO.N,Net-(C11-Pad1)*
X119761000Y-99949000D03*
X119502435Y-114544246D03*
G04 #@! TO.N,Net-(J4-Pad17)*
X118266210Y-108060980D03*
G04 #@! TO.N,Net-(C22-Pad1)*
X122478800Y-105181400D03*
G04 #@! TO.N,Net-(C24-Pad1)*
X139378499Y-112672330D03*
X137795000Y-107721400D03*
G04 #@! TO.N,Net-(C26-Pad1)*
X129001848Y-124146220D03*
X129001848Y-125038000D03*
G04 #@! TD*
D14*
G04 #@! TO.N,GND*
G36*
X103806536Y-86666024D02*
X103806536Y-86945000D01*
X103836106Y-87093659D01*
X103920314Y-87219686D01*
X103995615Y-87270000D01*
X103920314Y-87320314D01*
X103836106Y-87446341D01*
X103806536Y-87595000D01*
X103806536Y-88945000D01*
X103836106Y-89093659D01*
X103920314Y-89219686D01*
X104046341Y-89303894D01*
X104195000Y-89333464D01*
X105545000Y-89333464D01*
X105693659Y-89303894D01*
X105819686Y-89219686D01*
X105903894Y-89093659D01*
X105933464Y-88945000D01*
X105933464Y-88769124D01*
X106108667Y-89031333D01*
X106457969Y-89264730D01*
X106765994Y-89326000D01*
X106974006Y-89326000D01*
X107282031Y-89264730D01*
X107631333Y-89031333D01*
X107864730Y-88682031D01*
X107870000Y-88655537D01*
X107875270Y-88682031D01*
X108108667Y-89031333D01*
X108457969Y-89264730D01*
X108765994Y-89326000D01*
X108974006Y-89326000D01*
X109282031Y-89264730D01*
X109631333Y-89031333D01*
X109864730Y-88682031D01*
X109870000Y-88655537D01*
X109875270Y-88682031D01*
X110108667Y-89031333D01*
X110457969Y-89264730D01*
X110765994Y-89326000D01*
X110974006Y-89326000D01*
X111282031Y-89264730D01*
X111631333Y-89031333D01*
X111864730Y-88682031D01*
X111870000Y-88655537D01*
X111875270Y-88682031D01*
X112108667Y-89031333D01*
X112457969Y-89264730D01*
X112765994Y-89326000D01*
X112974006Y-89326000D01*
X113282031Y-89264730D01*
X113631333Y-89031333D01*
X113864730Y-88682031D01*
X113870000Y-88655537D01*
X113875270Y-88682031D01*
X114108667Y-89031333D01*
X114457969Y-89264730D01*
X114765994Y-89326000D01*
X114974006Y-89326000D01*
X115282031Y-89264730D01*
X115631333Y-89031333D01*
X115864730Y-88682031D01*
X115870000Y-88655537D01*
X115875270Y-88682031D01*
X116108667Y-89031333D01*
X116457969Y-89264730D01*
X116765994Y-89326000D01*
X116974006Y-89326000D01*
X117282031Y-89264730D01*
X117631333Y-89031333D01*
X117864730Y-88682031D01*
X117870000Y-88655537D01*
X117875270Y-88682031D01*
X118108667Y-89031333D01*
X118457969Y-89264730D01*
X118765994Y-89326000D01*
X118974006Y-89326000D01*
X119282031Y-89264730D01*
X119631333Y-89031333D01*
X119864730Y-88682031D01*
X119870000Y-88655537D01*
X119875270Y-88682031D01*
X120108667Y-89031333D01*
X120457969Y-89264730D01*
X120765994Y-89326000D01*
X120974006Y-89326000D01*
X121282031Y-89264730D01*
X121631333Y-89031333D01*
X121864730Y-88682031D01*
X121870000Y-88655537D01*
X121875270Y-88682031D01*
X122108667Y-89031333D01*
X122457969Y-89264730D01*
X122765994Y-89326000D01*
X122974006Y-89326000D01*
X123282031Y-89264730D01*
X123631333Y-89031333D01*
X123864730Y-88682031D01*
X123870000Y-88655537D01*
X123875270Y-88682031D01*
X124108667Y-89031333D01*
X124457969Y-89264730D01*
X124765994Y-89326000D01*
X124974006Y-89326000D01*
X125282031Y-89264730D01*
X125631333Y-89031333D01*
X125864730Y-88682031D01*
X125870000Y-88655537D01*
X125875270Y-88682031D01*
X126108667Y-89031333D01*
X126457969Y-89264730D01*
X126765994Y-89326000D01*
X126974006Y-89326000D01*
X127282031Y-89264730D01*
X127631333Y-89031333D01*
X127864730Y-88682031D01*
X127870000Y-88655537D01*
X127875270Y-88682031D01*
X128108667Y-89031333D01*
X128457969Y-89264730D01*
X128765994Y-89326000D01*
X128974006Y-89326000D01*
X129282031Y-89264730D01*
X129631333Y-89031333D01*
X129864730Y-88682031D01*
X129870000Y-88655537D01*
X129875270Y-88682031D01*
X130108667Y-89031333D01*
X130457969Y-89264730D01*
X130765994Y-89326000D01*
X130974006Y-89326000D01*
X131282031Y-89264730D01*
X131631333Y-89031333D01*
X131864730Y-88682031D01*
X131870000Y-88655537D01*
X131875270Y-88682031D01*
X132108667Y-89031333D01*
X132457969Y-89264730D01*
X132765994Y-89326000D01*
X132974006Y-89326000D01*
X133282031Y-89264730D01*
X133631333Y-89031333D01*
X133864730Y-88682031D01*
X133870000Y-88655537D01*
X133875270Y-88682031D01*
X134108667Y-89031333D01*
X134457969Y-89264730D01*
X134765994Y-89326000D01*
X134974006Y-89326000D01*
X135282031Y-89264730D01*
X135631333Y-89031333D01*
X135864730Y-88682031D01*
X135870000Y-88655537D01*
X135875270Y-88682031D01*
X136108667Y-89031333D01*
X136457969Y-89264730D01*
X136765994Y-89326000D01*
X136974006Y-89326000D01*
X137282031Y-89264730D01*
X137631333Y-89031333D01*
X137864730Y-88682031D01*
X137870000Y-88655537D01*
X137875270Y-88682031D01*
X138108667Y-89031333D01*
X138457969Y-89264730D01*
X138765994Y-89326000D01*
X138974006Y-89326000D01*
X139282031Y-89264730D01*
X139631333Y-89031333D01*
X139864730Y-88682031D01*
X139870000Y-88655537D01*
X139875270Y-88682031D01*
X140108667Y-89031333D01*
X140457969Y-89264730D01*
X140765994Y-89326000D01*
X140974006Y-89326000D01*
X141282031Y-89264730D01*
X141631333Y-89031333D01*
X141864730Y-88682031D01*
X141870000Y-88655537D01*
X141875270Y-88682031D01*
X142108667Y-89031333D01*
X142457969Y-89264730D01*
X142765994Y-89326000D01*
X142974006Y-89326000D01*
X143282031Y-89264730D01*
X143631333Y-89031333D01*
X143864730Y-88682031D01*
X143946688Y-88270000D01*
X143864730Y-87857969D01*
X143631333Y-87508667D01*
X143282031Y-87275270D01*
X143255537Y-87270000D01*
X143282031Y-87264730D01*
X143631333Y-87031333D01*
X143860647Y-86688142D01*
X146456800Y-86689576D01*
X146456800Y-89206536D01*
X146195000Y-89206536D01*
X146046341Y-89236106D01*
X145920314Y-89320314D01*
X145870000Y-89395615D01*
X145819686Y-89320314D01*
X145693659Y-89236106D01*
X145545000Y-89206536D01*
X144195000Y-89206536D01*
X144046341Y-89236106D01*
X143920314Y-89320314D01*
X143836106Y-89446341D01*
X143806536Y-89595000D01*
X143806536Y-90945000D01*
X143836106Y-91093659D01*
X143920314Y-91219686D01*
X144046341Y-91303894D01*
X144195000Y-91333464D01*
X144370876Y-91333464D01*
X144108667Y-91508667D01*
X143875270Y-91857969D01*
X143793312Y-92270000D01*
X143875270Y-92682031D01*
X144108667Y-93031333D01*
X144457969Y-93264730D01*
X144484463Y-93270000D01*
X144457969Y-93275270D01*
X144108667Y-93508667D01*
X143875270Y-93857969D01*
X143793312Y-94270000D01*
X143875270Y-94682031D01*
X144108667Y-95031333D01*
X144457969Y-95264730D01*
X144484463Y-95270000D01*
X144457969Y-95275270D01*
X144108667Y-95508667D01*
X143875270Y-95857969D01*
X143793312Y-96270000D01*
X143875270Y-96682031D01*
X144108667Y-97031333D01*
X144457969Y-97264730D01*
X144484463Y-97270000D01*
X144457969Y-97275270D01*
X144108667Y-97508667D01*
X143875270Y-97857969D01*
X143793312Y-98270000D01*
X143875270Y-98682031D01*
X144108667Y-99031333D01*
X144457969Y-99264730D01*
X144484463Y-99270000D01*
X144457969Y-99275270D01*
X144108667Y-99508667D01*
X143875270Y-99857969D01*
X143793312Y-100270000D01*
X143875270Y-100682031D01*
X144108667Y-101031333D01*
X144457969Y-101264730D01*
X144484463Y-101270000D01*
X144457969Y-101275270D01*
X144108667Y-101508667D01*
X143875270Y-101857969D01*
X143793312Y-102270000D01*
X143875270Y-102682031D01*
X144108667Y-103031333D01*
X144457969Y-103264730D01*
X144484463Y-103270000D01*
X144457969Y-103275270D01*
X144108667Y-103508667D01*
X143875270Y-103857969D01*
X143793312Y-104270000D01*
X143875270Y-104682031D01*
X144108667Y-105031333D01*
X144457969Y-105264730D01*
X144484463Y-105270000D01*
X144457969Y-105275270D01*
X144108667Y-105508667D01*
X143875270Y-105857969D01*
X143793312Y-106270000D01*
X143875270Y-106682031D01*
X144108667Y-107031333D01*
X144457969Y-107264730D01*
X144484463Y-107270000D01*
X144457969Y-107275270D01*
X144108667Y-107508667D01*
X143875270Y-107857969D01*
X143793312Y-108270000D01*
X143875270Y-108682031D01*
X144108667Y-109031333D01*
X144457969Y-109264730D01*
X144484463Y-109270000D01*
X144457969Y-109275270D01*
X144108667Y-109508667D01*
X143875270Y-109857969D01*
X143793312Y-110270000D01*
X143875270Y-110682031D01*
X144108667Y-111031333D01*
X144457969Y-111264730D01*
X144484463Y-111270000D01*
X144457969Y-111275270D01*
X144108667Y-111508667D01*
X143875270Y-111857969D01*
X143793312Y-112270000D01*
X143875270Y-112682031D01*
X144108667Y-113031333D01*
X144457969Y-113264730D01*
X144484463Y-113270000D01*
X144457969Y-113275270D01*
X144108667Y-113508667D01*
X143875270Y-113857969D01*
X143793312Y-114270000D01*
X143875270Y-114682031D01*
X144108667Y-115031333D01*
X144457969Y-115264730D01*
X144484463Y-115270000D01*
X144457969Y-115275270D01*
X144108667Y-115508667D01*
X143875270Y-115857969D01*
X143793312Y-116270000D01*
X143875270Y-116682031D01*
X144108667Y-117031333D01*
X144457969Y-117264730D01*
X144484463Y-117270000D01*
X144457969Y-117275270D01*
X144108667Y-117508667D01*
X143875270Y-117857969D01*
X143793312Y-118270000D01*
X143875270Y-118682031D01*
X144108667Y-119031333D01*
X144457969Y-119264730D01*
X144484463Y-119270000D01*
X144457969Y-119275270D01*
X144108667Y-119508667D01*
X143875270Y-119857969D01*
X143793312Y-120270000D01*
X143875270Y-120682031D01*
X144108667Y-121031333D01*
X144457969Y-121264730D01*
X144484463Y-121270000D01*
X144457969Y-121275270D01*
X144108667Y-121508667D01*
X143875270Y-121857969D01*
X143793312Y-122270000D01*
X143875270Y-122682031D01*
X144108667Y-123031333D01*
X144457969Y-123264730D01*
X144484463Y-123270000D01*
X144457969Y-123275270D01*
X144108667Y-123508667D01*
X143875270Y-123857969D01*
X143793312Y-124270000D01*
X143875270Y-124682031D01*
X144108667Y-125031333D01*
X144457969Y-125264730D01*
X144484463Y-125270000D01*
X144457969Y-125275270D01*
X144108667Y-125508667D01*
X143875270Y-125857969D01*
X143793312Y-126270000D01*
X143875270Y-126682031D01*
X144108667Y-127031333D01*
X144457969Y-127264730D01*
X144484463Y-127270000D01*
X144457969Y-127275270D01*
X144108667Y-127508667D01*
X143875270Y-127857969D01*
X143793312Y-128270000D01*
X143875270Y-128682031D01*
X144108667Y-129031333D01*
X144457969Y-129264730D01*
X144765994Y-129326000D01*
X144974006Y-129326000D01*
X145282031Y-129264730D01*
X145631333Y-129031333D01*
X145864730Y-128682031D01*
X145870000Y-128655537D01*
X145875270Y-128682031D01*
X146108667Y-129031333D01*
X146456801Y-129263950D01*
X146456801Y-131876976D01*
X143933464Y-131875582D01*
X143933464Y-131595000D01*
X143903894Y-131446341D01*
X143819686Y-131320314D01*
X143744385Y-131270000D01*
X143819686Y-131219686D01*
X143903894Y-131093659D01*
X143933464Y-130945000D01*
X143933464Y-129595000D01*
X143903894Y-129446341D01*
X143819686Y-129320314D01*
X143693659Y-129236106D01*
X143545000Y-129206536D01*
X142195000Y-129206536D01*
X142046341Y-129236106D01*
X141920314Y-129320314D01*
X141836106Y-129446341D01*
X141806536Y-129595000D01*
X141806536Y-129770876D01*
X141631333Y-129508667D01*
X141282031Y-129275270D01*
X140974006Y-129214000D01*
X140765994Y-129214000D01*
X140457969Y-129275270D01*
X140108667Y-129508667D01*
X139875270Y-129857969D01*
X139870000Y-129884463D01*
X139864730Y-129857969D01*
X139631333Y-129508667D01*
X139282031Y-129275270D01*
X138974006Y-129214000D01*
X138765994Y-129214000D01*
X138457969Y-129275270D01*
X138108667Y-129508667D01*
X137875270Y-129857969D01*
X137870000Y-129884463D01*
X137864730Y-129857969D01*
X137631333Y-129508667D01*
X137282031Y-129275270D01*
X136974006Y-129214000D01*
X136765994Y-129214000D01*
X136457969Y-129275270D01*
X136108667Y-129508667D01*
X135875270Y-129857969D01*
X135870000Y-129884463D01*
X135864730Y-129857969D01*
X135631333Y-129508667D01*
X135282031Y-129275270D01*
X134974006Y-129214000D01*
X134765994Y-129214000D01*
X134457969Y-129275270D01*
X134108667Y-129508667D01*
X133875270Y-129857969D01*
X133870000Y-129884463D01*
X133864730Y-129857969D01*
X133631333Y-129508667D01*
X133282031Y-129275270D01*
X132974006Y-129214000D01*
X132765994Y-129214000D01*
X132457969Y-129275270D01*
X132108667Y-129508667D01*
X131875270Y-129857969D01*
X131870000Y-129884463D01*
X131864730Y-129857969D01*
X131631333Y-129508667D01*
X131282031Y-129275270D01*
X130974006Y-129214000D01*
X130765994Y-129214000D01*
X130457969Y-129275270D01*
X130108667Y-129508667D01*
X129875270Y-129857969D01*
X129870000Y-129884463D01*
X129864730Y-129857969D01*
X129631333Y-129508667D01*
X129282031Y-129275270D01*
X128974006Y-129214000D01*
X128765994Y-129214000D01*
X128457969Y-129275270D01*
X128108667Y-129508667D01*
X127875270Y-129857969D01*
X127870000Y-129884463D01*
X127864730Y-129857969D01*
X127631333Y-129508667D01*
X127282031Y-129275270D01*
X126974006Y-129214000D01*
X126765994Y-129214000D01*
X126457969Y-129275270D01*
X126108667Y-129508667D01*
X125875270Y-129857969D01*
X125870000Y-129884463D01*
X125864730Y-129857969D01*
X125631333Y-129508667D01*
X125282031Y-129275270D01*
X124974006Y-129214000D01*
X124765994Y-129214000D01*
X124457969Y-129275270D01*
X124108667Y-129508667D01*
X123875270Y-129857969D01*
X123870000Y-129884463D01*
X123864730Y-129857969D01*
X123631333Y-129508667D01*
X123282031Y-129275270D01*
X122974006Y-129214000D01*
X122765994Y-129214000D01*
X122457969Y-129275270D01*
X122108667Y-129508667D01*
X121875270Y-129857969D01*
X121870000Y-129884463D01*
X121864730Y-129857969D01*
X121631333Y-129508667D01*
X121282031Y-129275270D01*
X120974006Y-129214000D01*
X120765994Y-129214000D01*
X120457969Y-129275270D01*
X120108667Y-129508667D01*
X119875270Y-129857969D01*
X119870000Y-129884463D01*
X119864730Y-129857969D01*
X119631333Y-129508667D01*
X119282031Y-129275270D01*
X118974006Y-129214000D01*
X118765994Y-129214000D01*
X118457969Y-129275270D01*
X118108667Y-129508667D01*
X117875270Y-129857969D01*
X117870000Y-129884463D01*
X117864730Y-129857969D01*
X117631333Y-129508667D01*
X117282031Y-129275270D01*
X116974006Y-129214000D01*
X116765994Y-129214000D01*
X116457969Y-129275270D01*
X116108667Y-129508667D01*
X115875270Y-129857969D01*
X115870000Y-129884463D01*
X115864730Y-129857969D01*
X115631333Y-129508667D01*
X115282031Y-129275270D01*
X114974006Y-129214000D01*
X114765994Y-129214000D01*
X114457969Y-129275270D01*
X114108667Y-129508667D01*
X113875270Y-129857969D01*
X113870000Y-129884463D01*
X113864730Y-129857969D01*
X113631333Y-129508667D01*
X113282031Y-129275270D01*
X112974006Y-129214000D01*
X112765994Y-129214000D01*
X112457969Y-129275270D01*
X112108667Y-129508667D01*
X111875270Y-129857969D01*
X111870000Y-129884463D01*
X111864730Y-129857969D01*
X111631333Y-129508667D01*
X111282031Y-129275270D01*
X110974006Y-129214000D01*
X110765994Y-129214000D01*
X110457969Y-129275270D01*
X110108667Y-129508667D01*
X109875270Y-129857969D01*
X109870000Y-129884463D01*
X109864730Y-129857969D01*
X109631333Y-129508667D01*
X109282031Y-129275270D01*
X108974006Y-129214000D01*
X108765994Y-129214000D01*
X108457969Y-129275270D01*
X108108667Y-129508667D01*
X107875270Y-129857969D01*
X107870000Y-129884463D01*
X107864730Y-129857969D01*
X107631333Y-129508667D01*
X107282031Y-129275270D01*
X106974006Y-129214000D01*
X106765994Y-129214000D01*
X106457969Y-129275270D01*
X106108667Y-129508667D01*
X105875270Y-129857969D01*
X105870000Y-129884463D01*
X105864730Y-129857969D01*
X105631333Y-129508667D01*
X105282031Y-129275270D01*
X104974006Y-129214000D01*
X104765994Y-129214000D01*
X104457969Y-129275270D01*
X104108667Y-129508667D01*
X103875270Y-129857969D01*
X103793312Y-130270000D01*
X103875270Y-130682031D01*
X104108667Y-131031333D01*
X104457969Y-131264730D01*
X104484463Y-131270000D01*
X104457969Y-131275270D01*
X104108667Y-131508667D01*
X103878288Y-131853452D01*
X101294576Y-131852024D01*
X101293185Y-129333464D01*
X101545000Y-129333464D01*
X101693659Y-129303894D01*
X101819686Y-129219686D01*
X101870000Y-129144385D01*
X101920314Y-129219686D01*
X102046341Y-129303894D01*
X102195000Y-129333464D01*
X103545000Y-129333464D01*
X103693659Y-129303894D01*
X103819686Y-129219686D01*
X103903894Y-129093659D01*
X103933464Y-128945000D01*
X103933464Y-127595000D01*
X103903894Y-127446341D01*
X103819686Y-127320314D01*
X103693659Y-127236106D01*
X103545000Y-127206536D01*
X103369124Y-127206536D01*
X103631333Y-127031333D01*
X103864730Y-126682031D01*
X103946688Y-126270000D01*
X103864730Y-125857969D01*
X103631333Y-125508667D01*
X103282031Y-125275270D01*
X103255537Y-125270000D01*
X103282031Y-125264730D01*
X103631333Y-125031333D01*
X103864730Y-124682031D01*
X103946688Y-124270000D01*
X103864730Y-123857969D01*
X103631333Y-123508667D01*
X103282031Y-123275270D01*
X103255537Y-123270000D01*
X103282031Y-123264730D01*
X103359062Y-123213259D01*
X124507968Y-123213259D01*
X124507968Y-123465877D01*
X124604641Y-123699266D01*
X124783270Y-123877895D01*
X125016659Y-123974568D01*
X125269277Y-123974568D01*
X125473177Y-123890110D01*
X125426371Y-124003110D01*
X125426371Y-124255728D01*
X125523044Y-124489117D01*
X125609236Y-124575309D01*
X125523044Y-124661501D01*
X125426371Y-124894890D01*
X125426371Y-125147508D01*
X125523044Y-125380897D01*
X125701673Y-125559526D01*
X125935062Y-125656199D01*
X126187680Y-125656199D01*
X126421069Y-125559526D01*
X126599698Y-125380897D01*
X126696371Y-125147508D01*
X126696371Y-124894890D01*
X126599698Y-124661501D01*
X126513506Y-124575309D01*
X126599698Y-124489117D01*
X126681824Y-124290848D01*
X126732835Y-124290848D01*
X126966224Y-124194175D01*
X127144853Y-124015546D01*
X127241526Y-123782157D01*
X127241526Y-123529539D01*
X127144853Y-123296150D01*
X126966224Y-123117521D01*
X126836268Y-123063691D01*
X127533400Y-123063691D01*
X127533400Y-123316309D01*
X127630073Y-123549698D01*
X127808702Y-123728327D01*
X128042091Y-123825000D01*
X128294709Y-123825000D01*
X128517203Y-123732840D01*
X128463521Y-123786522D01*
X128366848Y-124019911D01*
X128366848Y-124272529D01*
X128463521Y-124505918D01*
X128549713Y-124592110D01*
X128463521Y-124678302D01*
X128366848Y-124911691D01*
X128366848Y-125164309D01*
X128463521Y-125397698D01*
X128642150Y-125576327D01*
X128875539Y-125673000D01*
X129128157Y-125673000D01*
X129361546Y-125576327D01*
X129540175Y-125397698D01*
X129636848Y-125164309D01*
X129636848Y-124911691D01*
X129540175Y-124678302D01*
X129453983Y-124592110D01*
X129540175Y-124505918D01*
X129632842Y-124282200D01*
X129709109Y-124282200D01*
X129942498Y-124185527D01*
X130121127Y-124006898D01*
X130217800Y-123773509D01*
X130217800Y-123520891D01*
X130121127Y-123287502D01*
X129942498Y-123108873D01*
X129833420Y-123063691D01*
X134112000Y-123063691D01*
X134112000Y-123316309D01*
X134208673Y-123549698D01*
X134387302Y-123728327D01*
X134620691Y-123825000D01*
X134873309Y-123825000D01*
X135106698Y-123728327D01*
X135285327Y-123549698D01*
X135382000Y-123316309D01*
X135382000Y-123063691D01*
X135285327Y-122830302D01*
X135106698Y-122651673D01*
X134873309Y-122555000D01*
X134620691Y-122555000D01*
X134387302Y-122651673D01*
X134208673Y-122830302D01*
X134112000Y-123063691D01*
X129833420Y-123063691D01*
X129709109Y-123012200D01*
X129456491Y-123012200D01*
X129223102Y-123108873D01*
X129044473Y-123287502D01*
X128951806Y-123511220D01*
X128875539Y-123511220D01*
X128653045Y-123603380D01*
X128706727Y-123549698D01*
X128803400Y-123316309D01*
X128803400Y-123063691D01*
X128706727Y-122830302D01*
X128528098Y-122651673D01*
X128294709Y-122555000D01*
X128042091Y-122555000D01*
X127808702Y-122651673D01*
X127630073Y-122830302D01*
X127533400Y-123063691D01*
X126836268Y-123063691D01*
X126732835Y-123020848D01*
X126700054Y-123020848D01*
X126621127Y-122830302D01*
X126442498Y-122651673D01*
X126209109Y-122555000D01*
X125956491Y-122555000D01*
X125723102Y-122651673D01*
X125544473Y-122830302D01*
X125540740Y-122839315D01*
X125502666Y-122801241D01*
X125269277Y-122704568D01*
X125016659Y-122704568D01*
X124783270Y-122801241D01*
X124604641Y-122979870D01*
X124507968Y-123213259D01*
X103359062Y-123213259D01*
X103631333Y-123031333D01*
X103864730Y-122682031D01*
X103946688Y-122270000D01*
X103864730Y-121857969D01*
X103704226Y-121617758D01*
X109863000Y-121617758D01*
X109863000Y-121968242D01*
X109997124Y-122292047D01*
X110244953Y-122539876D01*
X110568758Y-122674000D01*
X110919242Y-122674000D01*
X111243047Y-122539876D01*
X111490876Y-122292047D01*
X111625000Y-121968242D01*
X111625000Y-121617758D01*
X111490876Y-121293953D01*
X111243047Y-121046124D01*
X110919242Y-120912000D01*
X110568758Y-120912000D01*
X110244953Y-121046124D01*
X109997124Y-121293953D01*
X109863000Y-121617758D01*
X103704226Y-121617758D01*
X103631333Y-121508667D01*
X103282031Y-121275270D01*
X103255537Y-121270000D01*
X103282031Y-121264730D01*
X103631333Y-121031333D01*
X103783839Y-120803091D01*
X124383800Y-120803091D01*
X124383800Y-121055709D01*
X124480473Y-121289098D01*
X124659102Y-121467727D01*
X124892491Y-121564400D01*
X125145109Y-121564400D01*
X125378498Y-121467727D01*
X125557127Y-121289098D01*
X125653800Y-121055709D01*
X125653800Y-120803091D01*
X125643279Y-120777691D01*
X129387600Y-120777691D01*
X129387600Y-121030309D01*
X129484273Y-121263698D01*
X129662902Y-121442327D01*
X129896291Y-121539000D01*
X130148909Y-121539000D01*
X130382298Y-121442327D01*
X130560927Y-121263698D01*
X130657600Y-121030309D01*
X130657600Y-120853891D01*
X133400800Y-120853891D01*
X133400800Y-121106509D01*
X133497473Y-121339898D01*
X133676102Y-121518527D01*
X133909491Y-121615200D01*
X134162109Y-121615200D01*
X134395498Y-121518527D01*
X134574127Y-121339898D01*
X134670800Y-121106509D01*
X134670800Y-120853891D01*
X134574127Y-120620502D01*
X134395498Y-120441873D01*
X134162109Y-120345200D01*
X133909491Y-120345200D01*
X133676102Y-120441873D01*
X133497473Y-120620502D01*
X133400800Y-120853891D01*
X130657600Y-120853891D01*
X130657600Y-120777691D01*
X130560927Y-120544302D01*
X130382298Y-120365673D01*
X130148909Y-120269000D01*
X129896291Y-120269000D01*
X129662902Y-120365673D01*
X129484273Y-120544302D01*
X129387600Y-120777691D01*
X125643279Y-120777691D01*
X125557127Y-120569702D01*
X125378498Y-120391073D01*
X125145109Y-120294400D01*
X124892491Y-120294400D01*
X124659102Y-120391073D01*
X124480473Y-120569702D01*
X124383800Y-120803091D01*
X103783839Y-120803091D01*
X103864730Y-120682031D01*
X103946688Y-120270000D01*
X103864730Y-119857969D01*
X103631333Y-119508667D01*
X103282031Y-119275270D01*
X103255537Y-119270000D01*
X103282031Y-119264730D01*
X103336565Y-119228291D01*
X116913420Y-119228291D01*
X116913420Y-119480909D01*
X117010093Y-119714298D01*
X117188722Y-119892927D01*
X117422111Y-119989600D01*
X117674729Y-119989600D01*
X117908118Y-119892927D01*
X117981605Y-119819440D01*
X118055092Y-119892927D01*
X118288481Y-119989600D01*
X118541099Y-119989600D01*
X118774488Y-119892927D01*
X118953117Y-119714298D01*
X119017654Y-119558491D01*
X121056400Y-119558491D01*
X121056400Y-119811109D01*
X121153073Y-120044498D01*
X121331702Y-120223127D01*
X121565091Y-120319800D01*
X121817709Y-120319800D01*
X122051098Y-120223127D01*
X122229727Y-120044498D01*
X122326400Y-119811109D01*
X122326400Y-119558491D01*
X122229727Y-119325102D01*
X122051098Y-119146473D01*
X121817709Y-119049800D01*
X121565091Y-119049800D01*
X121331702Y-119146473D01*
X121153073Y-119325102D01*
X121056400Y-119558491D01*
X119017654Y-119558491D01*
X119049790Y-119480909D01*
X119049790Y-119278410D01*
X119099909Y-119278410D01*
X119333298Y-119181737D01*
X119511927Y-119003108D01*
X119608600Y-118769719D01*
X119608600Y-118517101D01*
X119511927Y-118283712D01*
X119333298Y-118105083D01*
X119099909Y-118008410D01*
X118847291Y-118008410D01*
X118613902Y-118105083D01*
X118435273Y-118283712D01*
X118338600Y-118517101D01*
X118338600Y-118719600D01*
X118288481Y-118719600D01*
X118055092Y-118816273D01*
X117981605Y-118889760D01*
X117908118Y-118816273D01*
X117674729Y-118719600D01*
X117422111Y-118719600D01*
X117188722Y-118816273D01*
X117010093Y-118994902D01*
X116913420Y-119228291D01*
X103336565Y-119228291D01*
X103631333Y-119031333D01*
X103864730Y-118682031D01*
X103946688Y-118270000D01*
X103864730Y-117857969D01*
X103631333Y-117508667D01*
X103282031Y-117275270D01*
X103255537Y-117270000D01*
X103282031Y-117264730D01*
X103631333Y-117031333D01*
X103864730Y-116682031D01*
X103888746Y-116561291D01*
X117065820Y-116561291D01*
X117065820Y-116813909D01*
X117162493Y-117047298D01*
X117341122Y-117225927D01*
X117574511Y-117322600D01*
X117827129Y-117322600D01*
X118060518Y-117225927D01*
X118146710Y-117139735D01*
X118232902Y-117225927D01*
X118466291Y-117322600D01*
X118718909Y-117322600D01*
X118795800Y-117290751D01*
X118795800Y-117372721D01*
X118892473Y-117606110D01*
X119071102Y-117784739D01*
X119304491Y-117881412D01*
X119557109Y-117881412D01*
X119790498Y-117784739D01*
X119969127Y-117606110D01*
X119991585Y-117551891D01*
X121208800Y-117551891D01*
X121208800Y-117804509D01*
X121305473Y-118037898D01*
X121484102Y-118216527D01*
X121717491Y-118313200D01*
X121970109Y-118313200D01*
X122203498Y-118216527D01*
X122382127Y-118037898D01*
X122478800Y-117804509D01*
X122478800Y-117551891D01*
X122382127Y-117318502D01*
X122203498Y-117139873D01*
X121970109Y-117043200D01*
X121717491Y-117043200D01*
X121484102Y-117139873D01*
X121305473Y-117318502D01*
X121208800Y-117551891D01*
X119991585Y-117551891D01*
X120065800Y-117372721D01*
X120065800Y-117120103D01*
X119969127Y-116886714D01*
X119790498Y-116708085D01*
X119779157Y-116703388D01*
X119866698Y-116667127D01*
X120045327Y-116488498D01*
X120142000Y-116255109D01*
X120142000Y-116002491D01*
X120045327Y-115769102D01*
X119866698Y-115590473D01*
X119757620Y-115545291D01*
X121183400Y-115545291D01*
X121183400Y-115797909D01*
X121280073Y-116031298D01*
X121458702Y-116209927D01*
X121692091Y-116306600D01*
X121944709Y-116306600D01*
X122178098Y-116209927D01*
X122356727Y-116031298D01*
X122453400Y-115797909D01*
X122453400Y-115545291D01*
X122356727Y-115311902D01*
X122178098Y-115133273D01*
X121944709Y-115036600D01*
X121692091Y-115036600D01*
X121458702Y-115133273D01*
X121280073Y-115311902D01*
X121183400Y-115545291D01*
X119757620Y-115545291D01*
X119633309Y-115493800D01*
X119380691Y-115493800D01*
X119147302Y-115590473D01*
X118968673Y-115769102D01*
X118872000Y-116002491D01*
X118872000Y-116116012D01*
X118718909Y-116052600D01*
X118466291Y-116052600D01*
X118232902Y-116149273D01*
X118146710Y-116235465D01*
X118060518Y-116149273D01*
X117827129Y-116052600D01*
X117574511Y-116052600D01*
X117341122Y-116149273D01*
X117162493Y-116327902D01*
X117065820Y-116561291D01*
X103888746Y-116561291D01*
X103946688Y-116270000D01*
X103864730Y-115857969D01*
X103631333Y-115508667D01*
X103282031Y-115275270D01*
X103255537Y-115270000D01*
X103282031Y-115264730D01*
X103631333Y-115031333D01*
X103864730Y-114682031D01*
X103946688Y-114270000D01*
X103864730Y-113857969D01*
X103804141Y-113767291D01*
X116989620Y-113767291D01*
X116989620Y-114019909D01*
X117086293Y-114253298D01*
X117264922Y-114431927D01*
X117498311Y-114528600D01*
X117750929Y-114528600D01*
X117984318Y-114431927D01*
X118070510Y-114345735D01*
X118156702Y-114431927D01*
X118390091Y-114528600D01*
X118642709Y-114528600D01*
X118867435Y-114435515D01*
X118867435Y-114670555D01*
X118964108Y-114903944D01*
X119142737Y-115082573D01*
X119376126Y-115179246D01*
X119628744Y-115179246D01*
X119862133Y-115082573D01*
X120040762Y-114903944D01*
X120137435Y-114670555D01*
X120137435Y-114417937D01*
X120040762Y-114184548D01*
X119926605Y-114070391D01*
X119989600Y-113918309D01*
X119989600Y-113665691D01*
X119936995Y-113538691D01*
X134620000Y-113538691D01*
X134620000Y-113791309D01*
X134716673Y-114024698D01*
X134895302Y-114203327D01*
X135128691Y-114300000D01*
X135381309Y-114300000D01*
X135614698Y-114203327D01*
X135793327Y-114024698D01*
X135890000Y-113791309D01*
X135890000Y-113538691D01*
X135793327Y-113305302D01*
X135614698Y-113126673D01*
X135381309Y-113030000D01*
X135128691Y-113030000D01*
X134895302Y-113126673D01*
X134716673Y-113305302D01*
X134620000Y-113538691D01*
X119936995Y-113538691D01*
X119892927Y-113432302D01*
X119714298Y-113253673D01*
X119480909Y-113157000D01*
X119228291Y-113157000D01*
X118994902Y-113253673D01*
X118884700Y-113363875D01*
X118876098Y-113355273D01*
X118642709Y-113258600D01*
X118390091Y-113258600D01*
X118156702Y-113355273D01*
X118070510Y-113441465D01*
X117984318Y-113355273D01*
X117750929Y-113258600D01*
X117498311Y-113258600D01*
X117264922Y-113355273D01*
X117086293Y-113533902D01*
X116989620Y-113767291D01*
X103804141Y-113767291D01*
X103631333Y-113508667D01*
X103282031Y-113275270D01*
X103255537Y-113270000D01*
X103282031Y-113264730D01*
X103631333Y-113031333D01*
X103864730Y-112682031D01*
X103896424Y-112522691D01*
X121539000Y-112522691D01*
X121539000Y-112775309D01*
X121635673Y-113008698D01*
X121814302Y-113187327D01*
X122047691Y-113284000D01*
X122300309Y-113284000D01*
X122533698Y-113187327D01*
X122712327Y-113008698D01*
X122809000Y-112775309D01*
X122809000Y-112522691D01*
X122712327Y-112289302D01*
X122533698Y-112110673D01*
X122300309Y-112014000D01*
X122047691Y-112014000D01*
X121814302Y-112110673D01*
X121635673Y-112289302D01*
X121539000Y-112522691D01*
X103896424Y-112522691D01*
X103946688Y-112270000D01*
X103864730Y-111857969D01*
X103631333Y-111508667D01*
X103479116Y-111406958D01*
X111412400Y-111406958D01*
X111412400Y-111757442D01*
X111546524Y-112081247D01*
X111794353Y-112329076D01*
X112118158Y-112463200D01*
X112468642Y-112463200D01*
X112792447Y-112329076D01*
X113040276Y-112081247D01*
X113174400Y-111757442D01*
X113174400Y-111659091D01*
X136982200Y-111659091D01*
X136982200Y-111911709D01*
X137078873Y-112145098D01*
X137257502Y-112323727D01*
X137490891Y-112420400D01*
X137743509Y-112420400D01*
X137936941Y-112340278D01*
X137851719Y-112546021D01*
X137851719Y-112674400D01*
X137846491Y-112674400D01*
X137613102Y-112771073D01*
X137434473Y-112949702D01*
X137337800Y-113183091D01*
X137337800Y-113435709D01*
X137434473Y-113669098D01*
X137613102Y-113847727D01*
X137846491Y-113944400D01*
X138099109Y-113944400D01*
X138332498Y-113847727D01*
X138511127Y-113669098D01*
X138607800Y-113435709D01*
X138607800Y-113307330D01*
X138613028Y-113307330D01*
X138846417Y-113210657D01*
X138932609Y-113124465D01*
X139018801Y-113210657D01*
X139252190Y-113307330D01*
X139504808Y-113307330D01*
X139738197Y-113210657D01*
X139916826Y-113032028D01*
X140013499Y-112798639D01*
X140013499Y-112546021D01*
X139916826Y-112312632D01*
X139738197Y-112134003D01*
X139504808Y-112037330D01*
X139252190Y-112037330D01*
X139018801Y-112134003D01*
X138932609Y-112220195D01*
X138846417Y-112134003D01*
X138613028Y-112037330D01*
X138360410Y-112037330D01*
X138166978Y-112117452D01*
X138252200Y-111911709D01*
X138252200Y-111659091D01*
X138155527Y-111425702D01*
X137976898Y-111247073D01*
X137804830Y-111175800D01*
X138022909Y-111175800D01*
X138256298Y-111079127D01*
X138434927Y-110900498D01*
X138531600Y-110667109D01*
X138531600Y-110535025D01*
X138615990Y-110535025D01*
X138849379Y-110438352D01*
X138935571Y-110352160D01*
X139021763Y-110438352D01*
X139255152Y-110535025D01*
X139507770Y-110535025D01*
X139741159Y-110438352D01*
X139919788Y-110259723D01*
X140016461Y-110026334D01*
X140016461Y-109773716D01*
X139919788Y-109540327D01*
X139741159Y-109361698D01*
X139507770Y-109265025D01*
X139255152Y-109265025D01*
X139021763Y-109361698D01*
X138935571Y-109447890D01*
X138849379Y-109361698D01*
X138615990Y-109265025D01*
X138363372Y-109265025D01*
X138129983Y-109361698D01*
X137951354Y-109540327D01*
X137854681Y-109773716D01*
X137854681Y-109905800D01*
X137770291Y-109905800D01*
X137536902Y-110002473D01*
X137358273Y-110181102D01*
X137261600Y-110414491D01*
X137261600Y-110667109D01*
X137358273Y-110900498D01*
X137536902Y-111079127D01*
X137708970Y-111150400D01*
X137490891Y-111150400D01*
X137257502Y-111247073D01*
X137078873Y-111425702D01*
X136982200Y-111659091D01*
X113174400Y-111659091D01*
X113174400Y-111406958D01*
X113040276Y-111083153D01*
X112792447Y-110835324D01*
X112468642Y-110701200D01*
X112118158Y-110701200D01*
X111794353Y-110835324D01*
X111546524Y-111083153D01*
X111412400Y-111406958D01*
X103479116Y-111406958D01*
X103282031Y-111275270D01*
X103255537Y-111270000D01*
X103282031Y-111264730D01*
X103631333Y-111031333D01*
X103864730Y-110682031D01*
X103946688Y-110270000D01*
X103889539Y-109982691D01*
X118745000Y-109982691D01*
X118745000Y-110235309D01*
X118841673Y-110468698D01*
X119020302Y-110647327D01*
X119253691Y-110744000D01*
X119506309Y-110744000D01*
X119739698Y-110647327D01*
X119918327Y-110468698D01*
X120015000Y-110235309D01*
X120015000Y-110058891D01*
X134594600Y-110058891D01*
X134594600Y-110311509D01*
X134691273Y-110544898D01*
X134869902Y-110723527D01*
X135103291Y-110820200D01*
X135355909Y-110820200D01*
X135589298Y-110723527D01*
X135767927Y-110544898D01*
X135864600Y-110311509D01*
X135864600Y-110058891D01*
X135767927Y-109825502D01*
X135589298Y-109646873D01*
X135355909Y-109550200D01*
X135103291Y-109550200D01*
X134869902Y-109646873D01*
X134691273Y-109825502D01*
X134594600Y-110058891D01*
X120015000Y-110058891D01*
X120015000Y-109982691D01*
X119918327Y-109749302D01*
X119739698Y-109570673D01*
X119506309Y-109474000D01*
X119253691Y-109474000D01*
X119020302Y-109570673D01*
X118841673Y-109749302D01*
X118745000Y-109982691D01*
X103889539Y-109982691D01*
X103864730Y-109857969D01*
X103631333Y-109508667D01*
X103282031Y-109275270D01*
X103255537Y-109270000D01*
X103282031Y-109264730D01*
X103631333Y-109031333D01*
X103864730Y-108682031D01*
X103894589Y-108531917D01*
X116830485Y-108531917D01*
X116830485Y-108784535D01*
X116927158Y-109017924D01*
X117105787Y-109196553D01*
X117339176Y-109293226D01*
X117591794Y-109293226D01*
X117825183Y-109196553D01*
X118003812Y-109017924D01*
X118100485Y-108784535D01*
X118100485Y-108679653D01*
X118139901Y-108695980D01*
X118392519Y-108695980D01*
X118625908Y-108599307D01*
X118804537Y-108420678D01*
X118901210Y-108187289D01*
X118901210Y-107934671D01*
X118804537Y-107701282D01*
X118625908Y-107522653D01*
X118392519Y-107425980D01*
X118139901Y-107425980D01*
X117906512Y-107522653D01*
X117727883Y-107701282D01*
X117631210Y-107934671D01*
X117631210Y-108039553D01*
X117591794Y-108023226D01*
X117339176Y-108023226D01*
X117105787Y-108119899D01*
X116927158Y-108298528D01*
X116830485Y-108531917D01*
X103894589Y-108531917D01*
X103946688Y-108270000D01*
X103864730Y-107857969D01*
X103631333Y-107508667D01*
X103380539Y-107341091D01*
X125374400Y-107341091D01*
X125374400Y-107593709D01*
X125471073Y-107827098D01*
X125649702Y-108005727D01*
X125883091Y-108102400D01*
X126135709Y-108102400D01*
X126369098Y-108005727D01*
X126547727Y-107827098D01*
X126643827Y-107595091D01*
X137160000Y-107595091D01*
X137160000Y-107847709D01*
X137256673Y-108081098D01*
X137435302Y-108259727D01*
X137668691Y-108356400D01*
X137921309Y-108356400D01*
X138154698Y-108259727D01*
X138333327Y-108081098D01*
X138430000Y-107847709D01*
X138430000Y-107595091D01*
X138333327Y-107361702D01*
X138154698Y-107183073D01*
X137921309Y-107086400D01*
X137668691Y-107086400D01*
X137435302Y-107183073D01*
X137256673Y-107361702D01*
X137160000Y-107595091D01*
X126643827Y-107595091D01*
X126644400Y-107593709D01*
X126644400Y-107341091D01*
X126547727Y-107107702D01*
X126369098Y-106929073D01*
X126135709Y-106832400D01*
X125883091Y-106832400D01*
X125649702Y-106929073D01*
X125471073Y-107107702D01*
X125374400Y-107341091D01*
X103380539Y-107341091D01*
X103282031Y-107275270D01*
X103255537Y-107270000D01*
X103282031Y-107264730D01*
X103631333Y-107031333D01*
X103864730Y-106682031D01*
X103946688Y-106270000D01*
X103864730Y-105857969D01*
X103631333Y-105508667D01*
X103282031Y-105275270D01*
X103255537Y-105270000D01*
X103282031Y-105264730D01*
X103595776Y-105055091D01*
X121843800Y-105055091D01*
X121843800Y-105307709D01*
X121940473Y-105541098D01*
X122119102Y-105719727D01*
X122352491Y-105816400D01*
X122605109Y-105816400D01*
X122838498Y-105719727D01*
X123017127Y-105541098D01*
X123021118Y-105531462D01*
X123200889Y-105531462D01*
X123434278Y-105434789D01*
X123612907Y-105256160D01*
X123709580Y-105022771D01*
X123709580Y-104852963D01*
X124382728Y-104852963D01*
X124382728Y-105105581D01*
X124479401Y-105338970D01*
X124658030Y-105517599D01*
X124891419Y-105614272D01*
X125144037Y-105614272D01*
X125377426Y-105517599D01*
X125556055Y-105338970D01*
X125652728Y-105105581D01*
X125652728Y-104852963D01*
X125556055Y-104619574D01*
X125377426Y-104440945D01*
X125144037Y-104344272D01*
X124891419Y-104344272D01*
X124658030Y-104440945D01*
X124479401Y-104619574D01*
X124382728Y-104852963D01*
X123709580Y-104852963D01*
X123709580Y-104770153D01*
X123612907Y-104536764D01*
X123525084Y-104448941D01*
X123601327Y-104372698D01*
X123698000Y-104139309D01*
X123698000Y-103886691D01*
X123601327Y-103653302D01*
X123453025Y-103505000D01*
X123601327Y-103356698D01*
X123668976Y-103193379D01*
X125555398Y-103193379D01*
X125555398Y-103445997D01*
X125652071Y-103679386D01*
X125738263Y-103765578D01*
X125652071Y-103851770D01*
X125555398Y-104085159D01*
X125555398Y-104337777D01*
X125652071Y-104571166D01*
X125830700Y-104749795D01*
X125919905Y-104786745D01*
X125882400Y-104877291D01*
X125882400Y-105129909D01*
X125979073Y-105363298D01*
X126157702Y-105541927D01*
X126391091Y-105638600D01*
X126643709Y-105638600D01*
X126877098Y-105541927D01*
X127055727Y-105363298D01*
X127096668Y-105264458D01*
X127187916Y-105264458D01*
X127421305Y-105167785D01*
X127599934Y-104989156D01*
X127609600Y-104965820D01*
X127609600Y-105155309D01*
X127706273Y-105388698D01*
X127884902Y-105567327D01*
X128118291Y-105664000D01*
X128370909Y-105664000D01*
X128604298Y-105567327D01*
X128782927Y-105388698D01*
X128879600Y-105155309D01*
X128879600Y-104902691D01*
X128849371Y-104829711D01*
X128889395Y-104846290D01*
X128965866Y-104846290D01*
X129043109Y-105032770D01*
X129221738Y-105211399D01*
X129391875Y-105281872D01*
X129391875Y-105286954D01*
X129488548Y-105520343D01*
X129667177Y-105698972D01*
X129900566Y-105795645D01*
X130153184Y-105795645D01*
X130386573Y-105698972D01*
X130565202Y-105520343D01*
X130661875Y-105286954D01*
X130661875Y-105113641D01*
X131947800Y-105113641D01*
X131947800Y-105366259D01*
X132044473Y-105599648D01*
X132223102Y-105778277D01*
X132456491Y-105874950D01*
X132709109Y-105874950D01*
X132942498Y-105778277D01*
X133121127Y-105599648D01*
X133195011Y-105421276D01*
X133239103Y-105465368D01*
X133472492Y-105562041D01*
X133725110Y-105562041D01*
X133958499Y-105465368D01*
X134080009Y-105343858D01*
X134239691Y-105410000D01*
X134483975Y-105410000D01*
X134641302Y-105567327D01*
X134874691Y-105664000D01*
X135127309Y-105664000D01*
X135360698Y-105567327D01*
X135539327Y-105388698D01*
X135636000Y-105155309D01*
X135636000Y-104902691D01*
X135539327Y-104669302D01*
X135360698Y-104490673D01*
X135127309Y-104394000D01*
X134883025Y-104394000D01*
X134725698Y-104236673D01*
X134492309Y-104140000D01*
X134239691Y-104140000D01*
X134006302Y-104236673D01*
X133884792Y-104358183D01*
X133725110Y-104292041D01*
X133561481Y-104292041D01*
X133507327Y-104161302D01*
X133328698Y-103982673D01*
X133095309Y-103886000D01*
X132842691Y-103886000D01*
X132609302Y-103982673D01*
X132430673Y-104161302D01*
X132334000Y-104394691D01*
X132334000Y-104647309D01*
X132336962Y-104654460D01*
X132223102Y-104701623D01*
X132044473Y-104880252D01*
X131947800Y-105113641D01*
X130661875Y-105113641D01*
X130661875Y-105034336D01*
X130565202Y-104800947D01*
X130386573Y-104622318D01*
X130216436Y-104551845D01*
X130216436Y-104546763D01*
X130119763Y-104313374D01*
X129941134Y-104134745D01*
X129707745Y-104038072D01*
X129631274Y-104038072D01*
X129554031Y-103851592D01*
X129467839Y-103765400D01*
X129554031Y-103679208D01*
X129650704Y-103445819D01*
X129650704Y-103193201D01*
X129554031Y-102959812D01*
X129375402Y-102781183D01*
X129142013Y-102684510D01*
X128889395Y-102684510D01*
X128656006Y-102781183D01*
X128477377Y-102959812D01*
X128380704Y-103193201D01*
X128380704Y-103445819D01*
X128477377Y-103679208D01*
X128563569Y-103765400D01*
X128477377Y-103851592D01*
X128380704Y-104084981D01*
X128380704Y-104337599D01*
X128410933Y-104410579D01*
X128370909Y-104394000D01*
X128118291Y-104394000D01*
X127884902Y-104490673D01*
X127706273Y-104669302D01*
X127696607Y-104692638D01*
X127696607Y-104503149D01*
X127599934Y-104269760D01*
X127421305Y-104091131D01*
X127187916Y-103994458D01*
X126935298Y-103994458D01*
X126809425Y-104046596D01*
X126728725Y-103851770D01*
X126642533Y-103765578D01*
X126728725Y-103679386D01*
X126825398Y-103445997D01*
X126825398Y-103193379D01*
X126728725Y-102959990D01*
X126550096Y-102781361D01*
X126316707Y-102684688D01*
X126064089Y-102684688D01*
X125830700Y-102781361D01*
X125652071Y-102959990D01*
X125555398Y-103193379D01*
X123668976Y-103193379D01*
X123698000Y-103123309D01*
X123698000Y-102870691D01*
X123601327Y-102637302D01*
X123422698Y-102458673D01*
X123189309Y-102362000D01*
X122936691Y-102362000D01*
X122703302Y-102458673D01*
X122524673Y-102637302D01*
X122428000Y-102870691D01*
X122428000Y-103123309D01*
X122524673Y-103356698D01*
X122672975Y-103505000D01*
X122524673Y-103653302D01*
X122428000Y-103886691D01*
X122428000Y-104139309D01*
X122524673Y-104372698D01*
X122612496Y-104460521D01*
X122536253Y-104536764D01*
X122532262Y-104546400D01*
X122352491Y-104546400D01*
X122119102Y-104643073D01*
X121940473Y-104821702D01*
X121843800Y-105055091D01*
X103595776Y-105055091D01*
X103631333Y-105031333D01*
X103864730Y-104682031D01*
X103946688Y-104270000D01*
X103864730Y-103857969D01*
X103631333Y-103508667D01*
X103282031Y-103275270D01*
X103255537Y-103270000D01*
X103282031Y-103264730D01*
X103631333Y-103031333D01*
X103864730Y-102682031D01*
X103946688Y-102270000D01*
X103864730Y-101857969D01*
X103631333Y-101508667D01*
X103282031Y-101275270D01*
X103255537Y-101270000D01*
X103282031Y-101264730D01*
X103536710Y-101094558D01*
X115781200Y-101094558D01*
X115781200Y-101445042D01*
X115915324Y-101768847D01*
X116163153Y-102016676D01*
X116486958Y-102150800D01*
X116837442Y-102150800D01*
X117161247Y-102016676D01*
X117409076Y-101768847D01*
X117446391Y-101678758D01*
X135110600Y-101678758D01*
X135110600Y-102029242D01*
X135244724Y-102353047D01*
X135492553Y-102600876D01*
X135816358Y-102735000D01*
X136166842Y-102735000D01*
X136490647Y-102600876D01*
X136738476Y-102353047D01*
X136872600Y-102029242D01*
X136872600Y-101678758D01*
X136738476Y-101354953D01*
X136490647Y-101107124D01*
X136166842Y-100973000D01*
X135816358Y-100973000D01*
X135492553Y-101107124D01*
X135244724Y-101354953D01*
X135110600Y-101678758D01*
X117446391Y-101678758D01*
X117543200Y-101445042D01*
X117543200Y-101094558D01*
X117409076Y-100770753D01*
X117161247Y-100522924D01*
X116837442Y-100388800D01*
X116486958Y-100388800D01*
X116163153Y-100522924D01*
X115915324Y-100770753D01*
X115781200Y-101094558D01*
X103536710Y-101094558D01*
X103631333Y-101031333D01*
X103864730Y-100682031D01*
X103946688Y-100270000D01*
X103864730Y-99857969D01*
X103671440Y-99568691D01*
X117348000Y-99568691D01*
X117348000Y-99821309D01*
X117444673Y-100054698D01*
X117623302Y-100233327D01*
X117856691Y-100330000D01*
X118109309Y-100330000D01*
X118342698Y-100233327D01*
X118521327Y-100054698D01*
X118617427Y-99822691D01*
X119126000Y-99822691D01*
X119126000Y-100075309D01*
X119222673Y-100308698D01*
X119401302Y-100487327D01*
X119634691Y-100584000D01*
X119887309Y-100584000D01*
X120120698Y-100487327D01*
X120299327Y-100308698D01*
X120396000Y-100075309D01*
X120396000Y-99822691D01*
X120299327Y-99589302D01*
X120120698Y-99410673D01*
X119887309Y-99314000D01*
X119634691Y-99314000D01*
X119401302Y-99410673D01*
X119222673Y-99589302D01*
X119126000Y-99822691D01*
X118617427Y-99822691D01*
X118618000Y-99821309D01*
X118618000Y-99568691D01*
X118521327Y-99335302D01*
X118342698Y-99156673D01*
X118109309Y-99060000D01*
X117856691Y-99060000D01*
X117623302Y-99156673D01*
X117444673Y-99335302D01*
X117348000Y-99568691D01*
X103671440Y-99568691D01*
X103631333Y-99508667D01*
X103282031Y-99275270D01*
X103255537Y-99270000D01*
X103282031Y-99264730D01*
X103631333Y-99031333D01*
X103864730Y-98682031D01*
X103946688Y-98270000D01*
X103887799Y-97973940D01*
X136039696Y-97973940D01*
X136039696Y-98226558D01*
X136136369Y-98459947D01*
X136314998Y-98638576D01*
X136548387Y-98735249D01*
X136801005Y-98735249D01*
X137034394Y-98638576D01*
X137213023Y-98459947D01*
X137309696Y-98226558D01*
X137309696Y-97973940D01*
X137213023Y-97740551D01*
X137034394Y-97561922D01*
X136801005Y-97465249D01*
X136548387Y-97465249D01*
X136314998Y-97561922D01*
X136136369Y-97740551D01*
X136039696Y-97973940D01*
X103887799Y-97973940D01*
X103864730Y-97857969D01*
X103631333Y-97508667D01*
X103282031Y-97275270D01*
X103255537Y-97270000D01*
X103282031Y-97264730D01*
X103290151Y-97259304D01*
X106374301Y-97259304D01*
X106411448Y-97474417D01*
X106839772Y-97617312D01*
X107290175Y-97585417D01*
X107558152Y-97474417D01*
X107595299Y-97259304D01*
X106984800Y-96648805D01*
X106374301Y-97259304D01*
X103290151Y-97259304D01*
X103631333Y-97031333D01*
X103864730Y-96682031D01*
X103935912Y-96324172D01*
X105836688Y-96324172D01*
X105868583Y-96774575D01*
X105979583Y-97042552D01*
X106194696Y-97079699D01*
X106805195Y-96469200D01*
X107164405Y-96469200D01*
X107774904Y-97079699D01*
X107990017Y-97042552D01*
X108132912Y-96614228D01*
X108130272Y-96576940D01*
X136039696Y-96576940D01*
X136039696Y-96829558D01*
X136136369Y-97062947D01*
X136314998Y-97241576D01*
X136548387Y-97338249D01*
X136801005Y-97338249D01*
X137034394Y-97241576D01*
X137213023Y-97062947D01*
X137309696Y-96829558D01*
X137309696Y-96576940D01*
X137213023Y-96343551D01*
X137034394Y-96164922D01*
X136801005Y-96068249D01*
X136548387Y-96068249D01*
X136314998Y-96164922D01*
X136136369Y-96343551D01*
X136039696Y-96576940D01*
X108130272Y-96576940D01*
X108101017Y-96163825D01*
X107990017Y-95895848D01*
X107774904Y-95858701D01*
X107164405Y-96469200D01*
X106805195Y-96469200D01*
X106194696Y-95858701D01*
X105979583Y-95895848D01*
X105836688Y-96324172D01*
X103935912Y-96324172D01*
X103946688Y-96270000D01*
X103864730Y-95857969D01*
X103745211Y-95679096D01*
X106374301Y-95679096D01*
X106984800Y-96289595D01*
X107595299Y-95679096D01*
X107558152Y-95463983D01*
X107129828Y-95321088D01*
X106679425Y-95352983D01*
X106411448Y-95463983D01*
X106374301Y-95679096D01*
X103745211Y-95679096D01*
X103631333Y-95508667D01*
X103282031Y-95275270D01*
X103255537Y-95270000D01*
X103282031Y-95264730D01*
X103631333Y-95031333D01*
X103739339Y-94869691D01*
X108585000Y-94869691D01*
X108585000Y-95122309D01*
X108681673Y-95355698D01*
X108860302Y-95534327D01*
X109093691Y-95631000D01*
X109346309Y-95631000D01*
X109579698Y-95534327D01*
X109609334Y-95504691D01*
X115443000Y-95504691D01*
X115443000Y-95757309D01*
X115539673Y-95990698D01*
X115718302Y-96169327D01*
X115951691Y-96266000D01*
X116204309Y-96266000D01*
X116437698Y-96169327D01*
X116616327Y-95990698D01*
X116713000Y-95757309D01*
X116713000Y-95504691D01*
X116616327Y-95271302D01*
X116437698Y-95092673D01*
X116204309Y-94996000D01*
X115951691Y-94996000D01*
X115718302Y-95092673D01*
X115539673Y-95271302D01*
X115443000Y-95504691D01*
X109609334Y-95504691D01*
X109758327Y-95355698D01*
X109855000Y-95122309D01*
X109855000Y-94869691D01*
X109758327Y-94636302D01*
X109579698Y-94457673D01*
X109346309Y-94361000D01*
X109093691Y-94361000D01*
X108860302Y-94457673D01*
X108681673Y-94636302D01*
X108585000Y-94869691D01*
X103739339Y-94869691D01*
X103864730Y-94682031D01*
X103946688Y-94270000D01*
X103939665Y-94234691D01*
X117068600Y-94234691D01*
X117068600Y-94487309D01*
X117165273Y-94720698D01*
X117343902Y-94899327D01*
X117577291Y-94996000D01*
X117829909Y-94996000D01*
X118063298Y-94899327D01*
X118241927Y-94720698D01*
X118338600Y-94487309D01*
X118338600Y-94234691D01*
X118241927Y-94001302D01*
X118063298Y-93822673D01*
X117829909Y-93726000D01*
X117577291Y-93726000D01*
X117343902Y-93822673D01*
X117165273Y-94001302D01*
X117068600Y-94234691D01*
X103939665Y-94234691D01*
X103864730Y-93857969D01*
X103631333Y-93508667D01*
X103475350Y-93404442D01*
X103659540Y-93315349D01*
X103999478Y-92933633D01*
X104091042Y-92712558D01*
X106230800Y-92712558D01*
X106230800Y-93063042D01*
X106364924Y-93386847D01*
X106612753Y-93634676D01*
X106936558Y-93768800D01*
X107287042Y-93768800D01*
X107610847Y-93634676D01*
X107858676Y-93386847D01*
X107992800Y-93063042D01*
X107992800Y-92712558D01*
X107858676Y-92388753D01*
X107610847Y-92140924D01*
X107287042Y-92006800D01*
X106936558Y-92006800D01*
X106612753Y-92140924D01*
X106364924Y-92388753D01*
X106230800Y-92712558D01*
X104091042Y-92712558D01*
X104137910Y-92599400D01*
X104014224Y-92397000D01*
X102997000Y-92397000D01*
X102997000Y-92417000D01*
X102743000Y-92417000D01*
X102743000Y-92397000D01*
X101272789Y-92397000D01*
X101272649Y-92143000D01*
X102743000Y-92143000D01*
X102743000Y-92123000D01*
X102997000Y-92123000D01*
X102997000Y-92143000D01*
X104014224Y-92143000D01*
X104137910Y-91940600D01*
X103999478Y-91606367D01*
X103659540Y-91224651D01*
X103475350Y-91135558D01*
X103631333Y-91031333D01*
X103864730Y-90682031D01*
X103946688Y-90270000D01*
X103921564Y-90143691D01*
X105664000Y-90143691D01*
X105664000Y-90396309D01*
X105760673Y-90629698D01*
X105939302Y-90808327D01*
X106172691Y-90905000D01*
X106425309Y-90905000D01*
X106658698Y-90808327D01*
X106837327Y-90629698D01*
X106934000Y-90396309D01*
X106934000Y-90170691D01*
X133223000Y-90170691D01*
X133223000Y-90423309D01*
X133319673Y-90656698D01*
X133498302Y-90835327D01*
X133731691Y-90932000D01*
X133984309Y-90932000D01*
X134217698Y-90835327D01*
X134396327Y-90656698D01*
X134493000Y-90423309D01*
X134493000Y-90170691D01*
X134396327Y-89937302D01*
X134217698Y-89758673D01*
X133984309Y-89662000D01*
X133731691Y-89662000D01*
X133498302Y-89758673D01*
X133319673Y-89937302D01*
X133223000Y-90170691D01*
X106934000Y-90170691D01*
X106934000Y-90143691D01*
X106837327Y-89910302D01*
X106658698Y-89731673D01*
X106425309Y-89635000D01*
X106172691Y-89635000D01*
X105939302Y-89731673D01*
X105760673Y-89910302D01*
X105664000Y-90143691D01*
X103921564Y-90143691D01*
X103864730Y-89857969D01*
X103631333Y-89508667D01*
X103282031Y-89275270D01*
X102974006Y-89214000D01*
X102765994Y-89214000D01*
X102457969Y-89275270D01*
X102108667Y-89508667D01*
X101875270Y-89857969D01*
X101870000Y-89884463D01*
X101864730Y-89857969D01*
X101631333Y-89508667D01*
X101282031Y-89275270D01*
X101271064Y-89273089D01*
X101269624Y-86664624D01*
X103806536Y-86666024D01*
X103806536Y-86666024D01*
G37*
X103806536Y-86666024D02*
X103806536Y-86945000D01*
X103836106Y-87093659D01*
X103920314Y-87219686D01*
X103995615Y-87270000D01*
X103920314Y-87320314D01*
X103836106Y-87446341D01*
X103806536Y-87595000D01*
X103806536Y-88945000D01*
X103836106Y-89093659D01*
X103920314Y-89219686D01*
X104046341Y-89303894D01*
X104195000Y-89333464D01*
X105545000Y-89333464D01*
X105693659Y-89303894D01*
X105819686Y-89219686D01*
X105903894Y-89093659D01*
X105933464Y-88945000D01*
X105933464Y-88769124D01*
X106108667Y-89031333D01*
X106457969Y-89264730D01*
X106765994Y-89326000D01*
X106974006Y-89326000D01*
X107282031Y-89264730D01*
X107631333Y-89031333D01*
X107864730Y-88682031D01*
X107870000Y-88655537D01*
X107875270Y-88682031D01*
X108108667Y-89031333D01*
X108457969Y-89264730D01*
X108765994Y-89326000D01*
X108974006Y-89326000D01*
X109282031Y-89264730D01*
X109631333Y-89031333D01*
X109864730Y-88682031D01*
X109870000Y-88655537D01*
X109875270Y-88682031D01*
X110108667Y-89031333D01*
X110457969Y-89264730D01*
X110765994Y-89326000D01*
X110974006Y-89326000D01*
X111282031Y-89264730D01*
X111631333Y-89031333D01*
X111864730Y-88682031D01*
X111870000Y-88655537D01*
X111875270Y-88682031D01*
X112108667Y-89031333D01*
X112457969Y-89264730D01*
X112765994Y-89326000D01*
X112974006Y-89326000D01*
X113282031Y-89264730D01*
X113631333Y-89031333D01*
X113864730Y-88682031D01*
X113870000Y-88655537D01*
X113875270Y-88682031D01*
X114108667Y-89031333D01*
X114457969Y-89264730D01*
X114765994Y-89326000D01*
X114974006Y-89326000D01*
X115282031Y-89264730D01*
X115631333Y-89031333D01*
X115864730Y-88682031D01*
X115870000Y-88655537D01*
X115875270Y-88682031D01*
X116108667Y-89031333D01*
X116457969Y-89264730D01*
X116765994Y-89326000D01*
X116974006Y-89326000D01*
X117282031Y-89264730D01*
X117631333Y-89031333D01*
X117864730Y-88682031D01*
X117870000Y-88655537D01*
X117875270Y-88682031D01*
X118108667Y-89031333D01*
X118457969Y-89264730D01*
X118765994Y-89326000D01*
X118974006Y-89326000D01*
X119282031Y-89264730D01*
X119631333Y-89031333D01*
X119864730Y-88682031D01*
X119870000Y-88655537D01*
X119875270Y-88682031D01*
X120108667Y-89031333D01*
X120457969Y-89264730D01*
X120765994Y-89326000D01*
X120974006Y-89326000D01*
X121282031Y-89264730D01*
X121631333Y-89031333D01*
X121864730Y-88682031D01*
X121870000Y-88655537D01*
X121875270Y-88682031D01*
X122108667Y-89031333D01*
X122457969Y-89264730D01*
X122765994Y-89326000D01*
X122974006Y-89326000D01*
X123282031Y-89264730D01*
X123631333Y-89031333D01*
X123864730Y-88682031D01*
X123870000Y-88655537D01*
X123875270Y-88682031D01*
X124108667Y-89031333D01*
X124457969Y-89264730D01*
X124765994Y-89326000D01*
X124974006Y-89326000D01*
X125282031Y-89264730D01*
X125631333Y-89031333D01*
X125864730Y-88682031D01*
X125870000Y-88655537D01*
X125875270Y-88682031D01*
X126108667Y-89031333D01*
X126457969Y-89264730D01*
X126765994Y-89326000D01*
X126974006Y-89326000D01*
X127282031Y-89264730D01*
X127631333Y-89031333D01*
X127864730Y-88682031D01*
X127870000Y-88655537D01*
X127875270Y-88682031D01*
X128108667Y-89031333D01*
X128457969Y-89264730D01*
X128765994Y-89326000D01*
X128974006Y-89326000D01*
X129282031Y-89264730D01*
X129631333Y-89031333D01*
X129864730Y-88682031D01*
X129870000Y-88655537D01*
X129875270Y-88682031D01*
X130108667Y-89031333D01*
X130457969Y-89264730D01*
X130765994Y-89326000D01*
X130974006Y-89326000D01*
X131282031Y-89264730D01*
X131631333Y-89031333D01*
X131864730Y-88682031D01*
X131870000Y-88655537D01*
X131875270Y-88682031D01*
X132108667Y-89031333D01*
X132457969Y-89264730D01*
X132765994Y-89326000D01*
X132974006Y-89326000D01*
X133282031Y-89264730D01*
X133631333Y-89031333D01*
X133864730Y-88682031D01*
X133870000Y-88655537D01*
X133875270Y-88682031D01*
X134108667Y-89031333D01*
X134457969Y-89264730D01*
X134765994Y-89326000D01*
X134974006Y-89326000D01*
X135282031Y-89264730D01*
X135631333Y-89031333D01*
X135864730Y-88682031D01*
X135870000Y-88655537D01*
X135875270Y-88682031D01*
X136108667Y-89031333D01*
X136457969Y-89264730D01*
X136765994Y-89326000D01*
X136974006Y-89326000D01*
X137282031Y-89264730D01*
X137631333Y-89031333D01*
X137864730Y-88682031D01*
X137870000Y-88655537D01*
X137875270Y-88682031D01*
X138108667Y-89031333D01*
X138457969Y-89264730D01*
X138765994Y-89326000D01*
X138974006Y-89326000D01*
X139282031Y-89264730D01*
X139631333Y-89031333D01*
X139864730Y-88682031D01*
X139870000Y-88655537D01*
X139875270Y-88682031D01*
X140108667Y-89031333D01*
X140457969Y-89264730D01*
X140765994Y-89326000D01*
X140974006Y-89326000D01*
X141282031Y-89264730D01*
X141631333Y-89031333D01*
X141864730Y-88682031D01*
X141870000Y-88655537D01*
X141875270Y-88682031D01*
X142108667Y-89031333D01*
X142457969Y-89264730D01*
X142765994Y-89326000D01*
X142974006Y-89326000D01*
X143282031Y-89264730D01*
X143631333Y-89031333D01*
X143864730Y-88682031D01*
X143946688Y-88270000D01*
X143864730Y-87857969D01*
X143631333Y-87508667D01*
X143282031Y-87275270D01*
X143255537Y-87270000D01*
X143282031Y-87264730D01*
X143631333Y-87031333D01*
X143860647Y-86688142D01*
X146456800Y-86689576D01*
X146456800Y-89206536D01*
X146195000Y-89206536D01*
X146046341Y-89236106D01*
X145920314Y-89320314D01*
X145870000Y-89395615D01*
X145819686Y-89320314D01*
X145693659Y-89236106D01*
X145545000Y-89206536D01*
X144195000Y-89206536D01*
X144046341Y-89236106D01*
X143920314Y-89320314D01*
X143836106Y-89446341D01*
X143806536Y-89595000D01*
X143806536Y-90945000D01*
X143836106Y-91093659D01*
X143920314Y-91219686D01*
X144046341Y-91303894D01*
X144195000Y-91333464D01*
X144370876Y-91333464D01*
X144108667Y-91508667D01*
X143875270Y-91857969D01*
X143793312Y-92270000D01*
X143875270Y-92682031D01*
X144108667Y-93031333D01*
X144457969Y-93264730D01*
X144484463Y-93270000D01*
X144457969Y-93275270D01*
X144108667Y-93508667D01*
X143875270Y-93857969D01*
X143793312Y-94270000D01*
X143875270Y-94682031D01*
X144108667Y-95031333D01*
X144457969Y-95264730D01*
X144484463Y-95270000D01*
X144457969Y-95275270D01*
X144108667Y-95508667D01*
X143875270Y-95857969D01*
X143793312Y-96270000D01*
X143875270Y-96682031D01*
X144108667Y-97031333D01*
X144457969Y-97264730D01*
X144484463Y-97270000D01*
X144457969Y-97275270D01*
X144108667Y-97508667D01*
X143875270Y-97857969D01*
X143793312Y-98270000D01*
X143875270Y-98682031D01*
X144108667Y-99031333D01*
X144457969Y-99264730D01*
X144484463Y-99270000D01*
X144457969Y-99275270D01*
X144108667Y-99508667D01*
X143875270Y-99857969D01*
X143793312Y-100270000D01*
X143875270Y-100682031D01*
X144108667Y-101031333D01*
X144457969Y-101264730D01*
X144484463Y-101270000D01*
X144457969Y-101275270D01*
X144108667Y-101508667D01*
X143875270Y-101857969D01*
X143793312Y-102270000D01*
X143875270Y-102682031D01*
X144108667Y-103031333D01*
X144457969Y-103264730D01*
X144484463Y-103270000D01*
X144457969Y-103275270D01*
X144108667Y-103508667D01*
X143875270Y-103857969D01*
X143793312Y-104270000D01*
X143875270Y-104682031D01*
X144108667Y-105031333D01*
X144457969Y-105264730D01*
X144484463Y-105270000D01*
X144457969Y-105275270D01*
X144108667Y-105508667D01*
X143875270Y-105857969D01*
X143793312Y-106270000D01*
X143875270Y-106682031D01*
X144108667Y-107031333D01*
X144457969Y-107264730D01*
X144484463Y-107270000D01*
X144457969Y-107275270D01*
X144108667Y-107508667D01*
X143875270Y-107857969D01*
X143793312Y-108270000D01*
X143875270Y-108682031D01*
X144108667Y-109031333D01*
X144457969Y-109264730D01*
X144484463Y-109270000D01*
X144457969Y-109275270D01*
X144108667Y-109508667D01*
X143875270Y-109857969D01*
X143793312Y-110270000D01*
X143875270Y-110682031D01*
X144108667Y-111031333D01*
X144457969Y-111264730D01*
X144484463Y-111270000D01*
X144457969Y-111275270D01*
X144108667Y-111508667D01*
X143875270Y-111857969D01*
X143793312Y-112270000D01*
X143875270Y-112682031D01*
X144108667Y-113031333D01*
X144457969Y-113264730D01*
X144484463Y-113270000D01*
X144457969Y-113275270D01*
X144108667Y-113508667D01*
X143875270Y-113857969D01*
X143793312Y-114270000D01*
X143875270Y-114682031D01*
X144108667Y-115031333D01*
X144457969Y-115264730D01*
X144484463Y-115270000D01*
X144457969Y-115275270D01*
X144108667Y-115508667D01*
X143875270Y-115857969D01*
X143793312Y-116270000D01*
X143875270Y-116682031D01*
X144108667Y-117031333D01*
X144457969Y-117264730D01*
X144484463Y-117270000D01*
X144457969Y-117275270D01*
X144108667Y-117508667D01*
X143875270Y-117857969D01*
X143793312Y-118270000D01*
X143875270Y-118682031D01*
X144108667Y-119031333D01*
X144457969Y-119264730D01*
X144484463Y-119270000D01*
X144457969Y-119275270D01*
X144108667Y-119508667D01*
X143875270Y-119857969D01*
X143793312Y-120270000D01*
X143875270Y-120682031D01*
X144108667Y-121031333D01*
X144457969Y-121264730D01*
X144484463Y-121270000D01*
X144457969Y-121275270D01*
X144108667Y-121508667D01*
X143875270Y-121857969D01*
X143793312Y-122270000D01*
X143875270Y-122682031D01*
X144108667Y-123031333D01*
X144457969Y-123264730D01*
X144484463Y-123270000D01*
X144457969Y-123275270D01*
X144108667Y-123508667D01*
X143875270Y-123857969D01*
X143793312Y-124270000D01*
X143875270Y-124682031D01*
X144108667Y-125031333D01*
X144457969Y-125264730D01*
X144484463Y-125270000D01*
X144457969Y-125275270D01*
X144108667Y-125508667D01*
X143875270Y-125857969D01*
X143793312Y-126270000D01*
X143875270Y-126682031D01*
X144108667Y-127031333D01*
X144457969Y-127264730D01*
X144484463Y-127270000D01*
X144457969Y-127275270D01*
X144108667Y-127508667D01*
X143875270Y-127857969D01*
X143793312Y-128270000D01*
X143875270Y-128682031D01*
X144108667Y-129031333D01*
X144457969Y-129264730D01*
X144765994Y-129326000D01*
X144974006Y-129326000D01*
X145282031Y-129264730D01*
X145631333Y-129031333D01*
X145864730Y-128682031D01*
X145870000Y-128655537D01*
X145875270Y-128682031D01*
X146108667Y-129031333D01*
X146456801Y-129263950D01*
X146456801Y-131876976D01*
X143933464Y-131875582D01*
X143933464Y-131595000D01*
X143903894Y-131446341D01*
X143819686Y-131320314D01*
X143744385Y-131270000D01*
X143819686Y-131219686D01*
X143903894Y-131093659D01*
X143933464Y-130945000D01*
X143933464Y-129595000D01*
X143903894Y-129446341D01*
X143819686Y-129320314D01*
X143693659Y-129236106D01*
X143545000Y-129206536D01*
X142195000Y-129206536D01*
X142046341Y-129236106D01*
X141920314Y-129320314D01*
X141836106Y-129446341D01*
X141806536Y-129595000D01*
X141806536Y-129770876D01*
X141631333Y-129508667D01*
X141282031Y-129275270D01*
X140974006Y-129214000D01*
X140765994Y-129214000D01*
X140457969Y-129275270D01*
X140108667Y-129508667D01*
X139875270Y-129857969D01*
X139870000Y-129884463D01*
X139864730Y-129857969D01*
X139631333Y-129508667D01*
X139282031Y-129275270D01*
X138974006Y-129214000D01*
X138765994Y-129214000D01*
X138457969Y-129275270D01*
X138108667Y-129508667D01*
X137875270Y-129857969D01*
X137870000Y-129884463D01*
X137864730Y-129857969D01*
X137631333Y-129508667D01*
X137282031Y-129275270D01*
X136974006Y-129214000D01*
X136765994Y-129214000D01*
X136457969Y-129275270D01*
X136108667Y-129508667D01*
X135875270Y-129857969D01*
X135870000Y-129884463D01*
X135864730Y-129857969D01*
X135631333Y-129508667D01*
X135282031Y-129275270D01*
X134974006Y-129214000D01*
X134765994Y-129214000D01*
X134457969Y-129275270D01*
X134108667Y-129508667D01*
X133875270Y-129857969D01*
X133870000Y-129884463D01*
X133864730Y-129857969D01*
X133631333Y-129508667D01*
X133282031Y-129275270D01*
X132974006Y-129214000D01*
X132765994Y-129214000D01*
X132457969Y-129275270D01*
X132108667Y-129508667D01*
X131875270Y-129857969D01*
X131870000Y-129884463D01*
X131864730Y-129857969D01*
X131631333Y-129508667D01*
X131282031Y-129275270D01*
X130974006Y-129214000D01*
X130765994Y-129214000D01*
X130457969Y-129275270D01*
X130108667Y-129508667D01*
X129875270Y-129857969D01*
X129870000Y-129884463D01*
X129864730Y-129857969D01*
X129631333Y-129508667D01*
X129282031Y-129275270D01*
X128974006Y-129214000D01*
X128765994Y-129214000D01*
X128457969Y-129275270D01*
X128108667Y-129508667D01*
X127875270Y-129857969D01*
X127870000Y-129884463D01*
X127864730Y-129857969D01*
X127631333Y-129508667D01*
X127282031Y-129275270D01*
X126974006Y-129214000D01*
X126765994Y-129214000D01*
X126457969Y-129275270D01*
X126108667Y-129508667D01*
X125875270Y-129857969D01*
X125870000Y-129884463D01*
X125864730Y-129857969D01*
X125631333Y-129508667D01*
X125282031Y-129275270D01*
X124974006Y-129214000D01*
X124765994Y-129214000D01*
X124457969Y-129275270D01*
X124108667Y-129508667D01*
X123875270Y-129857969D01*
X123870000Y-129884463D01*
X123864730Y-129857969D01*
X123631333Y-129508667D01*
X123282031Y-129275270D01*
X122974006Y-129214000D01*
X122765994Y-129214000D01*
X122457969Y-129275270D01*
X122108667Y-129508667D01*
X121875270Y-129857969D01*
X121870000Y-129884463D01*
X121864730Y-129857969D01*
X121631333Y-129508667D01*
X121282031Y-129275270D01*
X120974006Y-129214000D01*
X120765994Y-129214000D01*
X120457969Y-129275270D01*
X120108667Y-129508667D01*
X119875270Y-129857969D01*
X119870000Y-129884463D01*
X119864730Y-129857969D01*
X119631333Y-129508667D01*
X119282031Y-129275270D01*
X118974006Y-129214000D01*
X118765994Y-129214000D01*
X118457969Y-129275270D01*
X118108667Y-129508667D01*
X117875270Y-129857969D01*
X117870000Y-129884463D01*
X117864730Y-129857969D01*
X117631333Y-129508667D01*
X117282031Y-129275270D01*
X116974006Y-129214000D01*
X116765994Y-129214000D01*
X116457969Y-129275270D01*
X116108667Y-129508667D01*
X115875270Y-129857969D01*
X115870000Y-129884463D01*
X115864730Y-129857969D01*
X115631333Y-129508667D01*
X115282031Y-129275270D01*
X114974006Y-129214000D01*
X114765994Y-129214000D01*
X114457969Y-129275270D01*
X114108667Y-129508667D01*
X113875270Y-129857969D01*
X113870000Y-129884463D01*
X113864730Y-129857969D01*
X113631333Y-129508667D01*
X113282031Y-129275270D01*
X112974006Y-129214000D01*
X112765994Y-129214000D01*
X112457969Y-129275270D01*
X112108667Y-129508667D01*
X111875270Y-129857969D01*
X111870000Y-129884463D01*
X111864730Y-129857969D01*
X111631333Y-129508667D01*
X111282031Y-129275270D01*
X110974006Y-129214000D01*
X110765994Y-129214000D01*
X110457969Y-129275270D01*
X110108667Y-129508667D01*
X109875270Y-129857969D01*
X109870000Y-129884463D01*
X109864730Y-129857969D01*
X109631333Y-129508667D01*
X109282031Y-129275270D01*
X108974006Y-129214000D01*
X108765994Y-129214000D01*
X108457969Y-129275270D01*
X108108667Y-129508667D01*
X107875270Y-129857969D01*
X107870000Y-129884463D01*
X107864730Y-129857969D01*
X107631333Y-129508667D01*
X107282031Y-129275270D01*
X106974006Y-129214000D01*
X106765994Y-129214000D01*
X106457969Y-129275270D01*
X106108667Y-129508667D01*
X105875270Y-129857969D01*
X105870000Y-129884463D01*
X105864730Y-129857969D01*
X105631333Y-129508667D01*
X105282031Y-129275270D01*
X104974006Y-129214000D01*
X104765994Y-129214000D01*
X104457969Y-129275270D01*
X104108667Y-129508667D01*
X103875270Y-129857969D01*
X103793312Y-130270000D01*
X103875270Y-130682031D01*
X104108667Y-131031333D01*
X104457969Y-131264730D01*
X104484463Y-131270000D01*
X104457969Y-131275270D01*
X104108667Y-131508667D01*
X103878288Y-131853452D01*
X101294576Y-131852024D01*
X101293185Y-129333464D01*
X101545000Y-129333464D01*
X101693659Y-129303894D01*
X101819686Y-129219686D01*
X101870000Y-129144385D01*
X101920314Y-129219686D01*
X102046341Y-129303894D01*
X102195000Y-129333464D01*
X103545000Y-129333464D01*
X103693659Y-129303894D01*
X103819686Y-129219686D01*
X103903894Y-129093659D01*
X103933464Y-128945000D01*
X103933464Y-127595000D01*
X103903894Y-127446341D01*
X103819686Y-127320314D01*
X103693659Y-127236106D01*
X103545000Y-127206536D01*
X103369124Y-127206536D01*
X103631333Y-127031333D01*
X103864730Y-126682031D01*
X103946688Y-126270000D01*
X103864730Y-125857969D01*
X103631333Y-125508667D01*
X103282031Y-125275270D01*
X103255537Y-125270000D01*
X103282031Y-125264730D01*
X103631333Y-125031333D01*
X103864730Y-124682031D01*
X103946688Y-124270000D01*
X103864730Y-123857969D01*
X103631333Y-123508667D01*
X103282031Y-123275270D01*
X103255537Y-123270000D01*
X103282031Y-123264730D01*
X103359062Y-123213259D01*
X124507968Y-123213259D01*
X124507968Y-123465877D01*
X124604641Y-123699266D01*
X124783270Y-123877895D01*
X125016659Y-123974568D01*
X125269277Y-123974568D01*
X125473177Y-123890110D01*
X125426371Y-124003110D01*
X125426371Y-124255728D01*
X125523044Y-124489117D01*
X125609236Y-124575309D01*
X125523044Y-124661501D01*
X125426371Y-124894890D01*
X125426371Y-125147508D01*
X125523044Y-125380897D01*
X125701673Y-125559526D01*
X125935062Y-125656199D01*
X126187680Y-125656199D01*
X126421069Y-125559526D01*
X126599698Y-125380897D01*
X126696371Y-125147508D01*
X126696371Y-124894890D01*
X126599698Y-124661501D01*
X126513506Y-124575309D01*
X126599698Y-124489117D01*
X126681824Y-124290848D01*
X126732835Y-124290848D01*
X126966224Y-124194175D01*
X127144853Y-124015546D01*
X127241526Y-123782157D01*
X127241526Y-123529539D01*
X127144853Y-123296150D01*
X126966224Y-123117521D01*
X126836268Y-123063691D01*
X127533400Y-123063691D01*
X127533400Y-123316309D01*
X127630073Y-123549698D01*
X127808702Y-123728327D01*
X128042091Y-123825000D01*
X128294709Y-123825000D01*
X128517203Y-123732840D01*
X128463521Y-123786522D01*
X128366848Y-124019911D01*
X128366848Y-124272529D01*
X128463521Y-124505918D01*
X128549713Y-124592110D01*
X128463521Y-124678302D01*
X128366848Y-124911691D01*
X128366848Y-125164309D01*
X128463521Y-125397698D01*
X128642150Y-125576327D01*
X128875539Y-125673000D01*
X129128157Y-125673000D01*
X129361546Y-125576327D01*
X129540175Y-125397698D01*
X129636848Y-125164309D01*
X129636848Y-124911691D01*
X129540175Y-124678302D01*
X129453983Y-124592110D01*
X129540175Y-124505918D01*
X129632842Y-124282200D01*
X129709109Y-124282200D01*
X129942498Y-124185527D01*
X130121127Y-124006898D01*
X130217800Y-123773509D01*
X130217800Y-123520891D01*
X130121127Y-123287502D01*
X129942498Y-123108873D01*
X129833420Y-123063691D01*
X134112000Y-123063691D01*
X134112000Y-123316309D01*
X134208673Y-123549698D01*
X134387302Y-123728327D01*
X134620691Y-123825000D01*
X134873309Y-123825000D01*
X135106698Y-123728327D01*
X135285327Y-123549698D01*
X135382000Y-123316309D01*
X135382000Y-123063691D01*
X135285327Y-122830302D01*
X135106698Y-122651673D01*
X134873309Y-122555000D01*
X134620691Y-122555000D01*
X134387302Y-122651673D01*
X134208673Y-122830302D01*
X134112000Y-123063691D01*
X129833420Y-123063691D01*
X129709109Y-123012200D01*
X129456491Y-123012200D01*
X129223102Y-123108873D01*
X129044473Y-123287502D01*
X128951806Y-123511220D01*
X128875539Y-123511220D01*
X128653045Y-123603380D01*
X128706727Y-123549698D01*
X128803400Y-123316309D01*
X128803400Y-123063691D01*
X128706727Y-122830302D01*
X128528098Y-122651673D01*
X128294709Y-122555000D01*
X128042091Y-122555000D01*
X127808702Y-122651673D01*
X127630073Y-122830302D01*
X127533400Y-123063691D01*
X126836268Y-123063691D01*
X126732835Y-123020848D01*
X126700054Y-123020848D01*
X126621127Y-122830302D01*
X126442498Y-122651673D01*
X126209109Y-122555000D01*
X125956491Y-122555000D01*
X125723102Y-122651673D01*
X125544473Y-122830302D01*
X125540740Y-122839315D01*
X125502666Y-122801241D01*
X125269277Y-122704568D01*
X125016659Y-122704568D01*
X124783270Y-122801241D01*
X124604641Y-122979870D01*
X124507968Y-123213259D01*
X103359062Y-123213259D01*
X103631333Y-123031333D01*
X103864730Y-122682031D01*
X103946688Y-122270000D01*
X103864730Y-121857969D01*
X103704226Y-121617758D01*
X109863000Y-121617758D01*
X109863000Y-121968242D01*
X109997124Y-122292047D01*
X110244953Y-122539876D01*
X110568758Y-122674000D01*
X110919242Y-122674000D01*
X111243047Y-122539876D01*
X111490876Y-122292047D01*
X111625000Y-121968242D01*
X111625000Y-121617758D01*
X111490876Y-121293953D01*
X111243047Y-121046124D01*
X110919242Y-120912000D01*
X110568758Y-120912000D01*
X110244953Y-121046124D01*
X109997124Y-121293953D01*
X109863000Y-121617758D01*
X103704226Y-121617758D01*
X103631333Y-121508667D01*
X103282031Y-121275270D01*
X103255537Y-121270000D01*
X103282031Y-121264730D01*
X103631333Y-121031333D01*
X103783839Y-120803091D01*
X124383800Y-120803091D01*
X124383800Y-121055709D01*
X124480473Y-121289098D01*
X124659102Y-121467727D01*
X124892491Y-121564400D01*
X125145109Y-121564400D01*
X125378498Y-121467727D01*
X125557127Y-121289098D01*
X125653800Y-121055709D01*
X125653800Y-120803091D01*
X125643279Y-120777691D01*
X129387600Y-120777691D01*
X129387600Y-121030309D01*
X129484273Y-121263698D01*
X129662902Y-121442327D01*
X129896291Y-121539000D01*
X130148909Y-121539000D01*
X130382298Y-121442327D01*
X130560927Y-121263698D01*
X130657600Y-121030309D01*
X130657600Y-120853891D01*
X133400800Y-120853891D01*
X133400800Y-121106509D01*
X133497473Y-121339898D01*
X133676102Y-121518527D01*
X133909491Y-121615200D01*
X134162109Y-121615200D01*
X134395498Y-121518527D01*
X134574127Y-121339898D01*
X134670800Y-121106509D01*
X134670800Y-120853891D01*
X134574127Y-120620502D01*
X134395498Y-120441873D01*
X134162109Y-120345200D01*
X133909491Y-120345200D01*
X133676102Y-120441873D01*
X133497473Y-120620502D01*
X133400800Y-120853891D01*
X130657600Y-120853891D01*
X130657600Y-120777691D01*
X130560927Y-120544302D01*
X130382298Y-120365673D01*
X130148909Y-120269000D01*
X129896291Y-120269000D01*
X129662902Y-120365673D01*
X129484273Y-120544302D01*
X129387600Y-120777691D01*
X125643279Y-120777691D01*
X125557127Y-120569702D01*
X125378498Y-120391073D01*
X125145109Y-120294400D01*
X124892491Y-120294400D01*
X124659102Y-120391073D01*
X124480473Y-120569702D01*
X124383800Y-120803091D01*
X103783839Y-120803091D01*
X103864730Y-120682031D01*
X103946688Y-120270000D01*
X103864730Y-119857969D01*
X103631333Y-119508667D01*
X103282031Y-119275270D01*
X103255537Y-119270000D01*
X103282031Y-119264730D01*
X103336565Y-119228291D01*
X116913420Y-119228291D01*
X116913420Y-119480909D01*
X117010093Y-119714298D01*
X117188722Y-119892927D01*
X117422111Y-119989600D01*
X117674729Y-119989600D01*
X117908118Y-119892927D01*
X117981605Y-119819440D01*
X118055092Y-119892927D01*
X118288481Y-119989600D01*
X118541099Y-119989600D01*
X118774488Y-119892927D01*
X118953117Y-119714298D01*
X119017654Y-119558491D01*
X121056400Y-119558491D01*
X121056400Y-119811109D01*
X121153073Y-120044498D01*
X121331702Y-120223127D01*
X121565091Y-120319800D01*
X121817709Y-120319800D01*
X122051098Y-120223127D01*
X122229727Y-120044498D01*
X122326400Y-119811109D01*
X122326400Y-119558491D01*
X122229727Y-119325102D01*
X122051098Y-119146473D01*
X121817709Y-119049800D01*
X121565091Y-119049800D01*
X121331702Y-119146473D01*
X121153073Y-119325102D01*
X121056400Y-119558491D01*
X119017654Y-119558491D01*
X119049790Y-119480909D01*
X119049790Y-119278410D01*
X119099909Y-119278410D01*
X119333298Y-119181737D01*
X119511927Y-119003108D01*
X119608600Y-118769719D01*
X119608600Y-118517101D01*
X119511927Y-118283712D01*
X119333298Y-118105083D01*
X119099909Y-118008410D01*
X118847291Y-118008410D01*
X118613902Y-118105083D01*
X118435273Y-118283712D01*
X118338600Y-118517101D01*
X118338600Y-118719600D01*
X118288481Y-118719600D01*
X118055092Y-118816273D01*
X117981605Y-118889760D01*
X117908118Y-118816273D01*
X117674729Y-118719600D01*
X117422111Y-118719600D01*
X117188722Y-118816273D01*
X117010093Y-118994902D01*
X116913420Y-119228291D01*
X103336565Y-119228291D01*
X103631333Y-119031333D01*
X103864730Y-118682031D01*
X103946688Y-118270000D01*
X103864730Y-117857969D01*
X103631333Y-117508667D01*
X103282031Y-117275270D01*
X103255537Y-117270000D01*
X103282031Y-117264730D01*
X103631333Y-117031333D01*
X103864730Y-116682031D01*
X103888746Y-116561291D01*
X117065820Y-116561291D01*
X117065820Y-116813909D01*
X117162493Y-117047298D01*
X117341122Y-117225927D01*
X117574511Y-117322600D01*
X117827129Y-117322600D01*
X118060518Y-117225927D01*
X118146710Y-117139735D01*
X118232902Y-117225927D01*
X118466291Y-117322600D01*
X118718909Y-117322600D01*
X118795800Y-117290751D01*
X118795800Y-117372721D01*
X118892473Y-117606110D01*
X119071102Y-117784739D01*
X119304491Y-117881412D01*
X119557109Y-117881412D01*
X119790498Y-117784739D01*
X119969127Y-117606110D01*
X119991585Y-117551891D01*
X121208800Y-117551891D01*
X121208800Y-117804509D01*
X121305473Y-118037898D01*
X121484102Y-118216527D01*
X121717491Y-118313200D01*
X121970109Y-118313200D01*
X122203498Y-118216527D01*
X122382127Y-118037898D01*
X122478800Y-117804509D01*
X122478800Y-117551891D01*
X122382127Y-117318502D01*
X122203498Y-117139873D01*
X121970109Y-117043200D01*
X121717491Y-117043200D01*
X121484102Y-117139873D01*
X121305473Y-117318502D01*
X121208800Y-117551891D01*
X119991585Y-117551891D01*
X120065800Y-117372721D01*
X120065800Y-117120103D01*
X119969127Y-116886714D01*
X119790498Y-116708085D01*
X119779157Y-116703388D01*
X119866698Y-116667127D01*
X120045327Y-116488498D01*
X120142000Y-116255109D01*
X120142000Y-116002491D01*
X120045327Y-115769102D01*
X119866698Y-115590473D01*
X119757620Y-115545291D01*
X121183400Y-115545291D01*
X121183400Y-115797909D01*
X121280073Y-116031298D01*
X121458702Y-116209927D01*
X121692091Y-116306600D01*
X121944709Y-116306600D01*
X122178098Y-116209927D01*
X122356727Y-116031298D01*
X122453400Y-115797909D01*
X122453400Y-115545291D01*
X122356727Y-115311902D01*
X122178098Y-115133273D01*
X121944709Y-115036600D01*
X121692091Y-115036600D01*
X121458702Y-115133273D01*
X121280073Y-115311902D01*
X121183400Y-115545291D01*
X119757620Y-115545291D01*
X119633309Y-115493800D01*
X119380691Y-115493800D01*
X119147302Y-115590473D01*
X118968673Y-115769102D01*
X118872000Y-116002491D01*
X118872000Y-116116012D01*
X118718909Y-116052600D01*
X118466291Y-116052600D01*
X118232902Y-116149273D01*
X118146710Y-116235465D01*
X118060518Y-116149273D01*
X117827129Y-116052600D01*
X117574511Y-116052600D01*
X117341122Y-116149273D01*
X117162493Y-116327902D01*
X117065820Y-116561291D01*
X103888746Y-116561291D01*
X103946688Y-116270000D01*
X103864730Y-115857969D01*
X103631333Y-115508667D01*
X103282031Y-115275270D01*
X103255537Y-115270000D01*
X103282031Y-115264730D01*
X103631333Y-115031333D01*
X103864730Y-114682031D01*
X103946688Y-114270000D01*
X103864730Y-113857969D01*
X103804141Y-113767291D01*
X116989620Y-113767291D01*
X116989620Y-114019909D01*
X117086293Y-114253298D01*
X117264922Y-114431927D01*
X117498311Y-114528600D01*
X117750929Y-114528600D01*
X117984318Y-114431927D01*
X118070510Y-114345735D01*
X118156702Y-114431927D01*
X118390091Y-114528600D01*
X118642709Y-114528600D01*
X118867435Y-114435515D01*
X118867435Y-114670555D01*
X118964108Y-114903944D01*
X119142737Y-115082573D01*
X119376126Y-115179246D01*
X119628744Y-115179246D01*
X119862133Y-115082573D01*
X120040762Y-114903944D01*
X120137435Y-114670555D01*
X120137435Y-114417937D01*
X120040762Y-114184548D01*
X119926605Y-114070391D01*
X119989600Y-113918309D01*
X119989600Y-113665691D01*
X119936995Y-113538691D01*
X134620000Y-113538691D01*
X134620000Y-113791309D01*
X134716673Y-114024698D01*
X134895302Y-114203327D01*
X135128691Y-114300000D01*
X135381309Y-114300000D01*
X135614698Y-114203327D01*
X135793327Y-114024698D01*
X135890000Y-113791309D01*
X135890000Y-113538691D01*
X135793327Y-113305302D01*
X135614698Y-113126673D01*
X135381309Y-113030000D01*
X135128691Y-113030000D01*
X134895302Y-113126673D01*
X134716673Y-113305302D01*
X134620000Y-113538691D01*
X119936995Y-113538691D01*
X119892927Y-113432302D01*
X119714298Y-113253673D01*
X119480909Y-113157000D01*
X119228291Y-113157000D01*
X118994902Y-113253673D01*
X118884700Y-113363875D01*
X118876098Y-113355273D01*
X118642709Y-113258600D01*
X118390091Y-113258600D01*
X118156702Y-113355273D01*
X118070510Y-113441465D01*
X117984318Y-113355273D01*
X117750929Y-113258600D01*
X117498311Y-113258600D01*
X117264922Y-113355273D01*
X117086293Y-113533902D01*
X116989620Y-113767291D01*
X103804141Y-113767291D01*
X103631333Y-113508667D01*
X103282031Y-113275270D01*
X103255537Y-113270000D01*
X103282031Y-113264730D01*
X103631333Y-113031333D01*
X103864730Y-112682031D01*
X103896424Y-112522691D01*
X121539000Y-112522691D01*
X121539000Y-112775309D01*
X121635673Y-113008698D01*
X121814302Y-113187327D01*
X122047691Y-113284000D01*
X122300309Y-113284000D01*
X122533698Y-113187327D01*
X122712327Y-113008698D01*
X122809000Y-112775309D01*
X122809000Y-112522691D01*
X122712327Y-112289302D01*
X122533698Y-112110673D01*
X122300309Y-112014000D01*
X122047691Y-112014000D01*
X121814302Y-112110673D01*
X121635673Y-112289302D01*
X121539000Y-112522691D01*
X103896424Y-112522691D01*
X103946688Y-112270000D01*
X103864730Y-111857969D01*
X103631333Y-111508667D01*
X103479116Y-111406958D01*
X111412400Y-111406958D01*
X111412400Y-111757442D01*
X111546524Y-112081247D01*
X111794353Y-112329076D01*
X112118158Y-112463200D01*
X112468642Y-112463200D01*
X112792447Y-112329076D01*
X113040276Y-112081247D01*
X113174400Y-111757442D01*
X113174400Y-111659091D01*
X136982200Y-111659091D01*
X136982200Y-111911709D01*
X137078873Y-112145098D01*
X137257502Y-112323727D01*
X137490891Y-112420400D01*
X137743509Y-112420400D01*
X137936941Y-112340278D01*
X137851719Y-112546021D01*
X137851719Y-112674400D01*
X137846491Y-112674400D01*
X137613102Y-112771073D01*
X137434473Y-112949702D01*
X137337800Y-113183091D01*
X137337800Y-113435709D01*
X137434473Y-113669098D01*
X137613102Y-113847727D01*
X137846491Y-113944400D01*
X138099109Y-113944400D01*
X138332498Y-113847727D01*
X138511127Y-113669098D01*
X138607800Y-113435709D01*
X138607800Y-113307330D01*
X138613028Y-113307330D01*
X138846417Y-113210657D01*
X138932609Y-113124465D01*
X139018801Y-113210657D01*
X139252190Y-113307330D01*
X139504808Y-113307330D01*
X139738197Y-113210657D01*
X139916826Y-113032028D01*
X140013499Y-112798639D01*
X140013499Y-112546021D01*
X139916826Y-112312632D01*
X139738197Y-112134003D01*
X139504808Y-112037330D01*
X139252190Y-112037330D01*
X139018801Y-112134003D01*
X138932609Y-112220195D01*
X138846417Y-112134003D01*
X138613028Y-112037330D01*
X138360410Y-112037330D01*
X138166978Y-112117452D01*
X138252200Y-111911709D01*
X138252200Y-111659091D01*
X138155527Y-111425702D01*
X137976898Y-111247073D01*
X137804830Y-111175800D01*
X138022909Y-111175800D01*
X138256298Y-111079127D01*
X138434927Y-110900498D01*
X138531600Y-110667109D01*
X138531600Y-110535025D01*
X138615990Y-110535025D01*
X138849379Y-110438352D01*
X138935571Y-110352160D01*
X139021763Y-110438352D01*
X139255152Y-110535025D01*
X139507770Y-110535025D01*
X139741159Y-110438352D01*
X139919788Y-110259723D01*
X140016461Y-110026334D01*
X140016461Y-109773716D01*
X139919788Y-109540327D01*
X139741159Y-109361698D01*
X139507770Y-109265025D01*
X139255152Y-109265025D01*
X139021763Y-109361698D01*
X138935571Y-109447890D01*
X138849379Y-109361698D01*
X138615990Y-109265025D01*
X138363372Y-109265025D01*
X138129983Y-109361698D01*
X137951354Y-109540327D01*
X137854681Y-109773716D01*
X137854681Y-109905800D01*
X137770291Y-109905800D01*
X137536902Y-110002473D01*
X137358273Y-110181102D01*
X137261600Y-110414491D01*
X137261600Y-110667109D01*
X137358273Y-110900498D01*
X137536902Y-111079127D01*
X137708970Y-111150400D01*
X137490891Y-111150400D01*
X137257502Y-111247073D01*
X137078873Y-111425702D01*
X136982200Y-111659091D01*
X113174400Y-111659091D01*
X113174400Y-111406958D01*
X113040276Y-111083153D01*
X112792447Y-110835324D01*
X112468642Y-110701200D01*
X112118158Y-110701200D01*
X111794353Y-110835324D01*
X111546524Y-111083153D01*
X111412400Y-111406958D01*
X103479116Y-111406958D01*
X103282031Y-111275270D01*
X103255537Y-111270000D01*
X103282031Y-111264730D01*
X103631333Y-111031333D01*
X103864730Y-110682031D01*
X103946688Y-110270000D01*
X103889539Y-109982691D01*
X118745000Y-109982691D01*
X118745000Y-110235309D01*
X118841673Y-110468698D01*
X119020302Y-110647327D01*
X119253691Y-110744000D01*
X119506309Y-110744000D01*
X119739698Y-110647327D01*
X119918327Y-110468698D01*
X120015000Y-110235309D01*
X120015000Y-110058891D01*
X134594600Y-110058891D01*
X134594600Y-110311509D01*
X134691273Y-110544898D01*
X134869902Y-110723527D01*
X135103291Y-110820200D01*
X135355909Y-110820200D01*
X135589298Y-110723527D01*
X135767927Y-110544898D01*
X135864600Y-110311509D01*
X135864600Y-110058891D01*
X135767927Y-109825502D01*
X135589298Y-109646873D01*
X135355909Y-109550200D01*
X135103291Y-109550200D01*
X134869902Y-109646873D01*
X134691273Y-109825502D01*
X134594600Y-110058891D01*
X120015000Y-110058891D01*
X120015000Y-109982691D01*
X119918327Y-109749302D01*
X119739698Y-109570673D01*
X119506309Y-109474000D01*
X119253691Y-109474000D01*
X119020302Y-109570673D01*
X118841673Y-109749302D01*
X118745000Y-109982691D01*
X103889539Y-109982691D01*
X103864730Y-109857969D01*
X103631333Y-109508667D01*
X103282031Y-109275270D01*
X103255537Y-109270000D01*
X103282031Y-109264730D01*
X103631333Y-109031333D01*
X103864730Y-108682031D01*
X103894589Y-108531917D01*
X116830485Y-108531917D01*
X116830485Y-108784535D01*
X116927158Y-109017924D01*
X117105787Y-109196553D01*
X117339176Y-109293226D01*
X117591794Y-109293226D01*
X117825183Y-109196553D01*
X118003812Y-109017924D01*
X118100485Y-108784535D01*
X118100485Y-108679653D01*
X118139901Y-108695980D01*
X118392519Y-108695980D01*
X118625908Y-108599307D01*
X118804537Y-108420678D01*
X118901210Y-108187289D01*
X118901210Y-107934671D01*
X118804537Y-107701282D01*
X118625908Y-107522653D01*
X118392519Y-107425980D01*
X118139901Y-107425980D01*
X117906512Y-107522653D01*
X117727883Y-107701282D01*
X117631210Y-107934671D01*
X117631210Y-108039553D01*
X117591794Y-108023226D01*
X117339176Y-108023226D01*
X117105787Y-108119899D01*
X116927158Y-108298528D01*
X116830485Y-108531917D01*
X103894589Y-108531917D01*
X103946688Y-108270000D01*
X103864730Y-107857969D01*
X103631333Y-107508667D01*
X103380539Y-107341091D01*
X125374400Y-107341091D01*
X125374400Y-107593709D01*
X125471073Y-107827098D01*
X125649702Y-108005727D01*
X125883091Y-108102400D01*
X126135709Y-108102400D01*
X126369098Y-108005727D01*
X126547727Y-107827098D01*
X126643827Y-107595091D01*
X137160000Y-107595091D01*
X137160000Y-107847709D01*
X137256673Y-108081098D01*
X137435302Y-108259727D01*
X137668691Y-108356400D01*
X137921309Y-108356400D01*
X138154698Y-108259727D01*
X138333327Y-108081098D01*
X138430000Y-107847709D01*
X138430000Y-107595091D01*
X138333327Y-107361702D01*
X138154698Y-107183073D01*
X137921309Y-107086400D01*
X137668691Y-107086400D01*
X137435302Y-107183073D01*
X137256673Y-107361702D01*
X137160000Y-107595091D01*
X126643827Y-107595091D01*
X126644400Y-107593709D01*
X126644400Y-107341091D01*
X126547727Y-107107702D01*
X126369098Y-106929073D01*
X126135709Y-106832400D01*
X125883091Y-106832400D01*
X125649702Y-106929073D01*
X125471073Y-107107702D01*
X125374400Y-107341091D01*
X103380539Y-107341091D01*
X103282031Y-107275270D01*
X103255537Y-107270000D01*
X103282031Y-107264730D01*
X103631333Y-107031333D01*
X103864730Y-106682031D01*
X103946688Y-106270000D01*
X103864730Y-105857969D01*
X103631333Y-105508667D01*
X103282031Y-105275270D01*
X103255537Y-105270000D01*
X103282031Y-105264730D01*
X103595776Y-105055091D01*
X121843800Y-105055091D01*
X121843800Y-105307709D01*
X121940473Y-105541098D01*
X122119102Y-105719727D01*
X122352491Y-105816400D01*
X122605109Y-105816400D01*
X122838498Y-105719727D01*
X123017127Y-105541098D01*
X123021118Y-105531462D01*
X123200889Y-105531462D01*
X123434278Y-105434789D01*
X123612907Y-105256160D01*
X123709580Y-105022771D01*
X123709580Y-104852963D01*
X124382728Y-104852963D01*
X124382728Y-105105581D01*
X124479401Y-105338970D01*
X124658030Y-105517599D01*
X124891419Y-105614272D01*
X125144037Y-105614272D01*
X125377426Y-105517599D01*
X125556055Y-105338970D01*
X125652728Y-105105581D01*
X125652728Y-104852963D01*
X125556055Y-104619574D01*
X125377426Y-104440945D01*
X125144037Y-104344272D01*
X124891419Y-104344272D01*
X124658030Y-104440945D01*
X124479401Y-104619574D01*
X124382728Y-104852963D01*
X123709580Y-104852963D01*
X123709580Y-104770153D01*
X123612907Y-104536764D01*
X123525084Y-104448941D01*
X123601327Y-104372698D01*
X123698000Y-104139309D01*
X123698000Y-103886691D01*
X123601327Y-103653302D01*
X123453025Y-103505000D01*
X123601327Y-103356698D01*
X123668976Y-103193379D01*
X125555398Y-103193379D01*
X125555398Y-103445997D01*
X125652071Y-103679386D01*
X125738263Y-103765578D01*
X125652071Y-103851770D01*
X125555398Y-104085159D01*
X125555398Y-104337777D01*
X125652071Y-104571166D01*
X125830700Y-104749795D01*
X125919905Y-104786745D01*
X125882400Y-104877291D01*
X125882400Y-105129909D01*
X125979073Y-105363298D01*
X126157702Y-105541927D01*
X126391091Y-105638600D01*
X126643709Y-105638600D01*
X126877098Y-105541927D01*
X127055727Y-105363298D01*
X127096668Y-105264458D01*
X127187916Y-105264458D01*
X127421305Y-105167785D01*
X127599934Y-104989156D01*
X127609600Y-104965820D01*
X127609600Y-105155309D01*
X127706273Y-105388698D01*
X127884902Y-105567327D01*
X128118291Y-105664000D01*
X128370909Y-105664000D01*
X128604298Y-105567327D01*
X128782927Y-105388698D01*
X128879600Y-105155309D01*
X128879600Y-104902691D01*
X128849371Y-104829711D01*
X128889395Y-104846290D01*
X128965866Y-104846290D01*
X129043109Y-105032770D01*
X129221738Y-105211399D01*
X129391875Y-105281872D01*
X129391875Y-105286954D01*
X129488548Y-105520343D01*
X129667177Y-105698972D01*
X129900566Y-105795645D01*
X130153184Y-105795645D01*
X130386573Y-105698972D01*
X130565202Y-105520343D01*
X130661875Y-105286954D01*
X130661875Y-105113641D01*
X131947800Y-105113641D01*
X131947800Y-105366259D01*
X132044473Y-105599648D01*
X132223102Y-105778277D01*
X132456491Y-105874950D01*
X132709109Y-105874950D01*
X132942498Y-105778277D01*
X133121127Y-105599648D01*
X133195011Y-105421276D01*
X133239103Y-105465368D01*
X133472492Y-105562041D01*
X133725110Y-105562041D01*
X133958499Y-105465368D01*
X134080009Y-105343858D01*
X134239691Y-105410000D01*
X134483975Y-105410000D01*
X134641302Y-105567327D01*
X134874691Y-105664000D01*
X135127309Y-105664000D01*
X135360698Y-105567327D01*
X135539327Y-105388698D01*
X135636000Y-105155309D01*
X135636000Y-104902691D01*
X135539327Y-104669302D01*
X135360698Y-104490673D01*
X135127309Y-104394000D01*
X134883025Y-104394000D01*
X134725698Y-104236673D01*
X134492309Y-104140000D01*
X134239691Y-104140000D01*
X134006302Y-104236673D01*
X133884792Y-104358183D01*
X133725110Y-104292041D01*
X133561481Y-104292041D01*
X133507327Y-104161302D01*
X133328698Y-103982673D01*
X133095309Y-103886000D01*
X132842691Y-103886000D01*
X132609302Y-103982673D01*
X132430673Y-104161302D01*
X132334000Y-104394691D01*
X132334000Y-104647309D01*
X132336962Y-104654460D01*
X132223102Y-104701623D01*
X132044473Y-104880252D01*
X131947800Y-105113641D01*
X130661875Y-105113641D01*
X130661875Y-105034336D01*
X130565202Y-104800947D01*
X130386573Y-104622318D01*
X130216436Y-104551845D01*
X130216436Y-104546763D01*
X130119763Y-104313374D01*
X129941134Y-104134745D01*
X129707745Y-104038072D01*
X129631274Y-104038072D01*
X129554031Y-103851592D01*
X129467839Y-103765400D01*
X129554031Y-103679208D01*
X129650704Y-103445819D01*
X129650704Y-103193201D01*
X129554031Y-102959812D01*
X129375402Y-102781183D01*
X129142013Y-102684510D01*
X128889395Y-102684510D01*
X128656006Y-102781183D01*
X128477377Y-102959812D01*
X128380704Y-103193201D01*
X128380704Y-103445819D01*
X128477377Y-103679208D01*
X128563569Y-103765400D01*
X128477377Y-103851592D01*
X128380704Y-104084981D01*
X128380704Y-104337599D01*
X128410933Y-104410579D01*
X128370909Y-104394000D01*
X128118291Y-104394000D01*
X127884902Y-104490673D01*
X127706273Y-104669302D01*
X127696607Y-104692638D01*
X127696607Y-104503149D01*
X127599934Y-104269760D01*
X127421305Y-104091131D01*
X127187916Y-103994458D01*
X126935298Y-103994458D01*
X126809425Y-104046596D01*
X126728725Y-103851770D01*
X126642533Y-103765578D01*
X126728725Y-103679386D01*
X126825398Y-103445997D01*
X126825398Y-103193379D01*
X126728725Y-102959990D01*
X126550096Y-102781361D01*
X126316707Y-102684688D01*
X126064089Y-102684688D01*
X125830700Y-102781361D01*
X125652071Y-102959990D01*
X125555398Y-103193379D01*
X123668976Y-103193379D01*
X123698000Y-103123309D01*
X123698000Y-102870691D01*
X123601327Y-102637302D01*
X123422698Y-102458673D01*
X123189309Y-102362000D01*
X122936691Y-102362000D01*
X122703302Y-102458673D01*
X122524673Y-102637302D01*
X122428000Y-102870691D01*
X122428000Y-103123309D01*
X122524673Y-103356698D01*
X122672975Y-103505000D01*
X122524673Y-103653302D01*
X122428000Y-103886691D01*
X122428000Y-104139309D01*
X122524673Y-104372698D01*
X122612496Y-104460521D01*
X122536253Y-104536764D01*
X122532262Y-104546400D01*
X122352491Y-104546400D01*
X122119102Y-104643073D01*
X121940473Y-104821702D01*
X121843800Y-105055091D01*
X103595776Y-105055091D01*
X103631333Y-105031333D01*
X103864730Y-104682031D01*
X103946688Y-104270000D01*
X103864730Y-103857969D01*
X103631333Y-103508667D01*
X103282031Y-103275270D01*
X103255537Y-103270000D01*
X103282031Y-103264730D01*
X103631333Y-103031333D01*
X103864730Y-102682031D01*
X103946688Y-102270000D01*
X103864730Y-101857969D01*
X103631333Y-101508667D01*
X103282031Y-101275270D01*
X103255537Y-101270000D01*
X103282031Y-101264730D01*
X103536710Y-101094558D01*
X115781200Y-101094558D01*
X115781200Y-101445042D01*
X115915324Y-101768847D01*
X116163153Y-102016676D01*
X116486958Y-102150800D01*
X116837442Y-102150800D01*
X117161247Y-102016676D01*
X117409076Y-101768847D01*
X117446391Y-101678758D01*
X135110600Y-101678758D01*
X135110600Y-102029242D01*
X135244724Y-102353047D01*
X135492553Y-102600876D01*
X135816358Y-102735000D01*
X136166842Y-102735000D01*
X136490647Y-102600876D01*
X136738476Y-102353047D01*
X136872600Y-102029242D01*
X136872600Y-101678758D01*
X136738476Y-101354953D01*
X136490647Y-101107124D01*
X136166842Y-100973000D01*
X135816358Y-100973000D01*
X135492553Y-101107124D01*
X135244724Y-101354953D01*
X135110600Y-101678758D01*
X117446391Y-101678758D01*
X117543200Y-101445042D01*
X117543200Y-101094558D01*
X117409076Y-100770753D01*
X117161247Y-100522924D01*
X116837442Y-100388800D01*
X116486958Y-100388800D01*
X116163153Y-100522924D01*
X115915324Y-100770753D01*
X115781200Y-101094558D01*
X103536710Y-101094558D01*
X103631333Y-101031333D01*
X103864730Y-100682031D01*
X103946688Y-100270000D01*
X103864730Y-99857969D01*
X103671440Y-99568691D01*
X117348000Y-99568691D01*
X117348000Y-99821309D01*
X117444673Y-100054698D01*
X117623302Y-100233327D01*
X117856691Y-100330000D01*
X118109309Y-100330000D01*
X118342698Y-100233327D01*
X118521327Y-100054698D01*
X118617427Y-99822691D01*
X119126000Y-99822691D01*
X119126000Y-100075309D01*
X119222673Y-100308698D01*
X119401302Y-100487327D01*
X119634691Y-100584000D01*
X119887309Y-100584000D01*
X120120698Y-100487327D01*
X120299327Y-100308698D01*
X120396000Y-100075309D01*
X120396000Y-99822691D01*
X120299327Y-99589302D01*
X120120698Y-99410673D01*
X119887309Y-99314000D01*
X119634691Y-99314000D01*
X119401302Y-99410673D01*
X119222673Y-99589302D01*
X119126000Y-99822691D01*
X118617427Y-99822691D01*
X118618000Y-99821309D01*
X118618000Y-99568691D01*
X118521327Y-99335302D01*
X118342698Y-99156673D01*
X118109309Y-99060000D01*
X117856691Y-99060000D01*
X117623302Y-99156673D01*
X117444673Y-99335302D01*
X117348000Y-99568691D01*
X103671440Y-99568691D01*
X103631333Y-99508667D01*
X103282031Y-99275270D01*
X103255537Y-99270000D01*
X103282031Y-99264730D01*
X103631333Y-99031333D01*
X103864730Y-98682031D01*
X103946688Y-98270000D01*
X103887799Y-97973940D01*
X136039696Y-97973940D01*
X136039696Y-98226558D01*
X136136369Y-98459947D01*
X136314998Y-98638576D01*
X136548387Y-98735249D01*
X136801005Y-98735249D01*
X137034394Y-98638576D01*
X137213023Y-98459947D01*
X137309696Y-98226558D01*
X137309696Y-97973940D01*
X137213023Y-97740551D01*
X137034394Y-97561922D01*
X136801005Y-97465249D01*
X136548387Y-97465249D01*
X136314998Y-97561922D01*
X136136369Y-97740551D01*
X136039696Y-97973940D01*
X103887799Y-97973940D01*
X103864730Y-97857969D01*
X103631333Y-97508667D01*
X103282031Y-97275270D01*
X103255537Y-97270000D01*
X103282031Y-97264730D01*
X103290151Y-97259304D01*
X106374301Y-97259304D01*
X106411448Y-97474417D01*
X106839772Y-97617312D01*
X107290175Y-97585417D01*
X107558152Y-97474417D01*
X107595299Y-97259304D01*
X106984800Y-96648805D01*
X106374301Y-97259304D01*
X103290151Y-97259304D01*
X103631333Y-97031333D01*
X103864730Y-96682031D01*
X103935912Y-96324172D01*
X105836688Y-96324172D01*
X105868583Y-96774575D01*
X105979583Y-97042552D01*
X106194696Y-97079699D01*
X106805195Y-96469200D01*
X107164405Y-96469200D01*
X107774904Y-97079699D01*
X107990017Y-97042552D01*
X108132912Y-96614228D01*
X108130272Y-96576940D01*
X136039696Y-96576940D01*
X136039696Y-96829558D01*
X136136369Y-97062947D01*
X136314998Y-97241576D01*
X136548387Y-97338249D01*
X136801005Y-97338249D01*
X137034394Y-97241576D01*
X137213023Y-97062947D01*
X137309696Y-96829558D01*
X137309696Y-96576940D01*
X137213023Y-96343551D01*
X137034394Y-96164922D01*
X136801005Y-96068249D01*
X136548387Y-96068249D01*
X136314998Y-96164922D01*
X136136369Y-96343551D01*
X136039696Y-96576940D01*
X108130272Y-96576940D01*
X108101017Y-96163825D01*
X107990017Y-95895848D01*
X107774904Y-95858701D01*
X107164405Y-96469200D01*
X106805195Y-96469200D01*
X106194696Y-95858701D01*
X105979583Y-95895848D01*
X105836688Y-96324172D01*
X103935912Y-96324172D01*
X103946688Y-96270000D01*
X103864730Y-95857969D01*
X103745211Y-95679096D01*
X106374301Y-95679096D01*
X106984800Y-96289595D01*
X107595299Y-95679096D01*
X107558152Y-95463983D01*
X107129828Y-95321088D01*
X106679425Y-95352983D01*
X106411448Y-95463983D01*
X106374301Y-95679096D01*
X103745211Y-95679096D01*
X103631333Y-95508667D01*
X103282031Y-95275270D01*
X103255537Y-95270000D01*
X103282031Y-95264730D01*
X103631333Y-95031333D01*
X103739339Y-94869691D01*
X108585000Y-94869691D01*
X108585000Y-95122309D01*
X108681673Y-95355698D01*
X108860302Y-95534327D01*
X109093691Y-95631000D01*
X109346309Y-95631000D01*
X109579698Y-95534327D01*
X109609334Y-95504691D01*
X115443000Y-95504691D01*
X115443000Y-95757309D01*
X115539673Y-95990698D01*
X115718302Y-96169327D01*
X115951691Y-96266000D01*
X116204309Y-96266000D01*
X116437698Y-96169327D01*
X116616327Y-95990698D01*
X116713000Y-95757309D01*
X116713000Y-95504691D01*
X116616327Y-95271302D01*
X116437698Y-95092673D01*
X116204309Y-94996000D01*
X115951691Y-94996000D01*
X115718302Y-95092673D01*
X115539673Y-95271302D01*
X115443000Y-95504691D01*
X109609334Y-95504691D01*
X109758327Y-95355698D01*
X109855000Y-95122309D01*
X109855000Y-94869691D01*
X109758327Y-94636302D01*
X109579698Y-94457673D01*
X109346309Y-94361000D01*
X109093691Y-94361000D01*
X108860302Y-94457673D01*
X108681673Y-94636302D01*
X108585000Y-94869691D01*
X103739339Y-94869691D01*
X103864730Y-94682031D01*
X103946688Y-94270000D01*
X103939665Y-94234691D01*
X117068600Y-94234691D01*
X117068600Y-94487309D01*
X117165273Y-94720698D01*
X117343902Y-94899327D01*
X117577291Y-94996000D01*
X117829909Y-94996000D01*
X118063298Y-94899327D01*
X118241927Y-94720698D01*
X118338600Y-94487309D01*
X118338600Y-94234691D01*
X118241927Y-94001302D01*
X118063298Y-93822673D01*
X117829909Y-93726000D01*
X117577291Y-93726000D01*
X117343902Y-93822673D01*
X117165273Y-94001302D01*
X117068600Y-94234691D01*
X103939665Y-94234691D01*
X103864730Y-93857969D01*
X103631333Y-93508667D01*
X103475350Y-93404442D01*
X103659540Y-93315349D01*
X103999478Y-92933633D01*
X104091042Y-92712558D01*
X106230800Y-92712558D01*
X106230800Y-93063042D01*
X106364924Y-93386847D01*
X106612753Y-93634676D01*
X106936558Y-93768800D01*
X107287042Y-93768800D01*
X107610847Y-93634676D01*
X107858676Y-93386847D01*
X107992800Y-93063042D01*
X107992800Y-92712558D01*
X107858676Y-92388753D01*
X107610847Y-92140924D01*
X107287042Y-92006800D01*
X106936558Y-92006800D01*
X106612753Y-92140924D01*
X106364924Y-92388753D01*
X106230800Y-92712558D01*
X104091042Y-92712558D01*
X104137910Y-92599400D01*
X104014224Y-92397000D01*
X102997000Y-92397000D01*
X102997000Y-92417000D01*
X102743000Y-92417000D01*
X102743000Y-92397000D01*
X101272789Y-92397000D01*
X101272649Y-92143000D01*
X102743000Y-92143000D01*
X102743000Y-92123000D01*
X102997000Y-92123000D01*
X102997000Y-92143000D01*
X104014224Y-92143000D01*
X104137910Y-91940600D01*
X103999478Y-91606367D01*
X103659540Y-91224651D01*
X103475350Y-91135558D01*
X103631333Y-91031333D01*
X103864730Y-90682031D01*
X103946688Y-90270000D01*
X103921564Y-90143691D01*
X105664000Y-90143691D01*
X105664000Y-90396309D01*
X105760673Y-90629698D01*
X105939302Y-90808327D01*
X106172691Y-90905000D01*
X106425309Y-90905000D01*
X106658698Y-90808327D01*
X106837327Y-90629698D01*
X106934000Y-90396309D01*
X106934000Y-90170691D01*
X133223000Y-90170691D01*
X133223000Y-90423309D01*
X133319673Y-90656698D01*
X133498302Y-90835327D01*
X133731691Y-90932000D01*
X133984309Y-90932000D01*
X134217698Y-90835327D01*
X134396327Y-90656698D01*
X134493000Y-90423309D01*
X134493000Y-90170691D01*
X134396327Y-89937302D01*
X134217698Y-89758673D01*
X133984309Y-89662000D01*
X133731691Y-89662000D01*
X133498302Y-89758673D01*
X133319673Y-89937302D01*
X133223000Y-90170691D01*
X106934000Y-90170691D01*
X106934000Y-90143691D01*
X106837327Y-89910302D01*
X106658698Y-89731673D01*
X106425309Y-89635000D01*
X106172691Y-89635000D01*
X105939302Y-89731673D01*
X105760673Y-89910302D01*
X105664000Y-90143691D01*
X103921564Y-90143691D01*
X103864730Y-89857969D01*
X103631333Y-89508667D01*
X103282031Y-89275270D01*
X102974006Y-89214000D01*
X102765994Y-89214000D01*
X102457969Y-89275270D01*
X102108667Y-89508667D01*
X101875270Y-89857969D01*
X101870000Y-89884463D01*
X101864730Y-89857969D01*
X101631333Y-89508667D01*
X101282031Y-89275270D01*
X101271064Y-89273089D01*
X101269624Y-86664624D01*
X103806536Y-86666024D01*
G04 #@! TD*
M02*
