G04 #@! TF.GenerationSoftware,KiCad,Pcbnew,5.0.2-bee76a0~70~ubuntu18.04.1*
G04 #@! TF.CreationDate,2019-11-19T20:55:50-08:00*
G04 #@! TF.ProjectId,A3P250_Dev_Board,41335032-3530-45f4-9465-765f426f6172,rev?*
G04 #@! TF.SameCoordinates,Original*
G04 #@! TF.FileFunction,Copper,L4,Bot*
G04 #@! TF.FilePolarity,Positive*
%FSLAX46Y46*%
G04 Gerber Fmt 4.6, Leading zero omitted, Abs format (unit mm)*
G04 Created by KiCad (PCBNEW 5.0.2-bee76a0~70~ubuntu18.04.1) date Tue 19 Nov 2019 08:55:50 PM PST*
%MOMM*%
%LPD*%
G01*
G04 APERTURE LIST*
G04 #@! TA.AperFunction,ComponentPad*
%ADD10O,1.350000X1.350000*%
G04 #@! TD*
G04 #@! TA.AperFunction,ComponentPad*
%ADD11R,1.350000X1.350000*%
G04 #@! TD*
G04 #@! TA.AperFunction,ComponentPad*
%ADD12C,1.000000*%
G04 #@! TD*
G04 #@! TA.AperFunction,ViaPad*
%ADD13C,0.508000*%
G04 #@! TD*
G04 #@! TA.AperFunction,Conductor*
%ADD14C,0.304800*%
G04 #@! TD*
G04 #@! TA.AperFunction,Conductor*
%ADD15C,0.152400*%
G04 #@! TD*
G04 #@! TA.AperFunction,Conductor*
%ADD16C,0.254000*%
G04 #@! TD*
G04 APERTURE END LIST*
D10*
G04 #@! TO.P,J3,20*
G04 #@! TO.N,Net-(J3-Pad20)*
X104870000Y-132270000D03*
G04 #@! TO.P,J3,19*
G04 #@! TO.N,Net-(J3-Pad19)*
X106870000Y-132270000D03*
G04 #@! TO.P,J3,18*
G04 #@! TO.N,Net-(J3-Pad18)*
X108870000Y-132270000D03*
G04 #@! TO.P,J3,17*
G04 #@! TO.N,Net-(J3-Pad17)*
X110870000Y-132270000D03*
G04 #@! TO.P,J3,16*
G04 #@! TO.N,Net-(J3-Pad16)*
X112870000Y-132270000D03*
G04 #@! TO.P,J3,15*
G04 #@! TO.N,Net-(J3-Pad15)*
X114870000Y-132270000D03*
G04 #@! TO.P,J3,14*
G04 #@! TO.N,Net-(J3-Pad14)*
X116870000Y-132270000D03*
G04 #@! TO.P,J3,13*
G04 #@! TO.N,Net-(J3-Pad13)*
X118870000Y-132270000D03*
G04 #@! TO.P,J3,12*
G04 #@! TO.N,Net-(J3-Pad12)*
X120870000Y-132270000D03*
G04 #@! TO.P,J3,11*
G04 #@! TO.N,Net-(J3-Pad11)*
X122870000Y-132270000D03*
G04 #@! TO.P,J3,10*
G04 #@! TO.N,Net-(J3-Pad10)*
X124870000Y-132270000D03*
G04 #@! TO.P,J3,9*
G04 #@! TO.N,Net-(C26-Pad1)*
X126870000Y-132270000D03*
G04 #@! TO.P,J3,8*
G04 #@! TO.N,Net-(J3-Pad8)*
X128870000Y-132270000D03*
G04 #@! TO.P,J3,7*
G04 #@! TO.N,Net-(J3-Pad7)*
X130870000Y-132270000D03*
G04 #@! TO.P,J3,6*
G04 #@! TO.N,Net-(J3-Pad6)*
X132870000Y-132270000D03*
G04 #@! TO.P,J3,5*
G04 #@! TO.N,Net-(J3-Pad5)*
X134870000Y-132270000D03*
G04 #@! TO.P,J3,4*
G04 #@! TO.N,Net-(J3-Pad4)*
X136870000Y-132270000D03*
G04 #@! TO.P,J3,3*
G04 #@! TO.N,Net-(J3-Pad3)*
X138870000Y-132270000D03*
G04 #@! TO.P,J3,2*
G04 #@! TO.N,TCK*
X140870000Y-132270000D03*
D11*
G04 #@! TO.P,J3,1*
G04 #@! TO.N,TDI*
X142870000Y-132270000D03*
G04 #@! TD*
G04 #@! TO.P,J2,1*
G04 #@! TO.N,Net-(J2-Pad1)*
X146870000Y-90270000D03*
D10*
G04 #@! TO.P,J2,2*
G04 #@! TO.N,Net-(J2-Pad2)*
X146870000Y-92270000D03*
G04 #@! TO.P,J2,3*
G04 #@! TO.N,Net-(J2-Pad3)*
X146870000Y-94270000D03*
G04 #@! TO.P,J2,4*
G04 #@! TO.N,Net-(J2-Pad4)*
X146870000Y-96270000D03*
G04 #@! TO.P,J2,5*
G04 #@! TO.N,Net-(J2-Pad5)*
X146870000Y-98270000D03*
G04 #@! TO.P,J2,6*
G04 #@! TO.N,Net-(C24-Pad1)*
X146870000Y-100270000D03*
G04 #@! TO.P,J2,7*
G04 #@! TO.N,Net-(J2-Pad7)*
X146870000Y-102270000D03*
G04 #@! TO.P,J2,8*
G04 #@! TO.N,Net-(J2-Pad8)*
X146870000Y-104270000D03*
G04 #@! TO.P,J2,9*
G04 #@! TO.N,Net-(J2-Pad9)*
X146870000Y-106270000D03*
G04 #@! TO.P,J2,10*
G04 #@! TO.N,Net-(J2-Pad10)*
X146870000Y-108270000D03*
G04 #@! TO.P,J2,11*
G04 #@! TO.N,Net-(J2-Pad11)*
X146870000Y-110270000D03*
G04 #@! TO.P,J2,12*
G04 #@! TO.N,Net-(J2-Pad12)*
X146870000Y-112270000D03*
G04 #@! TO.P,J2,13*
G04 #@! TO.N,Net-(J2-Pad13)*
X146870000Y-114270000D03*
G04 #@! TO.P,J2,14*
G04 #@! TO.N,Net-(J2-Pad14)*
X146870000Y-116270000D03*
G04 #@! TO.P,J2,15*
G04 #@! TO.N,Net-(J2-Pad15)*
X146870000Y-118270000D03*
G04 #@! TO.P,J2,16*
G04 #@! TO.N,VCCIB3*
X146870000Y-120270000D03*
G04 #@! TO.P,J2,17*
G04 #@! TO.N,TRST*
X146870000Y-122270000D03*
G04 #@! TO.P,J2,18*
G04 #@! TO.N,TDO*
X146870000Y-124270000D03*
G04 #@! TO.P,J2,19*
G04 #@! TO.N,VPUMP*
X146870000Y-126270000D03*
G04 #@! TO.P,J2,20*
G04 #@! TO.N,TMS*
X146870000Y-128270000D03*
G04 #@! TD*
G04 #@! TO.P,J1,20*
G04 #@! TO.N,Net-(J1-Pad20)*
X142870000Y-86270000D03*
G04 #@! TO.P,J1,19*
G04 #@! TO.N,Net-(J1-Pad19)*
X140870000Y-86270000D03*
G04 #@! TO.P,J1,18*
G04 #@! TO.N,Net-(J1-Pad18)*
X138870000Y-86270000D03*
G04 #@! TO.P,J1,17*
G04 #@! TO.N,Net-(J1-Pad17)*
X136870000Y-86270000D03*
G04 #@! TO.P,J1,16*
G04 #@! TO.N,Net-(J1-Pad16)*
X134870000Y-86270000D03*
G04 #@! TO.P,J1,15*
G04 #@! TO.N,Net-(J1-Pad15)*
X132870000Y-86270000D03*
G04 #@! TO.P,J1,14*
G04 #@! TO.N,Net-(J1-Pad14)*
X130870000Y-86270000D03*
G04 #@! TO.P,J1,13*
G04 #@! TO.N,Net-(J1-Pad13)*
X128870000Y-86270000D03*
G04 #@! TO.P,J1,12*
G04 #@! TO.N,Net-(J1-Pad12)*
X126870000Y-86270000D03*
G04 #@! TO.P,J1,11*
G04 #@! TO.N,Net-(J1-Pad11)*
X124870000Y-86270000D03*
G04 #@! TO.P,J1,10*
G04 #@! TO.N,Net-(J1-Pad10)*
X122870000Y-86270000D03*
G04 #@! TO.P,J1,9*
G04 #@! TO.N,Net-(C22-Pad1)*
X120870000Y-86270000D03*
G04 #@! TO.P,J1,8*
G04 #@! TO.N,Net-(J1-Pad8)*
X118870000Y-86270000D03*
G04 #@! TO.P,J1,7*
G04 #@! TO.N,Net-(J1-Pad7)*
X116870000Y-86270000D03*
G04 #@! TO.P,J1,6*
G04 #@! TO.N,Net-(J1-Pad6)*
X114870000Y-86270000D03*
G04 #@! TO.P,J1,5*
G04 #@! TO.N,Net-(J1-Pad5)*
X112870000Y-86270000D03*
G04 #@! TO.P,J1,4*
G04 #@! TO.N,Net-(J1-Pad4)*
X110870000Y-86270000D03*
G04 #@! TO.P,J1,3*
G04 #@! TO.N,Net-(J1-Pad3)*
X108870000Y-86270000D03*
G04 #@! TO.P,J1,2*
G04 #@! TO.N,Net-(J1-Pad2)*
X106870000Y-86270000D03*
D11*
G04 #@! TO.P,J1,1*
G04 #@! TO.N,Net-(J1-Pad1)*
X104870000Y-86270000D03*
G04 #@! TD*
G04 #@! TO.P,J4,1*
G04 #@! TO.N,Net-(J4-Pad1)*
X100870000Y-128270000D03*
D10*
G04 #@! TO.P,J4,2*
G04 #@! TO.N,Net-(J4-Pad2)*
X100870000Y-126270000D03*
G04 #@! TO.P,J4,3*
G04 #@! TO.N,Net-(J4-Pad3)*
X100870000Y-124270000D03*
G04 #@! TO.P,J4,4*
G04 #@! TO.N,Net-(J4-Pad4)*
X100870000Y-122270000D03*
G04 #@! TO.P,J4,5*
G04 #@! TO.N,Net-(J4-Pad5)*
X100870000Y-120270000D03*
G04 #@! TO.P,J4,6*
G04 #@! TO.N,VCCIB3*
X100870000Y-118270000D03*
G04 #@! TO.P,J4,7*
G04 #@! TO.N,Net-(J4-Pad7)*
X100870000Y-116270000D03*
G04 #@! TO.P,J4,8*
G04 #@! TO.N,Net-(J4-Pad8)*
X100870000Y-114270000D03*
G04 #@! TO.P,J4,9*
G04 #@! TO.N,Net-(J4-Pad9)*
X100870000Y-112270000D03*
G04 #@! TO.P,J4,10*
G04 #@! TO.N,Net-(J4-Pad10)*
X100870000Y-110270000D03*
G04 #@! TO.P,J4,11*
G04 #@! TO.N,Net-(J4-Pad11)*
X100870000Y-108270000D03*
G04 #@! TO.P,J4,12*
G04 #@! TO.N,Net-(D1-Pad2)*
X100870000Y-106270000D03*
G04 #@! TO.P,J4,13*
G04 #@! TO.N,Net-(J4-Pad13)*
X100870000Y-104270000D03*
G04 #@! TO.P,J4,14*
G04 #@! TO.N,Net-(J4-Pad14)*
X100870000Y-102270000D03*
G04 #@! TO.P,J4,15*
G04 #@! TO.N,Net-(J4-Pad15)*
X100870000Y-100270000D03*
G04 #@! TO.P,J4,16*
G04 #@! TO.N,Net-(J4-Pad16)*
X100870000Y-98270000D03*
G04 #@! TO.P,J4,17*
G04 #@! TO.N,Net-(J4-Pad17)*
X100870000Y-96270000D03*
G04 #@! TO.P,J4,18*
G04 #@! TO.N,GAA_IO00RSB0*
X100870000Y-94270000D03*
G04 #@! TO.P,J4,19*
G04 #@! TO.N,GND*
X100870000Y-92270000D03*
G04 #@! TO.P,J4,20*
G04 #@! TO.N,+5V*
X100870000Y-90270000D03*
G04 #@! TD*
G04 #@! TO.P,J4,20*
G04 #@! TO.N,+5V*
X102870000Y-90270000D03*
G04 #@! TO.P,J4,19*
G04 #@! TO.N,GND*
X102870000Y-92270000D03*
G04 #@! TO.P,J4,18*
G04 #@! TO.N,GAA_IO00RSB0*
X102870000Y-94270000D03*
G04 #@! TO.P,J4,17*
G04 #@! TO.N,Net-(J4-Pad17)*
X102870000Y-96270000D03*
G04 #@! TO.P,J4,16*
G04 #@! TO.N,Net-(J4-Pad16)*
X102870000Y-98270000D03*
G04 #@! TO.P,J4,15*
G04 #@! TO.N,Net-(J4-Pad15)*
X102870000Y-100270000D03*
G04 #@! TO.P,J4,14*
G04 #@! TO.N,Net-(J4-Pad14)*
X102870000Y-102270000D03*
G04 #@! TO.P,J4,13*
G04 #@! TO.N,Net-(J4-Pad13)*
X102870000Y-104270000D03*
G04 #@! TO.P,J4,12*
G04 #@! TO.N,Net-(D1-Pad2)*
X102870000Y-106270000D03*
G04 #@! TO.P,J4,11*
G04 #@! TO.N,Net-(J4-Pad11)*
X102870000Y-108270000D03*
G04 #@! TO.P,J4,10*
G04 #@! TO.N,Net-(J4-Pad10)*
X102870000Y-110270000D03*
G04 #@! TO.P,J4,9*
G04 #@! TO.N,Net-(J4-Pad9)*
X102870000Y-112270000D03*
G04 #@! TO.P,J4,8*
G04 #@! TO.N,Net-(J4-Pad8)*
X102870000Y-114270000D03*
G04 #@! TO.P,J4,7*
G04 #@! TO.N,Net-(J4-Pad7)*
X102870000Y-116270000D03*
G04 #@! TO.P,J4,6*
G04 #@! TO.N,VCCIB3*
X102870000Y-118270000D03*
G04 #@! TO.P,J4,5*
G04 #@! TO.N,Net-(J4-Pad5)*
X102870000Y-120270000D03*
G04 #@! TO.P,J4,4*
G04 #@! TO.N,Net-(J4-Pad4)*
X102870000Y-122270000D03*
G04 #@! TO.P,J4,3*
G04 #@! TO.N,Net-(J4-Pad3)*
X102870000Y-124270000D03*
G04 #@! TO.P,J4,2*
G04 #@! TO.N,Net-(J4-Pad2)*
X102870000Y-126270000D03*
D11*
G04 #@! TO.P,J4,1*
G04 #@! TO.N,Net-(J4-Pad1)*
X102870000Y-128270000D03*
G04 #@! TD*
G04 #@! TO.P,J3,1*
G04 #@! TO.N,TDI*
X142870000Y-130270000D03*
D10*
G04 #@! TO.P,J3,2*
G04 #@! TO.N,TCK*
X140870000Y-130270000D03*
G04 #@! TO.P,J3,3*
G04 #@! TO.N,Net-(J3-Pad3)*
X138870000Y-130270000D03*
G04 #@! TO.P,J3,4*
G04 #@! TO.N,Net-(J3-Pad4)*
X136870000Y-130270000D03*
G04 #@! TO.P,J3,5*
G04 #@! TO.N,Net-(J3-Pad5)*
X134870000Y-130270000D03*
G04 #@! TO.P,J3,6*
G04 #@! TO.N,Net-(J3-Pad6)*
X132870000Y-130270000D03*
G04 #@! TO.P,J3,7*
G04 #@! TO.N,Net-(J3-Pad7)*
X130870000Y-130270000D03*
G04 #@! TO.P,J3,8*
G04 #@! TO.N,Net-(J3-Pad8)*
X128870000Y-130270000D03*
G04 #@! TO.P,J3,9*
G04 #@! TO.N,Net-(C26-Pad1)*
X126870000Y-130270000D03*
G04 #@! TO.P,J3,10*
G04 #@! TO.N,Net-(J3-Pad10)*
X124870000Y-130270000D03*
G04 #@! TO.P,J3,11*
G04 #@! TO.N,Net-(J3-Pad11)*
X122870000Y-130270000D03*
G04 #@! TO.P,J3,12*
G04 #@! TO.N,Net-(J3-Pad12)*
X120870000Y-130270000D03*
G04 #@! TO.P,J3,13*
G04 #@! TO.N,Net-(J3-Pad13)*
X118870000Y-130270000D03*
G04 #@! TO.P,J3,14*
G04 #@! TO.N,Net-(J3-Pad14)*
X116870000Y-130270000D03*
G04 #@! TO.P,J3,15*
G04 #@! TO.N,Net-(J3-Pad15)*
X114870000Y-130270000D03*
G04 #@! TO.P,J3,16*
G04 #@! TO.N,Net-(J3-Pad16)*
X112870000Y-130270000D03*
G04 #@! TO.P,J3,17*
G04 #@! TO.N,Net-(J3-Pad17)*
X110870000Y-130270000D03*
G04 #@! TO.P,J3,18*
G04 #@! TO.N,Net-(J3-Pad18)*
X108870000Y-130270000D03*
G04 #@! TO.P,J3,19*
G04 #@! TO.N,Net-(J3-Pad19)*
X106870000Y-130270000D03*
G04 #@! TO.P,J3,20*
G04 #@! TO.N,Net-(J3-Pad20)*
X104870000Y-130270000D03*
G04 #@! TD*
D11*
G04 #@! TO.P,J1,1*
G04 #@! TO.N,Net-(J1-Pad1)*
X104870000Y-88270000D03*
D10*
G04 #@! TO.P,J1,2*
G04 #@! TO.N,Net-(J1-Pad2)*
X106870000Y-88270000D03*
G04 #@! TO.P,J1,3*
G04 #@! TO.N,Net-(J1-Pad3)*
X108870000Y-88270000D03*
G04 #@! TO.P,J1,4*
G04 #@! TO.N,Net-(J1-Pad4)*
X110870000Y-88270000D03*
G04 #@! TO.P,J1,5*
G04 #@! TO.N,Net-(J1-Pad5)*
X112870000Y-88270000D03*
G04 #@! TO.P,J1,6*
G04 #@! TO.N,Net-(J1-Pad6)*
X114870000Y-88270000D03*
G04 #@! TO.P,J1,7*
G04 #@! TO.N,Net-(J1-Pad7)*
X116870000Y-88270000D03*
G04 #@! TO.P,J1,8*
G04 #@! TO.N,Net-(J1-Pad8)*
X118870000Y-88270000D03*
G04 #@! TO.P,J1,9*
G04 #@! TO.N,Net-(C22-Pad1)*
X120870000Y-88270000D03*
G04 #@! TO.P,J1,10*
G04 #@! TO.N,Net-(J1-Pad10)*
X122870000Y-88270000D03*
G04 #@! TO.P,J1,11*
G04 #@! TO.N,Net-(J1-Pad11)*
X124870000Y-88270000D03*
G04 #@! TO.P,J1,12*
G04 #@! TO.N,Net-(J1-Pad12)*
X126870000Y-88270000D03*
G04 #@! TO.P,J1,13*
G04 #@! TO.N,Net-(J1-Pad13)*
X128870000Y-88270000D03*
G04 #@! TO.P,J1,14*
G04 #@! TO.N,Net-(J1-Pad14)*
X130870000Y-88270000D03*
G04 #@! TO.P,J1,15*
G04 #@! TO.N,Net-(J1-Pad15)*
X132870000Y-88270000D03*
G04 #@! TO.P,J1,16*
G04 #@! TO.N,Net-(J1-Pad16)*
X134870000Y-88270000D03*
G04 #@! TO.P,J1,17*
G04 #@! TO.N,Net-(J1-Pad17)*
X136870000Y-88270000D03*
G04 #@! TO.P,J1,18*
G04 #@! TO.N,Net-(J1-Pad18)*
X138870000Y-88270000D03*
G04 #@! TO.P,J1,19*
G04 #@! TO.N,Net-(J1-Pad19)*
X140870000Y-88270000D03*
G04 #@! TO.P,J1,20*
G04 #@! TO.N,Net-(J1-Pad20)*
X142870000Y-88270000D03*
G04 #@! TD*
G04 #@! TO.P,J2,20*
G04 #@! TO.N,TMS*
X144870000Y-128270000D03*
G04 #@! TO.P,J2,19*
G04 #@! TO.N,VPUMP*
X144870000Y-126270000D03*
G04 #@! TO.P,J2,18*
G04 #@! TO.N,TDO*
X144870000Y-124270000D03*
G04 #@! TO.P,J2,17*
G04 #@! TO.N,TRST*
X144870000Y-122270000D03*
G04 #@! TO.P,J2,16*
G04 #@! TO.N,VCCIB3*
X144870000Y-120270000D03*
G04 #@! TO.P,J2,15*
G04 #@! TO.N,Net-(J2-Pad15)*
X144870000Y-118270000D03*
G04 #@! TO.P,J2,14*
G04 #@! TO.N,Net-(J2-Pad14)*
X144870000Y-116270000D03*
G04 #@! TO.P,J2,13*
G04 #@! TO.N,Net-(J2-Pad13)*
X144870000Y-114270000D03*
G04 #@! TO.P,J2,12*
G04 #@! TO.N,Net-(J2-Pad12)*
X144870000Y-112270000D03*
G04 #@! TO.P,J2,11*
G04 #@! TO.N,Net-(J2-Pad11)*
X144870000Y-110270000D03*
G04 #@! TO.P,J2,10*
G04 #@! TO.N,Net-(J2-Pad10)*
X144870000Y-108270000D03*
G04 #@! TO.P,J2,9*
G04 #@! TO.N,Net-(J2-Pad9)*
X144870000Y-106270000D03*
G04 #@! TO.P,J2,8*
G04 #@! TO.N,Net-(J2-Pad8)*
X144870000Y-104270000D03*
G04 #@! TO.P,J2,7*
G04 #@! TO.N,Net-(J2-Pad7)*
X144870000Y-102270000D03*
G04 #@! TO.P,J2,6*
G04 #@! TO.N,Net-(C24-Pad1)*
X144870000Y-100270000D03*
G04 #@! TO.P,J2,5*
G04 #@! TO.N,Net-(J2-Pad5)*
X144870000Y-98270000D03*
G04 #@! TO.P,J2,4*
G04 #@! TO.N,Net-(J2-Pad4)*
X144870000Y-96270000D03*
G04 #@! TO.P,J2,3*
G04 #@! TO.N,Net-(J2-Pad3)*
X144870000Y-94270000D03*
G04 #@! TO.P,J2,2*
G04 #@! TO.N,Net-(J2-Pad2)*
X144870000Y-92270000D03*
D11*
G04 #@! TO.P,J2,1*
G04 #@! TO.N,Net-(J2-Pad1)*
X144870000Y-90270000D03*
G04 #@! TD*
D12*
G04 #@! TO.P,VIO,1*
G04 #@! TO.N,VCCIB3*
X135991600Y-101854000D03*
G04 #@! TD*
G04 #@! TO.P,CLK,1*
G04 #@! TO.N,Net-(J4-Pad11)*
X112293400Y-111582200D03*
G04 #@! TD*
G04 #@! TO.P,+5V,1*
G04 #@! TO.N,+5V*
X107111800Y-92887800D03*
G04 #@! TD*
G04 #@! TO.P,GND,1*
G04 #@! TO.N,GND*
X106984800Y-96469200D03*
G04 #@! TD*
G04 #@! TO.P,VCore,1*
G04 #@! TO.N,Net-(C10-Pad1)*
X110744000Y-121793000D03*
G04 #@! TD*
G04 #@! TO.P,VPLL,1*
G04 #@! TO.N,Net-(C11-Pad1)*
X116662200Y-101269800D03*
G04 #@! TD*
D13*
G04 #@! TO.N,GND*
X112522000Y-95845000D03*
X112562000Y-96647000D03*
X111887000Y-97790000D03*
X112903000Y-101092000D03*
X114173000Y-94361000D03*
X115824000Y-94996000D03*
X113665000Y-98171000D03*
X114388948Y-99860668D03*
X117094000Y-96266000D03*
X110295968Y-100948768D03*
X114427000Y-102997000D03*
X135531696Y-96703249D03*
X139722696Y-97592249D03*
X139595696Y-94036249D03*
X117983000Y-101473000D03*
X119761000Y-101473000D03*
X104140000Y-92329000D03*
X105156000Y-92329000D03*
X112776000Y-108077000D03*
X120396000Y-106426000D03*
X121869200Y-111379000D03*
X119373614Y-107840729D03*
X123063000Y-107442000D03*
X135255000Y-112141000D03*
X135001000Y-119888000D03*
G04 #@! TO.N,Net-(C26-Pad1)*
X134747000Y-123190000D03*
G04 #@! TO.N,GND*
X132461000Y-120904000D03*
X138963400Y-120497600D03*
X139065000Y-119380000D03*
X117201488Y-106726189D03*
G04 #@! TO.N,Net-(C11-Pad1)*
X118516400Y-113893600D03*
G04 #@! TO.N,Net-(C10-Pad1)*
X116078000Y-95631000D03*
X109220000Y-94996000D03*
G04 #@! TO.N,VCCIB3*
X136674696Y-96703249D03*
X136674696Y-98100249D03*
G04 #@! TO.N,Net-(J1-Pad1)*
X123063000Y-104013000D03*
G04 #@! TO.N,Net-(J1-Pad2)*
X123063000Y-102997000D03*
G04 #@! TO.N,Net-(J1-Pad16)*
X132582800Y-105239950D03*
G04 #@! TO.N,Net-(J1-Pad17)*
X132969000Y-104521000D03*
G04 #@! TO.N,Net-(J1-Pad18)*
X133598801Y-104927041D03*
G04 #@! TO.N,Net-(J1-Pad19)*
X134366000Y-104775000D03*
G04 #@! TO.N,Net-(J1-Pad20)*
X135001000Y-105029000D03*
G04 #@! TO.N,TMS*
X134035800Y-120980200D03*
G04 #@! TO.N,Net-(J3-Pad13)*
X126082800Y-123190000D03*
G04 #@! TO.N,+5V*
X133858000Y-90297000D03*
X106299000Y-90270000D03*
G04 #@! TO.N,Net-(J4-Pad16)*
X117465485Y-108658226D03*
G04 #@! TO.N,Net-(J4-Pad15)*
X119380000Y-110109000D03*
G04 #@! TO.N,Net-(J4-Pad11)*
X122174000Y-112649000D03*
G04 #@! TO.N,Net-(C11-Pad1)*
X117983000Y-99695000D03*
G04 #@! TO.N,GND*
X116558851Y-113893600D03*
X116027200Y-113893600D03*
X129015704Y-101722090D03*
X129015704Y-102253741D03*
X140978881Y-109900025D03*
X140447230Y-109900025D03*
X140975919Y-112672330D03*
X126190398Y-101722268D03*
X140444268Y-112672330D03*
X126190398Y-102253919D03*
X126061371Y-126618619D03*
X116103400Y-116687600D03*
X129001848Y-126635420D03*
X126061371Y-126086968D03*
X116635051Y-116687600D03*
X129001848Y-126103769D03*
X115951000Y-119354600D03*
X116482651Y-119354600D03*
G04 #@! TO.N,Net-(C10-Pad1)*
X117548420Y-119354600D03*
G04 #@! TO.N,Net-(C11-Pad1)*
X117624620Y-113893600D03*
G04 #@! TO.N,Net-(C22-Pad1)*
X129015704Y-104211290D03*
X129015704Y-103319510D03*
G04 #@! TO.N,Net-(C10-Pad1)*
X138489681Y-109900025D03*
X139381461Y-109900025D03*
G04 #@! TO.N,Net-(C24-Pad1)*
X138486719Y-112672330D03*
G04 #@! TO.N,Net-(C10-Pad1)*
X126190398Y-104211468D03*
X126190398Y-103319688D03*
X126061371Y-124129419D03*
X126061371Y-125021199D03*
G04 #@! TO.N,VCCIB3*
X117700820Y-116687600D03*
G04 #@! TO.N,Net-(C10-Pad1)*
X128168400Y-123190000D03*
X137617200Y-111785400D03*
X128244600Y-105029000D03*
G04 #@! TO.N,VCCIB3*
X118592600Y-116687600D03*
G04 #@! TO.N,Net-(J1-Pad3)*
X125017728Y-104979272D03*
G04 #@! TO.N,Net-(J1-Pad5)*
X126009400Y-107467400D03*
G04 #@! TO.N,Net-(J1-Pad6)*
X126517400Y-105003600D03*
G04 #@! TO.N,Net-(J1-Pad7)*
X127061607Y-104629458D03*
G04 #@! TO.N,Net-(J2-Pad8)*
X135255000Y-113665000D03*
G04 #@! TO.N,Net-(J2-Pad7)*
X137972800Y-113309400D03*
G04 #@! TO.N,Net-(J2-Pad4)*
X137896600Y-110540800D03*
G04 #@! TO.N,Net-(J2-Pad3)*
X135229600Y-110185200D03*
G04 #@! TO.N,Net-(J3-Pad7)*
X130022600Y-120904000D03*
G04 #@! TO.N,Net-(J3-Pad8)*
X129582800Y-123647200D03*
G04 #@! TO.N,Net-(J3-Pad12)*
X126606526Y-123655848D03*
G04 #@! TO.N,Net-(J3-Pad14)*
X125142968Y-123339568D03*
G04 #@! TO.N,Net-(J3-Pad15)*
X125018800Y-120929400D03*
G04 #@! TO.N,GND*
X121920000Y-113665000D03*
G04 #@! TO.N,VCCIB3*
X121691400Y-119684800D03*
G04 #@! TO.N,GND*
X119608600Y-120167400D03*
X121234200Y-121589800D03*
X128456894Y-107442000D03*
X135331144Y-108314799D03*
X128447790Y-120904000D03*
G04 #@! TO.N,Net-(C10-Pad1)*
X118414790Y-119354600D03*
X119507000Y-116128800D03*
X117703600Y-94361000D03*
G04 #@! TO.N,Net-(J1-Pad10)*
X129581436Y-104673072D03*
G04 #@! TO.N,Net-(J1-Pad11)*
X130026875Y-105160645D03*
G04 #@! TO.N,GAA_IO00RSB0*
X123074580Y-104896462D03*
G04 #@! TO.N,Net-(J4-Pad9)*
X119354600Y-113792000D03*
G04 #@! TO.N,Net-(J4-Pad7)*
X121818400Y-115671600D03*
G04 #@! TO.N,Net-(J4-Pad5)*
X119430800Y-117246412D03*
G04 #@! TO.N,Net-(J4-Pad4)*
X121843800Y-117678200D03*
G04 #@! TO.N,Net-(J4-Pad2)*
X118973600Y-118643410D03*
G04 #@! TO.N,Net-(C11-Pad1)*
X119761000Y-99949000D03*
X119502435Y-114544246D03*
G04 #@! TO.N,Net-(J4-Pad17)*
X118266210Y-108060980D03*
G04 #@! TO.N,Net-(C22-Pad1)*
X122478800Y-105181400D03*
G04 #@! TO.N,Net-(C24-Pad1)*
X139378499Y-112672330D03*
X137795000Y-107721400D03*
G04 #@! TO.N,Net-(C26-Pad1)*
X129001848Y-124146220D03*
X129001848Y-125038000D03*
G04 #@! TD*
D14*
G04 #@! TO.N,Net-(J1-Pad1)*
X104870000Y-89535000D02*
X104870000Y-88270000D01*
X107039026Y-89535000D02*
X104870000Y-89535000D01*
X113080801Y-95576775D02*
X107039026Y-89535000D01*
X122504199Y-103454199D02*
X122504199Y-103389173D01*
X113080801Y-95619827D02*
X113080801Y-95576775D01*
X123063000Y-104013000D02*
X122504199Y-103454199D01*
X119622827Y-100507801D02*
X117968775Y-100507801D01*
X122504199Y-103389173D02*
X119622827Y-100507801D01*
X117968775Y-100507801D02*
X113080801Y-95619827D01*
G04 #@! TO.N,Net-(J1-Pad2)*
X107544999Y-88944999D02*
X106870000Y-88270000D01*
X115424801Y-96824801D02*
X107544999Y-88944999D01*
X117463827Y-96824801D02*
X115424801Y-96824801D01*
X123063000Y-102423974D02*
X117463827Y-96824801D01*
X123063000Y-102997000D02*
X123063000Y-102423974D01*
G04 #@! TO.N,Net-(J1-Pad16)*
X134195001Y-88944999D02*
X134870000Y-88270000D01*
X132328801Y-90811199D02*
X134195001Y-88944999D01*
X132328801Y-104985951D02*
X132328801Y-90811199D01*
X132582800Y-105239950D02*
X132328801Y-104985951D01*
G04 #@! TO.N,Net-(J1-Pad17)*
X133223000Y-91917000D02*
X136870000Y-88270000D01*
X133223000Y-103907790D02*
X133223000Y-91917000D01*
X132969000Y-104521000D02*
X132969000Y-104161790D01*
X132969000Y-104161790D02*
X133223000Y-103907790D01*
G04 #@! TO.N,Net-(J1-Pad18)*
X134112000Y-93028000D02*
X138870000Y-88270000D01*
X134112000Y-104054632D02*
X134112000Y-93028000D01*
X133598801Y-104927041D02*
X133598801Y-104567831D01*
X133598801Y-104567831D02*
X134112000Y-104054632D01*
G04 #@! TO.N,Net-(J1-Pad19)*
X137414000Y-91726000D02*
X140870000Y-88270000D01*
X137414000Y-98187971D02*
X137414000Y-91726000D01*
X134747000Y-100854971D02*
X137414000Y-98187971D01*
X134366000Y-104775000D02*
X134747000Y-104394000D01*
X134747000Y-104394000D02*
X134747000Y-100854971D01*
G04 #@! TO.N,Net-(J1-Pad20)*
X135001000Y-105029000D02*
X138303000Y-101727000D01*
X138303000Y-92837000D02*
X142870000Y-88270000D01*
X138303000Y-101727000D02*
X138303000Y-92837000D01*
G04 #@! TO.N,TMS*
X134395010Y-120980200D02*
X135741210Y-122326400D01*
X134035800Y-120980200D02*
X134395010Y-120980200D01*
X135741210Y-122326400D02*
X137312400Y-122326400D01*
X137312400Y-122326400D02*
X143256000Y-128270000D01*
X143256000Y-128270000D02*
X144870000Y-128270000D01*
G04 #@! TO.N,Net-(J3-Pad13)*
X119002800Y-130270000D02*
X118870000Y-130270000D01*
X126082800Y-123190000D02*
X119002800Y-130270000D01*
G04 #@! TO.N,Net-(J4-Pad16)*
X117106275Y-108658226D02*
X117465485Y-108658226D01*
X115897226Y-108658226D02*
X117106275Y-108658226D01*
X107343000Y-102743000D02*
X109982000Y-102743000D01*
X102870000Y-98270000D02*
X107343000Y-102743000D01*
X109982000Y-102743000D02*
X115897226Y-108658226D01*
G04 #@! TO.N,Net-(J4-Pad15)*
X119020790Y-110109000D02*
X119380000Y-110109000D01*
X116287562Y-110109000D02*
X119020790Y-110109000D01*
X102870000Y-100270000D02*
X106928974Y-104328974D01*
X106928974Y-104328974D02*
X110507536Y-104328974D01*
X110507536Y-104328974D02*
X116287562Y-110109000D01*
G04 #@! TO.N,Net-(J1-Pad3)*
X124460000Y-104421544D02*
X124763729Y-104725273D01*
X108870000Y-88270000D02*
X113970400Y-93370400D01*
X124460000Y-102565200D02*
X124460000Y-104421544D01*
X124763729Y-104725273D02*
X125017728Y-104979272D01*
X113970400Y-93370400D02*
X115265200Y-93370400D01*
X115265200Y-93370400D02*
X124460000Y-102565200D01*
G04 #@! TO.N,Net-(J1-Pad5)*
X126009400Y-107108190D02*
X125653800Y-106752590D01*
X126009400Y-107467400D02*
X126009400Y-107108190D01*
X125653800Y-106752590D02*
X125653800Y-105511600D01*
D15*
X125018800Y-104297830D02*
X125018800Y-104267000D01*
X125653800Y-105511600D02*
X125653800Y-104932830D01*
X125653800Y-104932830D02*
X125018800Y-104297830D01*
G04 #@! TO.N,Net-(J1-Pad6)*
X126263401Y-104749601D02*
X126009401Y-104749601D01*
X126517400Y-105003600D02*
X126263401Y-104749601D01*
X126009401Y-104749601D02*
X125552200Y-104292400D01*
D14*
X125552200Y-98952200D02*
X114870000Y-88270000D01*
X125552200Y-104292400D02*
X125552200Y-98952200D01*
G04 #@! TO.N,Net-(J1-Pad7)*
X127061607Y-104270248D02*
X127061607Y-104629458D01*
X116870000Y-88270000D02*
X127061607Y-98461607D01*
X127061607Y-98461607D02*
X127061607Y-104270248D01*
G04 #@! TO.N,Net-(J2-Pad8)*
X135508999Y-113918999D02*
X142417801Y-113918999D01*
X135255000Y-113665000D02*
X135508999Y-113918999D01*
X142417801Y-113918999D02*
X143662400Y-112674400D01*
X143662400Y-105477600D02*
X144870000Y-104270000D01*
X143662400Y-112674400D02*
X143662400Y-105477600D01*
G04 #@! TO.N,Net-(J2-Pad7)*
X137972800Y-113309400D02*
X141224000Y-113309400D01*
X142951200Y-104188800D02*
X144870000Y-102270000D01*
X142951200Y-111582200D02*
X142951200Y-104188800D01*
X141224000Y-113309400D02*
X142951200Y-111582200D01*
G04 #@! TO.N,Net-(J2-Pad4)*
X141554200Y-99585800D02*
X144870000Y-96270000D01*
X141554200Y-110286800D02*
X141554200Y-99585800D01*
X137896600Y-110540800D02*
X141300200Y-110540800D01*
X141300200Y-110540800D02*
X141554200Y-110286800D01*
G04 #@! TO.N,Net-(J3-Pad7)*
X130870000Y-129315406D02*
X130870000Y-130270000D01*
X130870000Y-122110610D02*
X130870000Y-129315406D01*
X130022600Y-121263210D02*
X130870000Y-122110610D01*
X130022600Y-120904000D02*
X130022600Y-121263210D01*
G04 #@! TO.N,Net-(J3-Pad8)*
X129582800Y-129557200D02*
X128870000Y-130270000D01*
X129582800Y-123647200D02*
X129582800Y-129557200D01*
G04 #@! TO.N,Net-(J3-Pad12)*
X126620172Y-126886844D02*
X125186216Y-128320800D01*
X126606526Y-123655848D02*
X126620172Y-123669494D01*
X126620172Y-123669494D02*
X126620172Y-126886844D01*
X122819200Y-128320800D02*
X120870000Y-130270000D01*
X125186216Y-128320800D02*
X122819200Y-128320800D01*
G04 #@! TO.N,Net-(J3-Pad14)*
X123546433Y-123593567D02*
X117544999Y-129595001D01*
X117544999Y-129595001D02*
X116870000Y-130270000D01*
X124888969Y-123593567D02*
X123546433Y-123593567D01*
X125142968Y-123339568D02*
X124888969Y-123593567D01*
G04 #@! TO.N,Net-(J3-Pad15)*
X124210600Y-120929400D02*
X114870000Y-130270000D01*
X125018800Y-120929400D02*
X124210600Y-120929400D01*
G04 #@! TO.N,VCCIB3*
X117446821Y-116433601D02*
X117446821Y-116405421D01*
X117700820Y-116687600D02*
X117446821Y-116433601D01*
X117446821Y-116405421D02*
X116967000Y-115925600D01*
X105214400Y-115925600D02*
X102870000Y-118270000D01*
X116967000Y-115925600D02*
X105214400Y-115925600D01*
X121767600Y-116687600D02*
X118592600Y-116687600D01*
X122885200Y-117805200D02*
X121767600Y-116687600D01*
X121691400Y-119684800D02*
X122885200Y-118491000D01*
X122885200Y-118491000D02*
X122885200Y-117805200D01*
G04 #@! TO.N,Net-(J1-Pad5)*
X125018800Y-104297830D02*
X125018800Y-100418800D01*
X125018800Y-100418800D02*
X112870000Y-88270000D01*
G04 #@! TO.N,Net-(J1-Pad10)*
X122870000Y-88270000D02*
X129581436Y-94981436D01*
X129581436Y-104313862D02*
X129581436Y-104673072D01*
X129581436Y-94981436D02*
X129581436Y-104313862D01*
G04 #@! TO.N,Net-(J1-Pad11)*
X130280874Y-104906646D02*
X130026875Y-105160645D01*
X124870000Y-88270000D02*
X130280874Y-93680874D01*
X130280874Y-93680874D02*
X130280874Y-104906646D01*
G04 #@! TO.N,Net-(J2-Pad3)*
X144195001Y-94944999D02*
X144195001Y-94945999D01*
X144870000Y-94270000D02*
X144195001Y-94944999D01*
X144195001Y-94945999D02*
X139242800Y-99898200D01*
X139242800Y-99898200D02*
X139242800Y-104876600D01*
X139242800Y-104876600D02*
X136398000Y-107721400D01*
X136398000Y-109016800D02*
X135229600Y-110185200D01*
X136398000Y-107721400D02*
X136398000Y-109016800D01*
G04 #@! TO.N,GAA_IO00RSB0*
X122820581Y-104642463D02*
X123074580Y-104896462D01*
X102870000Y-94270000D02*
X107224000Y-94270000D01*
X107224000Y-94270000D02*
X115824000Y-102870000D01*
X115824000Y-102870000D02*
X121048118Y-102870000D01*
X121048118Y-102870000D02*
X122820581Y-104642463D01*
G04 #@! TO.N,Net-(J4-Pad11)*
X106233000Y-111633000D02*
X102870000Y-108270000D01*
X120798790Y-111633000D02*
X106233000Y-111633000D01*
X122174000Y-112649000D02*
X121814790Y-112649000D01*
X121814790Y-112649000D02*
X120798790Y-111633000D01*
G04 #@! TO.N,Net-(J4-Pad9)*
X103824594Y-112270000D02*
X102870000Y-112270000D01*
X104305194Y-112750600D02*
X103824594Y-112270000D01*
X118672410Y-112750600D02*
X104305194Y-112750600D01*
X119354600Y-113792000D02*
X119354600Y-113432790D01*
X119354600Y-113432790D02*
X118672410Y-112750600D01*
G04 #@! TO.N,Net-(J4-Pad7)*
X104036944Y-115103056D02*
X102870000Y-116270000D01*
X121818400Y-115671600D02*
X121249856Y-115103056D01*
X121249856Y-115103056D02*
X104036944Y-115103056D01*
G04 #@! TO.N,Net-(J4-Pad5)*
X119176801Y-117500411D02*
X116738411Y-117500411D01*
X119430800Y-117246412D02*
X119176801Y-117500411D01*
X116738411Y-117500411D02*
X116738400Y-117500400D01*
X105639600Y-117500400D02*
X102870000Y-120270000D01*
X116738400Y-117500400D02*
X105639600Y-117500400D01*
G04 #@! TO.N,Net-(J4-Pad4)*
X121843800Y-117678200D02*
X121484590Y-117678200D01*
X121484590Y-117678200D02*
X121078190Y-118084600D01*
X107055400Y-118084600D02*
X102870000Y-122270000D01*
X121078190Y-118084600D02*
X107055400Y-118084600D01*
G04 #@! TO.N,Net-(J4-Pad2)*
X118614390Y-118643410D02*
X118973600Y-118643410D01*
X102870000Y-126270000D02*
X110496590Y-118643410D01*
X110496590Y-118643410D02*
X118614390Y-118643410D01*
G04 #@! TO.N,Net-(J4-Pad17)*
X110678974Y-101981000D02*
X115982973Y-107284999D01*
X115982973Y-107284999D02*
X117849439Y-107284999D01*
X102870000Y-96270000D02*
X108581000Y-101981000D01*
X118266210Y-107701770D02*
X118266210Y-108060980D01*
X117849439Y-107284999D02*
X118266210Y-107701770D01*
X108581000Y-101981000D02*
X110678974Y-101981000D01*
G04 #@! TO.N,Net-(C22-Pad1)*
X128295400Y-102590600D02*
X128295400Y-95695400D01*
X128295400Y-95695400D02*
X120870000Y-88270000D01*
X128761705Y-103056905D02*
X128295400Y-102590600D01*
X129015704Y-103319510D02*
X128761705Y-103065511D01*
X128761705Y-103065511D02*
X128761705Y-103056905D01*
X128752600Y-108381800D02*
X129015704Y-108118696D01*
X125679200Y-108381800D02*
X128752600Y-108381800D01*
X122478800Y-105181400D02*
X125679200Y-108381800D01*
X129015704Y-108118696D02*
X129015704Y-104211290D01*
G04 #@! TO.N,Net-(C24-Pad1)*
X142290800Y-102849200D02*
X144870000Y-100270000D01*
X139632498Y-112418331D02*
X139651269Y-112418331D01*
X139378499Y-112672330D02*
X139632498Y-112418331D01*
X139651269Y-112418331D02*
X140360400Y-111709200D01*
X140360400Y-111709200D02*
X141351000Y-111709200D01*
X141351000Y-111709200D02*
X142290800Y-110769400D01*
X142290800Y-110769400D02*
X142290800Y-102849200D01*
X137795000Y-108080610D02*
X136956800Y-108918810D01*
X137795000Y-107721400D02*
X137795000Y-108080610D01*
X136956800Y-108918810D02*
X136956800Y-112166400D01*
X137462730Y-112672330D02*
X138486719Y-112672330D01*
X136956800Y-112166400D02*
X137462730Y-112672330D01*
G04 #@! TO.N,Net-(C26-Pad1)*
X127544999Y-129595001D02*
X126870000Y-130270000D01*
X128443047Y-128696953D02*
X127544999Y-129595001D01*
X128443047Y-125596801D02*
X128443047Y-128696953D01*
X129001848Y-125038000D02*
X128443047Y-125596801D01*
X129001848Y-123787010D02*
X129006600Y-123782258D01*
X129001848Y-124146220D02*
X129001848Y-123787010D01*
X129006600Y-123782258D02*
X129006600Y-120167400D01*
X129006600Y-120167400D02*
X129184400Y-119989600D01*
X133680200Y-123190000D02*
X134747000Y-123190000D01*
X129184400Y-119989600D02*
X130479800Y-119989600D01*
X130479800Y-119989600D02*
X133680200Y-123190000D01*
G04 #@! TD*
D16*
G04 #@! TO.N,Net-(C11-Pad1)*
G36*
X131875270Y-88682031D02*
X132108667Y-89031333D01*
X132457969Y-89264730D01*
X132765994Y-89326000D01*
X132974006Y-89326000D01*
X133080927Y-89304732D01*
X131988776Y-90396884D01*
X131944243Y-90426640D01*
X131914487Y-90471173D01*
X131914486Y-90471174D01*
X131826351Y-90603077D01*
X131784953Y-90811199D01*
X131795402Y-90863730D01*
X131795401Y-104933425D01*
X131784953Y-104985951D01*
X131795401Y-105038477D01*
X131795401Y-105038481D01*
X131826350Y-105194072D01*
X131944242Y-105370510D01*
X131951596Y-105375424D01*
X132044473Y-105599648D01*
X132223102Y-105778277D01*
X132456491Y-105874950D01*
X132709109Y-105874950D01*
X132942498Y-105778277D01*
X133121127Y-105599648D01*
X133195011Y-105421276D01*
X133239103Y-105465368D01*
X133472492Y-105562041D01*
X133725110Y-105562041D01*
X133958499Y-105465368D01*
X134080009Y-105343858D01*
X134239691Y-105410000D01*
X134483975Y-105410000D01*
X134641302Y-105567327D01*
X134874691Y-105664000D01*
X135127309Y-105664000D01*
X135360698Y-105567327D01*
X135539327Y-105388698D01*
X135636000Y-105155309D01*
X135636000Y-105148340D01*
X138643026Y-102141315D01*
X138687559Y-102111559D01*
X138709400Y-102078871D01*
X138709401Y-104655658D01*
X136057977Y-107307083D01*
X136013441Y-107336841D01*
X135895549Y-107513279D01*
X135864600Y-107668870D01*
X135864600Y-107668874D01*
X135854152Y-107721400D01*
X135864600Y-107773926D01*
X135864600Y-107950230D01*
X135690842Y-107776472D01*
X135457453Y-107679799D01*
X135204835Y-107679799D01*
X134971446Y-107776472D01*
X134792817Y-107955101D01*
X134696144Y-108188490D01*
X134696144Y-108441108D01*
X134792817Y-108674497D01*
X134971446Y-108853126D01*
X135204835Y-108949799D01*
X135457453Y-108949799D01*
X135690842Y-108853126D01*
X135864601Y-108679367D01*
X135864601Y-108795858D01*
X135110260Y-109550200D01*
X135103291Y-109550200D01*
X134869902Y-109646873D01*
X134691273Y-109825502D01*
X134594600Y-110058891D01*
X134594600Y-110311509D01*
X134691273Y-110544898D01*
X134869902Y-110723527D01*
X135103291Y-110820200D01*
X135355909Y-110820200D01*
X135589298Y-110723527D01*
X135767927Y-110544898D01*
X135864600Y-110311509D01*
X135864600Y-110304540D01*
X136423400Y-109745740D01*
X136423401Y-112113869D01*
X136412952Y-112166400D01*
X136454350Y-112374522D01*
X136538659Y-112500698D01*
X136572242Y-112550959D01*
X136616775Y-112580715D01*
X137048414Y-113012355D01*
X137078171Y-113056889D01*
X137254608Y-113174781D01*
X137337800Y-113191329D01*
X137337800Y-113385599D01*
X135826587Y-113385599D01*
X135793327Y-113305302D01*
X135614698Y-113126673D01*
X135381309Y-113030000D01*
X135128691Y-113030000D01*
X134895302Y-113126673D01*
X134716673Y-113305302D01*
X134620000Y-113538691D01*
X134620000Y-113791309D01*
X134716673Y-114024698D01*
X134895302Y-114203327D01*
X135119526Y-114296204D01*
X135124440Y-114303558D01*
X135300877Y-114421450D01*
X135456468Y-114452399D01*
X135456472Y-114452399D01*
X135508999Y-114462847D01*
X135561526Y-114452399D01*
X142365275Y-114452399D01*
X142417801Y-114462847D01*
X142470327Y-114452399D01*
X142470332Y-114452399D01*
X142625923Y-114421450D01*
X142802360Y-114303558D01*
X142832118Y-114259022D01*
X144002426Y-113088715D01*
X144046959Y-113058959D01*
X144087043Y-112998970D01*
X144108667Y-113031333D01*
X144457969Y-113264730D01*
X144484463Y-113270000D01*
X144457969Y-113275270D01*
X144108667Y-113508667D01*
X143875270Y-113857969D01*
X143793312Y-114270000D01*
X143875270Y-114682031D01*
X144108667Y-115031333D01*
X144457969Y-115264730D01*
X144484463Y-115270000D01*
X144457969Y-115275270D01*
X144108667Y-115508667D01*
X143875270Y-115857969D01*
X143793312Y-116270000D01*
X143875270Y-116682031D01*
X144108667Y-117031333D01*
X144457969Y-117264730D01*
X144484463Y-117270000D01*
X144457969Y-117275270D01*
X144108667Y-117508667D01*
X143875270Y-117857969D01*
X143793312Y-118270000D01*
X143875270Y-118682031D01*
X144108667Y-119031333D01*
X144457969Y-119264730D01*
X144484463Y-119270000D01*
X144457969Y-119275270D01*
X144108667Y-119508667D01*
X143875270Y-119857969D01*
X143793312Y-120270000D01*
X143875270Y-120682031D01*
X144108667Y-121031333D01*
X144457969Y-121264730D01*
X144484463Y-121270000D01*
X144457969Y-121275270D01*
X144108667Y-121508667D01*
X143875270Y-121857969D01*
X143793312Y-122270000D01*
X143875270Y-122682031D01*
X144108667Y-123031333D01*
X144457969Y-123264730D01*
X144484463Y-123270000D01*
X144457969Y-123275270D01*
X144108667Y-123508667D01*
X143875270Y-123857969D01*
X143793312Y-124270000D01*
X143875270Y-124682031D01*
X144108667Y-125031333D01*
X144457969Y-125264730D01*
X144484463Y-125270000D01*
X144457969Y-125275270D01*
X144108667Y-125508667D01*
X143875270Y-125857969D01*
X143793312Y-126270000D01*
X143875270Y-126682031D01*
X144108667Y-127031333D01*
X144457969Y-127264730D01*
X144484463Y-127270000D01*
X144457969Y-127275270D01*
X144108667Y-127508667D01*
X143956366Y-127736600D01*
X143476941Y-127736600D01*
X137726717Y-121986377D01*
X137696959Y-121941841D01*
X137520522Y-121823949D01*
X137364931Y-121793000D01*
X137364926Y-121793000D01*
X137312400Y-121782552D01*
X137259874Y-121793000D01*
X135962151Y-121793000D01*
X134809327Y-120640177D01*
X134779569Y-120595641D01*
X134603132Y-120477749D01*
X134447541Y-120446800D01*
X134447536Y-120446800D01*
X134395010Y-120436352D01*
X134386335Y-120438078D01*
X134162109Y-120345200D01*
X133909491Y-120345200D01*
X133676102Y-120441873D01*
X133497473Y-120620502D01*
X133400800Y-120853891D01*
X133400800Y-121106509D01*
X133497473Y-121339898D01*
X133676102Y-121518527D01*
X133909491Y-121615200D01*
X134162109Y-121615200D01*
X134242409Y-121581939D01*
X135326894Y-122666425D01*
X135356651Y-122710959D01*
X135533088Y-122828851D01*
X135688679Y-122859800D01*
X135688683Y-122859800D01*
X135741209Y-122870248D01*
X135793735Y-122859800D01*
X137091460Y-122859800D01*
X142841685Y-128610026D01*
X142871441Y-128654559D01*
X143047878Y-128772451D01*
X143203469Y-128803400D01*
X143203473Y-128803400D01*
X143256000Y-128813848D01*
X143308527Y-128803400D01*
X143956366Y-128803400D01*
X144108667Y-129031333D01*
X144457969Y-129264730D01*
X144765994Y-129326000D01*
X144974006Y-129326000D01*
X145282031Y-129264730D01*
X145631333Y-129031333D01*
X145864730Y-128682031D01*
X145870000Y-128655537D01*
X145875270Y-128682031D01*
X146108667Y-129031333D01*
X146456801Y-129263950D01*
X146456801Y-131876976D01*
X143933464Y-131875582D01*
X143933464Y-131595000D01*
X143903894Y-131446341D01*
X143819686Y-131320314D01*
X143744385Y-131270000D01*
X143819686Y-131219686D01*
X143903894Y-131093659D01*
X143933464Y-130945000D01*
X143933464Y-129595000D01*
X143903894Y-129446341D01*
X143819686Y-129320314D01*
X143693659Y-129236106D01*
X143545000Y-129206536D01*
X142195000Y-129206536D01*
X142046341Y-129236106D01*
X141920314Y-129320314D01*
X141836106Y-129446341D01*
X141806536Y-129595000D01*
X141806536Y-129770876D01*
X141631333Y-129508667D01*
X141282031Y-129275270D01*
X140974006Y-129214000D01*
X140765994Y-129214000D01*
X140457969Y-129275270D01*
X140108667Y-129508667D01*
X139875270Y-129857969D01*
X139870000Y-129884463D01*
X139864730Y-129857969D01*
X139631333Y-129508667D01*
X139282031Y-129275270D01*
X138974006Y-129214000D01*
X138765994Y-129214000D01*
X138457969Y-129275270D01*
X138108667Y-129508667D01*
X137875270Y-129857969D01*
X137870000Y-129884463D01*
X137864730Y-129857969D01*
X137631333Y-129508667D01*
X137282031Y-129275270D01*
X136974006Y-129214000D01*
X136765994Y-129214000D01*
X136457969Y-129275270D01*
X136108667Y-129508667D01*
X135875270Y-129857969D01*
X135870000Y-129884463D01*
X135864730Y-129857969D01*
X135631333Y-129508667D01*
X135282031Y-129275270D01*
X134974006Y-129214000D01*
X134765994Y-129214000D01*
X134457969Y-129275270D01*
X134108667Y-129508667D01*
X133875270Y-129857969D01*
X133870000Y-129884463D01*
X133864730Y-129857969D01*
X133631333Y-129508667D01*
X133282031Y-129275270D01*
X132974006Y-129214000D01*
X132765994Y-129214000D01*
X132457969Y-129275270D01*
X132108667Y-129508667D01*
X131875270Y-129857969D01*
X131870000Y-129884463D01*
X131864730Y-129857969D01*
X131631333Y-129508667D01*
X131403400Y-129356366D01*
X131403400Y-122163137D01*
X131413848Y-122110610D01*
X131403400Y-122058083D01*
X131403400Y-122058079D01*
X131372451Y-121902488D01*
X131284316Y-121770584D01*
X131284313Y-121770581D01*
X131254559Y-121726051D01*
X131210029Y-121696297D01*
X130624339Y-121110608D01*
X130657600Y-121030309D01*
X130657600Y-120921740D01*
X133265885Y-123530026D01*
X133295641Y-123574559D01*
X133472078Y-123692451D01*
X133627669Y-123723400D01*
X133627673Y-123723400D01*
X133680199Y-123733848D01*
X133732725Y-123723400D01*
X134382375Y-123723400D01*
X134387302Y-123728327D01*
X134620691Y-123825000D01*
X134873309Y-123825000D01*
X135106698Y-123728327D01*
X135285327Y-123549698D01*
X135382000Y-123316309D01*
X135382000Y-123063691D01*
X135285327Y-122830302D01*
X135106698Y-122651673D01*
X134873309Y-122555000D01*
X134620691Y-122555000D01*
X134387302Y-122651673D01*
X134382375Y-122656600D01*
X133901141Y-122656600D01*
X132726066Y-121481525D01*
X132820698Y-121442327D01*
X132999327Y-121263698D01*
X133096000Y-121030309D01*
X133096000Y-120777691D01*
X132999327Y-120544302D01*
X132820698Y-120365673D01*
X132587309Y-120269000D01*
X132334691Y-120269000D01*
X132101302Y-120365673D01*
X131922673Y-120544302D01*
X131883475Y-120638935D01*
X131006231Y-119761691D01*
X134366000Y-119761691D01*
X134366000Y-120014309D01*
X134462673Y-120247698D01*
X134641302Y-120426327D01*
X134874691Y-120523000D01*
X135127309Y-120523000D01*
X135360698Y-120426327D01*
X135415734Y-120371291D01*
X138328400Y-120371291D01*
X138328400Y-120623909D01*
X138425073Y-120857298D01*
X138603702Y-121035927D01*
X138837091Y-121132600D01*
X139089709Y-121132600D01*
X139323098Y-121035927D01*
X139501727Y-120857298D01*
X139598400Y-120623909D01*
X139598400Y-120371291D01*
X139501727Y-120137902D01*
X139323903Y-119960078D01*
X139424698Y-119918327D01*
X139603327Y-119739698D01*
X139700000Y-119506309D01*
X139700000Y-119253691D01*
X139603327Y-119020302D01*
X139424698Y-118841673D01*
X139191309Y-118745000D01*
X138938691Y-118745000D01*
X138705302Y-118841673D01*
X138526673Y-119020302D01*
X138430000Y-119253691D01*
X138430000Y-119506309D01*
X138526673Y-119739698D01*
X138704497Y-119917522D01*
X138603702Y-119959273D01*
X138425073Y-120137902D01*
X138328400Y-120371291D01*
X135415734Y-120371291D01*
X135539327Y-120247698D01*
X135636000Y-120014309D01*
X135636000Y-119761691D01*
X135539327Y-119528302D01*
X135360698Y-119349673D01*
X135127309Y-119253000D01*
X134874691Y-119253000D01*
X134641302Y-119349673D01*
X134462673Y-119528302D01*
X134366000Y-119761691D01*
X131006231Y-119761691D01*
X130894117Y-119649577D01*
X130864359Y-119605041D01*
X130687922Y-119487149D01*
X130532331Y-119456200D01*
X130532326Y-119456200D01*
X130479800Y-119445752D01*
X130427274Y-119456200D01*
X129236925Y-119456200D01*
X129184399Y-119445752D01*
X129131874Y-119456200D01*
X129131869Y-119456200D01*
X128976278Y-119487149D01*
X128799841Y-119605041D01*
X128770083Y-119649577D01*
X128666575Y-119753085D01*
X128622042Y-119782841D01*
X128592286Y-119827374D01*
X128592285Y-119827375D01*
X128504150Y-119959278D01*
X128462752Y-120167400D01*
X128473201Y-120219931D01*
X128473201Y-120269000D01*
X128321481Y-120269000D01*
X128088092Y-120365673D01*
X127909463Y-120544302D01*
X127812790Y-120777691D01*
X127812790Y-121030309D01*
X127909463Y-121263698D01*
X128088092Y-121442327D01*
X128321481Y-121539000D01*
X128473201Y-121539000D01*
X128473200Y-122628934D01*
X128294709Y-122555000D01*
X128042091Y-122555000D01*
X127808702Y-122651673D01*
X127630073Y-122830302D01*
X127533400Y-123063691D01*
X127533400Y-123316309D01*
X127630073Y-123549698D01*
X127808702Y-123728327D01*
X128042091Y-123825000D01*
X128294709Y-123825000D01*
X128464427Y-123754701D01*
X128458000Y-123787010D01*
X128459726Y-123795685D01*
X128366848Y-124019911D01*
X128366848Y-124272529D01*
X128463521Y-124505918D01*
X128549713Y-124592110D01*
X128463521Y-124678302D01*
X128366848Y-124911691D01*
X128366848Y-124918659D01*
X128103024Y-125182484D01*
X128058488Y-125212242D01*
X127940596Y-125388680D01*
X127909647Y-125544271D01*
X127909647Y-125544275D01*
X127899199Y-125596801D01*
X127909647Y-125649327D01*
X127909648Y-128476010D01*
X127204976Y-129180684D01*
X127204973Y-129180686D01*
X127138866Y-129246793D01*
X126974006Y-129214000D01*
X126765994Y-129214000D01*
X126457969Y-129275270D01*
X126108667Y-129508667D01*
X125875270Y-129857969D01*
X125870000Y-129884463D01*
X125864730Y-129857969D01*
X125631333Y-129508667D01*
X125282031Y-129275270D01*
X124974006Y-129214000D01*
X124765994Y-129214000D01*
X124457969Y-129275270D01*
X124108667Y-129508667D01*
X123875270Y-129857969D01*
X123870000Y-129884463D01*
X123864730Y-129857969D01*
X123631333Y-129508667D01*
X123282031Y-129275270D01*
X122974006Y-129214000D01*
X122765994Y-129214000D01*
X122659073Y-129235268D01*
X123040141Y-128854200D01*
X125133690Y-128854200D01*
X125186216Y-128864648D01*
X125238742Y-128854200D01*
X125238747Y-128854200D01*
X125394338Y-128823251D01*
X125570775Y-128705359D01*
X125600533Y-128660823D01*
X126960197Y-127301160D01*
X127004731Y-127271403D01*
X127122623Y-127094966D01*
X127153572Y-126939375D01*
X127153572Y-126939371D01*
X127164020Y-126886845D01*
X127153572Y-126834319D01*
X127153572Y-123994496D01*
X127241526Y-123782157D01*
X127241526Y-123529539D01*
X127144853Y-123296150D01*
X126966224Y-123117521D01*
X126732835Y-123020848D01*
X126700054Y-123020848D01*
X126621127Y-122830302D01*
X126442498Y-122651673D01*
X126209109Y-122555000D01*
X125956491Y-122555000D01*
X125723102Y-122651673D01*
X125544473Y-122830302D01*
X125540740Y-122839315D01*
X125502666Y-122801241D01*
X125269277Y-122704568D01*
X125016659Y-122704568D01*
X124783270Y-122801241D01*
X124604641Y-122979870D01*
X124571381Y-123060167D01*
X123598958Y-123060167D01*
X123546432Y-123049719D01*
X123493906Y-123060167D01*
X123493902Y-123060167D01*
X123338311Y-123091116D01*
X123161874Y-123209008D01*
X123132118Y-123253541D01*
X117204976Y-129180684D01*
X117204973Y-129180686D01*
X117138866Y-129246793D01*
X116974006Y-129214000D01*
X116765994Y-129214000D01*
X116659072Y-129235268D01*
X124431541Y-121462800D01*
X124654175Y-121462800D01*
X124659102Y-121467727D01*
X124892491Y-121564400D01*
X125145109Y-121564400D01*
X125378498Y-121467727D01*
X125557127Y-121289098D01*
X125653800Y-121055709D01*
X125653800Y-120803091D01*
X125557127Y-120569702D01*
X125378498Y-120391073D01*
X125145109Y-120294400D01*
X124892491Y-120294400D01*
X124659102Y-120391073D01*
X124654175Y-120396000D01*
X124263125Y-120396000D01*
X124210599Y-120385552D01*
X124158073Y-120396000D01*
X124158069Y-120396000D01*
X124002478Y-120426949D01*
X123826041Y-120544841D01*
X123796285Y-120589374D01*
X115138867Y-129246793D01*
X114974006Y-129214000D01*
X114765994Y-129214000D01*
X114457969Y-129275270D01*
X114108667Y-129508667D01*
X113875270Y-129857969D01*
X113870000Y-129884463D01*
X113864730Y-129857969D01*
X113631333Y-129508667D01*
X113282031Y-129275270D01*
X112974006Y-129214000D01*
X112765994Y-129214000D01*
X112457969Y-129275270D01*
X112108667Y-129508667D01*
X111875270Y-129857969D01*
X111870000Y-129884463D01*
X111864730Y-129857969D01*
X111631333Y-129508667D01*
X111282031Y-129275270D01*
X110974006Y-129214000D01*
X110765994Y-129214000D01*
X110457969Y-129275270D01*
X110108667Y-129508667D01*
X109875270Y-129857969D01*
X109870000Y-129884463D01*
X109864730Y-129857969D01*
X109631333Y-129508667D01*
X109282031Y-129275270D01*
X108974006Y-129214000D01*
X108765994Y-129214000D01*
X108457969Y-129275270D01*
X108108667Y-129508667D01*
X107875270Y-129857969D01*
X107870000Y-129884463D01*
X107864730Y-129857969D01*
X107631333Y-129508667D01*
X107282031Y-129275270D01*
X106974006Y-129214000D01*
X106765994Y-129214000D01*
X106457969Y-129275270D01*
X106108667Y-129508667D01*
X105875270Y-129857969D01*
X105870000Y-129884463D01*
X105864730Y-129857969D01*
X105631333Y-129508667D01*
X105282031Y-129275270D01*
X104974006Y-129214000D01*
X104765994Y-129214000D01*
X104457969Y-129275270D01*
X104108667Y-129508667D01*
X103875270Y-129857969D01*
X103793312Y-130270000D01*
X103875270Y-130682031D01*
X104108667Y-131031333D01*
X104457969Y-131264730D01*
X104484463Y-131270000D01*
X104457969Y-131275270D01*
X104108667Y-131508667D01*
X103878288Y-131853452D01*
X101294576Y-131852024D01*
X101293185Y-129333464D01*
X101545000Y-129333464D01*
X101693659Y-129303894D01*
X101819686Y-129219686D01*
X101870000Y-129144385D01*
X101920314Y-129219686D01*
X102046341Y-129303894D01*
X102195000Y-129333464D01*
X103545000Y-129333464D01*
X103693659Y-129303894D01*
X103819686Y-129219686D01*
X103903894Y-129093659D01*
X103933464Y-128945000D01*
X103933464Y-127595000D01*
X103903894Y-127446341D01*
X103819686Y-127320314D01*
X103693659Y-127236106D01*
X103545000Y-127206536D01*
X103369124Y-127206536D01*
X103631333Y-127031333D01*
X103864730Y-126682031D01*
X103946688Y-126270000D01*
X103893207Y-126001133D01*
X108276582Y-121617758D01*
X109863000Y-121617758D01*
X109863000Y-121968242D01*
X109997124Y-122292047D01*
X110244953Y-122539876D01*
X110568758Y-122674000D01*
X110919242Y-122674000D01*
X111243047Y-122539876D01*
X111490876Y-122292047D01*
X111625000Y-121968242D01*
X111625000Y-121617758D01*
X111561101Y-121463491D01*
X120599200Y-121463491D01*
X120599200Y-121716109D01*
X120695873Y-121949498D01*
X120874502Y-122128127D01*
X121107891Y-122224800D01*
X121360509Y-122224800D01*
X121593898Y-122128127D01*
X121772527Y-121949498D01*
X121869200Y-121716109D01*
X121869200Y-121463491D01*
X121772527Y-121230102D01*
X121593898Y-121051473D01*
X121360509Y-120954800D01*
X121107891Y-120954800D01*
X120874502Y-121051473D01*
X120695873Y-121230102D01*
X120599200Y-121463491D01*
X111561101Y-121463491D01*
X111490876Y-121293953D01*
X111243047Y-121046124D01*
X110919242Y-120912000D01*
X110568758Y-120912000D01*
X110244953Y-121046124D01*
X109997124Y-121293953D01*
X109863000Y-121617758D01*
X108276582Y-121617758D01*
X109853249Y-120041091D01*
X118973600Y-120041091D01*
X118973600Y-120293709D01*
X119070273Y-120527098D01*
X119248902Y-120705727D01*
X119482291Y-120802400D01*
X119734909Y-120802400D01*
X119968298Y-120705727D01*
X120146927Y-120527098D01*
X120243600Y-120293709D01*
X120243600Y-120041091D01*
X120146927Y-119807702D01*
X119968298Y-119629073D01*
X119734909Y-119532400D01*
X119482291Y-119532400D01*
X119248902Y-119629073D01*
X119070273Y-119807702D01*
X118973600Y-120041091D01*
X109853249Y-120041091D01*
X110717531Y-119176810D01*
X115337324Y-119176810D01*
X115316000Y-119228291D01*
X115316000Y-119480909D01*
X115412673Y-119714298D01*
X115591302Y-119892927D01*
X115824691Y-119989600D01*
X116077309Y-119989600D01*
X116216826Y-119931810D01*
X116356342Y-119989600D01*
X116608960Y-119989600D01*
X116842349Y-119892927D01*
X117015536Y-119719741D01*
X117188722Y-119892927D01*
X117422111Y-119989600D01*
X117674729Y-119989600D01*
X117908118Y-119892927D01*
X117981605Y-119819440D01*
X118055092Y-119892927D01*
X118288481Y-119989600D01*
X118541099Y-119989600D01*
X118774488Y-119892927D01*
X118953117Y-119714298D01*
X119049790Y-119480909D01*
X119049790Y-119278410D01*
X119099909Y-119278410D01*
X119333298Y-119181737D01*
X119511927Y-119003108D01*
X119608600Y-118769719D01*
X119608600Y-118618000D01*
X121025664Y-118618000D01*
X121078190Y-118628448D01*
X121130716Y-118618000D01*
X121130721Y-118618000D01*
X121286312Y-118587051D01*
X121462749Y-118469159D01*
X121492507Y-118424623D01*
X121637192Y-118279939D01*
X121717491Y-118313200D01*
X121970109Y-118313200D01*
X122203498Y-118216527D01*
X122351800Y-118068225D01*
X122351800Y-118270059D01*
X121572060Y-119049800D01*
X121565091Y-119049800D01*
X121331702Y-119146473D01*
X121153073Y-119325102D01*
X121056400Y-119558491D01*
X121056400Y-119811109D01*
X121153073Y-120044498D01*
X121331702Y-120223127D01*
X121565091Y-120319800D01*
X121817709Y-120319800D01*
X122051098Y-120223127D01*
X122229727Y-120044498D01*
X122326400Y-119811109D01*
X122326400Y-119804140D01*
X123225226Y-118905315D01*
X123269759Y-118875559D01*
X123387651Y-118699122D01*
X123418600Y-118543531D01*
X123418600Y-118543527D01*
X123429048Y-118491001D01*
X123418600Y-118438475D01*
X123418600Y-117857725D01*
X123429048Y-117805199D01*
X123418600Y-117752673D01*
X123418600Y-117752669D01*
X123387651Y-117597078D01*
X123269759Y-117420641D01*
X123225225Y-117390884D01*
X122181917Y-116347577D01*
X122152159Y-116303041D01*
X122076060Y-116252193D01*
X122178098Y-116209927D01*
X122356727Y-116031298D01*
X122453400Y-115797909D01*
X122453400Y-115545291D01*
X122356727Y-115311902D01*
X122178098Y-115133273D01*
X121944709Y-115036600D01*
X121937741Y-115036600D01*
X121664173Y-114763033D01*
X121634415Y-114718497D01*
X121457978Y-114600605D01*
X121302387Y-114569656D01*
X121302382Y-114569656D01*
X121249856Y-114559208D01*
X121197330Y-114569656D01*
X104089469Y-114569656D01*
X104036943Y-114559208D01*
X103984417Y-114569656D01*
X103984413Y-114569656D01*
X103883073Y-114589814D01*
X103946688Y-114270000D01*
X103864730Y-113857969D01*
X103631333Y-113508667D01*
X103282031Y-113275270D01*
X103255537Y-113270000D01*
X103282031Y-113264730D01*
X103631333Y-113031333D01*
X103711543Y-112911290D01*
X103890878Y-113090625D01*
X103920635Y-113135159D01*
X104097072Y-113253051D01*
X104252663Y-113284000D01*
X104252667Y-113284000D01*
X104305193Y-113294448D01*
X104357719Y-113284000D01*
X115839570Y-113284000D01*
X115667502Y-113355273D01*
X115488873Y-113533902D01*
X115392200Y-113767291D01*
X115392200Y-114019909D01*
X115488873Y-114253298D01*
X115667502Y-114431927D01*
X115900891Y-114528600D01*
X116153509Y-114528600D01*
X116293026Y-114470810D01*
X116432542Y-114528600D01*
X116685160Y-114528600D01*
X116918549Y-114431927D01*
X117097178Y-114253298D01*
X117193851Y-114019909D01*
X117193851Y-113767291D01*
X117097178Y-113533902D01*
X116918549Y-113355273D01*
X116746481Y-113284000D01*
X118451470Y-113284000D01*
X118752861Y-113585392D01*
X118719600Y-113665691D01*
X118719600Y-113918309D01*
X118816273Y-114151698D01*
X118994902Y-114330327D01*
X119228291Y-114427000D01*
X119480909Y-114427000D01*
X119714298Y-114330327D01*
X119892927Y-114151698D01*
X119989600Y-113918309D01*
X119989600Y-113665691D01*
X119896722Y-113441465D01*
X119898448Y-113432789D01*
X119888000Y-113380263D01*
X119888000Y-113380260D01*
X119857051Y-113224668D01*
X119739159Y-113048231D01*
X119694625Y-113018474D01*
X119086727Y-112410577D01*
X119056969Y-112366041D01*
X118880532Y-112248149D01*
X118724941Y-112217200D01*
X118724936Y-112217200D01*
X118672410Y-112206752D01*
X118619884Y-112217200D01*
X112904323Y-112217200D01*
X112955123Y-112166400D01*
X120577850Y-112166400D01*
X121400474Y-112989025D01*
X121430231Y-113033559D01*
X121474764Y-113063315D01*
X121566032Y-113124299D01*
X121560302Y-113126673D01*
X121381673Y-113305302D01*
X121285000Y-113538691D01*
X121285000Y-113791309D01*
X121381673Y-114024698D01*
X121560302Y-114203327D01*
X121793691Y-114300000D01*
X122046309Y-114300000D01*
X122279698Y-114203327D01*
X122458327Y-114024698D01*
X122555000Y-113791309D01*
X122555000Y-113538691D01*
X122458327Y-113305302D01*
X122396982Y-113243957D01*
X122533698Y-113187327D01*
X122712327Y-113008698D01*
X122809000Y-112775309D01*
X122809000Y-112522691D01*
X122712327Y-112289302D01*
X122533698Y-112110673D01*
X122301978Y-112014691D01*
X134620000Y-112014691D01*
X134620000Y-112267309D01*
X134716673Y-112500698D01*
X134895302Y-112679327D01*
X135128691Y-112776000D01*
X135381309Y-112776000D01*
X135614698Y-112679327D01*
X135793327Y-112500698D01*
X135890000Y-112267309D01*
X135890000Y-112014691D01*
X135793327Y-111781302D01*
X135614698Y-111602673D01*
X135381309Y-111506000D01*
X135128691Y-111506000D01*
X134895302Y-111602673D01*
X134716673Y-111781302D01*
X134620000Y-112014691D01*
X122301978Y-112014691D01*
X122300309Y-112014000D01*
X122047691Y-112014000D01*
X121967392Y-112047261D01*
X121934131Y-112014000D01*
X121995509Y-112014000D01*
X122228898Y-111917327D01*
X122407527Y-111738698D01*
X122504200Y-111505309D01*
X122504200Y-111252691D01*
X122407527Y-111019302D01*
X122228898Y-110840673D01*
X121995509Y-110744000D01*
X121742891Y-110744000D01*
X121509502Y-110840673D01*
X121330873Y-111019302D01*
X121234200Y-111252691D01*
X121234200Y-111314070D01*
X121213107Y-111292977D01*
X121183349Y-111248441D01*
X121006912Y-111130549D01*
X120851321Y-111099600D01*
X120851316Y-111099600D01*
X120798790Y-111089152D01*
X120746264Y-111099600D01*
X113047089Y-111099600D01*
X113040276Y-111083153D01*
X112792447Y-110835324D01*
X112468642Y-110701200D01*
X112118158Y-110701200D01*
X111794353Y-110835324D01*
X111546524Y-111083153D01*
X111539711Y-111099600D01*
X106453941Y-111099600D01*
X103893207Y-108538867D01*
X103946688Y-108270000D01*
X103864730Y-107857969D01*
X103631333Y-107508667D01*
X103282031Y-107275270D01*
X103255537Y-107270000D01*
X103282031Y-107264730D01*
X103631333Y-107031333D01*
X103864730Y-106682031D01*
X103946688Y-106270000D01*
X103864730Y-105857969D01*
X103631333Y-105508667D01*
X103282031Y-105275270D01*
X103255537Y-105270000D01*
X103282031Y-105264730D01*
X103631333Y-105031333D01*
X103864730Y-104682031D01*
X103946688Y-104270000D01*
X103864730Y-103857969D01*
X103631333Y-103508667D01*
X103282031Y-103275270D01*
X103255537Y-103270000D01*
X103282031Y-103264730D01*
X103631333Y-103031333D01*
X103864730Y-102682031D01*
X103946688Y-102270000D01*
X103904732Y-102059072D01*
X106514658Y-104668999D01*
X106544415Y-104713533D01*
X106720852Y-104831425D01*
X106876443Y-104862374D01*
X106876447Y-104862374D01*
X106928973Y-104872822D01*
X106981499Y-104862374D01*
X110286596Y-104862374D01*
X112866222Y-107442000D01*
X112649691Y-107442000D01*
X112416302Y-107538673D01*
X112237673Y-107717302D01*
X112141000Y-107950691D01*
X112141000Y-108203309D01*
X112237673Y-108436698D01*
X112416302Y-108615327D01*
X112649691Y-108712000D01*
X112902309Y-108712000D01*
X113135698Y-108615327D01*
X113314327Y-108436698D01*
X113411000Y-108203309D01*
X113411000Y-107986779D01*
X115873247Y-110449026D01*
X115903003Y-110493559D01*
X116079440Y-110611451D01*
X116235031Y-110642400D01*
X116235035Y-110642400D01*
X116287561Y-110652848D01*
X116340087Y-110642400D01*
X119015375Y-110642400D01*
X119020302Y-110647327D01*
X119253691Y-110744000D01*
X119506309Y-110744000D01*
X119739698Y-110647327D01*
X119918327Y-110468698D01*
X120015000Y-110235309D01*
X120015000Y-109982691D01*
X119918327Y-109749302D01*
X119739698Y-109570673D01*
X119506309Y-109474000D01*
X119253691Y-109474000D01*
X119020302Y-109570673D01*
X119015375Y-109575600D01*
X116508503Y-109575600D01*
X116124529Y-109191626D01*
X117100860Y-109191626D01*
X117105787Y-109196553D01*
X117339176Y-109293226D01*
X117591794Y-109293226D01*
X117825183Y-109196553D01*
X118003812Y-109017924D01*
X118100485Y-108784535D01*
X118100485Y-108679653D01*
X118139901Y-108695980D01*
X118392519Y-108695980D01*
X118625908Y-108599307D01*
X118804537Y-108420678D01*
X118878054Y-108243194D01*
X119013916Y-108379056D01*
X119247305Y-108475729D01*
X119499923Y-108475729D01*
X119733312Y-108379056D01*
X119911941Y-108200427D01*
X120008614Y-107967038D01*
X120008614Y-107714420D01*
X119911941Y-107481031D01*
X119746601Y-107315691D01*
X122428000Y-107315691D01*
X122428000Y-107568309D01*
X122524673Y-107801698D01*
X122703302Y-107980327D01*
X122936691Y-108077000D01*
X123189309Y-108077000D01*
X123422698Y-107980327D01*
X123601327Y-107801698D01*
X123698000Y-107568309D01*
X123698000Y-107315691D01*
X123601327Y-107082302D01*
X123422698Y-106903673D01*
X123189309Y-106807000D01*
X122936691Y-106807000D01*
X122703302Y-106903673D01*
X122524673Y-107082302D01*
X122428000Y-107315691D01*
X119746601Y-107315691D01*
X119733312Y-107302402D01*
X119499923Y-107205729D01*
X119247305Y-107205729D01*
X119013916Y-107302402D01*
X118835287Y-107481031D01*
X118788581Y-107593790D01*
X118768661Y-107493648D01*
X118650769Y-107317211D01*
X118606236Y-107287455D01*
X118263756Y-106944976D01*
X118233998Y-106900440D01*
X118057561Y-106782548D01*
X117901970Y-106751599D01*
X117901965Y-106751599D01*
X117849439Y-106741151D01*
X117836488Y-106743727D01*
X117836488Y-106599880D01*
X117739815Y-106366491D01*
X117673015Y-106299691D01*
X119761000Y-106299691D01*
X119761000Y-106552309D01*
X119857673Y-106785698D01*
X120036302Y-106964327D01*
X120269691Y-107061000D01*
X120522309Y-107061000D01*
X120755698Y-106964327D01*
X120934327Y-106785698D01*
X121031000Y-106552309D01*
X121031000Y-106299691D01*
X120934327Y-106066302D01*
X120755698Y-105887673D01*
X120522309Y-105791000D01*
X120269691Y-105791000D01*
X120036302Y-105887673D01*
X119857673Y-106066302D01*
X119761000Y-106299691D01*
X117673015Y-106299691D01*
X117561186Y-106187862D01*
X117327797Y-106091189D01*
X117075179Y-106091189D01*
X116841790Y-106187862D01*
X116663161Y-106366491D01*
X116566488Y-106599880D01*
X116566488Y-106751599D01*
X116203914Y-106751599D01*
X111093291Y-101640977D01*
X111063533Y-101596441D01*
X110887096Y-101478549D01*
X110731505Y-101447600D01*
X110731500Y-101447600D01*
X110701190Y-101441571D01*
X110834295Y-101308466D01*
X110930968Y-101075077D01*
X110930968Y-100822459D01*
X110834295Y-100589070D01*
X110655666Y-100410441D01*
X110422277Y-100313768D01*
X110169659Y-100313768D01*
X109936270Y-100410441D01*
X109757641Y-100589070D01*
X109660968Y-100822459D01*
X109660968Y-101075077D01*
X109757641Y-101308466D01*
X109896775Y-101447600D01*
X108801942Y-101447600D01*
X103893207Y-96538867D01*
X103941922Y-96293958D01*
X106103800Y-96293958D01*
X106103800Y-96644442D01*
X106237924Y-96968247D01*
X106485753Y-97216076D01*
X106809558Y-97350200D01*
X107160042Y-97350200D01*
X107483847Y-97216076D01*
X107731676Y-96968247D01*
X107865800Y-96644442D01*
X107865800Y-96293958D01*
X107731676Y-95970153D01*
X107483847Y-95722324D01*
X107160042Y-95588200D01*
X106809558Y-95588200D01*
X106485753Y-95722324D01*
X106237924Y-95970153D01*
X106103800Y-96293958D01*
X103941922Y-96293958D01*
X103946688Y-96270000D01*
X103864730Y-95857969D01*
X103631333Y-95508667D01*
X103282031Y-95275270D01*
X103255537Y-95270000D01*
X103282031Y-95264730D01*
X103631333Y-95031333D01*
X103783634Y-94803400D01*
X107003060Y-94803400D01*
X112691815Y-100492157D01*
X112543302Y-100553673D01*
X112364673Y-100732302D01*
X112268000Y-100965691D01*
X112268000Y-101218309D01*
X112364673Y-101451698D01*
X112543302Y-101630327D01*
X112776691Y-101727000D01*
X113029309Y-101727000D01*
X113262698Y-101630327D01*
X113441327Y-101451698D01*
X113502843Y-101303185D01*
X114567562Y-102367904D01*
X114553309Y-102362000D01*
X114300691Y-102362000D01*
X114067302Y-102458673D01*
X113888673Y-102637302D01*
X113792000Y-102870691D01*
X113792000Y-103123309D01*
X113888673Y-103356698D01*
X114067302Y-103535327D01*
X114300691Y-103632000D01*
X114553309Y-103632000D01*
X114786698Y-103535327D01*
X114965327Y-103356698D01*
X115062000Y-103123309D01*
X115062000Y-102870691D01*
X115056096Y-102856438D01*
X115409687Y-103210029D01*
X115439441Y-103254559D01*
X115483971Y-103284313D01*
X115483974Y-103284316D01*
X115584747Y-103351650D01*
X115615878Y-103372451D01*
X115771469Y-103403400D01*
X115771473Y-103403400D01*
X115824000Y-103413848D01*
X115876527Y-103403400D01*
X120827178Y-103403400D01*
X122092976Y-104669199D01*
X121940473Y-104821702D01*
X121843800Y-105055091D01*
X121843800Y-105307709D01*
X121940473Y-105541098D01*
X122119102Y-105719727D01*
X122352491Y-105816400D01*
X122359460Y-105816400D01*
X125264885Y-108721826D01*
X125294641Y-108766359D01*
X125471078Y-108884251D01*
X125626669Y-108915200D01*
X125626673Y-108915200D01*
X125679199Y-108925648D01*
X125731725Y-108915200D01*
X128700074Y-108915200D01*
X128752600Y-108925648D01*
X128805126Y-108915200D01*
X128805131Y-108915200D01*
X128960722Y-108884251D01*
X129137159Y-108766359D01*
X129166917Y-108721823D01*
X129355727Y-108533013D01*
X129400263Y-108503255D01*
X129518155Y-108326818D01*
X129549104Y-108171227D01*
X129549104Y-108171223D01*
X129559552Y-108118697D01*
X129549104Y-108066171D01*
X129549104Y-105580899D01*
X129667177Y-105698972D01*
X129900566Y-105795645D01*
X130153184Y-105795645D01*
X130386573Y-105698972D01*
X130565202Y-105520343D01*
X130658079Y-105296119D01*
X130665433Y-105291205D01*
X130783325Y-105114768D01*
X130814274Y-104959177D01*
X130814274Y-104959173D01*
X130824722Y-104906646D01*
X130814274Y-104854119D01*
X130814274Y-93733399D01*
X130824722Y-93680873D01*
X130814274Y-93628347D01*
X130814274Y-93628343D01*
X130783325Y-93472752D01*
X130725925Y-93386847D01*
X130695189Y-93340847D01*
X130695187Y-93340845D01*
X130665433Y-93296315D01*
X130620903Y-93266561D01*
X126659073Y-89304732D01*
X126765994Y-89326000D01*
X126974006Y-89326000D01*
X127282031Y-89264730D01*
X127631333Y-89031333D01*
X127864730Y-88682031D01*
X127870000Y-88655537D01*
X127875270Y-88682031D01*
X128108667Y-89031333D01*
X128457969Y-89264730D01*
X128765994Y-89326000D01*
X128974006Y-89326000D01*
X129282031Y-89264730D01*
X129631333Y-89031333D01*
X129864730Y-88682031D01*
X129870000Y-88655537D01*
X129875270Y-88682031D01*
X130108667Y-89031333D01*
X130457969Y-89264730D01*
X130765994Y-89326000D01*
X130974006Y-89326000D01*
X131282031Y-89264730D01*
X131631333Y-89031333D01*
X131864730Y-88682031D01*
X131870000Y-88655537D01*
X131875270Y-88682031D01*
X131875270Y-88682031D01*
G37*
X131875270Y-88682031D02*
X132108667Y-89031333D01*
X132457969Y-89264730D01*
X132765994Y-89326000D01*
X132974006Y-89326000D01*
X133080927Y-89304732D01*
X131988776Y-90396884D01*
X131944243Y-90426640D01*
X131914487Y-90471173D01*
X131914486Y-90471174D01*
X131826351Y-90603077D01*
X131784953Y-90811199D01*
X131795402Y-90863730D01*
X131795401Y-104933425D01*
X131784953Y-104985951D01*
X131795401Y-105038477D01*
X131795401Y-105038481D01*
X131826350Y-105194072D01*
X131944242Y-105370510D01*
X131951596Y-105375424D01*
X132044473Y-105599648D01*
X132223102Y-105778277D01*
X132456491Y-105874950D01*
X132709109Y-105874950D01*
X132942498Y-105778277D01*
X133121127Y-105599648D01*
X133195011Y-105421276D01*
X133239103Y-105465368D01*
X133472492Y-105562041D01*
X133725110Y-105562041D01*
X133958499Y-105465368D01*
X134080009Y-105343858D01*
X134239691Y-105410000D01*
X134483975Y-105410000D01*
X134641302Y-105567327D01*
X134874691Y-105664000D01*
X135127309Y-105664000D01*
X135360698Y-105567327D01*
X135539327Y-105388698D01*
X135636000Y-105155309D01*
X135636000Y-105148340D01*
X138643026Y-102141315D01*
X138687559Y-102111559D01*
X138709400Y-102078871D01*
X138709401Y-104655658D01*
X136057977Y-107307083D01*
X136013441Y-107336841D01*
X135895549Y-107513279D01*
X135864600Y-107668870D01*
X135864600Y-107668874D01*
X135854152Y-107721400D01*
X135864600Y-107773926D01*
X135864600Y-107950230D01*
X135690842Y-107776472D01*
X135457453Y-107679799D01*
X135204835Y-107679799D01*
X134971446Y-107776472D01*
X134792817Y-107955101D01*
X134696144Y-108188490D01*
X134696144Y-108441108D01*
X134792817Y-108674497D01*
X134971446Y-108853126D01*
X135204835Y-108949799D01*
X135457453Y-108949799D01*
X135690842Y-108853126D01*
X135864601Y-108679367D01*
X135864601Y-108795858D01*
X135110260Y-109550200D01*
X135103291Y-109550200D01*
X134869902Y-109646873D01*
X134691273Y-109825502D01*
X134594600Y-110058891D01*
X134594600Y-110311509D01*
X134691273Y-110544898D01*
X134869902Y-110723527D01*
X135103291Y-110820200D01*
X135355909Y-110820200D01*
X135589298Y-110723527D01*
X135767927Y-110544898D01*
X135864600Y-110311509D01*
X135864600Y-110304540D01*
X136423400Y-109745740D01*
X136423401Y-112113869D01*
X136412952Y-112166400D01*
X136454350Y-112374522D01*
X136538659Y-112500698D01*
X136572242Y-112550959D01*
X136616775Y-112580715D01*
X137048414Y-113012355D01*
X137078171Y-113056889D01*
X137254608Y-113174781D01*
X137337800Y-113191329D01*
X137337800Y-113385599D01*
X135826587Y-113385599D01*
X135793327Y-113305302D01*
X135614698Y-113126673D01*
X135381309Y-113030000D01*
X135128691Y-113030000D01*
X134895302Y-113126673D01*
X134716673Y-113305302D01*
X134620000Y-113538691D01*
X134620000Y-113791309D01*
X134716673Y-114024698D01*
X134895302Y-114203327D01*
X135119526Y-114296204D01*
X135124440Y-114303558D01*
X135300877Y-114421450D01*
X135456468Y-114452399D01*
X135456472Y-114452399D01*
X135508999Y-114462847D01*
X135561526Y-114452399D01*
X142365275Y-114452399D01*
X142417801Y-114462847D01*
X142470327Y-114452399D01*
X142470332Y-114452399D01*
X142625923Y-114421450D01*
X142802360Y-114303558D01*
X142832118Y-114259022D01*
X144002426Y-113088715D01*
X144046959Y-113058959D01*
X144087043Y-112998970D01*
X144108667Y-113031333D01*
X144457969Y-113264730D01*
X144484463Y-113270000D01*
X144457969Y-113275270D01*
X144108667Y-113508667D01*
X143875270Y-113857969D01*
X143793312Y-114270000D01*
X143875270Y-114682031D01*
X144108667Y-115031333D01*
X144457969Y-115264730D01*
X144484463Y-115270000D01*
X144457969Y-115275270D01*
X144108667Y-115508667D01*
X143875270Y-115857969D01*
X143793312Y-116270000D01*
X143875270Y-116682031D01*
X144108667Y-117031333D01*
X144457969Y-117264730D01*
X144484463Y-117270000D01*
X144457969Y-117275270D01*
X144108667Y-117508667D01*
X143875270Y-117857969D01*
X143793312Y-118270000D01*
X143875270Y-118682031D01*
X144108667Y-119031333D01*
X144457969Y-119264730D01*
X144484463Y-119270000D01*
X144457969Y-119275270D01*
X144108667Y-119508667D01*
X143875270Y-119857969D01*
X143793312Y-120270000D01*
X143875270Y-120682031D01*
X144108667Y-121031333D01*
X144457969Y-121264730D01*
X144484463Y-121270000D01*
X144457969Y-121275270D01*
X144108667Y-121508667D01*
X143875270Y-121857969D01*
X143793312Y-122270000D01*
X143875270Y-122682031D01*
X144108667Y-123031333D01*
X144457969Y-123264730D01*
X144484463Y-123270000D01*
X144457969Y-123275270D01*
X144108667Y-123508667D01*
X143875270Y-123857969D01*
X143793312Y-124270000D01*
X143875270Y-124682031D01*
X144108667Y-125031333D01*
X144457969Y-125264730D01*
X144484463Y-125270000D01*
X144457969Y-125275270D01*
X144108667Y-125508667D01*
X143875270Y-125857969D01*
X143793312Y-126270000D01*
X143875270Y-126682031D01*
X144108667Y-127031333D01*
X144457969Y-127264730D01*
X144484463Y-127270000D01*
X144457969Y-127275270D01*
X144108667Y-127508667D01*
X143956366Y-127736600D01*
X143476941Y-127736600D01*
X137726717Y-121986377D01*
X137696959Y-121941841D01*
X137520522Y-121823949D01*
X137364931Y-121793000D01*
X137364926Y-121793000D01*
X137312400Y-121782552D01*
X137259874Y-121793000D01*
X135962151Y-121793000D01*
X134809327Y-120640177D01*
X134779569Y-120595641D01*
X134603132Y-120477749D01*
X134447541Y-120446800D01*
X134447536Y-120446800D01*
X134395010Y-120436352D01*
X134386335Y-120438078D01*
X134162109Y-120345200D01*
X133909491Y-120345200D01*
X133676102Y-120441873D01*
X133497473Y-120620502D01*
X133400800Y-120853891D01*
X133400800Y-121106509D01*
X133497473Y-121339898D01*
X133676102Y-121518527D01*
X133909491Y-121615200D01*
X134162109Y-121615200D01*
X134242409Y-121581939D01*
X135326894Y-122666425D01*
X135356651Y-122710959D01*
X135533088Y-122828851D01*
X135688679Y-122859800D01*
X135688683Y-122859800D01*
X135741209Y-122870248D01*
X135793735Y-122859800D01*
X137091460Y-122859800D01*
X142841685Y-128610026D01*
X142871441Y-128654559D01*
X143047878Y-128772451D01*
X143203469Y-128803400D01*
X143203473Y-128803400D01*
X143256000Y-128813848D01*
X143308527Y-128803400D01*
X143956366Y-128803400D01*
X144108667Y-129031333D01*
X144457969Y-129264730D01*
X144765994Y-129326000D01*
X144974006Y-129326000D01*
X145282031Y-129264730D01*
X145631333Y-129031333D01*
X145864730Y-128682031D01*
X145870000Y-128655537D01*
X145875270Y-128682031D01*
X146108667Y-129031333D01*
X146456801Y-129263950D01*
X146456801Y-131876976D01*
X143933464Y-131875582D01*
X143933464Y-131595000D01*
X143903894Y-131446341D01*
X143819686Y-131320314D01*
X143744385Y-131270000D01*
X143819686Y-131219686D01*
X143903894Y-131093659D01*
X143933464Y-130945000D01*
X143933464Y-129595000D01*
X143903894Y-129446341D01*
X143819686Y-129320314D01*
X143693659Y-129236106D01*
X143545000Y-129206536D01*
X142195000Y-129206536D01*
X142046341Y-129236106D01*
X141920314Y-129320314D01*
X141836106Y-129446341D01*
X141806536Y-129595000D01*
X141806536Y-129770876D01*
X141631333Y-129508667D01*
X141282031Y-129275270D01*
X140974006Y-129214000D01*
X140765994Y-129214000D01*
X140457969Y-129275270D01*
X140108667Y-129508667D01*
X139875270Y-129857969D01*
X139870000Y-129884463D01*
X139864730Y-129857969D01*
X139631333Y-129508667D01*
X139282031Y-129275270D01*
X138974006Y-129214000D01*
X138765994Y-129214000D01*
X138457969Y-129275270D01*
X138108667Y-129508667D01*
X137875270Y-129857969D01*
X137870000Y-129884463D01*
X137864730Y-129857969D01*
X137631333Y-129508667D01*
X137282031Y-129275270D01*
X136974006Y-129214000D01*
X136765994Y-129214000D01*
X136457969Y-129275270D01*
X136108667Y-129508667D01*
X135875270Y-129857969D01*
X135870000Y-129884463D01*
X135864730Y-129857969D01*
X135631333Y-129508667D01*
X135282031Y-129275270D01*
X134974006Y-129214000D01*
X134765994Y-129214000D01*
X134457969Y-129275270D01*
X134108667Y-129508667D01*
X133875270Y-129857969D01*
X133870000Y-129884463D01*
X133864730Y-129857969D01*
X133631333Y-129508667D01*
X133282031Y-129275270D01*
X132974006Y-129214000D01*
X132765994Y-129214000D01*
X132457969Y-129275270D01*
X132108667Y-129508667D01*
X131875270Y-129857969D01*
X131870000Y-129884463D01*
X131864730Y-129857969D01*
X131631333Y-129508667D01*
X131403400Y-129356366D01*
X131403400Y-122163137D01*
X131413848Y-122110610D01*
X131403400Y-122058083D01*
X131403400Y-122058079D01*
X131372451Y-121902488D01*
X131284316Y-121770584D01*
X131284313Y-121770581D01*
X131254559Y-121726051D01*
X131210029Y-121696297D01*
X130624339Y-121110608D01*
X130657600Y-121030309D01*
X130657600Y-120921740D01*
X133265885Y-123530026D01*
X133295641Y-123574559D01*
X133472078Y-123692451D01*
X133627669Y-123723400D01*
X133627673Y-123723400D01*
X133680199Y-123733848D01*
X133732725Y-123723400D01*
X134382375Y-123723400D01*
X134387302Y-123728327D01*
X134620691Y-123825000D01*
X134873309Y-123825000D01*
X135106698Y-123728327D01*
X135285327Y-123549698D01*
X135382000Y-123316309D01*
X135382000Y-123063691D01*
X135285327Y-122830302D01*
X135106698Y-122651673D01*
X134873309Y-122555000D01*
X134620691Y-122555000D01*
X134387302Y-122651673D01*
X134382375Y-122656600D01*
X133901141Y-122656600D01*
X132726066Y-121481525D01*
X132820698Y-121442327D01*
X132999327Y-121263698D01*
X133096000Y-121030309D01*
X133096000Y-120777691D01*
X132999327Y-120544302D01*
X132820698Y-120365673D01*
X132587309Y-120269000D01*
X132334691Y-120269000D01*
X132101302Y-120365673D01*
X131922673Y-120544302D01*
X131883475Y-120638935D01*
X131006231Y-119761691D01*
X134366000Y-119761691D01*
X134366000Y-120014309D01*
X134462673Y-120247698D01*
X134641302Y-120426327D01*
X134874691Y-120523000D01*
X135127309Y-120523000D01*
X135360698Y-120426327D01*
X135415734Y-120371291D01*
X138328400Y-120371291D01*
X138328400Y-120623909D01*
X138425073Y-120857298D01*
X138603702Y-121035927D01*
X138837091Y-121132600D01*
X139089709Y-121132600D01*
X139323098Y-121035927D01*
X139501727Y-120857298D01*
X139598400Y-120623909D01*
X139598400Y-120371291D01*
X139501727Y-120137902D01*
X139323903Y-119960078D01*
X139424698Y-119918327D01*
X139603327Y-119739698D01*
X139700000Y-119506309D01*
X139700000Y-119253691D01*
X139603327Y-119020302D01*
X139424698Y-118841673D01*
X139191309Y-118745000D01*
X138938691Y-118745000D01*
X138705302Y-118841673D01*
X138526673Y-119020302D01*
X138430000Y-119253691D01*
X138430000Y-119506309D01*
X138526673Y-119739698D01*
X138704497Y-119917522D01*
X138603702Y-119959273D01*
X138425073Y-120137902D01*
X138328400Y-120371291D01*
X135415734Y-120371291D01*
X135539327Y-120247698D01*
X135636000Y-120014309D01*
X135636000Y-119761691D01*
X135539327Y-119528302D01*
X135360698Y-119349673D01*
X135127309Y-119253000D01*
X134874691Y-119253000D01*
X134641302Y-119349673D01*
X134462673Y-119528302D01*
X134366000Y-119761691D01*
X131006231Y-119761691D01*
X130894117Y-119649577D01*
X130864359Y-119605041D01*
X130687922Y-119487149D01*
X130532331Y-119456200D01*
X130532326Y-119456200D01*
X130479800Y-119445752D01*
X130427274Y-119456200D01*
X129236925Y-119456200D01*
X129184399Y-119445752D01*
X129131874Y-119456200D01*
X129131869Y-119456200D01*
X128976278Y-119487149D01*
X128799841Y-119605041D01*
X128770083Y-119649577D01*
X128666575Y-119753085D01*
X128622042Y-119782841D01*
X128592286Y-119827374D01*
X128592285Y-119827375D01*
X128504150Y-119959278D01*
X128462752Y-120167400D01*
X128473201Y-120219931D01*
X128473201Y-120269000D01*
X128321481Y-120269000D01*
X128088092Y-120365673D01*
X127909463Y-120544302D01*
X127812790Y-120777691D01*
X127812790Y-121030309D01*
X127909463Y-121263698D01*
X128088092Y-121442327D01*
X128321481Y-121539000D01*
X128473201Y-121539000D01*
X128473200Y-122628934D01*
X128294709Y-122555000D01*
X128042091Y-122555000D01*
X127808702Y-122651673D01*
X127630073Y-122830302D01*
X127533400Y-123063691D01*
X127533400Y-123316309D01*
X127630073Y-123549698D01*
X127808702Y-123728327D01*
X128042091Y-123825000D01*
X128294709Y-123825000D01*
X128464427Y-123754701D01*
X128458000Y-123787010D01*
X128459726Y-123795685D01*
X128366848Y-124019911D01*
X128366848Y-124272529D01*
X128463521Y-124505918D01*
X128549713Y-124592110D01*
X128463521Y-124678302D01*
X128366848Y-124911691D01*
X128366848Y-124918659D01*
X128103024Y-125182484D01*
X128058488Y-125212242D01*
X127940596Y-125388680D01*
X127909647Y-125544271D01*
X127909647Y-125544275D01*
X127899199Y-125596801D01*
X127909647Y-125649327D01*
X127909648Y-128476010D01*
X127204976Y-129180684D01*
X127204973Y-129180686D01*
X127138866Y-129246793D01*
X126974006Y-129214000D01*
X126765994Y-129214000D01*
X126457969Y-129275270D01*
X126108667Y-129508667D01*
X125875270Y-129857969D01*
X125870000Y-129884463D01*
X125864730Y-129857969D01*
X125631333Y-129508667D01*
X125282031Y-129275270D01*
X124974006Y-129214000D01*
X124765994Y-129214000D01*
X124457969Y-129275270D01*
X124108667Y-129508667D01*
X123875270Y-129857969D01*
X123870000Y-129884463D01*
X123864730Y-129857969D01*
X123631333Y-129508667D01*
X123282031Y-129275270D01*
X122974006Y-129214000D01*
X122765994Y-129214000D01*
X122659073Y-129235268D01*
X123040141Y-128854200D01*
X125133690Y-128854200D01*
X125186216Y-128864648D01*
X125238742Y-128854200D01*
X125238747Y-128854200D01*
X125394338Y-128823251D01*
X125570775Y-128705359D01*
X125600533Y-128660823D01*
X126960197Y-127301160D01*
X127004731Y-127271403D01*
X127122623Y-127094966D01*
X127153572Y-126939375D01*
X127153572Y-126939371D01*
X127164020Y-126886845D01*
X127153572Y-126834319D01*
X127153572Y-123994496D01*
X127241526Y-123782157D01*
X127241526Y-123529539D01*
X127144853Y-123296150D01*
X126966224Y-123117521D01*
X126732835Y-123020848D01*
X126700054Y-123020848D01*
X126621127Y-122830302D01*
X126442498Y-122651673D01*
X126209109Y-122555000D01*
X125956491Y-122555000D01*
X125723102Y-122651673D01*
X125544473Y-122830302D01*
X125540740Y-122839315D01*
X125502666Y-122801241D01*
X125269277Y-122704568D01*
X125016659Y-122704568D01*
X124783270Y-122801241D01*
X124604641Y-122979870D01*
X124571381Y-123060167D01*
X123598958Y-123060167D01*
X123546432Y-123049719D01*
X123493906Y-123060167D01*
X123493902Y-123060167D01*
X123338311Y-123091116D01*
X123161874Y-123209008D01*
X123132118Y-123253541D01*
X117204976Y-129180684D01*
X117204973Y-129180686D01*
X117138866Y-129246793D01*
X116974006Y-129214000D01*
X116765994Y-129214000D01*
X116659072Y-129235268D01*
X124431541Y-121462800D01*
X124654175Y-121462800D01*
X124659102Y-121467727D01*
X124892491Y-121564400D01*
X125145109Y-121564400D01*
X125378498Y-121467727D01*
X125557127Y-121289098D01*
X125653800Y-121055709D01*
X125653800Y-120803091D01*
X125557127Y-120569702D01*
X125378498Y-120391073D01*
X125145109Y-120294400D01*
X124892491Y-120294400D01*
X124659102Y-120391073D01*
X124654175Y-120396000D01*
X124263125Y-120396000D01*
X124210599Y-120385552D01*
X124158073Y-120396000D01*
X124158069Y-120396000D01*
X124002478Y-120426949D01*
X123826041Y-120544841D01*
X123796285Y-120589374D01*
X115138867Y-129246793D01*
X114974006Y-129214000D01*
X114765994Y-129214000D01*
X114457969Y-129275270D01*
X114108667Y-129508667D01*
X113875270Y-129857969D01*
X113870000Y-129884463D01*
X113864730Y-129857969D01*
X113631333Y-129508667D01*
X113282031Y-129275270D01*
X112974006Y-129214000D01*
X112765994Y-129214000D01*
X112457969Y-129275270D01*
X112108667Y-129508667D01*
X111875270Y-129857969D01*
X111870000Y-129884463D01*
X111864730Y-129857969D01*
X111631333Y-129508667D01*
X111282031Y-129275270D01*
X110974006Y-129214000D01*
X110765994Y-129214000D01*
X110457969Y-129275270D01*
X110108667Y-129508667D01*
X109875270Y-129857969D01*
X109870000Y-129884463D01*
X109864730Y-129857969D01*
X109631333Y-129508667D01*
X109282031Y-129275270D01*
X108974006Y-129214000D01*
X108765994Y-129214000D01*
X108457969Y-129275270D01*
X108108667Y-129508667D01*
X107875270Y-129857969D01*
X107870000Y-129884463D01*
X107864730Y-129857969D01*
X107631333Y-129508667D01*
X107282031Y-129275270D01*
X106974006Y-129214000D01*
X106765994Y-129214000D01*
X106457969Y-129275270D01*
X106108667Y-129508667D01*
X105875270Y-129857969D01*
X105870000Y-129884463D01*
X105864730Y-129857969D01*
X105631333Y-129508667D01*
X105282031Y-129275270D01*
X104974006Y-129214000D01*
X104765994Y-129214000D01*
X104457969Y-129275270D01*
X104108667Y-129508667D01*
X103875270Y-129857969D01*
X103793312Y-130270000D01*
X103875270Y-130682031D01*
X104108667Y-131031333D01*
X104457969Y-131264730D01*
X104484463Y-131270000D01*
X104457969Y-131275270D01*
X104108667Y-131508667D01*
X103878288Y-131853452D01*
X101294576Y-131852024D01*
X101293185Y-129333464D01*
X101545000Y-129333464D01*
X101693659Y-129303894D01*
X101819686Y-129219686D01*
X101870000Y-129144385D01*
X101920314Y-129219686D01*
X102046341Y-129303894D01*
X102195000Y-129333464D01*
X103545000Y-129333464D01*
X103693659Y-129303894D01*
X103819686Y-129219686D01*
X103903894Y-129093659D01*
X103933464Y-128945000D01*
X103933464Y-127595000D01*
X103903894Y-127446341D01*
X103819686Y-127320314D01*
X103693659Y-127236106D01*
X103545000Y-127206536D01*
X103369124Y-127206536D01*
X103631333Y-127031333D01*
X103864730Y-126682031D01*
X103946688Y-126270000D01*
X103893207Y-126001133D01*
X108276582Y-121617758D01*
X109863000Y-121617758D01*
X109863000Y-121968242D01*
X109997124Y-122292047D01*
X110244953Y-122539876D01*
X110568758Y-122674000D01*
X110919242Y-122674000D01*
X111243047Y-122539876D01*
X111490876Y-122292047D01*
X111625000Y-121968242D01*
X111625000Y-121617758D01*
X111561101Y-121463491D01*
X120599200Y-121463491D01*
X120599200Y-121716109D01*
X120695873Y-121949498D01*
X120874502Y-122128127D01*
X121107891Y-122224800D01*
X121360509Y-122224800D01*
X121593898Y-122128127D01*
X121772527Y-121949498D01*
X121869200Y-121716109D01*
X121869200Y-121463491D01*
X121772527Y-121230102D01*
X121593898Y-121051473D01*
X121360509Y-120954800D01*
X121107891Y-120954800D01*
X120874502Y-121051473D01*
X120695873Y-121230102D01*
X120599200Y-121463491D01*
X111561101Y-121463491D01*
X111490876Y-121293953D01*
X111243047Y-121046124D01*
X110919242Y-120912000D01*
X110568758Y-120912000D01*
X110244953Y-121046124D01*
X109997124Y-121293953D01*
X109863000Y-121617758D01*
X108276582Y-121617758D01*
X109853249Y-120041091D01*
X118973600Y-120041091D01*
X118973600Y-120293709D01*
X119070273Y-120527098D01*
X119248902Y-120705727D01*
X119482291Y-120802400D01*
X119734909Y-120802400D01*
X119968298Y-120705727D01*
X120146927Y-120527098D01*
X120243600Y-120293709D01*
X120243600Y-120041091D01*
X120146927Y-119807702D01*
X119968298Y-119629073D01*
X119734909Y-119532400D01*
X119482291Y-119532400D01*
X119248902Y-119629073D01*
X119070273Y-119807702D01*
X118973600Y-120041091D01*
X109853249Y-120041091D01*
X110717531Y-119176810D01*
X115337324Y-119176810D01*
X115316000Y-119228291D01*
X115316000Y-119480909D01*
X115412673Y-119714298D01*
X115591302Y-119892927D01*
X115824691Y-119989600D01*
X116077309Y-119989600D01*
X116216826Y-119931810D01*
X116356342Y-119989600D01*
X116608960Y-119989600D01*
X116842349Y-119892927D01*
X117015536Y-119719741D01*
X117188722Y-119892927D01*
X117422111Y-119989600D01*
X117674729Y-119989600D01*
X117908118Y-119892927D01*
X117981605Y-119819440D01*
X118055092Y-119892927D01*
X118288481Y-119989600D01*
X118541099Y-119989600D01*
X118774488Y-119892927D01*
X118953117Y-119714298D01*
X119049790Y-119480909D01*
X119049790Y-119278410D01*
X119099909Y-119278410D01*
X119333298Y-119181737D01*
X119511927Y-119003108D01*
X119608600Y-118769719D01*
X119608600Y-118618000D01*
X121025664Y-118618000D01*
X121078190Y-118628448D01*
X121130716Y-118618000D01*
X121130721Y-118618000D01*
X121286312Y-118587051D01*
X121462749Y-118469159D01*
X121492507Y-118424623D01*
X121637192Y-118279939D01*
X121717491Y-118313200D01*
X121970109Y-118313200D01*
X122203498Y-118216527D01*
X122351800Y-118068225D01*
X122351800Y-118270059D01*
X121572060Y-119049800D01*
X121565091Y-119049800D01*
X121331702Y-119146473D01*
X121153073Y-119325102D01*
X121056400Y-119558491D01*
X121056400Y-119811109D01*
X121153073Y-120044498D01*
X121331702Y-120223127D01*
X121565091Y-120319800D01*
X121817709Y-120319800D01*
X122051098Y-120223127D01*
X122229727Y-120044498D01*
X122326400Y-119811109D01*
X122326400Y-119804140D01*
X123225226Y-118905315D01*
X123269759Y-118875559D01*
X123387651Y-118699122D01*
X123418600Y-118543531D01*
X123418600Y-118543527D01*
X123429048Y-118491001D01*
X123418600Y-118438475D01*
X123418600Y-117857725D01*
X123429048Y-117805199D01*
X123418600Y-117752673D01*
X123418600Y-117752669D01*
X123387651Y-117597078D01*
X123269759Y-117420641D01*
X123225225Y-117390884D01*
X122181917Y-116347577D01*
X122152159Y-116303041D01*
X122076060Y-116252193D01*
X122178098Y-116209927D01*
X122356727Y-116031298D01*
X122453400Y-115797909D01*
X122453400Y-115545291D01*
X122356727Y-115311902D01*
X122178098Y-115133273D01*
X121944709Y-115036600D01*
X121937741Y-115036600D01*
X121664173Y-114763033D01*
X121634415Y-114718497D01*
X121457978Y-114600605D01*
X121302387Y-114569656D01*
X121302382Y-114569656D01*
X121249856Y-114559208D01*
X121197330Y-114569656D01*
X104089469Y-114569656D01*
X104036943Y-114559208D01*
X103984417Y-114569656D01*
X103984413Y-114569656D01*
X103883073Y-114589814D01*
X103946688Y-114270000D01*
X103864730Y-113857969D01*
X103631333Y-113508667D01*
X103282031Y-113275270D01*
X103255537Y-113270000D01*
X103282031Y-113264730D01*
X103631333Y-113031333D01*
X103711543Y-112911290D01*
X103890878Y-113090625D01*
X103920635Y-113135159D01*
X104097072Y-113253051D01*
X104252663Y-113284000D01*
X104252667Y-113284000D01*
X104305193Y-113294448D01*
X104357719Y-113284000D01*
X115839570Y-113284000D01*
X115667502Y-113355273D01*
X115488873Y-113533902D01*
X115392200Y-113767291D01*
X115392200Y-114019909D01*
X115488873Y-114253298D01*
X115667502Y-114431927D01*
X115900891Y-114528600D01*
X116153509Y-114528600D01*
X116293026Y-114470810D01*
X116432542Y-114528600D01*
X116685160Y-114528600D01*
X116918549Y-114431927D01*
X117097178Y-114253298D01*
X117193851Y-114019909D01*
X117193851Y-113767291D01*
X117097178Y-113533902D01*
X116918549Y-113355273D01*
X116746481Y-113284000D01*
X118451470Y-113284000D01*
X118752861Y-113585392D01*
X118719600Y-113665691D01*
X118719600Y-113918309D01*
X118816273Y-114151698D01*
X118994902Y-114330327D01*
X119228291Y-114427000D01*
X119480909Y-114427000D01*
X119714298Y-114330327D01*
X119892927Y-114151698D01*
X119989600Y-113918309D01*
X119989600Y-113665691D01*
X119896722Y-113441465D01*
X119898448Y-113432789D01*
X119888000Y-113380263D01*
X119888000Y-113380260D01*
X119857051Y-113224668D01*
X119739159Y-113048231D01*
X119694625Y-113018474D01*
X119086727Y-112410577D01*
X119056969Y-112366041D01*
X118880532Y-112248149D01*
X118724941Y-112217200D01*
X118724936Y-112217200D01*
X118672410Y-112206752D01*
X118619884Y-112217200D01*
X112904323Y-112217200D01*
X112955123Y-112166400D01*
X120577850Y-112166400D01*
X121400474Y-112989025D01*
X121430231Y-113033559D01*
X121474764Y-113063315D01*
X121566032Y-113124299D01*
X121560302Y-113126673D01*
X121381673Y-113305302D01*
X121285000Y-113538691D01*
X121285000Y-113791309D01*
X121381673Y-114024698D01*
X121560302Y-114203327D01*
X121793691Y-114300000D01*
X122046309Y-114300000D01*
X122279698Y-114203327D01*
X122458327Y-114024698D01*
X122555000Y-113791309D01*
X122555000Y-113538691D01*
X122458327Y-113305302D01*
X122396982Y-113243957D01*
X122533698Y-113187327D01*
X122712327Y-113008698D01*
X122809000Y-112775309D01*
X122809000Y-112522691D01*
X122712327Y-112289302D01*
X122533698Y-112110673D01*
X122301978Y-112014691D01*
X134620000Y-112014691D01*
X134620000Y-112267309D01*
X134716673Y-112500698D01*
X134895302Y-112679327D01*
X135128691Y-112776000D01*
X135381309Y-112776000D01*
X135614698Y-112679327D01*
X135793327Y-112500698D01*
X135890000Y-112267309D01*
X135890000Y-112014691D01*
X135793327Y-111781302D01*
X135614698Y-111602673D01*
X135381309Y-111506000D01*
X135128691Y-111506000D01*
X134895302Y-111602673D01*
X134716673Y-111781302D01*
X134620000Y-112014691D01*
X122301978Y-112014691D01*
X122300309Y-112014000D01*
X122047691Y-112014000D01*
X121967392Y-112047261D01*
X121934131Y-112014000D01*
X121995509Y-112014000D01*
X122228898Y-111917327D01*
X122407527Y-111738698D01*
X122504200Y-111505309D01*
X122504200Y-111252691D01*
X122407527Y-111019302D01*
X122228898Y-110840673D01*
X121995509Y-110744000D01*
X121742891Y-110744000D01*
X121509502Y-110840673D01*
X121330873Y-111019302D01*
X121234200Y-111252691D01*
X121234200Y-111314070D01*
X121213107Y-111292977D01*
X121183349Y-111248441D01*
X121006912Y-111130549D01*
X120851321Y-111099600D01*
X120851316Y-111099600D01*
X120798790Y-111089152D01*
X120746264Y-111099600D01*
X113047089Y-111099600D01*
X113040276Y-111083153D01*
X112792447Y-110835324D01*
X112468642Y-110701200D01*
X112118158Y-110701200D01*
X111794353Y-110835324D01*
X111546524Y-111083153D01*
X111539711Y-111099600D01*
X106453941Y-111099600D01*
X103893207Y-108538867D01*
X103946688Y-108270000D01*
X103864730Y-107857969D01*
X103631333Y-107508667D01*
X103282031Y-107275270D01*
X103255537Y-107270000D01*
X103282031Y-107264730D01*
X103631333Y-107031333D01*
X103864730Y-106682031D01*
X103946688Y-106270000D01*
X103864730Y-105857969D01*
X103631333Y-105508667D01*
X103282031Y-105275270D01*
X103255537Y-105270000D01*
X103282031Y-105264730D01*
X103631333Y-105031333D01*
X103864730Y-104682031D01*
X103946688Y-104270000D01*
X103864730Y-103857969D01*
X103631333Y-103508667D01*
X103282031Y-103275270D01*
X103255537Y-103270000D01*
X103282031Y-103264730D01*
X103631333Y-103031333D01*
X103864730Y-102682031D01*
X103946688Y-102270000D01*
X103904732Y-102059072D01*
X106514658Y-104668999D01*
X106544415Y-104713533D01*
X106720852Y-104831425D01*
X106876443Y-104862374D01*
X106876447Y-104862374D01*
X106928973Y-104872822D01*
X106981499Y-104862374D01*
X110286596Y-104862374D01*
X112866222Y-107442000D01*
X112649691Y-107442000D01*
X112416302Y-107538673D01*
X112237673Y-107717302D01*
X112141000Y-107950691D01*
X112141000Y-108203309D01*
X112237673Y-108436698D01*
X112416302Y-108615327D01*
X112649691Y-108712000D01*
X112902309Y-108712000D01*
X113135698Y-108615327D01*
X113314327Y-108436698D01*
X113411000Y-108203309D01*
X113411000Y-107986779D01*
X115873247Y-110449026D01*
X115903003Y-110493559D01*
X116079440Y-110611451D01*
X116235031Y-110642400D01*
X116235035Y-110642400D01*
X116287561Y-110652848D01*
X116340087Y-110642400D01*
X119015375Y-110642400D01*
X119020302Y-110647327D01*
X119253691Y-110744000D01*
X119506309Y-110744000D01*
X119739698Y-110647327D01*
X119918327Y-110468698D01*
X120015000Y-110235309D01*
X120015000Y-109982691D01*
X119918327Y-109749302D01*
X119739698Y-109570673D01*
X119506309Y-109474000D01*
X119253691Y-109474000D01*
X119020302Y-109570673D01*
X119015375Y-109575600D01*
X116508503Y-109575600D01*
X116124529Y-109191626D01*
X117100860Y-109191626D01*
X117105787Y-109196553D01*
X117339176Y-109293226D01*
X117591794Y-109293226D01*
X117825183Y-109196553D01*
X118003812Y-109017924D01*
X118100485Y-108784535D01*
X118100485Y-108679653D01*
X118139901Y-108695980D01*
X118392519Y-108695980D01*
X118625908Y-108599307D01*
X118804537Y-108420678D01*
X118878054Y-108243194D01*
X119013916Y-108379056D01*
X119247305Y-108475729D01*
X119499923Y-108475729D01*
X119733312Y-108379056D01*
X119911941Y-108200427D01*
X120008614Y-107967038D01*
X120008614Y-107714420D01*
X119911941Y-107481031D01*
X119746601Y-107315691D01*
X122428000Y-107315691D01*
X122428000Y-107568309D01*
X122524673Y-107801698D01*
X122703302Y-107980327D01*
X122936691Y-108077000D01*
X123189309Y-108077000D01*
X123422698Y-107980327D01*
X123601327Y-107801698D01*
X123698000Y-107568309D01*
X123698000Y-107315691D01*
X123601327Y-107082302D01*
X123422698Y-106903673D01*
X123189309Y-106807000D01*
X122936691Y-106807000D01*
X122703302Y-106903673D01*
X122524673Y-107082302D01*
X122428000Y-107315691D01*
X119746601Y-107315691D01*
X119733312Y-107302402D01*
X119499923Y-107205729D01*
X119247305Y-107205729D01*
X119013916Y-107302402D01*
X118835287Y-107481031D01*
X118788581Y-107593790D01*
X118768661Y-107493648D01*
X118650769Y-107317211D01*
X118606236Y-107287455D01*
X118263756Y-106944976D01*
X118233998Y-106900440D01*
X118057561Y-106782548D01*
X117901970Y-106751599D01*
X117901965Y-106751599D01*
X117849439Y-106741151D01*
X117836488Y-106743727D01*
X117836488Y-106599880D01*
X117739815Y-106366491D01*
X117673015Y-106299691D01*
X119761000Y-106299691D01*
X119761000Y-106552309D01*
X119857673Y-106785698D01*
X120036302Y-106964327D01*
X120269691Y-107061000D01*
X120522309Y-107061000D01*
X120755698Y-106964327D01*
X120934327Y-106785698D01*
X121031000Y-106552309D01*
X121031000Y-106299691D01*
X120934327Y-106066302D01*
X120755698Y-105887673D01*
X120522309Y-105791000D01*
X120269691Y-105791000D01*
X120036302Y-105887673D01*
X119857673Y-106066302D01*
X119761000Y-106299691D01*
X117673015Y-106299691D01*
X117561186Y-106187862D01*
X117327797Y-106091189D01*
X117075179Y-106091189D01*
X116841790Y-106187862D01*
X116663161Y-106366491D01*
X116566488Y-106599880D01*
X116566488Y-106751599D01*
X116203914Y-106751599D01*
X111093291Y-101640977D01*
X111063533Y-101596441D01*
X110887096Y-101478549D01*
X110731505Y-101447600D01*
X110731500Y-101447600D01*
X110701190Y-101441571D01*
X110834295Y-101308466D01*
X110930968Y-101075077D01*
X110930968Y-100822459D01*
X110834295Y-100589070D01*
X110655666Y-100410441D01*
X110422277Y-100313768D01*
X110169659Y-100313768D01*
X109936270Y-100410441D01*
X109757641Y-100589070D01*
X109660968Y-100822459D01*
X109660968Y-101075077D01*
X109757641Y-101308466D01*
X109896775Y-101447600D01*
X108801942Y-101447600D01*
X103893207Y-96538867D01*
X103941922Y-96293958D01*
X106103800Y-96293958D01*
X106103800Y-96644442D01*
X106237924Y-96968247D01*
X106485753Y-97216076D01*
X106809558Y-97350200D01*
X107160042Y-97350200D01*
X107483847Y-97216076D01*
X107731676Y-96968247D01*
X107865800Y-96644442D01*
X107865800Y-96293958D01*
X107731676Y-95970153D01*
X107483847Y-95722324D01*
X107160042Y-95588200D01*
X106809558Y-95588200D01*
X106485753Y-95722324D01*
X106237924Y-95970153D01*
X106103800Y-96293958D01*
X103941922Y-96293958D01*
X103946688Y-96270000D01*
X103864730Y-95857969D01*
X103631333Y-95508667D01*
X103282031Y-95275270D01*
X103255537Y-95270000D01*
X103282031Y-95264730D01*
X103631333Y-95031333D01*
X103783634Y-94803400D01*
X107003060Y-94803400D01*
X112691815Y-100492157D01*
X112543302Y-100553673D01*
X112364673Y-100732302D01*
X112268000Y-100965691D01*
X112268000Y-101218309D01*
X112364673Y-101451698D01*
X112543302Y-101630327D01*
X112776691Y-101727000D01*
X113029309Y-101727000D01*
X113262698Y-101630327D01*
X113441327Y-101451698D01*
X113502843Y-101303185D01*
X114567562Y-102367904D01*
X114553309Y-102362000D01*
X114300691Y-102362000D01*
X114067302Y-102458673D01*
X113888673Y-102637302D01*
X113792000Y-102870691D01*
X113792000Y-103123309D01*
X113888673Y-103356698D01*
X114067302Y-103535327D01*
X114300691Y-103632000D01*
X114553309Y-103632000D01*
X114786698Y-103535327D01*
X114965327Y-103356698D01*
X115062000Y-103123309D01*
X115062000Y-102870691D01*
X115056096Y-102856438D01*
X115409687Y-103210029D01*
X115439441Y-103254559D01*
X115483971Y-103284313D01*
X115483974Y-103284316D01*
X115584747Y-103351650D01*
X115615878Y-103372451D01*
X115771469Y-103403400D01*
X115771473Y-103403400D01*
X115824000Y-103413848D01*
X115876527Y-103403400D01*
X120827178Y-103403400D01*
X122092976Y-104669199D01*
X121940473Y-104821702D01*
X121843800Y-105055091D01*
X121843800Y-105307709D01*
X121940473Y-105541098D01*
X122119102Y-105719727D01*
X122352491Y-105816400D01*
X122359460Y-105816400D01*
X125264885Y-108721826D01*
X125294641Y-108766359D01*
X125471078Y-108884251D01*
X125626669Y-108915200D01*
X125626673Y-108915200D01*
X125679199Y-108925648D01*
X125731725Y-108915200D01*
X128700074Y-108915200D01*
X128752600Y-108925648D01*
X128805126Y-108915200D01*
X128805131Y-108915200D01*
X128960722Y-108884251D01*
X129137159Y-108766359D01*
X129166917Y-108721823D01*
X129355727Y-108533013D01*
X129400263Y-108503255D01*
X129518155Y-108326818D01*
X129549104Y-108171227D01*
X129549104Y-108171223D01*
X129559552Y-108118697D01*
X129549104Y-108066171D01*
X129549104Y-105580899D01*
X129667177Y-105698972D01*
X129900566Y-105795645D01*
X130153184Y-105795645D01*
X130386573Y-105698972D01*
X130565202Y-105520343D01*
X130658079Y-105296119D01*
X130665433Y-105291205D01*
X130783325Y-105114768D01*
X130814274Y-104959177D01*
X130814274Y-104959173D01*
X130824722Y-104906646D01*
X130814274Y-104854119D01*
X130814274Y-93733399D01*
X130824722Y-93680873D01*
X130814274Y-93628347D01*
X130814274Y-93628343D01*
X130783325Y-93472752D01*
X130725925Y-93386847D01*
X130695189Y-93340847D01*
X130695187Y-93340845D01*
X130665433Y-93296315D01*
X130620903Y-93266561D01*
X126659073Y-89304732D01*
X126765994Y-89326000D01*
X126974006Y-89326000D01*
X127282031Y-89264730D01*
X127631333Y-89031333D01*
X127864730Y-88682031D01*
X127870000Y-88655537D01*
X127875270Y-88682031D01*
X128108667Y-89031333D01*
X128457969Y-89264730D01*
X128765994Y-89326000D01*
X128974006Y-89326000D01*
X129282031Y-89264730D01*
X129631333Y-89031333D01*
X129864730Y-88682031D01*
X129870000Y-88655537D01*
X129875270Y-88682031D01*
X130108667Y-89031333D01*
X130457969Y-89264730D01*
X130765994Y-89326000D01*
X130974006Y-89326000D01*
X131282031Y-89264730D01*
X131631333Y-89031333D01*
X131864730Y-88682031D01*
X131870000Y-88655537D01*
X131875270Y-88682031D01*
G36*
X122523886Y-102639202D02*
X122519400Y-102650033D01*
X120037144Y-100167778D01*
X120007386Y-100123242D01*
X119830949Y-100005350D01*
X119675358Y-99974401D01*
X119675353Y-99974401D01*
X119622827Y-99963953D01*
X119570301Y-99974401D01*
X118189716Y-99974401D01*
X115573515Y-97358201D01*
X117242887Y-97358201D01*
X122523886Y-102639202D01*
X122523886Y-102639202D01*
G37*
X122523886Y-102639202D02*
X122519400Y-102650033D01*
X120037144Y-100167778D01*
X120007386Y-100123242D01*
X119830949Y-100005350D01*
X119675358Y-99974401D01*
X119675353Y-99974401D01*
X119622827Y-99963953D01*
X119570301Y-99974401D01*
X118189716Y-99974401D01*
X115573515Y-97358201D01*
X117242887Y-97358201D01*
X122523886Y-102639202D01*
G36*
X103806536Y-86666024D02*
X103806536Y-86945000D01*
X103836106Y-87093659D01*
X103920314Y-87219686D01*
X103995615Y-87270000D01*
X103920314Y-87320314D01*
X103836106Y-87446341D01*
X103806536Y-87595000D01*
X103806536Y-88945000D01*
X103836106Y-89093659D01*
X103920314Y-89219686D01*
X104046341Y-89303894D01*
X104195000Y-89333464D01*
X104336600Y-89333464D01*
X104336600Y-89482469D01*
X104326151Y-89535000D01*
X104367549Y-89743122D01*
X104444288Y-89857969D01*
X104485441Y-89919559D01*
X104661878Y-90037451D01*
X104870000Y-90078849D01*
X104922530Y-90068400D01*
X105695187Y-90068400D01*
X105664000Y-90143691D01*
X105664000Y-90396309D01*
X105760673Y-90629698D01*
X105939302Y-90808327D01*
X106172691Y-90905000D01*
X106425309Y-90905000D01*
X106658698Y-90808327D01*
X106837327Y-90629698D01*
X106934000Y-90396309D01*
X106934000Y-90184314D01*
X112109330Y-95359645D01*
X111983673Y-95485302D01*
X111887000Y-95718691D01*
X111887000Y-95971309D01*
X111983673Y-96204698D01*
X112044975Y-96266000D01*
X112023673Y-96287302D01*
X111927000Y-96520691D01*
X111927000Y-96773309D01*
X112023673Y-97006698D01*
X112202302Y-97185327D01*
X112435691Y-97282000D01*
X112688309Y-97282000D01*
X112921698Y-97185327D01*
X113100327Y-97006698D01*
X113197000Y-96773309D01*
X113197000Y-96520691D01*
X113175557Y-96468923D01*
X116838881Y-100132248D01*
X116807228Y-100121688D01*
X116356825Y-100153583D01*
X116088848Y-100264583D01*
X116051701Y-100479696D01*
X116662200Y-101090195D01*
X116676343Y-101076053D01*
X116855948Y-101255658D01*
X116841805Y-101269800D01*
X117452304Y-101880299D01*
X117486388Y-101874413D01*
X117623302Y-102011327D01*
X117856691Y-102108000D01*
X118109309Y-102108000D01*
X118342698Y-102011327D01*
X118521327Y-101832698D01*
X118618000Y-101599309D01*
X118618000Y-101346691D01*
X118521327Y-101113302D01*
X118449226Y-101041201D01*
X119294774Y-101041201D01*
X119222673Y-101113302D01*
X119126000Y-101346691D01*
X119126000Y-101599309D01*
X119222673Y-101832698D01*
X119401302Y-102011327D01*
X119634691Y-102108000D01*
X119887309Y-102108000D01*
X120120698Y-102011327D01*
X120246355Y-101885670D01*
X120697285Y-102336600D01*
X117086878Y-102336600D01*
X117235552Y-102275017D01*
X117272699Y-102059904D01*
X116662200Y-101449405D01*
X116051701Y-102059904D01*
X116088848Y-102275017D01*
X116273441Y-102336600D01*
X116044942Y-102336600D01*
X114833114Y-101124772D01*
X115514088Y-101124772D01*
X115545983Y-101575175D01*
X115656983Y-101843152D01*
X115872096Y-101880299D01*
X116482595Y-101269800D01*
X115872096Y-100659301D01*
X115656983Y-100696448D01*
X115514088Y-101124772D01*
X114833114Y-101124772D01*
X114162552Y-100454211D01*
X114262639Y-100495668D01*
X114515257Y-100495668D01*
X114748646Y-100398995D01*
X114927275Y-100220366D01*
X115023948Y-99986977D01*
X115023948Y-99734359D01*
X114927275Y-99500970D01*
X114748646Y-99322341D01*
X114515257Y-99225668D01*
X114262639Y-99225668D01*
X114029250Y-99322341D01*
X113850621Y-99500970D01*
X113753948Y-99734359D01*
X113753948Y-99986977D01*
X113795405Y-100087064D01*
X112098184Y-98389843D01*
X112246698Y-98328327D01*
X112425327Y-98149698D01*
X112468822Y-98044691D01*
X113030000Y-98044691D01*
X113030000Y-98297309D01*
X113126673Y-98530698D01*
X113305302Y-98709327D01*
X113538691Y-98806000D01*
X113791309Y-98806000D01*
X114024698Y-98709327D01*
X114203327Y-98530698D01*
X114300000Y-98297309D01*
X114300000Y-98044691D01*
X114203327Y-97811302D01*
X114024698Y-97632673D01*
X113791309Y-97536000D01*
X113538691Y-97536000D01*
X113305302Y-97632673D01*
X113126673Y-97811302D01*
X113030000Y-98044691D01*
X112468822Y-98044691D01*
X112522000Y-97916309D01*
X112522000Y-97663691D01*
X112425327Y-97430302D01*
X112246698Y-97251673D01*
X112013309Y-97155000D01*
X111760691Y-97155000D01*
X111527302Y-97251673D01*
X111348673Y-97430302D01*
X111287157Y-97578816D01*
X109339340Y-95631000D01*
X109346309Y-95631000D01*
X109579698Y-95534327D01*
X109758327Y-95355698D01*
X109855000Y-95122309D01*
X109855000Y-94869691D01*
X109758327Y-94636302D01*
X109579698Y-94457673D01*
X109346309Y-94361000D01*
X109093691Y-94361000D01*
X108860302Y-94457673D01*
X108681673Y-94636302D01*
X108585000Y-94869691D01*
X108585000Y-94876660D01*
X107638317Y-93929977D01*
X107608559Y-93885441D01*
X107432122Y-93767549D01*
X107336150Y-93748459D01*
X107610847Y-93634676D01*
X107858676Y-93386847D01*
X107992800Y-93063042D01*
X107992800Y-92712558D01*
X107858676Y-92388753D01*
X107610847Y-92140924D01*
X107287042Y-92006800D01*
X106936558Y-92006800D01*
X106612753Y-92140924D01*
X106364924Y-92388753D01*
X106230800Y-92712558D01*
X106230800Y-93063042D01*
X106364924Y-93386847D01*
X106612753Y-93634676D01*
X106858820Y-93736600D01*
X103783634Y-93736600D01*
X103631333Y-93508667D01*
X103282031Y-93275270D01*
X103255537Y-93270000D01*
X103282031Y-93264730D01*
X103631333Y-93031333D01*
X103756693Y-92843718D01*
X103780302Y-92867327D01*
X104013691Y-92964000D01*
X104266309Y-92964000D01*
X104499698Y-92867327D01*
X104648000Y-92719025D01*
X104796302Y-92867327D01*
X105029691Y-92964000D01*
X105282309Y-92964000D01*
X105515698Y-92867327D01*
X105694327Y-92688698D01*
X105791000Y-92455309D01*
X105791000Y-92202691D01*
X105694327Y-91969302D01*
X105515698Y-91790673D01*
X105282309Y-91694000D01*
X105029691Y-91694000D01*
X104796302Y-91790673D01*
X104648000Y-91938975D01*
X104499698Y-91790673D01*
X104266309Y-91694000D01*
X104013691Y-91694000D01*
X103811210Y-91777871D01*
X103631333Y-91508667D01*
X103282031Y-91275270D01*
X103255537Y-91270000D01*
X103282031Y-91264730D01*
X103631333Y-91031333D01*
X103864730Y-90682031D01*
X103946688Y-90270000D01*
X103864730Y-89857969D01*
X103631333Y-89508667D01*
X103282031Y-89275270D01*
X102974006Y-89214000D01*
X102765994Y-89214000D01*
X102457969Y-89275270D01*
X102108667Y-89508667D01*
X101875270Y-89857969D01*
X101870000Y-89884463D01*
X101864730Y-89857969D01*
X101631333Y-89508667D01*
X101282031Y-89275270D01*
X101271064Y-89273089D01*
X101269624Y-86664624D01*
X103806536Y-86666024D01*
X103806536Y-86666024D01*
G37*
X103806536Y-86666024D02*
X103806536Y-86945000D01*
X103836106Y-87093659D01*
X103920314Y-87219686D01*
X103995615Y-87270000D01*
X103920314Y-87320314D01*
X103836106Y-87446341D01*
X103806536Y-87595000D01*
X103806536Y-88945000D01*
X103836106Y-89093659D01*
X103920314Y-89219686D01*
X104046341Y-89303894D01*
X104195000Y-89333464D01*
X104336600Y-89333464D01*
X104336600Y-89482469D01*
X104326151Y-89535000D01*
X104367549Y-89743122D01*
X104444288Y-89857969D01*
X104485441Y-89919559D01*
X104661878Y-90037451D01*
X104870000Y-90078849D01*
X104922530Y-90068400D01*
X105695187Y-90068400D01*
X105664000Y-90143691D01*
X105664000Y-90396309D01*
X105760673Y-90629698D01*
X105939302Y-90808327D01*
X106172691Y-90905000D01*
X106425309Y-90905000D01*
X106658698Y-90808327D01*
X106837327Y-90629698D01*
X106934000Y-90396309D01*
X106934000Y-90184314D01*
X112109330Y-95359645D01*
X111983673Y-95485302D01*
X111887000Y-95718691D01*
X111887000Y-95971309D01*
X111983673Y-96204698D01*
X112044975Y-96266000D01*
X112023673Y-96287302D01*
X111927000Y-96520691D01*
X111927000Y-96773309D01*
X112023673Y-97006698D01*
X112202302Y-97185327D01*
X112435691Y-97282000D01*
X112688309Y-97282000D01*
X112921698Y-97185327D01*
X113100327Y-97006698D01*
X113197000Y-96773309D01*
X113197000Y-96520691D01*
X113175557Y-96468923D01*
X116838881Y-100132248D01*
X116807228Y-100121688D01*
X116356825Y-100153583D01*
X116088848Y-100264583D01*
X116051701Y-100479696D01*
X116662200Y-101090195D01*
X116676343Y-101076053D01*
X116855948Y-101255658D01*
X116841805Y-101269800D01*
X117452304Y-101880299D01*
X117486388Y-101874413D01*
X117623302Y-102011327D01*
X117856691Y-102108000D01*
X118109309Y-102108000D01*
X118342698Y-102011327D01*
X118521327Y-101832698D01*
X118618000Y-101599309D01*
X118618000Y-101346691D01*
X118521327Y-101113302D01*
X118449226Y-101041201D01*
X119294774Y-101041201D01*
X119222673Y-101113302D01*
X119126000Y-101346691D01*
X119126000Y-101599309D01*
X119222673Y-101832698D01*
X119401302Y-102011327D01*
X119634691Y-102108000D01*
X119887309Y-102108000D01*
X120120698Y-102011327D01*
X120246355Y-101885670D01*
X120697285Y-102336600D01*
X117086878Y-102336600D01*
X117235552Y-102275017D01*
X117272699Y-102059904D01*
X116662200Y-101449405D01*
X116051701Y-102059904D01*
X116088848Y-102275017D01*
X116273441Y-102336600D01*
X116044942Y-102336600D01*
X114833114Y-101124772D01*
X115514088Y-101124772D01*
X115545983Y-101575175D01*
X115656983Y-101843152D01*
X115872096Y-101880299D01*
X116482595Y-101269800D01*
X115872096Y-100659301D01*
X115656983Y-100696448D01*
X115514088Y-101124772D01*
X114833114Y-101124772D01*
X114162552Y-100454211D01*
X114262639Y-100495668D01*
X114515257Y-100495668D01*
X114748646Y-100398995D01*
X114927275Y-100220366D01*
X115023948Y-99986977D01*
X115023948Y-99734359D01*
X114927275Y-99500970D01*
X114748646Y-99322341D01*
X114515257Y-99225668D01*
X114262639Y-99225668D01*
X114029250Y-99322341D01*
X113850621Y-99500970D01*
X113753948Y-99734359D01*
X113753948Y-99986977D01*
X113795405Y-100087064D01*
X112098184Y-98389843D01*
X112246698Y-98328327D01*
X112425327Y-98149698D01*
X112468822Y-98044691D01*
X113030000Y-98044691D01*
X113030000Y-98297309D01*
X113126673Y-98530698D01*
X113305302Y-98709327D01*
X113538691Y-98806000D01*
X113791309Y-98806000D01*
X114024698Y-98709327D01*
X114203327Y-98530698D01*
X114300000Y-98297309D01*
X114300000Y-98044691D01*
X114203327Y-97811302D01*
X114024698Y-97632673D01*
X113791309Y-97536000D01*
X113538691Y-97536000D01*
X113305302Y-97632673D01*
X113126673Y-97811302D01*
X113030000Y-98044691D01*
X112468822Y-98044691D01*
X112522000Y-97916309D01*
X112522000Y-97663691D01*
X112425327Y-97430302D01*
X112246698Y-97251673D01*
X112013309Y-97155000D01*
X111760691Y-97155000D01*
X111527302Y-97251673D01*
X111348673Y-97430302D01*
X111287157Y-97578816D01*
X109339340Y-95631000D01*
X109346309Y-95631000D01*
X109579698Y-95534327D01*
X109758327Y-95355698D01*
X109855000Y-95122309D01*
X109855000Y-94869691D01*
X109758327Y-94636302D01*
X109579698Y-94457673D01*
X109346309Y-94361000D01*
X109093691Y-94361000D01*
X108860302Y-94457673D01*
X108681673Y-94636302D01*
X108585000Y-94869691D01*
X108585000Y-94876660D01*
X107638317Y-93929977D01*
X107608559Y-93885441D01*
X107432122Y-93767549D01*
X107336150Y-93748459D01*
X107610847Y-93634676D01*
X107858676Y-93386847D01*
X107992800Y-93063042D01*
X107992800Y-92712558D01*
X107858676Y-92388753D01*
X107610847Y-92140924D01*
X107287042Y-92006800D01*
X106936558Y-92006800D01*
X106612753Y-92140924D01*
X106364924Y-92388753D01*
X106230800Y-92712558D01*
X106230800Y-93063042D01*
X106364924Y-93386847D01*
X106612753Y-93634676D01*
X106858820Y-93736600D01*
X103783634Y-93736600D01*
X103631333Y-93508667D01*
X103282031Y-93275270D01*
X103255537Y-93270000D01*
X103282031Y-93264730D01*
X103631333Y-93031333D01*
X103756693Y-92843718D01*
X103780302Y-92867327D01*
X104013691Y-92964000D01*
X104266309Y-92964000D01*
X104499698Y-92867327D01*
X104648000Y-92719025D01*
X104796302Y-92867327D01*
X105029691Y-92964000D01*
X105282309Y-92964000D01*
X105515698Y-92867327D01*
X105694327Y-92688698D01*
X105791000Y-92455309D01*
X105791000Y-92202691D01*
X105694327Y-91969302D01*
X105515698Y-91790673D01*
X105282309Y-91694000D01*
X105029691Y-91694000D01*
X104796302Y-91790673D01*
X104648000Y-91938975D01*
X104499698Y-91790673D01*
X104266309Y-91694000D01*
X104013691Y-91694000D01*
X103811210Y-91777871D01*
X103631333Y-91508667D01*
X103282031Y-91275270D01*
X103255537Y-91270000D01*
X103282031Y-91264730D01*
X103631333Y-91031333D01*
X103864730Y-90682031D01*
X103946688Y-90270000D01*
X103864730Y-89857969D01*
X103631333Y-89508667D01*
X103282031Y-89275270D01*
X102974006Y-89214000D01*
X102765994Y-89214000D01*
X102457969Y-89275270D01*
X102108667Y-89508667D01*
X101875270Y-89857969D01*
X101870000Y-89884463D01*
X101864730Y-89857969D01*
X101631333Y-89508667D01*
X101282031Y-89275270D01*
X101271064Y-89273089D01*
X101269624Y-86664624D01*
X103806536Y-86666024D01*
G04 #@! TD*
M02*
