G04 #@! TF.GenerationSoftware,KiCad,Pcbnew,5.0.2-bee76a0~70~ubuntu18.04.1*
G04 #@! TF.CreationDate,2019-11-19T20:55:50-08:00*
G04 #@! TF.ProjectId,A3P250_Dev_Board,41335032-3530-45f4-9465-765f426f6172,rev?*
G04 #@! TF.SameCoordinates,Original*
G04 #@! TF.FileFunction,Paste,Top*
G04 #@! TF.FilePolarity,Positive*
%FSLAX46Y46*%
G04 Gerber Fmt 4.6, Leading zero omitted, Abs format (unit mm)*
G04 Created by KiCad (PCBNEW 5.0.2-bee76a0~70~ubuntu18.04.1) date Tue 19 Nov 2019 08:55:50 PM PST*
%MOMM*%
%LPD*%
G01*
G04 APERTURE LIST*
%ADD10C,0.100000*%
%ADD11C,0.590000*%
%ADD12C,0.875000*%
%ADD13C,0.975000*%
%ADD14R,2.300000X0.850000*%
%ADD15C,1.250000*%
%ADD16R,0.640000X1.000000*%
%ADD17R,0.700000X0.250000*%
%ADD18R,1.450000X0.450000*%
%ADD19R,1.100000X1.300000*%
%ADD20R,0.280000X1.500000*%
%ADD21R,1.500000X0.280000*%
G04 APERTURE END LIST*
D10*
G04 #@! TO.C,C25*
G36*
X140016758Y-112990110D02*
X140031076Y-112992234D01*
X140045117Y-112995751D01*
X140058746Y-113000628D01*
X140071831Y-113006817D01*
X140084247Y-113014258D01*
X140095873Y-113022881D01*
X140106598Y-113032602D01*
X140116319Y-113043327D01*
X140124942Y-113054953D01*
X140132383Y-113067369D01*
X140138572Y-113080454D01*
X140143449Y-113094083D01*
X140146966Y-113108124D01*
X140149090Y-113122442D01*
X140149800Y-113136900D01*
X140149800Y-113481900D01*
X140149090Y-113496358D01*
X140146966Y-113510676D01*
X140143449Y-113524717D01*
X140138572Y-113538346D01*
X140132383Y-113551431D01*
X140124942Y-113563847D01*
X140116319Y-113575473D01*
X140106598Y-113586198D01*
X140095873Y-113595919D01*
X140084247Y-113604542D01*
X140071831Y-113611983D01*
X140058746Y-113618172D01*
X140045117Y-113623049D01*
X140031076Y-113626566D01*
X140016758Y-113628690D01*
X140002300Y-113629400D01*
X139707300Y-113629400D01*
X139692842Y-113628690D01*
X139678524Y-113626566D01*
X139664483Y-113623049D01*
X139650854Y-113618172D01*
X139637769Y-113611983D01*
X139625353Y-113604542D01*
X139613727Y-113595919D01*
X139603002Y-113586198D01*
X139593281Y-113575473D01*
X139584658Y-113563847D01*
X139577217Y-113551431D01*
X139571028Y-113538346D01*
X139566151Y-113524717D01*
X139562634Y-113510676D01*
X139560510Y-113496358D01*
X139559800Y-113481900D01*
X139559800Y-113136900D01*
X139560510Y-113122442D01*
X139562634Y-113108124D01*
X139566151Y-113094083D01*
X139571028Y-113080454D01*
X139577217Y-113067369D01*
X139584658Y-113054953D01*
X139593281Y-113043327D01*
X139603002Y-113032602D01*
X139613727Y-113022881D01*
X139625353Y-113014258D01*
X139637769Y-113006817D01*
X139650854Y-113000628D01*
X139664483Y-112995751D01*
X139678524Y-112992234D01*
X139692842Y-112990110D01*
X139707300Y-112989400D01*
X140002300Y-112989400D01*
X140016758Y-112990110D01*
X140016758Y-112990110D01*
G37*
D11*
X139854800Y-113309400D03*
D10*
G36*
X139046758Y-112990110D02*
X139061076Y-112992234D01*
X139075117Y-112995751D01*
X139088746Y-113000628D01*
X139101831Y-113006817D01*
X139114247Y-113014258D01*
X139125873Y-113022881D01*
X139136598Y-113032602D01*
X139146319Y-113043327D01*
X139154942Y-113054953D01*
X139162383Y-113067369D01*
X139168572Y-113080454D01*
X139173449Y-113094083D01*
X139176966Y-113108124D01*
X139179090Y-113122442D01*
X139179800Y-113136900D01*
X139179800Y-113481900D01*
X139179090Y-113496358D01*
X139176966Y-113510676D01*
X139173449Y-113524717D01*
X139168572Y-113538346D01*
X139162383Y-113551431D01*
X139154942Y-113563847D01*
X139146319Y-113575473D01*
X139136598Y-113586198D01*
X139125873Y-113595919D01*
X139114247Y-113604542D01*
X139101831Y-113611983D01*
X139088746Y-113618172D01*
X139075117Y-113623049D01*
X139061076Y-113626566D01*
X139046758Y-113628690D01*
X139032300Y-113629400D01*
X138737300Y-113629400D01*
X138722842Y-113628690D01*
X138708524Y-113626566D01*
X138694483Y-113623049D01*
X138680854Y-113618172D01*
X138667769Y-113611983D01*
X138655353Y-113604542D01*
X138643727Y-113595919D01*
X138633002Y-113586198D01*
X138623281Y-113575473D01*
X138614658Y-113563847D01*
X138607217Y-113551431D01*
X138601028Y-113538346D01*
X138596151Y-113524717D01*
X138592634Y-113510676D01*
X138590510Y-113496358D01*
X138589800Y-113481900D01*
X138589800Y-113136900D01*
X138590510Y-113122442D01*
X138592634Y-113108124D01*
X138596151Y-113094083D01*
X138601028Y-113080454D01*
X138607217Y-113067369D01*
X138614658Y-113054953D01*
X138623281Y-113043327D01*
X138633002Y-113032602D01*
X138643727Y-113022881D01*
X138655353Y-113014258D01*
X138667769Y-113006817D01*
X138680854Y-113000628D01*
X138694483Y-112995751D01*
X138708524Y-112992234D01*
X138722842Y-112990110D01*
X138737300Y-112989400D01*
X139032300Y-112989400D01*
X139046758Y-112990110D01*
X139046758Y-112990110D01*
G37*
D11*
X138884800Y-113309400D03*
G04 #@! TD*
D10*
G04 #@! TO.C,C24*
G36*
X139072158Y-111720110D02*
X139086476Y-111722234D01*
X139100517Y-111725751D01*
X139114146Y-111730628D01*
X139127231Y-111736817D01*
X139139647Y-111744258D01*
X139151273Y-111752881D01*
X139161998Y-111762602D01*
X139171719Y-111773327D01*
X139180342Y-111784953D01*
X139187783Y-111797369D01*
X139193972Y-111810454D01*
X139198849Y-111824083D01*
X139202366Y-111838124D01*
X139204490Y-111852442D01*
X139205200Y-111866900D01*
X139205200Y-112211900D01*
X139204490Y-112226358D01*
X139202366Y-112240676D01*
X139198849Y-112254717D01*
X139193972Y-112268346D01*
X139187783Y-112281431D01*
X139180342Y-112293847D01*
X139171719Y-112305473D01*
X139161998Y-112316198D01*
X139151273Y-112325919D01*
X139139647Y-112334542D01*
X139127231Y-112341983D01*
X139114146Y-112348172D01*
X139100517Y-112353049D01*
X139086476Y-112356566D01*
X139072158Y-112358690D01*
X139057700Y-112359400D01*
X138762700Y-112359400D01*
X138748242Y-112358690D01*
X138733924Y-112356566D01*
X138719883Y-112353049D01*
X138706254Y-112348172D01*
X138693169Y-112341983D01*
X138680753Y-112334542D01*
X138669127Y-112325919D01*
X138658402Y-112316198D01*
X138648681Y-112305473D01*
X138640058Y-112293847D01*
X138632617Y-112281431D01*
X138626428Y-112268346D01*
X138621551Y-112254717D01*
X138618034Y-112240676D01*
X138615910Y-112226358D01*
X138615200Y-112211900D01*
X138615200Y-111866900D01*
X138615910Y-111852442D01*
X138618034Y-111838124D01*
X138621551Y-111824083D01*
X138626428Y-111810454D01*
X138632617Y-111797369D01*
X138640058Y-111784953D01*
X138648681Y-111773327D01*
X138658402Y-111762602D01*
X138669127Y-111752881D01*
X138680753Y-111744258D01*
X138693169Y-111736817D01*
X138706254Y-111730628D01*
X138719883Y-111725751D01*
X138733924Y-111722234D01*
X138748242Y-111720110D01*
X138762700Y-111719400D01*
X139057700Y-111719400D01*
X139072158Y-111720110D01*
X139072158Y-111720110D01*
G37*
D11*
X138910200Y-112039400D03*
D10*
G36*
X140042158Y-111720110D02*
X140056476Y-111722234D01*
X140070517Y-111725751D01*
X140084146Y-111730628D01*
X140097231Y-111736817D01*
X140109647Y-111744258D01*
X140121273Y-111752881D01*
X140131998Y-111762602D01*
X140141719Y-111773327D01*
X140150342Y-111784953D01*
X140157783Y-111797369D01*
X140163972Y-111810454D01*
X140168849Y-111824083D01*
X140172366Y-111838124D01*
X140174490Y-111852442D01*
X140175200Y-111866900D01*
X140175200Y-112211900D01*
X140174490Y-112226358D01*
X140172366Y-112240676D01*
X140168849Y-112254717D01*
X140163972Y-112268346D01*
X140157783Y-112281431D01*
X140150342Y-112293847D01*
X140141719Y-112305473D01*
X140131998Y-112316198D01*
X140121273Y-112325919D01*
X140109647Y-112334542D01*
X140097231Y-112341983D01*
X140084146Y-112348172D01*
X140070517Y-112353049D01*
X140056476Y-112356566D01*
X140042158Y-112358690D01*
X140027700Y-112359400D01*
X139732700Y-112359400D01*
X139718242Y-112358690D01*
X139703924Y-112356566D01*
X139689883Y-112353049D01*
X139676254Y-112348172D01*
X139663169Y-112341983D01*
X139650753Y-112334542D01*
X139639127Y-112325919D01*
X139628402Y-112316198D01*
X139618681Y-112305473D01*
X139610058Y-112293847D01*
X139602617Y-112281431D01*
X139596428Y-112268346D01*
X139591551Y-112254717D01*
X139588034Y-112240676D01*
X139585910Y-112226358D01*
X139585200Y-112211900D01*
X139585200Y-111866900D01*
X139585910Y-111852442D01*
X139588034Y-111838124D01*
X139591551Y-111824083D01*
X139596428Y-111810454D01*
X139602617Y-111797369D01*
X139610058Y-111784953D01*
X139618681Y-111773327D01*
X139628402Y-111762602D01*
X139639127Y-111752881D01*
X139650753Y-111744258D01*
X139663169Y-111736817D01*
X139676254Y-111730628D01*
X139689883Y-111725751D01*
X139703924Y-111722234D01*
X139718242Y-111720110D01*
X139732700Y-111719400D01*
X140027700Y-111719400D01*
X140042158Y-111720110D01*
X140042158Y-111720110D01*
G37*
D11*
X139880200Y-112039400D03*
G04 #@! TD*
D10*
G04 #@! TO.C,C14*
G36*
X118198158Y-118400310D02*
X118212476Y-118402434D01*
X118226517Y-118405951D01*
X118240146Y-118410828D01*
X118253231Y-118417017D01*
X118265647Y-118424458D01*
X118277273Y-118433081D01*
X118287998Y-118442802D01*
X118297719Y-118453527D01*
X118306342Y-118465153D01*
X118313783Y-118477569D01*
X118319972Y-118490654D01*
X118324849Y-118504283D01*
X118328366Y-118518324D01*
X118330490Y-118532642D01*
X118331200Y-118547100D01*
X118331200Y-118892100D01*
X118330490Y-118906558D01*
X118328366Y-118920876D01*
X118324849Y-118934917D01*
X118319972Y-118948546D01*
X118313783Y-118961631D01*
X118306342Y-118974047D01*
X118297719Y-118985673D01*
X118287998Y-118996398D01*
X118277273Y-119006119D01*
X118265647Y-119014742D01*
X118253231Y-119022183D01*
X118240146Y-119028372D01*
X118226517Y-119033249D01*
X118212476Y-119036766D01*
X118198158Y-119038890D01*
X118183700Y-119039600D01*
X117888700Y-119039600D01*
X117874242Y-119038890D01*
X117859924Y-119036766D01*
X117845883Y-119033249D01*
X117832254Y-119028372D01*
X117819169Y-119022183D01*
X117806753Y-119014742D01*
X117795127Y-119006119D01*
X117784402Y-118996398D01*
X117774681Y-118985673D01*
X117766058Y-118974047D01*
X117758617Y-118961631D01*
X117752428Y-118948546D01*
X117747551Y-118934917D01*
X117744034Y-118920876D01*
X117741910Y-118906558D01*
X117741200Y-118892100D01*
X117741200Y-118547100D01*
X117741910Y-118532642D01*
X117744034Y-118518324D01*
X117747551Y-118504283D01*
X117752428Y-118490654D01*
X117758617Y-118477569D01*
X117766058Y-118465153D01*
X117774681Y-118453527D01*
X117784402Y-118442802D01*
X117795127Y-118433081D01*
X117806753Y-118424458D01*
X117819169Y-118417017D01*
X117832254Y-118410828D01*
X117845883Y-118405951D01*
X117859924Y-118402434D01*
X117874242Y-118400310D01*
X117888700Y-118399600D01*
X118183700Y-118399600D01*
X118198158Y-118400310D01*
X118198158Y-118400310D01*
G37*
D11*
X118036200Y-118719600D03*
D10*
G36*
X117228158Y-118400310D02*
X117242476Y-118402434D01*
X117256517Y-118405951D01*
X117270146Y-118410828D01*
X117283231Y-118417017D01*
X117295647Y-118424458D01*
X117307273Y-118433081D01*
X117317998Y-118442802D01*
X117327719Y-118453527D01*
X117336342Y-118465153D01*
X117343783Y-118477569D01*
X117349972Y-118490654D01*
X117354849Y-118504283D01*
X117358366Y-118518324D01*
X117360490Y-118532642D01*
X117361200Y-118547100D01*
X117361200Y-118892100D01*
X117360490Y-118906558D01*
X117358366Y-118920876D01*
X117354849Y-118934917D01*
X117349972Y-118948546D01*
X117343783Y-118961631D01*
X117336342Y-118974047D01*
X117327719Y-118985673D01*
X117317998Y-118996398D01*
X117307273Y-119006119D01*
X117295647Y-119014742D01*
X117283231Y-119022183D01*
X117270146Y-119028372D01*
X117256517Y-119033249D01*
X117242476Y-119036766D01*
X117228158Y-119038890D01*
X117213700Y-119039600D01*
X116918700Y-119039600D01*
X116904242Y-119038890D01*
X116889924Y-119036766D01*
X116875883Y-119033249D01*
X116862254Y-119028372D01*
X116849169Y-119022183D01*
X116836753Y-119014742D01*
X116825127Y-119006119D01*
X116814402Y-118996398D01*
X116804681Y-118985673D01*
X116796058Y-118974047D01*
X116788617Y-118961631D01*
X116782428Y-118948546D01*
X116777551Y-118934917D01*
X116774034Y-118920876D01*
X116771910Y-118906558D01*
X116771200Y-118892100D01*
X116771200Y-118547100D01*
X116771910Y-118532642D01*
X116774034Y-118518324D01*
X116777551Y-118504283D01*
X116782428Y-118490654D01*
X116788617Y-118477569D01*
X116796058Y-118465153D01*
X116804681Y-118453527D01*
X116814402Y-118442802D01*
X116825127Y-118433081D01*
X116836753Y-118424458D01*
X116849169Y-118417017D01*
X116862254Y-118410828D01*
X116875883Y-118405951D01*
X116889924Y-118402434D01*
X116904242Y-118400310D01*
X116918700Y-118399600D01*
X117213700Y-118399600D01*
X117228158Y-118400310D01*
X117228158Y-118400310D01*
G37*
D11*
X117066200Y-118719600D03*
G04 #@! TD*
D10*
G04 #@! TO.C,C4*
G36*
X112418691Y-103094053D02*
X112439926Y-103097203D01*
X112460750Y-103102419D01*
X112480962Y-103109651D01*
X112500368Y-103118830D01*
X112518781Y-103129866D01*
X112536024Y-103142654D01*
X112551930Y-103157070D01*
X112566346Y-103172976D01*
X112579134Y-103190219D01*
X112590170Y-103208632D01*
X112599349Y-103228038D01*
X112606581Y-103248250D01*
X112611797Y-103269074D01*
X112614947Y-103290309D01*
X112616000Y-103311750D01*
X112616000Y-103749250D01*
X112614947Y-103770691D01*
X112611797Y-103791926D01*
X112606581Y-103812750D01*
X112599349Y-103832962D01*
X112590170Y-103852368D01*
X112579134Y-103870781D01*
X112566346Y-103888024D01*
X112551930Y-103903930D01*
X112536024Y-103918346D01*
X112518781Y-103931134D01*
X112500368Y-103942170D01*
X112480962Y-103951349D01*
X112460750Y-103958581D01*
X112439926Y-103963797D01*
X112418691Y-103966947D01*
X112397250Y-103968000D01*
X111884750Y-103968000D01*
X111863309Y-103966947D01*
X111842074Y-103963797D01*
X111821250Y-103958581D01*
X111801038Y-103951349D01*
X111781632Y-103942170D01*
X111763219Y-103931134D01*
X111745976Y-103918346D01*
X111730070Y-103903930D01*
X111715654Y-103888024D01*
X111702866Y-103870781D01*
X111691830Y-103852368D01*
X111682651Y-103832962D01*
X111675419Y-103812750D01*
X111670203Y-103791926D01*
X111667053Y-103770691D01*
X111666000Y-103749250D01*
X111666000Y-103311750D01*
X111667053Y-103290309D01*
X111670203Y-103269074D01*
X111675419Y-103248250D01*
X111682651Y-103228038D01*
X111691830Y-103208632D01*
X111702866Y-103190219D01*
X111715654Y-103172976D01*
X111730070Y-103157070D01*
X111745976Y-103142654D01*
X111763219Y-103129866D01*
X111781632Y-103118830D01*
X111801038Y-103109651D01*
X111821250Y-103102419D01*
X111842074Y-103097203D01*
X111863309Y-103094053D01*
X111884750Y-103093000D01*
X112397250Y-103093000D01*
X112418691Y-103094053D01*
X112418691Y-103094053D01*
G37*
D12*
X112141000Y-103530500D03*
D10*
G36*
X112418691Y-101519053D02*
X112439926Y-101522203D01*
X112460750Y-101527419D01*
X112480962Y-101534651D01*
X112500368Y-101543830D01*
X112518781Y-101554866D01*
X112536024Y-101567654D01*
X112551930Y-101582070D01*
X112566346Y-101597976D01*
X112579134Y-101615219D01*
X112590170Y-101633632D01*
X112599349Y-101653038D01*
X112606581Y-101673250D01*
X112611797Y-101694074D01*
X112614947Y-101715309D01*
X112616000Y-101736750D01*
X112616000Y-102174250D01*
X112614947Y-102195691D01*
X112611797Y-102216926D01*
X112606581Y-102237750D01*
X112599349Y-102257962D01*
X112590170Y-102277368D01*
X112579134Y-102295781D01*
X112566346Y-102313024D01*
X112551930Y-102328930D01*
X112536024Y-102343346D01*
X112518781Y-102356134D01*
X112500368Y-102367170D01*
X112480962Y-102376349D01*
X112460750Y-102383581D01*
X112439926Y-102388797D01*
X112418691Y-102391947D01*
X112397250Y-102393000D01*
X111884750Y-102393000D01*
X111863309Y-102391947D01*
X111842074Y-102388797D01*
X111821250Y-102383581D01*
X111801038Y-102376349D01*
X111781632Y-102367170D01*
X111763219Y-102356134D01*
X111745976Y-102343346D01*
X111730070Y-102328930D01*
X111715654Y-102313024D01*
X111702866Y-102295781D01*
X111691830Y-102277368D01*
X111682651Y-102257962D01*
X111675419Y-102237750D01*
X111670203Y-102216926D01*
X111667053Y-102195691D01*
X111666000Y-102174250D01*
X111666000Y-101736750D01*
X111667053Y-101715309D01*
X111670203Y-101694074D01*
X111675419Y-101673250D01*
X111682651Y-101653038D01*
X111691830Y-101633632D01*
X111702866Y-101615219D01*
X111715654Y-101597976D01*
X111730070Y-101582070D01*
X111745976Y-101567654D01*
X111763219Y-101554866D01*
X111781632Y-101543830D01*
X111801038Y-101534651D01*
X111821250Y-101527419D01*
X111842074Y-101522203D01*
X111863309Y-101519053D01*
X111884750Y-101518000D01*
X112397250Y-101518000D01*
X112418691Y-101519053D01*
X112418691Y-101519053D01*
G37*
D12*
X112141000Y-101955500D03*
G04 #@! TD*
D10*
G04 #@! TO.C,C9*
G36*
X109497691Y-101519053D02*
X109518926Y-101522203D01*
X109539750Y-101527419D01*
X109559962Y-101534651D01*
X109579368Y-101543830D01*
X109597781Y-101554866D01*
X109615024Y-101567654D01*
X109630930Y-101582070D01*
X109645346Y-101597976D01*
X109658134Y-101615219D01*
X109669170Y-101633632D01*
X109678349Y-101653038D01*
X109685581Y-101673250D01*
X109690797Y-101694074D01*
X109693947Y-101715309D01*
X109695000Y-101736750D01*
X109695000Y-102174250D01*
X109693947Y-102195691D01*
X109690797Y-102216926D01*
X109685581Y-102237750D01*
X109678349Y-102257962D01*
X109669170Y-102277368D01*
X109658134Y-102295781D01*
X109645346Y-102313024D01*
X109630930Y-102328930D01*
X109615024Y-102343346D01*
X109597781Y-102356134D01*
X109579368Y-102367170D01*
X109559962Y-102376349D01*
X109539750Y-102383581D01*
X109518926Y-102388797D01*
X109497691Y-102391947D01*
X109476250Y-102393000D01*
X108963750Y-102393000D01*
X108942309Y-102391947D01*
X108921074Y-102388797D01*
X108900250Y-102383581D01*
X108880038Y-102376349D01*
X108860632Y-102367170D01*
X108842219Y-102356134D01*
X108824976Y-102343346D01*
X108809070Y-102328930D01*
X108794654Y-102313024D01*
X108781866Y-102295781D01*
X108770830Y-102277368D01*
X108761651Y-102257962D01*
X108754419Y-102237750D01*
X108749203Y-102216926D01*
X108746053Y-102195691D01*
X108745000Y-102174250D01*
X108745000Y-101736750D01*
X108746053Y-101715309D01*
X108749203Y-101694074D01*
X108754419Y-101673250D01*
X108761651Y-101653038D01*
X108770830Y-101633632D01*
X108781866Y-101615219D01*
X108794654Y-101597976D01*
X108809070Y-101582070D01*
X108824976Y-101567654D01*
X108842219Y-101554866D01*
X108860632Y-101543830D01*
X108880038Y-101534651D01*
X108900250Y-101527419D01*
X108921074Y-101522203D01*
X108942309Y-101519053D01*
X108963750Y-101518000D01*
X109476250Y-101518000D01*
X109497691Y-101519053D01*
X109497691Y-101519053D01*
G37*
D12*
X109220000Y-101955500D03*
D10*
G36*
X109497691Y-103094053D02*
X109518926Y-103097203D01*
X109539750Y-103102419D01*
X109559962Y-103109651D01*
X109579368Y-103118830D01*
X109597781Y-103129866D01*
X109615024Y-103142654D01*
X109630930Y-103157070D01*
X109645346Y-103172976D01*
X109658134Y-103190219D01*
X109669170Y-103208632D01*
X109678349Y-103228038D01*
X109685581Y-103248250D01*
X109690797Y-103269074D01*
X109693947Y-103290309D01*
X109695000Y-103311750D01*
X109695000Y-103749250D01*
X109693947Y-103770691D01*
X109690797Y-103791926D01*
X109685581Y-103812750D01*
X109678349Y-103832962D01*
X109669170Y-103852368D01*
X109658134Y-103870781D01*
X109645346Y-103888024D01*
X109630930Y-103903930D01*
X109615024Y-103918346D01*
X109597781Y-103931134D01*
X109579368Y-103942170D01*
X109559962Y-103951349D01*
X109539750Y-103958581D01*
X109518926Y-103963797D01*
X109497691Y-103966947D01*
X109476250Y-103968000D01*
X108963750Y-103968000D01*
X108942309Y-103966947D01*
X108921074Y-103963797D01*
X108900250Y-103958581D01*
X108880038Y-103951349D01*
X108860632Y-103942170D01*
X108842219Y-103931134D01*
X108824976Y-103918346D01*
X108809070Y-103903930D01*
X108794654Y-103888024D01*
X108781866Y-103870781D01*
X108770830Y-103852368D01*
X108761651Y-103832962D01*
X108754419Y-103812750D01*
X108749203Y-103791926D01*
X108746053Y-103770691D01*
X108745000Y-103749250D01*
X108745000Y-103311750D01*
X108746053Y-103290309D01*
X108749203Y-103269074D01*
X108754419Y-103248250D01*
X108761651Y-103228038D01*
X108770830Y-103208632D01*
X108781866Y-103190219D01*
X108794654Y-103172976D01*
X108809070Y-103157070D01*
X108824976Y-103142654D01*
X108842219Y-103129866D01*
X108860632Y-103118830D01*
X108880038Y-103109651D01*
X108900250Y-103102419D01*
X108921074Y-103097203D01*
X108942309Y-103094053D01*
X108963750Y-103093000D01*
X109476250Y-103093000D01*
X109497691Y-103094053D01*
X109497691Y-103094053D01*
G37*
D12*
X109220000Y-103530500D03*
G04 #@! TD*
D10*
G04 #@! TO.C,D1*
G36*
X107153142Y-106108174D02*
X107176803Y-106111684D01*
X107200007Y-106117496D01*
X107222529Y-106125554D01*
X107244153Y-106135782D01*
X107264670Y-106148079D01*
X107283883Y-106162329D01*
X107301607Y-106178393D01*
X107317671Y-106196117D01*
X107331921Y-106215330D01*
X107344218Y-106235847D01*
X107354446Y-106257471D01*
X107362504Y-106279993D01*
X107368316Y-106303197D01*
X107371826Y-106326858D01*
X107373000Y-106350750D01*
X107373000Y-107263250D01*
X107371826Y-107287142D01*
X107368316Y-107310803D01*
X107362504Y-107334007D01*
X107354446Y-107356529D01*
X107344218Y-107378153D01*
X107331921Y-107398670D01*
X107317671Y-107417883D01*
X107301607Y-107435607D01*
X107283883Y-107451671D01*
X107264670Y-107465921D01*
X107244153Y-107478218D01*
X107222529Y-107488446D01*
X107200007Y-107496504D01*
X107176803Y-107502316D01*
X107153142Y-107505826D01*
X107129250Y-107507000D01*
X106641750Y-107507000D01*
X106617858Y-107505826D01*
X106594197Y-107502316D01*
X106570993Y-107496504D01*
X106548471Y-107488446D01*
X106526847Y-107478218D01*
X106506330Y-107465921D01*
X106487117Y-107451671D01*
X106469393Y-107435607D01*
X106453329Y-107417883D01*
X106439079Y-107398670D01*
X106426782Y-107378153D01*
X106416554Y-107356529D01*
X106408496Y-107334007D01*
X106402684Y-107310803D01*
X106399174Y-107287142D01*
X106398000Y-107263250D01*
X106398000Y-106350750D01*
X106399174Y-106326858D01*
X106402684Y-106303197D01*
X106408496Y-106279993D01*
X106416554Y-106257471D01*
X106426782Y-106235847D01*
X106439079Y-106215330D01*
X106453329Y-106196117D01*
X106469393Y-106178393D01*
X106487117Y-106162329D01*
X106506330Y-106148079D01*
X106526847Y-106135782D01*
X106548471Y-106125554D01*
X106570993Y-106117496D01*
X106594197Y-106111684D01*
X106617858Y-106108174D01*
X106641750Y-106107000D01*
X107129250Y-106107000D01*
X107153142Y-106108174D01*
X107153142Y-106108174D01*
G37*
D13*
X106885500Y-106807000D03*
D10*
G36*
X109028142Y-106108174D02*
X109051803Y-106111684D01*
X109075007Y-106117496D01*
X109097529Y-106125554D01*
X109119153Y-106135782D01*
X109139670Y-106148079D01*
X109158883Y-106162329D01*
X109176607Y-106178393D01*
X109192671Y-106196117D01*
X109206921Y-106215330D01*
X109219218Y-106235847D01*
X109229446Y-106257471D01*
X109237504Y-106279993D01*
X109243316Y-106303197D01*
X109246826Y-106326858D01*
X109248000Y-106350750D01*
X109248000Y-107263250D01*
X109246826Y-107287142D01*
X109243316Y-107310803D01*
X109237504Y-107334007D01*
X109229446Y-107356529D01*
X109219218Y-107378153D01*
X109206921Y-107398670D01*
X109192671Y-107417883D01*
X109176607Y-107435607D01*
X109158883Y-107451671D01*
X109139670Y-107465921D01*
X109119153Y-107478218D01*
X109097529Y-107488446D01*
X109075007Y-107496504D01*
X109051803Y-107502316D01*
X109028142Y-107505826D01*
X109004250Y-107507000D01*
X108516750Y-107507000D01*
X108492858Y-107505826D01*
X108469197Y-107502316D01*
X108445993Y-107496504D01*
X108423471Y-107488446D01*
X108401847Y-107478218D01*
X108381330Y-107465921D01*
X108362117Y-107451671D01*
X108344393Y-107435607D01*
X108328329Y-107417883D01*
X108314079Y-107398670D01*
X108301782Y-107378153D01*
X108291554Y-107356529D01*
X108283496Y-107334007D01*
X108277684Y-107310803D01*
X108274174Y-107287142D01*
X108273000Y-107263250D01*
X108273000Y-106350750D01*
X108274174Y-106326858D01*
X108277684Y-106303197D01*
X108283496Y-106279993D01*
X108291554Y-106257471D01*
X108301782Y-106235847D01*
X108314079Y-106215330D01*
X108328329Y-106196117D01*
X108344393Y-106178393D01*
X108362117Y-106162329D01*
X108381330Y-106148079D01*
X108401847Y-106135782D01*
X108423471Y-106125554D01*
X108445993Y-106117496D01*
X108469197Y-106111684D01*
X108492858Y-106108174D01*
X108516750Y-106107000D01*
X109004250Y-106107000D01*
X109028142Y-106108174D01*
X109028142Y-106108174D01*
G37*
D13*
X108760500Y-106807000D03*
G04 #@! TD*
D10*
G04 #@! TO.C,D2*
G36*
X141639387Y-95975302D02*
X141660622Y-95978452D01*
X141681446Y-95983668D01*
X141701658Y-95990900D01*
X141721064Y-96000079D01*
X141739477Y-96011115D01*
X141756720Y-96023903D01*
X141772626Y-96038319D01*
X141787042Y-96054225D01*
X141799830Y-96071468D01*
X141810866Y-96089881D01*
X141820045Y-96109287D01*
X141827277Y-96129499D01*
X141832493Y-96150323D01*
X141835643Y-96171558D01*
X141836696Y-96192999D01*
X141836696Y-96705499D01*
X141835643Y-96726940D01*
X141832493Y-96748175D01*
X141827277Y-96768999D01*
X141820045Y-96789211D01*
X141810866Y-96808617D01*
X141799830Y-96827030D01*
X141787042Y-96844273D01*
X141772626Y-96860179D01*
X141756720Y-96874595D01*
X141739477Y-96887383D01*
X141721064Y-96898419D01*
X141701658Y-96907598D01*
X141681446Y-96914830D01*
X141660622Y-96920046D01*
X141639387Y-96923196D01*
X141617946Y-96924249D01*
X141180446Y-96924249D01*
X141159005Y-96923196D01*
X141137770Y-96920046D01*
X141116946Y-96914830D01*
X141096734Y-96907598D01*
X141077328Y-96898419D01*
X141058915Y-96887383D01*
X141041672Y-96874595D01*
X141025766Y-96860179D01*
X141011350Y-96844273D01*
X140998562Y-96827030D01*
X140987526Y-96808617D01*
X140978347Y-96789211D01*
X140971115Y-96768999D01*
X140965899Y-96748175D01*
X140962749Y-96726940D01*
X140961696Y-96705499D01*
X140961696Y-96192999D01*
X140962749Y-96171558D01*
X140965899Y-96150323D01*
X140971115Y-96129499D01*
X140978347Y-96109287D01*
X140987526Y-96089881D01*
X140998562Y-96071468D01*
X141011350Y-96054225D01*
X141025766Y-96038319D01*
X141041672Y-96023903D01*
X141058915Y-96011115D01*
X141077328Y-96000079D01*
X141096734Y-95990900D01*
X141116946Y-95983668D01*
X141137770Y-95978452D01*
X141159005Y-95975302D01*
X141180446Y-95974249D01*
X141617946Y-95974249D01*
X141639387Y-95975302D01*
X141639387Y-95975302D01*
G37*
D12*
X141399196Y-96449249D03*
D10*
G36*
X140064387Y-95975302D02*
X140085622Y-95978452D01*
X140106446Y-95983668D01*
X140126658Y-95990900D01*
X140146064Y-96000079D01*
X140164477Y-96011115D01*
X140181720Y-96023903D01*
X140197626Y-96038319D01*
X140212042Y-96054225D01*
X140224830Y-96071468D01*
X140235866Y-96089881D01*
X140245045Y-96109287D01*
X140252277Y-96129499D01*
X140257493Y-96150323D01*
X140260643Y-96171558D01*
X140261696Y-96192999D01*
X140261696Y-96705499D01*
X140260643Y-96726940D01*
X140257493Y-96748175D01*
X140252277Y-96768999D01*
X140245045Y-96789211D01*
X140235866Y-96808617D01*
X140224830Y-96827030D01*
X140212042Y-96844273D01*
X140197626Y-96860179D01*
X140181720Y-96874595D01*
X140164477Y-96887383D01*
X140146064Y-96898419D01*
X140126658Y-96907598D01*
X140106446Y-96914830D01*
X140085622Y-96920046D01*
X140064387Y-96923196D01*
X140042946Y-96924249D01*
X139605446Y-96924249D01*
X139584005Y-96923196D01*
X139562770Y-96920046D01*
X139541946Y-96914830D01*
X139521734Y-96907598D01*
X139502328Y-96898419D01*
X139483915Y-96887383D01*
X139466672Y-96874595D01*
X139450766Y-96860179D01*
X139436350Y-96844273D01*
X139423562Y-96827030D01*
X139412526Y-96808617D01*
X139403347Y-96789211D01*
X139396115Y-96768999D01*
X139390899Y-96748175D01*
X139387749Y-96726940D01*
X139386696Y-96705499D01*
X139386696Y-96192999D01*
X139387749Y-96171558D01*
X139390899Y-96150323D01*
X139396115Y-96129499D01*
X139403347Y-96109287D01*
X139412526Y-96089881D01*
X139423562Y-96071468D01*
X139436350Y-96054225D01*
X139450766Y-96038319D01*
X139466672Y-96023903D01*
X139483915Y-96011115D01*
X139502328Y-96000079D01*
X139521734Y-95990900D01*
X139541946Y-95983668D01*
X139562770Y-95978452D01*
X139584005Y-95975302D01*
X139605446Y-95974249D01*
X140042946Y-95974249D01*
X140064387Y-95975302D01*
X140064387Y-95975302D01*
G37*
D12*
X139824196Y-96449249D03*
G04 #@! TD*
D14*
G04 #@! TO.C,L1*
X115824000Y-97196000D03*
X115824000Y-99146000D03*
G04 #@! TD*
D10*
G04 #@! TO.C,L2*
G36*
X119394504Y-97804204D02*
X119418773Y-97807804D01*
X119442571Y-97813765D01*
X119465671Y-97822030D01*
X119487849Y-97832520D01*
X119508893Y-97845133D01*
X119528598Y-97859747D01*
X119546777Y-97876223D01*
X119563253Y-97894402D01*
X119577867Y-97914107D01*
X119590480Y-97935151D01*
X119600970Y-97957329D01*
X119609235Y-97980429D01*
X119615196Y-98004227D01*
X119618796Y-98028496D01*
X119620000Y-98053000D01*
X119620000Y-98803000D01*
X119618796Y-98827504D01*
X119615196Y-98851773D01*
X119609235Y-98875571D01*
X119600970Y-98898671D01*
X119590480Y-98920849D01*
X119577867Y-98941893D01*
X119563253Y-98961598D01*
X119546777Y-98979777D01*
X119528598Y-98996253D01*
X119508893Y-99010867D01*
X119487849Y-99023480D01*
X119465671Y-99033970D01*
X119442571Y-99042235D01*
X119418773Y-99048196D01*
X119394504Y-99051796D01*
X119370000Y-99053000D01*
X118120000Y-99053000D01*
X118095496Y-99051796D01*
X118071227Y-99048196D01*
X118047429Y-99042235D01*
X118024329Y-99033970D01*
X118002151Y-99023480D01*
X117981107Y-99010867D01*
X117961402Y-98996253D01*
X117943223Y-98979777D01*
X117926747Y-98961598D01*
X117912133Y-98941893D01*
X117899520Y-98920849D01*
X117889030Y-98898671D01*
X117880765Y-98875571D01*
X117874804Y-98851773D01*
X117871204Y-98827504D01*
X117870000Y-98803000D01*
X117870000Y-98053000D01*
X117871204Y-98028496D01*
X117874804Y-98004227D01*
X117880765Y-97980429D01*
X117889030Y-97957329D01*
X117899520Y-97935151D01*
X117912133Y-97914107D01*
X117926747Y-97894402D01*
X117943223Y-97876223D01*
X117961402Y-97859747D01*
X117981107Y-97845133D01*
X118002151Y-97832520D01*
X118024329Y-97822030D01*
X118047429Y-97813765D01*
X118071227Y-97807804D01*
X118095496Y-97804204D01*
X118120000Y-97803000D01*
X119370000Y-97803000D01*
X119394504Y-97804204D01*
X119394504Y-97804204D01*
G37*
D15*
X118745000Y-98428000D03*
D10*
G36*
X119394504Y-95004204D02*
X119418773Y-95007804D01*
X119442571Y-95013765D01*
X119465671Y-95022030D01*
X119487849Y-95032520D01*
X119508893Y-95045133D01*
X119528598Y-95059747D01*
X119546777Y-95076223D01*
X119563253Y-95094402D01*
X119577867Y-95114107D01*
X119590480Y-95135151D01*
X119600970Y-95157329D01*
X119609235Y-95180429D01*
X119615196Y-95204227D01*
X119618796Y-95228496D01*
X119620000Y-95253000D01*
X119620000Y-96003000D01*
X119618796Y-96027504D01*
X119615196Y-96051773D01*
X119609235Y-96075571D01*
X119600970Y-96098671D01*
X119590480Y-96120849D01*
X119577867Y-96141893D01*
X119563253Y-96161598D01*
X119546777Y-96179777D01*
X119528598Y-96196253D01*
X119508893Y-96210867D01*
X119487849Y-96223480D01*
X119465671Y-96233970D01*
X119442571Y-96242235D01*
X119418773Y-96248196D01*
X119394504Y-96251796D01*
X119370000Y-96253000D01*
X118120000Y-96253000D01*
X118095496Y-96251796D01*
X118071227Y-96248196D01*
X118047429Y-96242235D01*
X118024329Y-96233970D01*
X118002151Y-96223480D01*
X117981107Y-96210867D01*
X117961402Y-96196253D01*
X117943223Y-96179777D01*
X117926747Y-96161598D01*
X117912133Y-96141893D01*
X117899520Y-96120849D01*
X117889030Y-96098671D01*
X117880765Y-96075571D01*
X117874804Y-96051773D01*
X117871204Y-96027504D01*
X117870000Y-96003000D01*
X117870000Y-95253000D01*
X117871204Y-95228496D01*
X117874804Y-95204227D01*
X117880765Y-95180429D01*
X117889030Y-95157329D01*
X117899520Y-95135151D01*
X117912133Y-95114107D01*
X117926747Y-95094402D01*
X117943223Y-95076223D01*
X117961402Y-95059747D01*
X117981107Y-95045133D01*
X118002151Y-95032520D01*
X118024329Y-95022030D01*
X118047429Y-95013765D01*
X118071227Y-95007804D01*
X118095496Y-95004204D01*
X118120000Y-95003000D01*
X119370000Y-95003000D01*
X119394504Y-95004204D01*
X119394504Y-95004204D01*
G37*
D15*
X118745000Y-95628000D03*
G04 #@! TD*
D10*
G04 #@! TO.C,R1*
G36*
X111217142Y-108521174D02*
X111240803Y-108524684D01*
X111264007Y-108530496D01*
X111286529Y-108538554D01*
X111308153Y-108548782D01*
X111328670Y-108561079D01*
X111347883Y-108575329D01*
X111365607Y-108591393D01*
X111381671Y-108609117D01*
X111395921Y-108628330D01*
X111408218Y-108648847D01*
X111418446Y-108670471D01*
X111426504Y-108692993D01*
X111432316Y-108716197D01*
X111435826Y-108739858D01*
X111437000Y-108763750D01*
X111437000Y-109676250D01*
X111435826Y-109700142D01*
X111432316Y-109723803D01*
X111426504Y-109747007D01*
X111418446Y-109769529D01*
X111408218Y-109791153D01*
X111395921Y-109811670D01*
X111381671Y-109830883D01*
X111365607Y-109848607D01*
X111347883Y-109864671D01*
X111328670Y-109878921D01*
X111308153Y-109891218D01*
X111286529Y-109901446D01*
X111264007Y-109909504D01*
X111240803Y-109915316D01*
X111217142Y-109918826D01*
X111193250Y-109920000D01*
X110705750Y-109920000D01*
X110681858Y-109918826D01*
X110658197Y-109915316D01*
X110634993Y-109909504D01*
X110612471Y-109901446D01*
X110590847Y-109891218D01*
X110570330Y-109878921D01*
X110551117Y-109864671D01*
X110533393Y-109848607D01*
X110517329Y-109830883D01*
X110503079Y-109811670D01*
X110490782Y-109791153D01*
X110480554Y-109769529D01*
X110472496Y-109747007D01*
X110466684Y-109723803D01*
X110463174Y-109700142D01*
X110462000Y-109676250D01*
X110462000Y-108763750D01*
X110463174Y-108739858D01*
X110466684Y-108716197D01*
X110472496Y-108692993D01*
X110480554Y-108670471D01*
X110490782Y-108648847D01*
X110503079Y-108628330D01*
X110517329Y-108609117D01*
X110533393Y-108591393D01*
X110551117Y-108575329D01*
X110570330Y-108561079D01*
X110590847Y-108548782D01*
X110612471Y-108538554D01*
X110634993Y-108530496D01*
X110658197Y-108524684D01*
X110681858Y-108521174D01*
X110705750Y-108520000D01*
X111193250Y-108520000D01*
X111217142Y-108521174D01*
X111217142Y-108521174D01*
G37*
D13*
X110949500Y-109220000D03*
D10*
G36*
X113092142Y-108521174D02*
X113115803Y-108524684D01*
X113139007Y-108530496D01*
X113161529Y-108538554D01*
X113183153Y-108548782D01*
X113203670Y-108561079D01*
X113222883Y-108575329D01*
X113240607Y-108591393D01*
X113256671Y-108609117D01*
X113270921Y-108628330D01*
X113283218Y-108648847D01*
X113293446Y-108670471D01*
X113301504Y-108692993D01*
X113307316Y-108716197D01*
X113310826Y-108739858D01*
X113312000Y-108763750D01*
X113312000Y-109676250D01*
X113310826Y-109700142D01*
X113307316Y-109723803D01*
X113301504Y-109747007D01*
X113293446Y-109769529D01*
X113283218Y-109791153D01*
X113270921Y-109811670D01*
X113256671Y-109830883D01*
X113240607Y-109848607D01*
X113222883Y-109864671D01*
X113203670Y-109878921D01*
X113183153Y-109891218D01*
X113161529Y-109901446D01*
X113139007Y-109909504D01*
X113115803Y-109915316D01*
X113092142Y-109918826D01*
X113068250Y-109920000D01*
X112580750Y-109920000D01*
X112556858Y-109918826D01*
X112533197Y-109915316D01*
X112509993Y-109909504D01*
X112487471Y-109901446D01*
X112465847Y-109891218D01*
X112445330Y-109878921D01*
X112426117Y-109864671D01*
X112408393Y-109848607D01*
X112392329Y-109830883D01*
X112378079Y-109811670D01*
X112365782Y-109791153D01*
X112355554Y-109769529D01*
X112347496Y-109747007D01*
X112341684Y-109723803D01*
X112338174Y-109700142D01*
X112337000Y-109676250D01*
X112337000Y-108763750D01*
X112338174Y-108739858D01*
X112341684Y-108716197D01*
X112347496Y-108692993D01*
X112355554Y-108670471D01*
X112365782Y-108648847D01*
X112378079Y-108628330D01*
X112392329Y-108609117D01*
X112408393Y-108591393D01*
X112426117Y-108575329D01*
X112445330Y-108561079D01*
X112465847Y-108548782D01*
X112487471Y-108538554D01*
X112509993Y-108530496D01*
X112533197Y-108524684D01*
X112556858Y-108521174D01*
X112580750Y-108520000D01*
X113068250Y-108520000D01*
X113092142Y-108521174D01*
X113092142Y-108521174D01*
G37*
D13*
X112824500Y-109220000D03*
G04 #@! TD*
D10*
G04 #@! TO.C,R2*
G36*
X110894691Y-103094053D02*
X110915926Y-103097203D01*
X110936750Y-103102419D01*
X110956962Y-103109651D01*
X110976368Y-103118830D01*
X110994781Y-103129866D01*
X111012024Y-103142654D01*
X111027930Y-103157070D01*
X111042346Y-103172976D01*
X111055134Y-103190219D01*
X111066170Y-103208632D01*
X111075349Y-103228038D01*
X111082581Y-103248250D01*
X111087797Y-103269074D01*
X111090947Y-103290309D01*
X111092000Y-103311750D01*
X111092000Y-103749250D01*
X111090947Y-103770691D01*
X111087797Y-103791926D01*
X111082581Y-103812750D01*
X111075349Y-103832962D01*
X111066170Y-103852368D01*
X111055134Y-103870781D01*
X111042346Y-103888024D01*
X111027930Y-103903930D01*
X111012024Y-103918346D01*
X110994781Y-103931134D01*
X110976368Y-103942170D01*
X110956962Y-103951349D01*
X110936750Y-103958581D01*
X110915926Y-103963797D01*
X110894691Y-103966947D01*
X110873250Y-103968000D01*
X110360750Y-103968000D01*
X110339309Y-103966947D01*
X110318074Y-103963797D01*
X110297250Y-103958581D01*
X110277038Y-103951349D01*
X110257632Y-103942170D01*
X110239219Y-103931134D01*
X110221976Y-103918346D01*
X110206070Y-103903930D01*
X110191654Y-103888024D01*
X110178866Y-103870781D01*
X110167830Y-103852368D01*
X110158651Y-103832962D01*
X110151419Y-103812750D01*
X110146203Y-103791926D01*
X110143053Y-103770691D01*
X110142000Y-103749250D01*
X110142000Y-103311750D01*
X110143053Y-103290309D01*
X110146203Y-103269074D01*
X110151419Y-103248250D01*
X110158651Y-103228038D01*
X110167830Y-103208632D01*
X110178866Y-103190219D01*
X110191654Y-103172976D01*
X110206070Y-103157070D01*
X110221976Y-103142654D01*
X110239219Y-103129866D01*
X110257632Y-103118830D01*
X110277038Y-103109651D01*
X110297250Y-103102419D01*
X110318074Y-103097203D01*
X110339309Y-103094053D01*
X110360750Y-103093000D01*
X110873250Y-103093000D01*
X110894691Y-103094053D01*
X110894691Y-103094053D01*
G37*
D12*
X110617000Y-103530500D03*
D10*
G36*
X110894691Y-101519053D02*
X110915926Y-101522203D01*
X110936750Y-101527419D01*
X110956962Y-101534651D01*
X110976368Y-101543830D01*
X110994781Y-101554866D01*
X111012024Y-101567654D01*
X111027930Y-101582070D01*
X111042346Y-101597976D01*
X111055134Y-101615219D01*
X111066170Y-101633632D01*
X111075349Y-101653038D01*
X111082581Y-101673250D01*
X111087797Y-101694074D01*
X111090947Y-101715309D01*
X111092000Y-101736750D01*
X111092000Y-102174250D01*
X111090947Y-102195691D01*
X111087797Y-102216926D01*
X111082581Y-102237750D01*
X111075349Y-102257962D01*
X111066170Y-102277368D01*
X111055134Y-102295781D01*
X111042346Y-102313024D01*
X111027930Y-102328930D01*
X111012024Y-102343346D01*
X110994781Y-102356134D01*
X110976368Y-102367170D01*
X110956962Y-102376349D01*
X110936750Y-102383581D01*
X110915926Y-102388797D01*
X110894691Y-102391947D01*
X110873250Y-102393000D01*
X110360750Y-102393000D01*
X110339309Y-102391947D01*
X110318074Y-102388797D01*
X110297250Y-102383581D01*
X110277038Y-102376349D01*
X110257632Y-102367170D01*
X110239219Y-102356134D01*
X110221976Y-102343346D01*
X110206070Y-102328930D01*
X110191654Y-102313024D01*
X110178866Y-102295781D01*
X110167830Y-102277368D01*
X110158651Y-102257962D01*
X110151419Y-102237750D01*
X110146203Y-102216926D01*
X110143053Y-102195691D01*
X110142000Y-102174250D01*
X110142000Y-101736750D01*
X110143053Y-101715309D01*
X110146203Y-101694074D01*
X110151419Y-101673250D01*
X110158651Y-101653038D01*
X110167830Y-101633632D01*
X110178866Y-101615219D01*
X110191654Y-101597976D01*
X110206070Y-101582070D01*
X110221976Y-101567654D01*
X110239219Y-101554866D01*
X110257632Y-101543830D01*
X110277038Y-101534651D01*
X110297250Y-101527419D01*
X110318074Y-101522203D01*
X110339309Y-101519053D01*
X110360750Y-101518000D01*
X110873250Y-101518000D01*
X110894691Y-101519053D01*
X110894691Y-101519053D01*
G37*
D12*
X110617000Y-101955500D03*
G04 #@! TD*
D10*
G04 #@! TO.C,R3*
G36*
X113942691Y-101519053D02*
X113963926Y-101522203D01*
X113984750Y-101527419D01*
X114004962Y-101534651D01*
X114024368Y-101543830D01*
X114042781Y-101554866D01*
X114060024Y-101567654D01*
X114075930Y-101582070D01*
X114090346Y-101597976D01*
X114103134Y-101615219D01*
X114114170Y-101633632D01*
X114123349Y-101653038D01*
X114130581Y-101673250D01*
X114135797Y-101694074D01*
X114138947Y-101715309D01*
X114140000Y-101736750D01*
X114140000Y-102174250D01*
X114138947Y-102195691D01*
X114135797Y-102216926D01*
X114130581Y-102237750D01*
X114123349Y-102257962D01*
X114114170Y-102277368D01*
X114103134Y-102295781D01*
X114090346Y-102313024D01*
X114075930Y-102328930D01*
X114060024Y-102343346D01*
X114042781Y-102356134D01*
X114024368Y-102367170D01*
X114004962Y-102376349D01*
X113984750Y-102383581D01*
X113963926Y-102388797D01*
X113942691Y-102391947D01*
X113921250Y-102393000D01*
X113408750Y-102393000D01*
X113387309Y-102391947D01*
X113366074Y-102388797D01*
X113345250Y-102383581D01*
X113325038Y-102376349D01*
X113305632Y-102367170D01*
X113287219Y-102356134D01*
X113269976Y-102343346D01*
X113254070Y-102328930D01*
X113239654Y-102313024D01*
X113226866Y-102295781D01*
X113215830Y-102277368D01*
X113206651Y-102257962D01*
X113199419Y-102237750D01*
X113194203Y-102216926D01*
X113191053Y-102195691D01*
X113190000Y-102174250D01*
X113190000Y-101736750D01*
X113191053Y-101715309D01*
X113194203Y-101694074D01*
X113199419Y-101673250D01*
X113206651Y-101653038D01*
X113215830Y-101633632D01*
X113226866Y-101615219D01*
X113239654Y-101597976D01*
X113254070Y-101582070D01*
X113269976Y-101567654D01*
X113287219Y-101554866D01*
X113305632Y-101543830D01*
X113325038Y-101534651D01*
X113345250Y-101527419D01*
X113366074Y-101522203D01*
X113387309Y-101519053D01*
X113408750Y-101518000D01*
X113921250Y-101518000D01*
X113942691Y-101519053D01*
X113942691Y-101519053D01*
G37*
D12*
X113665000Y-101955500D03*
D10*
G36*
X113942691Y-103094053D02*
X113963926Y-103097203D01*
X113984750Y-103102419D01*
X114004962Y-103109651D01*
X114024368Y-103118830D01*
X114042781Y-103129866D01*
X114060024Y-103142654D01*
X114075930Y-103157070D01*
X114090346Y-103172976D01*
X114103134Y-103190219D01*
X114114170Y-103208632D01*
X114123349Y-103228038D01*
X114130581Y-103248250D01*
X114135797Y-103269074D01*
X114138947Y-103290309D01*
X114140000Y-103311750D01*
X114140000Y-103749250D01*
X114138947Y-103770691D01*
X114135797Y-103791926D01*
X114130581Y-103812750D01*
X114123349Y-103832962D01*
X114114170Y-103852368D01*
X114103134Y-103870781D01*
X114090346Y-103888024D01*
X114075930Y-103903930D01*
X114060024Y-103918346D01*
X114042781Y-103931134D01*
X114024368Y-103942170D01*
X114004962Y-103951349D01*
X113984750Y-103958581D01*
X113963926Y-103963797D01*
X113942691Y-103966947D01*
X113921250Y-103968000D01*
X113408750Y-103968000D01*
X113387309Y-103966947D01*
X113366074Y-103963797D01*
X113345250Y-103958581D01*
X113325038Y-103951349D01*
X113305632Y-103942170D01*
X113287219Y-103931134D01*
X113269976Y-103918346D01*
X113254070Y-103903930D01*
X113239654Y-103888024D01*
X113226866Y-103870781D01*
X113215830Y-103852368D01*
X113206651Y-103832962D01*
X113199419Y-103812750D01*
X113194203Y-103791926D01*
X113191053Y-103770691D01*
X113190000Y-103749250D01*
X113190000Y-103311750D01*
X113191053Y-103290309D01*
X113194203Y-103269074D01*
X113199419Y-103248250D01*
X113206651Y-103228038D01*
X113215830Y-103208632D01*
X113226866Y-103190219D01*
X113239654Y-103172976D01*
X113254070Y-103157070D01*
X113269976Y-103142654D01*
X113287219Y-103129866D01*
X113305632Y-103118830D01*
X113325038Y-103109651D01*
X113345250Y-103102419D01*
X113366074Y-103097203D01*
X113387309Y-103094053D01*
X113408750Y-103093000D01*
X113921250Y-103093000D01*
X113942691Y-103094053D01*
X113942691Y-103094053D01*
G37*
D12*
X113665000Y-103530500D03*
G04 #@! TD*
D10*
G04 #@! TO.C,R4*
G36*
X109751691Y-100046053D02*
X109772926Y-100049203D01*
X109793750Y-100054419D01*
X109813962Y-100061651D01*
X109833368Y-100070830D01*
X109851781Y-100081866D01*
X109869024Y-100094654D01*
X109884930Y-100109070D01*
X109899346Y-100124976D01*
X109912134Y-100142219D01*
X109923170Y-100160632D01*
X109932349Y-100180038D01*
X109939581Y-100200250D01*
X109944797Y-100221074D01*
X109947947Y-100242309D01*
X109949000Y-100263750D01*
X109949000Y-100701250D01*
X109947947Y-100722691D01*
X109944797Y-100743926D01*
X109939581Y-100764750D01*
X109932349Y-100784962D01*
X109923170Y-100804368D01*
X109912134Y-100822781D01*
X109899346Y-100840024D01*
X109884930Y-100855930D01*
X109869024Y-100870346D01*
X109851781Y-100883134D01*
X109833368Y-100894170D01*
X109813962Y-100903349D01*
X109793750Y-100910581D01*
X109772926Y-100915797D01*
X109751691Y-100918947D01*
X109730250Y-100920000D01*
X109217750Y-100920000D01*
X109196309Y-100918947D01*
X109175074Y-100915797D01*
X109154250Y-100910581D01*
X109134038Y-100903349D01*
X109114632Y-100894170D01*
X109096219Y-100883134D01*
X109078976Y-100870346D01*
X109063070Y-100855930D01*
X109048654Y-100840024D01*
X109035866Y-100822781D01*
X109024830Y-100804368D01*
X109015651Y-100784962D01*
X109008419Y-100764750D01*
X109003203Y-100743926D01*
X109000053Y-100722691D01*
X108999000Y-100701250D01*
X108999000Y-100263750D01*
X109000053Y-100242309D01*
X109003203Y-100221074D01*
X109008419Y-100200250D01*
X109015651Y-100180038D01*
X109024830Y-100160632D01*
X109035866Y-100142219D01*
X109048654Y-100124976D01*
X109063070Y-100109070D01*
X109078976Y-100094654D01*
X109096219Y-100081866D01*
X109114632Y-100070830D01*
X109134038Y-100061651D01*
X109154250Y-100054419D01*
X109175074Y-100049203D01*
X109196309Y-100046053D01*
X109217750Y-100045000D01*
X109730250Y-100045000D01*
X109751691Y-100046053D01*
X109751691Y-100046053D01*
G37*
D12*
X109474000Y-100482500D03*
D10*
G36*
X109751691Y-98471053D02*
X109772926Y-98474203D01*
X109793750Y-98479419D01*
X109813962Y-98486651D01*
X109833368Y-98495830D01*
X109851781Y-98506866D01*
X109869024Y-98519654D01*
X109884930Y-98534070D01*
X109899346Y-98549976D01*
X109912134Y-98567219D01*
X109923170Y-98585632D01*
X109932349Y-98605038D01*
X109939581Y-98625250D01*
X109944797Y-98646074D01*
X109947947Y-98667309D01*
X109949000Y-98688750D01*
X109949000Y-99126250D01*
X109947947Y-99147691D01*
X109944797Y-99168926D01*
X109939581Y-99189750D01*
X109932349Y-99209962D01*
X109923170Y-99229368D01*
X109912134Y-99247781D01*
X109899346Y-99265024D01*
X109884930Y-99280930D01*
X109869024Y-99295346D01*
X109851781Y-99308134D01*
X109833368Y-99319170D01*
X109813962Y-99328349D01*
X109793750Y-99335581D01*
X109772926Y-99340797D01*
X109751691Y-99343947D01*
X109730250Y-99345000D01*
X109217750Y-99345000D01*
X109196309Y-99343947D01*
X109175074Y-99340797D01*
X109154250Y-99335581D01*
X109134038Y-99328349D01*
X109114632Y-99319170D01*
X109096219Y-99308134D01*
X109078976Y-99295346D01*
X109063070Y-99280930D01*
X109048654Y-99265024D01*
X109035866Y-99247781D01*
X109024830Y-99229368D01*
X109015651Y-99209962D01*
X109008419Y-99189750D01*
X109003203Y-99168926D01*
X109000053Y-99147691D01*
X108999000Y-99126250D01*
X108999000Y-98688750D01*
X109000053Y-98667309D01*
X109003203Y-98646074D01*
X109008419Y-98625250D01*
X109015651Y-98605038D01*
X109024830Y-98585632D01*
X109035866Y-98567219D01*
X109048654Y-98549976D01*
X109063070Y-98534070D01*
X109078976Y-98519654D01*
X109096219Y-98506866D01*
X109114632Y-98495830D01*
X109134038Y-98486651D01*
X109154250Y-98479419D01*
X109175074Y-98474203D01*
X109196309Y-98471053D01*
X109217750Y-98470000D01*
X109730250Y-98470000D01*
X109751691Y-98471053D01*
X109751691Y-98471053D01*
G37*
D12*
X109474000Y-98907500D03*
G04 #@! TD*
D10*
G04 #@! TO.C,R5*
G36*
X109497691Y-97125053D02*
X109518926Y-97128203D01*
X109539750Y-97133419D01*
X109559962Y-97140651D01*
X109579368Y-97149830D01*
X109597781Y-97160866D01*
X109615024Y-97173654D01*
X109630930Y-97188070D01*
X109645346Y-97203976D01*
X109658134Y-97221219D01*
X109669170Y-97239632D01*
X109678349Y-97259038D01*
X109685581Y-97279250D01*
X109690797Y-97300074D01*
X109693947Y-97321309D01*
X109695000Y-97342750D01*
X109695000Y-97780250D01*
X109693947Y-97801691D01*
X109690797Y-97822926D01*
X109685581Y-97843750D01*
X109678349Y-97863962D01*
X109669170Y-97883368D01*
X109658134Y-97901781D01*
X109645346Y-97919024D01*
X109630930Y-97934930D01*
X109615024Y-97949346D01*
X109597781Y-97962134D01*
X109579368Y-97973170D01*
X109559962Y-97982349D01*
X109539750Y-97989581D01*
X109518926Y-97994797D01*
X109497691Y-97997947D01*
X109476250Y-97999000D01*
X108963750Y-97999000D01*
X108942309Y-97997947D01*
X108921074Y-97994797D01*
X108900250Y-97989581D01*
X108880038Y-97982349D01*
X108860632Y-97973170D01*
X108842219Y-97962134D01*
X108824976Y-97949346D01*
X108809070Y-97934930D01*
X108794654Y-97919024D01*
X108781866Y-97901781D01*
X108770830Y-97883368D01*
X108761651Y-97863962D01*
X108754419Y-97843750D01*
X108749203Y-97822926D01*
X108746053Y-97801691D01*
X108745000Y-97780250D01*
X108745000Y-97342750D01*
X108746053Y-97321309D01*
X108749203Y-97300074D01*
X108754419Y-97279250D01*
X108761651Y-97259038D01*
X108770830Y-97239632D01*
X108781866Y-97221219D01*
X108794654Y-97203976D01*
X108809070Y-97188070D01*
X108824976Y-97173654D01*
X108842219Y-97160866D01*
X108860632Y-97149830D01*
X108880038Y-97140651D01*
X108900250Y-97133419D01*
X108921074Y-97128203D01*
X108942309Y-97125053D01*
X108963750Y-97124000D01*
X109476250Y-97124000D01*
X109497691Y-97125053D01*
X109497691Y-97125053D01*
G37*
D12*
X109220000Y-97561500D03*
D10*
G36*
X109497691Y-95550053D02*
X109518926Y-95553203D01*
X109539750Y-95558419D01*
X109559962Y-95565651D01*
X109579368Y-95574830D01*
X109597781Y-95585866D01*
X109615024Y-95598654D01*
X109630930Y-95613070D01*
X109645346Y-95628976D01*
X109658134Y-95646219D01*
X109669170Y-95664632D01*
X109678349Y-95684038D01*
X109685581Y-95704250D01*
X109690797Y-95725074D01*
X109693947Y-95746309D01*
X109695000Y-95767750D01*
X109695000Y-96205250D01*
X109693947Y-96226691D01*
X109690797Y-96247926D01*
X109685581Y-96268750D01*
X109678349Y-96288962D01*
X109669170Y-96308368D01*
X109658134Y-96326781D01*
X109645346Y-96344024D01*
X109630930Y-96359930D01*
X109615024Y-96374346D01*
X109597781Y-96387134D01*
X109579368Y-96398170D01*
X109559962Y-96407349D01*
X109539750Y-96414581D01*
X109518926Y-96419797D01*
X109497691Y-96422947D01*
X109476250Y-96424000D01*
X108963750Y-96424000D01*
X108942309Y-96422947D01*
X108921074Y-96419797D01*
X108900250Y-96414581D01*
X108880038Y-96407349D01*
X108860632Y-96398170D01*
X108842219Y-96387134D01*
X108824976Y-96374346D01*
X108809070Y-96359930D01*
X108794654Y-96344024D01*
X108781866Y-96326781D01*
X108770830Y-96308368D01*
X108761651Y-96288962D01*
X108754419Y-96268750D01*
X108749203Y-96247926D01*
X108746053Y-96226691D01*
X108745000Y-96205250D01*
X108745000Y-95767750D01*
X108746053Y-95746309D01*
X108749203Y-95725074D01*
X108754419Y-95704250D01*
X108761651Y-95684038D01*
X108770830Y-95664632D01*
X108781866Y-95646219D01*
X108794654Y-95628976D01*
X108809070Y-95613070D01*
X108824976Y-95598654D01*
X108842219Y-95585866D01*
X108860632Y-95574830D01*
X108880038Y-95565651D01*
X108900250Y-95558419D01*
X108921074Y-95553203D01*
X108942309Y-95550053D01*
X108963750Y-95549000D01*
X109476250Y-95549000D01*
X109497691Y-95550053D01*
X109497691Y-95550053D01*
G37*
D12*
X109220000Y-95986500D03*
G04 #@! TD*
D10*
G04 #@! TO.C,R6*
G36*
X140583838Y-92739423D02*
X140607499Y-92742933D01*
X140630703Y-92748745D01*
X140653225Y-92756803D01*
X140674849Y-92767031D01*
X140695366Y-92779328D01*
X140714579Y-92793578D01*
X140732303Y-92809642D01*
X140748367Y-92827366D01*
X140762617Y-92846579D01*
X140774914Y-92867096D01*
X140785142Y-92888720D01*
X140793200Y-92911242D01*
X140799012Y-92934446D01*
X140802522Y-92958107D01*
X140803696Y-92981999D01*
X140803696Y-93469499D01*
X140802522Y-93493391D01*
X140799012Y-93517052D01*
X140793200Y-93540256D01*
X140785142Y-93562778D01*
X140774914Y-93584402D01*
X140762617Y-93604919D01*
X140748367Y-93624132D01*
X140732303Y-93641856D01*
X140714579Y-93657920D01*
X140695366Y-93672170D01*
X140674849Y-93684467D01*
X140653225Y-93694695D01*
X140630703Y-93702753D01*
X140607499Y-93708565D01*
X140583838Y-93712075D01*
X140559946Y-93713249D01*
X139647446Y-93713249D01*
X139623554Y-93712075D01*
X139599893Y-93708565D01*
X139576689Y-93702753D01*
X139554167Y-93694695D01*
X139532543Y-93684467D01*
X139512026Y-93672170D01*
X139492813Y-93657920D01*
X139475089Y-93641856D01*
X139459025Y-93624132D01*
X139444775Y-93604919D01*
X139432478Y-93584402D01*
X139422250Y-93562778D01*
X139414192Y-93540256D01*
X139408380Y-93517052D01*
X139404870Y-93493391D01*
X139403696Y-93469499D01*
X139403696Y-92981999D01*
X139404870Y-92958107D01*
X139408380Y-92934446D01*
X139414192Y-92911242D01*
X139422250Y-92888720D01*
X139432478Y-92867096D01*
X139444775Y-92846579D01*
X139459025Y-92827366D01*
X139475089Y-92809642D01*
X139492813Y-92793578D01*
X139512026Y-92779328D01*
X139532543Y-92767031D01*
X139554167Y-92756803D01*
X139576689Y-92748745D01*
X139599893Y-92742933D01*
X139623554Y-92739423D01*
X139647446Y-92738249D01*
X140559946Y-92738249D01*
X140583838Y-92739423D01*
X140583838Y-92739423D01*
G37*
D13*
X140103696Y-93225749D03*
D10*
G36*
X140583838Y-94614423D02*
X140607499Y-94617933D01*
X140630703Y-94623745D01*
X140653225Y-94631803D01*
X140674849Y-94642031D01*
X140695366Y-94654328D01*
X140714579Y-94668578D01*
X140732303Y-94684642D01*
X140748367Y-94702366D01*
X140762617Y-94721579D01*
X140774914Y-94742096D01*
X140785142Y-94763720D01*
X140793200Y-94786242D01*
X140799012Y-94809446D01*
X140802522Y-94833107D01*
X140803696Y-94856999D01*
X140803696Y-95344499D01*
X140802522Y-95368391D01*
X140799012Y-95392052D01*
X140793200Y-95415256D01*
X140785142Y-95437778D01*
X140774914Y-95459402D01*
X140762617Y-95479919D01*
X140748367Y-95499132D01*
X140732303Y-95516856D01*
X140714579Y-95532920D01*
X140695366Y-95547170D01*
X140674849Y-95559467D01*
X140653225Y-95569695D01*
X140630703Y-95577753D01*
X140607499Y-95583565D01*
X140583838Y-95587075D01*
X140559946Y-95588249D01*
X139647446Y-95588249D01*
X139623554Y-95587075D01*
X139599893Y-95583565D01*
X139576689Y-95577753D01*
X139554167Y-95569695D01*
X139532543Y-95559467D01*
X139512026Y-95547170D01*
X139492813Y-95532920D01*
X139475089Y-95516856D01*
X139459025Y-95499132D01*
X139444775Y-95479919D01*
X139432478Y-95459402D01*
X139422250Y-95437778D01*
X139414192Y-95415256D01*
X139408380Y-95392052D01*
X139404870Y-95368391D01*
X139403696Y-95344499D01*
X139403696Y-94856999D01*
X139404870Y-94833107D01*
X139408380Y-94809446D01*
X139414192Y-94786242D01*
X139422250Y-94763720D01*
X139432478Y-94742096D01*
X139444775Y-94721579D01*
X139459025Y-94702366D01*
X139475089Y-94684642D01*
X139492813Y-94668578D01*
X139512026Y-94654328D01*
X139532543Y-94642031D01*
X139554167Y-94631803D01*
X139576689Y-94623745D01*
X139599893Y-94617933D01*
X139623554Y-94614423D01*
X139647446Y-94613249D01*
X140559946Y-94613249D01*
X140583838Y-94614423D01*
X140583838Y-94614423D01*
G37*
D13*
X140103696Y-95100749D03*
G04 #@! TD*
D16*
G04 #@! TO.C,U2*
X112683000Y-100036000D03*
X111853000Y-100036000D03*
X112683000Y-98846000D03*
X111853000Y-98846000D03*
D17*
X110868000Y-100191000D03*
X110868000Y-99691000D03*
X110868000Y-99191000D03*
X110868000Y-98691000D03*
X113668000Y-98691000D03*
X113668000Y-99191000D03*
X113668000Y-99691000D03*
X113668000Y-100191000D03*
G04 #@! TD*
D18*
G04 #@! TO.C,U3*
X133839696Y-96408249D03*
X133839696Y-95758249D03*
X133839696Y-95108249D03*
X133839696Y-94458249D03*
X138239696Y-94458249D03*
X138239696Y-95108249D03*
X138239696Y-95758249D03*
X138239696Y-96408249D03*
G04 #@! TD*
D19*
G04 #@! TO.C,X1*
X118935000Y-104487000D03*
X118935000Y-106587000D03*
X117285000Y-106587000D03*
X117285000Y-104487000D03*
G04 #@! TD*
D20*
G04 #@! TO.C,U1*
X122524000Y-106273000D03*
X123024000Y-106273000D03*
X123524000Y-106273000D03*
X124024000Y-106273000D03*
X124524000Y-106273000D03*
X125024000Y-106273000D03*
X125524000Y-106273000D03*
X126024000Y-106273000D03*
X126524000Y-106273000D03*
X127024000Y-106273000D03*
X127524000Y-106273000D03*
X128024000Y-106273000D03*
X128524000Y-106273000D03*
X129024000Y-106273000D03*
X129524000Y-106273000D03*
X130024000Y-106273000D03*
X130524000Y-106273000D03*
X131024000Y-106273000D03*
X131524000Y-106273000D03*
X132024000Y-106273000D03*
X132524000Y-106273000D03*
X133024000Y-106273000D03*
X133524000Y-106273000D03*
X134024000Y-106273000D03*
X134524000Y-106273000D03*
D21*
X136424000Y-108173000D03*
X136424000Y-108673000D03*
X136424000Y-109173000D03*
X136424000Y-109673000D03*
X136424000Y-110173000D03*
X136424000Y-110673000D03*
X136424000Y-111173000D03*
X136424000Y-111673000D03*
X136424000Y-112173000D03*
X136424000Y-112673000D03*
X136424000Y-113173000D03*
X136424000Y-113673000D03*
X136424000Y-114173000D03*
X136424000Y-114673000D03*
X136424000Y-115173000D03*
X136424000Y-115673000D03*
X136424000Y-116173000D03*
X136424000Y-116673000D03*
X136424000Y-117173000D03*
X136424000Y-117673000D03*
X136424000Y-118173000D03*
X136424000Y-118673000D03*
X136424000Y-119173000D03*
X136424000Y-119673000D03*
X136424000Y-120173000D03*
D20*
X134524000Y-122073000D03*
X134024000Y-122073000D03*
X133524000Y-122073000D03*
X133024000Y-122073000D03*
X132524000Y-122073000D03*
X132024000Y-122073000D03*
X131524000Y-122073000D03*
X131024000Y-122073000D03*
X130524000Y-122073000D03*
X130024000Y-122073000D03*
X129524000Y-122073000D03*
X129024000Y-122073000D03*
X128524000Y-122073000D03*
X128024000Y-122073000D03*
X127524000Y-122073000D03*
X127024000Y-122073000D03*
X126524000Y-122073000D03*
X126024000Y-122073000D03*
X125524000Y-122073000D03*
X125024000Y-122073000D03*
X124524000Y-122073000D03*
X124024000Y-122073000D03*
X123524000Y-122073000D03*
X123024000Y-122073000D03*
X122524000Y-122073000D03*
D21*
X120624000Y-120173000D03*
X120624000Y-119673000D03*
X120624000Y-119173000D03*
X120624000Y-118673000D03*
X120624000Y-118173000D03*
X120624000Y-117673000D03*
X120624000Y-117173000D03*
X120624000Y-116673000D03*
X120624000Y-116173000D03*
X120624000Y-115673000D03*
X120624000Y-115173000D03*
X120624000Y-114673000D03*
X120624000Y-114173000D03*
X120624000Y-113673000D03*
X120624000Y-113173000D03*
X120624000Y-112673000D03*
X120624000Y-112173000D03*
X120624000Y-111673000D03*
X120624000Y-111173000D03*
X120624000Y-110673000D03*
X120624000Y-110173000D03*
X120624000Y-109673000D03*
X120624000Y-109173000D03*
X120624000Y-108673000D03*
X120624000Y-108173000D03*
G04 #@! TD*
D10*
G04 #@! TO.C,C1*
G36*
X120673691Y-103551053D02*
X120694926Y-103554203D01*
X120715750Y-103559419D01*
X120735962Y-103566651D01*
X120755368Y-103575830D01*
X120773781Y-103586866D01*
X120791024Y-103599654D01*
X120806930Y-103614070D01*
X120821346Y-103629976D01*
X120834134Y-103647219D01*
X120845170Y-103665632D01*
X120854349Y-103685038D01*
X120861581Y-103705250D01*
X120866797Y-103726074D01*
X120869947Y-103747309D01*
X120871000Y-103768750D01*
X120871000Y-104206250D01*
X120869947Y-104227691D01*
X120866797Y-104248926D01*
X120861581Y-104269750D01*
X120854349Y-104289962D01*
X120845170Y-104309368D01*
X120834134Y-104327781D01*
X120821346Y-104345024D01*
X120806930Y-104360930D01*
X120791024Y-104375346D01*
X120773781Y-104388134D01*
X120755368Y-104399170D01*
X120735962Y-104408349D01*
X120715750Y-104415581D01*
X120694926Y-104420797D01*
X120673691Y-104423947D01*
X120652250Y-104425000D01*
X120139750Y-104425000D01*
X120118309Y-104423947D01*
X120097074Y-104420797D01*
X120076250Y-104415581D01*
X120056038Y-104408349D01*
X120036632Y-104399170D01*
X120018219Y-104388134D01*
X120000976Y-104375346D01*
X119985070Y-104360930D01*
X119970654Y-104345024D01*
X119957866Y-104327781D01*
X119946830Y-104309368D01*
X119937651Y-104289962D01*
X119930419Y-104269750D01*
X119925203Y-104248926D01*
X119922053Y-104227691D01*
X119921000Y-104206250D01*
X119921000Y-103768750D01*
X119922053Y-103747309D01*
X119925203Y-103726074D01*
X119930419Y-103705250D01*
X119937651Y-103685038D01*
X119946830Y-103665632D01*
X119957866Y-103647219D01*
X119970654Y-103629976D01*
X119985070Y-103614070D01*
X120000976Y-103599654D01*
X120018219Y-103586866D01*
X120036632Y-103575830D01*
X120056038Y-103566651D01*
X120076250Y-103559419D01*
X120097074Y-103554203D01*
X120118309Y-103551053D01*
X120139750Y-103550000D01*
X120652250Y-103550000D01*
X120673691Y-103551053D01*
X120673691Y-103551053D01*
G37*
D12*
X120396000Y-103987500D03*
D10*
G36*
X120673691Y-105126053D02*
X120694926Y-105129203D01*
X120715750Y-105134419D01*
X120735962Y-105141651D01*
X120755368Y-105150830D01*
X120773781Y-105161866D01*
X120791024Y-105174654D01*
X120806930Y-105189070D01*
X120821346Y-105204976D01*
X120834134Y-105222219D01*
X120845170Y-105240632D01*
X120854349Y-105260038D01*
X120861581Y-105280250D01*
X120866797Y-105301074D01*
X120869947Y-105322309D01*
X120871000Y-105343750D01*
X120871000Y-105781250D01*
X120869947Y-105802691D01*
X120866797Y-105823926D01*
X120861581Y-105844750D01*
X120854349Y-105864962D01*
X120845170Y-105884368D01*
X120834134Y-105902781D01*
X120821346Y-105920024D01*
X120806930Y-105935930D01*
X120791024Y-105950346D01*
X120773781Y-105963134D01*
X120755368Y-105974170D01*
X120735962Y-105983349D01*
X120715750Y-105990581D01*
X120694926Y-105995797D01*
X120673691Y-105998947D01*
X120652250Y-106000000D01*
X120139750Y-106000000D01*
X120118309Y-105998947D01*
X120097074Y-105995797D01*
X120076250Y-105990581D01*
X120056038Y-105983349D01*
X120036632Y-105974170D01*
X120018219Y-105963134D01*
X120000976Y-105950346D01*
X119985070Y-105935930D01*
X119970654Y-105920024D01*
X119957866Y-105902781D01*
X119946830Y-105884368D01*
X119937651Y-105864962D01*
X119930419Y-105844750D01*
X119925203Y-105823926D01*
X119922053Y-105802691D01*
X119921000Y-105781250D01*
X119921000Y-105343750D01*
X119922053Y-105322309D01*
X119925203Y-105301074D01*
X119930419Y-105280250D01*
X119937651Y-105260038D01*
X119946830Y-105240632D01*
X119957866Y-105222219D01*
X119970654Y-105204976D01*
X119985070Y-105189070D01*
X120000976Y-105174654D01*
X120018219Y-105161866D01*
X120036632Y-105150830D01*
X120056038Y-105141651D01*
X120076250Y-105134419D01*
X120097074Y-105129203D01*
X120118309Y-105126053D01*
X120139750Y-105125000D01*
X120652250Y-105125000D01*
X120673691Y-105126053D01*
X120673691Y-105126053D01*
G37*
D12*
X120396000Y-105562500D03*
G04 #@! TD*
D10*
G04 #@! TO.C,C2*
G36*
X139984692Y-119153054D02*
X140005927Y-119156204D01*
X140026751Y-119161420D01*
X140046963Y-119168652D01*
X140066369Y-119177831D01*
X140084782Y-119188867D01*
X140102025Y-119201655D01*
X140117931Y-119216071D01*
X140132347Y-119231977D01*
X140145135Y-119249220D01*
X140156171Y-119267633D01*
X140165350Y-119287039D01*
X140172582Y-119307251D01*
X140177798Y-119328075D01*
X140180948Y-119349310D01*
X140182001Y-119370751D01*
X140182001Y-119883251D01*
X140180948Y-119904692D01*
X140177798Y-119925927D01*
X140172582Y-119946751D01*
X140165350Y-119966963D01*
X140156171Y-119986369D01*
X140145135Y-120004782D01*
X140132347Y-120022025D01*
X140117931Y-120037931D01*
X140102025Y-120052347D01*
X140084782Y-120065135D01*
X140066369Y-120076171D01*
X140046963Y-120085350D01*
X140026751Y-120092582D01*
X140005927Y-120097798D01*
X139984692Y-120100948D01*
X139963251Y-120102001D01*
X139525751Y-120102001D01*
X139504310Y-120100948D01*
X139483075Y-120097798D01*
X139462251Y-120092582D01*
X139442039Y-120085350D01*
X139422633Y-120076171D01*
X139404220Y-120065135D01*
X139386977Y-120052347D01*
X139371071Y-120037931D01*
X139356655Y-120022025D01*
X139343867Y-120004782D01*
X139332831Y-119986369D01*
X139323652Y-119966963D01*
X139316420Y-119946751D01*
X139311204Y-119925927D01*
X139308054Y-119904692D01*
X139307001Y-119883251D01*
X139307001Y-119370751D01*
X139308054Y-119349310D01*
X139311204Y-119328075D01*
X139316420Y-119307251D01*
X139323652Y-119287039D01*
X139332831Y-119267633D01*
X139343867Y-119249220D01*
X139356655Y-119231977D01*
X139371071Y-119216071D01*
X139386977Y-119201655D01*
X139404220Y-119188867D01*
X139422633Y-119177831D01*
X139442039Y-119168652D01*
X139462251Y-119161420D01*
X139483075Y-119156204D01*
X139504310Y-119153054D01*
X139525751Y-119152001D01*
X139963251Y-119152001D01*
X139984692Y-119153054D01*
X139984692Y-119153054D01*
G37*
D12*
X139744501Y-119627001D03*
D10*
G36*
X138409692Y-119153054D02*
X138430927Y-119156204D01*
X138451751Y-119161420D01*
X138471963Y-119168652D01*
X138491369Y-119177831D01*
X138509782Y-119188867D01*
X138527025Y-119201655D01*
X138542931Y-119216071D01*
X138557347Y-119231977D01*
X138570135Y-119249220D01*
X138581171Y-119267633D01*
X138590350Y-119287039D01*
X138597582Y-119307251D01*
X138602798Y-119328075D01*
X138605948Y-119349310D01*
X138607001Y-119370751D01*
X138607001Y-119883251D01*
X138605948Y-119904692D01*
X138602798Y-119925927D01*
X138597582Y-119946751D01*
X138590350Y-119966963D01*
X138581171Y-119986369D01*
X138570135Y-120004782D01*
X138557347Y-120022025D01*
X138542931Y-120037931D01*
X138527025Y-120052347D01*
X138509782Y-120065135D01*
X138491369Y-120076171D01*
X138471963Y-120085350D01*
X138451751Y-120092582D01*
X138430927Y-120097798D01*
X138409692Y-120100948D01*
X138388251Y-120102001D01*
X137950751Y-120102001D01*
X137929310Y-120100948D01*
X137908075Y-120097798D01*
X137887251Y-120092582D01*
X137867039Y-120085350D01*
X137847633Y-120076171D01*
X137829220Y-120065135D01*
X137811977Y-120052347D01*
X137796071Y-120037931D01*
X137781655Y-120022025D01*
X137768867Y-120004782D01*
X137757831Y-119986369D01*
X137748652Y-119966963D01*
X137741420Y-119946751D01*
X137736204Y-119925927D01*
X137733054Y-119904692D01*
X137732001Y-119883251D01*
X137732001Y-119370751D01*
X137733054Y-119349310D01*
X137736204Y-119328075D01*
X137741420Y-119307251D01*
X137748652Y-119287039D01*
X137757831Y-119267633D01*
X137768867Y-119249220D01*
X137781655Y-119231977D01*
X137796071Y-119216071D01*
X137811977Y-119201655D01*
X137829220Y-119188867D01*
X137847633Y-119177831D01*
X137867039Y-119168652D01*
X137887251Y-119161420D01*
X137908075Y-119156204D01*
X137929310Y-119153054D01*
X137950751Y-119152001D01*
X138388251Y-119152001D01*
X138409692Y-119153054D01*
X138409692Y-119153054D01*
G37*
D12*
X138169501Y-119627001D03*
G04 #@! TD*
D10*
G04 #@! TO.C,C3*
G36*
X138390691Y-120557053D02*
X138411926Y-120560203D01*
X138432750Y-120565419D01*
X138452962Y-120572651D01*
X138472368Y-120581830D01*
X138490781Y-120592866D01*
X138508024Y-120605654D01*
X138523930Y-120620070D01*
X138538346Y-120635976D01*
X138551134Y-120653219D01*
X138562170Y-120671632D01*
X138571349Y-120691038D01*
X138578581Y-120711250D01*
X138583797Y-120732074D01*
X138586947Y-120753309D01*
X138588000Y-120774750D01*
X138588000Y-121287250D01*
X138586947Y-121308691D01*
X138583797Y-121329926D01*
X138578581Y-121350750D01*
X138571349Y-121370962D01*
X138562170Y-121390368D01*
X138551134Y-121408781D01*
X138538346Y-121426024D01*
X138523930Y-121441930D01*
X138508024Y-121456346D01*
X138490781Y-121469134D01*
X138472368Y-121480170D01*
X138452962Y-121489349D01*
X138432750Y-121496581D01*
X138411926Y-121501797D01*
X138390691Y-121504947D01*
X138369250Y-121506000D01*
X137931750Y-121506000D01*
X137910309Y-121504947D01*
X137889074Y-121501797D01*
X137868250Y-121496581D01*
X137848038Y-121489349D01*
X137828632Y-121480170D01*
X137810219Y-121469134D01*
X137792976Y-121456346D01*
X137777070Y-121441930D01*
X137762654Y-121426024D01*
X137749866Y-121408781D01*
X137738830Y-121390368D01*
X137729651Y-121370962D01*
X137722419Y-121350750D01*
X137717203Y-121329926D01*
X137714053Y-121308691D01*
X137713000Y-121287250D01*
X137713000Y-120774750D01*
X137714053Y-120753309D01*
X137717203Y-120732074D01*
X137722419Y-120711250D01*
X137729651Y-120691038D01*
X137738830Y-120671632D01*
X137749866Y-120653219D01*
X137762654Y-120635976D01*
X137777070Y-120620070D01*
X137792976Y-120605654D01*
X137810219Y-120592866D01*
X137828632Y-120581830D01*
X137848038Y-120572651D01*
X137868250Y-120565419D01*
X137889074Y-120560203D01*
X137910309Y-120557053D01*
X137931750Y-120556000D01*
X138369250Y-120556000D01*
X138390691Y-120557053D01*
X138390691Y-120557053D01*
G37*
D12*
X138150500Y-121031000D03*
D10*
G36*
X139965691Y-120557053D02*
X139986926Y-120560203D01*
X140007750Y-120565419D01*
X140027962Y-120572651D01*
X140047368Y-120581830D01*
X140065781Y-120592866D01*
X140083024Y-120605654D01*
X140098930Y-120620070D01*
X140113346Y-120635976D01*
X140126134Y-120653219D01*
X140137170Y-120671632D01*
X140146349Y-120691038D01*
X140153581Y-120711250D01*
X140158797Y-120732074D01*
X140161947Y-120753309D01*
X140163000Y-120774750D01*
X140163000Y-121287250D01*
X140161947Y-121308691D01*
X140158797Y-121329926D01*
X140153581Y-121350750D01*
X140146349Y-121370962D01*
X140137170Y-121390368D01*
X140126134Y-121408781D01*
X140113346Y-121426024D01*
X140098930Y-121441930D01*
X140083024Y-121456346D01*
X140065781Y-121469134D01*
X140047368Y-121480170D01*
X140027962Y-121489349D01*
X140007750Y-121496581D01*
X139986926Y-121501797D01*
X139965691Y-121504947D01*
X139944250Y-121506000D01*
X139506750Y-121506000D01*
X139485309Y-121504947D01*
X139464074Y-121501797D01*
X139443250Y-121496581D01*
X139423038Y-121489349D01*
X139403632Y-121480170D01*
X139385219Y-121469134D01*
X139367976Y-121456346D01*
X139352070Y-121441930D01*
X139337654Y-121426024D01*
X139324866Y-121408781D01*
X139313830Y-121390368D01*
X139304651Y-121370962D01*
X139297419Y-121350750D01*
X139292203Y-121329926D01*
X139289053Y-121308691D01*
X139288000Y-121287250D01*
X139288000Y-120774750D01*
X139289053Y-120753309D01*
X139292203Y-120732074D01*
X139297419Y-120711250D01*
X139304651Y-120691038D01*
X139313830Y-120671632D01*
X139324866Y-120653219D01*
X139337654Y-120635976D01*
X139352070Y-120620070D01*
X139367976Y-120605654D01*
X139385219Y-120592866D01*
X139403632Y-120581830D01*
X139423038Y-120572651D01*
X139443250Y-120565419D01*
X139464074Y-120560203D01*
X139485309Y-120557053D01*
X139506750Y-120556000D01*
X139944250Y-120556000D01*
X139965691Y-120557053D01*
X139965691Y-120557053D01*
G37*
D12*
X139725500Y-121031000D03*
G04 #@! TD*
D10*
G04 #@! TO.C,C5*
G36*
X135670387Y-97118302D02*
X135691622Y-97121452D01*
X135712446Y-97126668D01*
X135732658Y-97133900D01*
X135752064Y-97143079D01*
X135770477Y-97154115D01*
X135787720Y-97166903D01*
X135803626Y-97181319D01*
X135818042Y-97197225D01*
X135830830Y-97214468D01*
X135841866Y-97232881D01*
X135851045Y-97252287D01*
X135858277Y-97272499D01*
X135863493Y-97293323D01*
X135866643Y-97314558D01*
X135867696Y-97335999D01*
X135867696Y-97848499D01*
X135866643Y-97869940D01*
X135863493Y-97891175D01*
X135858277Y-97911999D01*
X135851045Y-97932211D01*
X135841866Y-97951617D01*
X135830830Y-97970030D01*
X135818042Y-97987273D01*
X135803626Y-98003179D01*
X135787720Y-98017595D01*
X135770477Y-98030383D01*
X135752064Y-98041419D01*
X135732658Y-98050598D01*
X135712446Y-98057830D01*
X135691622Y-98063046D01*
X135670387Y-98066196D01*
X135648946Y-98067249D01*
X135211446Y-98067249D01*
X135190005Y-98066196D01*
X135168770Y-98063046D01*
X135147946Y-98057830D01*
X135127734Y-98050598D01*
X135108328Y-98041419D01*
X135089915Y-98030383D01*
X135072672Y-98017595D01*
X135056766Y-98003179D01*
X135042350Y-97987273D01*
X135029562Y-97970030D01*
X135018526Y-97951617D01*
X135009347Y-97932211D01*
X135002115Y-97911999D01*
X134996899Y-97891175D01*
X134993749Y-97869940D01*
X134992696Y-97848499D01*
X134992696Y-97335999D01*
X134993749Y-97314558D01*
X134996899Y-97293323D01*
X135002115Y-97272499D01*
X135009347Y-97252287D01*
X135018526Y-97232881D01*
X135029562Y-97214468D01*
X135042350Y-97197225D01*
X135056766Y-97181319D01*
X135072672Y-97166903D01*
X135089915Y-97154115D01*
X135108328Y-97143079D01*
X135127734Y-97133900D01*
X135147946Y-97126668D01*
X135168770Y-97121452D01*
X135190005Y-97118302D01*
X135211446Y-97117249D01*
X135648946Y-97117249D01*
X135670387Y-97118302D01*
X135670387Y-97118302D01*
G37*
D12*
X135430196Y-97592249D03*
D10*
G36*
X134095387Y-97118302D02*
X134116622Y-97121452D01*
X134137446Y-97126668D01*
X134157658Y-97133900D01*
X134177064Y-97143079D01*
X134195477Y-97154115D01*
X134212720Y-97166903D01*
X134228626Y-97181319D01*
X134243042Y-97197225D01*
X134255830Y-97214468D01*
X134266866Y-97232881D01*
X134276045Y-97252287D01*
X134283277Y-97272499D01*
X134288493Y-97293323D01*
X134291643Y-97314558D01*
X134292696Y-97335999D01*
X134292696Y-97848499D01*
X134291643Y-97869940D01*
X134288493Y-97891175D01*
X134283277Y-97911999D01*
X134276045Y-97932211D01*
X134266866Y-97951617D01*
X134255830Y-97970030D01*
X134243042Y-97987273D01*
X134228626Y-98003179D01*
X134212720Y-98017595D01*
X134195477Y-98030383D01*
X134177064Y-98041419D01*
X134157658Y-98050598D01*
X134137446Y-98057830D01*
X134116622Y-98063046D01*
X134095387Y-98066196D01*
X134073946Y-98067249D01*
X133636446Y-98067249D01*
X133615005Y-98066196D01*
X133593770Y-98063046D01*
X133572946Y-98057830D01*
X133552734Y-98050598D01*
X133533328Y-98041419D01*
X133514915Y-98030383D01*
X133497672Y-98017595D01*
X133481766Y-98003179D01*
X133467350Y-97987273D01*
X133454562Y-97970030D01*
X133443526Y-97951617D01*
X133434347Y-97932211D01*
X133427115Y-97911999D01*
X133421899Y-97891175D01*
X133418749Y-97869940D01*
X133417696Y-97848499D01*
X133417696Y-97335999D01*
X133418749Y-97314558D01*
X133421899Y-97293323D01*
X133427115Y-97272499D01*
X133434347Y-97252287D01*
X133443526Y-97232881D01*
X133454562Y-97214468D01*
X133467350Y-97197225D01*
X133481766Y-97181319D01*
X133497672Y-97166903D01*
X133514915Y-97154115D01*
X133533328Y-97143079D01*
X133552734Y-97133900D01*
X133572946Y-97126668D01*
X133593770Y-97121452D01*
X133615005Y-97118302D01*
X133636446Y-97117249D01*
X134073946Y-97117249D01*
X134095387Y-97118302D01*
X134095387Y-97118302D01*
G37*
D12*
X133855196Y-97592249D03*
G04 #@! TD*
D10*
G04 #@! TO.C,C6*
G36*
X114067504Y-94942204D02*
X114091773Y-94945804D01*
X114115571Y-94951765D01*
X114138671Y-94960030D01*
X114160849Y-94970520D01*
X114181893Y-94983133D01*
X114201598Y-94997747D01*
X114219777Y-95014223D01*
X114236253Y-95032402D01*
X114250867Y-95052107D01*
X114263480Y-95073151D01*
X114273970Y-95095329D01*
X114282235Y-95118429D01*
X114288196Y-95142227D01*
X114291796Y-95166496D01*
X114293000Y-95191000D01*
X114293000Y-97341000D01*
X114291796Y-97365504D01*
X114288196Y-97389773D01*
X114282235Y-97413571D01*
X114273970Y-97436671D01*
X114263480Y-97458849D01*
X114250867Y-97479893D01*
X114236253Y-97499598D01*
X114219777Y-97517777D01*
X114201598Y-97534253D01*
X114181893Y-97548867D01*
X114160849Y-97561480D01*
X114138671Y-97571970D01*
X114115571Y-97580235D01*
X114091773Y-97586196D01*
X114067504Y-97589796D01*
X114043000Y-97591000D01*
X113293000Y-97591000D01*
X113268496Y-97589796D01*
X113244227Y-97586196D01*
X113220429Y-97580235D01*
X113197329Y-97571970D01*
X113175151Y-97561480D01*
X113154107Y-97548867D01*
X113134402Y-97534253D01*
X113116223Y-97517777D01*
X113099747Y-97499598D01*
X113085133Y-97479893D01*
X113072520Y-97458849D01*
X113062030Y-97436671D01*
X113053765Y-97413571D01*
X113047804Y-97389773D01*
X113044204Y-97365504D01*
X113043000Y-97341000D01*
X113043000Y-95191000D01*
X113044204Y-95166496D01*
X113047804Y-95142227D01*
X113053765Y-95118429D01*
X113062030Y-95095329D01*
X113072520Y-95073151D01*
X113085133Y-95052107D01*
X113099747Y-95032402D01*
X113116223Y-95014223D01*
X113134402Y-94997747D01*
X113154107Y-94983133D01*
X113175151Y-94970520D01*
X113197329Y-94960030D01*
X113220429Y-94951765D01*
X113244227Y-94945804D01*
X113268496Y-94942204D01*
X113293000Y-94941000D01*
X114043000Y-94941000D01*
X114067504Y-94942204D01*
X114067504Y-94942204D01*
G37*
D15*
X113668000Y-96266000D03*
D10*
G36*
X111267504Y-94942204D02*
X111291773Y-94945804D01*
X111315571Y-94951765D01*
X111338671Y-94960030D01*
X111360849Y-94970520D01*
X111381893Y-94983133D01*
X111401598Y-94997747D01*
X111419777Y-95014223D01*
X111436253Y-95032402D01*
X111450867Y-95052107D01*
X111463480Y-95073151D01*
X111473970Y-95095329D01*
X111482235Y-95118429D01*
X111488196Y-95142227D01*
X111491796Y-95166496D01*
X111493000Y-95191000D01*
X111493000Y-97341000D01*
X111491796Y-97365504D01*
X111488196Y-97389773D01*
X111482235Y-97413571D01*
X111473970Y-97436671D01*
X111463480Y-97458849D01*
X111450867Y-97479893D01*
X111436253Y-97499598D01*
X111419777Y-97517777D01*
X111401598Y-97534253D01*
X111381893Y-97548867D01*
X111360849Y-97561480D01*
X111338671Y-97571970D01*
X111315571Y-97580235D01*
X111291773Y-97586196D01*
X111267504Y-97589796D01*
X111243000Y-97591000D01*
X110493000Y-97591000D01*
X110468496Y-97589796D01*
X110444227Y-97586196D01*
X110420429Y-97580235D01*
X110397329Y-97571970D01*
X110375151Y-97561480D01*
X110354107Y-97548867D01*
X110334402Y-97534253D01*
X110316223Y-97517777D01*
X110299747Y-97499598D01*
X110285133Y-97479893D01*
X110272520Y-97458849D01*
X110262030Y-97436671D01*
X110253765Y-97413571D01*
X110247804Y-97389773D01*
X110244204Y-97365504D01*
X110243000Y-97341000D01*
X110243000Y-95191000D01*
X110244204Y-95166496D01*
X110247804Y-95142227D01*
X110253765Y-95118429D01*
X110262030Y-95095329D01*
X110272520Y-95073151D01*
X110285133Y-95052107D01*
X110299747Y-95032402D01*
X110316223Y-95014223D01*
X110334402Y-94997747D01*
X110354107Y-94983133D01*
X110375151Y-94970520D01*
X110397329Y-94960030D01*
X110420429Y-94951765D01*
X110444227Y-94945804D01*
X110468496Y-94942204D01*
X110493000Y-94941000D01*
X111243000Y-94941000D01*
X111267504Y-94942204D01*
X111267504Y-94942204D01*
G37*
D15*
X110868000Y-96266000D03*
G04 #@! TD*
D10*
G04 #@! TO.C,C7*
G36*
X136889387Y-92673302D02*
X136910622Y-92676452D01*
X136931446Y-92681668D01*
X136951658Y-92688900D01*
X136971064Y-92698079D01*
X136989477Y-92709115D01*
X137006720Y-92721903D01*
X137022626Y-92736319D01*
X137037042Y-92752225D01*
X137049830Y-92769468D01*
X137060866Y-92787881D01*
X137070045Y-92807287D01*
X137077277Y-92827499D01*
X137082493Y-92848323D01*
X137085643Y-92869558D01*
X137086696Y-92890999D01*
X137086696Y-93403499D01*
X137085643Y-93424940D01*
X137082493Y-93446175D01*
X137077277Y-93466999D01*
X137070045Y-93487211D01*
X137060866Y-93506617D01*
X137049830Y-93525030D01*
X137037042Y-93542273D01*
X137022626Y-93558179D01*
X137006720Y-93572595D01*
X136989477Y-93585383D01*
X136971064Y-93596419D01*
X136951658Y-93605598D01*
X136931446Y-93612830D01*
X136910622Y-93618046D01*
X136889387Y-93621196D01*
X136867946Y-93622249D01*
X136430446Y-93622249D01*
X136409005Y-93621196D01*
X136387770Y-93618046D01*
X136366946Y-93612830D01*
X136346734Y-93605598D01*
X136327328Y-93596419D01*
X136308915Y-93585383D01*
X136291672Y-93572595D01*
X136275766Y-93558179D01*
X136261350Y-93542273D01*
X136248562Y-93525030D01*
X136237526Y-93506617D01*
X136228347Y-93487211D01*
X136221115Y-93466999D01*
X136215899Y-93446175D01*
X136212749Y-93424940D01*
X136211696Y-93403499D01*
X136211696Y-92890999D01*
X136212749Y-92869558D01*
X136215899Y-92848323D01*
X136221115Y-92827499D01*
X136228347Y-92807287D01*
X136237526Y-92787881D01*
X136248562Y-92769468D01*
X136261350Y-92752225D01*
X136275766Y-92736319D01*
X136291672Y-92721903D01*
X136308915Y-92709115D01*
X136327328Y-92698079D01*
X136346734Y-92688900D01*
X136366946Y-92681668D01*
X136387770Y-92676452D01*
X136409005Y-92673302D01*
X136430446Y-92672249D01*
X136867946Y-92672249D01*
X136889387Y-92673302D01*
X136889387Y-92673302D01*
G37*
D12*
X136649196Y-93147249D03*
D10*
G36*
X138464387Y-92673302D02*
X138485622Y-92676452D01*
X138506446Y-92681668D01*
X138526658Y-92688900D01*
X138546064Y-92698079D01*
X138564477Y-92709115D01*
X138581720Y-92721903D01*
X138597626Y-92736319D01*
X138612042Y-92752225D01*
X138624830Y-92769468D01*
X138635866Y-92787881D01*
X138645045Y-92807287D01*
X138652277Y-92827499D01*
X138657493Y-92848323D01*
X138660643Y-92869558D01*
X138661696Y-92890999D01*
X138661696Y-93403499D01*
X138660643Y-93424940D01*
X138657493Y-93446175D01*
X138652277Y-93466999D01*
X138645045Y-93487211D01*
X138635866Y-93506617D01*
X138624830Y-93525030D01*
X138612042Y-93542273D01*
X138597626Y-93558179D01*
X138581720Y-93572595D01*
X138564477Y-93585383D01*
X138546064Y-93596419D01*
X138526658Y-93605598D01*
X138506446Y-93612830D01*
X138485622Y-93618046D01*
X138464387Y-93621196D01*
X138442946Y-93622249D01*
X138005446Y-93622249D01*
X137984005Y-93621196D01*
X137962770Y-93618046D01*
X137941946Y-93612830D01*
X137921734Y-93605598D01*
X137902328Y-93596419D01*
X137883915Y-93585383D01*
X137866672Y-93572595D01*
X137850766Y-93558179D01*
X137836350Y-93542273D01*
X137823562Y-93525030D01*
X137812526Y-93506617D01*
X137803347Y-93487211D01*
X137796115Y-93466999D01*
X137790899Y-93446175D01*
X137787749Y-93424940D01*
X137786696Y-93403499D01*
X137786696Y-92890999D01*
X137787749Y-92869558D01*
X137790899Y-92848323D01*
X137796115Y-92827499D01*
X137803347Y-92807287D01*
X137812526Y-92787881D01*
X137823562Y-92769468D01*
X137836350Y-92752225D01*
X137850766Y-92736319D01*
X137866672Y-92721903D01*
X137883915Y-92709115D01*
X137902328Y-92698079D01*
X137921734Y-92688900D01*
X137941946Y-92681668D01*
X137962770Y-92676452D01*
X137984005Y-92673302D01*
X138005446Y-92672249D01*
X138442946Y-92672249D01*
X138464387Y-92673302D01*
X138464387Y-92673302D01*
G37*
D12*
X138224196Y-93147249D03*
G04 #@! TD*
D10*
G04 #@! TO.C,C8*
G36*
X139099387Y-97118302D02*
X139120622Y-97121452D01*
X139141446Y-97126668D01*
X139161658Y-97133900D01*
X139181064Y-97143079D01*
X139199477Y-97154115D01*
X139216720Y-97166903D01*
X139232626Y-97181319D01*
X139247042Y-97197225D01*
X139259830Y-97214468D01*
X139270866Y-97232881D01*
X139280045Y-97252287D01*
X139287277Y-97272499D01*
X139292493Y-97293323D01*
X139295643Y-97314558D01*
X139296696Y-97335999D01*
X139296696Y-97848499D01*
X139295643Y-97869940D01*
X139292493Y-97891175D01*
X139287277Y-97911999D01*
X139280045Y-97932211D01*
X139270866Y-97951617D01*
X139259830Y-97970030D01*
X139247042Y-97987273D01*
X139232626Y-98003179D01*
X139216720Y-98017595D01*
X139199477Y-98030383D01*
X139181064Y-98041419D01*
X139161658Y-98050598D01*
X139141446Y-98057830D01*
X139120622Y-98063046D01*
X139099387Y-98066196D01*
X139077946Y-98067249D01*
X138640446Y-98067249D01*
X138619005Y-98066196D01*
X138597770Y-98063046D01*
X138576946Y-98057830D01*
X138556734Y-98050598D01*
X138537328Y-98041419D01*
X138518915Y-98030383D01*
X138501672Y-98017595D01*
X138485766Y-98003179D01*
X138471350Y-97987273D01*
X138458562Y-97970030D01*
X138447526Y-97951617D01*
X138438347Y-97932211D01*
X138431115Y-97911999D01*
X138425899Y-97891175D01*
X138422749Y-97869940D01*
X138421696Y-97848499D01*
X138421696Y-97335999D01*
X138422749Y-97314558D01*
X138425899Y-97293323D01*
X138431115Y-97272499D01*
X138438347Y-97252287D01*
X138447526Y-97232881D01*
X138458562Y-97214468D01*
X138471350Y-97197225D01*
X138485766Y-97181319D01*
X138501672Y-97166903D01*
X138518915Y-97154115D01*
X138537328Y-97143079D01*
X138556734Y-97133900D01*
X138576946Y-97126668D01*
X138597770Y-97121452D01*
X138619005Y-97118302D01*
X138640446Y-97117249D01*
X139077946Y-97117249D01*
X139099387Y-97118302D01*
X139099387Y-97118302D01*
G37*
D12*
X138859196Y-97592249D03*
D10*
G36*
X137524387Y-97118302D02*
X137545622Y-97121452D01*
X137566446Y-97126668D01*
X137586658Y-97133900D01*
X137606064Y-97143079D01*
X137624477Y-97154115D01*
X137641720Y-97166903D01*
X137657626Y-97181319D01*
X137672042Y-97197225D01*
X137684830Y-97214468D01*
X137695866Y-97232881D01*
X137705045Y-97252287D01*
X137712277Y-97272499D01*
X137717493Y-97293323D01*
X137720643Y-97314558D01*
X137721696Y-97335999D01*
X137721696Y-97848499D01*
X137720643Y-97869940D01*
X137717493Y-97891175D01*
X137712277Y-97911999D01*
X137705045Y-97932211D01*
X137695866Y-97951617D01*
X137684830Y-97970030D01*
X137672042Y-97987273D01*
X137657626Y-98003179D01*
X137641720Y-98017595D01*
X137624477Y-98030383D01*
X137606064Y-98041419D01*
X137586658Y-98050598D01*
X137566446Y-98057830D01*
X137545622Y-98063046D01*
X137524387Y-98066196D01*
X137502946Y-98067249D01*
X137065446Y-98067249D01*
X137044005Y-98066196D01*
X137022770Y-98063046D01*
X137001946Y-98057830D01*
X136981734Y-98050598D01*
X136962328Y-98041419D01*
X136943915Y-98030383D01*
X136926672Y-98017595D01*
X136910766Y-98003179D01*
X136896350Y-97987273D01*
X136883562Y-97970030D01*
X136872526Y-97951617D01*
X136863347Y-97932211D01*
X136856115Y-97911999D01*
X136850899Y-97891175D01*
X136847749Y-97869940D01*
X136846696Y-97848499D01*
X136846696Y-97335999D01*
X136847749Y-97314558D01*
X136850899Y-97293323D01*
X136856115Y-97272499D01*
X136863347Y-97252287D01*
X136872526Y-97232881D01*
X136883562Y-97214468D01*
X136896350Y-97197225D01*
X136910766Y-97181319D01*
X136926672Y-97166903D01*
X136943915Y-97154115D01*
X136962328Y-97143079D01*
X136981734Y-97133900D01*
X137001946Y-97126668D01*
X137022770Y-97121452D01*
X137044005Y-97118302D01*
X137065446Y-97117249D01*
X137502946Y-97117249D01*
X137524387Y-97118302D01*
X137524387Y-97118302D01*
G37*
D12*
X137284196Y-97592249D03*
G04 #@! TD*
D10*
G04 #@! TO.C,C10*
G36*
X115466691Y-93899053D02*
X115487926Y-93902203D01*
X115508750Y-93907419D01*
X115528962Y-93914651D01*
X115548368Y-93923830D01*
X115566781Y-93934866D01*
X115584024Y-93947654D01*
X115599930Y-93962070D01*
X115614346Y-93977976D01*
X115627134Y-93995219D01*
X115638170Y-94013632D01*
X115647349Y-94033038D01*
X115654581Y-94053250D01*
X115659797Y-94074074D01*
X115662947Y-94095309D01*
X115664000Y-94116750D01*
X115664000Y-94554250D01*
X115662947Y-94575691D01*
X115659797Y-94596926D01*
X115654581Y-94617750D01*
X115647349Y-94637962D01*
X115638170Y-94657368D01*
X115627134Y-94675781D01*
X115614346Y-94693024D01*
X115599930Y-94708930D01*
X115584024Y-94723346D01*
X115566781Y-94736134D01*
X115548368Y-94747170D01*
X115528962Y-94756349D01*
X115508750Y-94763581D01*
X115487926Y-94768797D01*
X115466691Y-94771947D01*
X115445250Y-94773000D01*
X114932750Y-94773000D01*
X114911309Y-94771947D01*
X114890074Y-94768797D01*
X114869250Y-94763581D01*
X114849038Y-94756349D01*
X114829632Y-94747170D01*
X114811219Y-94736134D01*
X114793976Y-94723346D01*
X114778070Y-94708930D01*
X114763654Y-94693024D01*
X114750866Y-94675781D01*
X114739830Y-94657368D01*
X114730651Y-94637962D01*
X114723419Y-94617750D01*
X114718203Y-94596926D01*
X114715053Y-94575691D01*
X114714000Y-94554250D01*
X114714000Y-94116750D01*
X114715053Y-94095309D01*
X114718203Y-94074074D01*
X114723419Y-94053250D01*
X114730651Y-94033038D01*
X114739830Y-94013632D01*
X114750866Y-93995219D01*
X114763654Y-93977976D01*
X114778070Y-93962070D01*
X114793976Y-93947654D01*
X114811219Y-93934866D01*
X114829632Y-93923830D01*
X114849038Y-93914651D01*
X114869250Y-93907419D01*
X114890074Y-93902203D01*
X114911309Y-93899053D01*
X114932750Y-93898000D01*
X115445250Y-93898000D01*
X115466691Y-93899053D01*
X115466691Y-93899053D01*
G37*
D12*
X115189000Y-94335500D03*
D10*
G36*
X115466691Y-95474053D02*
X115487926Y-95477203D01*
X115508750Y-95482419D01*
X115528962Y-95489651D01*
X115548368Y-95498830D01*
X115566781Y-95509866D01*
X115584024Y-95522654D01*
X115599930Y-95537070D01*
X115614346Y-95552976D01*
X115627134Y-95570219D01*
X115638170Y-95588632D01*
X115647349Y-95608038D01*
X115654581Y-95628250D01*
X115659797Y-95649074D01*
X115662947Y-95670309D01*
X115664000Y-95691750D01*
X115664000Y-96129250D01*
X115662947Y-96150691D01*
X115659797Y-96171926D01*
X115654581Y-96192750D01*
X115647349Y-96212962D01*
X115638170Y-96232368D01*
X115627134Y-96250781D01*
X115614346Y-96268024D01*
X115599930Y-96283930D01*
X115584024Y-96298346D01*
X115566781Y-96311134D01*
X115548368Y-96322170D01*
X115528962Y-96331349D01*
X115508750Y-96338581D01*
X115487926Y-96343797D01*
X115466691Y-96346947D01*
X115445250Y-96348000D01*
X114932750Y-96348000D01*
X114911309Y-96346947D01*
X114890074Y-96343797D01*
X114869250Y-96338581D01*
X114849038Y-96331349D01*
X114829632Y-96322170D01*
X114811219Y-96311134D01*
X114793976Y-96298346D01*
X114778070Y-96283930D01*
X114763654Y-96268024D01*
X114750866Y-96250781D01*
X114739830Y-96232368D01*
X114730651Y-96212962D01*
X114723419Y-96192750D01*
X114718203Y-96171926D01*
X114715053Y-96150691D01*
X114714000Y-96129250D01*
X114714000Y-95691750D01*
X114715053Y-95670309D01*
X114718203Y-95649074D01*
X114723419Y-95628250D01*
X114730651Y-95608038D01*
X114739830Y-95588632D01*
X114750866Y-95570219D01*
X114763654Y-95552976D01*
X114778070Y-95537070D01*
X114793976Y-95522654D01*
X114811219Y-95509866D01*
X114829632Y-95498830D01*
X114849038Y-95489651D01*
X114869250Y-95482419D01*
X114890074Y-95477203D01*
X114911309Y-95474053D01*
X114932750Y-95473000D01*
X115445250Y-95473000D01*
X115466691Y-95474053D01*
X115466691Y-95474053D01*
G37*
D12*
X115189000Y-95910500D03*
G04 #@! TD*
D10*
G04 #@! TO.C,C11*
G36*
X119149691Y-99487053D02*
X119170926Y-99490203D01*
X119191750Y-99495419D01*
X119211962Y-99502651D01*
X119231368Y-99511830D01*
X119249781Y-99522866D01*
X119267024Y-99535654D01*
X119282930Y-99550070D01*
X119297346Y-99565976D01*
X119310134Y-99583219D01*
X119321170Y-99601632D01*
X119330349Y-99621038D01*
X119337581Y-99641250D01*
X119342797Y-99662074D01*
X119345947Y-99683309D01*
X119347000Y-99704750D01*
X119347000Y-100142250D01*
X119345947Y-100163691D01*
X119342797Y-100184926D01*
X119337581Y-100205750D01*
X119330349Y-100225962D01*
X119321170Y-100245368D01*
X119310134Y-100263781D01*
X119297346Y-100281024D01*
X119282930Y-100296930D01*
X119267024Y-100311346D01*
X119249781Y-100324134D01*
X119231368Y-100335170D01*
X119211962Y-100344349D01*
X119191750Y-100351581D01*
X119170926Y-100356797D01*
X119149691Y-100359947D01*
X119128250Y-100361000D01*
X118615750Y-100361000D01*
X118594309Y-100359947D01*
X118573074Y-100356797D01*
X118552250Y-100351581D01*
X118532038Y-100344349D01*
X118512632Y-100335170D01*
X118494219Y-100324134D01*
X118476976Y-100311346D01*
X118461070Y-100296930D01*
X118446654Y-100281024D01*
X118433866Y-100263781D01*
X118422830Y-100245368D01*
X118413651Y-100225962D01*
X118406419Y-100205750D01*
X118401203Y-100184926D01*
X118398053Y-100163691D01*
X118397000Y-100142250D01*
X118397000Y-99704750D01*
X118398053Y-99683309D01*
X118401203Y-99662074D01*
X118406419Y-99641250D01*
X118413651Y-99621038D01*
X118422830Y-99601632D01*
X118433866Y-99583219D01*
X118446654Y-99565976D01*
X118461070Y-99550070D01*
X118476976Y-99535654D01*
X118494219Y-99522866D01*
X118512632Y-99511830D01*
X118532038Y-99502651D01*
X118552250Y-99495419D01*
X118573074Y-99490203D01*
X118594309Y-99487053D01*
X118615750Y-99486000D01*
X119128250Y-99486000D01*
X119149691Y-99487053D01*
X119149691Y-99487053D01*
G37*
D12*
X118872000Y-99923500D03*
D10*
G36*
X119149691Y-101062053D02*
X119170926Y-101065203D01*
X119191750Y-101070419D01*
X119211962Y-101077651D01*
X119231368Y-101086830D01*
X119249781Y-101097866D01*
X119267024Y-101110654D01*
X119282930Y-101125070D01*
X119297346Y-101140976D01*
X119310134Y-101158219D01*
X119321170Y-101176632D01*
X119330349Y-101196038D01*
X119337581Y-101216250D01*
X119342797Y-101237074D01*
X119345947Y-101258309D01*
X119347000Y-101279750D01*
X119347000Y-101717250D01*
X119345947Y-101738691D01*
X119342797Y-101759926D01*
X119337581Y-101780750D01*
X119330349Y-101800962D01*
X119321170Y-101820368D01*
X119310134Y-101838781D01*
X119297346Y-101856024D01*
X119282930Y-101871930D01*
X119267024Y-101886346D01*
X119249781Y-101899134D01*
X119231368Y-101910170D01*
X119211962Y-101919349D01*
X119191750Y-101926581D01*
X119170926Y-101931797D01*
X119149691Y-101934947D01*
X119128250Y-101936000D01*
X118615750Y-101936000D01*
X118594309Y-101934947D01*
X118573074Y-101931797D01*
X118552250Y-101926581D01*
X118532038Y-101919349D01*
X118512632Y-101910170D01*
X118494219Y-101899134D01*
X118476976Y-101886346D01*
X118461070Y-101871930D01*
X118446654Y-101856024D01*
X118433866Y-101838781D01*
X118422830Y-101820368D01*
X118413651Y-101800962D01*
X118406419Y-101780750D01*
X118401203Y-101759926D01*
X118398053Y-101738691D01*
X118397000Y-101717250D01*
X118397000Y-101279750D01*
X118398053Y-101258309D01*
X118401203Y-101237074D01*
X118406419Y-101216250D01*
X118413651Y-101196038D01*
X118422830Y-101176632D01*
X118433866Y-101158219D01*
X118446654Y-101140976D01*
X118461070Y-101125070D01*
X118476976Y-101110654D01*
X118494219Y-101097866D01*
X118512632Y-101086830D01*
X118532038Y-101077651D01*
X118552250Y-101070419D01*
X118573074Y-101065203D01*
X118594309Y-101062053D01*
X118615750Y-101061000D01*
X119128250Y-101061000D01*
X119149691Y-101062053D01*
X119149691Y-101062053D01*
G37*
D12*
X118872000Y-101498500D03*
G04 #@! TD*
D10*
G04 #@! TO.C,C12*
G36*
X117228158Y-114183910D02*
X117242476Y-114186034D01*
X117256517Y-114189551D01*
X117270146Y-114194428D01*
X117283231Y-114200617D01*
X117295647Y-114208058D01*
X117307273Y-114216681D01*
X117317998Y-114226402D01*
X117327719Y-114237127D01*
X117336342Y-114248753D01*
X117343783Y-114261169D01*
X117349972Y-114274254D01*
X117354849Y-114287883D01*
X117358366Y-114301924D01*
X117360490Y-114316242D01*
X117361200Y-114330700D01*
X117361200Y-114675700D01*
X117360490Y-114690158D01*
X117358366Y-114704476D01*
X117354849Y-114718517D01*
X117349972Y-114732146D01*
X117343783Y-114745231D01*
X117336342Y-114757647D01*
X117327719Y-114769273D01*
X117317998Y-114779998D01*
X117307273Y-114789719D01*
X117295647Y-114798342D01*
X117283231Y-114805783D01*
X117270146Y-114811972D01*
X117256517Y-114816849D01*
X117242476Y-114820366D01*
X117228158Y-114822490D01*
X117213700Y-114823200D01*
X116918700Y-114823200D01*
X116904242Y-114822490D01*
X116889924Y-114820366D01*
X116875883Y-114816849D01*
X116862254Y-114811972D01*
X116849169Y-114805783D01*
X116836753Y-114798342D01*
X116825127Y-114789719D01*
X116814402Y-114779998D01*
X116804681Y-114769273D01*
X116796058Y-114757647D01*
X116788617Y-114745231D01*
X116782428Y-114732146D01*
X116777551Y-114718517D01*
X116774034Y-114704476D01*
X116771910Y-114690158D01*
X116771200Y-114675700D01*
X116771200Y-114330700D01*
X116771910Y-114316242D01*
X116774034Y-114301924D01*
X116777551Y-114287883D01*
X116782428Y-114274254D01*
X116788617Y-114261169D01*
X116796058Y-114248753D01*
X116804681Y-114237127D01*
X116814402Y-114226402D01*
X116825127Y-114216681D01*
X116836753Y-114208058D01*
X116849169Y-114200617D01*
X116862254Y-114194428D01*
X116875883Y-114189551D01*
X116889924Y-114186034D01*
X116904242Y-114183910D01*
X116918700Y-114183200D01*
X117213700Y-114183200D01*
X117228158Y-114183910D01*
X117228158Y-114183910D01*
G37*
D11*
X117066200Y-114503200D03*
D10*
G36*
X118198158Y-114183910D02*
X118212476Y-114186034D01*
X118226517Y-114189551D01*
X118240146Y-114194428D01*
X118253231Y-114200617D01*
X118265647Y-114208058D01*
X118277273Y-114216681D01*
X118287998Y-114226402D01*
X118297719Y-114237127D01*
X118306342Y-114248753D01*
X118313783Y-114261169D01*
X118319972Y-114274254D01*
X118324849Y-114287883D01*
X118328366Y-114301924D01*
X118330490Y-114316242D01*
X118331200Y-114330700D01*
X118331200Y-114675700D01*
X118330490Y-114690158D01*
X118328366Y-114704476D01*
X118324849Y-114718517D01*
X118319972Y-114732146D01*
X118313783Y-114745231D01*
X118306342Y-114757647D01*
X118297719Y-114769273D01*
X118287998Y-114779998D01*
X118277273Y-114789719D01*
X118265647Y-114798342D01*
X118253231Y-114805783D01*
X118240146Y-114811972D01*
X118226517Y-114816849D01*
X118212476Y-114820366D01*
X118198158Y-114822490D01*
X118183700Y-114823200D01*
X117888700Y-114823200D01*
X117874242Y-114822490D01*
X117859924Y-114820366D01*
X117845883Y-114816849D01*
X117832254Y-114811972D01*
X117819169Y-114805783D01*
X117806753Y-114798342D01*
X117795127Y-114789719D01*
X117784402Y-114779998D01*
X117774681Y-114769273D01*
X117766058Y-114757647D01*
X117758617Y-114745231D01*
X117752428Y-114732146D01*
X117747551Y-114718517D01*
X117744034Y-114704476D01*
X117741910Y-114690158D01*
X117741200Y-114675700D01*
X117741200Y-114330700D01*
X117741910Y-114316242D01*
X117744034Y-114301924D01*
X117747551Y-114287883D01*
X117752428Y-114274254D01*
X117758617Y-114261169D01*
X117766058Y-114248753D01*
X117774681Y-114237127D01*
X117784402Y-114226402D01*
X117795127Y-114216681D01*
X117806753Y-114208058D01*
X117819169Y-114200617D01*
X117832254Y-114194428D01*
X117845883Y-114189551D01*
X117859924Y-114186034D01*
X117874242Y-114183910D01*
X117888700Y-114183200D01*
X118183700Y-114183200D01*
X118198158Y-114183910D01*
X118198158Y-114183910D01*
G37*
D11*
X118036200Y-114503200D03*
G04 #@! TD*
D10*
G04 #@! TO.C,C16*
G36*
X125608990Y-125196910D02*
X125623308Y-125199034D01*
X125637349Y-125202551D01*
X125650978Y-125207428D01*
X125664063Y-125213617D01*
X125676479Y-125221058D01*
X125688105Y-125229681D01*
X125698830Y-125239402D01*
X125708551Y-125250127D01*
X125717174Y-125261753D01*
X125724615Y-125274169D01*
X125730804Y-125287254D01*
X125735681Y-125300883D01*
X125739198Y-125314924D01*
X125741322Y-125329242D01*
X125742032Y-125343700D01*
X125742032Y-125638700D01*
X125741322Y-125653158D01*
X125739198Y-125667476D01*
X125735681Y-125681517D01*
X125730804Y-125695146D01*
X125724615Y-125708231D01*
X125717174Y-125720647D01*
X125708551Y-125732273D01*
X125698830Y-125742998D01*
X125688105Y-125752719D01*
X125676479Y-125761342D01*
X125664063Y-125768783D01*
X125650978Y-125774972D01*
X125637349Y-125779849D01*
X125623308Y-125783366D01*
X125608990Y-125785490D01*
X125594532Y-125786200D01*
X125249532Y-125786200D01*
X125235074Y-125785490D01*
X125220756Y-125783366D01*
X125206715Y-125779849D01*
X125193086Y-125774972D01*
X125180001Y-125768783D01*
X125167585Y-125761342D01*
X125155959Y-125752719D01*
X125145234Y-125742998D01*
X125135513Y-125732273D01*
X125126890Y-125720647D01*
X125119449Y-125708231D01*
X125113260Y-125695146D01*
X125108383Y-125681517D01*
X125104866Y-125667476D01*
X125102742Y-125653158D01*
X125102032Y-125638700D01*
X125102032Y-125343700D01*
X125102742Y-125329242D01*
X125104866Y-125314924D01*
X125108383Y-125300883D01*
X125113260Y-125287254D01*
X125119449Y-125274169D01*
X125126890Y-125261753D01*
X125135513Y-125250127D01*
X125145234Y-125239402D01*
X125155959Y-125229681D01*
X125167585Y-125221058D01*
X125180001Y-125213617D01*
X125193086Y-125207428D01*
X125206715Y-125202551D01*
X125220756Y-125199034D01*
X125235074Y-125196910D01*
X125249532Y-125196200D01*
X125594532Y-125196200D01*
X125608990Y-125196910D01*
X125608990Y-125196910D01*
G37*
D11*
X125422032Y-125491200D03*
D10*
G36*
X125608990Y-124226910D02*
X125623308Y-124229034D01*
X125637349Y-124232551D01*
X125650978Y-124237428D01*
X125664063Y-124243617D01*
X125676479Y-124251058D01*
X125688105Y-124259681D01*
X125698830Y-124269402D01*
X125708551Y-124280127D01*
X125717174Y-124291753D01*
X125724615Y-124304169D01*
X125730804Y-124317254D01*
X125735681Y-124330883D01*
X125739198Y-124344924D01*
X125741322Y-124359242D01*
X125742032Y-124373700D01*
X125742032Y-124668700D01*
X125741322Y-124683158D01*
X125739198Y-124697476D01*
X125735681Y-124711517D01*
X125730804Y-124725146D01*
X125724615Y-124738231D01*
X125717174Y-124750647D01*
X125708551Y-124762273D01*
X125698830Y-124772998D01*
X125688105Y-124782719D01*
X125676479Y-124791342D01*
X125664063Y-124798783D01*
X125650978Y-124804972D01*
X125637349Y-124809849D01*
X125623308Y-124813366D01*
X125608990Y-124815490D01*
X125594532Y-124816200D01*
X125249532Y-124816200D01*
X125235074Y-124815490D01*
X125220756Y-124813366D01*
X125206715Y-124809849D01*
X125193086Y-124804972D01*
X125180001Y-124798783D01*
X125167585Y-124791342D01*
X125155959Y-124782719D01*
X125145234Y-124772998D01*
X125135513Y-124762273D01*
X125126890Y-124750647D01*
X125119449Y-124738231D01*
X125113260Y-124725146D01*
X125108383Y-124711517D01*
X125104866Y-124697476D01*
X125102742Y-124683158D01*
X125102032Y-124668700D01*
X125102032Y-124373700D01*
X125102742Y-124359242D01*
X125104866Y-124344924D01*
X125108383Y-124330883D01*
X125113260Y-124317254D01*
X125119449Y-124304169D01*
X125126890Y-124291753D01*
X125135513Y-124280127D01*
X125145234Y-124269402D01*
X125155959Y-124259681D01*
X125167585Y-124251058D01*
X125180001Y-124243617D01*
X125193086Y-124237428D01*
X125206715Y-124232551D01*
X125220756Y-124229034D01*
X125235074Y-124226910D01*
X125249532Y-124226200D01*
X125594532Y-124226200D01*
X125608990Y-124226910D01*
X125608990Y-124226910D01*
G37*
D11*
X125422032Y-124521200D03*
G04 #@! TD*
D10*
G04 #@! TO.C,C18*
G36*
X125753650Y-103512276D02*
X125767968Y-103514400D01*
X125782009Y-103517917D01*
X125795638Y-103522794D01*
X125808723Y-103528983D01*
X125821139Y-103536424D01*
X125832765Y-103545047D01*
X125843490Y-103554768D01*
X125853211Y-103565493D01*
X125861834Y-103577119D01*
X125869275Y-103589535D01*
X125875464Y-103602620D01*
X125880341Y-103616249D01*
X125883858Y-103630290D01*
X125885982Y-103644608D01*
X125886692Y-103659066D01*
X125886692Y-103954066D01*
X125885982Y-103968524D01*
X125883858Y-103982842D01*
X125880341Y-103996883D01*
X125875464Y-104010512D01*
X125869275Y-104023597D01*
X125861834Y-104036013D01*
X125853211Y-104047639D01*
X125843490Y-104058364D01*
X125832765Y-104068085D01*
X125821139Y-104076708D01*
X125808723Y-104084149D01*
X125795638Y-104090338D01*
X125782009Y-104095215D01*
X125767968Y-104098732D01*
X125753650Y-104100856D01*
X125739192Y-104101566D01*
X125394192Y-104101566D01*
X125379734Y-104100856D01*
X125365416Y-104098732D01*
X125351375Y-104095215D01*
X125337746Y-104090338D01*
X125324661Y-104084149D01*
X125312245Y-104076708D01*
X125300619Y-104068085D01*
X125289894Y-104058364D01*
X125280173Y-104047639D01*
X125271550Y-104036013D01*
X125264109Y-104023597D01*
X125257920Y-104010512D01*
X125253043Y-103996883D01*
X125249526Y-103982842D01*
X125247402Y-103968524D01*
X125246692Y-103954066D01*
X125246692Y-103659066D01*
X125247402Y-103644608D01*
X125249526Y-103630290D01*
X125253043Y-103616249D01*
X125257920Y-103602620D01*
X125264109Y-103589535D01*
X125271550Y-103577119D01*
X125280173Y-103565493D01*
X125289894Y-103554768D01*
X125300619Y-103545047D01*
X125312245Y-103536424D01*
X125324661Y-103528983D01*
X125337746Y-103522794D01*
X125351375Y-103517917D01*
X125365416Y-103514400D01*
X125379734Y-103512276D01*
X125394192Y-103511566D01*
X125739192Y-103511566D01*
X125753650Y-103512276D01*
X125753650Y-103512276D01*
G37*
D11*
X125566692Y-103806566D03*
D10*
G36*
X125753650Y-102542276D02*
X125767968Y-102544400D01*
X125782009Y-102547917D01*
X125795638Y-102552794D01*
X125808723Y-102558983D01*
X125821139Y-102566424D01*
X125832765Y-102575047D01*
X125843490Y-102584768D01*
X125853211Y-102595493D01*
X125861834Y-102607119D01*
X125869275Y-102619535D01*
X125875464Y-102632620D01*
X125880341Y-102646249D01*
X125883858Y-102660290D01*
X125885982Y-102674608D01*
X125886692Y-102689066D01*
X125886692Y-102984066D01*
X125885982Y-102998524D01*
X125883858Y-103012842D01*
X125880341Y-103026883D01*
X125875464Y-103040512D01*
X125869275Y-103053597D01*
X125861834Y-103066013D01*
X125853211Y-103077639D01*
X125843490Y-103088364D01*
X125832765Y-103098085D01*
X125821139Y-103106708D01*
X125808723Y-103114149D01*
X125795638Y-103120338D01*
X125782009Y-103125215D01*
X125767968Y-103128732D01*
X125753650Y-103130856D01*
X125739192Y-103131566D01*
X125394192Y-103131566D01*
X125379734Y-103130856D01*
X125365416Y-103128732D01*
X125351375Y-103125215D01*
X125337746Y-103120338D01*
X125324661Y-103114149D01*
X125312245Y-103106708D01*
X125300619Y-103098085D01*
X125289894Y-103088364D01*
X125280173Y-103077639D01*
X125271550Y-103066013D01*
X125264109Y-103053597D01*
X125257920Y-103040512D01*
X125253043Y-103026883D01*
X125249526Y-103012842D01*
X125247402Y-102998524D01*
X125246692Y-102984066D01*
X125246692Y-102689066D01*
X125247402Y-102674608D01*
X125249526Y-102660290D01*
X125253043Y-102646249D01*
X125257920Y-102632620D01*
X125264109Y-102619535D01*
X125271550Y-102607119D01*
X125280173Y-102595493D01*
X125289894Y-102584768D01*
X125300619Y-102575047D01*
X125312245Y-102566424D01*
X125324661Y-102558983D01*
X125337746Y-102552794D01*
X125351375Y-102547917D01*
X125365416Y-102544400D01*
X125379734Y-102542276D01*
X125394192Y-102541566D01*
X125739192Y-102541566D01*
X125753650Y-102542276D01*
X125753650Y-102542276D01*
G37*
D11*
X125566692Y-102836566D03*
G04 #@! TD*
D10*
G04 #@! TO.C,C20*
G36*
X140042158Y-110221510D02*
X140056476Y-110223634D01*
X140070517Y-110227151D01*
X140084146Y-110232028D01*
X140097231Y-110238217D01*
X140109647Y-110245658D01*
X140121273Y-110254281D01*
X140131998Y-110264002D01*
X140141719Y-110274727D01*
X140150342Y-110286353D01*
X140157783Y-110298769D01*
X140163972Y-110311854D01*
X140168849Y-110325483D01*
X140172366Y-110339524D01*
X140174490Y-110353842D01*
X140175200Y-110368300D01*
X140175200Y-110713300D01*
X140174490Y-110727758D01*
X140172366Y-110742076D01*
X140168849Y-110756117D01*
X140163972Y-110769746D01*
X140157783Y-110782831D01*
X140150342Y-110795247D01*
X140141719Y-110806873D01*
X140131998Y-110817598D01*
X140121273Y-110827319D01*
X140109647Y-110835942D01*
X140097231Y-110843383D01*
X140084146Y-110849572D01*
X140070517Y-110854449D01*
X140056476Y-110857966D01*
X140042158Y-110860090D01*
X140027700Y-110860800D01*
X139732700Y-110860800D01*
X139718242Y-110860090D01*
X139703924Y-110857966D01*
X139689883Y-110854449D01*
X139676254Y-110849572D01*
X139663169Y-110843383D01*
X139650753Y-110835942D01*
X139639127Y-110827319D01*
X139628402Y-110817598D01*
X139618681Y-110806873D01*
X139610058Y-110795247D01*
X139602617Y-110782831D01*
X139596428Y-110769746D01*
X139591551Y-110756117D01*
X139588034Y-110742076D01*
X139585910Y-110727758D01*
X139585200Y-110713300D01*
X139585200Y-110368300D01*
X139585910Y-110353842D01*
X139588034Y-110339524D01*
X139591551Y-110325483D01*
X139596428Y-110311854D01*
X139602617Y-110298769D01*
X139610058Y-110286353D01*
X139618681Y-110274727D01*
X139628402Y-110264002D01*
X139639127Y-110254281D01*
X139650753Y-110245658D01*
X139663169Y-110238217D01*
X139676254Y-110232028D01*
X139689883Y-110227151D01*
X139703924Y-110223634D01*
X139718242Y-110221510D01*
X139732700Y-110220800D01*
X140027700Y-110220800D01*
X140042158Y-110221510D01*
X140042158Y-110221510D01*
G37*
D11*
X139880200Y-110540800D03*
D10*
G36*
X139072158Y-110221510D02*
X139086476Y-110223634D01*
X139100517Y-110227151D01*
X139114146Y-110232028D01*
X139127231Y-110238217D01*
X139139647Y-110245658D01*
X139151273Y-110254281D01*
X139161998Y-110264002D01*
X139171719Y-110274727D01*
X139180342Y-110286353D01*
X139187783Y-110298769D01*
X139193972Y-110311854D01*
X139198849Y-110325483D01*
X139202366Y-110339524D01*
X139204490Y-110353842D01*
X139205200Y-110368300D01*
X139205200Y-110713300D01*
X139204490Y-110727758D01*
X139202366Y-110742076D01*
X139198849Y-110756117D01*
X139193972Y-110769746D01*
X139187783Y-110782831D01*
X139180342Y-110795247D01*
X139171719Y-110806873D01*
X139161998Y-110817598D01*
X139151273Y-110827319D01*
X139139647Y-110835942D01*
X139127231Y-110843383D01*
X139114146Y-110849572D01*
X139100517Y-110854449D01*
X139086476Y-110857966D01*
X139072158Y-110860090D01*
X139057700Y-110860800D01*
X138762700Y-110860800D01*
X138748242Y-110860090D01*
X138733924Y-110857966D01*
X138719883Y-110854449D01*
X138706254Y-110849572D01*
X138693169Y-110843383D01*
X138680753Y-110835942D01*
X138669127Y-110827319D01*
X138658402Y-110817598D01*
X138648681Y-110806873D01*
X138640058Y-110795247D01*
X138632617Y-110782831D01*
X138626428Y-110769746D01*
X138621551Y-110756117D01*
X138618034Y-110742076D01*
X138615910Y-110727758D01*
X138615200Y-110713300D01*
X138615200Y-110368300D01*
X138615910Y-110353842D01*
X138618034Y-110339524D01*
X138621551Y-110325483D01*
X138626428Y-110311854D01*
X138632617Y-110298769D01*
X138640058Y-110286353D01*
X138648681Y-110274727D01*
X138658402Y-110264002D01*
X138669127Y-110254281D01*
X138680753Y-110245658D01*
X138693169Y-110238217D01*
X138706254Y-110232028D01*
X138719883Y-110227151D01*
X138733924Y-110223634D01*
X138748242Y-110221510D01*
X138762700Y-110220800D01*
X139057700Y-110220800D01*
X139072158Y-110221510D01*
X139072158Y-110221510D01*
G37*
D11*
X138910200Y-110540800D03*
G04 #@! TD*
D10*
G04 #@! TO.C,R7*
G36*
X120763291Y-121115853D02*
X120784526Y-121119003D01*
X120805350Y-121124219D01*
X120825562Y-121131451D01*
X120844968Y-121140630D01*
X120863381Y-121151666D01*
X120880624Y-121164454D01*
X120896530Y-121178870D01*
X120910946Y-121194776D01*
X120923734Y-121212019D01*
X120934770Y-121230432D01*
X120943949Y-121249838D01*
X120951181Y-121270050D01*
X120956397Y-121290874D01*
X120959547Y-121312109D01*
X120960600Y-121333550D01*
X120960600Y-121846050D01*
X120959547Y-121867491D01*
X120956397Y-121888726D01*
X120951181Y-121909550D01*
X120943949Y-121929762D01*
X120934770Y-121949168D01*
X120923734Y-121967581D01*
X120910946Y-121984824D01*
X120896530Y-122000730D01*
X120880624Y-122015146D01*
X120863381Y-122027934D01*
X120844968Y-122038970D01*
X120825562Y-122048149D01*
X120805350Y-122055381D01*
X120784526Y-122060597D01*
X120763291Y-122063747D01*
X120741850Y-122064800D01*
X120304350Y-122064800D01*
X120282909Y-122063747D01*
X120261674Y-122060597D01*
X120240850Y-122055381D01*
X120220638Y-122048149D01*
X120201232Y-122038970D01*
X120182819Y-122027934D01*
X120165576Y-122015146D01*
X120149670Y-122000730D01*
X120135254Y-121984824D01*
X120122466Y-121967581D01*
X120111430Y-121949168D01*
X120102251Y-121929762D01*
X120095019Y-121909550D01*
X120089803Y-121888726D01*
X120086653Y-121867491D01*
X120085600Y-121846050D01*
X120085600Y-121333550D01*
X120086653Y-121312109D01*
X120089803Y-121290874D01*
X120095019Y-121270050D01*
X120102251Y-121249838D01*
X120111430Y-121230432D01*
X120122466Y-121212019D01*
X120135254Y-121194776D01*
X120149670Y-121178870D01*
X120165576Y-121164454D01*
X120182819Y-121151666D01*
X120201232Y-121140630D01*
X120220638Y-121131451D01*
X120240850Y-121124219D01*
X120261674Y-121119003D01*
X120282909Y-121115853D01*
X120304350Y-121114800D01*
X120741850Y-121114800D01*
X120763291Y-121115853D01*
X120763291Y-121115853D01*
G37*
D12*
X120523100Y-121589800D03*
D10*
G36*
X119188291Y-121115853D02*
X119209526Y-121119003D01*
X119230350Y-121124219D01*
X119250562Y-121131451D01*
X119269968Y-121140630D01*
X119288381Y-121151666D01*
X119305624Y-121164454D01*
X119321530Y-121178870D01*
X119335946Y-121194776D01*
X119348734Y-121212019D01*
X119359770Y-121230432D01*
X119368949Y-121249838D01*
X119376181Y-121270050D01*
X119381397Y-121290874D01*
X119384547Y-121312109D01*
X119385600Y-121333550D01*
X119385600Y-121846050D01*
X119384547Y-121867491D01*
X119381397Y-121888726D01*
X119376181Y-121909550D01*
X119368949Y-121929762D01*
X119359770Y-121949168D01*
X119348734Y-121967581D01*
X119335946Y-121984824D01*
X119321530Y-122000730D01*
X119305624Y-122015146D01*
X119288381Y-122027934D01*
X119269968Y-122038970D01*
X119250562Y-122048149D01*
X119230350Y-122055381D01*
X119209526Y-122060597D01*
X119188291Y-122063747D01*
X119166850Y-122064800D01*
X118729350Y-122064800D01*
X118707909Y-122063747D01*
X118686674Y-122060597D01*
X118665850Y-122055381D01*
X118645638Y-122048149D01*
X118626232Y-122038970D01*
X118607819Y-122027934D01*
X118590576Y-122015146D01*
X118574670Y-122000730D01*
X118560254Y-121984824D01*
X118547466Y-121967581D01*
X118536430Y-121949168D01*
X118527251Y-121929762D01*
X118520019Y-121909550D01*
X118514803Y-121888726D01*
X118511653Y-121867491D01*
X118510600Y-121846050D01*
X118510600Y-121333550D01*
X118511653Y-121312109D01*
X118514803Y-121290874D01*
X118520019Y-121270050D01*
X118527251Y-121249838D01*
X118536430Y-121230432D01*
X118547466Y-121212019D01*
X118560254Y-121194776D01*
X118574670Y-121178870D01*
X118590576Y-121164454D01*
X118607819Y-121151666D01*
X118626232Y-121140630D01*
X118645638Y-121131451D01*
X118665850Y-121124219D01*
X118686674Y-121119003D01*
X118707909Y-121115853D01*
X118729350Y-121114800D01*
X119166850Y-121114800D01*
X119188291Y-121115853D01*
X119188291Y-121115853D01*
G37*
D12*
X118948100Y-121589800D03*
G04 #@! TD*
D10*
G04 #@! TO.C,R8*
G36*
X116927691Y-108746053D02*
X116948926Y-108749203D01*
X116969750Y-108754419D01*
X116989962Y-108761651D01*
X117009368Y-108770830D01*
X117027781Y-108781866D01*
X117045024Y-108794654D01*
X117060930Y-108809070D01*
X117075346Y-108824976D01*
X117088134Y-108842219D01*
X117099170Y-108860632D01*
X117108349Y-108880038D01*
X117115581Y-108900250D01*
X117120797Y-108921074D01*
X117123947Y-108942309D01*
X117125000Y-108963750D01*
X117125000Y-109476250D01*
X117123947Y-109497691D01*
X117120797Y-109518926D01*
X117115581Y-109539750D01*
X117108349Y-109559962D01*
X117099170Y-109579368D01*
X117088134Y-109597781D01*
X117075346Y-109615024D01*
X117060930Y-109630930D01*
X117045024Y-109645346D01*
X117027781Y-109658134D01*
X117009368Y-109669170D01*
X116989962Y-109678349D01*
X116969750Y-109685581D01*
X116948926Y-109690797D01*
X116927691Y-109693947D01*
X116906250Y-109695000D01*
X116468750Y-109695000D01*
X116447309Y-109693947D01*
X116426074Y-109690797D01*
X116405250Y-109685581D01*
X116385038Y-109678349D01*
X116365632Y-109669170D01*
X116347219Y-109658134D01*
X116329976Y-109645346D01*
X116314070Y-109630930D01*
X116299654Y-109615024D01*
X116286866Y-109597781D01*
X116275830Y-109579368D01*
X116266651Y-109559962D01*
X116259419Y-109539750D01*
X116254203Y-109518926D01*
X116251053Y-109497691D01*
X116250000Y-109476250D01*
X116250000Y-108963750D01*
X116251053Y-108942309D01*
X116254203Y-108921074D01*
X116259419Y-108900250D01*
X116266651Y-108880038D01*
X116275830Y-108860632D01*
X116286866Y-108842219D01*
X116299654Y-108824976D01*
X116314070Y-108809070D01*
X116329976Y-108794654D01*
X116347219Y-108781866D01*
X116365632Y-108770830D01*
X116385038Y-108761651D01*
X116405250Y-108754419D01*
X116426074Y-108749203D01*
X116447309Y-108746053D01*
X116468750Y-108745000D01*
X116906250Y-108745000D01*
X116927691Y-108746053D01*
X116927691Y-108746053D01*
G37*
D12*
X116687500Y-109220000D03*
D10*
G36*
X118502691Y-108746053D02*
X118523926Y-108749203D01*
X118544750Y-108754419D01*
X118564962Y-108761651D01*
X118584368Y-108770830D01*
X118602781Y-108781866D01*
X118620024Y-108794654D01*
X118635930Y-108809070D01*
X118650346Y-108824976D01*
X118663134Y-108842219D01*
X118674170Y-108860632D01*
X118683349Y-108880038D01*
X118690581Y-108900250D01*
X118695797Y-108921074D01*
X118698947Y-108942309D01*
X118700000Y-108963750D01*
X118700000Y-109476250D01*
X118698947Y-109497691D01*
X118695797Y-109518926D01*
X118690581Y-109539750D01*
X118683349Y-109559962D01*
X118674170Y-109579368D01*
X118663134Y-109597781D01*
X118650346Y-109615024D01*
X118635930Y-109630930D01*
X118620024Y-109645346D01*
X118602781Y-109658134D01*
X118584368Y-109669170D01*
X118564962Y-109678349D01*
X118544750Y-109685581D01*
X118523926Y-109690797D01*
X118502691Y-109693947D01*
X118481250Y-109695000D01*
X118043750Y-109695000D01*
X118022309Y-109693947D01*
X118001074Y-109690797D01*
X117980250Y-109685581D01*
X117960038Y-109678349D01*
X117940632Y-109669170D01*
X117922219Y-109658134D01*
X117904976Y-109645346D01*
X117889070Y-109630930D01*
X117874654Y-109615024D01*
X117861866Y-109597781D01*
X117850830Y-109579368D01*
X117841651Y-109559962D01*
X117834419Y-109539750D01*
X117829203Y-109518926D01*
X117826053Y-109497691D01*
X117825000Y-109476250D01*
X117825000Y-108963750D01*
X117826053Y-108942309D01*
X117829203Y-108921074D01*
X117834419Y-108900250D01*
X117841651Y-108880038D01*
X117850830Y-108860632D01*
X117861866Y-108842219D01*
X117874654Y-108824976D01*
X117889070Y-108809070D01*
X117904976Y-108794654D01*
X117922219Y-108781866D01*
X117940632Y-108770830D01*
X117960038Y-108761651D01*
X117980250Y-108754419D01*
X118001074Y-108749203D01*
X118022309Y-108746053D01*
X118043750Y-108745000D01*
X118481250Y-108745000D01*
X118502691Y-108746053D01*
X118502691Y-108746053D01*
G37*
D12*
X118262500Y-109220000D03*
G04 #@! TD*
D10*
G04 #@! TO.C,C22*
G36*
X128558558Y-102547910D02*
X128572876Y-102550034D01*
X128586917Y-102553551D01*
X128600546Y-102558428D01*
X128613631Y-102564617D01*
X128626047Y-102572058D01*
X128637673Y-102580681D01*
X128648398Y-102590402D01*
X128658119Y-102601127D01*
X128666742Y-102612753D01*
X128674183Y-102625169D01*
X128680372Y-102638254D01*
X128685249Y-102651883D01*
X128688766Y-102665924D01*
X128690890Y-102680242D01*
X128691600Y-102694700D01*
X128691600Y-102989700D01*
X128690890Y-103004158D01*
X128688766Y-103018476D01*
X128685249Y-103032517D01*
X128680372Y-103046146D01*
X128674183Y-103059231D01*
X128666742Y-103071647D01*
X128658119Y-103083273D01*
X128648398Y-103093998D01*
X128637673Y-103103719D01*
X128626047Y-103112342D01*
X128613631Y-103119783D01*
X128600546Y-103125972D01*
X128586917Y-103130849D01*
X128572876Y-103134366D01*
X128558558Y-103136490D01*
X128544100Y-103137200D01*
X128199100Y-103137200D01*
X128184642Y-103136490D01*
X128170324Y-103134366D01*
X128156283Y-103130849D01*
X128142654Y-103125972D01*
X128129569Y-103119783D01*
X128117153Y-103112342D01*
X128105527Y-103103719D01*
X128094802Y-103093998D01*
X128085081Y-103083273D01*
X128076458Y-103071647D01*
X128069017Y-103059231D01*
X128062828Y-103046146D01*
X128057951Y-103032517D01*
X128054434Y-103018476D01*
X128052310Y-103004158D01*
X128051600Y-102989700D01*
X128051600Y-102694700D01*
X128052310Y-102680242D01*
X128054434Y-102665924D01*
X128057951Y-102651883D01*
X128062828Y-102638254D01*
X128069017Y-102625169D01*
X128076458Y-102612753D01*
X128085081Y-102601127D01*
X128094802Y-102590402D01*
X128105527Y-102580681D01*
X128117153Y-102572058D01*
X128129569Y-102564617D01*
X128142654Y-102558428D01*
X128156283Y-102553551D01*
X128170324Y-102550034D01*
X128184642Y-102547910D01*
X128199100Y-102547200D01*
X128544100Y-102547200D01*
X128558558Y-102547910D01*
X128558558Y-102547910D01*
G37*
D11*
X128371600Y-102842200D03*
D10*
G36*
X128558558Y-103517910D02*
X128572876Y-103520034D01*
X128586917Y-103523551D01*
X128600546Y-103528428D01*
X128613631Y-103534617D01*
X128626047Y-103542058D01*
X128637673Y-103550681D01*
X128648398Y-103560402D01*
X128658119Y-103571127D01*
X128666742Y-103582753D01*
X128674183Y-103595169D01*
X128680372Y-103608254D01*
X128685249Y-103621883D01*
X128688766Y-103635924D01*
X128690890Y-103650242D01*
X128691600Y-103664700D01*
X128691600Y-103959700D01*
X128690890Y-103974158D01*
X128688766Y-103988476D01*
X128685249Y-104002517D01*
X128680372Y-104016146D01*
X128674183Y-104029231D01*
X128666742Y-104041647D01*
X128658119Y-104053273D01*
X128648398Y-104063998D01*
X128637673Y-104073719D01*
X128626047Y-104082342D01*
X128613631Y-104089783D01*
X128600546Y-104095972D01*
X128586917Y-104100849D01*
X128572876Y-104104366D01*
X128558558Y-104106490D01*
X128544100Y-104107200D01*
X128199100Y-104107200D01*
X128184642Y-104106490D01*
X128170324Y-104104366D01*
X128156283Y-104100849D01*
X128142654Y-104095972D01*
X128129569Y-104089783D01*
X128117153Y-104082342D01*
X128105527Y-104073719D01*
X128094802Y-104063998D01*
X128085081Y-104053273D01*
X128076458Y-104041647D01*
X128069017Y-104029231D01*
X128062828Y-104016146D01*
X128057951Y-104002517D01*
X128054434Y-103988476D01*
X128052310Y-103974158D01*
X128051600Y-103959700D01*
X128051600Y-103664700D01*
X128052310Y-103650242D01*
X128054434Y-103635924D01*
X128057951Y-103621883D01*
X128062828Y-103608254D01*
X128069017Y-103595169D01*
X128076458Y-103582753D01*
X128085081Y-103571127D01*
X128094802Y-103560402D01*
X128105527Y-103550681D01*
X128117153Y-103542058D01*
X128129569Y-103534617D01*
X128142654Y-103528428D01*
X128156283Y-103523551D01*
X128170324Y-103520034D01*
X128184642Y-103517910D01*
X128199100Y-103517200D01*
X128544100Y-103517200D01*
X128558558Y-103517910D01*
X128558558Y-103517910D01*
G37*
D11*
X128371600Y-103812200D03*
G04 #@! TD*
D10*
G04 #@! TO.C,C23*
G36*
X129853958Y-103517910D02*
X129868276Y-103520034D01*
X129882317Y-103523551D01*
X129895946Y-103528428D01*
X129909031Y-103534617D01*
X129921447Y-103542058D01*
X129933073Y-103550681D01*
X129943798Y-103560402D01*
X129953519Y-103571127D01*
X129962142Y-103582753D01*
X129969583Y-103595169D01*
X129975772Y-103608254D01*
X129980649Y-103621883D01*
X129984166Y-103635924D01*
X129986290Y-103650242D01*
X129987000Y-103664700D01*
X129987000Y-103959700D01*
X129986290Y-103974158D01*
X129984166Y-103988476D01*
X129980649Y-104002517D01*
X129975772Y-104016146D01*
X129969583Y-104029231D01*
X129962142Y-104041647D01*
X129953519Y-104053273D01*
X129943798Y-104063998D01*
X129933073Y-104073719D01*
X129921447Y-104082342D01*
X129909031Y-104089783D01*
X129895946Y-104095972D01*
X129882317Y-104100849D01*
X129868276Y-104104366D01*
X129853958Y-104106490D01*
X129839500Y-104107200D01*
X129494500Y-104107200D01*
X129480042Y-104106490D01*
X129465724Y-104104366D01*
X129451683Y-104100849D01*
X129438054Y-104095972D01*
X129424969Y-104089783D01*
X129412553Y-104082342D01*
X129400927Y-104073719D01*
X129390202Y-104063998D01*
X129380481Y-104053273D01*
X129371858Y-104041647D01*
X129364417Y-104029231D01*
X129358228Y-104016146D01*
X129353351Y-104002517D01*
X129349834Y-103988476D01*
X129347710Y-103974158D01*
X129347000Y-103959700D01*
X129347000Y-103664700D01*
X129347710Y-103650242D01*
X129349834Y-103635924D01*
X129353351Y-103621883D01*
X129358228Y-103608254D01*
X129364417Y-103595169D01*
X129371858Y-103582753D01*
X129380481Y-103571127D01*
X129390202Y-103560402D01*
X129400927Y-103550681D01*
X129412553Y-103542058D01*
X129424969Y-103534617D01*
X129438054Y-103528428D01*
X129451683Y-103523551D01*
X129465724Y-103520034D01*
X129480042Y-103517910D01*
X129494500Y-103517200D01*
X129839500Y-103517200D01*
X129853958Y-103517910D01*
X129853958Y-103517910D01*
G37*
D11*
X129667000Y-103812200D03*
D10*
G36*
X129853958Y-102547910D02*
X129868276Y-102550034D01*
X129882317Y-102553551D01*
X129895946Y-102558428D01*
X129909031Y-102564617D01*
X129921447Y-102572058D01*
X129933073Y-102580681D01*
X129943798Y-102590402D01*
X129953519Y-102601127D01*
X129962142Y-102612753D01*
X129969583Y-102625169D01*
X129975772Y-102638254D01*
X129980649Y-102651883D01*
X129984166Y-102665924D01*
X129986290Y-102680242D01*
X129987000Y-102694700D01*
X129987000Y-102989700D01*
X129986290Y-103004158D01*
X129984166Y-103018476D01*
X129980649Y-103032517D01*
X129975772Y-103046146D01*
X129969583Y-103059231D01*
X129962142Y-103071647D01*
X129953519Y-103083273D01*
X129943798Y-103093998D01*
X129933073Y-103103719D01*
X129921447Y-103112342D01*
X129909031Y-103119783D01*
X129895946Y-103125972D01*
X129882317Y-103130849D01*
X129868276Y-103134366D01*
X129853958Y-103136490D01*
X129839500Y-103137200D01*
X129494500Y-103137200D01*
X129480042Y-103136490D01*
X129465724Y-103134366D01*
X129451683Y-103130849D01*
X129438054Y-103125972D01*
X129424969Y-103119783D01*
X129412553Y-103112342D01*
X129400927Y-103103719D01*
X129390202Y-103093998D01*
X129380481Y-103083273D01*
X129371858Y-103071647D01*
X129364417Y-103059231D01*
X129358228Y-103046146D01*
X129353351Y-103032517D01*
X129349834Y-103018476D01*
X129347710Y-103004158D01*
X129347000Y-102989700D01*
X129347000Y-102694700D01*
X129347710Y-102680242D01*
X129349834Y-102665924D01*
X129353351Y-102651883D01*
X129358228Y-102638254D01*
X129364417Y-102625169D01*
X129371858Y-102612753D01*
X129380481Y-102601127D01*
X129390202Y-102590402D01*
X129400927Y-102580681D01*
X129412553Y-102572058D01*
X129424969Y-102564617D01*
X129438054Y-102558428D01*
X129451683Y-102553551D01*
X129465724Y-102550034D01*
X129480042Y-102547910D01*
X129494500Y-102547200D01*
X129839500Y-102547200D01*
X129853958Y-102547910D01*
X129853958Y-102547910D01*
G37*
D11*
X129667000Y-102842200D03*
G04 #@! TD*
D10*
G04 #@! TO.C,C26*
G36*
X128555390Y-124252310D02*
X128569708Y-124254434D01*
X128583749Y-124257951D01*
X128597378Y-124262828D01*
X128610463Y-124269017D01*
X128622879Y-124276458D01*
X128634505Y-124285081D01*
X128645230Y-124294802D01*
X128654951Y-124305527D01*
X128663574Y-124317153D01*
X128671015Y-124329569D01*
X128677204Y-124342654D01*
X128682081Y-124356283D01*
X128685598Y-124370324D01*
X128687722Y-124384642D01*
X128688432Y-124399100D01*
X128688432Y-124694100D01*
X128687722Y-124708558D01*
X128685598Y-124722876D01*
X128682081Y-124736917D01*
X128677204Y-124750546D01*
X128671015Y-124763631D01*
X128663574Y-124776047D01*
X128654951Y-124787673D01*
X128645230Y-124798398D01*
X128634505Y-124808119D01*
X128622879Y-124816742D01*
X128610463Y-124824183D01*
X128597378Y-124830372D01*
X128583749Y-124835249D01*
X128569708Y-124838766D01*
X128555390Y-124840890D01*
X128540932Y-124841600D01*
X128195932Y-124841600D01*
X128181474Y-124840890D01*
X128167156Y-124838766D01*
X128153115Y-124835249D01*
X128139486Y-124830372D01*
X128126401Y-124824183D01*
X128113985Y-124816742D01*
X128102359Y-124808119D01*
X128091634Y-124798398D01*
X128081913Y-124787673D01*
X128073290Y-124776047D01*
X128065849Y-124763631D01*
X128059660Y-124750546D01*
X128054783Y-124736917D01*
X128051266Y-124722876D01*
X128049142Y-124708558D01*
X128048432Y-124694100D01*
X128048432Y-124399100D01*
X128049142Y-124384642D01*
X128051266Y-124370324D01*
X128054783Y-124356283D01*
X128059660Y-124342654D01*
X128065849Y-124329569D01*
X128073290Y-124317153D01*
X128081913Y-124305527D01*
X128091634Y-124294802D01*
X128102359Y-124285081D01*
X128113985Y-124276458D01*
X128126401Y-124269017D01*
X128139486Y-124262828D01*
X128153115Y-124257951D01*
X128167156Y-124254434D01*
X128181474Y-124252310D01*
X128195932Y-124251600D01*
X128540932Y-124251600D01*
X128555390Y-124252310D01*
X128555390Y-124252310D01*
G37*
D11*
X128368432Y-124546600D03*
D10*
G36*
X128555390Y-125222310D02*
X128569708Y-125224434D01*
X128583749Y-125227951D01*
X128597378Y-125232828D01*
X128610463Y-125239017D01*
X128622879Y-125246458D01*
X128634505Y-125255081D01*
X128645230Y-125264802D01*
X128654951Y-125275527D01*
X128663574Y-125287153D01*
X128671015Y-125299569D01*
X128677204Y-125312654D01*
X128682081Y-125326283D01*
X128685598Y-125340324D01*
X128687722Y-125354642D01*
X128688432Y-125369100D01*
X128688432Y-125664100D01*
X128687722Y-125678558D01*
X128685598Y-125692876D01*
X128682081Y-125706917D01*
X128677204Y-125720546D01*
X128671015Y-125733631D01*
X128663574Y-125746047D01*
X128654951Y-125757673D01*
X128645230Y-125768398D01*
X128634505Y-125778119D01*
X128622879Y-125786742D01*
X128610463Y-125794183D01*
X128597378Y-125800372D01*
X128583749Y-125805249D01*
X128569708Y-125808766D01*
X128555390Y-125810890D01*
X128540932Y-125811600D01*
X128195932Y-125811600D01*
X128181474Y-125810890D01*
X128167156Y-125808766D01*
X128153115Y-125805249D01*
X128139486Y-125800372D01*
X128126401Y-125794183D01*
X128113985Y-125786742D01*
X128102359Y-125778119D01*
X128091634Y-125768398D01*
X128081913Y-125757673D01*
X128073290Y-125746047D01*
X128065849Y-125733631D01*
X128059660Y-125720546D01*
X128054783Y-125706917D01*
X128051266Y-125692876D01*
X128049142Y-125678558D01*
X128048432Y-125664100D01*
X128048432Y-125369100D01*
X128049142Y-125354642D01*
X128051266Y-125340324D01*
X128054783Y-125326283D01*
X128059660Y-125312654D01*
X128065849Y-125299569D01*
X128073290Y-125287153D01*
X128081913Y-125275527D01*
X128091634Y-125264802D01*
X128102359Y-125255081D01*
X128113985Y-125246458D01*
X128126401Y-125239017D01*
X128139486Y-125232828D01*
X128153115Y-125227951D01*
X128167156Y-125224434D01*
X128181474Y-125222310D01*
X128195932Y-125221600D01*
X128540932Y-125221600D01*
X128555390Y-125222310D01*
X128555390Y-125222310D01*
G37*
D11*
X128368432Y-125516600D03*
G04 #@! TD*
D10*
G04 #@! TO.C,C27*
G36*
X129825390Y-125222310D02*
X129839708Y-125224434D01*
X129853749Y-125227951D01*
X129867378Y-125232828D01*
X129880463Y-125239017D01*
X129892879Y-125246458D01*
X129904505Y-125255081D01*
X129915230Y-125264802D01*
X129924951Y-125275527D01*
X129933574Y-125287153D01*
X129941015Y-125299569D01*
X129947204Y-125312654D01*
X129952081Y-125326283D01*
X129955598Y-125340324D01*
X129957722Y-125354642D01*
X129958432Y-125369100D01*
X129958432Y-125664100D01*
X129957722Y-125678558D01*
X129955598Y-125692876D01*
X129952081Y-125706917D01*
X129947204Y-125720546D01*
X129941015Y-125733631D01*
X129933574Y-125746047D01*
X129924951Y-125757673D01*
X129915230Y-125768398D01*
X129904505Y-125778119D01*
X129892879Y-125786742D01*
X129880463Y-125794183D01*
X129867378Y-125800372D01*
X129853749Y-125805249D01*
X129839708Y-125808766D01*
X129825390Y-125810890D01*
X129810932Y-125811600D01*
X129465932Y-125811600D01*
X129451474Y-125810890D01*
X129437156Y-125808766D01*
X129423115Y-125805249D01*
X129409486Y-125800372D01*
X129396401Y-125794183D01*
X129383985Y-125786742D01*
X129372359Y-125778119D01*
X129361634Y-125768398D01*
X129351913Y-125757673D01*
X129343290Y-125746047D01*
X129335849Y-125733631D01*
X129329660Y-125720546D01*
X129324783Y-125706917D01*
X129321266Y-125692876D01*
X129319142Y-125678558D01*
X129318432Y-125664100D01*
X129318432Y-125369100D01*
X129319142Y-125354642D01*
X129321266Y-125340324D01*
X129324783Y-125326283D01*
X129329660Y-125312654D01*
X129335849Y-125299569D01*
X129343290Y-125287153D01*
X129351913Y-125275527D01*
X129361634Y-125264802D01*
X129372359Y-125255081D01*
X129383985Y-125246458D01*
X129396401Y-125239017D01*
X129409486Y-125232828D01*
X129423115Y-125227951D01*
X129437156Y-125224434D01*
X129451474Y-125222310D01*
X129465932Y-125221600D01*
X129810932Y-125221600D01*
X129825390Y-125222310D01*
X129825390Y-125222310D01*
G37*
D11*
X129638432Y-125516600D03*
D10*
G36*
X129825390Y-124252310D02*
X129839708Y-124254434D01*
X129853749Y-124257951D01*
X129867378Y-124262828D01*
X129880463Y-124269017D01*
X129892879Y-124276458D01*
X129904505Y-124285081D01*
X129915230Y-124294802D01*
X129924951Y-124305527D01*
X129933574Y-124317153D01*
X129941015Y-124329569D01*
X129947204Y-124342654D01*
X129952081Y-124356283D01*
X129955598Y-124370324D01*
X129957722Y-124384642D01*
X129958432Y-124399100D01*
X129958432Y-124694100D01*
X129957722Y-124708558D01*
X129955598Y-124722876D01*
X129952081Y-124736917D01*
X129947204Y-124750546D01*
X129941015Y-124763631D01*
X129933574Y-124776047D01*
X129924951Y-124787673D01*
X129915230Y-124798398D01*
X129904505Y-124808119D01*
X129892879Y-124816742D01*
X129880463Y-124824183D01*
X129867378Y-124830372D01*
X129853749Y-124835249D01*
X129839708Y-124838766D01*
X129825390Y-124840890D01*
X129810932Y-124841600D01*
X129465932Y-124841600D01*
X129451474Y-124840890D01*
X129437156Y-124838766D01*
X129423115Y-124835249D01*
X129409486Y-124830372D01*
X129396401Y-124824183D01*
X129383985Y-124816742D01*
X129372359Y-124808119D01*
X129361634Y-124798398D01*
X129351913Y-124787673D01*
X129343290Y-124776047D01*
X129335849Y-124763631D01*
X129329660Y-124750546D01*
X129324783Y-124736917D01*
X129321266Y-124722876D01*
X129319142Y-124708558D01*
X129318432Y-124694100D01*
X129318432Y-124399100D01*
X129319142Y-124384642D01*
X129321266Y-124370324D01*
X129324783Y-124356283D01*
X129329660Y-124342654D01*
X129335849Y-124329569D01*
X129343290Y-124317153D01*
X129351913Y-124305527D01*
X129361634Y-124294802D01*
X129372359Y-124285081D01*
X129383985Y-124276458D01*
X129396401Y-124269017D01*
X129409486Y-124262828D01*
X129423115Y-124257951D01*
X129437156Y-124254434D01*
X129451474Y-124252310D01*
X129465932Y-124251600D01*
X129810932Y-124251600D01*
X129825390Y-124252310D01*
X129825390Y-124252310D01*
G37*
D11*
X129638432Y-124546600D03*
G04 #@! TD*
D10*
G04 #@! TO.C,C28*
G36*
X118350558Y-117003310D02*
X118364876Y-117005434D01*
X118378917Y-117008951D01*
X118392546Y-117013828D01*
X118405631Y-117020017D01*
X118418047Y-117027458D01*
X118429673Y-117036081D01*
X118440398Y-117045802D01*
X118450119Y-117056527D01*
X118458742Y-117068153D01*
X118466183Y-117080569D01*
X118472372Y-117093654D01*
X118477249Y-117107283D01*
X118480766Y-117121324D01*
X118482890Y-117135642D01*
X118483600Y-117150100D01*
X118483600Y-117495100D01*
X118482890Y-117509558D01*
X118480766Y-117523876D01*
X118477249Y-117537917D01*
X118472372Y-117551546D01*
X118466183Y-117564631D01*
X118458742Y-117577047D01*
X118450119Y-117588673D01*
X118440398Y-117599398D01*
X118429673Y-117609119D01*
X118418047Y-117617742D01*
X118405631Y-117625183D01*
X118392546Y-117631372D01*
X118378917Y-117636249D01*
X118364876Y-117639766D01*
X118350558Y-117641890D01*
X118336100Y-117642600D01*
X118041100Y-117642600D01*
X118026642Y-117641890D01*
X118012324Y-117639766D01*
X117998283Y-117636249D01*
X117984654Y-117631372D01*
X117971569Y-117625183D01*
X117959153Y-117617742D01*
X117947527Y-117609119D01*
X117936802Y-117599398D01*
X117927081Y-117588673D01*
X117918458Y-117577047D01*
X117911017Y-117564631D01*
X117904828Y-117551546D01*
X117899951Y-117537917D01*
X117896434Y-117523876D01*
X117894310Y-117509558D01*
X117893600Y-117495100D01*
X117893600Y-117150100D01*
X117894310Y-117135642D01*
X117896434Y-117121324D01*
X117899951Y-117107283D01*
X117904828Y-117093654D01*
X117911017Y-117080569D01*
X117918458Y-117068153D01*
X117927081Y-117056527D01*
X117936802Y-117045802D01*
X117947527Y-117036081D01*
X117959153Y-117027458D01*
X117971569Y-117020017D01*
X117984654Y-117013828D01*
X117998283Y-117008951D01*
X118012324Y-117005434D01*
X118026642Y-117003310D01*
X118041100Y-117002600D01*
X118336100Y-117002600D01*
X118350558Y-117003310D01*
X118350558Y-117003310D01*
G37*
D11*
X118188600Y-117322600D03*
D10*
G36*
X117380558Y-117003310D02*
X117394876Y-117005434D01*
X117408917Y-117008951D01*
X117422546Y-117013828D01*
X117435631Y-117020017D01*
X117448047Y-117027458D01*
X117459673Y-117036081D01*
X117470398Y-117045802D01*
X117480119Y-117056527D01*
X117488742Y-117068153D01*
X117496183Y-117080569D01*
X117502372Y-117093654D01*
X117507249Y-117107283D01*
X117510766Y-117121324D01*
X117512890Y-117135642D01*
X117513600Y-117150100D01*
X117513600Y-117495100D01*
X117512890Y-117509558D01*
X117510766Y-117523876D01*
X117507249Y-117537917D01*
X117502372Y-117551546D01*
X117496183Y-117564631D01*
X117488742Y-117577047D01*
X117480119Y-117588673D01*
X117470398Y-117599398D01*
X117459673Y-117609119D01*
X117448047Y-117617742D01*
X117435631Y-117625183D01*
X117422546Y-117631372D01*
X117408917Y-117636249D01*
X117394876Y-117639766D01*
X117380558Y-117641890D01*
X117366100Y-117642600D01*
X117071100Y-117642600D01*
X117056642Y-117641890D01*
X117042324Y-117639766D01*
X117028283Y-117636249D01*
X117014654Y-117631372D01*
X117001569Y-117625183D01*
X116989153Y-117617742D01*
X116977527Y-117609119D01*
X116966802Y-117599398D01*
X116957081Y-117588673D01*
X116948458Y-117577047D01*
X116941017Y-117564631D01*
X116934828Y-117551546D01*
X116929951Y-117537917D01*
X116926434Y-117523876D01*
X116924310Y-117509558D01*
X116923600Y-117495100D01*
X116923600Y-117150100D01*
X116924310Y-117135642D01*
X116926434Y-117121324D01*
X116929951Y-117107283D01*
X116934828Y-117093654D01*
X116941017Y-117080569D01*
X116948458Y-117068153D01*
X116957081Y-117056527D01*
X116966802Y-117045802D01*
X116977527Y-117036081D01*
X116989153Y-117027458D01*
X117001569Y-117020017D01*
X117014654Y-117013828D01*
X117028283Y-117008951D01*
X117042324Y-117005434D01*
X117056642Y-117003310D01*
X117071100Y-117002600D01*
X117366100Y-117002600D01*
X117380558Y-117003310D01*
X117380558Y-117003310D01*
G37*
D11*
X117218600Y-117322600D03*
G04 #@! TD*
D10*
G04 #@! TO.C,C29*
G36*
X117355158Y-115733310D02*
X117369476Y-115735434D01*
X117383517Y-115738951D01*
X117397146Y-115743828D01*
X117410231Y-115750017D01*
X117422647Y-115757458D01*
X117434273Y-115766081D01*
X117444998Y-115775802D01*
X117454719Y-115786527D01*
X117463342Y-115798153D01*
X117470783Y-115810569D01*
X117476972Y-115823654D01*
X117481849Y-115837283D01*
X117485366Y-115851324D01*
X117487490Y-115865642D01*
X117488200Y-115880100D01*
X117488200Y-116225100D01*
X117487490Y-116239558D01*
X117485366Y-116253876D01*
X117481849Y-116267917D01*
X117476972Y-116281546D01*
X117470783Y-116294631D01*
X117463342Y-116307047D01*
X117454719Y-116318673D01*
X117444998Y-116329398D01*
X117434273Y-116339119D01*
X117422647Y-116347742D01*
X117410231Y-116355183D01*
X117397146Y-116361372D01*
X117383517Y-116366249D01*
X117369476Y-116369766D01*
X117355158Y-116371890D01*
X117340700Y-116372600D01*
X117045700Y-116372600D01*
X117031242Y-116371890D01*
X117016924Y-116369766D01*
X117002883Y-116366249D01*
X116989254Y-116361372D01*
X116976169Y-116355183D01*
X116963753Y-116347742D01*
X116952127Y-116339119D01*
X116941402Y-116329398D01*
X116931681Y-116318673D01*
X116923058Y-116307047D01*
X116915617Y-116294631D01*
X116909428Y-116281546D01*
X116904551Y-116267917D01*
X116901034Y-116253876D01*
X116898910Y-116239558D01*
X116898200Y-116225100D01*
X116898200Y-115880100D01*
X116898910Y-115865642D01*
X116901034Y-115851324D01*
X116904551Y-115837283D01*
X116909428Y-115823654D01*
X116915617Y-115810569D01*
X116923058Y-115798153D01*
X116931681Y-115786527D01*
X116941402Y-115775802D01*
X116952127Y-115766081D01*
X116963753Y-115757458D01*
X116976169Y-115750017D01*
X116989254Y-115743828D01*
X117002883Y-115738951D01*
X117016924Y-115735434D01*
X117031242Y-115733310D01*
X117045700Y-115732600D01*
X117340700Y-115732600D01*
X117355158Y-115733310D01*
X117355158Y-115733310D01*
G37*
D11*
X117193200Y-116052600D03*
D10*
G36*
X118325158Y-115733310D02*
X118339476Y-115735434D01*
X118353517Y-115738951D01*
X118367146Y-115743828D01*
X118380231Y-115750017D01*
X118392647Y-115757458D01*
X118404273Y-115766081D01*
X118414998Y-115775802D01*
X118424719Y-115786527D01*
X118433342Y-115798153D01*
X118440783Y-115810569D01*
X118446972Y-115823654D01*
X118451849Y-115837283D01*
X118455366Y-115851324D01*
X118457490Y-115865642D01*
X118458200Y-115880100D01*
X118458200Y-116225100D01*
X118457490Y-116239558D01*
X118455366Y-116253876D01*
X118451849Y-116267917D01*
X118446972Y-116281546D01*
X118440783Y-116294631D01*
X118433342Y-116307047D01*
X118424719Y-116318673D01*
X118414998Y-116329398D01*
X118404273Y-116339119D01*
X118392647Y-116347742D01*
X118380231Y-116355183D01*
X118367146Y-116361372D01*
X118353517Y-116366249D01*
X118339476Y-116369766D01*
X118325158Y-116371890D01*
X118310700Y-116372600D01*
X118015700Y-116372600D01*
X118001242Y-116371890D01*
X117986924Y-116369766D01*
X117972883Y-116366249D01*
X117959254Y-116361372D01*
X117946169Y-116355183D01*
X117933753Y-116347742D01*
X117922127Y-116339119D01*
X117911402Y-116329398D01*
X117901681Y-116318673D01*
X117893058Y-116307047D01*
X117885617Y-116294631D01*
X117879428Y-116281546D01*
X117874551Y-116267917D01*
X117871034Y-116253876D01*
X117868910Y-116239558D01*
X117868200Y-116225100D01*
X117868200Y-115880100D01*
X117868910Y-115865642D01*
X117871034Y-115851324D01*
X117874551Y-115837283D01*
X117879428Y-115823654D01*
X117885617Y-115810569D01*
X117893058Y-115798153D01*
X117901681Y-115786527D01*
X117911402Y-115775802D01*
X117922127Y-115766081D01*
X117933753Y-115757458D01*
X117946169Y-115750017D01*
X117959254Y-115743828D01*
X117972883Y-115738951D01*
X117986924Y-115735434D01*
X118001242Y-115733310D01*
X118015700Y-115732600D01*
X118310700Y-115732600D01*
X118325158Y-115733310D01*
X118325158Y-115733310D01*
G37*
D11*
X118163200Y-116052600D03*
G04 #@! TD*
D10*
G04 #@! TO.C,C13*
G36*
X118198158Y-112964710D02*
X118212476Y-112966834D01*
X118226517Y-112970351D01*
X118240146Y-112975228D01*
X118253231Y-112981417D01*
X118265647Y-112988858D01*
X118277273Y-112997481D01*
X118287998Y-113007202D01*
X118297719Y-113017927D01*
X118306342Y-113029553D01*
X118313783Y-113041969D01*
X118319972Y-113055054D01*
X118324849Y-113068683D01*
X118328366Y-113082724D01*
X118330490Y-113097042D01*
X118331200Y-113111500D01*
X118331200Y-113456500D01*
X118330490Y-113470958D01*
X118328366Y-113485276D01*
X118324849Y-113499317D01*
X118319972Y-113512946D01*
X118313783Y-113526031D01*
X118306342Y-113538447D01*
X118297719Y-113550073D01*
X118287998Y-113560798D01*
X118277273Y-113570519D01*
X118265647Y-113579142D01*
X118253231Y-113586583D01*
X118240146Y-113592772D01*
X118226517Y-113597649D01*
X118212476Y-113601166D01*
X118198158Y-113603290D01*
X118183700Y-113604000D01*
X117888700Y-113604000D01*
X117874242Y-113603290D01*
X117859924Y-113601166D01*
X117845883Y-113597649D01*
X117832254Y-113592772D01*
X117819169Y-113586583D01*
X117806753Y-113579142D01*
X117795127Y-113570519D01*
X117784402Y-113560798D01*
X117774681Y-113550073D01*
X117766058Y-113538447D01*
X117758617Y-113526031D01*
X117752428Y-113512946D01*
X117747551Y-113499317D01*
X117744034Y-113485276D01*
X117741910Y-113470958D01*
X117741200Y-113456500D01*
X117741200Y-113111500D01*
X117741910Y-113097042D01*
X117744034Y-113082724D01*
X117747551Y-113068683D01*
X117752428Y-113055054D01*
X117758617Y-113041969D01*
X117766058Y-113029553D01*
X117774681Y-113017927D01*
X117784402Y-113007202D01*
X117795127Y-112997481D01*
X117806753Y-112988858D01*
X117819169Y-112981417D01*
X117832254Y-112975228D01*
X117845883Y-112970351D01*
X117859924Y-112966834D01*
X117874242Y-112964710D01*
X117888700Y-112964000D01*
X118183700Y-112964000D01*
X118198158Y-112964710D01*
X118198158Y-112964710D01*
G37*
D11*
X118036200Y-113284000D03*
D10*
G36*
X117228158Y-112964710D02*
X117242476Y-112966834D01*
X117256517Y-112970351D01*
X117270146Y-112975228D01*
X117283231Y-112981417D01*
X117295647Y-112988858D01*
X117307273Y-112997481D01*
X117317998Y-113007202D01*
X117327719Y-113017927D01*
X117336342Y-113029553D01*
X117343783Y-113041969D01*
X117349972Y-113055054D01*
X117354849Y-113068683D01*
X117358366Y-113082724D01*
X117360490Y-113097042D01*
X117361200Y-113111500D01*
X117361200Y-113456500D01*
X117360490Y-113470958D01*
X117358366Y-113485276D01*
X117354849Y-113499317D01*
X117349972Y-113512946D01*
X117343783Y-113526031D01*
X117336342Y-113538447D01*
X117327719Y-113550073D01*
X117317998Y-113560798D01*
X117307273Y-113570519D01*
X117295647Y-113579142D01*
X117283231Y-113586583D01*
X117270146Y-113592772D01*
X117256517Y-113597649D01*
X117242476Y-113601166D01*
X117228158Y-113603290D01*
X117213700Y-113604000D01*
X116918700Y-113604000D01*
X116904242Y-113603290D01*
X116889924Y-113601166D01*
X116875883Y-113597649D01*
X116862254Y-113592772D01*
X116849169Y-113586583D01*
X116836753Y-113579142D01*
X116825127Y-113570519D01*
X116814402Y-113560798D01*
X116804681Y-113550073D01*
X116796058Y-113538447D01*
X116788617Y-113526031D01*
X116782428Y-113512946D01*
X116777551Y-113499317D01*
X116774034Y-113485276D01*
X116771910Y-113470958D01*
X116771200Y-113456500D01*
X116771200Y-113111500D01*
X116771910Y-113097042D01*
X116774034Y-113082724D01*
X116777551Y-113068683D01*
X116782428Y-113055054D01*
X116788617Y-113041969D01*
X116796058Y-113029553D01*
X116804681Y-113017927D01*
X116814402Y-113007202D01*
X116825127Y-112997481D01*
X116836753Y-112988858D01*
X116849169Y-112981417D01*
X116862254Y-112975228D01*
X116875883Y-112970351D01*
X116889924Y-112966834D01*
X116904242Y-112964710D01*
X116918700Y-112964000D01*
X117213700Y-112964000D01*
X117228158Y-112964710D01*
X117228158Y-112964710D01*
G37*
D11*
X117066200Y-113284000D03*
G04 #@! TD*
D10*
G04 #@! TO.C,C15*
G36*
X118198158Y-119670310D02*
X118212476Y-119672434D01*
X118226517Y-119675951D01*
X118240146Y-119680828D01*
X118253231Y-119687017D01*
X118265647Y-119694458D01*
X118277273Y-119703081D01*
X118287998Y-119712802D01*
X118297719Y-119723527D01*
X118306342Y-119735153D01*
X118313783Y-119747569D01*
X118319972Y-119760654D01*
X118324849Y-119774283D01*
X118328366Y-119788324D01*
X118330490Y-119802642D01*
X118331200Y-119817100D01*
X118331200Y-120162100D01*
X118330490Y-120176558D01*
X118328366Y-120190876D01*
X118324849Y-120204917D01*
X118319972Y-120218546D01*
X118313783Y-120231631D01*
X118306342Y-120244047D01*
X118297719Y-120255673D01*
X118287998Y-120266398D01*
X118277273Y-120276119D01*
X118265647Y-120284742D01*
X118253231Y-120292183D01*
X118240146Y-120298372D01*
X118226517Y-120303249D01*
X118212476Y-120306766D01*
X118198158Y-120308890D01*
X118183700Y-120309600D01*
X117888700Y-120309600D01*
X117874242Y-120308890D01*
X117859924Y-120306766D01*
X117845883Y-120303249D01*
X117832254Y-120298372D01*
X117819169Y-120292183D01*
X117806753Y-120284742D01*
X117795127Y-120276119D01*
X117784402Y-120266398D01*
X117774681Y-120255673D01*
X117766058Y-120244047D01*
X117758617Y-120231631D01*
X117752428Y-120218546D01*
X117747551Y-120204917D01*
X117744034Y-120190876D01*
X117741910Y-120176558D01*
X117741200Y-120162100D01*
X117741200Y-119817100D01*
X117741910Y-119802642D01*
X117744034Y-119788324D01*
X117747551Y-119774283D01*
X117752428Y-119760654D01*
X117758617Y-119747569D01*
X117766058Y-119735153D01*
X117774681Y-119723527D01*
X117784402Y-119712802D01*
X117795127Y-119703081D01*
X117806753Y-119694458D01*
X117819169Y-119687017D01*
X117832254Y-119680828D01*
X117845883Y-119675951D01*
X117859924Y-119672434D01*
X117874242Y-119670310D01*
X117888700Y-119669600D01*
X118183700Y-119669600D01*
X118198158Y-119670310D01*
X118198158Y-119670310D01*
G37*
D11*
X118036200Y-119989600D03*
D10*
G36*
X117228158Y-119670310D02*
X117242476Y-119672434D01*
X117256517Y-119675951D01*
X117270146Y-119680828D01*
X117283231Y-119687017D01*
X117295647Y-119694458D01*
X117307273Y-119703081D01*
X117317998Y-119712802D01*
X117327719Y-119723527D01*
X117336342Y-119735153D01*
X117343783Y-119747569D01*
X117349972Y-119760654D01*
X117354849Y-119774283D01*
X117358366Y-119788324D01*
X117360490Y-119802642D01*
X117361200Y-119817100D01*
X117361200Y-120162100D01*
X117360490Y-120176558D01*
X117358366Y-120190876D01*
X117354849Y-120204917D01*
X117349972Y-120218546D01*
X117343783Y-120231631D01*
X117336342Y-120244047D01*
X117327719Y-120255673D01*
X117317998Y-120266398D01*
X117307273Y-120276119D01*
X117295647Y-120284742D01*
X117283231Y-120292183D01*
X117270146Y-120298372D01*
X117256517Y-120303249D01*
X117242476Y-120306766D01*
X117228158Y-120308890D01*
X117213700Y-120309600D01*
X116918700Y-120309600D01*
X116904242Y-120308890D01*
X116889924Y-120306766D01*
X116875883Y-120303249D01*
X116862254Y-120298372D01*
X116849169Y-120292183D01*
X116836753Y-120284742D01*
X116825127Y-120276119D01*
X116814402Y-120266398D01*
X116804681Y-120255673D01*
X116796058Y-120244047D01*
X116788617Y-120231631D01*
X116782428Y-120218546D01*
X116777551Y-120204917D01*
X116774034Y-120190876D01*
X116771910Y-120176558D01*
X116771200Y-120162100D01*
X116771200Y-119817100D01*
X116771910Y-119802642D01*
X116774034Y-119788324D01*
X116777551Y-119774283D01*
X116782428Y-119760654D01*
X116788617Y-119747569D01*
X116796058Y-119735153D01*
X116804681Y-119723527D01*
X116814402Y-119712802D01*
X116825127Y-119703081D01*
X116836753Y-119694458D01*
X116849169Y-119687017D01*
X116862254Y-119680828D01*
X116875883Y-119675951D01*
X116889924Y-119672434D01*
X116904242Y-119670310D01*
X116918700Y-119669600D01*
X117213700Y-119669600D01*
X117228158Y-119670310D01*
X117228158Y-119670310D01*
G37*
D11*
X117066200Y-119989600D03*
G04 #@! TD*
D10*
G04 #@! TO.C,C17*
G36*
X126907558Y-125209510D02*
X126921876Y-125211634D01*
X126935917Y-125215151D01*
X126949546Y-125220028D01*
X126962631Y-125226217D01*
X126975047Y-125233658D01*
X126986673Y-125242281D01*
X126997398Y-125252002D01*
X127007119Y-125262727D01*
X127015742Y-125274353D01*
X127023183Y-125286769D01*
X127029372Y-125299854D01*
X127034249Y-125313483D01*
X127037766Y-125327524D01*
X127039890Y-125341842D01*
X127040600Y-125356300D01*
X127040600Y-125651300D01*
X127039890Y-125665758D01*
X127037766Y-125680076D01*
X127034249Y-125694117D01*
X127029372Y-125707746D01*
X127023183Y-125720831D01*
X127015742Y-125733247D01*
X127007119Y-125744873D01*
X126997398Y-125755598D01*
X126986673Y-125765319D01*
X126975047Y-125773942D01*
X126962631Y-125781383D01*
X126949546Y-125787572D01*
X126935917Y-125792449D01*
X126921876Y-125795966D01*
X126907558Y-125798090D01*
X126893100Y-125798800D01*
X126548100Y-125798800D01*
X126533642Y-125798090D01*
X126519324Y-125795966D01*
X126505283Y-125792449D01*
X126491654Y-125787572D01*
X126478569Y-125781383D01*
X126466153Y-125773942D01*
X126454527Y-125765319D01*
X126443802Y-125755598D01*
X126434081Y-125744873D01*
X126425458Y-125733247D01*
X126418017Y-125720831D01*
X126411828Y-125707746D01*
X126406951Y-125694117D01*
X126403434Y-125680076D01*
X126401310Y-125665758D01*
X126400600Y-125651300D01*
X126400600Y-125356300D01*
X126401310Y-125341842D01*
X126403434Y-125327524D01*
X126406951Y-125313483D01*
X126411828Y-125299854D01*
X126418017Y-125286769D01*
X126425458Y-125274353D01*
X126434081Y-125262727D01*
X126443802Y-125252002D01*
X126454527Y-125242281D01*
X126466153Y-125233658D01*
X126478569Y-125226217D01*
X126491654Y-125220028D01*
X126505283Y-125215151D01*
X126519324Y-125211634D01*
X126533642Y-125209510D01*
X126548100Y-125208800D01*
X126893100Y-125208800D01*
X126907558Y-125209510D01*
X126907558Y-125209510D01*
G37*
D11*
X126720600Y-125503800D03*
D10*
G36*
X126907558Y-124239510D02*
X126921876Y-124241634D01*
X126935917Y-124245151D01*
X126949546Y-124250028D01*
X126962631Y-124256217D01*
X126975047Y-124263658D01*
X126986673Y-124272281D01*
X126997398Y-124282002D01*
X127007119Y-124292727D01*
X127015742Y-124304353D01*
X127023183Y-124316769D01*
X127029372Y-124329854D01*
X127034249Y-124343483D01*
X127037766Y-124357524D01*
X127039890Y-124371842D01*
X127040600Y-124386300D01*
X127040600Y-124681300D01*
X127039890Y-124695758D01*
X127037766Y-124710076D01*
X127034249Y-124724117D01*
X127029372Y-124737746D01*
X127023183Y-124750831D01*
X127015742Y-124763247D01*
X127007119Y-124774873D01*
X126997398Y-124785598D01*
X126986673Y-124795319D01*
X126975047Y-124803942D01*
X126962631Y-124811383D01*
X126949546Y-124817572D01*
X126935917Y-124822449D01*
X126921876Y-124825966D01*
X126907558Y-124828090D01*
X126893100Y-124828800D01*
X126548100Y-124828800D01*
X126533642Y-124828090D01*
X126519324Y-124825966D01*
X126505283Y-124822449D01*
X126491654Y-124817572D01*
X126478569Y-124811383D01*
X126466153Y-124803942D01*
X126454527Y-124795319D01*
X126443802Y-124785598D01*
X126434081Y-124774873D01*
X126425458Y-124763247D01*
X126418017Y-124750831D01*
X126411828Y-124737746D01*
X126406951Y-124724117D01*
X126403434Y-124710076D01*
X126401310Y-124695758D01*
X126400600Y-124681300D01*
X126400600Y-124386300D01*
X126401310Y-124371842D01*
X126403434Y-124357524D01*
X126406951Y-124343483D01*
X126411828Y-124329854D01*
X126418017Y-124316769D01*
X126425458Y-124304353D01*
X126434081Y-124292727D01*
X126443802Y-124282002D01*
X126454527Y-124272281D01*
X126466153Y-124263658D01*
X126478569Y-124256217D01*
X126491654Y-124250028D01*
X126505283Y-124245151D01*
X126519324Y-124241634D01*
X126533642Y-124239510D01*
X126548100Y-124238800D01*
X126893100Y-124238800D01*
X126907558Y-124239510D01*
X126907558Y-124239510D01*
G37*
D11*
X126720600Y-124533800D03*
G04 #@! TD*
D10*
G04 #@! TO.C,C19*
G36*
X126998250Y-102542276D02*
X127012568Y-102544400D01*
X127026609Y-102547917D01*
X127040238Y-102552794D01*
X127053323Y-102558983D01*
X127065739Y-102566424D01*
X127077365Y-102575047D01*
X127088090Y-102584768D01*
X127097811Y-102595493D01*
X127106434Y-102607119D01*
X127113875Y-102619535D01*
X127120064Y-102632620D01*
X127124941Y-102646249D01*
X127128458Y-102660290D01*
X127130582Y-102674608D01*
X127131292Y-102689066D01*
X127131292Y-102984066D01*
X127130582Y-102998524D01*
X127128458Y-103012842D01*
X127124941Y-103026883D01*
X127120064Y-103040512D01*
X127113875Y-103053597D01*
X127106434Y-103066013D01*
X127097811Y-103077639D01*
X127088090Y-103088364D01*
X127077365Y-103098085D01*
X127065739Y-103106708D01*
X127053323Y-103114149D01*
X127040238Y-103120338D01*
X127026609Y-103125215D01*
X127012568Y-103128732D01*
X126998250Y-103130856D01*
X126983792Y-103131566D01*
X126638792Y-103131566D01*
X126624334Y-103130856D01*
X126610016Y-103128732D01*
X126595975Y-103125215D01*
X126582346Y-103120338D01*
X126569261Y-103114149D01*
X126556845Y-103106708D01*
X126545219Y-103098085D01*
X126534494Y-103088364D01*
X126524773Y-103077639D01*
X126516150Y-103066013D01*
X126508709Y-103053597D01*
X126502520Y-103040512D01*
X126497643Y-103026883D01*
X126494126Y-103012842D01*
X126492002Y-102998524D01*
X126491292Y-102984066D01*
X126491292Y-102689066D01*
X126492002Y-102674608D01*
X126494126Y-102660290D01*
X126497643Y-102646249D01*
X126502520Y-102632620D01*
X126508709Y-102619535D01*
X126516150Y-102607119D01*
X126524773Y-102595493D01*
X126534494Y-102584768D01*
X126545219Y-102575047D01*
X126556845Y-102566424D01*
X126569261Y-102558983D01*
X126582346Y-102552794D01*
X126595975Y-102547917D01*
X126610016Y-102544400D01*
X126624334Y-102542276D01*
X126638792Y-102541566D01*
X126983792Y-102541566D01*
X126998250Y-102542276D01*
X126998250Y-102542276D01*
G37*
D11*
X126811292Y-102836566D03*
D10*
G36*
X126998250Y-103512276D02*
X127012568Y-103514400D01*
X127026609Y-103517917D01*
X127040238Y-103522794D01*
X127053323Y-103528983D01*
X127065739Y-103536424D01*
X127077365Y-103545047D01*
X127088090Y-103554768D01*
X127097811Y-103565493D01*
X127106434Y-103577119D01*
X127113875Y-103589535D01*
X127120064Y-103602620D01*
X127124941Y-103616249D01*
X127128458Y-103630290D01*
X127130582Y-103644608D01*
X127131292Y-103659066D01*
X127131292Y-103954066D01*
X127130582Y-103968524D01*
X127128458Y-103982842D01*
X127124941Y-103996883D01*
X127120064Y-104010512D01*
X127113875Y-104023597D01*
X127106434Y-104036013D01*
X127097811Y-104047639D01*
X127088090Y-104058364D01*
X127077365Y-104068085D01*
X127065739Y-104076708D01*
X127053323Y-104084149D01*
X127040238Y-104090338D01*
X127026609Y-104095215D01*
X127012568Y-104098732D01*
X126998250Y-104100856D01*
X126983792Y-104101566D01*
X126638792Y-104101566D01*
X126624334Y-104100856D01*
X126610016Y-104098732D01*
X126595975Y-104095215D01*
X126582346Y-104090338D01*
X126569261Y-104084149D01*
X126556845Y-104076708D01*
X126545219Y-104068085D01*
X126534494Y-104058364D01*
X126524773Y-104047639D01*
X126516150Y-104036013D01*
X126508709Y-104023597D01*
X126502520Y-104010512D01*
X126497643Y-103996883D01*
X126494126Y-103982842D01*
X126492002Y-103968524D01*
X126491292Y-103954066D01*
X126491292Y-103659066D01*
X126492002Y-103644608D01*
X126494126Y-103630290D01*
X126497643Y-103616249D01*
X126502520Y-103602620D01*
X126508709Y-103589535D01*
X126516150Y-103577119D01*
X126524773Y-103565493D01*
X126534494Y-103554768D01*
X126545219Y-103545047D01*
X126556845Y-103536424D01*
X126569261Y-103528983D01*
X126582346Y-103522794D01*
X126595975Y-103517917D01*
X126610016Y-103514400D01*
X126624334Y-103512276D01*
X126638792Y-103511566D01*
X126983792Y-103511566D01*
X126998250Y-103512276D01*
X126998250Y-103512276D01*
G37*
D11*
X126811292Y-103806566D03*
G04 #@! TD*
D10*
G04 #@! TO.C,C21*
G36*
X139072158Y-108951510D02*
X139086476Y-108953634D01*
X139100517Y-108957151D01*
X139114146Y-108962028D01*
X139127231Y-108968217D01*
X139139647Y-108975658D01*
X139151273Y-108984281D01*
X139161998Y-108994002D01*
X139171719Y-109004727D01*
X139180342Y-109016353D01*
X139187783Y-109028769D01*
X139193972Y-109041854D01*
X139198849Y-109055483D01*
X139202366Y-109069524D01*
X139204490Y-109083842D01*
X139205200Y-109098300D01*
X139205200Y-109443300D01*
X139204490Y-109457758D01*
X139202366Y-109472076D01*
X139198849Y-109486117D01*
X139193972Y-109499746D01*
X139187783Y-109512831D01*
X139180342Y-109525247D01*
X139171719Y-109536873D01*
X139161998Y-109547598D01*
X139151273Y-109557319D01*
X139139647Y-109565942D01*
X139127231Y-109573383D01*
X139114146Y-109579572D01*
X139100517Y-109584449D01*
X139086476Y-109587966D01*
X139072158Y-109590090D01*
X139057700Y-109590800D01*
X138762700Y-109590800D01*
X138748242Y-109590090D01*
X138733924Y-109587966D01*
X138719883Y-109584449D01*
X138706254Y-109579572D01*
X138693169Y-109573383D01*
X138680753Y-109565942D01*
X138669127Y-109557319D01*
X138658402Y-109547598D01*
X138648681Y-109536873D01*
X138640058Y-109525247D01*
X138632617Y-109512831D01*
X138626428Y-109499746D01*
X138621551Y-109486117D01*
X138618034Y-109472076D01*
X138615910Y-109457758D01*
X138615200Y-109443300D01*
X138615200Y-109098300D01*
X138615910Y-109083842D01*
X138618034Y-109069524D01*
X138621551Y-109055483D01*
X138626428Y-109041854D01*
X138632617Y-109028769D01*
X138640058Y-109016353D01*
X138648681Y-109004727D01*
X138658402Y-108994002D01*
X138669127Y-108984281D01*
X138680753Y-108975658D01*
X138693169Y-108968217D01*
X138706254Y-108962028D01*
X138719883Y-108957151D01*
X138733924Y-108953634D01*
X138748242Y-108951510D01*
X138762700Y-108950800D01*
X139057700Y-108950800D01*
X139072158Y-108951510D01*
X139072158Y-108951510D01*
G37*
D11*
X138910200Y-109270800D03*
D10*
G36*
X140042158Y-108951510D02*
X140056476Y-108953634D01*
X140070517Y-108957151D01*
X140084146Y-108962028D01*
X140097231Y-108968217D01*
X140109647Y-108975658D01*
X140121273Y-108984281D01*
X140131998Y-108994002D01*
X140141719Y-109004727D01*
X140150342Y-109016353D01*
X140157783Y-109028769D01*
X140163972Y-109041854D01*
X140168849Y-109055483D01*
X140172366Y-109069524D01*
X140174490Y-109083842D01*
X140175200Y-109098300D01*
X140175200Y-109443300D01*
X140174490Y-109457758D01*
X140172366Y-109472076D01*
X140168849Y-109486117D01*
X140163972Y-109499746D01*
X140157783Y-109512831D01*
X140150342Y-109525247D01*
X140141719Y-109536873D01*
X140131998Y-109547598D01*
X140121273Y-109557319D01*
X140109647Y-109565942D01*
X140097231Y-109573383D01*
X140084146Y-109579572D01*
X140070517Y-109584449D01*
X140056476Y-109587966D01*
X140042158Y-109590090D01*
X140027700Y-109590800D01*
X139732700Y-109590800D01*
X139718242Y-109590090D01*
X139703924Y-109587966D01*
X139689883Y-109584449D01*
X139676254Y-109579572D01*
X139663169Y-109573383D01*
X139650753Y-109565942D01*
X139639127Y-109557319D01*
X139628402Y-109547598D01*
X139618681Y-109536873D01*
X139610058Y-109525247D01*
X139602617Y-109512831D01*
X139596428Y-109499746D01*
X139591551Y-109486117D01*
X139588034Y-109472076D01*
X139585910Y-109457758D01*
X139585200Y-109443300D01*
X139585200Y-109098300D01*
X139585910Y-109083842D01*
X139588034Y-109069524D01*
X139591551Y-109055483D01*
X139596428Y-109041854D01*
X139602617Y-109028769D01*
X139610058Y-109016353D01*
X139618681Y-109004727D01*
X139628402Y-108994002D01*
X139639127Y-108984281D01*
X139650753Y-108975658D01*
X139663169Y-108968217D01*
X139676254Y-108962028D01*
X139689883Y-108957151D01*
X139703924Y-108953634D01*
X139718242Y-108951510D01*
X139732700Y-108950800D01*
X140027700Y-108950800D01*
X140042158Y-108951510D01*
X140042158Y-108951510D01*
G37*
D11*
X139880200Y-109270800D03*
G04 #@! TD*
M02*
