G04 #@! TF.FileFunction,Copper,L3,Inr,Signal*
%FSLAX46Y46*%
G04 Gerber Fmt 4.6, Leading zero omitted, Abs format (unit mm)*
G04 Created by KiCad (PCBNEW 4.0.5+dfsg1-4~bpo8+1) date Sun Nov  3 08:51:25 2019*
%MOMM*%
%LPD*%
G01*
G04 APERTURE LIST*
%ADD10C,0.100000*%
%ADD11C,0.460000*%
%ADD12C,4.400000*%
%ADD13C,0.600000*%
%ADD14C,1.400000*%
%ADD15C,1.500000*%
%ADD16O,0.950000X1.250000*%
%ADD17O,1.550000X1.000000*%
%ADD18R,2.000000X2.600000*%
%ADD19O,2.000000X2.600000*%
%ADD20R,1.727200X1.727200*%
%ADD21O,1.727200X1.727200*%
%ADD22C,0.457200*%
%ADD23C,0.203200*%
%ADD24C,0.254000*%
G04 APERTURE END LIST*
D10*
D11*
X179908200Y-91033600D03*
X178511200Y-93395800D03*
X179298600Y-93395800D03*
X180086000Y-93395800D03*
X173939200Y-93395800D03*
X174701200Y-93395800D03*
X175463200Y-93395800D03*
X176225200Y-93395800D03*
X176987200Y-93395800D03*
X177749200Y-93395800D03*
X177749200Y-93395800D03*
X176987200Y-93395800D03*
X176225200Y-93395800D03*
X175463200Y-93395800D03*
X174701200Y-93395800D03*
X173939200Y-93395800D03*
X164719000Y-91059000D03*
X165481000Y-91059000D03*
X166243000Y-91059000D03*
X167005000Y-91059000D03*
X167767000Y-91059000D03*
X168529000Y-91059000D03*
X179146200Y-91033600D03*
X178384200Y-91033600D03*
X177622200Y-91033600D03*
X176860200Y-91033600D03*
X176098200Y-91033600D03*
X175336200Y-91033600D03*
X175336200Y-91033600D03*
X176098200Y-91033600D03*
X176860200Y-91033600D03*
X177622200Y-91033600D03*
X178384200Y-91033600D03*
X179146200Y-91033600D03*
X179146200Y-91033600D03*
X178384200Y-91033600D03*
X177622200Y-91033600D03*
X176860200Y-91033600D03*
X176098200Y-91033600D03*
X175336200Y-91033600D03*
X175336200Y-91033600D03*
X176098200Y-91033600D03*
X176860200Y-91033600D03*
X177622200Y-91033600D03*
X178384200Y-91033600D03*
X179146200Y-91033600D03*
X168783000Y-93319600D03*
X167995600Y-93319600D03*
X167208200Y-93319600D03*
X166420800Y-93319600D03*
X165633400Y-93319600D03*
X168529000Y-91059000D03*
X167767000Y-91059000D03*
X167005000Y-91059000D03*
X166243000Y-91059000D03*
X165481000Y-91059000D03*
X164592000Y-75996800D03*
X164592000Y-70840600D03*
X164668200Y-65506600D03*
X159791400Y-65684400D03*
X149834600Y-65684400D03*
X144678400Y-65684400D03*
X139344400Y-65684400D03*
X144780000Y-100507800D03*
X164846000Y-95656400D03*
X164947600Y-100736400D03*
X159816800Y-100736400D03*
X159969200Y-105257600D03*
X154940000Y-105308400D03*
X149961600Y-105435400D03*
X144932400Y-105486200D03*
X139700000Y-105537000D03*
X125374400Y-111302800D03*
X120192800Y-111328200D03*
X115112800Y-111277400D03*
X110032800Y-111379000D03*
X104978200Y-110591600D03*
X99999800Y-110718600D03*
X100050600Y-105689400D03*
X84963000Y-105689400D03*
X94894400Y-105740200D03*
X90093800Y-105791000D03*
X120015000Y-90449400D03*
X115189000Y-90627200D03*
X90093800Y-80619600D03*
X135204200Y-85521800D03*
X125222000Y-85750400D03*
X115036600Y-85826600D03*
X119964200Y-85801200D03*
X125222000Y-80797400D03*
X120040400Y-80797400D03*
X125145800Y-75895200D03*
X120040400Y-75869800D03*
X115062000Y-75819000D03*
X125145800Y-70637400D03*
X120065800Y-70713600D03*
X115087400Y-70739000D03*
X109931200Y-70764400D03*
X120040400Y-65786000D03*
X115087400Y-65786000D03*
X105079800Y-65735200D03*
X100076000Y-65786000D03*
X149225000Y-76073000D03*
X156286200Y-93980000D03*
X155651200Y-93980000D03*
X155016200Y-93980000D03*
X154381200Y-93980000D03*
X153746200Y-93980000D03*
X156286200Y-93345000D03*
X155651200Y-93345000D03*
X155016200Y-93345000D03*
X154381200Y-93345000D03*
X153746200Y-93345000D03*
X156286200Y-92710000D03*
X155651200Y-92710000D03*
X155016200Y-92710000D03*
X154381200Y-92710000D03*
X153746200Y-92710000D03*
X156286200Y-92075000D03*
X155651200Y-92075000D03*
X155016200Y-92075000D03*
X154381200Y-92075000D03*
X153746200Y-92075000D03*
X156286200Y-91440000D03*
X155651200Y-91440000D03*
X155016200Y-91440000D03*
X154381200Y-91440000D03*
X153746200Y-91440000D03*
X158496000Y-91186000D03*
X146939000Y-76835000D03*
X144907000Y-76708000D03*
D12*
X177800000Y-64770000D03*
D13*
X179450000Y-64770000D03*
X178966726Y-65936726D03*
X177800000Y-66420000D03*
X176633274Y-65936726D03*
X176150000Y-64770000D03*
X176633274Y-63603274D03*
X177800000Y-63120000D03*
X178966726Y-63603274D03*
D12*
X177800000Y-110617000D03*
D13*
X179450000Y-110617000D03*
X178966726Y-111783726D03*
X177800000Y-112267000D03*
X176633274Y-111783726D03*
X176150000Y-110617000D03*
X176633274Y-109450274D03*
X177800000Y-108967000D03*
X178966726Y-109450274D03*
D12*
X86360000Y-110617000D03*
D13*
X88010000Y-110617000D03*
X87526726Y-111783726D03*
X86360000Y-112267000D03*
X85193274Y-111783726D03*
X84710000Y-110617000D03*
X85193274Y-109450274D03*
X86360000Y-108967000D03*
X87526726Y-109450274D03*
D11*
X160274000Y-93091000D03*
X162179000Y-93345000D03*
X162814000Y-93345000D03*
X163449000Y-93345000D03*
X164084000Y-93345000D03*
X164846000Y-93319600D03*
X159258000Y-91186000D03*
X160020000Y-91186000D03*
X160655000Y-91186000D03*
X161290000Y-91186000D03*
X161925000Y-91186000D03*
X162687000Y-91186000D03*
X163449000Y-91186000D03*
X164084000Y-91186000D03*
X164719000Y-91059000D03*
X154051000Y-88900000D03*
X153924000Y-88265000D03*
X153797000Y-87757000D03*
X153797000Y-87122000D03*
X153797000Y-86487000D03*
X153797000Y-85725000D03*
X153797000Y-84836000D03*
X153797000Y-84074000D03*
X153670000Y-79248000D03*
X153670000Y-78613000D03*
X153670000Y-77978000D03*
X153670000Y-77216000D03*
X153670000Y-76581000D03*
X153797000Y-75946000D03*
X153924000Y-75311000D03*
X154051000Y-74676000D03*
X154432000Y-74168000D03*
X154813000Y-73787000D03*
X155194000Y-73406000D03*
X155702000Y-73152000D03*
X156337000Y-72898000D03*
X156972000Y-72898000D03*
X157607000Y-73025000D03*
X158242000Y-73279000D03*
X158750000Y-73660000D03*
X159131000Y-74168000D03*
X159512000Y-74676000D03*
X159766000Y-75311000D03*
X159893000Y-75946000D03*
X159893000Y-76581000D03*
X159766000Y-77216000D03*
X159766000Y-77851000D03*
X159639000Y-78486000D03*
X159512000Y-79121000D03*
X159512000Y-79756000D03*
X159385000Y-80391000D03*
X159385000Y-81026000D03*
X159258000Y-81661000D03*
X159131000Y-82296000D03*
X159004000Y-82931000D03*
X158877000Y-83566000D03*
X158750000Y-84201000D03*
X158623000Y-84709000D03*
X158369000Y-85217000D03*
X158115000Y-85725000D03*
X157861000Y-86233000D03*
X157480000Y-86741000D03*
X157226000Y-87249000D03*
X156972000Y-87884000D03*
X156718000Y-88519000D03*
X156591000Y-89154000D03*
X155702000Y-79502000D03*
X155829000Y-78867000D03*
X155829000Y-78232000D03*
X155829000Y-77470000D03*
X155829000Y-76835000D03*
X155829000Y-76327000D03*
X155956000Y-75692000D03*
X156210000Y-75184000D03*
X156845000Y-74930000D03*
X157353000Y-75184000D03*
X157734000Y-75692000D03*
X157861000Y-76327000D03*
X157861000Y-76962000D03*
X157734000Y-77597000D03*
X157607000Y-78232000D03*
X157607000Y-78994000D03*
X157480000Y-79756000D03*
X157353000Y-80518000D03*
X157226000Y-81153000D03*
X157226000Y-81915000D03*
X157099000Y-82677000D03*
X156972000Y-83312000D03*
X156718000Y-83947000D03*
X156514800Y-84531200D03*
X156210000Y-85090000D03*
X155905200Y-85623400D03*
D14*
X135178800Y-71259700D03*
X137718800Y-71259700D03*
D15*
X95351600Y-99364800D03*
X95707200Y-65786000D03*
X84785200Y-83972400D03*
X92252800Y-62992000D03*
X87934800Y-87376000D03*
X100584000Y-80772000D03*
X117221000Y-79222600D03*
X115316000Y-82296000D03*
X107543600Y-81838800D03*
X115417600Y-103835200D03*
X94488000Y-75692000D03*
D16*
X86995000Y-96937200D03*
X86995000Y-91937200D03*
D17*
X84295000Y-90937200D03*
X84295000Y-97937200D03*
D18*
X178511200Y-74447400D03*
D19*
X175971200Y-74447400D03*
X173431200Y-74447400D03*
D15*
X162306000Y-98044000D03*
X160020000Y-98044000D03*
D12*
X86360000Y-64770000D03*
D13*
X88010000Y-64770000D03*
X87526726Y-65936726D03*
X86360000Y-66420000D03*
X85193274Y-65936726D03*
X84710000Y-64770000D03*
X85193274Y-63603274D03*
X86360000Y-63120000D03*
X87526726Y-63603274D03*
D20*
X128270000Y-77470000D03*
D21*
X130810000Y-77470000D03*
X128270000Y-80010000D03*
X130810000Y-80010000D03*
X128270000Y-82550000D03*
X130810000Y-82550000D03*
X128270000Y-85090000D03*
X130810000Y-85090000D03*
X128270000Y-87630000D03*
X130810000Y-87630000D03*
X128270000Y-90170000D03*
X130810000Y-90170000D03*
X128270000Y-92710000D03*
X130810000Y-92710000D03*
X128270000Y-95250000D03*
X130810000Y-95250000D03*
X128270000Y-97790000D03*
X130810000Y-97790000D03*
X128270000Y-100330000D03*
X130810000Y-100330000D03*
X128270000Y-102870000D03*
X130810000Y-102870000D03*
X128270000Y-105410000D03*
X130810000Y-105410000D03*
X128270000Y-107950000D03*
X130810000Y-107950000D03*
X128270000Y-110490000D03*
X130810000Y-110490000D03*
D22*
X127889000Y-68453000D03*
X133172200Y-71335900D03*
X178358800Y-85242400D03*
X108635800Y-67792600D03*
X145059400Y-91084400D03*
X140716000Y-94437200D03*
X94488000Y-101447600D03*
X119380000Y-97688400D03*
X117703600Y-102108000D03*
X122072400Y-101142800D03*
X113436400Y-91643200D03*
X111099600Y-97637600D03*
X106781600Y-101600000D03*
X101752400Y-98145600D03*
X98907600Y-97383600D03*
X101803200Y-95656400D03*
X101854000Y-93218000D03*
X100736400Y-90678000D03*
X109270800Y-90271600D03*
X112522000Y-87020400D03*
X111150400Y-87020400D03*
X107391200Y-70256400D03*
X101549200Y-68630800D03*
X100076000Y-67462400D03*
X96469200Y-72847200D03*
X96469200Y-71678800D03*
X96469200Y-70307200D03*
X93319600Y-67106800D03*
X88341200Y-70358000D03*
X88087200Y-71577200D03*
X88138000Y-71577200D03*
X84836000Y-69138800D03*
X92811600Y-81991200D03*
X91694000Y-84836000D03*
X98298000Y-87223600D03*
X85547200Y-95707200D03*
X86156800Y-88849200D03*
X91795600Y-91135200D03*
X89966800Y-94030800D03*
X97688400Y-92659200D03*
X97485200Y-90881200D03*
X97637600Y-96672400D03*
X115468400Y-96621600D03*
X115468400Y-94132400D03*
X102412800Y-87934800D03*
X109220000Y-86664800D03*
X98348800Y-95707200D03*
X107289600Y-86715600D03*
X110693200Y-103073200D03*
X103987600Y-103073200D03*
X132715000Y-80111600D03*
X133223000Y-75031600D03*
X162433000Y-94742000D03*
X162306000Y-69088000D03*
X162179000Y-67056000D03*
X133223000Y-68707000D03*
X157353000Y-98552000D03*
X175971200Y-85242400D03*
X156464000Y-65405000D03*
X148971000Y-94488000D03*
X148844000Y-91694000D03*
X150241000Y-87503000D03*
X150241000Y-89281000D03*
X159893000Y-89027000D03*
X159893000Y-90297000D03*
X127889000Y-65024000D03*
X128143000Y-74549000D03*
X129794000Y-69342000D03*
X151130000Y-90551000D03*
X138557000Y-77470000D03*
X150876000Y-93472000D03*
X137617200Y-96875600D03*
X110744000Y-95148400D03*
X113385600Y-94894400D03*
X108661200Y-90932000D03*
X102311200Y-98653600D03*
X103784400Y-99466400D03*
X100838000Y-99415600D03*
X102362000Y-93827600D03*
X137922000Y-103124000D03*
X152527000Y-96139000D03*
X137922000Y-110490000D03*
X153797000Y-96647000D03*
X137922000Y-95250000D03*
X154305000Y-97409000D03*
X137922000Y-92710000D03*
X154813000Y-97028000D03*
X137922000Y-90170000D03*
X155321000Y-96520000D03*
X155829000Y-96139000D03*
X137922000Y-88519000D03*
X106172000Y-96545400D03*
X153289000Y-96139000D03*
X137922000Y-107950000D03*
X123545600Y-65430400D03*
X113055400Y-67716400D03*
X88900000Y-99314000D03*
X119380000Y-98755200D03*
X96215200Y-78232000D03*
X109880400Y-73761600D03*
X100177600Y-71678800D03*
X101650800Y-71424800D03*
X91643200Y-69037200D03*
X88493600Y-67208400D03*
X88341200Y-69088000D03*
X99568000Y-93167200D03*
X98602800Y-90881200D03*
X113893600Y-93573600D03*
X109220000Y-87833200D03*
X99466400Y-95707200D03*
X107289600Y-87833200D03*
X110693200Y-102006400D03*
X104038400Y-101955600D03*
X106273600Y-97790000D03*
X107746800Y-90932000D03*
X120446800Y-97790000D03*
X158292800Y-93218000D03*
X159054800Y-93218000D03*
X150164800Y-102209600D03*
D23*
X150368000Y-103124000D02*
X137922000Y-103124000D01*
X152527000Y-100965000D02*
X150368000Y-103124000D01*
X152527000Y-96139000D02*
X152527000Y-100965000D01*
X149352000Y-110490000D02*
X137922000Y-110490000D01*
X153797000Y-106045000D02*
X149352000Y-110490000D01*
X153797000Y-96647000D02*
X153797000Y-106045000D01*
X149352000Y-95250000D02*
X137922000Y-95250000D01*
X149733000Y-95631000D02*
X149352000Y-95250000D01*
X154051000Y-95631000D02*
X149733000Y-95631000D01*
X154305000Y-95885000D02*
X154051000Y-95631000D01*
X154305000Y-97409000D02*
X154305000Y-95885000D01*
X148463000Y-92710000D02*
X137922000Y-92710000D01*
X150876000Y-95123000D02*
X148463000Y-92710000D01*
X154432000Y-95123000D02*
X150876000Y-95123000D01*
X154813000Y-95504000D02*
X154432000Y-95123000D01*
X154813000Y-97028000D02*
X154813000Y-95504000D01*
X148463000Y-90170000D02*
X137922000Y-90170000D01*
X152908000Y-94615000D02*
X148463000Y-90170000D01*
X154813000Y-94615000D02*
X152908000Y-94615000D01*
X155194000Y-94996000D02*
X154813000Y-94615000D01*
X155194000Y-96393000D02*
X155194000Y-94996000D01*
X155321000Y-96520000D02*
X155194000Y-96393000D01*
D24*
X155829000Y-96139000D02*
X157226000Y-94742000D01*
X154178000Y-90424000D02*
X156337000Y-90424000D01*
X156337000Y-90424000D02*
X157226000Y-91313000D01*
X157226000Y-91313000D02*
X157226000Y-94107000D01*
X137922000Y-88519000D02*
X152273000Y-88519000D01*
X152273000Y-88519000D02*
X154178000Y-90424000D01*
X157226000Y-94742000D02*
X157226000Y-94107000D01*
D23*
X153225500Y-104584500D02*
X153289000Y-104521000D01*
X153289000Y-104521000D02*
X153289000Y-96139000D01*
X149860000Y-107950000D02*
X137922000Y-107950000D01*
X153225500Y-104584500D02*
X149860000Y-107950000D01*
D24*
G36*
X91528877Y-61779540D02*
X91460888Y-62020483D01*
X92252800Y-62812395D01*
X93044712Y-62020483D01*
X92976723Y-61779540D01*
X92668932Y-61670000D01*
X123720394Y-61670000D01*
X125603000Y-63552606D01*
X125603000Y-69890639D01*
X125318614Y-69772551D01*
X124974496Y-69772251D01*
X124656457Y-69903661D01*
X124412917Y-70146777D01*
X124280951Y-70464586D01*
X124280651Y-70808704D01*
X124412061Y-71126743D01*
X124655177Y-71370283D01*
X124972986Y-71502249D01*
X125317104Y-71502549D01*
X125603000Y-71384420D01*
X125603000Y-75148439D01*
X125318614Y-75030351D01*
X124974496Y-75030051D01*
X124656457Y-75161461D01*
X124412917Y-75404577D01*
X124280951Y-75722386D01*
X124280651Y-76066504D01*
X124412061Y-76384543D01*
X124655177Y-76628083D01*
X124972986Y-76760049D01*
X125317104Y-76760349D01*
X125603000Y-76642220D01*
X125603000Y-80018997D01*
X125394814Y-79932551D01*
X125050696Y-79932251D01*
X124732657Y-80063661D01*
X124489117Y-80306777D01*
X124357151Y-80624586D01*
X124356851Y-80968704D01*
X124488261Y-81286743D01*
X124731377Y-81530283D01*
X125049186Y-81662249D01*
X125393304Y-81662549D01*
X125603000Y-81575905D01*
X125603000Y-84971997D01*
X125394814Y-84885551D01*
X125050696Y-84885251D01*
X124732657Y-85016661D01*
X124489117Y-85259777D01*
X124357151Y-85577586D01*
X124356851Y-85921704D01*
X124488261Y-86239743D01*
X124731377Y-86483283D01*
X125049186Y-86615249D01*
X125393304Y-86615549D01*
X125603000Y-86528905D01*
X125603000Y-110461115D01*
X125547214Y-110437951D01*
X125203096Y-110437651D01*
X124885057Y-110569061D01*
X124641517Y-110812177D01*
X124509551Y-111129986D01*
X124509251Y-111474104D01*
X124640661Y-111792143D01*
X124883777Y-112035683D01*
X125160009Y-112150385D01*
X123720394Y-113590000D01*
X84559606Y-113590000D01*
X83260000Y-112290394D01*
X83260000Y-111178442D01*
X83524509Y-111178442D01*
X83955202Y-112220801D01*
X84752005Y-113018995D01*
X85793610Y-113451507D01*
X86921442Y-113452491D01*
X87963801Y-113021798D01*
X88761995Y-112224995D01*
X89194507Y-111183390D01*
X89194763Y-110889904D01*
X99134651Y-110889904D01*
X99266061Y-111207943D01*
X99509177Y-111451483D01*
X99826986Y-111583449D01*
X100171104Y-111583749D01*
X100252047Y-111550304D01*
X109167651Y-111550304D01*
X109299061Y-111868343D01*
X109542177Y-112111883D01*
X109859986Y-112243849D01*
X110204104Y-112244149D01*
X110522143Y-112112739D01*
X110765683Y-111869623D01*
X110897649Y-111551814D01*
X110897738Y-111448704D01*
X114247651Y-111448704D01*
X114379061Y-111766743D01*
X114622177Y-112010283D01*
X114939986Y-112142249D01*
X115284104Y-112142549D01*
X115602143Y-112011139D01*
X115845683Y-111768023D01*
X115957181Y-111499504D01*
X119327651Y-111499504D01*
X119459061Y-111817543D01*
X119702177Y-112061083D01*
X120019986Y-112193049D01*
X120364104Y-112193349D01*
X120682143Y-112061939D01*
X120925683Y-111818823D01*
X121057649Y-111501014D01*
X121057949Y-111156896D01*
X120926539Y-110838857D01*
X120683423Y-110595317D01*
X120365614Y-110463351D01*
X120021496Y-110463051D01*
X119703457Y-110594461D01*
X119459917Y-110837577D01*
X119327951Y-111155386D01*
X119327651Y-111499504D01*
X115957181Y-111499504D01*
X115977649Y-111450214D01*
X115977949Y-111106096D01*
X115846539Y-110788057D01*
X115603423Y-110544517D01*
X115285614Y-110412551D01*
X114941496Y-110412251D01*
X114623457Y-110543661D01*
X114379917Y-110786777D01*
X114247951Y-111104586D01*
X114247651Y-111448704D01*
X110897738Y-111448704D01*
X110897949Y-111207696D01*
X110766539Y-110889657D01*
X110523423Y-110646117D01*
X110205614Y-110514151D01*
X109861496Y-110513851D01*
X109543457Y-110645261D01*
X109299917Y-110888377D01*
X109167951Y-111206186D01*
X109167651Y-111550304D01*
X100252047Y-111550304D01*
X100489143Y-111452339D01*
X100732683Y-111209223D01*
X100864649Y-110891414D01*
X100864761Y-110762904D01*
X104113051Y-110762904D01*
X104244461Y-111080943D01*
X104487577Y-111324483D01*
X104805386Y-111456449D01*
X105149504Y-111456749D01*
X105467543Y-111325339D01*
X105711083Y-111082223D01*
X105843049Y-110764414D01*
X105843349Y-110420296D01*
X105711939Y-110102257D01*
X105468823Y-109858717D01*
X105151014Y-109726751D01*
X104806896Y-109726451D01*
X104488857Y-109857861D01*
X104245317Y-110100977D01*
X104113351Y-110418786D01*
X104113051Y-110762904D01*
X100864761Y-110762904D01*
X100864949Y-110547296D01*
X100733539Y-110229257D01*
X100490423Y-109985717D01*
X100172614Y-109853751D01*
X99828496Y-109853451D01*
X99510457Y-109984861D01*
X99266917Y-110227977D01*
X99134951Y-110545786D01*
X99134651Y-110889904D01*
X89194763Y-110889904D01*
X89195491Y-110055558D01*
X88764798Y-109013199D01*
X87967995Y-108215005D01*
X86926390Y-107782493D01*
X85798558Y-107781509D01*
X84756199Y-108212202D01*
X83958005Y-109009005D01*
X83525493Y-110050610D01*
X83524509Y-111178442D01*
X83260000Y-111178442D01*
X83260000Y-105860704D01*
X84097851Y-105860704D01*
X84229261Y-106178743D01*
X84472377Y-106422283D01*
X84790186Y-106554249D01*
X85134304Y-106554549D01*
X85452343Y-106423139D01*
X85695883Y-106180023D01*
X85786287Y-105962304D01*
X89228651Y-105962304D01*
X89360061Y-106280343D01*
X89603177Y-106523883D01*
X89920986Y-106655849D01*
X90265104Y-106656149D01*
X90583143Y-106524739D01*
X90826683Y-106281623D01*
X90958649Y-105963814D01*
X90958694Y-105911504D01*
X94029251Y-105911504D01*
X94160661Y-106229543D01*
X94403777Y-106473083D01*
X94721586Y-106605049D01*
X95065704Y-106605349D01*
X95383743Y-106473939D01*
X95627283Y-106230823D01*
X95759249Y-105913014D01*
X95759294Y-105860704D01*
X99185451Y-105860704D01*
X99316861Y-106178743D01*
X99559977Y-106422283D01*
X99877786Y-106554249D01*
X100221904Y-106554549D01*
X100539943Y-106423139D01*
X100783483Y-106180023D01*
X100915449Y-105862214D01*
X100915749Y-105518096D01*
X100784339Y-105200057D01*
X100541223Y-104956517D01*
X100223414Y-104824551D01*
X99879296Y-104824251D01*
X99561257Y-104955661D01*
X99317717Y-105198777D01*
X99185751Y-105516586D01*
X99185451Y-105860704D01*
X95759294Y-105860704D01*
X95759549Y-105568896D01*
X95628139Y-105250857D01*
X95385023Y-105007317D01*
X95067214Y-104875351D01*
X94723096Y-104875051D01*
X94405057Y-105006461D01*
X94161517Y-105249577D01*
X94029551Y-105567386D01*
X94029251Y-105911504D01*
X90958694Y-105911504D01*
X90958949Y-105619696D01*
X90827539Y-105301657D01*
X90584423Y-105058117D01*
X90266614Y-104926151D01*
X89922496Y-104925851D01*
X89604457Y-105057261D01*
X89360917Y-105300377D01*
X89228951Y-105618186D01*
X89228651Y-105962304D01*
X85786287Y-105962304D01*
X85827849Y-105862214D01*
X85828149Y-105518096D01*
X85696739Y-105200057D01*
X85453623Y-104956517D01*
X85135814Y-104824551D01*
X84791696Y-104824251D01*
X84473657Y-104955661D01*
X84230117Y-105198777D01*
X84098151Y-105516586D01*
X84097851Y-105860704D01*
X83260000Y-105860704D01*
X83260000Y-104109485D01*
X114032360Y-104109485D01*
X114242769Y-104618715D01*
X114632036Y-105008661D01*
X115140898Y-105219959D01*
X115691885Y-105220440D01*
X116201115Y-105010031D01*
X116591061Y-104620764D01*
X116802359Y-104111902D01*
X116802840Y-103560915D01*
X116592431Y-103051685D01*
X116203164Y-102661739D01*
X115694302Y-102450441D01*
X115143315Y-102449960D01*
X114634085Y-102660369D01*
X114244139Y-103049636D01*
X114032841Y-103558498D01*
X114032360Y-104109485D01*
X83260000Y-104109485D01*
X83260000Y-103244227D01*
X103123850Y-103244227D01*
X103255049Y-103561751D01*
X103497771Y-103804898D01*
X103815066Y-103936650D01*
X104158627Y-103936950D01*
X104476151Y-103805751D01*
X104719298Y-103563029D01*
X104851050Y-103245734D01*
X104851051Y-103244227D01*
X109829450Y-103244227D01*
X109960649Y-103561751D01*
X110203371Y-103804898D01*
X110520666Y-103936650D01*
X110864227Y-103936950D01*
X111181751Y-103805751D01*
X111424898Y-103563029D01*
X111556650Y-103245734D01*
X111556950Y-102902173D01*
X111425751Y-102584649D01*
X111183029Y-102341502D01*
X111032573Y-102279027D01*
X116839850Y-102279027D01*
X116971049Y-102596551D01*
X117213771Y-102839698D01*
X117531066Y-102971450D01*
X117874627Y-102971750D01*
X118192151Y-102840551D01*
X118435298Y-102597829D01*
X118567050Y-102280534D01*
X118567350Y-101936973D01*
X118436151Y-101619449D01*
X118193429Y-101376302D01*
X118042973Y-101313827D01*
X121208650Y-101313827D01*
X121339849Y-101631351D01*
X121582571Y-101874498D01*
X121899866Y-102006250D01*
X122243427Y-102006550D01*
X122560951Y-101875351D01*
X122804098Y-101632629D01*
X122935850Y-101315334D01*
X122936150Y-100971773D01*
X122804951Y-100654249D01*
X122562229Y-100411102D01*
X122244934Y-100279350D01*
X121901373Y-100279050D01*
X121583849Y-100410249D01*
X121340702Y-100652971D01*
X121208950Y-100970266D01*
X121208650Y-101313827D01*
X118042973Y-101313827D01*
X117876134Y-101244550D01*
X117532573Y-101244250D01*
X117215049Y-101375449D01*
X116971902Y-101618171D01*
X116840150Y-101935466D01*
X116839850Y-102279027D01*
X111032573Y-102279027D01*
X110865734Y-102209750D01*
X110522173Y-102209450D01*
X110204649Y-102340649D01*
X109961502Y-102583371D01*
X109829750Y-102900666D01*
X109829450Y-103244227D01*
X104851051Y-103244227D01*
X104851350Y-102902173D01*
X104720151Y-102584649D01*
X104477429Y-102341502D01*
X104160134Y-102209750D01*
X103816573Y-102209450D01*
X103499049Y-102340649D01*
X103255902Y-102583371D01*
X103124150Y-102900666D01*
X103123850Y-103244227D01*
X83260000Y-103244227D01*
X83260000Y-101618627D01*
X93624250Y-101618627D01*
X93755449Y-101936151D01*
X93998171Y-102179298D01*
X94315466Y-102311050D01*
X94659027Y-102311350D01*
X94976551Y-102180151D01*
X95219698Y-101937429D01*
X95288793Y-101771027D01*
X105917850Y-101771027D01*
X106049049Y-102088551D01*
X106291771Y-102331698D01*
X106609066Y-102463450D01*
X106952627Y-102463750D01*
X107270151Y-102332551D01*
X107513298Y-102089829D01*
X107645050Y-101772534D01*
X107645350Y-101428973D01*
X107514151Y-101111449D01*
X107271429Y-100868302D01*
X106954134Y-100736550D01*
X106610573Y-100736250D01*
X106293049Y-100867449D01*
X106049902Y-101110171D01*
X105918150Y-101427466D01*
X105917850Y-101771027D01*
X95288793Y-101771027D01*
X95351450Y-101620134D01*
X95351750Y-101276573D01*
X95220551Y-100959049D01*
X94977829Y-100715902D01*
X94660534Y-100584150D01*
X94316973Y-100583850D01*
X93999449Y-100715049D01*
X93756302Y-100957771D01*
X93624550Y-101275066D01*
X93624250Y-101618627D01*
X83260000Y-101618627D01*
X83260000Y-99639085D01*
X93966360Y-99639085D01*
X94176769Y-100148315D01*
X94566036Y-100538261D01*
X95074898Y-100749559D01*
X95625885Y-100750040D01*
X96135115Y-100539631D01*
X96525061Y-100150364D01*
X96736359Y-99641502D01*
X96736406Y-99586627D01*
X99974250Y-99586627D01*
X100105449Y-99904151D01*
X100348171Y-100147298D01*
X100665466Y-100279050D01*
X101009027Y-100279350D01*
X101326551Y-100148151D01*
X101569698Y-99905429D01*
X101701450Y-99588134D01*
X101701732Y-99265449D01*
X101821371Y-99385298D01*
X102138666Y-99517050D01*
X102482227Y-99517350D01*
X102799751Y-99386151D01*
X102941306Y-99244844D01*
X102920950Y-99293866D01*
X102920650Y-99637427D01*
X103051849Y-99954951D01*
X103294571Y-100198098D01*
X103611866Y-100329850D01*
X103955427Y-100330150D01*
X104272951Y-100198951D01*
X104516098Y-99956229D01*
X104647850Y-99638934D01*
X104648150Y-99295373D01*
X104516951Y-98977849D01*
X104274229Y-98734702D01*
X103956934Y-98602950D01*
X103613373Y-98602650D01*
X103295849Y-98733849D01*
X103154294Y-98875156D01*
X103174650Y-98826134D01*
X103174950Y-98482573D01*
X103043751Y-98165049D01*
X102801029Y-97921902D01*
X102551590Y-97818326D01*
X102484951Y-97657049D01*
X102242229Y-97413902D01*
X101924934Y-97282150D01*
X101581373Y-97281850D01*
X101263849Y-97413049D01*
X101020702Y-97655771D01*
X100888950Y-97973066D01*
X100888650Y-98316627D01*
X100985958Y-98552129D01*
X100666973Y-98551850D01*
X100349449Y-98683049D01*
X100106302Y-98925771D01*
X99974550Y-99243066D01*
X99974250Y-99586627D01*
X96736406Y-99586627D01*
X96736840Y-99090515D01*
X96526431Y-98581285D01*
X96137164Y-98191339D01*
X95628302Y-97980041D01*
X95077315Y-97979560D01*
X94568085Y-98189969D01*
X94178139Y-98579236D01*
X93966841Y-99088098D01*
X93966360Y-99639085D01*
X83260000Y-99639085D01*
X83260000Y-98786666D01*
X83558030Y-98985803D01*
X83992376Y-99072200D01*
X84597624Y-99072200D01*
X85031970Y-98985803D01*
X85400190Y-98739766D01*
X85646227Y-98371546D01*
X85732624Y-97937200D01*
X85646227Y-97502854D01*
X85400190Y-97134634D01*
X85031970Y-96888597D01*
X84597624Y-96802200D01*
X83992376Y-96802200D01*
X83558030Y-96888597D01*
X83260000Y-97087734D01*
X83260000Y-95878227D01*
X84683450Y-95878227D01*
X84814649Y-96195751D01*
X85057371Y-96438898D01*
X85374666Y-96570650D01*
X85718227Y-96570950D01*
X85941451Y-96478715D01*
X85885000Y-96762515D01*
X85885000Y-97111885D01*
X85969494Y-97536664D01*
X86210111Y-97896774D01*
X86570221Y-98137391D01*
X86995000Y-98221885D01*
X87419779Y-98137391D01*
X87779889Y-97896774D01*
X88020506Y-97536664D01*
X88105000Y-97111885D01*
X88105000Y-96843427D01*
X96773850Y-96843427D01*
X96905049Y-97160951D01*
X97147771Y-97404098D01*
X97465066Y-97535850D01*
X97808627Y-97536150D01*
X98043951Y-97438916D01*
X98043850Y-97554627D01*
X98175049Y-97872151D01*
X98417771Y-98115298D01*
X98735066Y-98247050D01*
X99078627Y-98247350D01*
X99396151Y-98116151D01*
X99639298Y-97873429D01*
X99771050Y-97556134D01*
X99771350Y-97212573D01*
X99640151Y-96895049D01*
X99461842Y-96716427D01*
X105308250Y-96716427D01*
X105439449Y-97033951D01*
X105623696Y-97218520D01*
X105541902Y-97300171D01*
X105410150Y-97617466D01*
X105409850Y-97961027D01*
X105541049Y-98278551D01*
X105783771Y-98521698D01*
X106101066Y-98653450D01*
X106444627Y-98653750D01*
X106762151Y-98522551D01*
X107005298Y-98279829D01*
X107137050Y-97962534D01*
X107137184Y-97808627D01*
X110235850Y-97808627D01*
X110367049Y-98126151D01*
X110609771Y-98369298D01*
X110927066Y-98501050D01*
X111270627Y-98501350D01*
X111588151Y-98370151D01*
X111831298Y-98127429D01*
X111942581Y-97859427D01*
X118516250Y-97859427D01*
X118647449Y-98176951D01*
X118890171Y-98420098D01*
X119207466Y-98551850D01*
X119551027Y-98552150D01*
X119859948Y-98424506D01*
X119956971Y-98521698D01*
X120274266Y-98653450D01*
X120617827Y-98653750D01*
X120935351Y-98522551D01*
X121178498Y-98279829D01*
X121310250Y-97962534D01*
X121310550Y-97618973D01*
X121179351Y-97301449D01*
X120936629Y-97058302D01*
X120619334Y-96926550D01*
X120275773Y-96926250D01*
X119966852Y-97053894D01*
X119869829Y-96956702D01*
X119552534Y-96824950D01*
X119208973Y-96824650D01*
X118891449Y-96955849D01*
X118648302Y-97198571D01*
X118516550Y-97515866D01*
X118516250Y-97859427D01*
X111942581Y-97859427D01*
X111963050Y-97810134D01*
X111963350Y-97466573D01*
X111832151Y-97149049D01*
X111589429Y-96905902D01*
X111316632Y-96792627D01*
X114604650Y-96792627D01*
X114735849Y-97110151D01*
X114978571Y-97353298D01*
X115295866Y-97485050D01*
X115639427Y-97485350D01*
X115956951Y-97354151D01*
X116200098Y-97111429D01*
X116331850Y-96794134D01*
X116332150Y-96450573D01*
X116200951Y-96133049D01*
X115958229Y-95889902D01*
X115640934Y-95758150D01*
X115297373Y-95757850D01*
X114979849Y-95889049D01*
X114736702Y-96131771D01*
X114604950Y-96449066D01*
X114604650Y-96792627D01*
X111316632Y-96792627D01*
X111272134Y-96774150D01*
X110928573Y-96773850D01*
X110611049Y-96905049D01*
X110367902Y-97147771D01*
X110236150Y-97465066D01*
X110235850Y-97808627D01*
X107137184Y-97808627D01*
X107137350Y-97618973D01*
X107006151Y-97301449D01*
X106821904Y-97116880D01*
X106903698Y-97035229D01*
X107035450Y-96717934D01*
X107035750Y-96374373D01*
X106904551Y-96056849D01*
X106661829Y-95813702D01*
X106344534Y-95681950D01*
X106000973Y-95681650D01*
X105683449Y-95812849D01*
X105440302Y-96055571D01*
X105308550Y-96372866D01*
X105308250Y-96716427D01*
X99461842Y-96716427D01*
X99397429Y-96651902D01*
X99080134Y-96520150D01*
X98736573Y-96519850D01*
X98501249Y-96617084D01*
X98501289Y-96570934D01*
X98519827Y-96570950D01*
X98837351Y-96439751D01*
X99080498Y-96197029D01*
X99212250Y-95879734D01*
X99212295Y-95827427D01*
X100939450Y-95827427D01*
X101070649Y-96144951D01*
X101313371Y-96388098D01*
X101630666Y-96519850D01*
X101974227Y-96520150D01*
X102291751Y-96388951D01*
X102534898Y-96146229D01*
X102666650Y-95828934D01*
X102666950Y-95485373D01*
X102598383Y-95319427D01*
X109880250Y-95319427D01*
X110011449Y-95636951D01*
X110254171Y-95880098D01*
X110571466Y-96011850D01*
X110915027Y-96012150D01*
X111232551Y-95880951D01*
X111475698Y-95638229D01*
X111607450Y-95320934D01*
X111607673Y-95065427D01*
X112521850Y-95065427D01*
X112653049Y-95382951D01*
X112895771Y-95626098D01*
X113213066Y-95757850D01*
X113556627Y-95758150D01*
X113874151Y-95626951D01*
X114117298Y-95384229D01*
X114249050Y-95066934D01*
X114249350Y-94723373D01*
X114118151Y-94405849D01*
X114015909Y-94303427D01*
X114604650Y-94303427D01*
X114735849Y-94620951D01*
X114978571Y-94864098D01*
X115295866Y-94995850D01*
X115639427Y-94996150D01*
X115956951Y-94864951D01*
X116200098Y-94622229D01*
X116331850Y-94304934D01*
X116332150Y-93961373D01*
X116200951Y-93643849D01*
X115958229Y-93400702D01*
X115640934Y-93268950D01*
X115297373Y-93268650D01*
X114979849Y-93399849D01*
X114736702Y-93642571D01*
X114604950Y-93959866D01*
X114604650Y-94303427D01*
X114015909Y-94303427D01*
X113875429Y-94162702D01*
X113558134Y-94030950D01*
X113214573Y-94030650D01*
X112897049Y-94161849D01*
X112653902Y-94404571D01*
X112522150Y-94721866D01*
X112521850Y-95065427D01*
X111607673Y-95065427D01*
X111607750Y-94977373D01*
X111476551Y-94659849D01*
X111233829Y-94416702D01*
X110916534Y-94284950D01*
X110572973Y-94284650D01*
X110255449Y-94415849D01*
X110012302Y-94658571D01*
X109880550Y-94975866D01*
X109880250Y-95319427D01*
X102598383Y-95319427D01*
X102535751Y-95167849D01*
X102293029Y-94924702D01*
X101975734Y-94792950D01*
X101632173Y-94792650D01*
X101314649Y-94923849D01*
X101071502Y-95166571D01*
X100939750Y-95483866D01*
X100939450Y-95827427D01*
X99212295Y-95827427D01*
X99212550Y-95536173D01*
X99081351Y-95218649D01*
X98838629Y-94975502D01*
X98521334Y-94843750D01*
X98177773Y-94843450D01*
X97860249Y-94974649D01*
X97617102Y-95217371D01*
X97485350Y-95534666D01*
X97485111Y-95808666D01*
X97466573Y-95808650D01*
X97149049Y-95939849D01*
X96905902Y-96182571D01*
X96774150Y-96499866D01*
X96773850Y-96843427D01*
X88105000Y-96843427D01*
X88105000Y-96762515D01*
X88020506Y-96337736D01*
X87779889Y-95977626D01*
X87419779Y-95737009D01*
X86995000Y-95652515D01*
X86570221Y-95737009D01*
X86410682Y-95843609D01*
X86410950Y-95536173D01*
X86279751Y-95218649D01*
X86037029Y-94975502D01*
X85719734Y-94843750D01*
X85376173Y-94843450D01*
X85058649Y-94974649D01*
X84815502Y-95217371D01*
X84683750Y-95534666D01*
X84683450Y-95878227D01*
X83260000Y-95878227D01*
X83260000Y-94201827D01*
X89103050Y-94201827D01*
X89234249Y-94519351D01*
X89476971Y-94762498D01*
X89794266Y-94894250D01*
X90137827Y-94894550D01*
X90455351Y-94763351D01*
X90698498Y-94520629D01*
X90830250Y-94203334D01*
X90830550Y-93859773D01*
X90699351Y-93542249D01*
X90456629Y-93299102D01*
X90139334Y-93167350D01*
X89795773Y-93167050D01*
X89478249Y-93298249D01*
X89235102Y-93540971D01*
X89103350Y-93858266D01*
X89103050Y-94201827D01*
X83260000Y-94201827D01*
X83260000Y-91786666D01*
X83558030Y-91985803D01*
X83992376Y-92072200D01*
X84597624Y-92072200D01*
X85031970Y-91985803D01*
X85366143Y-91762515D01*
X85885000Y-91762515D01*
X85885000Y-92111885D01*
X85969494Y-92536664D01*
X86210111Y-92896774D01*
X86570221Y-93137391D01*
X86995000Y-93221885D01*
X87419779Y-93137391D01*
X87779889Y-92896774D01*
X87824354Y-92830227D01*
X96824650Y-92830227D01*
X96955849Y-93147751D01*
X97198571Y-93390898D01*
X97515866Y-93522650D01*
X97859427Y-93522950D01*
X98176951Y-93391751D01*
X98179679Y-93389027D01*
X100990250Y-93389027D01*
X101121449Y-93706551D01*
X101364171Y-93949698D01*
X101501614Y-94006769D01*
X101629449Y-94316151D01*
X101872171Y-94559298D01*
X102189466Y-94691050D01*
X102533027Y-94691350D01*
X102850551Y-94560151D01*
X103093698Y-94317429D01*
X103225450Y-94000134D01*
X103225750Y-93656573D01*
X103094551Y-93339049D01*
X102851829Y-93095902D01*
X102714386Y-93038831D01*
X102586551Y-92729449D01*
X102343829Y-92486302D01*
X102026534Y-92354550D01*
X101682973Y-92354250D01*
X101365449Y-92485449D01*
X101122302Y-92728171D01*
X100990550Y-93045466D01*
X100990250Y-93389027D01*
X98179679Y-93389027D01*
X98420098Y-93149029D01*
X98551850Y-92831734D01*
X98552150Y-92488173D01*
X98420951Y-92170649D01*
X98178229Y-91927502D01*
X97905432Y-91814227D01*
X112572650Y-91814227D01*
X112703849Y-92131751D01*
X112946571Y-92374898D01*
X113263866Y-92506650D01*
X113607427Y-92506950D01*
X113924951Y-92375751D01*
X114168098Y-92133029D01*
X114299850Y-91815734D01*
X114300150Y-91472173D01*
X114168951Y-91154649D01*
X113926229Y-90911502D01*
X113654099Y-90798504D01*
X114323851Y-90798504D01*
X114455261Y-91116543D01*
X114698377Y-91360083D01*
X115016186Y-91492049D01*
X115360304Y-91492349D01*
X115678343Y-91360939D01*
X115921883Y-91117823D01*
X116053849Y-90800014D01*
X116054005Y-90620704D01*
X119149851Y-90620704D01*
X119281261Y-90938743D01*
X119524377Y-91182283D01*
X119842186Y-91314249D01*
X120186304Y-91314549D01*
X120504343Y-91183139D01*
X120747883Y-90940023D01*
X120879849Y-90622214D01*
X120880149Y-90278096D01*
X120748739Y-89960057D01*
X120505623Y-89716517D01*
X120187814Y-89584551D01*
X119843696Y-89584251D01*
X119525657Y-89715661D01*
X119282117Y-89958777D01*
X119150151Y-90276586D01*
X119149851Y-90620704D01*
X116054005Y-90620704D01*
X116054149Y-90455896D01*
X115922739Y-90137857D01*
X115679623Y-89894317D01*
X115361814Y-89762351D01*
X115017696Y-89762051D01*
X114699657Y-89893461D01*
X114456117Y-90136577D01*
X114324151Y-90454386D01*
X114323851Y-90798504D01*
X113654099Y-90798504D01*
X113608934Y-90779750D01*
X113265373Y-90779450D01*
X112947849Y-90910649D01*
X112704702Y-91153371D01*
X112572950Y-91470666D01*
X112572650Y-91814227D01*
X97905432Y-91814227D01*
X97860934Y-91795750D01*
X97517373Y-91795450D01*
X97199849Y-91926649D01*
X96956702Y-92169371D01*
X96824950Y-92486666D01*
X96824650Y-92830227D01*
X87824354Y-92830227D01*
X88020506Y-92536664D01*
X88105000Y-92111885D01*
X88105000Y-91762515D01*
X88020506Y-91337736D01*
X87999453Y-91306227D01*
X90931850Y-91306227D01*
X91063049Y-91623751D01*
X91305771Y-91866898D01*
X91623066Y-91998650D01*
X91966627Y-91998950D01*
X92284151Y-91867751D01*
X92527298Y-91625029D01*
X92659050Y-91307734D01*
X92659273Y-91052227D01*
X96621450Y-91052227D01*
X96752649Y-91369751D01*
X96995371Y-91612898D01*
X97312666Y-91744650D01*
X97656227Y-91744950D01*
X97973751Y-91613751D01*
X98216898Y-91371029D01*
X98348650Y-91053734D01*
X98348828Y-90849027D01*
X99872650Y-90849027D01*
X100003849Y-91166551D01*
X100246571Y-91409698D01*
X100563866Y-91541450D01*
X100907427Y-91541750D01*
X101224951Y-91410551D01*
X101468098Y-91167829D01*
X101495006Y-91103027D01*
X106883050Y-91103027D01*
X107014249Y-91420551D01*
X107256971Y-91663698D01*
X107574266Y-91795450D01*
X107917827Y-91795750D01*
X108204312Y-91677376D01*
X108488666Y-91795450D01*
X108832227Y-91795750D01*
X109149751Y-91664551D01*
X109392898Y-91421829D01*
X109524650Y-91104534D01*
X109524653Y-91101127D01*
X109759351Y-91004151D01*
X110002498Y-90761429D01*
X110134250Y-90444134D01*
X110134550Y-90100573D01*
X110003351Y-89783049D01*
X109760629Y-89539902D01*
X109443334Y-89408150D01*
X109099773Y-89407850D01*
X108782249Y-89539049D01*
X108539102Y-89781771D01*
X108407350Y-90099066D01*
X108407347Y-90102473D01*
X108203688Y-90186624D01*
X107919334Y-90068550D01*
X107575773Y-90068250D01*
X107258249Y-90199449D01*
X107015102Y-90442171D01*
X106883350Y-90759466D01*
X106883050Y-91103027D01*
X101495006Y-91103027D01*
X101599850Y-90850534D01*
X101600150Y-90506973D01*
X101468951Y-90189449D01*
X101226229Y-89946302D01*
X100908934Y-89814550D01*
X100565373Y-89814250D01*
X100247849Y-89945449D01*
X100004702Y-90188171D01*
X99872950Y-90505466D01*
X99872650Y-90849027D01*
X98348828Y-90849027D01*
X98348950Y-90710173D01*
X98217751Y-90392649D01*
X97975029Y-90149502D01*
X97657734Y-90017750D01*
X97314173Y-90017450D01*
X96996649Y-90148649D01*
X96753502Y-90391371D01*
X96621750Y-90708666D01*
X96621450Y-91052227D01*
X92659273Y-91052227D01*
X92659350Y-90964173D01*
X92528151Y-90646649D01*
X92285429Y-90403502D01*
X91968134Y-90271750D01*
X91624573Y-90271450D01*
X91307049Y-90402649D01*
X91063902Y-90645371D01*
X90932150Y-90962666D01*
X90931850Y-91306227D01*
X87999453Y-91306227D01*
X87779889Y-90977626D01*
X87419779Y-90737009D01*
X86995000Y-90652515D01*
X86570221Y-90737009D01*
X86210111Y-90977626D01*
X85969494Y-91337736D01*
X85885000Y-91762515D01*
X85366143Y-91762515D01*
X85400190Y-91739766D01*
X85646227Y-91371546D01*
X85732624Y-90937200D01*
X85646227Y-90502854D01*
X85400190Y-90134634D01*
X85031970Y-89888597D01*
X84597624Y-89802200D01*
X83992376Y-89802200D01*
X83558030Y-89888597D01*
X83260000Y-90087734D01*
X83260000Y-89020227D01*
X85293050Y-89020227D01*
X85424249Y-89337751D01*
X85666971Y-89580898D01*
X85984266Y-89712650D01*
X86327827Y-89712950D01*
X86645351Y-89581751D01*
X86888498Y-89339029D01*
X87020250Y-89021734D01*
X87020550Y-88678173D01*
X86889351Y-88360649D01*
X86646629Y-88117502D01*
X86329334Y-87985750D01*
X85985773Y-87985450D01*
X85668249Y-88116649D01*
X85425102Y-88359371D01*
X85293350Y-88676666D01*
X85293050Y-89020227D01*
X83260000Y-89020227D01*
X83260000Y-87650285D01*
X86549560Y-87650285D01*
X86759969Y-88159515D01*
X87149236Y-88549461D01*
X87658098Y-88760759D01*
X88209085Y-88761240D01*
X88718315Y-88550831D01*
X89108261Y-88161564D01*
X89131405Y-88105827D01*
X101549050Y-88105827D01*
X101680249Y-88423351D01*
X101922971Y-88666498D01*
X102240266Y-88798250D01*
X102583827Y-88798550D01*
X102901351Y-88667351D01*
X103144498Y-88424629D01*
X103276250Y-88107334D01*
X103276550Y-87763773D01*
X103145351Y-87446249D01*
X102902629Y-87203102D01*
X102585334Y-87071350D01*
X102241773Y-87071050D01*
X101924249Y-87202249D01*
X101681102Y-87444971D01*
X101549350Y-87762266D01*
X101549050Y-88105827D01*
X89131405Y-88105827D01*
X89319559Y-87652702D01*
X89319784Y-87394627D01*
X97434250Y-87394627D01*
X97565449Y-87712151D01*
X97808171Y-87955298D01*
X98125466Y-88087050D01*
X98469027Y-88087350D01*
X98786551Y-87956151D01*
X99029698Y-87713429D01*
X99161450Y-87396134D01*
X99161750Y-87052573D01*
X99093183Y-86886627D01*
X106425850Y-86886627D01*
X106557049Y-87204151D01*
X106799771Y-87447298D01*
X107117066Y-87579050D01*
X107460627Y-87579350D01*
X107778151Y-87448151D01*
X108021298Y-87205429D01*
X108153050Y-86888134D01*
X108153095Y-86835827D01*
X108356250Y-86835827D01*
X108487449Y-87153351D01*
X108730171Y-87396498D01*
X109047466Y-87528250D01*
X109391027Y-87528550D01*
X109708551Y-87397351D01*
X109914835Y-87191427D01*
X110286650Y-87191427D01*
X110417849Y-87508951D01*
X110660571Y-87752098D01*
X110977866Y-87883850D01*
X111321427Y-87884150D01*
X111638951Y-87752951D01*
X111836331Y-87555916D01*
X112032171Y-87752098D01*
X112349466Y-87883850D01*
X112693027Y-87884150D01*
X113010551Y-87752951D01*
X113253698Y-87510229D01*
X113385450Y-87192934D01*
X113385750Y-86849373D01*
X113254551Y-86531849D01*
X113011829Y-86288702D01*
X112694534Y-86156950D01*
X112350973Y-86156650D01*
X112033449Y-86287849D01*
X111836069Y-86484884D01*
X111640229Y-86288702D01*
X111322934Y-86156950D01*
X110979373Y-86156650D01*
X110661849Y-86287849D01*
X110418702Y-86530571D01*
X110286950Y-86847866D01*
X110286650Y-87191427D01*
X109914835Y-87191427D01*
X109951698Y-87154629D01*
X110083450Y-86837334D01*
X110083750Y-86493773D01*
X109952551Y-86176249D01*
X109774518Y-85997904D01*
X114171451Y-85997904D01*
X114302861Y-86315943D01*
X114545977Y-86559483D01*
X114863786Y-86691449D01*
X115207904Y-86691749D01*
X115525943Y-86560339D01*
X115769483Y-86317223D01*
X115901449Y-85999414D01*
X115901472Y-85972504D01*
X119099051Y-85972504D01*
X119230461Y-86290543D01*
X119473577Y-86534083D01*
X119791386Y-86666049D01*
X120135504Y-86666349D01*
X120453543Y-86534939D01*
X120697083Y-86291823D01*
X120829049Y-85974014D01*
X120829349Y-85629896D01*
X120697939Y-85311857D01*
X120454823Y-85068317D01*
X120137014Y-84936351D01*
X119792896Y-84936051D01*
X119474857Y-85067461D01*
X119231317Y-85310577D01*
X119099351Y-85628386D01*
X119099051Y-85972504D01*
X115901472Y-85972504D01*
X115901749Y-85655296D01*
X115770339Y-85337257D01*
X115527223Y-85093717D01*
X115209414Y-84961751D01*
X114865296Y-84961451D01*
X114547257Y-85092861D01*
X114303717Y-85335977D01*
X114171751Y-85653786D01*
X114171451Y-85997904D01*
X109774518Y-85997904D01*
X109709829Y-85933102D01*
X109392534Y-85801350D01*
X109048973Y-85801050D01*
X108731449Y-85932249D01*
X108488302Y-86174971D01*
X108356550Y-86492266D01*
X108356250Y-86835827D01*
X108153095Y-86835827D01*
X108153350Y-86544573D01*
X108022151Y-86227049D01*
X107779429Y-85983902D01*
X107462134Y-85852150D01*
X107118573Y-85851850D01*
X106801049Y-85983049D01*
X106557902Y-86225771D01*
X106426150Y-86543066D01*
X106425850Y-86886627D01*
X99093183Y-86886627D01*
X99030551Y-86735049D01*
X98787829Y-86491902D01*
X98470534Y-86360150D01*
X98126973Y-86359850D01*
X97809449Y-86491049D01*
X97566302Y-86733771D01*
X97434550Y-87051066D01*
X97434250Y-87394627D01*
X89319784Y-87394627D01*
X89320040Y-87101715D01*
X89109631Y-86592485D01*
X88720364Y-86202539D01*
X88211502Y-85991241D01*
X87660515Y-85990760D01*
X87151285Y-86201169D01*
X86761339Y-86590436D01*
X86550041Y-87099298D01*
X86549560Y-87650285D01*
X83260000Y-87650285D01*
X83260000Y-84246685D01*
X83399960Y-84246685D01*
X83610369Y-84755915D01*
X83999636Y-85145861D01*
X84508498Y-85357159D01*
X85059485Y-85357640D01*
X85568715Y-85147231D01*
X85709163Y-85007027D01*
X90830250Y-85007027D01*
X90961449Y-85324551D01*
X91204171Y-85567698D01*
X91521466Y-85699450D01*
X91865027Y-85699750D01*
X92182551Y-85568551D01*
X92425698Y-85325829D01*
X92557450Y-85008534D01*
X92557750Y-84664973D01*
X92426551Y-84347449D01*
X92183829Y-84104302D01*
X91866534Y-83972550D01*
X91522973Y-83972250D01*
X91205449Y-84103449D01*
X90962302Y-84346171D01*
X90830550Y-84663466D01*
X90830250Y-85007027D01*
X85709163Y-85007027D01*
X85958661Y-84757964D01*
X86169959Y-84249102D01*
X86170440Y-83698115D01*
X85960031Y-83188885D01*
X85570764Y-82798939D01*
X85061902Y-82587641D01*
X84510915Y-82587160D01*
X84001685Y-82797569D01*
X83611739Y-83186836D01*
X83400441Y-83695698D01*
X83399960Y-84246685D01*
X83260000Y-84246685D01*
X83260000Y-82162227D01*
X91947850Y-82162227D01*
X92079049Y-82479751D01*
X92321771Y-82722898D01*
X92639066Y-82854650D01*
X92982627Y-82854950D01*
X93300151Y-82723751D01*
X93543298Y-82481029D01*
X93675050Y-82163734D01*
X93675350Y-81820173D01*
X93544151Y-81502649D01*
X93301429Y-81259502D01*
X92984134Y-81127750D01*
X92640573Y-81127450D01*
X92323049Y-81258649D01*
X92079902Y-81501371D01*
X91948150Y-81818666D01*
X91947850Y-82162227D01*
X83260000Y-82162227D01*
X83260000Y-80790904D01*
X89228651Y-80790904D01*
X89360061Y-81108943D01*
X89603177Y-81352483D01*
X89920986Y-81484449D01*
X90265104Y-81484749D01*
X90583143Y-81353339D01*
X90826683Y-81110223D01*
X90853232Y-81046285D01*
X99198760Y-81046285D01*
X99409169Y-81555515D01*
X99798436Y-81945461D01*
X100307298Y-82156759D01*
X100858285Y-82157240D01*
X100965148Y-82113085D01*
X106158360Y-82113085D01*
X106368769Y-82622315D01*
X106758036Y-83012261D01*
X107266898Y-83223559D01*
X107817885Y-83224040D01*
X108327115Y-83013631D01*
X108717061Y-82624364D01*
X108739516Y-82570285D01*
X113930760Y-82570285D01*
X114141169Y-83079515D01*
X114530436Y-83469461D01*
X115039298Y-83680759D01*
X115590285Y-83681240D01*
X116099515Y-83470831D01*
X116489461Y-83081564D01*
X116700759Y-82572702D01*
X116701240Y-82021715D01*
X116490831Y-81512485D01*
X116101564Y-81122539D01*
X115731089Y-80968704D01*
X119175251Y-80968704D01*
X119306661Y-81286743D01*
X119549777Y-81530283D01*
X119867586Y-81662249D01*
X120211704Y-81662549D01*
X120529743Y-81531139D01*
X120773283Y-81288023D01*
X120905249Y-80970214D01*
X120905549Y-80626096D01*
X120774139Y-80308057D01*
X120531023Y-80064517D01*
X120213214Y-79932551D01*
X119869096Y-79932251D01*
X119551057Y-80063661D01*
X119307517Y-80306777D01*
X119175551Y-80624586D01*
X119175251Y-80968704D01*
X115731089Y-80968704D01*
X115592702Y-80911241D01*
X115041715Y-80910760D01*
X114532485Y-81121169D01*
X114142539Y-81510436D01*
X113931241Y-82019298D01*
X113930760Y-82570285D01*
X108739516Y-82570285D01*
X108928359Y-82115502D01*
X108928840Y-81564515D01*
X108718431Y-81055285D01*
X108329164Y-80665339D01*
X107820302Y-80454041D01*
X107269315Y-80453560D01*
X106760085Y-80663969D01*
X106370139Y-81053236D01*
X106158841Y-81562098D01*
X106158360Y-82113085D01*
X100965148Y-82113085D01*
X101367515Y-81946831D01*
X101757461Y-81557564D01*
X101968759Y-81048702D01*
X101969240Y-80497715D01*
X101758831Y-79988485D01*
X101369564Y-79598539D01*
X101124755Y-79496885D01*
X115835760Y-79496885D01*
X116046169Y-80006115D01*
X116435436Y-80396061D01*
X116944298Y-80607359D01*
X117495285Y-80607840D01*
X118004515Y-80397431D01*
X118394461Y-80008164D01*
X118605759Y-79499302D01*
X118606240Y-78948315D01*
X118395831Y-78439085D01*
X118006564Y-78049139D01*
X117497702Y-77837841D01*
X116946715Y-77837360D01*
X116437485Y-78047769D01*
X116047539Y-78437036D01*
X115836241Y-78945898D01*
X115835760Y-79496885D01*
X101124755Y-79496885D01*
X100860702Y-79387241D01*
X100309715Y-79386760D01*
X99800485Y-79597169D01*
X99410539Y-79986436D01*
X99199241Y-80495298D01*
X99198760Y-81046285D01*
X90853232Y-81046285D01*
X90958649Y-80792414D01*
X90958949Y-80448296D01*
X90827539Y-80130257D01*
X90584423Y-79886717D01*
X90266614Y-79754751D01*
X89922496Y-79754451D01*
X89604457Y-79885861D01*
X89360917Y-80128977D01*
X89228951Y-80446786D01*
X89228651Y-80790904D01*
X83260000Y-80790904D01*
X83260000Y-75966285D01*
X93102760Y-75966285D01*
X93313169Y-76475515D01*
X93702436Y-76865461D01*
X94211298Y-77076759D01*
X94762285Y-77077240D01*
X95271515Y-76866831D01*
X95661461Y-76477564D01*
X95863789Y-75990304D01*
X114196851Y-75990304D01*
X114328261Y-76308343D01*
X114571377Y-76551883D01*
X114889186Y-76683849D01*
X115233304Y-76684149D01*
X115551343Y-76552739D01*
X115794883Y-76309623D01*
X115906381Y-76041104D01*
X119175251Y-76041104D01*
X119306661Y-76359143D01*
X119549777Y-76602683D01*
X119867586Y-76734649D01*
X120211704Y-76734949D01*
X120529743Y-76603539D01*
X120773283Y-76360423D01*
X120905249Y-76042614D01*
X120905549Y-75698496D01*
X120774139Y-75380457D01*
X120531023Y-75136917D01*
X120213214Y-75004951D01*
X119869096Y-75004651D01*
X119551057Y-75136061D01*
X119307517Y-75379177D01*
X119175551Y-75696986D01*
X119175251Y-76041104D01*
X115906381Y-76041104D01*
X115926849Y-75991814D01*
X115927149Y-75647696D01*
X115795739Y-75329657D01*
X115552623Y-75086117D01*
X115234814Y-74954151D01*
X114890696Y-74953851D01*
X114572657Y-75085261D01*
X114329117Y-75328377D01*
X114197151Y-75646186D01*
X114196851Y-75990304D01*
X95863789Y-75990304D01*
X95872759Y-75968702D01*
X95873240Y-75417715D01*
X95662831Y-74908485D01*
X95273564Y-74518539D01*
X94764702Y-74307241D01*
X94213715Y-74306760D01*
X93704485Y-74517169D01*
X93314539Y-74906436D01*
X93103241Y-75415298D01*
X93102760Y-75966285D01*
X83260000Y-75966285D01*
X83260000Y-71748227D01*
X87223450Y-71748227D01*
X87354649Y-72065751D01*
X87597371Y-72308898D01*
X87914666Y-72440650D01*
X88258227Y-72440950D01*
X88258334Y-72440906D01*
X88309027Y-72440950D01*
X88626551Y-72309751D01*
X88869698Y-72067029D01*
X89001450Y-71749734D01*
X89001750Y-71406173D01*
X88870551Y-71088649D01*
X88851138Y-71069202D01*
X89072898Y-70847829D01*
X89204650Y-70530534D01*
X89204695Y-70478227D01*
X95605450Y-70478227D01*
X95736649Y-70795751D01*
X95933684Y-70993131D01*
X95737502Y-71188971D01*
X95605750Y-71506266D01*
X95605450Y-71849827D01*
X95736649Y-72167351D01*
X95832085Y-72262954D01*
X95737502Y-72357371D01*
X95605750Y-72674666D01*
X95605450Y-73018227D01*
X95736649Y-73335751D01*
X95979371Y-73578898D01*
X96296666Y-73710650D01*
X96640227Y-73710950D01*
X96957751Y-73579751D01*
X97200898Y-73337029D01*
X97332650Y-73019734D01*
X97332950Y-72676173D01*
X97201751Y-72358649D01*
X97106315Y-72263046D01*
X97200898Y-72168629D01*
X97332650Y-71851334D01*
X97332950Y-71507773D01*
X97201751Y-71190249D01*
X97004716Y-70992869D01*
X97200898Y-70797029D01*
X97332650Y-70479734D01*
X97332695Y-70427427D01*
X106527450Y-70427427D01*
X106658649Y-70744951D01*
X106901371Y-70988098D01*
X107218666Y-71119850D01*
X107562227Y-71120150D01*
X107879751Y-70988951D01*
X107933091Y-70935704D01*
X109066051Y-70935704D01*
X109197461Y-71253743D01*
X109440577Y-71497283D01*
X109758386Y-71629249D01*
X110102504Y-71629549D01*
X110420543Y-71498139D01*
X110664083Y-71255023D01*
X110796049Y-70937214D01*
X110796072Y-70910304D01*
X114222251Y-70910304D01*
X114353661Y-71228343D01*
X114596777Y-71471883D01*
X114914586Y-71603849D01*
X115258704Y-71604149D01*
X115576743Y-71472739D01*
X115820283Y-71229623D01*
X115952249Y-70911814D01*
X115952272Y-70884904D01*
X119200651Y-70884904D01*
X119332061Y-71202943D01*
X119575177Y-71446483D01*
X119892986Y-71578449D01*
X120237104Y-71578749D01*
X120555143Y-71447339D01*
X120798683Y-71204223D01*
X120930649Y-70886414D01*
X120930949Y-70542296D01*
X120799539Y-70224257D01*
X120556423Y-69980717D01*
X120238614Y-69848751D01*
X119894496Y-69848451D01*
X119576457Y-69979861D01*
X119332917Y-70222977D01*
X119200951Y-70540786D01*
X119200651Y-70884904D01*
X115952272Y-70884904D01*
X115952549Y-70567696D01*
X115821139Y-70249657D01*
X115578023Y-70006117D01*
X115260214Y-69874151D01*
X114916096Y-69873851D01*
X114598057Y-70005261D01*
X114354517Y-70248377D01*
X114222551Y-70566186D01*
X114222251Y-70910304D01*
X110796072Y-70910304D01*
X110796349Y-70593096D01*
X110664939Y-70275057D01*
X110421823Y-70031517D01*
X110104014Y-69899551D01*
X109759896Y-69899251D01*
X109441857Y-70030661D01*
X109198317Y-70273777D01*
X109066351Y-70591586D01*
X109066051Y-70935704D01*
X107933091Y-70935704D01*
X108122898Y-70746229D01*
X108254650Y-70428934D01*
X108254950Y-70085373D01*
X108123751Y-69767849D01*
X107881029Y-69524702D01*
X107563734Y-69392950D01*
X107220173Y-69392650D01*
X106902649Y-69523849D01*
X106659502Y-69766571D01*
X106527750Y-70083866D01*
X106527450Y-70427427D01*
X97332695Y-70427427D01*
X97332950Y-70136173D01*
X97201751Y-69818649D01*
X96959029Y-69575502D01*
X96641734Y-69443750D01*
X96298173Y-69443450D01*
X95980649Y-69574649D01*
X95737502Y-69817371D01*
X95605750Y-70134666D01*
X95605450Y-70478227D01*
X89204695Y-70478227D01*
X89204950Y-70186973D01*
X89073751Y-69869449D01*
X88831029Y-69626302D01*
X88513734Y-69494550D01*
X88170173Y-69494250D01*
X87852649Y-69625449D01*
X87609502Y-69868171D01*
X87477750Y-70185466D01*
X87477450Y-70529027D01*
X87606519Y-70841397D01*
X87598649Y-70844649D01*
X87355502Y-71087371D01*
X87223750Y-71404666D01*
X87223450Y-71748227D01*
X83260000Y-71748227D01*
X83260000Y-69309827D01*
X83972250Y-69309827D01*
X84103449Y-69627351D01*
X84346171Y-69870498D01*
X84663466Y-70002250D01*
X85007027Y-70002550D01*
X85324551Y-69871351D01*
X85567698Y-69628629D01*
X85699450Y-69311334D01*
X85699750Y-68967773D01*
X85631183Y-68801827D01*
X100685450Y-68801827D01*
X100816649Y-69119351D01*
X101059371Y-69362498D01*
X101376666Y-69494250D01*
X101720227Y-69494550D01*
X102037751Y-69363351D01*
X102280898Y-69120629D01*
X102412650Y-68803334D01*
X102412950Y-68459773D01*
X102281751Y-68142249D01*
X102103442Y-67963627D01*
X107772050Y-67963627D01*
X107903249Y-68281151D01*
X108145971Y-68524298D01*
X108463266Y-68656050D01*
X108806827Y-68656350D01*
X109124351Y-68525151D01*
X109367498Y-68282429D01*
X109499250Y-67965134D01*
X109499550Y-67621573D01*
X109368351Y-67304049D01*
X109125629Y-67060902D01*
X108808334Y-66929150D01*
X108464773Y-66928850D01*
X108147249Y-67060049D01*
X107904102Y-67302771D01*
X107772350Y-67620066D01*
X107772050Y-67963627D01*
X102103442Y-67963627D01*
X102039029Y-67899102D01*
X101721734Y-67767350D01*
X101378173Y-67767050D01*
X101060649Y-67898249D01*
X100817502Y-68140971D01*
X100685750Y-68458266D01*
X100685450Y-68801827D01*
X85631183Y-68801827D01*
X85568551Y-68650249D01*
X85325829Y-68407102D01*
X85008534Y-68275350D01*
X84664973Y-68275050D01*
X84347449Y-68406249D01*
X84104302Y-68648971D01*
X83972550Y-68966266D01*
X83972250Y-69309827D01*
X83260000Y-69309827D01*
X83260000Y-65331442D01*
X83524509Y-65331442D01*
X83955202Y-66373801D01*
X84752005Y-67171995D01*
X85793610Y-67604507D01*
X86921442Y-67605491D01*
X87714451Y-67277827D01*
X92455850Y-67277827D01*
X92587049Y-67595351D01*
X92829771Y-67838498D01*
X93147066Y-67970250D01*
X93490627Y-67970550D01*
X93808151Y-67839351D01*
X94051298Y-67596629D01*
X94183050Y-67279334D01*
X94183350Y-66935773D01*
X94052151Y-66618249D01*
X93809429Y-66375102D01*
X93492134Y-66243350D01*
X93148573Y-66243050D01*
X92831049Y-66374249D01*
X92587902Y-66616971D01*
X92456150Y-66934266D01*
X92455850Y-67277827D01*
X87714451Y-67277827D01*
X87963801Y-67174798D01*
X88761995Y-66377995D01*
X88893919Y-66060285D01*
X94321960Y-66060285D01*
X94532369Y-66569515D01*
X94921636Y-66959461D01*
X95430498Y-67170759D01*
X95981485Y-67171240D01*
X96490715Y-66960831D01*
X96880661Y-66571564D01*
X97091959Y-66062702D01*
X97092051Y-65957304D01*
X99210851Y-65957304D01*
X99342261Y-66275343D01*
X99585377Y-66518883D01*
X99841068Y-66625055D01*
X99587449Y-66729849D01*
X99344302Y-66972571D01*
X99212550Y-67289866D01*
X99212250Y-67633427D01*
X99343449Y-67950951D01*
X99586171Y-68194098D01*
X99903466Y-68325850D01*
X100247027Y-68326150D01*
X100564551Y-68194951D01*
X100807698Y-67952229D01*
X100939450Y-67634934D01*
X100939750Y-67291373D01*
X100808551Y-66973849D01*
X100565829Y-66730702D01*
X100310931Y-66624859D01*
X100565343Y-66519739D01*
X100808883Y-66276623D01*
X100940849Y-65958814D01*
X100940894Y-65906504D01*
X104214651Y-65906504D01*
X104346061Y-66224543D01*
X104589177Y-66468083D01*
X104906986Y-66600049D01*
X105251104Y-66600349D01*
X105569143Y-66468939D01*
X105812683Y-66225823D01*
X105924181Y-65957304D01*
X114222251Y-65957304D01*
X114353661Y-66275343D01*
X114596777Y-66518883D01*
X114914586Y-66650849D01*
X115258704Y-66651149D01*
X115576743Y-66519739D01*
X115820283Y-66276623D01*
X115952249Y-65958814D01*
X115952250Y-65957304D01*
X119175251Y-65957304D01*
X119306661Y-66275343D01*
X119549777Y-66518883D01*
X119867586Y-66650849D01*
X120211704Y-66651149D01*
X120529743Y-66519739D01*
X120773283Y-66276623D01*
X120905249Y-65958814D01*
X120905549Y-65614696D01*
X120774139Y-65296657D01*
X120531023Y-65053117D01*
X120213214Y-64921151D01*
X119869096Y-64920851D01*
X119551057Y-65052261D01*
X119307517Y-65295377D01*
X119175551Y-65613186D01*
X119175251Y-65957304D01*
X115952250Y-65957304D01*
X115952549Y-65614696D01*
X115821139Y-65296657D01*
X115578023Y-65053117D01*
X115260214Y-64921151D01*
X114916096Y-64920851D01*
X114598057Y-65052261D01*
X114354517Y-65295377D01*
X114222551Y-65613186D01*
X114222251Y-65957304D01*
X105924181Y-65957304D01*
X105944649Y-65908014D01*
X105944949Y-65563896D01*
X105813539Y-65245857D01*
X105570423Y-65002317D01*
X105252614Y-64870351D01*
X104908496Y-64870051D01*
X104590457Y-65001461D01*
X104346917Y-65244577D01*
X104214951Y-65562386D01*
X104214651Y-65906504D01*
X100940894Y-65906504D01*
X100941149Y-65614696D01*
X100809739Y-65296657D01*
X100566623Y-65053117D01*
X100248814Y-64921151D01*
X99904696Y-64920851D01*
X99586657Y-65052261D01*
X99343117Y-65295377D01*
X99211151Y-65613186D01*
X99210851Y-65957304D01*
X97092051Y-65957304D01*
X97092440Y-65511715D01*
X96882031Y-65002485D01*
X96492764Y-64612539D01*
X95983902Y-64401241D01*
X95432915Y-64400760D01*
X94923685Y-64611169D01*
X94533739Y-65000436D01*
X94322441Y-65509298D01*
X94321960Y-66060285D01*
X88893919Y-66060285D01*
X89194507Y-65336390D01*
X89195491Y-64208558D01*
X89094243Y-63963517D01*
X91460888Y-63963517D01*
X91528877Y-64204460D01*
X92047971Y-64389201D01*
X92598248Y-64361230D01*
X92976723Y-64204460D01*
X93044712Y-63963517D01*
X92252800Y-63171605D01*
X91460888Y-63963517D01*
X89094243Y-63963517D01*
X88764798Y-63166199D01*
X88386431Y-62787171D01*
X90855599Y-62787171D01*
X90883570Y-63337448D01*
X91040340Y-63715923D01*
X91281283Y-63783912D01*
X92073195Y-62992000D01*
X92432405Y-62992000D01*
X93224317Y-63783912D01*
X93465260Y-63715923D01*
X93650001Y-63196829D01*
X93622030Y-62646552D01*
X93465260Y-62268077D01*
X93224317Y-62200088D01*
X92432405Y-62992000D01*
X92073195Y-62992000D01*
X91281283Y-62200088D01*
X91040340Y-62268077D01*
X90855599Y-62787171D01*
X88386431Y-62787171D01*
X87967995Y-62368005D01*
X86926390Y-61935493D01*
X85798558Y-61934509D01*
X84756199Y-62365202D01*
X83958005Y-63162005D01*
X83525493Y-64203610D01*
X83524509Y-65331442D01*
X83260000Y-65331442D01*
X83260000Y-62969606D01*
X84559606Y-61670000D01*
X91793329Y-61670000D01*
X91528877Y-61779540D01*
X91528877Y-61779540D01*
G37*
X91528877Y-61779540D02*
X91460888Y-62020483D01*
X92252800Y-62812395D01*
X93044712Y-62020483D01*
X92976723Y-61779540D01*
X92668932Y-61670000D01*
X123720394Y-61670000D01*
X125603000Y-63552606D01*
X125603000Y-69890639D01*
X125318614Y-69772551D01*
X124974496Y-69772251D01*
X124656457Y-69903661D01*
X124412917Y-70146777D01*
X124280951Y-70464586D01*
X124280651Y-70808704D01*
X124412061Y-71126743D01*
X124655177Y-71370283D01*
X124972986Y-71502249D01*
X125317104Y-71502549D01*
X125603000Y-71384420D01*
X125603000Y-75148439D01*
X125318614Y-75030351D01*
X124974496Y-75030051D01*
X124656457Y-75161461D01*
X124412917Y-75404577D01*
X124280951Y-75722386D01*
X124280651Y-76066504D01*
X124412061Y-76384543D01*
X124655177Y-76628083D01*
X124972986Y-76760049D01*
X125317104Y-76760349D01*
X125603000Y-76642220D01*
X125603000Y-80018997D01*
X125394814Y-79932551D01*
X125050696Y-79932251D01*
X124732657Y-80063661D01*
X124489117Y-80306777D01*
X124357151Y-80624586D01*
X124356851Y-80968704D01*
X124488261Y-81286743D01*
X124731377Y-81530283D01*
X125049186Y-81662249D01*
X125393304Y-81662549D01*
X125603000Y-81575905D01*
X125603000Y-84971997D01*
X125394814Y-84885551D01*
X125050696Y-84885251D01*
X124732657Y-85016661D01*
X124489117Y-85259777D01*
X124357151Y-85577586D01*
X124356851Y-85921704D01*
X124488261Y-86239743D01*
X124731377Y-86483283D01*
X125049186Y-86615249D01*
X125393304Y-86615549D01*
X125603000Y-86528905D01*
X125603000Y-110461115D01*
X125547214Y-110437951D01*
X125203096Y-110437651D01*
X124885057Y-110569061D01*
X124641517Y-110812177D01*
X124509551Y-111129986D01*
X124509251Y-111474104D01*
X124640661Y-111792143D01*
X124883777Y-112035683D01*
X125160009Y-112150385D01*
X123720394Y-113590000D01*
X84559606Y-113590000D01*
X83260000Y-112290394D01*
X83260000Y-111178442D01*
X83524509Y-111178442D01*
X83955202Y-112220801D01*
X84752005Y-113018995D01*
X85793610Y-113451507D01*
X86921442Y-113452491D01*
X87963801Y-113021798D01*
X88761995Y-112224995D01*
X89194507Y-111183390D01*
X89194763Y-110889904D01*
X99134651Y-110889904D01*
X99266061Y-111207943D01*
X99509177Y-111451483D01*
X99826986Y-111583449D01*
X100171104Y-111583749D01*
X100252047Y-111550304D01*
X109167651Y-111550304D01*
X109299061Y-111868343D01*
X109542177Y-112111883D01*
X109859986Y-112243849D01*
X110204104Y-112244149D01*
X110522143Y-112112739D01*
X110765683Y-111869623D01*
X110897649Y-111551814D01*
X110897738Y-111448704D01*
X114247651Y-111448704D01*
X114379061Y-111766743D01*
X114622177Y-112010283D01*
X114939986Y-112142249D01*
X115284104Y-112142549D01*
X115602143Y-112011139D01*
X115845683Y-111768023D01*
X115957181Y-111499504D01*
X119327651Y-111499504D01*
X119459061Y-111817543D01*
X119702177Y-112061083D01*
X120019986Y-112193049D01*
X120364104Y-112193349D01*
X120682143Y-112061939D01*
X120925683Y-111818823D01*
X121057649Y-111501014D01*
X121057949Y-111156896D01*
X120926539Y-110838857D01*
X120683423Y-110595317D01*
X120365614Y-110463351D01*
X120021496Y-110463051D01*
X119703457Y-110594461D01*
X119459917Y-110837577D01*
X119327951Y-111155386D01*
X119327651Y-111499504D01*
X115957181Y-111499504D01*
X115977649Y-111450214D01*
X115977949Y-111106096D01*
X115846539Y-110788057D01*
X115603423Y-110544517D01*
X115285614Y-110412551D01*
X114941496Y-110412251D01*
X114623457Y-110543661D01*
X114379917Y-110786777D01*
X114247951Y-111104586D01*
X114247651Y-111448704D01*
X110897738Y-111448704D01*
X110897949Y-111207696D01*
X110766539Y-110889657D01*
X110523423Y-110646117D01*
X110205614Y-110514151D01*
X109861496Y-110513851D01*
X109543457Y-110645261D01*
X109299917Y-110888377D01*
X109167951Y-111206186D01*
X109167651Y-111550304D01*
X100252047Y-111550304D01*
X100489143Y-111452339D01*
X100732683Y-111209223D01*
X100864649Y-110891414D01*
X100864761Y-110762904D01*
X104113051Y-110762904D01*
X104244461Y-111080943D01*
X104487577Y-111324483D01*
X104805386Y-111456449D01*
X105149504Y-111456749D01*
X105467543Y-111325339D01*
X105711083Y-111082223D01*
X105843049Y-110764414D01*
X105843349Y-110420296D01*
X105711939Y-110102257D01*
X105468823Y-109858717D01*
X105151014Y-109726751D01*
X104806896Y-109726451D01*
X104488857Y-109857861D01*
X104245317Y-110100977D01*
X104113351Y-110418786D01*
X104113051Y-110762904D01*
X100864761Y-110762904D01*
X100864949Y-110547296D01*
X100733539Y-110229257D01*
X100490423Y-109985717D01*
X100172614Y-109853751D01*
X99828496Y-109853451D01*
X99510457Y-109984861D01*
X99266917Y-110227977D01*
X99134951Y-110545786D01*
X99134651Y-110889904D01*
X89194763Y-110889904D01*
X89195491Y-110055558D01*
X88764798Y-109013199D01*
X87967995Y-108215005D01*
X86926390Y-107782493D01*
X85798558Y-107781509D01*
X84756199Y-108212202D01*
X83958005Y-109009005D01*
X83525493Y-110050610D01*
X83524509Y-111178442D01*
X83260000Y-111178442D01*
X83260000Y-105860704D01*
X84097851Y-105860704D01*
X84229261Y-106178743D01*
X84472377Y-106422283D01*
X84790186Y-106554249D01*
X85134304Y-106554549D01*
X85452343Y-106423139D01*
X85695883Y-106180023D01*
X85786287Y-105962304D01*
X89228651Y-105962304D01*
X89360061Y-106280343D01*
X89603177Y-106523883D01*
X89920986Y-106655849D01*
X90265104Y-106656149D01*
X90583143Y-106524739D01*
X90826683Y-106281623D01*
X90958649Y-105963814D01*
X90958694Y-105911504D01*
X94029251Y-105911504D01*
X94160661Y-106229543D01*
X94403777Y-106473083D01*
X94721586Y-106605049D01*
X95065704Y-106605349D01*
X95383743Y-106473939D01*
X95627283Y-106230823D01*
X95759249Y-105913014D01*
X95759294Y-105860704D01*
X99185451Y-105860704D01*
X99316861Y-106178743D01*
X99559977Y-106422283D01*
X99877786Y-106554249D01*
X100221904Y-106554549D01*
X100539943Y-106423139D01*
X100783483Y-106180023D01*
X100915449Y-105862214D01*
X100915749Y-105518096D01*
X100784339Y-105200057D01*
X100541223Y-104956517D01*
X100223414Y-104824551D01*
X99879296Y-104824251D01*
X99561257Y-104955661D01*
X99317717Y-105198777D01*
X99185751Y-105516586D01*
X99185451Y-105860704D01*
X95759294Y-105860704D01*
X95759549Y-105568896D01*
X95628139Y-105250857D01*
X95385023Y-105007317D01*
X95067214Y-104875351D01*
X94723096Y-104875051D01*
X94405057Y-105006461D01*
X94161517Y-105249577D01*
X94029551Y-105567386D01*
X94029251Y-105911504D01*
X90958694Y-105911504D01*
X90958949Y-105619696D01*
X90827539Y-105301657D01*
X90584423Y-105058117D01*
X90266614Y-104926151D01*
X89922496Y-104925851D01*
X89604457Y-105057261D01*
X89360917Y-105300377D01*
X89228951Y-105618186D01*
X89228651Y-105962304D01*
X85786287Y-105962304D01*
X85827849Y-105862214D01*
X85828149Y-105518096D01*
X85696739Y-105200057D01*
X85453623Y-104956517D01*
X85135814Y-104824551D01*
X84791696Y-104824251D01*
X84473657Y-104955661D01*
X84230117Y-105198777D01*
X84098151Y-105516586D01*
X84097851Y-105860704D01*
X83260000Y-105860704D01*
X83260000Y-104109485D01*
X114032360Y-104109485D01*
X114242769Y-104618715D01*
X114632036Y-105008661D01*
X115140898Y-105219959D01*
X115691885Y-105220440D01*
X116201115Y-105010031D01*
X116591061Y-104620764D01*
X116802359Y-104111902D01*
X116802840Y-103560915D01*
X116592431Y-103051685D01*
X116203164Y-102661739D01*
X115694302Y-102450441D01*
X115143315Y-102449960D01*
X114634085Y-102660369D01*
X114244139Y-103049636D01*
X114032841Y-103558498D01*
X114032360Y-104109485D01*
X83260000Y-104109485D01*
X83260000Y-103244227D01*
X103123850Y-103244227D01*
X103255049Y-103561751D01*
X103497771Y-103804898D01*
X103815066Y-103936650D01*
X104158627Y-103936950D01*
X104476151Y-103805751D01*
X104719298Y-103563029D01*
X104851050Y-103245734D01*
X104851051Y-103244227D01*
X109829450Y-103244227D01*
X109960649Y-103561751D01*
X110203371Y-103804898D01*
X110520666Y-103936650D01*
X110864227Y-103936950D01*
X111181751Y-103805751D01*
X111424898Y-103563029D01*
X111556650Y-103245734D01*
X111556950Y-102902173D01*
X111425751Y-102584649D01*
X111183029Y-102341502D01*
X111032573Y-102279027D01*
X116839850Y-102279027D01*
X116971049Y-102596551D01*
X117213771Y-102839698D01*
X117531066Y-102971450D01*
X117874627Y-102971750D01*
X118192151Y-102840551D01*
X118435298Y-102597829D01*
X118567050Y-102280534D01*
X118567350Y-101936973D01*
X118436151Y-101619449D01*
X118193429Y-101376302D01*
X118042973Y-101313827D01*
X121208650Y-101313827D01*
X121339849Y-101631351D01*
X121582571Y-101874498D01*
X121899866Y-102006250D01*
X122243427Y-102006550D01*
X122560951Y-101875351D01*
X122804098Y-101632629D01*
X122935850Y-101315334D01*
X122936150Y-100971773D01*
X122804951Y-100654249D01*
X122562229Y-100411102D01*
X122244934Y-100279350D01*
X121901373Y-100279050D01*
X121583849Y-100410249D01*
X121340702Y-100652971D01*
X121208950Y-100970266D01*
X121208650Y-101313827D01*
X118042973Y-101313827D01*
X117876134Y-101244550D01*
X117532573Y-101244250D01*
X117215049Y-101375449D01*
X116971902Y-101618171D01*
X116840150Y-101935466D01*
X116839850Y-102279027D01*
X111032573Y-102279027D01*
X110865734Y-102209750D01*
X110522173Y-102209450D01*
X110204649Y-102340649D01*
X109961502Y-102583371D01*
X109829750Y-102900666D01*
X109829450Y-103244227D01*
X104851051Y-103244227D01*
X104851350Y-102902173D01*
X104720151Y-102584649D01*
X104477429Y-102341502D01*
X104160134Y-102209750D01*
X103816573Y-102209450D01*
X103499049Y-102340649D01*
X103255902Y-102583371D01*
X103124150Y-102900666D01*
X103123850Y-103244227D01*
X83260000Y-103244227D01*
X83260000Y-101618627D01*
X93624250Y-101618627D01*
X93755449Y-101936151D01*
X93998171Y-102179298D01*
X94315466Y-102311050D01*
X94659027Y-102311350D01*
X94976551Y-102180151D01*
X95219698Y-101937429D01*
X95288793Y-101771027D01*
X105917850Y-101771027D01*
X106049049Y-102088551D01*
X106291771Y-102331698D01*
X106609066Y-102463450D01*
X106952627Y-102463750D01*
X107270151Y-102332551D01*
X107513298Y-102089829D01*
X107645050Y-101772534D01*
X107645350Y-101428973D01*
X107514151Y-101111449D01*
X107271429Y-100868302D01*
X106954134Y-100736550D01*
X106610573Y-100736250D01*
X106293049Y-100867449D01*
X106049902Y-101110171D01*
X105918150Y-101427466D01*
X105917850Y-101771027D01*
X95288793Y-101771027D01*
X95351450Y-101620134D01*
X95351750Y-101276573D01*
X95220551Y-100959049D01*
X94977829Y-100715902D01*
X94660534Y-100584150D01*
X94316973Y-100583850D01*
X93999449Y-100715049D01*
X93756302Y-100957771D01*
X93624550Y-101275066D01*
X93624250Y-101618627D01*
X83260000Y-101618627D01*
X83260000Y-99639085D01*
X93966360Y-99639085D01*
X94176769Y-100148315D01*
X94566036Y-100538261D01*
X95074898Y-100749559D01*
X95625885Y-100750040D01*
X96135115Y-100539631D01*
X96525061Y-100150364D01*
X96736359Y-99641502D01*
X96736406Y-99586627D01*
X99974250Y-99586627D01*
X100105449Y-99904151D01*
X100348171Y-100147298D01*
X100665466Y-100279050D01*
X101009027Y-100279350D01*
X101326551Y-100148151D01*
X101569698Y-99905429D01*
X101701450Y-99588134D01*
X101701732Y-99265449D01*
X101821371Y-99385298D01*
X102138666Y-99517050D01*
X102482227Y-99517350D01*
X102799751Y-99386151D01*
X102941306Y-99244844D01*
X102920950Y-99293866D01*
X102920650Y-99637427D01*
X103051849Y-99954951D01*
X103294571Y-100198098D01*
X103611866Y-100329850D01*
X103955427Y-100330150D01*
X104272951Y-100198951D01*
X104516098Y-99956229D01*
X104647850Y-99638934D01*
X104648150Y-99295373D01*
X104516951Y-98977849D01*
X104274229Y-98734702D01*
X103956934Y-98602950D01*
X103613373Y-98602650D01*
X103295849Y-98733849D01*
X103154294Y-98875156D01*
X103174650Y-98826134D01*
X103174950Y-98482573D01*
X103043751Y-98165049D01*
X102801029Y-97921902D01*
X102551590Y-97818326D01*
X102484951Y-97657049D01*
X102242229Y-97413902D01*
X101924934Y-97282150D01*
X101581373Y-97281850D01*
X101263849Y-97413049D01*
X101020702Y-97655771D01*
X100888950Y-97973066D01*
X100888650Y-98316627D01*
X100985958Y-98552129D01*
X100666973Y-98551850D01*
X100349449Y-98683049D01*
X100106302Y-98925771D01*
X99974550Y-99243066D01*
X99974250Y-99586627D01*
X96736406Y-99586627D01*
X96736840Y-99090515D01*
X96526431Y-98581285D01*
X96137164Y-98191339D01*
X95628302Y-97980041D01*
X95077315Y-97979560D01*
X94568085Y-98189969D01*
X94178139Y-98579236D01*
X93966841Y-99088098D01*
X93966360Y-99639085D01*
X83260000Y-99639085D01*
X83260000Y-98786666D01*
X83558030Y-98985803D01*
X83992376Y-99072200D01*
X84597624Y-99072200D01*
X85031970Y-98985803D01*
X85400190Y-98739766D01*
X85646227Y-98371546D01*
X85732624Y-97937200D01*
X85646227Y-97502854D01*
X85400190Y-97134634D01*
X85031970Y-96888597D01*
X84597624Y-96802200D01*
X83992376Y-96802200D01*
X83558030Y-96888597D01*
X83260000Y-97087734D01*
X83260000Y-95878227D01*
X84683450Y-95878227D01*
X84814649Y-96195751D01*
X85057371Y-96438898D01*
X85374666Y-96570650D01*
X85718227Y-96570950D01*
X85941451Y-96478715D01*
X85885000Y-96762515D01*
X85885000Y-97111885D01*
X85969494Y-97536664D01*
X86210111Y-97896774D01*
X86570221Y-98137391D01*
X86995000Y-98221885D01*
X87419779Y-98137391D01*
X87779889Y-97896774D01*
X88020506Y-97536664D01*
X88105000Y-97111885D01*
X88105000Y-96843427D01*
X96773850Y-96843427D01*
X96905049Y-97160951D01*
X97147771Y-97404098D01*
X97465066Y-97535850D01*
X97808627Y-97536150D01*
X98043951Y-97438916D01*
X98043850Y-97554627D01*
X98175049Y-97872151D01*
X98417771Y-98115298D01*
X98735066Y-98247050D01*
X99078627Y-98247350D01*
X99396151Y-98116151D01*
X99639298Y-97873429D01*
X99771050Y-97556134D01*
X99771350Y-97212573D01*
X99640151Y-96895049D01*
X99461842Y-96716427D01*
X105308250Y-96716427D01*
X105439449Y-97033951D01*
X105623696Y-97218520D01*
X105541902Y-97300171D01*
X105410150Y-97617466D01*
X105409850Y-97961027D01*
X105541049Y-98278551D01*
X105783771Y-98521698D01*
X106101066Y-98653450D01*
X106444627Y-98653750D01*
X106762151Y-98522551D01*
X107005298Y-98279829D01*
X107137050Y-97962534D01*
X107137184Y-97808627D01*
X110235850Y-97808627D01*
X110367049Y-98126151D01*
X110609771Y-98369298D01*
X110927066Y-98501050D01*
X111270627Y-98501350D01*
X111588151Y-98370151D01*
X111831298Y-98127429D01*
X111942581Y-97859427D01*
X118516250Y-97859427D01*
X118647449Y-98176951D01*
X118890171Y-98420098D01*
X119207466Y-98551850D01*
X119551027Y-98552150D01*
X119859948Y-98424506D01*
X119956971Y-98521698D01*
X120274266Y-98653450D01*
X120617827Y-98653750D01*
X120935351Y-98522551D01*
X121178498Y-98279829D01*
X121310250Y-97962534D01*
X121310550Y-97618973D01*
X121179351Y-97301449D01*
X120936629Y-97058302D01*
X120619334Y-96926550D01*
X120275773Y-96926250D01*
X119966852Y-97053894D01*
X119869829Y-96956702D01*
X119552534Y-96824950D01*
X119208973Y-96824650D01*
X118891449Y-96955849D01*
X118648302Y-97198571D01*
X118516550Y-97515866D01*
X118516250Y-97859427D01*
X111942581Y-97859427D01*
X111963050Y-97810134D01*
X111963350Y-97466573D01*
X111832151Y-97149049D01*
X111589429Y-96905902D01*
X111316632Y-96792627D01*
X114604650Y-96792627D01*
X114735849Y-97110151D01*
X114978571Y-97353298D01*
X115295866Y-97485050D01*
X115639427Y-97485350D01*
X115956951Y-97354151D01*
X116200098Y-97111429D01*
X116331850Y-96794134D01*
X116332150Y-96450573D01*
X116200951Y-96133049D01*
X115958229Y-95889902D01*
X115640934Y-95758150D01*
X115297373Y-95757850D01*
X114979849Y-95889049D01*
X114736702Y-96131771D01*
X114604950Y-96449066D01*
X114604650Y-96792627D01*
X111316632Y-96792627D01*
X111272134Y-96774150D01*
X110928573Y-96773850D01*
X110611049Y-96905049D01*
X110367902Y-97147771D01*
X110236150Y-97465066D01*
X110235850Y-97808627D01*
X107137184Y-97808627D01*
X107137350Y-97618973D01*
X107006151Y-97301449D01*
X106821904Y-97116880D01*
X106903698Y-97035229D01*
X107035450Y-96717934D01*
X107035750Y-96374373D01*
X106904551Y-96056849D01*
X106661829Y-95813702D01*
X106344534Y-95681950D01*
X106000973Y-95681650D01*
X105683449Y-95812849D01*
X105440302Y-96055571D01*
X105308550Y-96372866D01*
X105308250Y-96716427D01*
X99461842Y-96716427D01*
X99397429Y-96651902D01*
X99080134Y-96520150D01*
X98736573Y-96519850D01*
X98501249Y-96617084D01*
X98501289Y-96570934D01*
X98519827Y-96570950D01*
X98837351Y-96439751D01*
X99080498Y-96197029D01*
X99212250Y-95879734D01*
X99212295Y-95827427D01*
X100939450Y-95827427D01*
X101070649Y-96144951D01*
X101313371Y-96388098D01*
X101630666Y-96519850D01*
X101974227Y-96520150D01*
X102291751Y-96388951D01*
X102534898Y-96146229D01*
X102666650Y-95828934D01*
X102666950Y-95485373D01*
X102598383Y-95319427D01*
X109880250Y-95319427D01*
X110011449Y-95636951D01*
X110254171Y-95880098D01*
X110571466Y-96011850D01*
X110915027Y-96012150D01*
X111232551Y-95880951D01*
X111475698Y-95638229D01*
X111607450Y-95320934D01*
X111607673Y-95065427D01*
X112521850Y-95065427D01*
X112653049Y-95382951D01*
X112895771Y-95626098D01*
X113213066Y-95757850D01*
X113556627Y-95758150D01*
X113874151Y-95626951D01*
X114117298Y-95384229D01*
X114249050Y-95066934D01*
X114249350Y-94723373D01*
X114118151Y-94405849D01*
X114015909Y-94303427D01*
X114604650Y-94303427D01*
X114735849Y-94620951D01*
X114978571Y-94864098D01*
X115295866Y-94995850D01*
X115639427Y-94996150D01*
X115956951Y-94864951D01*
X116200098Y-94622229D01*
X116331850Y-94304934D01*
X116332150Y-93961373D01*
X116200951Y-93643849D01*
X115958229Y-93400702D01*
X115640934Y-93268950D01*
X115297373Y-93268650D01*
X114979849Y-93399849D01*
X114736702Y-93642571D01*
X114604950Y-93959866D01*
X114604650Y-94303427D01*
X114015909Y-94303427D01*
X113875429Y-94162702D01*
X113558134Y-94030950D01*
X113214573Y-94030650D01*
X112897049Y-94161849D01*
X112653902Y-94404571D01*
X112522150Y-94721866D01*
X112521850Y-95065427D01*
X111607673Y-95065427D01*
X111607750Y-94977373D01*
X111476551Y-94659849D01*
X111233829Y-94416702D01*
X110916534Y-94284950D01*
X110572973Y-94284650D01*
X110255449Y-94415849D01*
X110012302Y-94658571D01*
X109880550Y-94975866D01*
X109880250Y-95319427D01*
X102598383Y-95319427D01*
X102535751Y-95167849D01*
X102293029Y-94924702D01*
X101975734Y-94792950D01*
X101632173Y-94792650D01*
X101314649Y-94923849D01*
X101071502Y-95166571D01*
X100939750Y-95483866D01*
X100939450Y-95827427D01*
X99212295Y-95827427D01*
X99212550Y-95536173D01*
X99081351Y-95218649D01*
X98838629Y-94975502D01*
X98521334Y-94843750D01*
X98177773Y-94843450D01*
X97860249Y-94974649D01*
X97617102Y-95217371D01*
X97485350Y-95534666D01*
X97485111Y-95808666D01*
X97466573Y-95808650D01*
X97149049Y-95939849D01*
X96905902Y-96182571D01*
X96774150Y-96499866D01*
X96773850Y-96843427D01*
X88105000Y-96843427D01*
X88105000Y-96762515D01*
X88020506Y-96337736D01*
X87779889Y-95977626D01*
X87419779Y-95737009D01*
X86995000Y-95652515D01*
X86570221Y-95737009D01*
X86410682Y-95843609D01*
X86410950Y-95536173D01*
X86279751Y-95218649D01*
X86037029Y-94975502D01*
X85719734Y-94843750D01*
X85376173Y-94843450D01*
X85058649Y-94974649D01*
X84815502Y-95217371D01*
X84683750Y-95534666D01*
X84683450Y-95878227D01*
X83260000Y-95878227D01*
X83260000Y-94201827D01*
X89103050Y-94201827D01*
X89234249Y-94519351D01*
X89476971Y-94762498D01*
X89794266Y-94894250D01*
X90137827Y-94894550D01*
X90455351Y-94763351D01*
X90698498Y-94520629D01*
X90830250Y-94203334D01*
X90830550Y-93859773D01*
X90699351Y-93542249D01*
X90456629Y-93299102D01*
X90139334Y-93167350D01*
X89795773Y-93167050D01*
X89478249Y-93298249D01*
X89235102Y-93540971D01*
X89103350Y-93858266D01*
X89103050Y-94201827D01*
X83260000Y-94201827D01*
X83260000Y-91786666D01*
X83558030Y-91985803D01*
X83992376Y-92072200D01*
X84597624Y-92072200D01*
X85031970Y-91985803D01*
X85366143Y-91762515D01*
X85885000Y-91762515D01*
X85885000Y-92111885D01*
X85969494Y-92536664D01*
X86210111Y-92896774D01*
X86570221Y-93137391D01*
X86995000Y-93221885D01*
X87419779Y-93137391D01*
X87779889Y-92896774D01*
X87824354Y-92830227D01*
X96824650Y-92830227D01*
X96955849Y-93147751D01*
X97198571Y-93390898D01*
X97515866Y-93522650D01*
X97859427Y-93522950D01*
X98176951Y-93391751D01*
X98179679Y-93389027D01*
X100990250Y-93389027D01*
X101121449Y-93706551D01*
X101364171Y-93949698D01*
X101501614Y-94006769D01*
X101629449Y-94316151D01*
X101872171Y-94559298D01*
X102189466Y-94691050D01*
X102533027Y-94691350D01*
X102850551Y-94560151D01*
X103093698Y-94317429D01*
X103225450Y-94000134D01*
X103225750Y-93656573D01*
X103094551Y-93339049D01*
X102851829Y-93095902D01*
X102714386Y-93038831D01*
X102586551Y-92729449D01*
X102343829Y-92486302D01*
X102026534Y-92354550D01*
X101682973Y-92354250D01*
X101365449Y-92485449D01*
X101122302Y-92728171D01*
X100990550Y-93045466D01*
X100990250Y-93389027D01*
X98179679Y-93389027D01*
X98420098Y-93149029D01*
X98551850Y-92831734D01*
X98552150Y-92488173D01*
X98420951Y-92170649D01*
X98178229Y-91927502D01*
X97905432Y-91814227D01*
X112572650Y-91814227D01*
X112703849Y-92131751D01*
X112946571Y-92374898D01*
X113263866Y-92506650D01*
X113607427Y-92506950D01*
X113924951Y-92375751D01*
X114168098Y-92133029D01*
X114299850Y-91815734D01*
X114300150Y-91472173D01*
X114168951Y-91154649D01*
X113926229Y-90911502D01*
X113654099Y-90798504D01*
X114323851Y-90798504D01*
X114455261Y-91116543D01*
X114698377Y-91360083D01*
X115016186Y-91492049D01*
X115360304Y-91492349D01*
X115678343Y-91360939D01*
X115921883Y-91117823D01*
X116053849Y-90800014D01*
X116054005Y-90620704D01*
X119149851Y-90620704D01*
X119281261Y-90938743D01*
X119524377Y-91182283D01*
X119842186Y-91314249D01*
X120186304Y-91314549D01*
X120504343Y-91183139D01*
X120747883Y-90940023D01*
X120879849Y-90622214D01*
X120880149Y-90278096D01*
X120748739Y-89960057D01*
X120505623Y-89716517D01*
X120187814Y-89584551D01*
X119843696Y-89584251D01*
X119525657Y-89715661D01*
X119282117Y-89958777D01*
X119150151Y-90276586D01*
X119149851Y-90620704D01*
X116054005Y-90620704D01*
X116054149Y-90455896D01*
X115922739Y-90137857D01*
X115679623Y-89894317D01*
X115361814Y-89762351D01*
X115017696Y-89762051D01*
X114699657Y-89893461D01*
X114456117Y-90136577D01*
X114324151Y-90454386D01*
X114323851Y-90798504D01*
X113654099Y-90798504D01*
X113608934Y-90779750D01*
X113265373Y-90779450D01*
X112947849Y-90910649D01*
X112704702Y-91153371D01*
X112572950Y-91470666D01*
X112572650Y-91814227D01*
X97905432Y-91814227D01*
X97860934Y-91795750D01*
X97517373Y-91795450D01*
X97199849Y-91926649D01*
X96956702Y-92169371D01*
X96824950Y-92486666D01*
X96824650Y-92830227D01*
X87824354Y-92830227D01*
X88020506Y-92536664D01*
X88105000Y-92111885D01*
X88105000Y-91762515D01*
X88020506Y-91337736D01*
X87999453Y-91306227D01*
X90931850Y-91306227D01*
X91063049Y-91623751D01*
X91305771Y-91866898D01*
X91623066Y-91998650D01*
X91966627Y-91998950D01*
X92284151Y-91867751D01*
X92527298Y-91625029D01*
X92659050Y-91307734D01*
X92659273Y-91052227D01*
X96621450Y-91052227D01*
X96752649Y-91369751D01*
X96995371Y-91612898D01*
X97312666Y-91744650D01*
X97656227Y-91744950D01*
X97973751Y-91613751D01*
X98216898Y-91371029D01*
X98348650Y-91053734D01*
X98348828Y-90849027D01*
X99872650Y-90849027D01*
X100003849Y-91166551D01*
X100246571Y-91409698D01*
X100563866Y-91541450D01*
X100907427Y-91541750D01*
X101224951Y-91410551D01*
X101468098Y-91167829D01*
X101495006Y-91103027D01*
X106883050Y-91103027D01*
X107014249Y-91420551D01*
X107256971Y-91663698D01*
X107574266Y-91795450D01*
X107917827Y-91795750D01*
X108204312Y-91677376D01*
X108488666Y-91795450D01*
X108832227Y-91795750D01*
X109149751Y-91664551D01*
X109392898Y-91421829D01*
X109524650Y-91104534D01*
X109524653Y-91101127D01*
X109759351Y-91004151D01*
X110002498Y-90761429D01*
X110134250Y-90444134D01*
X110134550Y-90100573D01*
X110003351Y-89783049D01*
X109760629Y-89539902D01*
X109443334Y-89408150D01*
X109099773Y-89407850D01*
X108782249Y-89539049D01*
X108539102Y-89781771D01*
X108407350Y-90099066D01*
X108407347Y-90102473D01*
X108203688Y-90186624D01*
X107919334Y-90068550D01*
X107575773Y-90068250D01*
X107258249Y-90199449D01*
X107015102Y-90442171D01*
X106883350Y-90759466D01*
X106883050Y-91103027D01*
X101495006Y-91103027D01*
X101599850Y-90850534D01*
X101600150Y-90506973D01*
X101468951Y-90189449D01*
X101226229Y-89946302D01*
X100908934Y-89814550D01*
X100565373Y-89814250D01*
X100247849Y-89945449D01*
X100004702Y-90188171D01*
X99872950Y-90505466D01*
X99872650Y-90849027D01*
X98348828Y-90849027D01*
X98348950Y-90710173D01*
X98217751Y-90392649D01*
X97975029Y-90149502D01*
X97657734Y-90017750D01*
X97314173Y-90017450D01*
X96996649Y-90148649D01*
X96753502Y-90391371D01*
X96621750Y-90708666D01*
X96621450Y-91052227D01*
X92659273Y-91052227D01*
X92659350Y-90964173D01*
X92528151Y-90646649D01*
X92285429Y-90403502D01*
X91968134Y-90271750D01*
X91624573Y-90271450D01*
X91307049Y-90402649D01*
X91063902Y-90645371D01*
X90932150Y-90962666D01*
X90931850Y-91306227D01*
X87999453Y-91306227D01*
X87779889Y-90977626D01*
X87419779Y-90737009D01*
X86995000Y-90652515D01*
X86570221Y-90737009D01*
X86210111Y-90977626D01*
X85969494Y-91337736D01*
X85885000Y-91762515D01*
X85366143Y-91762515D01*
X85400190Y-91739766D01*
X85646227Y-91371546D01*
X85732624Y-90937200D01*
X85646227Y-90502854D01*
X85400190Y-90134634D01*
X85031970Y-89888597D01*
X84597624Y-89802200D01*
X83992376Y-89802200D01*
X83558030Y-89888597D01*
X83260000Y-90087734D01*
X83260000Y-89020227D01*
X85293050Y-89020227D01*
X85424249Y-89337751D01*
X85666971Y-89580898D01*
X85984266Y-89712650D01*
X86327827Y-89712950D01*
X86645351Y-89581751D01*
X86888498Y-89339029D01*
X87020250Y-89021734D01*
X87020550Y-88678173D01*
X86889351Y-88360649D01*
X86646629Y-88117502D01*
X86329334Y-87985750D01*
X85985773Y-87985450D01*
X85668249Y-88116649D01*
X85425102Y-88359371D01*
X85293350Y-88676666D01*
X85293050Y-89020227D01*
X83260000Y-89020227D01*
X83260000Y-87650285D01*
X86549560Y-87650285D01*
X86759969Y-88159515D01*
X87149236Y-88549461D01*
X87658098Y-88760759D01*
X88209085Y-88761240D01*
X88718315Y-88550831D01*
X89108261Y-88161564D01*
X89131405Y-88105827D01*
X101549050Y-88105827D01*
X101680249Y-88423351D01*
X101922971Y-88666498D01*
X102240266Y-88798250D01*
X102583827Y-88798550D01*
X102901351Y-88667351D01*
X103144498Y-88424629D01*
X103276250Y-88107334D01*
X103276550Y-87763773D01*
X103145351Y-87446249D01*
X102902629Y-87203102D01*
X102585334Y-87071350D01*
X102241773Y-87071050D01*
X101924249Y-87202249D01*
X101681102Y-87444971D01*
X101549350Y-87762266D01*
X101549050Y-88105827D01*
X89131405Y-88105827D01*
X89319559Y-87652702D01*
X89319784Y-87394627D01*
X97434250Y-87394627D01*
X97565449Y-87712151D01*
X97808171Y-87955298D01*
X98125466Y-88087050D01*
X98469027Y-88087350D01*
X98786551Y-87956151D01*
X99029698Y-87713429D01*
X99161450Y-87396134D01*
X99161750Y-87052573D01*
X99093183Y-86886627D01*
X106425850Y-86886627D01*
X106557049Y-87204151D01*
X106799771Y-87447298D01*
X107117066Y-87579050D01*
X107460627Y-87579350D01*
X107778151Y-87448151D01*
X108021298Y-87205429D01*
X108153050Y-86888134D01*
X108153095Y-86835827D01*
X108356250Y-86835827D01*
X108487449Y-87153351D01*
X108730171Y-87396498D01*
X109047466Y-87528250D01*
X109391027Y-87528550D01*
X109708551Y-87397351D01*
X109914835Y-87191427D01*
X110286650Y-87191427D01*
X110417849Y-87508951D01*
X110660571Y-87752098D01*
X110977866Y-87883850D01*
X111321427Y-87884150D01*
X111638951Y-87752951D01*
X111836331Y-87555916D01*
X112032171Y-87752098D01*
X112349466Y-87883850D01*
X112693027Y-87884150D01*
X113010551Y-87752951D01*
X113253698Y-87510229D01*
X113385450Y-87192934D01*
X113385750Y-86849373D01*
X113254551Y-86531849D01*
X113011829Y-86288702D01*
X112694534Y-86156950D01*
X112350973Y-86156650D01*
X112033449Y-86287849D01*
X111836069Y-86484884D01*
X111640229Y-86288702D01*
X111322934Y-86156950D01*
X110979373Y-86156650D01*
X110661849Y-86287849D01*
X110418702Y-86530571D01*
X110286950Y-86847866D01*
X110286650Y-87191427D01*
X109914835Y-87191427D01*
X109951698Y-87154629D01*
X110083450Y-86837334D01*
X110083750Y-86493773D01*
X109952551Y-86176249D01*
X109774518Y-85997904D01*
X114171451Y-85997904D01*
X114302861Y-86315943D01*
X114545977Y-86559483D01*
X114863786Y-86691449D01*
X115207904Y-86691749D01*
X115525943Y-86560339D01*
X115769483Y-86317223D01*
X115901449Y-85999414D01*
X115901472Y-85972504D01*
X119099051Y-85972504D01*
X119230461Y-86290543D01*
X119473577Y-86534083D01*
X119791386Y-86666049D01*
X120135504Y-86666349D01*
X120453543Y-86534939D01*
X120697083Y-86291823D01*
X120829049Y-85974014D01*
X120829349Y-85629896D01*
X120697939Y-85311857D01*
X120454823Y-85068317D01*
X120137014Y-84936351D01*
X119792896Y-84936051D01*
X119474857Y-85067461D01*
X119231317Y-85310577D01*
X119099351Y-85628386D01*
X119099051Y-85972504D01*
X115901472Y-85972504D01*
X115901749Y-85655296D01*
X115770339Y-85337257D01*
X115527223Y-85093717D01*
X115209414Y-84961751D01*
X114865296Y-84961451D01*
X114547257Y-85092861D01*
X114303717Y-85335977D01*
X114171751Y-85653786D01*
X114171451Y-85997904D01*
X109774518Y-85997904D01*
X109709829Y-85933102D01*
X109392534Y-85801350D01*
X109048973Y-85801050D01*
X108731449Y-85932249D01*
X108488302Y-86174971D01*
X108356550Y-86492266D01*
X108356250Y-86835827D01*
X108153095Y-86835827D01*
X108153350Y-86544573D01*
X108022151Y-86227049D01*
X107779429Y-85983902D01*
X107462134Y-85852150D01*
X107118573Y-85851850D01*
X106801049Y-85983049D01*
X106557902Y-86225771D01*
X106426150Y-86543066D01*
X106425850Y-86886627D01*
X99093183Y-86886627D01*
X99030551Y-86735049D01*
X98787829Y-86491902D01*
X98470534Y-86360150D01*
X98126973Y-86359850D01*
X97809449Y-86491049D01*
X97566302Y-86733771D01*
X97434550Y-87051066D01*
X97434250Y-87394627D01*
X89319784Y-87394627D01*
X89320040Y-87101715D01*
X89109631Y-86592485D01*
X88720364Y-86202539D01*
X88211502Y-85991241D01*
X87660515Y-85990760D01*
X87151285Y-86201169D01*
X86761339Y-86590436D01*
X86550041Y-87099298D01*
X86549560Y-87650285D01*
X83260000Y-87650285D01*
X83260000Y-84246685D01*
X83399960Y-84246685D01*
X83610369Y-84755915D01*
X83999636Y-85145861D01*
X84508498Y-85357159D01*
X85059485Y-85357640D01*
X85568715Y-85147231D01*
X85709163Y-85007027D01*
X90830250Y-85007027D01*
X90961449Y-85324551D01*
X91204171Y-85567698D01*
X91521466Y-85699450D01*
X91865027Y-85699750D01*
X92182551Y-85568551D01*
X92425698Y-85325829D01*
X92557450Y-85008534D01*
X92557750Y-84664973D01*
X92426551Y-84347449D01*
X92183829Y-84104302D01*
X91866534Y-83972550D01*
X91522973Y-83972250D01*
X91205449Y-84103449D01*
X90962302Y-84346171D01*
X90830550Y-84663466D01*
X90830250Y-85007027D01*
X85709163Y-85007027D01*
X85958661Y-84757964D01*
X86169959Y-84249102D01*
X86170440Y-83698115D01*
X85960031Y-83188885D01*
X85570764Y-82798939D01*
X85061902Y-82587641D01*
X84510915Y-82587160D01*
X84001685Y-82797569D01*
X83611739Y-83186836D01*
X83400441Y-83695698D01*
X83399960Y-84246685D01*
X83260000Y-84246685D01*
X83260000Y-82162227D01*
X91947850Y-82162227D01*
X92079049Y-82479751D01*
X92321771Y-82722898D01*
X92639066Y-82854650D01*
X92982627Y-82854950D01*
X93300151Y-82723751D01*
X93543298Y-82481029D01*
X93675050Y-82163734D01*
X93675350Y-81820173D01*
X93544151Y-81502649D01*
X93301429Y-81259502D01*
X92984134Y-81127750D01*
X92640573Y-81127450D01*
X92323049Y-81258649D01*
X92079902Y-81501371D01*
X91948150Y-81818666D01*
X91947850Y-82162227D01*
X83260000Y-82162227D01*
X83260000Y-80790904D01*
X89228651Y-80790904D01*
X89360061Y-81108943D01*
X89603177Y-81352483D01*
X89920986Y-81484449D01*
X90265104Y-81484749D01*
X90583143Y-81353339D01*
X90826683Y-81110223D01*
X90853232Y-81046285D01*
X99198760Y-81046285D01*
X99409169Y-81555515D01*
X99798436Y-81945461D01*
X100307298Y-82156759D01*
X100858285Y-82157240D01*
X100965148Y-82113085D01*
X106158360Y-82113085D01*
X106368769Y-82622315D01*
X106758036Y-83012261D01*
X107266898Y-83223559D01*
X107817885Y-83224040D01*
X108327115Y-83013631D01*
X108717061Y-82624364D01*
X108739516Y-82570285D01*
X113930760Y-82570285D01*
X114141169Y-83079515D01*
X114530436Y-83469461D01*
X115039298Y-83680759D01*
X115590285Y-83681240D01*
X116099515Y-83470831D01*
X116489461Y-83081564D01*
X116700759Y-82572702D01*
X116701240Y-82021715D01*
X116490831Y-81512485D01*
X116101564Y-81122539D01*
X115731089Y-80968704D01*
X119175251Y-80968704D01*
X119306661Y-81286743D01*
X119549777Y-81530283D01*
X119867586Y-81662249D01*
X120211704Y-81662549D01*
X120529743Y-81531139D01*
X120773283Y-81288023D01*
X120905249Y-80970214D01*
X120905549Y-80626096D01*
X120774139Y-80308057D01*
X120531023Y-80064517D01*
X120213214Y-79932551D01*
X119869096Y-79932251D01*
X119551057Y-80063661D01*
X119307517Y-80306777D01*
X119175551Y-80624586D01*
X119175251Y-80968704D01*
X115731089Y-80968704D01*
X115592702Y-80911241D01*
X115041715Y-80910760D01*
X114532485Y-81121169D01*
X114142539Y-81510436D01*
X113931241Y-82019298D01*
X113930760Y-82570285D01*
X108739516Y-82570285D01*
X108928359Y-82115502D01*
X108928840Y-81564515D01*
X108718431Y-81055285D01*
X108329164Y-80665339D01*
X107820302Y-80454041D01*
X107269315Y-80453560D01*
X106760085Y-80663969D01*
X106370139Y-81053236D01*
X106158841Y-81562098D01*
X106158360Y-82113085D01*
X100965148Y-82113085D01*
X101367515Y-81946831D01*
X101757461Y-81557564D01*
X101968759Y-81048702D01*
X101969240Y-80497715D01*
X101758831Y-79988485D01*
X101369564Y-79598539D01*
X101124755Y-79496885D01*
X115835760Y-79496885D01*
X116046169Y-80006115D01*
X116435436Y-80396061D01*
X116944298Y-80607359D01*
X117495285Y-80607840D01*
X118004515Y-80397431D01*
X118394461Y-80008164D01*
X118605759Y-79499302D01*
X118606240Y-78948315D01*
X118395831Y-78439085D01*
X118006564Y-78049139D01*
X117497702Y-77837841D01*
X116946715Y-77837360D01*
X116437485Y-78047769D01*
X116047539Y-78437036D01*
X115836241Y-78945898D01*
X115835760Y-79496885D01*
X101124755Y-79496885D01*
X100860702Y-79387241D01*
X100309715Y-79386760D01*
X99800485Y-79597169D01*
X99410539Y-79986436D01*
X99199241Y-80495298D01*
X99198760Y-81046285D01*
X90853232Y-81046285D01*
X90958649Y-80792414D01*
X90958949Y-80448296D01*
X90827539Y-80130257D01*
X90584423Y-79886717D01*
X90266614Y-79754751D01*
X89922496Y-79754451D01*
X89604457Y-79885861D01*
X89360917Y-80128977D01*
X89228951Y-80446786D01*
X89228651Y-80790904D01*
X83260000Y-80790904D01*
X83260000Y-75966285D01*
X93102760Y-75966285D01*
X93313169Y-76475515D01*
X93702436Y-76865461D01*
X94211298Y-77076759D01*
X94762285Y-77077240D01*
X95271515Y-76866831D01*
X95661461Y-76477564D01*
X95863789Y-75990304D01*
X114196851Y-75990304D01*
X114328261Y-76308343D01*
X114571377Y-76551883D01*
X114889186Y-76683849D01*
X115233304Y-76684149D01*
X115551343Y-76552739D01*
X115794883Y-76309623D01*
X115906381Y-76041104D01*
X119175251Y-76041104D01*
X119306661Y-76359143D01*
X119549777Y-76602683D01*
X119867586Y-76734649D01*
X120211704Y-76734949D01*
X120529743Y-76603539D01*
X120773283Y-76360423D01*
X120905249Y-76042614D01*
X120905549Y-75698496D01*
X120774139Y-75380457D01*
X120531023Y-75136917D01*
X120213214Y-75004951D01*
X119869096Y-75004651D01*
X119551057Y-75136061D01*
X119307517Y-75379177D01*
X119175551Y-75696986D01*
X119175251Y-76041104D01*
X115906381Y-76041104D01*
X115926849Y-75991814D01*
X115927149Y-75647696D01*
X115795739Y-75329657D01*
X115552623Y-75086117D01*
X115234814Y-74954151D01*
X114890696Y-74953851D01*
X114572657Y-75085261D01*
X114329117Y-75328377D01*
X114197151Y-75646186D01*
X114196851Y-75990304D01*
X95863789Y-75990304D01*
X95872759Y-75968702D01*
X95873240Y-75417715D01*
X95662831Y-74908485D01*
X95273564Y-74518539D01*
X94764702Y-74307241D01*
X94213715Y-74306760D01*
X93704485Y-74517169D01*
X93314539Y-74906436D01*
X93103241Y-75415298D01*
X93102760Y-75966285D01*
X83260000Y-75966285D01*
X83260000Y-71748227D01*
X87223450Y-71748227D01*
X87354649Y-72065751D01*
X87597371Y-72308898D01*
X87914666Y-72440650D01*
X88258227Y-72440950D01*
X88258334Y-72440906D01*
X88309027Y-72440950D01*
X88626551Y-72309751D01*
X88869698Y-72067029D01*
X89001450Y-71749734D01*
X89001750Y-71406173D01*
X88870551Y-71088649D01*
X88851138Y-71069202D01*
X89072898Y-70847829D01*
X89204650Y-70530534D01*
X89204695Y-70478227D01*
X95605450Y-70478227D01*
X95736649Y-70795751D01*
X95933684Y-70993131D01*
X95737502Y-71188971D01*
X95605750Y-71506266D01*
X95605450Y-71849827D01*
X95736649Y-72167351D01*
X95832085Y-72262954D01*
X95737502Y-72357371D01*
X95605750Y-72674666D01*
X95605450Y-73018227D01*
X95736649Y-73335751D01*
X95979371Y-73578898D01*
X96296666Y-73710650D01*
X96640227Y-73710950D01*
X96957751Y-73579751D01*
X97200898Y-73337029D01*
X97332650Y-73019734D01*
X97332950Y-72676173D01*
X97201751Y-72358649D01*
X97106315Y-72263046D01*
X97200898Y-72168629D01*
X97332650Y-71851334D01*
X97332950Y-71507773D01*
X97201751Y-71190249D01*
X97004716Y-70992869D01*
X97200898Y-70797029D01*
X97332650Y-70479734D01*
X97332695Y-70427427D01*
X106527450Y-70427427D01*
X106658649Y-70744951D01*
X106901371Y-70988098D01*
X107218666Y-71119850D01*
X107562227Y-71120150D01*
X107879751Y-70988951D01*
X107933091Y-70935704D01*
X109066051Y-70935704D01*
X109197461Y-71253743D01*
X109440577Y-71497283D01*
X109758386Y-71629249D01*
X110102504Y-71629549D01*
X110420543Y-71498139D01*
X110664083Y-71255023D01*
X110796049Y-70937214D01*
X110796072Y-70910304D01*
X114222251Y-70910304D01*
X114353661Y-71228343D01*
X114596777Y-71471883D01*
X114914586Y-71603849D01*
X115258704Y-71604149D01*
X115576743Y-71472739D01*
X115820283Y-71229623D01*
X115952249Y-70911814D01*
X115952272Y-70884904D01*
X119200651Y-70884904D01*
X119332061Y-71202943D01*
X119575177Y-71446483D01*
X119892986Y-71578449D01*
X120237104Y-71578749D01*
X120555143Y-71447339D01*
X120798683Y-71204223D01*
X120930649Y-70886414D01*
X120930949Y-70542296D01*
X120799539Y-70224257D01*
X120556423Y-69980717D01*
X120238614Y-69848751D01*
X119894496Y-69848451D01*
X119576457Y-69979861D01*
X119332917Y-70222977D01*
X119200951Y-70540786D01*
X119200651Y-70884904D01*
X115952272Y-70884904D01*
X115952549Y-70567696D01*
X115821139Y-70249657D01*
X115578023Y-70006117D01*
X115260214Y-69874151D01*
X114916096Y-69873851D01*
X114598057Y-70005261D01*
X114354517Y-70248377D01*
X114222551Y-70566186D01*
X114222251Y-70910304D01*
X110796072Y-70910304D01*
X110796349Y-70593096D01*
X110664939Y-70275057D01*
X110421823Y-70031517D01*
X110104014Y-69899551D01*
X109759896Y-69899251D01*
X109441857Y-70030661D01*
X109198317Y-70273777D01*
X109066351Y-70591586D01*
X109066051Y-70935704D01*
X107933091Y-70935704D01*
X108122898Y-70746229D01*
X108254650Y-70428934D01*
X108254950Y-70085373D01*
X108123751Y-69767849D01*
X107881029Y-69524702D01*
X107563734Y-69392950D01*
X107220173Y-69392650D01*
X106902649Y-69523849D01*
X106659502Y-69766571D01*
X106527750Y-70083866D01*
X106527450Y-70427427D01*
X97332695Y-70427427D01*
X97332950Y-70136173D01*
X97201751Y-69818649D01*
X96959029Y-69575502D01*
X96641734Y-69443750D01*
X96298173Y-69443450D01*
X95980649Y-69574649D01*
X95737502Y-69817371D01*
X95605750Y-70134666D01*
X95605450Y-70478227D01*
X89204695Y-70478227D01*
X89204950Y-70186973D01*
X89073751Y-69869449D01*
X88831029Y-69626302D01*
X88513734Y-69494550D01*
X88170173Y-69494250D01*
X87852649Y-69625449D01*
X87609502Y-69868171D01*
X87477750Y-70185466D01*
X87477450Y-70529027D01*
X87606519Y-70841397D01*
X87598649Y-70844649D01*
X87355502Y-71087371D01*
X87223750Y-71404666D01*
X87223450Y-71748227D01*
X83260000Y-71748227D01*
X83260000Y-69309827D01*
X83972250Y-69309827D01*
X84103449Y-69627351D01*
X84346171Y-69870498D01*
X84663466Y-70002250D01*
X85007027Y-70002550D01*
X85324551Y-69871351D01*
X85567698Y-69628629D01*
X85699450Y-69311334D01*
X85699750Y-68967773D01*
X85631183Y-68801827D01*
X100685450Y-68801827D01*
X100816649Y-69119351D01*
X101059371Y-69362498D01*
X101376666Y-69494250D01*
X101720227Y-69494550D01*
X102037751Y-69363351D01*
X102280898Y-69120629D01*
X102412650Y-68803334D01*
X102412950Y-68459773D01*
X102281751Y-68142249D01*
X102103442Y-67963627D01*
X107772050Y-67963627D01*
X107903249Y-68281151D01*
X108145971Y-68524298D01*
X108463266Y-68656050D01*
X108806827Y-68656350D01*
X109124351Y-68525151D01*
X109367498Y-68282429D01*
X109499250Y-67965134D01*
X109499550Y-67621573D01*
X109368351Y-67304049D01*
X109125629Y-67060902D01*
X108808334Y-66929150D01*
X108464773Y-66928850D01*
X108147249Y-67060049D01*
X107904102Y-67302771D01*
X107772350Y-67620066D01*
X107772050Y-67963627D01*
X102103442Y-67963627D01*
X102039029Y-67899102D01*
X101721734Y-67767350D01*
X101378173Y-67767050D01*
X101060649Y-67898249D01*
X100817502Y-68140971D01*
X100685750Y-68458266D01*
X100685450Y-68801827D01*
X85631183Y-68801827D01*
X85568551Y-68650249D01*
X85325829Y-68407102D01*
X85008534Y-68275350D01*
X84664973Y-68275050D01*
X84347449Y-68406249D01*
X84104302Y-68648971D01*
X83972550Y-68966266D01*
X83972250Y-69309827D01*
X83260000Y-69309827D01*
X83260000Y-65331442D01*
X83524509Y-65331442D01*
X83955202Y-66373801D01*
X84752005Y-67171995D01*
X85793610Y-67604507D01*
X86921442Y-67605491D01*
X87714451Y-67277827D01*
X92455850Y-67277827D01*
X92587049Y-67595351D01*
X92829771Y-67838498D01*
X93147066Y-67970250D01*
X93490627Y-67970550D01*
X93808151Y-67839351D01*
X94051298Y-67596629D01*
X94183050Y-67279334D01*
X94183350Y-66935773D01*
X94052151Y-66618249D01*
X93809429Y-66375102D01*
X93492134Y-66243350D01*
X93148573Y-66243050D01*
X92831049Y-66374249D01*
X92587902Y-66616971D01*
X92456150Y-66934266D01*
X92455850Y-67277827D01*
X87714451Y-67277827D01*
X87963801Y-67174798D01*
X88761995Y-66377995D01*
X88893919Y-66060285D01*
X94321960Y-66060285D01*
X94532369Y-66569515D01*
X94921636Y-66959461D01*
X95430498Y-67170759D01*
X95981485Y-67171240D01*
X96490715Y-66960831D01*
X96880661Y-66571564D01*
X97091959Y-66062702D01*
X97092051Y-65957304D01*
X99210851Y-65957304D01*
X99342261Y-66275343D01*
X99585377Y-66518883D01*
X99841068Y-66625055D01*
X99587449Y-66729849D01*
X99344302Y-66972571D01*
X99212550Y-67289866D01*
X99212250Y-67633427D01*
X99343449Y-67950951D01*
X99586171Y-68194098D01*
X99903466Y-68325850D01*
X100247027Y-68326150D01*
X100564551Y-68194951D01*
X100807698Y-67952229D01*
X100939450Y-67634934D01*
X100939750Y-67291373D01*
X100808551Y-66973849D01*
X100565829Y-66730702D01*
X100310931Y-66624859D01*
X100565343Y-66519739D01*
X100808883Y-66276623D01*
X100940849Y-65958814D01*
X100940894Y-65906504D01*
X104214651Y-65906504D01*
X104346061Y-66224543D01*
X104589177Y-66468083D01*
X104906986Y-66600049D01*
X105251104Y-66600349D01*
X105569143Y-66468939D01*
X105812683Y-66225823D01*
X105924181Y-65957304D01*
X114222251Y-65957304D01*
X114353661Y-66275343D01*
X114596777Y-66518883D01*
X114914586Y-66650849D01*
X115258704Y-66651149D01*
X115576743Y-66519739D01*
X115820283Y-66276623D01*
X115952249Y-65958814D01*
X115952250Y-65957304D01*
X119175251Y-65957304D01*
X119306661Y-66275343D01*
X119549777Y-66518883D01*
X119867586Y-66650849D01*
X120211704Y-66651149D01*
X120529743Y-66519739D01*
X120773283Y-66276623D01*
X120905249Y-65958814D01*
X120905549Y-65614696D01*
X120774139Y-65296657D01*
X120531023Y-65053117D01*
X120213214Y-64921151D01*
X119869096Y-64920851D01*
X119551057Y-65052261D01*
X119307517Y-65295377D01*
X119175551Y-65613186D01*
X119175251Y-65957304D01*
X115952250Y-65957304D01*
X115952549Y-65614696D01*
X115821139Y-65296657D01*
X115578023Y-65053117D01*
X115260214Y-64921151D01*
X114916096Y-64920851D01*
X114598057Y-65052261D01*
X114354517Y-65295377D01*
X114222551Y-65613186D01*
X114222251Y-65957304D01*
X105924181Y-65957304D01*
X105944649Y-65908014D01*
X105944949Y-65563896D01*
X105813539Y-65245857D01*
X105570423Y-65002317D01*
X105252614Y-64870351D01*
X104908496Y-64870051D01*
X104590457Y-65001461D01*
X104346917Y-65244577D01*
X104214951Y-65562386D01*
X104214651Y-65906504D01*
X100940894Y-65906504D01*
X100941149Y-65614696D01*
X100809739Y-65296657D01*
X100566623Y-65053117D01*
X100248814Y-64921151D01*
X99904696Y-64920851D01*
X99586657Y-65052261D01*
X99343117Y-65295377D01*
X99211151Y-65613186D01*
X99210851Y-65957304D01*
X97092051Y-65957304D01*
X97092440Y-65511715D01*
X96882031Y-65002485D01*
X96492764Y-64612539D01*
X95983902Y-64401241D01*
X95432915Y-64400760D01*
X94923685Y-64611169D01*
X94533739Y-65000436D01*
X94322441Y-65509298D01*
X94321960Y-66060285D01*
X88893919Y-66060285D01*
X89194507Y-65336390D01*
X89195491Y-64208558D01*
X89094243Y-63963517D01*
X91460888Y-63963517D01*
X91528877Y-64204460D01*
X92047971Y-64389201D01*
X92598248Y-64361230D01*
X92976723Y-64204460D01*
X93044712Y-63963517D01*
X92252800Y-63171605D01*
X91460888Y-63963517D01*
X89094243Y-63963517D01*
X88764798Y-63166199D01*
X88386431Y-62787171D01*
X90855599Y-62787171D01*
X90883570Y-63337448D01*
X91040340Y-63715923D01*
X91281283Y-63783912D01*
X92073195Y-62992000D01*
X92432405Y-62992000D01*
X93224317Y-63783912D01*
X93465260Y-63715923D01*
X93650001Y-63196829D01*
X93622030Y-62646552D01*
X93465260Y-62268077D01*
X93224317Y-62200088D01*
X92432405Y-62992000D01*
X92073195Y-62992000D01*
X91281283Y-62200088D01*
X91040340Y-62268077D01*
X90855599Y-62787171D01*
X88386431Y-62787171D01*
X87967995Y-62368005D01*
X86926390Y-61935493D01*
X85798558Y-61934509D01*
X84756199Y-62365202D01*
X83958005Y-63162005D01*
X83525493Y-64203610D01*
X83524509Y-65331442D01*
X83260000Y-65331442D01*
X83260000Y-62969606D01*
X84559606Y-61670000D01*
X91793329Y-61670000D01*
X91528877Y-61779540D01*
M02*
