G04 #@! TF.FileFunction,Copper,L2,Inr,Signal*
%FSLAX46Y46*%
G04 Gerber Fmt 4.6, Leading zero omitted, Abs format (unit mm)*
G04 Created by KiCad (PCBNEW 4.0.5+dfsg1-4~bpo8+1) date Fri Nov  1 07:22:00 2019*
%MOMM*%
%LPD*%
G01*
G04 APERTURE LIST*
%ADD10C,0.100000*%
%ADD11C,0.460000*%
%ADD12C,4.400000*%
%ADD13C,0.600000*%
%ADD14C,1.400000*%
%ADD15R,1.727200X1.727200*%
%ADD16O,1.727200X1.727200*%
%ADD17C,1.500000*%
%ADD18O,0.950000X1.250000*%
%ADD19O,1.550000X1.000000*%
%ADD20C,2.500000*%
%ADD21C,2.600000*%
%ADD22R,2.000000X2.600000*%
%ADD23O,2.000000X2.600000*%
%ADD24C,0.457200*%
%ADD25C,0.399999*%
%ADD26C,0.600000*%
%ADD27C,0.400000*%
%ADD28C,0.254000*%
G04 APERTURE END LIST*
D10*
D11*
X174802800Y-70739000D03*
X169646600Y-70840600D03*
X169570400Y-75920600D03*
X164592000Y-75996800D03*
X164592000Y-70840600D03*
X164668200Y-65506600D03*
X159791400Y-65684400D03*
X149834600Y-65684400D03*
X144678400Y-65684400D03*
X139344400Y-65684400D03*
X144780000Y-100507800D03*
X174955200Y-90678000D03*
X169875200Y-90830400D03*
X169926000Y-95580200D03*
X164846000Y-95656400D03*
X164947600Y-100736400D03*
X159816800Y-100736400D03*
X159969200Y-105257600D03*
X154940000Y-105308400D03*
X149961600Y-105435400D03*
X144932400Y-105486200D03*
X139700000Y-105537000D03*
X125374400Y-111302800D03*
X120192800Y-111328200D03*
X115112800Y-111277400D03*
X110032800Y-111379000D03*
X104978200Y-110591600D03*
X99999800Y-110718600D03*
X100050600Y-105689400D03*
X84963000Y-105689400D03*
X94894400Y-105740200D03*
X90093800Y-105791000D03*
X120015000Y-90449400D03*
X115189000Y-90627200D03*
X90093800Y-80619600D03*
X135204200Y-85521800D03*
X125222000Y-85750400D03*
X115036600Y-85826600D03*
X119964200Y-85801200D03*
X125222000Y-80797400D03*
X120040400Y-80797400D03*
X125145800Y-75895200D03*
X120040400Y-75869800D03*
X115062000Y-75819000D03*
X125145800Y-70637400D03*
X120065800Y-70713600D03*
X115087400Y-70739000D03*
X109931200Y-70764400D03*
X120040400Y-65786000D03*
X115087400Y-65786000D03*
X105079800Y-65735200D03*
X100076000Y-65786000D03*
X149225000Y-76073000D03*
X156286200Y-93980000D03*
X155651200Y-93980000D03*
X155016200Y-93980000D03*
X154381200Y-93980000D03*
X153746200Y-93980000D03*
X156286200Y-93345000D03*
X155651200Y-93345000D03*
X155016200Y-93345000D03*
X154381200Y-93345000D03*
X153746200Y-93345000D03*
X156286200Y-92710000D03*
X155651200Y-92710000D03*
X155016200Y-92710000D03*
X154381200Y-92710000D03*
X153746200Y-92710000D03*
X156286200Y-92075000D03*
X155651200Y-92075000D03*
X155016200Y-92075000D03*
X154381200Y-92075000D03*
X153746200Y-92075000D03*
X156286200Y-91440000D03*
X155651200Y-91440000D03*
X155016200Y-91440000D03*
X154381200Y-91440000D03*
X153746200Y-91440000D03*
X158496000Y-91186000D03*
X146939000Y-76835000D03*
X144907000Y-76708000D03*
D12*
X177800000Y-64770000D03*
D13*
X179450000Y-64770000D03*
X178966726Y-65936726D03*
X177800000Y-66420000D03*
X176633274Y-65936726D03*
X176150000Y-64770000D03*
X176633274Y-63603274D03*
X177800000Y-63120000D03*
X178966726Y-63603274D03*
D12*
X177800000Y-110617000D03*
D13*
X179450000Y-110617000D03*
X178966726Y-111783726D03*
X177800000Y-112267000D03*
X176633274Y-111783726D03*
X176150000Y-110617000D03*
X176633274Y-109450274D03*
X177800000Y-108967000D03*
X178966726Y-109450274D03*
D12*
X86360000Y-110617000D03*
D13*
X88010000Y-110617000D03*
X87526726Y-111783726D03*
X86360000Y-112267000D03*
X85193274Y-111783726D03*
X84710000Y-110617000D03*
X85193274Y-109450274D03*
X86360000Y-108967000D03*
X87526726Y-109450274D03*
D11*
X160274000Y-93091000D03*
X162179000Y-93345000D03*
X162814000Y-93345000D03*
X163449000Y-93345000D03*
X164084000Y-93345000D03*
X164719000Y-93218000D03*
X165354000Y-93091000D03*
X165989000Y-92837000D03*
X166497000Y-92456000D03*
X166878000Y-91948000D03*
X167132000Y-91313000D03*
X167386000Y-90805000D03*
X167513000Y-90170000D03*
X167513000Y-89535000D03*
X167513000Y-88900000D03*
X167386000Y-88265000D03*
X159258000Y-91186000D03*
X160020000Y-91186000D03*
X160655000Y-91186000D03*
X161290000Y-91186000D03*
X161925000Y-91186000D03*
X162687000Y-91186000D03*
X163449000Y-91186000D03*
X164084000Y-91186000D03*
X164719000Y-91059000D03*
X165227000Y-90678000D03*
X165354000Y-90043000D03*
X165354000Y-89408000D03*
X165354000Y-88773000D03*
X165354000Y-88138000D03*
X154051000Y-88900000D03*
X153924000Y-88265000D03*
X153797000Y-87757000D03*
X153797000Y-87122000D03*
X153797000Y-86487000D03*
X153797000Y-85725000D03*
X153797000Y-84836000D03*
X153797000Y-84074000D03*
X153670000Y-79248000D03*
X153670000Y-78613000D03*
X153670000Y-77978000D03*
X153670000Y-77216000D03*
X153670000Y-76581000D03*
X153797000Y-75946000D03*
X153924000Y-75311000D03*
X154051000Y-74676000D03*
X154432000Y-74168000D03*
X154813000Y-73787000D03*
X155194000Y-73406000D03*
X155702000Y-73152000D03*
X156337000Y-72898000D03*
X156972000Y-72898000D03*
X157607000Y-73025000D03*
X158242000Y-73279000D03*
X158750000Y-73660000D03*
X159131000Y-74168000D03*
X159512000Y-74676000D03*
X159766000Y-75311000D03*
X159893000Y-75946000D03*
X159893000Y-76581000D03*
X159766000Y-77216000D03*
X159766000Y-77851000D03*
X159639000Y-78486000D03*
X159512000Y-79121000D03*
X159512000Y-79756000D03*
X159385000Y-80391000D03*
X159385000Y-81026000D03*
X159258000Y-81661000D03*
X159131000Y-82296000D03*
X159004000Y-82931000D03*
X158877000Y-83566000D03*
X158750000Y-84201000D03*
X158623000Y-84709000D03*
X158369000Y-85217000D03*
X158115000Y-85725000D03*
X157861000Y-86233000D03*
X157480000Y-86741000D03*
X157226000Y-87249000D03*
X156972000Y-87884000D03*
X156718000Y-88519000D03*
X156591000Y-89154000D03*
X155702000Y-79502000D03*
X155829000Y-78867000D03*
X155829000Y-78232000D03*
X155829000Y-77470000D03*
X155829000Y-76835000D03*
X155829000Y-76327000D03*
X155956000Y-75692000D03*
X156210000Y-75184000D03*
X156845000Y-74930000D03*
X157353000Y-75184000D03*
X157734000Y-75692000D03*
X157861000Y-76327000D03*
X157861000Y-76962000D03*
X157734000Y-77597000D03*
X157607000Y-78232000D03*
X157607000Y-78994000D03*
X157480000Y-79756000D03*
X157353000Y-80518000D03*
X157226000Y-81153000D03*
X157226000Y-81915000D03*
X157099000Y-82677000D03*
X156972000Y-83312000D03*
X156718000Y-83947000D03*
X156514800Y-84531200D03*
X156210000Y-85090000D03*
X155905200Y-85623400D03*
D14*
X135178800Y-71259700D03*
X137718800Y-71259700D03*
D15*
X128270000Y-82550000D03*
D16*
X130810000Y-82550000D03*
X128270000Y-85090000D03*
X130810000Y-85090000D03*
X128270000Y-87630000D03*
X130810000Y-87630000D03*
X128270000Y-90170000D03*
X130810000Y-90170000D03*
X128270000Y-92710000D03*
X130810000Y-92710000D03*
X128270000Y-95250000D03*
X130810000Y-95250000D03*
X128270000Y-97790000D03*
X130810000Y-97790000D03*
X128270000Y-100330000D03*
X130810000Y-100330000D03*
X128270000Y-102870000D03*
X130810000Y-102870000D03*
X128270000Y-105410000D03*
X130810000Y-105410000D03*
X128270000Y-107950000D03*
X130810000Y-107950000D03*
X128270000Y-110490000D03*
X130810000Y-110490000D03*
D17*
X95351600Y-99364800D03*
X95707200Y-65786000D03*
X84785200Y-83972400D03*
X92252800Y-62992000D03*
X87934800Y-87376000D03*
X100584000Y-80772000D03*
X117221000Y-79222600D03*
X115316000Y-82296000D03*
X107543600Y-81838800D03*
X115417600Y-103835200D03*
X94488000Y-75692000D03*
D18*
X86995000Y-96937200D03*
X86995000Y-91937200D03*
D19*
X84295000Y-90937200D03*
X84295000Y-97937200D03*
D20*
X166368400Y-84405400D03*
D21*
X163728400Y-81940400D03*
X168808400Y-81940400D03*
X168808400Y-87020400D03*
X163728400Y-87020400D03*
D22*
X177165000Y-75565000D03*
D23*
X174625000Y-75565000D03*
X172085000Y-75565000D03*
D17*
X162306000Y-98044000D03*
X160020000Y-98044000D03*
D12*
X86360000Y-64770000D03*
D13*
X88010000Y-64770000D03*
X87526726Y-65936726D03*
X86360000Y-66420000D03*
X85193274Y-65936726D03*
X84710000Y-64770000D03*
X85193274Y-63603274D03*
X86360000Y-63120000D03*
X87526726Y-63603274D03*
D24*
X127889000Y-68453000D03*
X133172200Y-71335900D03*
X108635800Y-67792600D03*
X145059400Y-91084400D03*
X140716000Y-94437200D03*
X94488000Y-101447600D03*
X119380000Y-97688400D03*
X117703600Y-102108000D03*
X122072400Y-101142800D03*
X113436400Y-91643200D03*
X111099600Y-97637600D03*
X106781600Y-101600000D03*
X101752400Y-98145600D03*
X98907600Y-97383600D03*
X101803200Y-95656400D03*
X101854000Y-93218000D03*
X100736400Y-90678000D03*
X109270800Y-90271600D03*
X112522000Y-87020400D03*
X111150400Y-87020400D03*
X107391200Y-70256400D03*
X101549200Y-68630800D03*
X100076000Y-67462400D03*
X96469200Y-72847200D03*
X96469200Y-71678800D03*
X96469200Y-70307200D03*
X93319600Y-67106800D03*
X88341200Y-70358000D03*
X88087200Y-71577200D03*
X88138000Y-71577200D03*
X84836000Y-69138800D03*
X92811600Y-81991200D03*
X91694000Y-84836000D03*
X98298000Y-87223600D03*
X85547200Y-95707200D03*
X86156800Y-88849200D03*
X91795600Y-91135200D03*
X89966800Y-94030800D03*
X97688400Y-92659200D03*
X97485200Y-90881200D03*
X97637600Y-96672400D03*
X115468400Y-96621600D03*
X115468400Y-94132400D03*
X102412800Y-87934800D03*
X109220000Y-86664800D03*
X98348800Y-95707200D03*
X107289600Y-86715600D03*
X110693200Y-103073200D03*
X103987600Y-103073200D03*
X132715000Y-80111600D03*
X133223000Y-75031600D03*
X162433000Y-94742000D03*
X162306000Y-69088000D03*
X162179000Y-67056000D03*
X133223000Y-68707000D03*
X157353000Y-98552000D03*
X178054000Y-86360000D03*
X174625000Y-86360000D03*
X156464000Y-65405000D03*
X148971000Y-94488000D03*
X148844000Y-91694000D03*
X150241000Y-87503000D03*
X150241000Y-89281000D03*
X159893000Y-89027000D03*
X159893000Y-90297000D03*
X127889000Y-65024000D03*
X128143000Y-74549000D03*
X129794000Y-80645000D03*
X129794000Y-69342000D03*
X151130000Y-90551000D03*
X138557000Y-77470000D03*
X150876000Y-93472000D03*
X137617200Y-96875600D03*
X110744000Y-95148400D03*
X113385600Y-94894400D03*
X108661200Y-90932000D03*
X102311200Y-98653600D03*
X103784400Y-99466400D03*
X100838000Y-99415600D03*
X102362000Y-93827600D03*
X137922000Y-103124000D03*
X152527000Y-96139000D03*
X137922000Y-110490000D03*
X153797000Y-96647000D03*
X137922000Y-95250000D03*
X154305000Y-97409000D03*
X137922000Y-92710000D03*
X154813000Y-97028000D03*
X137922000Y-90170000D03*
X155321000Y-96520000D03*
X155829000Y-96139000D03*
X137922000Y-88519000D03*
X159131000Y-93472000D03*
X108000800Y-102412800D03*
X153289000Y-96139000D03*
X137922000Y-107950000D03*
X113055400Y-67716400D03*
X88900000Y-99314000D03*
X119380000Y-98755200D03*
X124866400Y-65074800D03*
X96215200Y-78232000D03*
X109880400Y-73761600D03*
X100177600Y-71678800D03*
X101650800Y-71424800D03*
X91643200Y-69037200D03*
X88493600Y-67208400D03*
X88341200Y-69088000D03*
X99568000Y-93167200D03*
X98602800Y-90881200D03*
X113893600Y-93573600D03*
X109220000Y-87833200D03*
X99466400Y-95707200D03*
X107289600Y-87833200D03*
X110693200Y-102006400D03*
X104038400Y-101955600D03*
X108712000Y-104038400D03*
X150164800Y-102209600D03*
X158496000Y-92837000D03*
X107746800Y-90932000D03*
X120446800Y-97790000D03*
D25*
X126873000Y-66802000D02*
X127889000Y-66802000D01*
X152781000Y-75311000D02*
X152908000Y-75311000D01*
X103809800Y-69240400D02*
X103860600Y-69240400D01*
D26*
X93319600Y-67106800D02*
X93472000Y-67259200D01*
X93472000Y-67259200D02*
X93319600Y-67106800D01*
X88087200Y-71577200D02*
X88138000Y-71577200D01*
D27*
X98298000Y-87223600D02*
X98348800Y-87274400D01*
X98348800Y-87274400D02*
X98298000Y-87223600D01*
D25*
X132715000Y-80111600D02*
X132715000Y-80010000D01*
X154940000Y-92710000D02*
X155524200Y-92710000D01*
X157353000Y-98552000D02*
X157353000Y-98425000D01*
X157353000Y-98425000D02*
X157353000Y-98552000D01*
X178054000Y-86360000D02*
X178181000Y-86360000D01*
X150241000Y-87503000D02*
X150622000Y-87503000D01*
X150622000Y-87503000D02*
X150241000Y-87503000D01*
D28*
G36*
X181154000Y-113844000D02*
X83006000Y-113844000D01*
X83006000Y-111128140D01*
X83778553Y-111128140D01*
X84170659Y-112077109D01*
X84896072Y-112803790D01*
X85844355Y-113197551D01*
X86871140Y-113198447D01*
X87820109Y-112806341D01*
X88546790Y-112080928D01*
X88940551Y-111132645D01*
X88941111Y-110490000D01*
X127001017Y-110490000D01*
X127095757Y-110966288D01*
X127365552Y-111370065D01*
X127769329Y-111639860D01*
X128245617Y-111734600D01*
X128294383Y-111734600D01*
X128770671Y-111639860D01*
X129174448Y-111370065D01*
X129444243Y-110966288D01*
X129538983Y-110490000D01*
X129541017Y-110490000D01*
X129635757Y-110966288D01*
X129905552Y-111370065D01*
X130309329Y-111639860D01*
X130785617Y-111734600D01*
X130834383Y-111734600D01*
X131310671Y-111639860D01*
X131714448Y-111370065D01*
X131876097Y-111128140D01*
X175218553Y-111128140D01*
X175610659Y-112077109D01*
X176336072Y-112803790D01*
X177284355Y-113197551D01*
X178311140Y-113198447D01*
X179260109Y-112806341D01*
X179986790Y-112080928D01*
X180380551Y-111132645D01*
X180381447Y-110105860D01*
X179989341Y-109156891D01*
X179263928Y-108430210D01*
X178315645Y-108036449D01*
X177288860Y-108035553D01*
X176339891Y-108427659D01*
X175613210Y-109153072D01*
X175219449Y-110101355D01*
X175218553Y-111128140D01*
X131876097Y-111128140D01*
X131984243Y-110966288D01*
X132054969Y-110610725D01*
X137312294Y-110610725D01*
X137404905Y-110834860D01*
X137576238Y-111006493D01*
X137800211Y-111099494D01*
X138042725Y-111099706D01*
X138266860Y-111007095D01*
X138438493Y-110835762D01*
X138531494Y-110611789D01*
X138531706Y-110369275D01*
X138439095Y-110145140D01*
X138267762Y-109973507D01*
X138043789Y-109880506D01*
X137801275Y-109880294D01*
X137577140Y-109972905D01*
X137405507Y-110144238D01*
X137312506Y-110368211D01*
X137312294Y-110610725D01*
X132054969Y-110610725D01*
X132078983Y-110490000D01*
X131984243Y-110013712D01*
X131714448Y-109609935D01*
X131310671Y-109340140D01*
X130834383Y-109245400D01*
X130785617Y-109245400D01*
X130309329Y-109340140D01*
X129905552Y-109609935D01*
X129635757Y-110013712D01*
X129541017Y-110490000D01*
X129538983Y-110490000D01*
X129444243Y-110013712D01*
X129174448Y-109609935D01*
X128770671Y-109340140D01*
X128294383Y-109245400D01*
X128245617Y-109245400D01*
X127769329Y-109340140D01*
X127365552Y-109609935D01*
X127095757Y-110013712D01*
X127001017Y-110490000D01*
X88941111Y-110490000D01*
X88941447Y-110105860D01*
X88549341Y-109156891D01*
X87823928Y-108430210D01*
X86875645Y-108036449D01*
X85848860Y-108035553D01*
X84899891Y-108427659D01*
X84173210Y-109153072D01*
X83779449Y-110101355D01*
X83778553Y-111128140D01*
X83006000Y-111128140D01*
X83006000Y-107950000D01*
X127001017Y-107950000D01*
X127095757Y-108426288D01*
X127365552Y-108830065D01*
X127769329Y-109099860D01*
X128245617Y-109194600D01*
X128294383Y-109194600D01*
X128770671Y-109099860D01*
X129174448Y-108830065D01*
X129444243Y-108426288D01*
X129538983Y-107950000D01*
X129541017Y-107950000D01*
X129635757Y-108426288D01*
X129905552Y-108830065D01*
X130309329Y-109099860D01*
X130785617Y-109194600D01*
X130834383Y-109194600D01*
X131310671Y-109099860D01*
X131714448Y-108830065D01*
X131984243Y-108426288D01*
X132054969Y-108070725D01*
X137312294Y-108070725D01*
X137404905Y-108294860D01*
X137576238Y-108466493D01*
X137800211Y-108559494D01*
X138042725Y-108559706D01*
X138266860Y-108467095D01*
X138438493Y-108295762D01*
X138531494Y-108071789D01*
X138531706Y-107829275D01*
X138439095Y-107605140D01*
X138267762Y-107433507D01*
X138043789Y-107340506D01*
X137801275Y-107340294D01*
X137577140Y-107432905D01*
X137405507Y-107604238D01*
X137312506Y-107828211D01*
X137312294Y-108070725D01*
X132054969Y-108070725D01*
X132078983Y-107950000D01*
X131984243Y-107473712D01*
X131714448Y-107069935D01*
X131310671Y-106800140D01*
X130834383Y-106705400D01*
X130785617Y-106705400D01*
X130309329Y-106800140D01*
X129905552Y-107069935D01*
X129635757Y-107473712D01*
X129541017Y-107950000D01*
X129538983Y-107950000D01*
X129444243Y-107473712D01*
X129174448Y-107069935D01*
X128770671Y-106800140D01*
X128294383Y-106705400D01*
X128245617Y-106705400D01*
X127769329Y-106800140D01*
X127365552Y-107069935D01*
X127095757Y-107473712D01*
X127001017Y-107950000D01*
X83006000Y-107950000D01*
X83006000Y-105410000D01*
X127001017Y-105410000D01*
X127095757Y-105886288D01*
X127365552Y-106290065D01*
X127769329Y-106559860D01*
X128245617Y-106654600D01*
X128294383Y-106654600D01*
X128770671Y-106559860D01*
X129174448Y-106290065D01*
X129444243Y-105886288D01*
X129538983Y-105410000D01*
X129541017Y-105410000D01*
X129635757Y-105886288D01*
X129905552Y-106290065D01*
X130309329Y-106559860D01*
X130785617Y-106654600D01*
X130834383Y-106654600D01*
X131310671Y-106559860D01*
X131714448Y-106290065D01*
X131984243Y-105886288D01*
X132078983Y-105410000D01*
X131984243Y-104933712D01*
X131714448Y-104529935D01*
X131310671Y-104260140D01*
X130834383Y-104165400D01*
X130785617Y-104165400D01*
X130309329Y-104260140D01*
X129905552Y-104529935D01*
X129635757Y-104933712D01*
X129541017Y-105410000D01*
X129538983Y-105410000D01*
X129444243Y-104933712D01*
X129174448Y-104529935D01*
X128770671Y-104260140D01*
X128294383Y-104165400D01*
X128245617Y-104165400D01*
X127769329Y-104260140D01*
X127365552Y-104529935D01*
X127095757Y-104933712D01*
X127001017Y-105410000D01*
X83006000Y-105410000D01*
X83006000Y-104159125D01*
X108102294Y-104159125D01*
X108194905Y-104383260D01*
X108366238Y-104554893D01*
X108590211Y-104647894D01*
X108832725Y-104648106D01*
X109056860Y-104555495D01*
X109228493Y-104384162D01*
X109321494Y-104160189D01*
X109321582Y-104059183D01*
X114286404Y-104059183D01*
X114458225Y-104475023D01*
X114776103Y-104793456D01*
X115191643Y-104966004D01*
X115641583Y-104966396D01*
X116057423Y-104794575D01*
X116375856Y-104476697D01*
X116548404Y-104061157D01*
X116548796Y-103611217D01*
X116376975Y-103195377D01*
X116059097Y-102876944D01*
X116042375Y-102870000D01*
X127001017Y-102870000D01*
X127095757Y-103346288D01*
X127365552Y-103750065D01*
X127769329Y-104019860D01*
X128245617Y-104114600D01*
X128294383Y-104114600D01*
X128770671Y-104019860D01*
X129174448Y-103750065D01*
X129444243Y-103346288D01*
X129538983Y-102870000D01*
X129541017Y-102870000D01*
X129635757Y-103346288D01*
X129905552Y-103750065D01*
X130309329Y-104019860D01*
X130785617Y-104114600D01*
X130834383Y-104114600D01*
X131310671Y-104019860D01*
X131714448Y-103750065D01*
X131984243Y-103346288D01*
X132004445Y-103244725D01*
X137312294Y-103244725D01*
X137404905Y-103468860D01*
X137576238Y-103640493D01*
X137800211Y-103733494D01*
X138042725Y-103733706D01*
X138266860Y-103641095D01*
X138438493Y-103469762D01*
X138531494Y-103245789D01*
X138531706Y-103003275D01*
X138439095Y-102779140D01*
X138267762Y-102607507D01*
X138043789Y-102514506D01*
X137801275Y-102514294D01*
X137577140Y-102606905D01*
X137405507Y-102778238D01*
X137312506Y-103002211D01*
X137312294Y-103244725D01*
X132004445Y-103244725D01*
X132078983Y-102870000D01*
X131984243Y-102393712D01*
X131941890Y-102330325D01*
X149555094Y-102330325D01*
X149647705Y-102554460D01*
X149819038Y-102726093D01*
X150043011Y-102819094D01*
X150285525Y-102819306D01*
X150509660Y-102726695D01*
X150681293Y-102555362D01*
X150774294Y-102331389D01*
X150774506Y-102088875D01*
X150681895Y-101864740D01*
X150510562Y-101693107D01*
X150286589Y-101600106D01*
X150044075Y-101599894D01*
X149819940Y-101692505D01*
X149648307Y-101863838D01*
X149555306Y-102087811D01*
X149555094Y-102330325D01*
X131941890Y-102330325D01*
X131714448Y-101989935D01*
X131310671Y-101720140D01*
X130834383Y-101625400D01*
X130785617Y-101625400D01*
X130309329Y-101720140D01*
X129905552Y-101989935D01*
X129635757Y-102393712D01*
X129541017Y-102870000D01*
X129538983Y-102870000D01*
X129444243Y-102393712D01*
X129174448Y-101989935D01*
X128770671Y-101720140D01*
X128294383Y-101625400D01*
X128245617Y-101625400D01*
X127769329Y-101720140D01*
X127365552Y-101989935D01*
X127095757Y-102393712D01*
X127001017Y-102870000D01*
X116042375Y-102870000D01*
X115643557Y-102704396D01*
X115193617Y-102704004D01*
X114777777Y-102875825D01*
X114459344Y-103193703D01*
X114286796Y-103609243D01*
X114286404Y-104059183D01*
X109321582Y-104059183D01*
X109321706Y-103917675D01*
X109229095Y-103693540D01*
X109057762Y-103521907D01*
X108833789Y-103428906D01*
X108591275Y-103428694D01*
X108367140Y-103521305D01*
X108195507Y-103692638D01*
X108102506Y-103916611D01*
X108102294Y-104159125D01*
X83006000Y-104159125D01*
X83006000Y-102076325D01*
X103428694Y-102076325D01*
X103521305Y-102300460D01*
X103692638Y-102472093D01*
X103916611Y-102565094D01*
X104159125Y-102565306D01*
X104236040Y-102533525D01*
X107391094Y-102533525D01*
X107483705Y-102757660D01*
X107655038Y-102929293D01*
X107879011Y-103022294D01*
X108121525Y-103022506D01*
X108345660Y-102929895D01*
X108517293Y-102758562D01*
X108610294Y-102534589D01*
X108610506Y-102292075D01*
X108542350Y-102127125D01*
X110083494Y-102127125D01*
X110176105Y-102351260D01*
X110347438Y-102522893D01*
X110571411Y-102615894D01*
X110813925Y-102616106D01*
X111038060Y-102523495D01*
X111209693Y-102352162D01*
X111302694Y-102128189D01*
X111302906Y-101885675D01*
X111210295Y-101661540D01*
X111038962Y-101489907D01*
X110814989Y-101396906D01*
X110572475Y-101396694D01*
X110348340Y-101489305D01*
X110176707Y-101660638D01*
X110083706Y-101884611D01*
X110083494Y-102127125D01*
X108542350Y-102127125D01*
X108517895Y-102067940D01*
X108346562Y-101896307D01*
X108122589Y-101803306D01*
X107880075Y-101803094D01*
X107655940Y-101895705D01*
X107484307Y-102067038D01*
X107391306Y-102291011D01*
X107391094Y-102533525D01*
X104236040Y-102533525D01*
X104383260Y-102472695D01*
X104554893Y-102301362D01*
X104647894Y-102077389D01*
X104648106Y-101834875D01*
X104555495Y-101610740D01*
X104384162Y-101439107D01*
X104160189Y-101346106D01*
X103917675Y-101345894D01*
X103693540Y-101438505D01*
X103521907Y-101609838D01*
X103428906Y-101833811D01*
X103428694Y-102076325D01*
X83006000Y-102076325D01*
X83006000Y-99434725D01*
X88290294Y-99434725D01*
X88382905Y-99658860D01*
X88554238Y-99830493D01*
X88778211Y-99923494D01*
X89020725Y-99923706D01*
X89244860Y-99831095D01*
X89416493Y-99659762D01*
X89445965Y-99588783D01*
X94220404Y-99588783D01*
X94392225Y-100004623D01*
X94710103Y-100323056D01*
X95125643Y-100495604D01*
X95575583Y-100495996D01*
X95977325Y-100330000D01*
X127001017Y-100330000D01*
X127095757Y-100806288D01*
X127365552Y-101210065D01*
X127769329Y-101479860D01*
X128245617Y-101574600D01*
X128294383Y-101574600D01*
X128770671Y-101479860D01*
X129174448Y-101210065D01*
X129444243Y-100806288D01*
X129538983Y-100330000D01*
X129541017Y-100330000D01*
X129635757Y-100806288D01*
X129905552Y-101210065D01*
X130309329Y-101479860D01*
X130785617Y-101574600D01*
X130834383Y-101574600D01*
X131310671Y-101479860D01*
X131714448Y-101210065D01*
X131984243Y-100806288D01*
X132078983Y-100330000D01*
X131984243Y-99853712D01*
X131714448Y-99449935D01*
X131310671Y-99180140D01*
X130834383Y-99085400D01*
X130785617Y-99085400D01*
X130309329Y-99180140D01*
X129905552Y-99449935D01*
X129635757Y-99853712D01*
X129541017Y-100330000D01*
X129538983Y-100330000D01*
X129444243Y-99853712D01*
X129174448Y-99449935D01*
X128770671Y-99180140D01*
X128294383Y-99085400D01*
X128245617Y-99085400D01*
X127769329Y-99180140D01*
X127365552Y-99449935D01*
X127095757Y-99853712D01*
X127001017Y-100330000D01*
X95977325Y-100330000D01*
X95991423Y-100324175D01*
X96309856Y-100006297D01*
X96482404Y-99590757D01*
X96482451Y-99536325D01*
X100228294Y-99536325D01*
X100320905Y-99760460D01*
X100492238Y-99932093D01*
X100716211Y-100025094D01*
X100958725Y-100025306D01*
X101182860Y-99932695D01*
X101354493Y-99761362D01*
X101426841Y-99587125D01*
X103174694Y-99587125D01*
X103267305Y-99811260D01*
X103438638Y-99982893D01*
X103662611Y-100075894D01*
X103905125Y-100076106D01*
X104129260Y-99983495D01*
X104300893Y-99812162D01*
X104393894Y-99588189D01*
X104394106Y-99345675D01*
X104301495Y-99121540D01*
X104130162Y-98949907D01*
X103951993Y-98875925D01*
X118770294Y-98875925D01*
X118862905Y-99100060D01*
X119034238Y-99271693D01*
X119258211Y-99364694D01*
X119500725Y-99364906D01*
X119724860Y-99272295D01*
X119896493Y-99100962D01*
X119989494Y-98876989D01*
X119989706Y-98634475D01*
X119897095Y-98410340D01*
X119725762Y-98238707D01*
X119501789Y-98145706D01*
X119259275Y-98145494D01*
X119035140Y-98238105D01*
X118863507Y-98409438D01*
X118770506Y-98633411D01*
X118770294Y-98875925D01*
X103951993Y-98875925D01*
X103906189Y-98856906D01*
X103663675Y-98856694D01*
X103439540Y-98949305D01*
X103267907Y-99120638D01*
X103174906Y-99344611D01*
X103174694Y-99587125D01*
X101426841Y-99587125D01*
X101447494Y-99537389D01*
X101447706Y-99294875D01*
X101355095Y-99070740D01*
X101183762Y-98899107D01*
X100959789Y-98806106D01*
X100717275Y-98805894D01*
X100493140Y-98898505D01*
X100321507Y-99069838D01*
X100228506Y-99293811D01*
X100228294Y-99536325D01*
X96482451Y-99536325D01*
X96482796Y-99140817D01*
X96331366Y-98774325D01*
X101701494Y-98774325D01*
X101794105Y-98998460D01*
X101965438Y-99170093D01*
X102189411Y-99263094D01*
X102431925Y-99263306D01*
X102656060Y-99170695D01*
X102827693Y-98999362D01*
X102920694Y-98775389D01*
X102920906Y-98532875D01*
X102828295Y-98308740D01*
X102656962Y-98137107D01*
X102432989Y-98044106D01*
X102190475Y-98043894D01*
X101966340Y-98136505D01*
X101794707Y-98307838D01*
X101701706Y-98531811D01*
X101701494Y-98774325D01*
X96331366Y-98774325D01*
X96310975Y-98724977D01*
X95993097Y-98406544D01*
X95577557Y-98233996D01*
X95127617Y-98233604D01*
X94711777Y-98405425D01*
X94393344Y-98723303D01*
X94220796Y-99138843D01*
X94220404Y-99588783D01*
X89445965Y-99588783D01*
X89509494Y-99435789D01*
X89509706Y-99193275D01*
X89417095Y-98969140D01*
X89245762Y-98797507D01*
X89021789Y-98704506D01*
X88779275Y-98704294D01*
X88555140Y-98796905D01*
X88383507Y-98968238D01*
X88290506Y-99192211D01*
X88290294Y-99434725D01*
X83006000Y-99434725D01*
X83006000Y-97937200D01*
X83116353Y-97937200D01*
X83183415Y-98274344D01*
X83374392Y-98560161D01*
X83660209Y-98751138D01*
X83997353Y-98818200D01*
X84592647Y-98818200D01*
X84929791Y-98751138D01*
X85215608Y-98560161D01*
X85406585Y-98274344D01*
X85473647Y-97937200D01*
X85406585Y-97600056D01*
X85215608Y-97314239D01*
X84929791Y-97123262D01*
X84592647Y-97056200D01*
X83997353Y-97056200D01*
X83660209Y-97123262D01*
X83374392Y-97314239D01*
X83183415Y-97600056D01*
X83116353Y-97937200D01*
X83006000Y-97937200D01*
X83006000Y-96767491D01*
X86139000Y-96767491D01*
X86139000Y-97106909D01*
X86204159Y-97434486D01*
X86389717Y-97712192D01*
X86667423Y-97897750D01*
X86995000Y-97962909D01*
X87257347Y-97910725D01*
X119837094Y-97910725D01*
X119929705Y-98134860D01*
X120101038Y-98306493D01*
X120325011Y-98399494D01*
X120567525Y-98399706D01*
X120791660Y-98307095D01*
X120963293Y-98135762D01*
X121056294Y-97911789D01*
X121056400Y-97790000D01*
X127001017Y-97790000D01*
X127095757Y-98266288D01*
X127365552Y-98670065D01*
X127769329Y-98939860D01*
X128245617Y-99034600D01*
X128294383Y-99034600D01*
X128770671Y-98939860D01*
X129174448Y-98670065D01*
X129444243Y-98266288D01*
X129538983Y-97790000D01*
X129541017Y-97790000D01*
X129635757Y-98266288D01*
X129905552Y-98670065D01*
X130309329Y-98939860D01*
X130785617Y-99034600D01*
X130834383Y-99034600D01*
X131310671Y-98939860D01*
X131714448Y-98670065D01*
X131983110Y-98267983D01*
X158888804Y-98267983D01*
X159060625Y-98683823D01*
X159378503Y-99002256D01*
X159794043Y-99174804D01*
X160243983Y-99175196D01*
X160659823Y-99003375D01*
X160978256Y-98685497D01*
X161150804Y-98269957D01*
X161150805Y-98267983D01*
X161174804Y-98267983D01*
X161346625Y-98683823D01*
X161664503Y-99002256D01*
X162080043Y-99174804D01*
X162529983Y-99175196D01*
X162945823Y-99003375D01*
X163264256Y-98685497D01*
X163436804Y-98269957D01*
X163437196Y-97820017D01*
X163265375Y-97404177D01*
X162947497Y-97085744D01*
X162531957Y-96913196D01*
X162082017Y-96912804D01*
X161666177Y-97084625D01*
X161347744Y-97402503D01*
X161175196Y-97818043D01*
X161174804Y-98267983D01*
X161150805Y-98267983D01*
X161151196Y-97820017D01*
X160979375Y-97404177D01*
X160661497Y-97085744D01*
X160245957Y-96913196D01*
X159796017Y-96912804D01*
X159380177Y-97084625D01*
X159061744Y-97402503D01*
X158889196Y-97818043D01*
X158888804Y-98267983D01*
X131983110Y-98267983D01*
X131984243Y-98266288D01*
X132078983Y-97790000D01*
X131984243Y-97313712D01*
X131772172Y-96996325D01*
X137007494Y-96996325D01*
X137100105Y-97220460D01*
X137271438Y-97392093D01*
X137495411Y-97485094D01*
X137737925Y-97485306D01*
X137962060Y-97392695D01*
X138133693Y-97221362D01*
X138226694Y-96997389D01*
X138226906Y-96754875D01*
X138134295Y-96530740D01*
X137962962Y-96359107D01*
X137738989Y-96266106D01*
X137496475Y-96265894D01*
X137272340Y-96358505D01*
X137100707Y-96529838D01*
X137007706Y-96753811D01*
X137007494Y-96996325D01*
X131772172Y-96996325D01*
X131714448Y-96909935D01*
X131310671Y-96640140D01*
X130834383Y-96545400D01*
X130785617Y-96545400D01*
X130309329Y-96640140D01*
X129905552Y-96909935D01*
X129635757Y-97313712D01*
X129541017Y-97790000D01*
X129538983Y-97790000D01*
X129444243Y-97313712D01*
X129174448Y-96909935D01*
X128770671Y-96640140D01*
X128294383Y-96545400D01*
X128245617Y-96545400D01*
X127769329Y-96640140D01*
X127365552Y-96909935D01*
X127095757Y-97313712D01*
X127001017Y-97790000D01*
X121056400Y-97790000D01*
X121056506Y-97669275D01*
X120963895Y-97445140D01*
X120792562Y-97273507D01*
X120568589Y-97180506D01*
X120326075Y-97180294D01*
X120101940Y-97272905D01*
X119930307Y-97444238D01*
X119837306Y-97668211D01*
X119837094Y-97910725D01*
X87257347Y-97910725D01*
X87322577Y-97897750D01*
X87600283Y-97712192D01*
X87785841Y-97434486D01*
X87851000Y-97106909D01*
X87851000Y-96767491D01*
X87785841Y-96439914D01*
X87600283Y-96162208D01*
X87322577Y-95976650D01*
X86995000Y-95911491D01*
X86667423Y-95976650D01*
X86389717Y-96162208D01*
X86204159Y-96439914D01*
X86139000Y-96767491D01*
X83006000Y-96767491D01*
X83006000Y-95827925D01*
X98856694Y-95827925D01*
X98949305Y-96052060D01*
X99120638Y-96223693D01*
X99344611Y-96316694D01*
X99587125Y-96316906D01*
X99811260Y-96224295D01*
X99982893Y-96052962D01*
X100075894Y-95828989D01*
X100076106Y-95586475D01*
X99983495Y-95362340D01*
X99890443Y-95269125D01*
X110134294Y-95269125D01*
X110226905Y-95493260D01*
X110398238Y-95664893D01*
X110622211Y-95757894D01*
X110864725Y-95758106D01*
X111088860Y-95665495D01*
X111260493Y-95494162D01*
X111353494Y-95270189D01*
X111353706Y-95027675D01*
X111348521Y-95015125D01*
X112775894Y-95015125D01*
X112868505Y-95239260D01*
X113039838Y-95410893D01*
X113263811Y-95503894D01*
X113506325Y-95504106D01*
X113730460Y-95411495D01*
X113892237Y-95250000D01*
X127001017Y-95250000D01*
X127095757Y-95726288D01*
X127365552Y-96130065D01*
X127769329Y-96399860D01*
X128245617Y-96494600D01*
X128294383Y-96494600D01*
X128770671Y-96399860D01*
X129174448Y-96130065D01*
X129444243Y-95726288D01*
X129538983Y-95250000D01*
X129541017Y-95250000D01*
X129635757Y-95726288D01*
X129905552Y-96130065D01*
X130309329Y-96399860D01*
X130785617Y-96494600D01*
X130834383Y-96494600D01*
X131310671Y-96399860D01*
X131520397Y-96259725D01*
X151917294Y-96259725D01*
X152009905Y-96483860D01*
X152181238Y-96655493D01*
X152405211Y-96748494D01*
X152647725Y-96748706D01*
X152871860Y-96656095D01*
X152907912Y-96620106D01*
X152943238Y-96655493D01*
X153167211Y-96748494D01*
X153187311Y-96748512D01*
X153187294Y-96767725D01*
X153279905Y-96991860D01*
X153451238Y-97163493D01*
X153675211Y-97256494D01*
X153708249Y-97256523D01*
X153695506Y-97287211D01*
X153695294Y-97529725D01*
X153787905Y-97753860D01*
X153959238Y-97925493D01*
X154183211Y-98018494D01*
X154425725Y-98018706D01*
X154649860Y-97926095D01*
X154821493Y-97754762D01*
X154870122Y-97637650D01*
X154933725Y-97637706D01*
X155157860Y-97545095D01*
X155329493Y-97373762D01*
X155422494Y-97149789D01*
X155422512Y-97129689D01*
X155441725Y-97129706D01*
X155665860Y-97037095D01*
X155837493Y-96865762D01*
X155886122Y-96748650D01*
X155949725Y-96748706D01*
X156173860Y-96656095D01*
X156345493Y-96484762D01*
X156438494Y-96260789D01*
X156438706Y-96018275D01*
X156346095Y-95794140D01*
X156174762Y-95622507D01*
X155950789Y-95529506D01*
X155708275Y-95529294D01*
X155484140Y-95621905D01*
X155312507Y-95793238D01*
X155263878Y-95910350D01*
X155200275Y-95910294D01*
X154976140Y-96002905D01*
X154804507Y-96174238D01*
X154711506Y-96398211D01*
X154711488Y-96418311D01*
X154692275Y-96418294D01*
X154468140Y-96510905D01*
X154406666Y-96572272D01*
X154406706Y-96526275D01*
X154314095Y-96302140D01*
X154142762Y-96130507D01*
X153918789Y-96037506D01*
X153898689Y-96037488D01*
X153898706Y-96018275D01*
X153806095Y-95794140D01*
X153634762Y-95622507D01*
X153410789Y-95529506D01*
X153168275Y-95529294D01*
X152944140Y-95621905D01*
X152908088Y-95657894D01*
X152872762Y-95622507D01*
X152648789Y-95529506D01*
X152406275Y-95529294D01*
X152182140Y-95621905D01*
X152010507Y-95793238D01*
X151917506Y-96017211D01*
X151917294Y-96259725D01*
X131520397Y-96259725D01*
X131714448Y-96130065D01*
X131984243Y-95726288D01*
X132054969Y-95370725D01*
X137312294Y-95370725D01*
X137404905Y-95594860D01*
X137576238Y-95766493D01*
X137800211Y-95859494D01*
X138042725Y-95859706D01*
X138266860Y-95767095D01*
X138438493Y-95595762D01*
X138531494Y-95371789D01*
X138531706Y-95129275D01*
X138439095Y-94905140D01*
X138267762Y-94733507D01*
X138043789Y-94640506D01*
X137801275Y-94640294D01*
X137577140Y-94732905D01*
X137405507Y-94904238D01*
X137312506Y-95128211D01*
X137312294Y-95370725D01*
X132054969Y-95370725D01*
X132078983Y-95250000D01*
X131984243Y-94773712D01*
X131714448Y-94369935D01*
X131310671Y-94100140D01*
X130834383Y-94005400D01*
X130785617Y-94005400D01*
X130309329Y-94100140D01*
X129905552Y-94369935D01*
X129635757Y-94773712D01*
X129541017Y-95250000D01*
X129538983Y-95250000D01*
X129444243Y-94773712D01*
X129174448Y-94369935D01*
X128770671Y-94100140D01*
X128294383Y-94005400D01*
X128245617Y-94005400D01*
X127769329Y-94100140D01*
X127365552Y-94369935D01*
X127095757Y-94773712D01*
X127001017Y-95250000D01*
X113892237Y-95250000D01*
X113902093Y-95240162D01*
X113995094Y-95016189D01*
X113995306Y-94773675D01*
X113902695Y-94549540D01*
X113731362Y-94377907D01*
X113507389Y-94284906D01*
X113264875Y-94284694D01*
X113040740Y-94377305D01*
X112869107Y-94548638D01*
X112776106Y-94772611D01*
X112775894Y-95015125D01*
X111348521Y-95015125D01*
X111261095Y-94803540D01*
X111089762Y-94631907D01*
X110865789Y-94538906D01*
X110623275Y-94538694D01*
X110399140Y-94631305D01*
X110227507Y-94802638D01*
X110134506Y-95026611D01*
X110134294Y-95269125D01*
X99890443Y-95269125D01*
X99812162Y-95190707D01*
X99588189Y-95097706D01*
X99345675Y-95097494D01*
X99121540Y-95190105D01*
X98949907Y-95361438D01*
X98856906Y-95585411D01*
X98856694Y-95827925D01*
X83006000Y-95827925D01*
X83006000Y-93948325D01*
X101752294Y-93948325D01*
X101844905Y-94172460D01*
X102016238Y-94344093D01*
X102240211Y-94437094D01*
X102482725Y-94437306D01*
X102706860Y-94344695D01*
X102878493Y-94173362D01*
X102971494Y-93949389D01*
X102971706Y-93706875D01*
X102966521Y-93694325D01*
X113283894Y-93694325D01*
X113376505Y-93918460D01*
X113547838Y-94090093D01*
X113771811Y-94183094D01*
X114014325Y-94183306D01*
X114238460Y-94090695D01*
X114410093Y-93919362D01*
X114503094Y-93695389D01*
X114503306Y-93452875D01*
X114410695Y-93228740D01*
X114239362Y-93057107D01*
X114015389Y-92964106D01*
X113772875Y-92963894D01*
X113548740Y-93056505D01*
X113377107Y-93227838D01*
X113284106Y-93451811D01*
X113283894Y-93694325D01*
X102966521Y-93694325D01*
X102879095Y-93482740D01*
X102707762Y-93311107D01*
X102483789Y-93218106D01*
X102241275Y-93217894D01*
X102017140Y-93310505D01*
X101845507Y-93481838D01*
X101752506Y-93705811D01*
X101752294Y-93948325D01*
X83006000Y-93948325D01*
X83006000Y-93287925D01*
X98958294Y-93287925D01*
X99050905Y-93512060D01*
X99222238Y-93683693D01*
X99446211Y-93776694D01*
X99688725Y-93776906D01*
X99912860Y-93684295D01*
X100084493Y-93512962D01*
X100177494Y-93288989D01*
X100177706Y-93046475D01*
X100085095Y-92822340D01*
X99972952Y-92710000D01*
X127001017Y-92710000D01*
X127095757Y-93186288D01*
X127365552Y-93590065D01*
X127769329Y-93859860D01*
X128245617Y-93954600D01*
X128294383Y-93954600D01*
X128770671Y-93859860D01*
X129174448Y-93590065D01*
X129444243Y-93186288D01*
X129538983Y-92710000D01*
X129541017Y-92710000D01*
X129635757Y-93186288D01*
X129905552Y-93590065D01*
X130309329Y-93859860D01*
X130785617Y-93954600D01*
X130834383Y-93954600D01*
X131310671Y-93859860D01*
X131710467Y-93592725D01*
X150266294Y-93592725D01*
X150358905Y-93816860D01*
X150530238Y-93988493D01*
X150754211Y-94081494D01*
X150996725Y-94081706D01*
X151220860Y-93989095D01*
X151392493Y-93817762D01*
X151485494Y-93593789D01*
X151485706Y-93351275D01*
X151393095Y-93127140D01*
X151223977Y-92957725D01*
X157886294Y-92957725D01*
X157978905Y-93181860D01*
X158150238Y-93353493D01*
X158374211Y-93446494D01*
X158521422Y-93446623D01*
X158521294Y-93592725D01*
X158613905Y-93816860D01*
X158785238Y-93988493D01*
X159009211Y-94081494D01*
X159251725Y-94081706D01*
X159475860Y-93989095D01*
X159647493Y-93817762D01*
X159740494Y-93593789D01*
X159740706Y-93351275D01*
X159648095Y-93127140D01*
X159476762Y-92955507D01*
X159252789Y-92862506D01*
X159105578Y-92862377D01*
X159105706Y-92716275D01*
X159013095Y-92492140D01*
X158841762Y-92320507D01*
X158617789Y-92227506D01*
X158375275Y-92227294D01*
X158151140Y-92319905D01*
X157979507Y-92491238D01*
X157886506Y-92715211D01*
X157886294Y-92957725D01*
X151223977Y-92957725D01*
X151221762Y-92955507D01*
X150997789Y-92862506D01*
X150755275Y-92862294D01*
X150531140Y-92954905D01*
X150359507Y-93126238D01*
X150266506Y-93350211D01*
X150266294Y-93592725D01*
X131710467Y-93592725D01*
X131714448Y-93590065D01*
X131984243Y-93186288D01*
X132054969Y-92830725D01*
X137312294Y-92830725D01*
X137404905Y-93054860D01*
X137576238Y-93226493D01*
X137800211Y-93319494D01*
X138042725Y-93319706D01*
X138266860Y-93227095D01*
X138438493Y-93055762D01*
X138531494Y-92831789D01*
X138531706Y-92589275D01*
X138439095Y-92365140D01*
X138267762Y-92193507D01*
X138043789Y-92100506D01*
X137801275Y-92100294D01*
X137577140Y-92192905D01*
X137405507Y-92364238D01*
X137312506Y-92588211D01*
X137312294Y-92830725D01*
X132054969Y-92830725D01*
X132078983Y-92710000D01*
X131984243Y-92233712D01*
X131714448Y-91829935D01*
X131310671Y-91560140D01*
X130834383Y-91465400D01*
X130785617Y-91465400D01*
X130309329Y-91560140D01*
X129905552Y-91829935D01*
X129635757Y-92233712D01*
X129541017Y-92710000D01*
X129538983Y-92710000D01*
X129444243Y-92233712D01*
X129174448Y-91829935D01*
X128770671Y-91560140D01*
X128294383Y-91465400D01*
X128245617Y-91465400D01*
X127769329Y-91560140D01*
X127365552Y-91829935D01*
X127095757Y-92233712D01*
X127001017Y-92710000D01*
X99972952Y-92710000D01*
X99913762Y-92650707D01*
X99689789Y-92557706D01*
X99447275Y-92557494D01*
X99223140Y-92650105D01*
X99051507Y-92821438D01*
X98958506Y-93045411D01*
X98958294Y-93287925D01*
X83006000Y-93287925D01*
X83006000Y-90937200D01*
X83116353Y-90937200D01*
X83183415Y-91274344D01*
X83374392Y-91560161D01*
X83660209Y-91751138D01*
X83997353Y-91818200D01*
X84592647Y-91818200D01*
X84847578Y-91767491D01*
X86139000Y-91767491D01*
X86139000Y-92106909D01*
X86204159Y-92434486D01*
X86389717Y-92712192D01*
X86667423Y-92897750D01*
X86995000Y-92962909D01*
X87322577Y-92897750D01*
X87600283Y-92712192D01*
X87785841Y-92434486D01*
X87851000Y-92106909D01*
X87851000Y-91767491D01*
X87785841Y-91439914D01*
X87600283Y-91162208D01*
X87360404Y-91001925D01*
X97993094Y-91001925D01*
X98085705Y-91226060D01*
X98257038Y-91397693D01*
X98481011Y-91490694D01*
X98723525Y-91490906D01*
X98947660Y-91398295D01*
X99119293Y-91226962D01*
X99191641Y-91052725D01*
X107137094Y-91052725D01*
X107229705Y-91276860D01*
X107401038Y-91448493D01*
X107625011Y-91541494D01*
X107867525Y-91541706D01*
X108091660Y-91449095D01*
X108204046Y-91336906D01*
X108315438Y-91448493D01*
X108539411Y-91541494D01*
X108781925Y-91541706D01*
X109006060Y-91449095D01*
X109177693Y-91277762D01*
X109270694Y-91053789D01*
X109270906Y-90811275D01*
X109178295Y-90587140D01*
X109006962Y-90415507D01*
X108782989Y-90322506D01*
X108540475Y-90322294D01*
X108316340Y-90414905D01*
X108203954Y-90527094D01*
X108092562Y-90415507D01*
X107868589Y-90322506D01*
X107626075Y-90322294D01*
X107401940Y-90414905D01*
X107230307Y-90586238D01*
X107137306Y-90810211D01*
X107137094Y-91052725D01*
X99191641Y-91052725D01*
X99212294Y-91002989D01*
X99212506Y-90760475D01*
X99119895Y-90536340D01*
X98948562Y-90364707D01*
X98724589Y-90271706D01*
X98482075Y-90271494D01*
X98257940Y-90364105D01*
X98086307Y-90535438D01*
X97993306Y-90759411D01*
X97993094Y-91001925D01*
X87360404Y-91001925D01*
X87322577Y-90976650D01*
X86995000Y-90911491D01*
X86667423Y-90976650D01*
X86389717Y-91162208D01*
X86204159Y-91439914D01*
X86139000Y-91767491D01*
X84847578Y-91767491D01*
X84929791Y-91751138D01*
X85215608Y-91560161D01*
X85406585Y-91274344D01*
X85473647Y-90937200D01*
X85406585Y-90600056D01*
X85215608Y-90314239D01*
X84999740Y-90170000D01*
X127001017Y-90170000D01*
X127095757Y-90646288D01*
X127365552Y-91050065D01*
X127769329Y-91319860D01*
X128245617Y-91414600D01*
X128294383Y-91414600D01*
X128770671Y-91319860D01*
X129174448Y-91050065D01*
X129444243Y-90646288D01*
X129538983Y-90170000D01*
X129541017Y-90170000D01*
X129635757Y-90646288D01*
X129905552Y-91050065D01*
X130309329Y-91319860D01*
X130785617Y-91414600D01*
X130834383Y-91414600D01*
X131310671Y-91319860D01*
X131714448Y-91050065D01*
X131984243Y-90646288D01*
X132054969Y-90290725D01*
X137312294Y-90290725D01*
X137404905Y-90514860D01*
X137576238Y-90686493D01*
X137800211Y-90779494D01*
X138042725Y-90779706D01*
X138266860Y-90687095D01*
X138282256Y-90671725D01*
X150520294Y-90671725D01*
X150612905Y-90895860D01*
X150784238Y-91067493D01*
X151008211Y-91160494D01*
X151250725Y-91160706D01*
X151474860Y-91068095D01*
X151646493Y-90896762D01*
X151739494Y-90672789D01*
X151739706Y-90430275D01*
X151647095Y-90206140D01*
X151475762Y-90034507D01*
X151251789Y-89941506D01*
X151009275Y-89941294D01*
X150785140Y-90033905D01*
X150613507Y-90205238D01*
X150520506Y-90429211D01*
X150520294Y-90671725D01*
X138282256Y-90671725D01*
X138438493Y-90515762D01*
X138531494Y-90291789D01*
X138531706Y-90049275D01*
X138439095Y-89825140D01*
X138267762Y-89653507D01*
X138043789Y-89560506D01*
X137801275Y-89560294D01*
X137577140Y-89652905D01*
X137405507Y-89824238D01*
X137312506Y-90048211D01*
X137312294Y-90290725D01*
X132054969Y-90290725D01*
X132078983Y-90170000D01*
X131984243Y-89693712D01*
X131714448Y-89289935D01*
X131310671Y-89020140D01*
X130834383Y-88925400D01*
X130785617Y-88925400D01*
X130309329Y-89020140D01*
X129905552Y-89289935D01*
X129635757Y-89693712D01*
X129541017Y-90170000D01*
X129538983Y-90170000D01*
X129444243Y-89693712D01*
X129174448Y-89289935D01*
X128770671Y-89020140D01*
X128294383Y-88925400D01*
X128245617Y-88925400D01*
X127769329Y-89020140D01*
X127365552Y-89289935D01*
X127095757Y-89693712D01*
X127001017Y-90170000D01*
X84999740Y-90170000D01*
X84929791Y-90123262D01*
X84592647Y-90056200D01*
X83997353Y-90056200D01*
X83660209Y-90123262D01*
X83374392Y-90314239D01*
X83183415Y-90600056D01*
X83116353Y-90937200D01*
X83006000Y-90937200D01*
X83006000Y-87599983D01*
X86803604Y-87599983D01*
X86975425Y-88015823D01*
X87293303Y-88334256D01*
X87708843Y-88506804D01*
X88158783Y-88507196D01*
X88574623Y-88335375D01*
X88893056Y-88017497D01*
X88919453Y-87953925D01*
X106679894Y-87953925D01*
X106772505Y-88178060D01*
X106943838Y-88349693D01*
X107167811Y-88442694D01*
X107410325Y-88442906D01*
X107634460Y-88350295D01*
X107806093Y-88178962D01*
X107899094Y-87954989D01*
X107899094Y-87953925D01*
X108610294Y-87953925D01*
X108702905Y-88178060D01*
X108874238Y-88349693D01*
X109098211Y-88442694D01*
X109340725Y-88442906D01*
X109564860Y-88350295D01*
X109736493Y-88178962D01*
X109829494Y-87954989D01*
X109829706Y-87712475D01*
X109737095Y-87488340D01*
X109565762Y-87316707D01*
X109341789Y-87223706D01*
X109099275Y-87223494D01*
X108875140Y-87316105D01*
X108703507Y-87487438D01*
X108610506Y-87711411D01*
X108610294Y-87953925D01*
X107899094Y-87953925D01*
X107899306Y-87712475D01*
X107806695Y-87488340D01*
X107635362Y-87316707D01*
X107411389Y-87223706D01*
X107168875Y-87223494D01*
X106944740Y-87316105D01*
X106773107Y-87487438D01*
X106680106Y-87711411D01*
X106679894Y-87953925D01*
X88919453Y-87953925D01*
X89065604Y-87601957D01*
X89065996Y-87152017D01*
X88894175Y-86736177D01*
X88576297Y-86417744D01*
X88160757Y-86245196D01*
X87710817Y-86244804D01*
X87294977Y-86416625D01*
X86976544Y-86734503D01*
X86803996Y-87150043D01*
X86803604Y-87599983D01*
X83006000Y-87599983D01*
X83006000Y-85449026D01*
X126815042Y-85449026D01*
X126987312Y-85864947D01*
X127381510Y-86296821D01*
X127771662Y-86479676D01*
X127769329Y-86480140D01*
X127365552Y-86749935D01*
X127095757Y-87153712D01*
X127001017Y-87630000D01*
X127095757Y-88106288D01*
X127365552Y-88510065D01*
X127769329Y-88779860D01*
X128245617Y-88874600D01*
X128294383Y-88874600D01*
X128770671Y-88779860D01*
X129174448Y-88510065D01*
X129444243Y-88106288D01*
X129538983Y-87630000D01*
X129444243Y-87153712D01*
X129174448Y-86749935D01*
X128770671Y-86480140D01*
X128768338Y-86479676D01*
X129158490Y-86296821D01*
X129540000Y-85878848D01*
X129921510Y-86296821D01*
X130311662Y-86479676D01*
X130309329Y-86480140D01*
X129905552Y-86749935D01*
X129635757Y-87153712D01*
X129541017Y-87630000D01*
X129635757Y-88106288D01*
X129905552Y-88510065D01*
X130309329Y-88779860D01*
X130785617Y-88874600D01*
X130834383Y-88874600D01*
X131310671Y-88779860D01*
X131520397Y-88639725D01*
X137312294Y-88639725D01*
X137404905Y-88863860D01*
X137576238Y-89035493D01*
X137800211Y-89128494D01*
X138042725Y-89128706D01*
X138266860Y-89036095D01*
X138438493Y-88864762D01*
X138531494Y-88640789D01*
X138531706Y-88398275D01*
X138528229Y-88389859D01*
X162538546Y-88389859D01*
X162673904Y-88687855D01*
X163392280Y-88964466D01*
X164161827Y-88945110D01*
X164782896Y-88687855D01*
X164918254Y-88389859D01*
X167618546Y-88389859D01*
X167753904Y-88687855D01*
X168472280Y-88964466D01*
X169241827Y-88945110D01*
X169862896Y-88687855D01*
X169998254Y-88389859D01*
X168808400Y-87200005D01*
X167618546Y-88389859D01*
X164918254Y-88389859D01*
X163728400Y-87200005D01*
X162538546Y-88389859D01*
X138528229Y-88389859D01*
X138439095Y-88174140D01*
X138267762Y-88002507D01*
X138043789Y-87909506D01*
X137801275Y-87909294D01*
X137577140Y-88001905D01*
X137405507Y-88173238D01*
X137312506Y-88397211D01*
X137312294Y-88639725D01*
X131520397Y-88639725D01*
X131714448Y-88510065D01*
X131984243Y-88106288D01*
X132078983Y-87630000D01*
X131984243Y-87153712D01*
X131714448Y-86749935D01*
X131616189Y-86684280D01*
X161784334Y-86684280D01*
X161803690Y-87453827D01*
X162060945Y-88074896D01*
X162358941Y-88210254D01*
X163548795Y-87020400D01*
X163908005Y-87020400D01*
X165097859Y-88210254D01*
X165395855Y-88074896D01*
X165672466Y-87356520D01*
X165653110Y-86586973D01*
X165395855Y-85965904D01*
X165097859Y-85830546D01*
X163908005Y-87020400D01*
X163548795Y-87020400D01*
X162358941Y-85830546D01*
X162060945Y-85965904D01*
X161784334Y-86684280D01*
X131616189Y-86684280D01*
X131310671Y-86480140D01*
X131308338Y-86479676D01*
X131698490Y-86296821D01*
X132092688Y-85864947D01*
X132181326Y-85650941D01*
X162538546Y-85650941D01*
X163728400Y-86840795D01*
X164918254Y-85650941D01*
X164782896Y-85352945D01*
X164064520Y-85076334D01*
X163294973Y-85095690D01*
X162673904Y-85352945D01*
X162538546Y-85650941D01*
X132181326Y-85650941D01*
X132264958Y-85449026D01*
X132143817Y-85217000D01*
X130937000Y-85217000D01*
X130937000Y-85237000D01*
X130683000Y-85237000D01*
X130683000Y-85217000D01*
X128397000Y-85217000D01*
X128397000Y-85237000D01*
X128143000Y-85237000D01*
X128143000Y-85217000D01*
X126936183Y-85217000D01*
X126815042Y-85449026D01*
X83006000Y-85449026D01*
X83006000Y-84196383D01*
X83654004Y-84196383D01*
X83825825Y-84612223D01*
X84143703Y-84930656D01*
X84559243Y-85103204D01*
X85009183Y-85103596D01*
X85425023Y-84931775D01*
X85626174Y-84730974D01*
X126815042Y-84730974D01*
X126936183Y-84963000D01*
X128143000Y-84963000D01*
X128143000Y-84943000D01*
X128397000Y-84943000D01*
X128397000Y-84963000D01*
X130683000Y-84963000D01*
X130683000Y-84943000D01*
X130937000Y-84943000D01*
X130937000Y-84963000D01*
X132143817Y-84963000D01*
X132264958Y-84730974D01*
X132263894Y-84728403D01*
X164737118Y-84728403D01*
X164984899Y-85328080D01*
X165443307Y-85787288D01*
X166042551Y-86036116D01*
X166691403Y-86036682D01*
X167291080Y-85788901D01*
X167344233Y-85735841D01*
X167438939Y-85830547D01*
X167140945Y-85965904D01*
X166864334Y-86684280D01*
X166883690Y-87453827D01*
X167140945Y-88074896D01*
X167438941Y-88210254D01*
X168628795Y-87020400D01*
X168988005Y-87020400D01*
X170177859Y-88210254D01*
X170475855Y-88074896D01*
X170752466Y-87356520D01*
X170733110Y-86586973D01*
X170475855Y-85965904D01*
X170177859Y-85830546D01*
X168988005Y-87020400D01*
X168628795Y-87020400D01*
X168614653Y-87006258D01*
X168794258Y-86826653D01*
X168808400Y-86840795D01*
X169998254Y-85650941D01*
X169862896Y-85352945D01*
X169144520Y-85076334D01*
X168374973Y-85095690D01*
X167753904Y-85352945D01*
X167618547Y-85650939D01*
X167523997Y-85556389D01*
X167750288Y-85330493D01*
X167999116Y-84731249D01*
X167999682Y-84082397D01*
X167813009Y-83630613D01*
X168472280Y-83884466D01*
X169241827Y-83865110D01*
X169862896Y-83607855D01*
X169998254Y-83309859D01*
X168808400Y-82120005D01*
X168794258Y-82134148D01*
X168614653Y-81954543D01*
X168628795Y-81940400D01*
X168988005Y-81940400D01*
X170177859Y-83130254D01*
X170475855Y-82994896D01*
X170752466Y-82276520D01*
X170733110Y-81506973D01*
X170475855Y-80885904D01*
X170177859Y-80750546D01*
X168988005Y-81940400D01*
X168628795Y-81940400D01*
X167438941Y-80750546D01*
X167140945Y-80885904D01*
X166864334Y-81604280D01*
X166883690Y-82373827D01*
X167123572Y-82952955D01*
X166694249Y-82774684D01*
X166045397Y-82774118D01*
X165445720Y-83021899D01*
X164986512Y-83480307D01*
X164737684Y-84079551D01*
X164737118Y-84728403D01*
X132263894Y-84728403D01*
X132092688Y-84315053D01*
X131698490Y-83883179D01*
X131308338Y-83700324D01*
X131310671Y-83699860D01*
X131714448Y-83430065D01*
X131794767Y-83309859D01*
X162538546Y-83309859D01*
X162673904Y-83607855D01*
X163392280Y-83884466D01*
X164161827Y-83865110D01*
X164782896Y-83607855D01*
X164918254Y-83309859D01*
X163728400Y-82120005D01*
X162538546Y-83309859D01*
X131794767Y-83309859D01*
X131984243Y-83026288D01*
X132078983Y-82550000D01*
X131984243Y-82073712D01*
X131714448Y-81669935D01*
X131616189Y-81604280D01*
X161784334Y-81604280D01*
X161803690Y-82373827D01*
X162060945Y-82994896D01*
X162358941Y-83130254D01*
X163548795Y-81940400D01*
X163908005Y-81940400D01*
X165097859Y-83130254D01*
X165395855Y-82994896D01*
X165672466Y-82276520D01*
X165653110Y-81506973D01*
X165395855Y-80885904D01*
X165097859Y-80750546D01*
X163908005Y-81940400D01*
X163548795Y-81940400D01*
X162358941Y-80750546D01*
X162060945Y-80885904D01*
X161784334Y-81604280D01*
X131616189Y-81604280D01*
X131310671Y-81400140D01*
X130834383Y-81305400D01*
X130785617Y-81305400D01*
X130309329Y-81400140D01*
X129905552Y-81669935D01*
X129635757Y-82073712D01*
X129541017Y-82550000D01*
X129635757Y-83026288D01*
X129905552Y-83430065D01*
X130309329Y-83699860D01*
X130311662Y-83700324D01*
X129921510Y-83883179D01*
X129540000Y-84301152D01*
X129158490Y-83883179D01*
X128985418Y-83802064D01*
X129133600Y-83802064D01*
X129274790Y-83775497D01*
X129404465Y-83692054D01*
X129491459Y-83564734D01*
X129522064Y-83413600D01*
X129522064Y-81686400D01*
X129495497Y-81545210D01*
X129412054Y-81415535D01*
X129284734Y-81328541D01*
X129133600Y-81297936D01*
X127406400Y-81297936D01*
X127265210Y-81324503D01*
X127135535Y-81407946D01*
X127048541Y-81535266D01*
X127017936Y-81686400D01*
X127017936Y-83413600D01*
X127044503Y-83554790D01*
X127127946Y-83684465D01*
X127255266Y-83771459D01*
X127406400Y-83802064D01*
X127554582Y-83802064D01*
X127381510Y-83883179D01*
X126987312Y-84315053D01*
X126815042Y-84730974D01*
X85626174Y-84730974D01*
X85743456Y-84613897D01*
X85916004Y-84198357D01*
X85916396Y-83748417D01*
X85744575Y-83332577D01*
X85426697Y-83014144D01*
X85011157Y-82841596D01*
X84561217Y-82841204D01*
X84145377Y-83013025D01*
X83826944Y-83330903D01*
X83654396Y-83746443D01*
X83654004Y-84196383D01*
X83006000Y-84196383D01*
X83006000Y-82062783D01*
X106412404Y-82062783D01*
X106584225Y-82478623D01*
X106902103Y-82797056D01*
X107317643Y-82969604D01*
X107767583Y-82969996D01*
X108183423Y-82798175D01*
X108462100Y-82519983D01*
X114184804Y-82519983D01*
X114356625Y-82935823D01*
X114674503Y-83254256D01*
X115090043Y-83426804D01*
X115539983Y-83427196D01*
X115955823Y-83255375D01*
X116274256Y-82937497D01*
X116446804Y-82521957D01*
X116447196Y-82072017D01*
X116275375Y-81656177D01*
X115957497Y-81337744D01*
X115541957Y-81165196D01*
X115092017Y-81164804D01*
X114676177Y-81336625D01*
X114357744Y-81654503D01*
X114185196Y-82070043D01*
X114184804Y-82519983D01*
X108462100Y-82519983D01*
X108501856Y-82480297D01*
X108674404Y-82064757D01*
X108674796Y-81614817D01*
X108502975Y-81198977D01*
X108185097Y-80880544D01*
X107908584Y-80765725D01*
X129184294Y-80765725D01*
X129276905Y-80989860D01*
X129448238Y-81161493D01*
X129672211Y-81254494D01*
X129914725Y-81254706D01*
X130138860Y-81162095D01*
X130310493Y-80990762D01*
X130403494Y-80766789D01*
X130403665Y-80570941D01*
X162538546Y-80570941D01*
X163728400Y-81760795D01*
X164918254Y-80570941D01*
X167618546Y-80570941D01*
X168808400Y-81760795D01*
X169998254Y-80570941D01*
X169862896Y-80272945D01*
X169144520Y-79996334D01*
X168374973Y-80015690D01*
X167753904Y-80272945D01*
X167618546Y-80570941D01*
X164918254Y-80570941D01*
X164782896Y-80272945D01*
X164064520Y-79996334D01*
X163294973Y-80015690D01*
X162673904Y-80272945D01*
X162538546Y-80570941D01*
X130403665Y-80570941D01*
X130403706Y-80524275D01*
X130311095Y-80300140D01*
X130139762Y-80128507D01*
X129915789Y-80035506D01*
X129673275Y-80035294D01*
X129449140Y-80127905D01*
X129277507Y-80299238D01*
X129184506Y-80523211D01*
X129184294Y-80765725D01*
X107908584Y-80765725D01*
X107769557Y-80707996D01*
X107319617Y-80707604D01*
X106903777Y-80879425D01*
X106585344Y-81197303D01*
X106412796Y-81612843D01*
X106412404Y-82062783D01*
X83006000Y-82062783D01*
X83006000Y-80995983D01*
X99452804Y-80995983D01*
X99624625Y-81411823D01*
X99942503Y-81730256D01*
X100358043Y-81902804D01*
X100807983Y-81903196D01*
X101223823Y-81731375D01*
X101542256Y-81413497D01*
X101714804Y-80997957D01*
X101715196Y-80548017D01*
X101543375Y-80132177D01*
X101225497Y-79813744D01*
X100809957Y-79641196D01*
X100360017Y-79640804D01*
X99944177Y-79812625D01*
X99625744Y-80130503D01*
X99453196Y-80546043D01*
X99452804Y-80995983D01*
X83006000Y-80995983D01*
X83006000Y-79446583D01*
X116089804Y-79446583D01*
X116261625Y-79862423D01*
X116579503Y-80180856D01*
X116995043Y-80353404D01*
X117444983Y-80353796D01*
X117860823Y-80181975D01*
X118179256Y-79864097D01*
X118351804Y-79448557D01*
X118352196Y-78998617D01*
X118180375Y-78582777D01*
X117862497Y-78264344D01*
X117446957Y-78091796D01*
X116997017Y-78091404D01*
X116581177Y-78263225D01*
X116262744Y-78581103D01*
X116090196Y-78996643D01*
X116089804Y-79446583D01*
X83006000Y-79446583D01*
X83006000Y-78352725D01*
X95605494Y-78352725D01*
X95698105Y-78576860D01*
X95869438Y-78748493D01*
X96093411Y-78841494D01*
X96335925Y-78841706D01*
X96560060Y-78749095D01*
X96731693Y-78577762D01*
X96824694Y-78353789D01*
X96824906Y-78111275D01*
X96732295Y-77887140D01*
X96560962Y-77715507D01*
X96336989Y-77622506D01*
X96094475Y-77622294D01*
X95870340Y-77714905D01*
X95698707Y-77886238D01*
X95605706Y-78110211D01*
X95605494Y-78352725D01*
X83006000Y-78352725D01*
X83006000Y-77590725D01*
X137947294Y-77590725D01*
X138039905Y-77814860D01*
X138211238Y-77986493D01*
X138435211Y-78079494D01*
X138677725Y-78079706D01*
X138901860Y-77987095D01*
X139073493Y-77815762D01*
X139166494Y-77591789D01*
X139166706Y-77349275D01*
X139074095Y-77125140D01*
X138902762Y-76953507D01*
X138678789Y-76860506D01*
X138436275Y-76860294D01*
X138212140Y-76952905D01*
X138040507Y-77124238D01*
X137947506Y-77348211D01*
X137947294Y-77590725D01*
X83006000Y-77590725D01*
X83006000Y-75915983D01*
X93356804Y-75915983D01*
X93528625Y-76331823D01*
X93846503Y-76650256D01*
X94262043Y-76822804D01*
X94711983Y-76823196D01*
X95127823Y-76651375D01*
X95446256Y-76333497D01*
X95618804Y-75917957D01*
X95619196Y-75468017D01*
X95554319Y-75311000D01*
X152200001Y-75311000D01*
X152244227Y-75533339D01*
X152370172Y-75721828D01*
X152558661Y-75847773D01*
X152781000Y-75891999D01*
X152908000Y-75891999D01*
X153130339Y-75847773D01*
X153318828Y-75721828D01*
X153444773Y-75533339D01*
X153488999Y-75311000D01*
X153473299Y-75232067D01*
X170704000Y-75232067D01*
X170704000Y-75897933D01*
X170809122Y-76426419D01*
X171108486Y-76874447D01*
X171556514Y-77173811D01*
X172085000Y-77278933D01*
X172613486Y-77173811D01*
X173061514Y-76874447D01*
X173355000Y-76435216D01*
X173648486Y-76874447D01*
X174096514Y-77173811D01*
X174625000Y-77278933D01*
X175153486Y-77173811D01*
X175601514Y-76874447D01*
X175776536Y-76612509D01*
X175776536Y-76865000D01*
X175803103Y-77006190D01*
X175886546Y-77135865D01*
X176013866Y-77222859D01*
X176165000Y-77253464D01*
X178165000Y-77253464D01*
X178306190Y-77226897D01*
X178435865Y-77143454D01*
X178522859Y-77016134D01*
X178553464Y-76865000D01*
X178553464Y-74265000D01*
X178526897Y-74123810D01*
X178443454Y-73994135D01*
X178316134Y-73907141D01*
X178165000Y-73876536D01*
X176165000Y-73876536D01*
X176023810Y-73903103D01*
X175894135Y-73986546D01*
X175807141Y-74113866D01*
X175776536Y-74265000D01*
X175776536Y-74517491D01*
X175601514Y-74255553D01*
X175153486Y-73956189D01*
X174625000Y-73851067D01*
X174096514Y-73956189D01*
X173648486Y-74255553D01*
X173355000Y-74694784D01*
X173061514Y-74255553D01*
X172613486Y-73956189D01*
X172085000Y-73851067D01*
X171556514Y-73956189D01*
X171108486Y-74255553D01*
X170809122Y-74703581D01*
X170704000Y-75232067D01*
X153473299Y-75232067D01*
X153444773Y-75088661D01*
X153318828Y-74900172D01*
X153130339Y-74774227D01*
X152908000Y-74730001D01*
X152781000Y-74730001D01*
X152558661Y-74774227D01*
X152370172Y-74900172D01*
X152244227Y-75088661D01*
X152200001Y-75311000D01*
X95554319Y-75311000D01*
X95447375Y-75052177D01*
X95129497Y-74733744D01*
X94713957Y-74561196D01*
X94264017Y-74560804D01*
X93848177Y-74732625D01*
X93529744Y-75050503D01*
X93357196Y-75466043D01*
X93356804Y-75915983D01*
X83006000Y-75915983D01*
X83006000Y-73882325D01*
X109270694Y-73882325D01*
X109363305Y-74106460D01*
X109534638Y-74278093D01*
X109758611Y-74371094D01*
X110001125Y-74371306D01*
X110225260Y-74278695D01*
X110396893Y-74107362D01*
X110489894Y-73883389D01*
X110490106Y-73640875D01*
X110397495Y-73416740D01*
X110226162Y-73245107D01*
X110002189Y-73152106D01*
X109759675Y-73151894D01*
X109535540Y-73244505D01*
X109363907Y-73415838D01*
X109270906Y-73639811D01*
X109270694Y-73882325D01*
X83006000Y-73882325D01*
X83006000Y-71799525D01*
X99567894Y-71799525D01*
X99660505Y-72023660D01*
X99831838Y-72195293D01*
X100055811Y-72288294D01*
X100298325Y-72288506D01*
X100522460Y-72195895D01*
X100523381Y-72194975D01*
X134423131Y-72194975D01*
X134484969Y-72430742D01*
X134985922Y-72607119D01*
X135516240Y-72578364D01*
X135872631Y-72430742D01*
X135934469Y-72194975D01*
X136963131Y-72194975D01*
X137024969Y-72430742D01*
X137525922Y-72607119D01*
X138056240Y-72578364D01*
X138412631Y-72430742D01*
X138474469Y-72194975D01*
X137718800Y-71439305D01*
X136963131Y-72194975D01*
X135934469Y-72194975D01*
X135178800Y-71439305D01*
X134423131Y-72194975D01*
X100523381Y-72194975D01*
X100694093Y-72024562D01*
X100787094Y-71800589D01*
X100787306Y-71558075D01*
X100782121Y-71545525D01*
X101041094Y-71545525D01*
X101133705Y-71769660D01*
X101305038Y-71941293D01*
X101529011Y-72034294D01*
X101771525Y-72034506D01*
X101995660Y-71941895D01*
X102167293Y-71770562D01*
X102260294Y-71546589D01*
X102260372Y-71456625D01*
X132562494Y-71456625D01*
X132655105Y-71680760D01*
X132826438Y-71852393D01*
X133050411Y-71945394D01*
X133292925Y-71945606D01*
X133517060Y-71852995D01*
X133688693Y-71681662D01*
X133781694Y-71457689D01*
X133781906Y-71215175D01*
X133720608Y-71066822D01*
X133831381Y-71066822D01*
X133860136Y-71597140D01*
X134007758Y-71953531D01*
X134243525Y-72015369D01*
X134999195Y-71259700D01*
X135358405Y-71259700D01*
X136114075Y-72015369D01*
X136349842Y-71953531D01*
X136440777Y-71695255D01*
X136547758Y-71953531D01*
X136783525Y-72015369D01*
X137539195Y-71259700D01*
X137898405Y-71259700D01*
X138654075Y-72015369D01*
X138889842Y-71953531D01*
X139066219Y-71452578D01*
X139037464Y-70922260D01*
X138889842Y-70565869D01*
X138654075Y-70504031D01*
X137898405Y-71259700D01*
X137539195Y-71259700D01*
X136783525Y-70504031D01*
X136547758Y-70565869D01*
X136456823Y-70824145D01*
X136349842Y-70565869D01*
X136114075Y-70504031D01*
X135358405Y-71259700D01*
X134999195Y-71259700D01*
X134243525Y-70504031D01*
X134007758Y-70565869D01*
X133831381Y-71066822D01*
X133720608Y-71066822D01*
X133689295Y-70991040D01*
X133517962Y-70819407D01*
X133293989Y-70726406D01*
X133051475Y-70726194D01*
X132827340Y-70818805D01*
X132655707Y-70990138D01*
X132562706Y-71214111D01*
X132562494Y-71456625D01*
X102260372Y-71456625D01*
X102260506Y-71304075D01*
X102167895Y-71079940D01*
X101996562Y-70908307D01*
X101772589Y-70815306D01*
X101530075Y-70815094D01*
X101305940Y-70907705D01*
X101134307Y-71079038D01*
X101041306Y-71303011D01*
X101041094Y-71545525D01*
X100782121Y-71545525D01*
X100694695Y-71333940D01*
X100523362Y-71162307D01*
X100299389Y-71069306D01*
X100056875Y-71069094D01*
X99832740Y-71161705D01*
X99661107Y-71333038D01*
X99568106Y-71557011D01*
X99567894Y-71799525D01*
X83006000Y-71799525D01*
X83006000Y-70324425D01*
X134423131Y-70324425D01*
X135178800Y-71080095D01*
X135934469Y-70324425D01*
X136963131Y-70324425D01*
X137718800Y-71080095D01*
X138474469Y-70324425D01*
X138412631Y-70088658D01*
X137911678Y-69912281D01*
X137381360Y-69941036D01*
X137024969Y-70088658D01*
X136963131Y-70324425D01*
X135934469Y-70324425D01*
X135872631Y-70088658D01*
X135371678Y-69912281D01*
X134841360Y-69941036D01*
X134484969Y-70088658D01*
X134423131Y-70324425D01*
X83006000Y-70324425D01*
X83006000Y-69208725D01*
X87731494Y-69208725D01*
X87824105Y-69432860D01*
X87995438Y-69604493D01*
X88219411Y-69697494D01*
X88461925Y-69697706D01*
X88686060Y-69605095D01*
X88857693Y-69433762D01*
X88950694Y-69209789D01*
X88950739Y-69157925D01*
X91033494Y-69157925D01*
X91126105Y-69382060D01*
X91297438Y-69553693D01*
X91521411Y-69646694D01*
X91763925Y-69646906D01*
X91988060Y-69554295D01*
X92159693Y-69382962D01*
X92218889Y-69240400D01*
X103228801Y-69240400D01*
X103273027Y-69462739D01*
X103398972Y-69651228D01*
X103587461Y-69777173D01*
X103809800Y-69821399D01*
X103860600Y-69821399D01*
X104082939Y-69777173D01*
X104271428Y-69651228D01*
X104397373Y-69462739D01*
X104397375Y-69462725D01*
X129184294Y-69462725D01*
X129276905Y-69686860D01*
X129448238Y-69858493D01*
X129672211Y-69951494D01*
X129914725Y-69951706D01*
X130138860Y-69859095D01*
X130310493Y-69687762D01*
X130403494Y-69463789D01*
X130403706Y-69221275D01*
X130311095Y-68997140D01*
X130139762Y-68825507D01*
X129915789Y-68732506D01*
X129673275Y-68732294D01*
X129449140Y-68824905D01*
X129277507Y-68996238D01*
X129184506Y-69220211D01*
X129184294Y-69462725D01*
X104397375Y-69462725D01*
X104441599Y-69240400D01*
X104397373Y-69018061D01*
X104271428Y-68829572D01*
X104082939Y-68703627D01*
X103860600Y-68659401D01*
X103809800Y-68659401D01*
X103587461Y-68703627D01*
X103398972Y-68829572D01*
X103273027Y-69018061D01*
X103228801Y-69240400D01*
X92218889Y-69240400D01*
X92252694Y-69158989D01*
X92252906Y-68916475D01*
X92160295Y-68692340D01*
X92041888Y-68573725D01*
X127279294Y-68573725D01*
X127371905Y-68797860D01*
X127543238Y-68969493D01*
X127767211Y-69062494D01*
X128009725Y-69062706D01*
X128233860Y-68970095D01*
X128405493Y-68798762D01*
X128498494Y-68574789D01*
X128498706Y-68332275D01*
X128406095Y-68108140D01*
X128234762Y-67936507D01*
X128010789Y-67843506D01*
X127768275Y-67843294D01*
X127544140Y-67935905D01*
X127372507Y-68107238D01*
X127279506Y-68331211D01*
X127279294Y-68573725D01*
X92041888Y-68573725D01*
X91988962Y-68520707D01*
X91764989Y-68427706D01*
X91522475Y-68427494D01*
X91298340Y-68520105D01*
X91126707Y-68691438D01*
X91033706Y-68915411D01*
X91033494Y-69157925D01*
X88950739Y-69157925D01*
X88950906Y-68967275D01*
X88858295Y-68743140D01*
X88686962Y-68571507D01*
X88462989Y-68478506D01*
X88220475Y-68478294D01*
X87996340Y-68570905D01*
X87824707Y-68742238D01*
X87731706Y-68966211D01*
X87731494Y-69208725D01*
X83006000Y-69208725D01*
X83006000Y-67837125D01*
X112445694Y-67837125D01*
X112538305Y-68061260D01*
X112709638Y-68232893D01*
X112933611Y-68325894D01*
X113176125Y-68326106D01*
X113400260Y-68233495D01*
X113571893Y-68062162D01*
X113664894Y-67838189D01*
X113665106Y-67595675D01*
X113572495Y-67371540D01*
X113401162Y-67199907D01*
X113177189Y-67106906D01*
X112934675Y-67106694D01*
X112710540Y-67199305D01*
X112538907Y-67370638D01*
X112445906Y-67594611D01*
X112445694Y-67837125D01*
X83006000Y-67837125D01*
X83006000Y-65281140D01*
X83778553Y-65281140D01*
X84170659Y-66230109D01*
X84896072Y-66956790D01*
X85844355Y-67350551D01*
X86871140Y-67351447D01*
X86925163Y-67329125D01*
X87883894Y-67329125D01*
X87976505Y-67553260D01*
X88147838Y-67724893D01*
X88371811Y-67817894D01*
X88614325Y-67818106D01*
X88838460Y-67725495D01*
X89010093Y-67554162D01*
X89103094Y-67330189D01*
X89103306Y-67087675D01*
X89010695Y-66863540D01*
X88839362Y-66691907D01*
X88615389Y-66598906D01*
X88372875Y-66598694D01*
X88148740Y-66691305D01*
X87977107Y-66862638D01*
X87884106Y-67086611D01*
X87883894Y-67329125D01*
X86925163Y-67329125D01*
X87820109Y-66959341D01*
X88546790Y-66233928D01*
X88639779Y-66009983D01*
X94576004Y-66009983D01*
X94747825Y-66425823D01*
X95065703Y-66744256D01*
X95481243Y-66916804D01*
X95931183Y-66917196D01*
X96209979Y-66802000D01*
X126292001Y-66802000D01*
X126336227Y-67024339D01*
X126462172Y-67212828D01*
X126650661Y-67338773D01*
X126873000Y-67382999D01*
X127889000Y-67382999D01*
X128111339Y-67338773D01*
X128299828Y-67212828D01*
X128425773Y-67024339D01*
X128469999Y-66802000D01*
X128425773Y-66579661D01*
X128299828Y-66391172D01*
X128111339Y-66265227D01*
X127889000Y-66221001D01*
X126873000Y-66221001D01*
X126650661Y-66265227D01*
X126462172Y-66391172D01*
X126336227Y-66579661D01*
X126292001Y-66802000D01*
X96209979Y-66802000D01*
X96347023Y-66745375D01*
X96665456Y-66427497D01*
X96838004Y-66011957D01*
X96838396Y-65562017D01*
X96686966Y-65195525D01*
X124256694Y-65195525D01*
X124349305Y-65419660D01*
X124520638Y-65591293D01*
X124744611Y-65684294D01*
X124987125Y-65684506D01*
X125211260Y-65591895D01*
X125382893Y-65420562D01*
X125440785Y-65281140D01*
X175218553Y-65281140D01*
X175610659Y-66230109D01*
X176336072Y-66956790D01*
X177284355Y-67350551D01*
X178311140Y-67351447D01*
X179260109Y-66959341D01*
X179986790Y-66233928D01*
X180380551Y-65285645D01*
X180381447Y-64258860D01*
X179989341Y-63309891D01*
X179263928Y-62583210D01*
X178315645Y-62189449D01*
X177288860Y-62188553D01*
X176339891Y-62580659D01*
X175613210Y-63306072D01*
X175219449Y-64254355D01*
X175218553Y-65281140D01*
X125440785Y-65281140D01*
X125475894Y-65196589D01*
X125476106Y-64954075D01*
X125383495Y-64729940D01*
X125212162Y-64558307D01*
X124988189Y-64465306D01*
X124745675Y-64465094D01*
X124521540Y-64557705D01*
X124349907Y-64729038D01*
X124256906Y-64953011D01*
X124256694Y-65195525D01*
X96686966Y-65195525D01*
X96666575Y-65146177D01*
X96348697Y-64827744D01*
X95933157Y-64655196D01*
X95483217Y-64654804D01*
X95067377Y-64826625D01*
X94748944Y-65144503D01*
X94576396Y-65560043D01*
X94576004Y-66009983D01*
X88639779Y-66009983D01*
X88940551Y-65285645D01*
X88941447Y-64258860D01*
X88549341Y-63309891D01*
X88455597Y-63215983D01*
X91121604Y-63215983D01*
X91293425Y-63631823D01*
X91611303Y-63950256D01*
X92026843Y-64122804D01*
X92476783Y-64123196D01*
X92892623Y-63951375D01*
X93211056Y-63633497D01*
X93383604Y-63217957D01*
X93383996Y-62768017D01*
X93212175Y-62352177D01*
X92894297Y-62033744D01*
X92478757Y-61861196D01*
X92028817Y-61860804D01*
X91612977Y-62032625D01*
X91294544Y-62350503D01*
X91121996Y-62766043D01*
X91121604Y-63215983D01*
X88455597Y-63215983D01*
X87823928Y-62583210D01*
X86875645Y-62189449D01*
X85848860Y-62188553D01*
X84899891Y-62580659D01*
X84173210Y-63306072D01*
X83779449Y-64254355D01*
X83778553Y-65281140D01*
X83006000Y-65281140D01*
X83006000Y-61416000D01*
X181154000Y-61416000D01*
X181154000Y-113844000D01*
X181154000Y-113844000D01*
G37*
X181154000Y-113844000D02*
X83006000Y-113844000D01*
X83006000Y-111128140D01*
X83778553Y-111128140D01*
X84170659Y-112077109D01*
X84896072Y-112803790D01*
X85844355Y-113197551D01*
X86871140Y-113198447D01*
X87820109Y-112806341D01*
X88546790Y-112080928D01*
X88940551Y-111132645D01*
X88941111Y-110490000D01*
X127001017Y-110490000D01*
X127095757Y-110966288D01*
X127365552Y-111370065D01*
X127769329Y-111639860D01*
X128245617Y-111734600D01*
X128294383Y-111734600D01*
X128770671Y-111639860D01*
X129174448Y-111370065D01*
X129444243Y-110966288D01*
X129538983Y-110490000D01*
X129541017Y-110490000D01*
X129635757Y-110966288D01*
X129905552Y-111370065D01*
X130309329Y-111639860D01*
X130785617Y-111734600D01*
X130834383Y-111734600D01*
X131310671Y-111639860D01*
X131714448Y-111370065D01*
X131876097Y-111128140D01*
X175218553Y-111128140D01*
X175610659Y-112077109D01*
X176336072Y-112803790D01*
X177284355Y-113197551D01*
X178311140Y-113198447D01*
X179260109Y-112806341D01*
X179986790Y-112080928D01*
X180380551Y-111132645D01*
X180381447Y-110105860D01*
X179989341Y-109156891D01*
X179263928Y-108430210D01*
X178315645Y-108036449D01*
X177288860Y-108035553D01*
X176339891Y-108427659D01*
X175613210Y-109153072D01*
X175219449Y-110101355D01*
X175218553Y-111128140D01*
X131876097Y-111128140D01*
X131984243Y-110966288D01*
X132054969Y-110610725D01*
X137312294Y-110610725D01*
X137404905Y-110834860D01*
X137576238Y-111006493D01*
X137800211Y-111099494D01*
X138042725Y-111099706D01*
X138266860Y-111007095D01*
X138438493Y-110835762D01*
X138531494Y-110611789D01*
X138531706Y-110369275D01*
X138439095Y-110145140D01*
X138267762Y-109973507D01*
X138043789Y-109880506D01*
X137801275Y-109880294D01*
X137577140Y-109972905D01*
X137405507Y-110144238D01*
X137312506Y-110368211D01*
X137312294Y-110610725D01*
X132054969Y-110610725D01*
X132078983Y-110490000D01*
X131984243Y-110013712D01*
X131714448Y-109609935D01*
X131310671Y-109340140D01*
X130834383Y-109245400D01*
X130785617Y-109245400D01*
X130309329Y-109340140D01*
X129905552Y-109609935D01*
X129635757Y-110013712D01*
X129541017Y-110490000D01*
X129538983Y-110490000D01*
X129444243Y-110013712D01*
X129174448Y-109609935D01*
X128770671Y-109340140D01*
X128294383Y-109245400D01*
X128245617Y-109245400D01*
X127769329Y-109340140D01*
X127365552Y-109609935D01*
X127095757Y-110013712D01*
X127001017Y-110490000D01*
X88941111Y-110490000D01*
X88941447Y-110105860D01*
X88549341Y-109156891D01*
X87823928Y-108430210D01*
X86875645Y-108036449D01*
X85848860Y-108035553D01*
X84899891Y-108427659D01*
X84173210Y-109153072D01*
X83779449Y-110101355D01*
X83778553Y-111128140D01*
X83006000Y-111128140D01*
X83006000Y-107950000D01*
X127001017Y-107950000D01*
X127095757Y-108426288D01*
X127365552Y-108830065D01*
X127769329Y-109099860D01*
X128245617Y-109194600D01*
X128294383Y-109194600D01*
X128770671Y-109099860D01*
X129174448Y-108830065D01*
X129444243Y-108426288D01*
X129538983Y-107950000D01*
X129541017Y-107950000D01*
X129635757Y-108426288D01*
X129905552Y-108830065D01*
X130309329Y-109099860D01*
X130785617Y-109194600D01*
X130834383Y-109194600D01*
X131310671Y-109099860D01*
X131714448Y-108830065D01*
X131984243Y-108426288D01*
X132054969Y-108070725D01*
X137312294Y-108070725D01*
X137404905Y-108294860D01*
X137576238Y-108466493D01*
X137800211Y-108559494D01*
X138042725Y-108559706D01*
X138266860Y-108467095D01*
X138438493Y-108295762D01*
X138531494Y-108071789D01*
X138531706Y-107829275D01*
X138439095Y-107605140D01*
X138267762Y-107433507D01*
X138043789Y-107340506D01*
X137801275Y-107340294D01*
X137577140Y-107432905D01*
X137405507Y-107604238D01*
X137312506Y-107828211D01*
X137312294Y-108070725D01*
X132054969Y-108070725D01*
X132078983Y-107950000D01*
X131984243Y-107473712D01*
X131714448Y-107069935D01*
X131310671Y-106800140D01*
X130834383Y-106705400D01*
X130785617Y-106705400D01*
X130309329Y-106800140D01*
X129905552Y-107069935D01*
X129635757Y-107473712D01*
X129541017Y-107950000D01*
X129538983Y-107950000D01*
X129444243Y-107473712D01*
X129174448Y-107069935D01*
X128770671Y-106800140D01*
X128294383Y-106705400D01*
X128245617Y-106705400D01*
X127769329Y-106800140D01*
X127365552Y-107069935D01*
X127095757Y-107473712D01*
X127001017Y-107950000D01*
X83006000Y-107950000D01*
X83006000Y-105410000D01*
X127001017Y-105410000D01*
X127095757Y-105886288D01*
X127365552Y-106290065D01*
X127769329Y-106559860D01*
X128245617Y-106654600D01*
X128294383Y-106654600D01*
X128770671Y-106559860D01*
X129174448Y-106290065D01*
X129444243Y-105886288D01*
X129538983Y-105410000D01*
X129541017Y-105410000D01*
X129635757Y-105886288D01*
X129905552Y-106290065D01*
X130309329Y-106559860D01*
X130785617Y-106654600D01*
X130834383Y-106654600D01*
X131310671Y-106559860D01*
X131714448Y-106290065D01*
X131984243Y-105886288D01*
X132078983Y-105410000D01*
X131984243Y-104933712D01*
X131714448Y-104529935D01*
X131310671Y-104260140D01*
X130834383Y-104165400D01*
X130785617Y-104165400D01*
X130309329Y-104260140D01*
X129905552Y-104529935D01*
X129635757Y-104933712D01*
X129541017Y-105410000D01*
X129538983Y-105410000D01*
X129444243Y-104933712D01*
X129174448Y-104529935D01*
X128770671Y-104260140D01*
X128294383Y-104165400D01*
X128245617Y-104165400D01*
X127769329Y-104260140D01*
X127365552Y-104529935D01*
X127095757Y-104933712D01*
X127001017Y-105410000D01*
X83006000Y-105410000D01*
X83006000Y-104159125D01*
X108102294Y-104159125D01*
X108194905Y-104383260D01*
X108366238Y-104554893D01*
X108590211Y-104647894D01*
X108832725Y-104648106D01*
X109056860Y-104555495D01*
X109228493Y-104384162D01*
X109321494Y-104160189D01*
X109321582Y-104059183D01*
X114286404Y-104059183D01*
X114458225Y-104475023D01*
X114776103Y-104793456D01*
X115191643Y-104966004D01*
X115641583Y-104966396D01*
X116057423Y-104794575D01*
X116375856Y-104476697D01*
X116548404Y-104061157D01*
X116548796Y-103611217D01*
X116376975Y-103195377D01*
X116059097Y-102876944D01*
X116042375Y-102870000D01*
X127001017Y-102870000D01*
X127095757Y-103346288D01*
X127365552Y-103750065D01*
X127769329Y-104019860D01*
X128245617Y-104114600D01*
X128294383Y-104114600D01*
X128770671Y-104019860D01*
X129174448Y-103750065D01*
X129444243Y-103346288D01*
X129538983Y-102870000D01*
X129541017Y-102870000D01*
X129635757Y-103346288D01*
X129905552Y-103750065D01*
X130309329Y-104019860D01*
X130785617Y-104114600D01*
X130834383Y-104114600D01*
X131310671Y-104019860D01*
X131714448Y-103750065D01*
X131984243Y-103346288D01*
X132004445Y-103244725D01*
X137312294Y-103244725D01*
X137404905Y-103468860D01*
X137576238Y-103640493D01*
X137800211Y-103733494D01*
X138042725Y-103733706D01*
X138266860Y-103641095D01*
X138438493Y-103469762D01*
X138531494Y-103245789D01*
X138531706Y-103003275D01*
X138439095Y-102779140D01*
X138267762Y-102607507D01*
X138043789Y-102514506D01*
X137801275Y-102514294D01*
X137577140Y-102606905D01*
X137405507Y-102778238D01*
X137312506Y-103002211D01*
X137312294Y-103244725D01*
X132004445Y-103244725D01*
X132078983Y-102870000D01*
X131984243Y-102393712D01*
X131941890Y-102330325D01*
X149555094Y-102330325D01*
X149647705Y-102554460D01*
X149819038Y-102726093D01*
X150043011Y-102819094D01*
X150285525Y-102819306D01*
X150509660Y-102726695D01*
X150681293Y-102555362D01*
X150774294Y-102331389D01*
X150774506Y-102088875D01*
X150681895Y-101864740D01*
X150510562Y-101693107D01*
X150286589Y-101600106D01*
X150044075Y-101599894D01*
X149819940Y-101692505D01*
X149648307Y-101863838D01*
X149555306Y-102087811D01*
X149555094Y-102330325D01*
X131941890Y-102330325D01*
X131714448Y-101989935D01*
X131310671Y-101720140D01*
X130834383Y-101625400D01*
X130785617Y-101625400D01*
X130309329Y-101720140D01*
X129905552Y-101989935D01*
X129635757Y-102393712D01*
X129541017Y-102870000D01*
X129538983Y-102870000D01*
X129444243Y-102393712D01*
X129174448Y-101989935D01*
X128770671Y-101720140D01*
X128294383Y-101625400D01*
X128245617Y-101625400D01*
X127769329Y-101720140D01*
X127365552Y-101989935D01*
X127095757Y-102393712D01*
X127001017Y-102870000D01*
X116042375Y-102870000D01*
X115643557Y-102704396D01*
X115193617Y-102704004D01*
X114777777Y-102875825D01*
X114459344Y-103193703D01*
X114286796Y-103609243D01*
X114286404Y-104059183D01*
X109321582Y-104059183D01*
X109321706Y-103917675D01*
X109229095Y-103693540D01*
X109057762Y-103521907D01*
X108833789Y-103428906D01*
X108591275Y-103428694D01*
X108367140Y-103521305D01*
X108195507Y-103692638D01*
X108102506Y-103916611D01*
X108102294Y-104159125D01*
X83006000Y-104159125D01*
X83006000Y-102076325D01*
X103428694Y-102076325D01*
X103521305Y-102300460D01*
X103692638Y-102472093D01*
X103916611Y-102565094D01*
X104159125Y-102565306D01*
X104236040Y-102533525D01*
X107391094Y-102533525D01*
X107483705Y-102757660D01*
X107655038Y-102929293D01*
X107879011Y-103022294D01*
X108121525Y-103022506D01*
X108345660Y-102929895D01*
X108517293Y-102758562D01*
X108610294Y-102534589D01*
X108610506Y-102292075D01*
X108542350Y-102127125D01*
X110083494Y-102127125D01*
X110176105Y-102351260D01*
X110347438Y-102522893D01*
X110571411Y-102615894D01*
X110813925Y-102616106D01*
X111038060Y-102523495D01*
X111209693Y-102352162D01*
X111302694Y-102128189D01*
X111302906Y-101885675D01*
X111210295Y-101661540D01*
X111038962Y-101489907D01*
X110814989Y-101396906D01*
X110572475Y-101396694D01*
X110348340Y-101489305D01*
X110176707Y-101660638D01*
X110083706Y-101884611D01*
X110083494Y-102127125D01*
X108542350Y-102127125D01*
X108517895Y-102067940D01*
X108346562Y-101896307D01*
X108122589Y-101803306D01*
X107880075Y-101803094D01*
X107655940Y-101895705D01*
X107484307Y-102067038D01*
X107391306Y-102291011D01*
X107391094Y-102533525D01*
X104236040Y-102533525D01*
X104383260Y-102472695D01*
X104554893Y-102301362D01*
X104647894Y-102077389D01*
X104648106Y-101834875D01*
X104555495Y-101610740D01*
X104384162Y-101439107D01*
X104160189Y-101346106D01*
X103917675Y-101345894D01*
X103693540Y-101438505D01*
X103521907Y-101609838D01*
X103428906Y-101833811D01*
X103428694Y-102076325D01*
X83006000Y-102076325D01*
X83006000Y-99434725D01*
X88290294Y-99434725D01*
X88382905Y-99658860D01*
X88554238Y-99830493D01*
X88778211Y-99923494D01*
X89020725Y-99923706D01*
X89244860Y-99831095D01*
X89416493Y-99659762D01*
X89445965Y-99588783D01*
X94220404Y-99588783D01*
X94392225Y-100004623D01*
X94710103Y-100323056D01*
X95125643Y-100495604D01*
X95575583Y-100495996D01*
X95977325Y-100330000D01*
X127001017Y-100330000D01*
X127095757Y-100806288D01*
X127365552Y-101210065D01*
X127769329Y-101479860D01*
X128245617Y-101574600D01*
X128294383Y-101574600D01*
X128770671Y-101479860D01*
X129174448Y-101210065D01*
X129444243Y-100806288D01*
X129538983Y-100330000D01*
X129541017Y-100330000D01*
X129635757Y-100806288D01*
X129905552Y-101210065D01*
X130309329Y-101479860D01*
X130785617Y-101574600D01*
X130834383Y-101574600D01*
X131310671Y-101479860D01*
X131714448Y-101210065D01*
X131984243Y-100806288D01*
X132078983Y-100330000D01*
X131984243Y-99853712D01*
X131714448Y-99449935D01*
X131310671Y-99180140D01*
X130834383Y-99085400D01*
X130785617Y-99085400D01*
X130309329Y-99180140D01*
X129905552Y-99449935D01*
X129635757Y-99853712D01*
X129541017Y-100330000D01*
X129538983Y-100330000D01*
X129444243Y-99853712D01*
X129174448Y-99449935D01*
X128770671Y-99180140D01*
X128294383Y-99085400D01*
X128245617Y-99085400D01*
X127769329Y-99180140D01*
X127365552Y-99449935D01*
X127095757Y-99853712D01*
X127001017Y-100330000D01*
X95977325Y-100330000D01*
X95991423Y-100324175D01*
X96309856Y-100006297D01*
X96482404Y-99590757D01*
X96482451Y-99536325D01*
X100228294Y-99536325D01*
X100320905Y-99760460D01*
X100492238Y-99932093D01*
X100716211Y-100025094D01*
X100958725Y-100025306D01*
X101182860Y-99932695D01*
X101354493Y-99761362D01*
X101426841Y-99587125D01*
X103174694Y-99587125D01*
X103267305Y-99811260D01*
X103438638Y-99982893D01*
X103662611Y-100075894D01*
X103905125Y-100076106D01*
X104129260Y-99983495D01*
X104300893Y-99812162D01*
X104393894Y-99588189D01*
X104394106Y-99345675D01*
X104301495Y-99121540D01*
X104130162Y-98949907D01*
X103951993Y-98875925D01*
X118770294Y-98875925D01*
X118862905Y-99100060D01*
X119034238Y-99271693D01*
X119258211Y-99364694D01*
X119500725Y-99364906D01*
X119724860Y-99272295D01*
X119896493Y-99100962D01*
X119989494Y-98876989D01*
X119989706Y-98634475D01*
X119897095Y-98410340D01*
X119725762Y-98238707D01*
X119501789Y-98145706D01*
X119259275Y-98145494D01*
X119035140Y-98238105D01*
X118863507Y-98409438D01*
X118770506Y-98633411D01*
X118770294Y-98875925D01*
X103951993Y-98875925D01*
X103906189Y-98856906D01*
X103663675Y-98856694D01*
X103439540Y-98949305D01*
X103267907Y-99120638D01*
X103174906Y-99344611D01*
X103174694Y-99587125D01*
X101426841Y-99587125D01*
X101447494Y-99537389D01*
X101447706Y-99294875D01*
X101355095Y-99070740D01*
X101183762Y-98899107D01*
X100959789Y-98806106D01*
X100717275Y-98805894D01*
X100493140Y-98898505D01*
X100321507Y-99069838D01*
X100228506Y-99293811D01*
X100228294Y-99536325D01*
X96482451Y-99536325D01*
X96482796Y-99140817D01*
X96331366Y-98774325D01*
X101701494Y-98774325D01*
X101794105Y-98998460D01*
X101965438Y-99170093D01*
X102189411Y-99263094D01*
X102431925Y-99263306D01*
X102656060Y-99170695D01*
X102827693Y-98999362D01*
X102920694Y-98775389D01*
X102920906Y-98532875D01*
X102828295Y-98308740D01*
X102656962Y-98137107D01*
X102432989Y-98044106D01*
X102190475Y-98043894D01*
X101966340Y-98136505D01*
X101794707Y-98307838D01*
X101701706Y-98531811D01*
X101701494Y-98774325D01*
X96331366Y-98774325D01*
X96310975Y-98724977D01*
X95993097Y-98406544D01*
X95577557Y-98233996D01*
X95127617Y-98233604D01*
X94711777Y-98405425D01*
X94393344Y-98723303D01*
X94220796Y-99138843D01*
X94220404Y-99588783D01*
X89445965Y-99588783D01*
X89509494Y-99435789D01*
X89509706Y-99193275D01*
X89417095Y-98969140D01*
X89245762Y-98797507D01*
X89021789Y-98704506D01*
X88779275Y-98704294D01*
X88555140Y-98796905D01*
X88383507Y-98968238D01*
X88290506Y-99192211D01*
X88290294Y-99434725D01*
X83006000Y-99434725D01*
X83006000Y-97937200D01*
X83116353Y-97937200D01*
X83183415Y-98274344D01*
X83374392Y-98560161D01*
X83660209Y-98751138D01*
X83997353Y-98818200D01*
X84592647Y-98818200D01*
X84929791Y-98751138D01*
X85215608Y-98560161D01*
X85406585Y-98274344D01*
X85473647Y-97937200D01*
X85406585Y-97600056D01*
X85215608Y-97314239D01*
X84929791Y-97123262D01*
X84592647Y-97056200D01*
X83997353Y-97056200D01*
X83660209Y-97123262D01*
X83374392Y-97314239D01*
X83183415Y-97600056D01*
X83116353Y-97937200D01*
X83006000Y-97937200D01*
X83006000Y-96767491D01*
X86139000Y-96767491D01*
X86139000Y-97106909D01*
X86204159Y-97434486D01*
X86389717Y-97712192D01*
X86667423Y-97897750D01*
X86995000Y-97962909D01*
X87257347Y-97910725D01*
X119837094Y-97910725D01*
X119929705Y-98134860D01*
X120101038Y-98306493D01*
X120325011Y-98399494D01*
X120567525Y-98399706D01*
X120791660Y-98307095D01*
X120963293Y-98135762D01*
X121056294Y-97911789D01*
X121056400Y-97790000D01*
X127001017Y-97790000D01*
X127095757Y-98266288D01*
X127365552Y-98670065D01*
X127769329Y-98939860D01*
X128245617Y-99034600D01*
X128294383Y-99034600D01*
X128770671Y-98939860D01*
X129174448Y-98670065D01*
X129444243Y-98266288D01*
X129538983Y-97790000D01*
X129541017Y-97790000D01*
X129635757Y-98266288D01*
X129905552Y-98670065D01*
X130309329Y-98939860D01*
X130785617Y-99034600D01*
X130834383Y-99034600D01*
X131310671Y-98939860D01*
X131714448Y-98670065D01*
X131983110Y-98267983D01*
X158888804Y-98267983D01*
X159060625Y-98683823D01*
X159378503Y-99002256D01*
X159794043Y-99174804D01*
X160243983Y-99175196D01*
X160659823Y-99003375D01*
X160978256Y-98685497D01*
X161150804Y-98269957D01*
X161150805Y-98267983D01*
X161174804Y-98267983D01*
X161346625Y-98683823D01*
X161664503Y-99002256D01*
X162080043Y-99174804D01*
X162529983Y-99175196D01*
X162945823Y-99003375D01*
X163264256Y-98685497D01*
X163436804Y-98269957D01*
X163437196Y-97820017D01*
X163265375Y-97404177D01*
X162947497Y-97085744D01*
X162531957Y-96913196D01*
X162082017Y-96912804D01*
X161666177Y-97084625D01*
X161347744Y-97402503D01*
X161175196Y-97818043D01*
X161174804Y-98267983D01*
X161150805Y-98267983D01*
X161151196Y-97820017D01*
X160979375Y-97404177D01*
X160661497Y-97085744D01*
X160245957Y-96913196D01*
X159796017Y-96912804D01*
X159380177Y-97084625D01*
X159061744Y-97402503D01*
X158889196Y-97818043D01*
X158888804Y-98267983D01*
X131983110Y-98267983D01*
X131984243Y-98266288D01*
X132078983Y-97790000D01*
X131984243Y-97313712D01*
X131772172Y-96996325D01*
X137007494Y-96996325D01*
X137100105Y-97220460D01*
X137271438Y-97392093D01*
X137495411Y-97485094D01*
X137737925Y-97485306D01*
X137962060Y-97392695D01*
X138133693Y-97221362D01*
X138226694Y-96997389D01*
X138226906Y-96754875D01*
X138134295Y-96530740D01*
X137962962Y-96359107D01*
X137738989Y-96266106D01*
X137496475Y-96265894D01*
X137272340Y-96358505D01*
X137100707Y-96529838D01*
X137007706Y-96753811D01*
X137007494Y-96996325D01*
X131772172Y-96996325D01*
X131714448Y-96909935D01*
X131310671Y-96640140D01*
X130834383Y-96545400D01*
X130785617Y-96545400D01*
X130309329Y-96640140D01*
X129905552Y-96909935D01*
X129635757Y-97313712D01*
X129541017Y-97790000D01*
X129538983Y-97790000D01*
X129444243Y-97313712D01*
X129174448Y-96909935D01*
X128770671Y-96640140D01*
X128294383Y-96545400D01*
X128245617Y-96545400D01*
X127769329Y-96640140D01*
X127365552Y-96909935D01*
X127095757Y-97313712D01*
X127001017Y-97790000D01*
X121056400Y-97790000D01*
X121056506Y-97669275D01*
X120963895Y-97445140D01*
X120792562Y-97273507D01*
X120568589Y-97180506D01*
X120326075Y-97180294D01*
X120101940Y-97272905D01*
X119930307Y-97444238D01*
X119837306Y-97668211D01*
X119837094Y-97910725D01*
X87257347Y-97910725D01*
X87322577Y-97897750D01*
X87600283Y-97712192D01*
X87785841Y-97434486D01*
X87851000Y-97106909D01*
X87851000Y-96767491D01*
X87785841Y-96439914D01*
X87600283Y-96162208D01*
X87322577Y-95976650D01*
X86995000Y-95911491D01*
X86667423Y-95976650D01*
X86389717Y-96162208D01*
X86204159Y-96439914D01*
X86139000Y-96767491D01*
X83006000Y-96767491D01*
X83006000Y-95827925D01*
X98856694Y-95827925D01*
X98949305Y-96052060D01*
X99120638Y-96223693D01*
X99344611Y-96316694D01*
X99587125Y-96316906D01*
X99811260Y-96224295D01*
X99982893Y-96052962D01*
X100075894Y-95828989D01*
X100076106Y-95586475D01*
X99983495Y-95362340D01*
X99890443Y-95269125D01*
X110134294Y-95269125D01*
X110226905Y-95493260D01*
X110398238Y-95664893D01*
X110622211Y-95757894D01*
X110864725Y-95758106D01*
X111088860Y-95665495D01*
X111260493Y-95494162D01*
X111353494Y-95270189D01*
X111353706Y-95027675D01*
X111348521Y-95015125D01*
X112775894Y-95015125D01*
X112868505Y-95239260D01*
X113039838Y-95410893D01*
X113263811Y-95503894D01*
X113506325Y-95504106D01*
X113730460Y-95411495D01*
X113892237Y-95250000D01*
X127001017Y-95250000D01*
X127095757Y-95726288D01*
X127365552Y-96130065D01*
X127769329Y-96399860D01*
X128245617Y-96494600D01*
X128294383Y-96494600D01*
X128770671Y-96399860D01*
X129174448Y-96130065D01*
X129444243Y-95726288D01*
X129538983Y-95250000D01*
X129541017Y-95250000D01*
X129635757Y-95726288D01*
X129905552Y-96130065D01*
X130309329Y-96399860D01*
X130785617Y-96494600D01*
X130834383Y-96494600D01*
X131310671Y-96399860D01*
X131520397Y-96259725D01*
X151917294Y-96259725D01*
X152009905Y-96483860D01*
X152181238Y-96655493D01*
X152405211Y-96748494D01*
X152647725Y-96748706D01*
X152871860Y-96656095D01*
X152907912Y-96620106D01*
X152943238Y-96655493D01*
X153167211Y-96748494D01*
X153187311Y-96748512D01*
X153187294Y-96767725D01*
X153279905Y-96991860D01*
X153451238Y-97163493D01*
X153675211Y-97256494D01*
X153708249Y-97256523D01*
X153695506Y-97287211D01*
X153695294Y-97529725D01*
X153787905Y-97753860D01*
X153959238Y-97925493D01*
X154183211Y-98018494D01*
X154425725Y-98018706D01*
X154649860Y-97926095D01*
X154821493Y-97754762D01*
X154870122Y-97637650D01*
X154933725Y-97637706D01*
X155157860Y-97545095D01*
X155329493Y-97373762D01*
X155422494Y-97149789D01*
X155422512Y-97129689D01*
X155441725Y-97129706D01*
X155665860Y-97037095D01*
X155837493Y-96865762D01*
X155886122Y-96748650D01*
X155949725Y-96748706D01*
X156173860Y-96656095D01*
X156345493Y-96484762D01*
X156438494Y-96260789D01*
X156438706Y-96018275D01*
X156346095Y-95794140D01*
X156174762Y-95622507D01*
X155950789Y-95529506D01*
X155708275Y-95529294D01*
X155484140Y-95621905D01*
X155312507Y-95793238D01*
X155263878Y-95910350D01*
X155200275Y-95910294D01*
X154976140Y-96002905D01*
X154804507Y-96174238D01*
X154711506Y-96398211D01*
X154711488Y-96418311D01*
X154692275Y-96418294D01*
X154468140Y-96510905D01*
X154406666Y-96572272D01*
X154406706Y-96526275D01*
X154314095Y-96302140D01*
X154142762Y-96130507D01*
X153918789Y-96037506D01*
X153898689Y-96037488D01*
X153898706Y-96018275D01*
X153806095Y-95794140D01*
X153634762Y-95622507D01*
X153410789Y-95529506D01*
X153168275Y-95529294D01*
X152944140Y-95621905D01*
X152908088Y-95657894D01*
X152872762Y-95622507D01*
X152648789Y-95529506D01*
X152406275Y-95529294D01*
X152182140Y-95621905D01*
X152010507Y-95793238D01*
X151917506Y-96017211D01*
X151917294Y-96259725D01*
X131520397Y-96259725D01*
X131714448Y-96130065D01*
X131984243Y-95726288D01*
X132054969Y-95370725D01*
X137312294Y-95370725D01*
X137404905Y-95594860D01*
X137576238Y-95766493D01*
X137800211Y-95859494D01*
X138042725Y-95859706D01*
X138266860Y-95767095D01*
X138438493Y-95595762D01*
X138531494Y-95371789D01*
X138531706Y-95129275D01*
X138439095Y-94905140D01*
X138267762Y-94733507D01*
X138043789Y-94640506D01*
X137801275Y-94640294D01*
X137577140Y-94732905D01*
X137405507Y-94904238D01*
X137312506Y-95128211D01*
X137312294Y-95370725D01*
X132054969Y-95370725D01*
X132078983Y-95250000D01*
X131984243Y-94773712D01*
X131714448Y-94369935D01*
X131310671Y-94100140D01*
X130834383Y-94005400D01*
X130785617Y-94005400D01*
X130309329Y-94100140D01*
X129905552Y-94369935D01*
X129635757Y-94773712D01*
X129541017Y-95250000D01*
X129538983Y-95250000D01*
X129444243Y-94773712D01*
X129174448Y-94369935D01*
X128770671Y-94100140D01*
X128294383Y-94005400D01*
X128245617Y-94005400D01*
X127769329Y-94100140D01*
X127365552Y-94369935D01*
X127095757Y-94773712D01*
X127001017Y-95250000D01*
X113892237Y-95250000D01*
X113902093Y-95240162D01*
X113995094Y-95016189D01*
X113995306Y-94773675D01*
X113902695Y-94549540D01*
X113731362Y-94377907D01*
X113507389Y-94284906D01*
X113264875Y-94284694D01*
X113040740Y-94377305D01*
X112869107Y-94548638D01*
X112776106Y-94772611D01*
X112775894Y-95015125D01*
X111348521Y-95015125D01*
X111261095Y-94803540D01*
X111089762Y-94631907D01*
X110865789Y-94538906D01*
X110623275Y-94538694D01*
X110399140Y-94631305D01*
X110227507Y-94802638D01*
X110134506Y-95026611D01*
X110134294Y-95269125D01*
X99890443Y-95269125D01*
X99812162Y-95190707D01*
X99588189Y-95097706D01*
X99345675Y-95097494D01*
X99121540Y-95190105D01*
X98949907Y-95361438D01*
X98856906Y-95585411D01*
X98856694Y-95827925D01*
X83006000Y-95827925D01*
X83006000Y-93948325D01*
X101752294Y-93948325D01*
X101844905Y-94172460D01*
X102016238Y-94344093D01*
X102240211Y-94437094D01*
X102482725Y-94437306D01*
X102706860Y-94344695D01*
X102878493Y-94173362D01*
X102971494Y-93949389D01*
X102971706Y-93706875D01*
X102966521Y-93694325D01*
X113283894Y-93694325D01*
X113376505Y-93918460D01*
X113547838Y-94090093D01*
X113771811Y-94183094D01*
X114014325Y-94183306D01*
X114238460Y-94090695D01*
X114410093Y-93919362D01*
X114503094Y-93695389D01*
X114503306Y-93452875D01*
X114410695Y-93228740D01*
X114239362Y-93057107D01*
X114015389Y-92964106D01*
X113772875Y-92963894D01*
X113548740Y-93056505D01*
X113377107Y-93227838D01*
X113284106Y-93451811D01*
X113283894Y-93694325D01*
X102966521Y-93694325D01*
X102879095Y-93482740D01*
X102707762Y-93311107D01*
X102483789Y-93218106D01*
X102241275Y-93217894D01*
X102017140Y-93310505D01*
X101845507Y-93481838D01*
X101752506Y-93705811D01*
X101752294Y-93948325D01*
X83006000Y-93948325D01*
X83006000Y-93287925D01*
X98958294Y-93287925D01*
X99050905Y-93512060D01*
X99222238Y-93683693D01*
X99446211Y-93776694D01*
X99688725Y-93776906D01*
X99912860Y-93684295D01*
X100084493Y-93512962D01*
X100177494Y-93288989D01*
X100177706Y-93046475D01*
X100085095Y-92822340D01*
X99972952Y-92710000D01*
X127001017Y-92710000D01*
X127095757Y-93186288D01*
X127365552Y-93590065D01*
X127769329Y-93859860D01*
X128245617Y-93954600D01*
X128294383Y-93954600D01*
X128770671Y-93859860D01*
X129174448Y-93590065D01*
X129444243Y-93186288D01*
X129538983Y-92710000D01*
X129541017Y-92710000D01*
X129635757Y-93186288D01*
X129905552Y-93590065D01*
X130309329Y-93859860D01*
X130785617Y-93954600D01*
X130834383Y-93954600D01*
X131310671Y-93859860D01*
X131710467Y-93592725D01*
X150266294Y-93592725D01*
X150358905Y-93816860D01*
X150530238Y-93988493D01*
X150754211Y-94081494D01*
X150996725Y-94081706D01*
X151220860Y-93989095D01*
X151392493Y-93817762D01*
X151485494Y-93593789D01*
X151485706Y-93351275D01*
X151393095Y-93127140D01*
X151223977Y-92957725D01*
X157886294Y-92957725D01*
X157978905Y-93181860D01*
X158150238Y-93353493D01*
X158374211Y-93446494D01*
X158521422Y-93446623D01*
X158521294Y-93592725D01*
X158613905Y-93816860D01*
X158785238Y-93988493D01*
X159009211Y-94081494D01*
X159251725Y-94081706D01*
X159475860Y-93989095D01*
X159647493Y-93817762D01*
X159740494Y-93593789D01*
X159740706Y-93351275D01*
X159648095Y-93127140D01*
X159476762Y-92955507D01*
X159252789Y-92862506D01*
X159105578Y-92862377D01*
X159105706Y-92716275D01*
X159013095Y-92492140D01*
X158841762Y-92320507D01*
X158617789Y-92227506D01*
X158375275Y-92227294D01*
X158151140Y-92319905D01*
X157979507Y-92491238D01*
X157886506Y-92715211D01*
X157886294Y-92957725D01*
X151223977Y-92957725D01*
X151221762Y-92955507D01*
X150997789Y-92862506D01*
X150755275Y-92862294D01*
X150531140Y-92954905D01*
X150359507Y-93126238D01*
X150266506Y-93350211D01*
X150266294Y-93592725D01*
X131710467Y-93592725D01*
X131714448Y-93590065D01*
X131984243Y-93186288D01*
X132054969Y-92830725D01*
X137312294Y-92830725D01*
X137404905Y-93054860D01*
X137576238Y-93226493D01*
X137800211Y-93319494D01*
X138042725Y-93319706D01*
X138266860Y-93227095D01*
X138438493Y-93055762D01*
X138531494Y-92831789D01*
X138531706Y-92589275D01*
X138439095Y-92365140D01*
X138267762Y-92193507D01*
X138043789Y-92100506D01*
X137801275Y-92100294D01*
X137577140Y-92192905D01*
X137405507Y-92364238D01*
X137312506Y-92588211D01*
X137312294Y-92830725D01*
X132054969Y-92830725D01*
X132078983Y-92710000D01*
X131984243Y-92233712D01*
X131714448Y-91829935D01*
X131310671Y-91560140D01*
X130834383Y-91465400D01*
X130785617Y-91465400D01*
X130309329Y-91560140D01*
X129905552Y-91829935D01*
X129635757Y-92233712D01*
X129541017Y-92710000D01*
X129538983Y-92710000D01*
X129444243Y-92233712D01*
X129174448Y-91829935D01*
X128770671Y-91560140D01*
X128294383Y-91465400D01*
X128245617Y-91465400D01*
X127769329Y-91560140D01*
X127365552Y-91829935D01*
X127095757Y-92233712D01*
X127001017Y-92710000D01*
X99972952Y-92710000D01*
X99913762Y-92650707D01*
X99689789Y-92557706D01*
X99447275Y-92557494D01*
X99223140Y-92650105D01*
X99051507Y-92821438D01*
X98958506Y-93045411D01*
X98958294Y-93287925D01*
X83006000Y-93287925D01*
X83006000Y-90937200D01*
X83116353Y-90937200D01*
X83183415Y-91274344D01*
X83374392Y-91560161D01*
X83660209Y-91751138D01*
X83997353Y-91818200D01*
X84592647Y-91818200D01*
X84847578Y-91767491D01*
X86139000Y-91767491D01*
X86139000Y-92106909D01*
X86204159Y-92434486D01*
X86389717Y-92712192D01*
X86667423Y-92897750D01*
X86995000Y-92962909D01*
X87322577Y-92897750D01*
X87600283Y-92712192D01*
X87785841Y-92434486D01*
X87851000Y-92106909D01*
X87851000Y-91767491D01*
X87785841Y-91439914D01*
X87600283Y-91162208D01*
X87360404Y-91001925D01*
X97993094Y-91001925D01*
X98085705Y-91226060D01*
X98257038Y-91397693D01*
X98481011Y-91490694D01*
X98723525Y-91490906D01*
X98947660Y-91398295D01*
X99119293Y-91226962D01*
X99191641Y-91052725D01*
X107137094Y-91052725D01*
X107229705Y-91276860D01*
X107401038Y-91448493D01*
X107625011Y-91541494D01*
X107867525Y-91541706D01*
X108091660Y-91449095D01*
X108204046Y-91336906D01*
X108315438Y-91448493D01*
X108539411Y-91541494D01*
X108781925Y-91541706D01*
X109006060Y-91449095D01*
X109177693Y-91277762D01*
X109270694Y-91053789D01*
X109270906Y-90811275D01*
X109178295Y-90587140D01*
X109006962Y-90415507D01*
X108782989Y-90322506D01*
X108540475Y-90322294D01*
X108316340Y-90414905D01*
X108203954Y-90527094D01*
X108092562Y-90415507D01*
X107868589Y-90322506D01*
X107626075Y-90322294D01*
X107401940Y-90414905D01*
X107230307Y-90586238D01*
X107137306Y-90810211D01*
X107137094Y-91052725D01*
X99191641Y-91052725D01*
X99212294Y-91002989D01*
X99212506Y-90760475D01*
X99119895Y-90536340D01*
X98948562Y-90364707D01*
X98724589Y-90271706D01*
X98482075Y-90271494D01*
X98257940Y-90364105D01*
X98086307Y-90535438D01*
X97993306Y-90759411D01*
X97993094Y-91001925D01*
X87360404Y-91001925D01*
X87322577Y-90976650D01*
X86995000Y-90911491D01*
X86667423Y-90976650D01*
X86389717Y-91162208D01*
X86204159Y-91439914D01*
X86139000Y-91767491D01*
X84847578Y-91767491D01*
X84929791Y-91751138D01*
X85215608Y-91560161D01*
X85406585Y-91274344D01*
X85473647Y-90937200D01*
X85406585Y-90600056D01*
X85215608Y-90314239D01*
X84999740Y-90170000D01*
X127001017Y-90170000D01*
X127095757Y-90646288D01*
X127365552Y-91050065D01*
X127769329Y-91319860D01*
X128245617Y-91414600D01*
X128294383Y-91414600D01*
X128770671Y-91319860D01*
X129174448Y-91050065D01*
X129444243Y-90646288D01*
X129538983Y-90170000D01*
X129541017Y-90170000D01*
X129635757Y-90646288D01*
X129905552Y-91050065D01*
X130309329Y-91319860D01*
X130785617Y-91414600D01*
X130834383Y-91414600D01*
X131310671Y-91319860D01*
X131714448Y-91050065D01*
X131984243Y-90646288D01*
X132054969Y-90290725D01*
X137312294Y-90290725D01*
X137404905Y-90514860D01*
X137576238Y-90686493D01*
X137800211Y-90779494D01*
X138042725Y-90779706D01*
X138266860Y-90687095D01*
X138282256Y-90671725D01*
X150520294Y-90671725D01*
X150612905Y-90895860D01*
X150784238Y-91067493D01*
X151008211Y-91160494D01*
X151250725Y-91160706D01*
X151474860Y-91068095D01*
X151646493Y-90896762D01*
X151739494Y-90672789D01*
X151739706Y-90430275D01*
X151647095Y-90206140D01*
X151475762Y-90034507D01*
X151251789Y-89941506D01*
X151009275Y-89941294D01*
X150785140Y-90033905D01*
X150613507Y-90205238D01*
X150520506Y-90429211D01*
X150520294Y-90671725D01*
X138282256Y-90671725D01*
X138438493Y-90515762D01*
X138531494Y-90291789D01*
X138531706Y-90049275D01*
X138439095Y-89825140D01*
X138267762Y-89653507D01*
X138043789Y-89560506D01*
X137801275Y-89560294D01*
X137577140Y-89652905D01*
X137405507Y-89824238D01*
X137312506Y-90048211D01*
X137312294Y-90290725D01*
X132054969Y-90290725D01*
X132078983Y-90170000D01*
X131984243Y-89693712D01*
X131714448Y-89289935D01*
X131310671Y-89020140D01*
X130834383Y-88925400D01*
X130785617Y-88925400D01*
X130309329Y-89020140D01*
X129905552Y-89289935D01*
X129635757Y-89693712D01*
X129541017Y-90170000D01*
X129538983Y-90170000D01*
X129444243Y-89693712D01*
X129174448Y-89289935D01*
X128770671Y-89020140D01*
X128294383Y-88925400D01*
X128245617Y-88925400D01*
X127769329Y-89020140D01*
X127365552Y-89289935D01*
X127095757Y-89693712D01*
X127001017Y-90170000D01*
X84999740Y-90170000D01*
X84929791Y-90123262D01*
X84592647Y-90056200D01*
X83997353Y-90056200D01*
X83660209Y-90123262D01*
X83374392Y-90314239D01*
X83183415Y-90600056D01*
X83116353Y-90937200D01*
X83006000Y-90937200D01*
X83006000Y-87599983D01*
X86803604Y-87599983D01*
X86975425Y-88015823D01*
X87293303Y-88334256D01*
X87708843Y-88506804D01*
X88158783Y-88507196D01*
X88574623Y-88335375D01*
X88893056Y-88017497D01*
X88919453Y-87953925D01*
X106679894Y-87953925D01*
X106772505Y-88178060D01*
X106943838Y-88349693D01*
X107167811Y-88442694D01*
X107410325Y-88442906D01*
X107634460Y-88350295D01*
X107806093Y-88178962D01*
X107899094Y-87954989D01*
X107899094Y-87953925D01*
X108610294Y-87953925D01*
X108702905Y-88178060D01*
X108874238Y-88349693D01*
X109098211Y-88442694D01*
X109340725Y-88442906D01*
X109564860Y-88350295D01*
X109736493Y-88178962D01*
X109829494Y-87954989D01*
X109829706Y-87712475D01*
X109737095Y-87488340D01*
X109565762Y-87316707D01*
X109341789Y-87223706D01*
X109099275Y-87223494D01*
X108875140Y-87316105D01*
X108703507Y-87487438D01*
X108610506Y-87711411D01*
X108610294Y-87953925D01*
X107899094Y-87953925D01*
X107899306Y-87712475D01*
X107806695Y-87488340D01*
X107635362Y-87316707D01*
X107411389Y-87223706D01*
X107168875Y-87223494D01*
X106944740Y-87316105D01*
X106773107Y-87487438D01*
X106680106Y-87711411D01*
X106679894Y-87953925D01*
X88919453Y-87953925D01*
X89065604Y-87601957D01*
X89065996Y-87152017D01*
X88894175Y-86736177D01*
X88576297Y-86417744D01*
X88160757Y-86245196D01*
X87710817Y-86244804D01*
X87294977Y-86416625D01*
X86976544Y-86734503D01*
X86803996Y-87150043D01*
X86803604Y-87599983D01*
X83006000Y-87599983D01*
X83006000Y-85449026D01*
X126815042Y-85449026D01*
X126987312Y-85864947D01*
X127381510Y-86296821D01*
X127771662Y-86479676D01*
X127769329Y-86480140D01*
X127365552Y-86749935D01*
X127095757Y-87153712D01*
X127001017Y-87630000D01*
X127095757Y-88106288D01*
X127365552Y-88510065D01*
X127769329Y-88779860D01*
X128245617Y-88874600D01*
X128294383Y-88874600D01*
X128770671Y-88779860D01*
X129174448Y-88510065D01*
X129444243Y-88106288D01*
X129538983Y-87630000D01*
X129444243Y-87153712D01*
X129174448Y-86749935D01*
X128770671Y-86480140D01*
X128768338Y-86479676D01*
X129158490Y-86296821D01*
X129540000Y-85878848D01*
X129921510Y-86296821D01*
X130311662Y-86479676D01*
X130309329Y-86480140D01*
X129905552Y-86749935D01*
X129635757Y-87153712D01*
X129541017Y-87630000D01*
X129635757Y-88106288D01*
X129905552Y-88510065D01*
X130309329Y-88779860D01*
X130785617Y-88874600D01*
X130834383Y-88874600D01*
X131310671Y-88779860D01*
X131520397Y-88639725D01*
X137312294Y-88639725D01*
X137404905Y-88863860D01*
X137576238Y-89035493D01*
X137800211Y-89128494D01*
X138042725Y-89128706D01*
X138266860Y-89036095D01*
X138438493Y-88864762D01*
X138531494Y-88640789D01*
X138531706Y-88398275D01*
X138528229Y-88389859D01*
X162538546Y-88389859D01*
X162673904Y-88687855D01*
X163392280Y-88964466D01*
X164161827Y-88945110D01*
X164782896Y-88687855D01*
X164918254Y-88389859D01*
X167618546Y-88389859D01*
X167753904Y-88687855D01*
X168472280Y-88964466D01*
X169241827Y-88945110D01*
X169862896Y-88687855D01*
X169998254Y-88389859D01*
X168808400Y-87200005D01*
X167618546Y-88389859D01*
X164918254Y-88389859D01*
X163728400Y-87200005D01*
X162538546Y-88389859D01*
X138528229Y-88389859D01*
X138439095Y-88174140D01*
X138267762Y-88002507D01*
X138043789Y-87909506D01*
X137801275Y-87909294D01*
X137577140Y-88001905D01*
X137405507Y-88173238D01*
X137312506Y-88397211D01*
X137312294Y-88639725D01*
X131520397Y-88639725D01*
X131714448Y-88510065D01*
X131984243Y-88106288D01*
X132078983Y-87630000D01*
X131984243Y-87153712D01*
X131714448Y-86749935D01*
X131616189Y-86684280D01*
X161784334Y-86684280D01*
X161803690Y-87453827D01*
X162060945Y-88074896D01*
X162358941Y-88210254D01*
X163548795Y-87020400D01*
X163908005Y-87020400D01*
X165097859Y-88210254D01*
X165395855Y-88074896D01*
X165672466Y-87356520D01*
X165653110Y-86586973D01*
X165395855Y-85965904D01*
X165097859Y-85830546D01*
X163908005Y-87020400D01*
X163548795Y-87020400D01*
X162358941Y-85830546D01*
X162060945Y-85965904D01*
X161784334Y-86684280D01*
X131616189Y-86684280D01*
X131310671Y-86480140D01*
X131308338Y-86479676D01*
X131698490Y-86296821D01*
X132092688Y-85864947D01*
X132181326Y-85650941D01*
X162538546Y-85650941D01*
X163728400Y-86840795D01*
X164918254Y-85650941D01*
X164782896Y-85352945D01*
X164064520Y-85076334D01*
X163294973Y-85095690D01*
X162673904Y-85352945D01*
X162538546Y-85650941D01*
X132181326Y-85650941D01*
X132264958Y-85449026D01*
X132143817Y-85217000D01*
X130937000Y-85217000D01*
X130937000Y-85237000D01*
X130683000Y-85237000D01*
X130683000Y-85217000D01*
X128397000Y-85217000D01*
X128397000Y-85237000D01*
X128143000Y-85237000D01*
X128143000Y-85217000D01*
X126936183Y-85217000D01*
X126815042Y-85449026D01*
X83006000Y-85449026D01*
X83006000Y-84196383D01*
X83654004Y-84196383D01*
X83825825Y-84612223D01*
X84143703Y-84930656D01*
X84559243Y-85103204D01*
X85009183Y-85103596D01*
X85425023Y-84931775D01*
X85626174Y-84730974D01*
X126815042Y-84730974D01*
X126936183Y-84963000D01*
X128143000Y-84963000D01*
X128143000Y-84943000D01*
X128397000Y-84943000D01*
X128397000Y-84963000D01*
X130683000Y-84963000D01*
X130683000Y-84943000D01*
X130937000Y-84943000D01*
X130937000Y-84963000D01*
X132143817Y-84963000D01*
X132264958Y-84730974D01*
X132263894Y-84728403D01*
X164737118Y-84728403D01*
X164984899Y-85328080D01*
X165443307Y-85787288D01*
X166042551Y-86036116D01*
X166691403Y-86036682D01*
X167291080Y-85788901D01*
X167344233Y-85735841D01*
X167438939Y-85830547D01*
X167140945Y-85965904D01*
X166864334Y-86684280D01*
X166883690Y-87453827D01*
X167140945Y-88074896D01*
X167438941Y-88210254D01*
X168628795Y-87020400D01*
X168988005Y-87020400D01*
X170177859Y-88210254D01*
X170475855Y-88074896D01*
X170752466Y-87356520D01*
X170733110Y-86586973D01*
X170475855Y-85965904D01*
X170177859Y-85830546D01*
X168988005Y-87020400D01*
X168628795Y-87020400D01*
X168614653Y-87006258D01*
X168794258Y-86826653D01*
X168808400Y-86840795D01*
X169998254Y-85650941D01*
X169862896Y-85352945D01*
X169144520Y-85076334D01*
X168374973Y-85095690D01*
X167753904Y-85352945D01*
X167618547Y-85650939D01*
X167523997Y-85556389D01*
X167750288Y-85330493D01*
X167999116Y-84731249D01*
X167999682Y-84082397D01*
X167813009Y-83630613D01*
X168472280Y-83884466D01*
X169241827Y-83865110D01*
X169862896Y-83607855D01*
X169998254Y-83309859D01*
X168808400Y-82120005D01*
X168794258Y-82134148D01*
X168614653Y-81954543D01*
X168628795Y-81940400D01*
X168988005Y-81940400D01*
X170177859Y-83130254D01*
X170475855Y-82994896D01*
X170752466Y-82276520D01*
X170733110Y-81506973D01*
X170475855Y-80885904D01*
X170177859Y-80750546D01*
X168988005Y-81940400D01*
X168628795Y-81940400D01*
X167438941Y-80750546D01*
X167140945Y-80885904D01*
X166864334Y-81604280D01*
X166883690Y-82373827D01*
X167123572Y-82952955D01*
X166694249Y-82774684D01*
X166045397Y-82774118D01*
X165445720Y-83021899D01*
X164986512Y-83480307D01*
X164737684Y-84079551D01*
X164737118Y-84728403D01*
X132263894Y-84728403D01*
X132092688Y-84315053D01*
X131698490Y-83883179D01*
X131308338Y-83700324D01*
X131310671Y-83699860D01*
X131714448Y-83430065D01*
X131794767Y-83309859D01*
X162538546Y-83309859D01*
X162673904Y-83607855D01*
X163392280Y-83884466D01*
X164161827Y-83865110D01*
X164782896Y-83607855D01*
X164918254Y-83309859D01*
X163728400Y-82120005D01*
X162538546Y-83309859D01*
X131794767Y-83309859D01*
X131984243Y-83026288D01*
X132078983Y-82550000D01*
X131984243Y-82073712D01*
X131714448Y-81669935D01*
X131616189Y-81604280D01*
X161784334Y-81604280D01*
X161803690Y-82373827D01*
X162060945Y-82994896D01*
X162358941Y-83130254D01*
X163548795Y-81940400D01*
X163908005Y-81940400D01*
X165097859Y-83130254D01*
X165395855Y-82994896D01*
X165672466Y-82276520D01*
X165653110Y-81506973D01*
X165395855Y-80885904D01*
X165097859Y-80750546D01*
X163908005Y-81940400D01*
X163548795Y-81940400D01*
X162358941Y-80750546D01*
X162060945Y-80885904D01*
X161784334Y-81604280D01*
X131616189Y-81604280D01*
X131310671Y-81400140D01*
X130834383Y-81305400D01*
X130785617Y-81305400D01*
X130309329Y-81400140D01*
X129905552Y-81669935D01*
X129635757Y-82073712D01*
X129541017Y-82550000D01*
X129635757Y-83026288D01*
X129905552Y-83430065D01*
X130309329Y-83699860D01*
X130311662Y-83700324D01*
X129921510Y-83883179D01*
X129540000Y-84301152D01*
X129158490Y-83883179D01*
X128985418Y-83802064D01*
X129133600Y-83802064D01*
X129274790Y-83775497D01*
X129404465Y-83692054D01*
X129491459Y-83564734D01*
X129522064Y-83413600D01*
X129522064Y-81686400D01*
X129495497Y-81545210D01*
X129412054Y-81415535D01*
X129284734Y-81328541D01*
X129133600Y-81297936D01*
X127406400Y-81297936D01*
X127265210Y-81324503D01*
X127135535Y-81407946D01*
X127048541Y-81535266D01*
X127017936Y-81686400D01*
X127017936Y-83413600D01*
X127044503Y-83554790D01*
X127127946Y-83684465D01*
X127255266Y-83771459D01*
X127406400Y-83802064D01*
X127554582Y-83802064D01*
X127381510Y-83883179D01*
X126987312Y-84315053D01*
X126815042Y-84730974D01*
X85626174Y-84730974D01*
X85743456Y-84613897D01*
X85916004Y-84198357D01*
X85916396Y-83748417D01*
X85744575Y-83332577D01*
X85426697Y-83014144D01*
X85011157Y-82841596D01*
X84561217Y-82841204D01*
X84145377Y-83013025D01*
X83826944Y-83330903D01*
X83654396Y-83746443D01*
X83654004Y-84196383D01*
X83006000Y-84196383D01*
X83006000Y-82062783D01*
X106412404Y-82062783D01*
X106584225Y-82478623D01*
X106902103Y-82797056D01*
X107317643Y-82969604D01*
X107767583Y-82969996D01*
X108183423Y-82798175D01*
X108462100Y-82519983D01*
X114184804Y-82519983D01*
X114356625Y-82935823D01*
X114674503Y-83254256D01*
X115090043Y-83426804D01*
X115539983Y-83427196D01*
X115955823Y-83255375D01*
X116274256Y-82937497D01*
X116446804Y-82521957D01*
X116447196Y-82072017D01*
X116275375Y-81656177D01*
X115957497Y-81337744D01*
X115541957Y-81165196D01*
X115092017Y-81164804D01*
X114676177Y-81336625D01*
X114357744Y-81654503D01*
X114185196Y-82070043D01*
X114184804Y-82519983D01*
X108462100Y-82519983D01*
X108501856Y-82480297D01*
X108674404Y-82064757D01*
X108674796Y-81614817D01*
X108502975Y-81198977D01*
X108185097Y-80880544D01*
X107908584Y-80765725D01*
X129184294Y-80765725D01*
X129276905Y-80989860D01*
X129448238Y-81161493D01*
X129672211Y-81254494D01*
X129914725Y-81254706D01*
X130138860Y-81162095D01*
X130310493Y-80990762D01*
X130403494Y-80766789D01*
X130403665Y-80570941D01*
X162538546Y-80570941D01*
X163728400Y-81760795D01*
X164918254Y-80570941D01*
X167618546Y-80570941D01*
X168808400Y-81760795D01*
X169998254Y-80570941D01*
X169862896Y-80272945D01*
X169144520Y-79996334D01*
X168374973Y-80015690D01*
X167753904Y-80272945D01*
X167618546Y-80570941D01*
X164918254Y-80570941D01*
X164782896Y-80272945D01*
X164064520Y-79996334D01*
X163294973Y-80015690D01*
X162673904Y-80272945D01*
X162538546Y-80570941D01*
X130403665Y-80570941D01*
X130403706Y-80524275D01*
X130311095Y-80300140D01*
X130139762Y-80128507D01*
X129915789Y-80035506D01*
X129673275Y-80035294D01*
X129449140Y-80127905D01*
X129277507Y-80299238D01*
X129184506Y-80523211D01*
X129184294Y-80765725D01*
X107908584Y-80765725D01*
X107769557Y-80707996D01*
X107319617Y-80707604D01*
X106903777Y-80879425D01*
X106585344Y-81197303D01*
X106412796Y-81612843D01*
X106412404Y-82062783D01*
X83006000Y-82062783D01*
X83006000Y-80995983D01*
X99452804Y-80995983D01*
X99624625Y-81411823D01*
X99942503Y-81730256D01*
X100358043Y-81902804D01*
X100807983Y-81903196D01*
X101223823Y-81731375D01*
X101542256Y-81413497D01*
X101714804Y-80997957D01*
X101715196Y-80548017D01*
X101543375Y-80132177D01*
X101225497Y-79813744D01*
X100809957Y-79641196D01*
X100360017Y-79640804D01*
X99944177Y-79812625D01*
X99625744Y-80130503D01*
X99453196Y-80546043D01*
X99452804Y-80995983D01*
X83006000Y-80995983D01*
X83006000Y-79446583D01*
X116089804Y-79446583D01*
X116261625Y-79862423D01*
X116579503Y-80180856D01*
X116995043Y-80353404D01*
X117444983Y-80353796D01*
X117860823Y-80181975D01*
X118179256Y-79864097D01*
X118351804Y-79448557D01*
X118352196Y-78998617D01*
X118180375Y-78582777D01*
X117862497Y-78264344D01*
X117446957Y-78091796D01*
X116997017Y-78091404D01*
X116581177Y-78263225D01*
X116262744Y-78581103D01*
X116090196Y-78996643D01*
X116089804Y-79446583D01*
X83006000Y-79446583D01*
X83006000Y-78352725D01*
X95605494Y-78352725D01*
X95698105Y-78576860D01*
X95869438Y-78748493D01*
X96093411Y-78841494D01*
X96335925Y-78841706D01*
X96560060Y-78749095D01*
X96731693Y-78577762D01*
X96824694Y-78353789D01*
X96824906Y-78111275D01*
X96732295Y-77887140D01*
X96560962Y-77715507D01*
X96336989Y-77622506D01*
X96094475Y-77622294D01*
X95870340Y-77714905D01*
X95698707Y-77886238D01*
X95605706Y-78110211D01*
X95605494Y-78352725D01*
X83006000Y-78352725D01*
X83006000Y-77590725D01*
X137947294Y-77590725D01*
X138039905Y-77814860D01*
X138211238Y-77986493D01*
X138435211Y-78079494D01*
X138677725Y-78079706D01*
X138901860Y-77987095D01*
X139073493Y-77815762D01*
X139166494Y-77591789D01*
X139166706Y-77349275D01*
X139074095Y-77125140D01*
X138902762Y-76953507D01*
X138678789Y-76860506D01*
X138436275Y-76860294D01*
X138212140Y-76952905D01*
X138040507Y-77124238D01*
X137947506Y-77348211D01*
X137947294Y-77590725D01*
X83006000Y-77590725D01*
X83006000Y-75915983D01*
X93356804Y-75915983D01*
X93528625Y-76331823D01*
X93846503Y-76650256D01*
X94262043Y-76822804D01*
X94711983Y-76823196D01*
X95127823Y-76651375D01*
X95446256Y-76333497D01*
X95618804Y-75917957D01*
X95619196Y-75468017D01*
X95554319Y-75311000D01*
X152200001Y-75311000D01*
X152244227Y-75533339D01*
X152370172Y-75721828D01*
X152558661Y-75847773D01*
X152781000Y-75891999D01*
X152908000Y-75891999D01*
X153130339Y-75847773D01*
X153318828Y-75721828D01*
X153444773Y-75533339D01*
X153488999Y-75311000D01*
X153473299Y-75232067D01*
X170704000Y-75232067D01*
X170704000Y-75897933D01*
X170809122Y-76426419D01*
X171108486Y-76874447D01*
X171556514Y-77173811D01*
X172085000Y-77278933D01*
X172613486Y-77173811D01*
X173061514Y-76874447D01*
X173355000Y-76435216D01*
X173648486Y-76874447D01*
X174096514Y-77173811D01*
X174625000Y-77278933D01*
X175153486Y-77173811D01*
X175601514Y-76874447D01*
X175776536Y-76612509D01*
X175776536Y-76865000D01*
X175803103Y-77006190D01*
X175886546Y-77135865D01*
X176013866Y-77222859D01*
X176165000Y-77253464D01*
X178165000Y-77253464D01*
X178306190Y-77226897D01*
X178435865Y-77143454D01*
X178522859Y-77016134D01*
X178553464Y-76865000D01*
X178553464Y-74265000D01*
X178526897Y-74123810D01*
X178443454Y-73994135D01*
X178316134Y-73907141D01*
X178165000Y-73876536D01*
X176165000Y-73876536D01*
X176023810Y-73903103D01*
X175894135Y-73986546D01*
X175807141Y-74113866D01*
X175776536Y-74265000D01*
X175776536Y-74517491D01*
X175601514Y-74255553D01*
X175153486Y-73956189D01*
X174625000Y-73851067D01*
X174096514Y-73956189D01*
X173648486Y-74255553D01*
X173355000Y-74694784D01*
X173061514Y-74255553D01*
X172613486Y-73956189D01*
X172085000Y-73851067D01*
X171556514Y-73956189D01*
X171108486Y-74255553D01*
X170809122Y-74703581D01*
X170704000Y-75232067D01*
X153473299Y-75232067D01*
X153444773Y-75088661D01*
X153318828Y-74900172D01*
X153130339Y-74774227D01*
X152908000Y-74730001D01*
X152781000Y-74730001D01*
X152558661Y-74774227D01*
X152370172Y-74900172D01*
X152244227Y-75088661D01*
X152200001Y-75311000D01*
X95554319Y-75311000D01*
X95447375Y-75052177D01*
X95129497Y-74733744D01*
X94713957Y-74561196D01*
X94264017Y-74560804D01*
X93848177Y-74732625D01*
X93529744Y-75050503D01*
X93357196Y-75466043D01*
X93356804Y-75915983D01*
X83006000Y-75915983D01*
X83006000Y-73882325D01*
X109270694Y-73882325D01*
X109363305Y-74106460D01*
X109534638Y-74278093D01*
X109758611Y-74371094D01*
X110001125Y-74371306D01*
X110225260Y-74278695D01*
X110396893Y-74107362D01*
X110489894Y-73883389D01*
X110490106Y-73640875D01*
X110397495Y-73416740D01*
X110226162Y-73245107D01*
X110002189Y-73152106D01*
X109759675Y-73151894D01*
X109535540Y-73244505D01*
X109363907Y-73415838D01*
X109270906Y-73639811D01*
X109270694Y-73882325D01*
X83006000Y-73882325D01*
X83006000Y-71799525D01*
X99567894Y-71799525D01*
X99660505Y-72023660D01*
X99831838Y-72195293D01*
X100055811Y-72288294D01*
X100298325Y-72288506D01*
X100522460Y-72195895D01*
X100523381Y-72194975D01*
X134423131Y-72194975D01*
X134484969Y-72430742D01*
X134985922Y-72607119D01*
X135516240Y-72578364D01*
X135872631Y-72430742D01*
X135934469Y-72194975D01*
X136963131Y-72194975D01*
X137024969Y-72430742D01*
X137525922Y-72607119D01*
X138056240Y-72578364D01*
X138412631Y-72430742D01*
X138474469Y-72194975D01*
X137718800Y-71439305D01*
X136963131Y-72194975D01*
X135934469Y-72194975D01*
X135178800Y-71439305D01*
X134423131Y-72194975D01*
X100523381Y-72194975D01*
X100694093Y-72024562D01*
X100787094Y-71800589D01*
X100787306Y-71558075D01*
X100782121Y-71545525D01*
X101041094Y-71545525D01*
X101133705Y-71769660D01*
X101305038Y-71941293D01*
X101529011Y-72034294D01*
X101771525Y-72034506D01*
X101995660Y-71941895D01*
X102167293Y-71770562D01*
X102260294Y-71546589D01*
X102260372Y-71456625D01*
X132562494Y-71456625D01*
X132655105Y-71680760D01*
X132826438Y-71852393D01*
X133050411Y-71945394D01*
X133292925Y-71945606D01*
X133517060Y-71852995D01*
X133688693Y-71681662D01*
X133781694Y-71457689D01*
X133781906Y-71215175D01*
X133720608Y-71066822D01*
X133831381Y-71066822D01*
X133860136Y-71597140D01*
X134007758Y-71953531D01*
X134243525Y-72015369D01*
X134999195Y-71259700D01*
X135358405Y-71259700D01*
X136114075Y-72015369D01*
X136349842Y-71953531D01*
X136440777Y-71695255D01*
X136547758Y-71953531D01*
X136783525Y-72015369D01*
X137539195Y-71259700D01*
X137898405Y-71259700D01*
X138654075Y-72015369D01*
X138889842Y-71953531D01*
X139066219Y-71452578D01*
X139037464Y-70922260D01*
X138889842Y-70565869D01*
X138654075Y-70504031D01*
X137898405Y-71259700D01*
X137539195Y-71259700D01*
X136783525Y-70504031D01*
X136547758Y-70565869D01*
X136456823Y-70824145D01*
X136349842Y-70565869D01*
X136114075Y-70504031D01*
X135358405Y-71259700D01*
X134999195Y-71259700D01*
X134243525Y-70504031D01*
X134007758Y-70565869D01*
X133831381Y-71066822D01*
X133720608Y-71066822D01*
X133689295Y-70991040D01*
X133517962Y-70819407D01*
X133293989Y-70726406D01*
X133051475Y-70726194D01*
X132827340Y-70818805D01*
X132655707Y-70990138D01*
X132562706Y-71214111D01*
X132562494Y-71456625D01*
X102260372Y-71456625D01*
X102260506Y-71304075D01*
X102167895Y-71079940D01*
X101996562Y-70908307D01*
X101772589Y-70815306D01*
X101530075Y-70815094D01*
X101305940Y-70907705D01*
X101134307Y-71079038D01*
X101041306Y-71303011D01*
X101041094Y-71545525D01*
X100782121Y-71545525D01*
X100694695Y-71333940D01*
X100523362Y-71162307D01*
X100299389Y-71069306D01*
X100056875Y-71069094D01*
X99832740Y-71161705D01*
X99661107Y-71333038D01*
X99568106Y-71557011D01*
X99567894Y-71799525D01*
X83006000Y-71799525D01*
X83006000Y-70324425D01*
X134423131Y-70324425D01*
X135178800Y-71080095D01*
X135934469Y-70324425D01*
X136963131Y-70324425D01*
X137718800Y-71080095D01*
X138474469Y-70324425D01*
X138412631Y-70088658D01*
X137911678Y-69912281D01*
X137381360Y-69941036D01*
X137024969Y-70088658D01*
X136963131Y-70324425D01*
X135934469Y-70324425D01*
X135872631Y-70088658D01*
X135371678Y-69912281D01*
X134841360Y-69941036D01*
X134484969Y-70088658D01*
X134423131Y-70324425D01*
X83006000Y-70324425D01*
X83006000Y-69208725D01*
X87731494Y-69208725D01*
X87824105Y-69432860D01*
X87995438Y-69604493D01*
X88219411Y-69697494D01*
X88461925Y-69697706D01*
X88686060Y-69605095D01*
X88857693Y-69433762D01*
X88950694Y-69209789D01*
X88950739Y-69157925D01*
X91033494Y-69157925D01*
X91126105Y-69382060D01*
X91297438Y-69553693D01*
X91521411Y-69646694D01*
X91763925Y-69646906D01*
X91988060Y-69554295D01*
X92159693Y-69382962D01*
X92218889Y-69240400D01*
X103228801Y-69240400D01*
X103273027Y-69462739D01*
X103398972Y-69651228D01*
X103587461Y-69777173D01*
X103809800Y-69821399D01*
X103860600Y-69821399D01*
X104082939Y-69777173D01*
X104271428Y-69651228D01*
X104397373Y-69462739D01*
X104397375Y-69462725D01*
X129184294Y-69462725D01*
X129276905Y-69686860D01*
X129448238Y-69858493D01*
X129672211Y-69951494D01*
X129914725Y-69951706D01*
X130138860Y-69859095D01*
X130310493Y-69687762D01*
X130403494Y-69463789D01*
X130403706Y-69221275D01*
X130311095Y-68997140D01*
X130139762Y-68825507D01*
X129915789Y-68732506D01*
X129673275Y-68732294D01*
X129449140Y-68824905D01*
X129277507Y-68996238D01*
X129184506Y-69220211D01*
X129184294Y-69462725D01*
X104397375Y-69462725D01*
X104441599Y-69240400D01*
X104397373Y-69018061D01*
X104271428Y-68829572D01*
X104082939Y-68703627D01*
X103860600Y-68659401D01*
X103809800Y-68659401D01*
X103587461Y-68703627D01*
X103398972Y-68829572D01*
X103273027Y-69018061D01*
X103228801Y-69240400D01*
X92218889Y-69240400D01*
X92252694Y-69158989D01*
X92252906Y-68916475D01*
X92160295Y-68692340D01*
X92041888Y-68573725D01*
X127279294Y-68573725D01*
X127371905Y-68797860D01*
X127543238Y-68969493D01*
X127767211Y-69062494D01*
X128009725Y-69062706D01*
X128233860Y-68970095D01*
X128405493Y-68798762D01*
X128498494Y-68574789D01*
X128498706Y-68332275D01*
X128406095Y-68108140D01*
X128234762Y-67936507D01*
X128010789Y-67843506D01*
X127768275Y-67843294D01*
X127544140Y-67935905D01*
X127372507Y-68107238D01*
X127279506Y-68331211D01*
X127279294Y-68573725D01*
X92041888Y-68573725D01*
X91988962Y-68520707D01*
X91764989Y-68427706D01*
X91522475Y-68427494D01*
X91298340Y-68520105D01*
X91126707Y-68691438D01*
X91033706Y-68915411D01*
X91033494Y-69157925D01*
X88950739Y-69157925D01*
X88950906Y-68967275D01*
X88858295Y-68743140D01*
X88686962Y-68571507D01*
X88462989Y-68478506D01*
X88220475Y-68478294D01*
X87996340Y-68570905D01*
X87824707Y-68742238D01*
X87731706Y-68966211D01*
X87731494Y-69208725D01*
X83006000Y-69208725D01*
X83006000Y-67837125D01*
X112445694Y-67837125D01*
X112538305Y-68061260D01*
X112709638Y-68232893D01*
X112933611Y-68325894D01*
X113176125Y-68326106D01*
X113400260Y-68233495D01*
X113571893Y-68062162D01*
X113664894Y-67838189D01*
X113665106Y-67595675D01*
X113572495Y-67371540D01*
X113401162Y-67199907D01*
X113177189Y-67106906D01*
X112934675Y-67106694D01*
X112710540Y-67199305D01*
X112538907Y-67370638D01*
X112445906Y-67594611D01*
X112445694Y-67837125D01*
X83006000Y-67837125D01*
X83006000Y-65281140D01*
X83778553Y-65281140D01*
X84170659Y-66230109D01*
X84896072Y-66956790D01*
X85844355Y-67350551D01*
X86871140Y-67351447D01*
X86925163Y-67329125D01*
X87883894Y-67329125D01*
X87976505Y-67553260D01*
X88147838Y-67724893D01*
X88371811Y-67817894D01*
X88614325Y-67818106D01*
X88838460Y-67725495D01*
X89010093Y-67554162D01*
X89103094Y-67330189D01*
X89103306Y-67087675D01*
X89010695Y-66863540D01*
X88839362Y-66691907D01*
X88615389Y-66598906D01*
X88372875Y-66598694D01*
X88148740Y-66691305D01*
X87977107Y-66862638D01*
X87884106Y-67086611D01*
X87883894Y-67329125D01*
X86925163Y-67329125D01*
X87820109Y-66959341D01*
X88546790Y-66233928D01*
X88639779Y-66009983D01*
X94576004Y-66009983D01*
X94747825Y-66425823D01*
X95065703Y-66744256D01*
X95481243Y-66916804D01*
X95931183Y-66917196D01*
X96209979Y-66802000D01*
X126292001Y-66802000D01*
X126336227Y-67024339D01*
X126462172Y-67212828D01*
X126650661Y-67338773D01*
X126873000Y-67382999D01*
X127889000Y-67382999D01*
X128111339Y-67338773D01*
X128299828Y-67212828D01*
X128425773Y-67024339D01*
X128469999Y-66802000D01*
X128425773Y-66579661D01*
X128299828Y-66391172D01*
X128111339Y-66265227D01*
X127889000Y-66221001D01*
X126873000Y-66221001D01*
X126650661Y-66265227D01*
X126462172Y-66391172D01*
X126336227Y-66579661D01*
X126292001Y-66802000D01*
X96209979Y-66802000D01*
X96347023Y-66745375D01*
X96665456Y-66427497D01*
X96838004Y-66011957D01*
X96838396Y-65562017D01*
X96686966Y-65195525D01*
X124256694Y-65195525D01*
X124349305Y-65419660D01*
X124520638Y-65591293D01*
X124744611Y-65684294D01*
X124987125Y-65684506D01*
X125211260Y-65591895D01*
X125382893Y-65420562D01*
X125440785Y-65281140D01*
X175218553Y-65281140D01*
X175610659Y-66230109D01*
X176336072Y-66956790D01*
X177284355Y-67350551D01*
X178311140Y-67351447D01*
X179260109Y-66959341D01*
X179986790Y-66233928D01*
X180380551Y-65285645D01*
X180381447Y-64258860D01*
X179989341Y-63309891D01*
X179263928Y-62583210D01*
X178315645Y-62189449D01*
X177288860Y-62188553D01*
X176339891Y-62580659D01*
X175613210Y-63306072D01*
X175219449Y-64254355D01*
X175218553Y-65281140D01*
X125440785Y-65281140D01*
X125475894Y-65196589D01*
X125476106Y-64954075D01*
X125383495Y-64729940D01*
X125212162Y-64558307D01*
X124988189Y-64465306D01*
X124745675Y-64465094D01*
X124521540Y-64557705D01*
X124349907Y-64729038D01*
X124256906Y-64953011D01*
X124256694Y-65195525D01*
X96686966Y-65195525D01*
X96666575Y-65146177D01*
X96348697Y-64827744D01*
X95933157Y-64655196D01*
X95483217Y-64654804D01*
X95067377Y-64826625D01*
X94748944Y-65144503D01*
X94576396Y-65560043D01*
X94576004Y-66009983D01*
X88639779Y-66009983D01*
X88940551Y-65285645D01*
X88941447Y-64258860D01*
X88549341Y-63309891D01*
X88455597Y-63215983D01*
X91121604Y-63215983D01*
X91293425Y-63631823D01*
X91611303Y-63950256D01*
X92026843Y-64122804D01*
X92476783Y-64123196D01*
X92892623Y-63951375D01*
X93211056Y-63633497D01*
X93383604Y-63217957D01*
X93383996Y-62768017D01*
X93212175Y-62352177D01*
X92894297Y-62033744D01*
X92478757Y-61861196D01*
X92028817Y-61860804D01*
X91612977Y-62032625D01*
X91294544Y-62350503D01*
X91121996Y-62766043D01*
X91121604Y-63215983D01*
X88455597Y-63215983D01*
X87823928Y-62583210D01*
X86875645Y-62189449D01*
X85848860Y-62188553D01*
X84899891Y-62580659D01*
X84173210Y-63306072D01*
X83779449Y-64254355D01*
X83778553Y-65281140D01*
X83006000Y-65281140D01*
X83006000Y-61416000D01*
X181154000Y-61416000D01*
X181154000Y-113844000D01*
M02*
