G04 #@! TF.FileFunction,Legend,Top*
%FSLAX46Y46*%
G04 Gerber Fmt 4.6, Leading zero omitted, Abs format (unit mm)*
G04 Created by KiCad (PCBNEW 4.0.5+dfsg1-4~bpo8+1) date Fri Nov  1 07:22:00 2019*
%MOMM*%
%LPD*%
G01*
G04 APERTURE LIST*
%ADD10C,0.100000*%
%ADD11C,0.200000*%
%ADD12C,0.218948*%
%ADD13C,0.150000*%
%ADD14C,0.152400*%
%ADD15C,0.120000*%
G04 APERTURE END LIST*
D10*
D11*
X166390819Y-108466781D02*
X166390819Y-107800114D01*
X166390819Y-107990590D02*
X166438438Y-107895352D01*
X166486057Y-107847733D01*
X166581295Y-107800114D01*
X166676534Y-107800114D01*
X167390820Y-108419162D02*
X167295582Y-108466781D01*
X167105105Y-108466781D01*
X167009867Y-108419162D01*
X166962248Y-108323924D01*
X166962248Y-107942971D01*
X167009867Y-107847733D01*
X167105105Y-107800114D01*
X167295582Y-107800114D01*
X167390820Y-107847733D01*
X167438439Y-107942971D01*
X167438439Y-108038210D01*
X166962248Y-108133448D01*
X167771772Y-107800114D02*
X168009867Y-108466781D01*
X168247963Y-107800114D01*
X168628915Y-108371543D02*
X168676534Y-108419162D01*
X168628915Y-108466781D01*
X168581296Y-108419162D01*
X168628915Y-108371543D01*
X168628915Y-108466781D01*
X169771772Y-107466781D02*
X170390820Y-107466781D01*
X170057486Y-107847733D01*
X170200344Y-107847733D01*
X170295582Y-107895352D01*
X170343201Y-107942971D01*
X170390820Y-108038210D01*
X170390820Y-108276305D01*
X170343201Y-108371543D01*
X170295582Y-108419162D01*
X170200344Y-108466781D01*
X169914629Y-108466781D01*
X169819391Y-108419162D01*
X169771772Y-108371543D01*
X170867010Y-108419162D02*
X170867010Y-108466781D01*
X170819391Y-108562019D01*
X170771772Y-108609638D01*
X163747962Y-110166781D02*
X163176533Y-110166781D01*
X163462247Y-110166781D02*
X163462247Y-109166781D01*
X163367009Y-109309638D01*
X163271771Y-109404876D01*
X163176533Y-109452495D01*
X164700343Y-110166781D02*
X164128914Y-110166781D01*
X164414628Y-110166781D02*
X164414628Y-109166781D01*
X164319390Y-109309638D01*
X164224152Y-109404876D01*
X164128914Y-109452495D01*
X165843200Y-109119162D02*
X164986057Y-110404876D01*
X166367009Y-109166781D02*
X166462248Y-109166781D01*
X166557486Y-109214400D01*
X166605105Y-109262019D01*
X166652724Y-109357257D01*
X166700343Y-109547733D01*
X166700343Y-109785829D01*
X166652724Y-109976305D01*
X166605105Y-110071543D01*
X166557486Y-110119162D01*
X166462248Y-110166781D01*
X166367009Y-110166781D01*
X166271771Y-110119162D01*
X166224152Y-110071543D01*
X166176533Y-109976305D01*
X166128914Y-109785829D01*
X166128914Y-109547733D01*
X166176533Y-109357257D01*
X166224152Y-109262019D01*
X166271771Y-109214400D01*
X166367009Y-109166781D01*
X167652724Y-110166781D02*
X167081295Y-110166781D01*
X167367009Y-110166781D02*
X167367009Y-109166781D01*
X167271771Y-109309638D01*
X167176533Y-109404876D01*
X167081295Y-109452495D01*
X168795581Y-109119162D02*
X167938438Y-110404876D01*
X169081295Y-109262019D02*
X169128914Y-109214400D01*
X169224152Y-109166781D01*
X169462248Y-109166781D01*
X169557486Y-109214400D01*
X169605105Y-109262019D01*
X169652724Y-109357257D01*
X169652724Y-109452495D01*
X169605105Y-109595352D01*
X169033676Y-110166781D01*
X169652724Y-110166781D01*
X170271771Y-109166781D02*
X170367010Y-109166781D01*
X170462248Y-109214400D01*
X170509867Y-109262019D01*
X170557486Y-109357257D01*
X170605105Y-109547733D01*
X170605105Y-109785829D01*
X170557486Y-109976305D01*
X170509867Y-110071543D01*
X170462248Y-110119162D01*
X170367010Y-110166781D01*
X170271771Y-110166781D01*
X170176533Y-110119162D01*
X170128914Y-110071543D01*
X170081295Y-109976305D01*
X170033676Y-109785829D01*
X170033676Y-109547733D01*
X170081295Y-109357257D01*
X170128914Y-109262019D01*
X170176533Y-109214400D01*
X170271771Y-109166781D01*
X171557486Y-110166781D02*
X170986057Y-110166781D01*
X171271771Y-110166781D02*
X171271771Y-109166781D01*
X171176533Y-109309638D01*
X171081295Y-109404876D01*
X170986057Y-109452495D01*
X172033676Y-110166781D02*
X172224152Y-110166781D01*
X172319391Y-110119162D01*
X172367010Y-110071543D01*
X172462248Y-109928686D01*
X172509867Y-109738210D01*
X172509867Y-109357257D01*
X172462248Y-109262019D01*
X172414629Y-109214400D01*
X172319391Y-109166781D01*
X172128914Y-109166781D01*
X172033676Y-109214400D01*
X171986057Y-109262019D01*
X171938438Y-109357257D01*
X171938438Y-109595352D01*
X171986057Y-109690590D01*
X172033676Y-109738210D01*
X172128914Y-109785829D01*
X172319391Y-109785829D01*
X172414629Y-109738210D01*
X172462248Y-109690590D01*
X172509867Y-109595352D01*
D12*
X163234130Y-103131684D02*
X163132094Y-103077122D01*
X162968808Y-103077122D01*
X162798702Y-103131684D01*
X162676204Y-103240807D01*
X162608136Y-103349930D01*
X162526426Y-103568177D01*
X162505965Y-103731862D01*
X162533113Y-103950108D01*
X162573901Y-104059232D01*
X162669118Y-104168355D01*
X162825583Y-104222916D01*
X162934440Y-104222916D01*
X163104546Y-104168355D01*
X163165796Y-104113793D01*
X163213537Y-103731862D01*
X162995822Y-103731862D01*
X163642012Y-104222916D02*
X163785237Y-103077122D01*
X164220665Y-103077122D01*
X164322702Y-103131684D01*
X164370310Y-103186246D01*
X164411099Y-103295369D01*
X164390638Y-103459054D01*
X164322569Y-103568177D01*
X164261320Y-103622739D01*
X164145642Y-103677300D01*
X163710214Y-103677300D01*
X164737403Y-104168355D02*
X164893869Y-104222916D01*
X165166012Y-104222916D01*
X165281689Y-104168355D01*
X165342939Y-104113793D01*
X165411007Y-104004670D01*
X165424647Y-103895547D01*
X165383860Y-103786423D01*
X165336251Y-103731862D01*
X165234214Y-103677300D01*
X165023320Y-103622739D01*
X164921283Y-103568177D01*
X164873675Y-103513615D01*
X164832886Y-103404492D01*
X164846527Y-103295369D01*
X164914596Y-103186246D01*
X164975844Y-103131684D01*
X165091523Y-103077122D01*
X165363665Y-103077122D01*
X165520130Y-103131684D01*
X167200462Y-103622739D02*
X166819462Y-103622739D01*
X166744440Y-104222916D02*
X166887665Y-103077122D01*
X167431951Y-103077122D01*
X167724154Y-104222916D02*
X167819637Y-103459054D01*
X167792356Y-103677300D02*
X167860425Y-103568177D01*
X167921674Y-103513615D01*
X168037351Y-103459054D01*
X168146208Y-103459054D01*
X168595011Y-104222916D02*
X168492973Y-104168355D01*
X168445366Y-104113793D01*
X168404577Y-104004670D01*
X168445498Y-103677300D01*
X168513568Y-103568177D01*
X168574816Y-103513615D01*
X168690494Y-103459054D01*
X168853779Y-103459054D01*
X168955816Y-103513615D01*
X169003425Y-103568177D01*
X169044213Y-103677300D01*
X169003292Y-104004670D01*
X168935223Y-104113793D01*
X168873973Y-104168355D01*
X168758296Y-104222916D01*
X168595011Y-104222916D01*
X169561351Y-103459054D02*
X169465868Y-104222916D01*
X169547711Y-103568177D02*
X169608959Y-103513615D01*
X169724637Y-103459054D01*
X169887922Y-103459054D01*
X169989959Y-103513615D01*
X170030747Y-103622739D01*
X169955725Y-104222916D01*
X170432208Y-103459054D02*
X170867637Y-103459054D01*
X170643236Y-103077122D02*
X170520472Y-104059232D01*
X170561259Y-104168355D01*
X170663297Y-104222916D01*
X170772154Y-104222916D01*
X172099033Y-103622739D02*
X172480033Y-103622739D01*
X172568297Y-104222916D02*
X172024011Y-104222916D01*
X172167236Y-103077122D01*
X172711522Y-103077122D01*
X173153637Y-103459054D02*
X173058154Y-104222916D01*
X173139997Y-103568177D02*
X173201245Y-103513615D01*
X173316923Y-103459054D01*
X173480208Y-103459054D01*
X173582245Y-103513615D01*
X173623033Y-103622739D01*
X173548011Y-104222916D01*
X174582154Y-104222916D02*
X174725379Y-103077122D01*
X174588974Y-104168355D02*
X174473297Y-104222916D01*
X174255583Y-104222916D01*
X174153545Y-104168355D01*
X174105938Y-104113793D01*
X174065149Y-104004670D01*
X174106070Y-103677300D01*
X174174140Y-103568177D01*
X174235388Y-103513615D01*
X174351066Y-103459054D01*
X174568780Y-103459054D01*
X174670817Y-103513615D01*
X165445308Y-105014761D02*
X165329364Y-105942309D01*
X165370152Y-106051432D01*
X165417760Y-106105994D01*
X165519797Y-106160555D01*
X165737511Y-106160555D01*
X165853189Y-106105994D01*
X165914438Y-106051432D01*
X165982507Y-105942309D01*
X166098451Y-105014761D01*
X166451903Y-106105994D02*
X166608369Y-106160555D01*
X166880512Y-106160555D01*
X166996189Y-106105994D01*
X167057439Y-106051432D01*
X167125507Y-105942309D01*
X167139147Y-105833186D01*
X167098360Y-105724062D01*
X167050751Y-105669501D01*
X166948714Y-105614939D01*
X166737820Y-105560378D01*
X166635783Y-105505816D01*
X166588175Y-105451254D01*
X166547386Y-105342131D01*
X166561027Y-105233008D01*
X166629096Y-105123885D01*
X166690344Y-105069323D01*
X166806023Y-105014761D01*
X167078165Y-105014761D01*
X167234630Y-105069323D01*
X168044105Y-105560378D02*
X168200571Y-105614939D01*
X168248179Y-105669501D01*
X168288968Y-105778624D01*
X168268507Y-105942309D01*
X168200438Y-106051432D01*
X168139189Y-106105994D01*
X168023511Y-106160555D01*
X167588083Y-106160555D01*
X167731308Y-105014761D01*
X168112308Y-105014761D01*
X168214344Y-105069323D01*
X168261953Y-105123885D01*
X168302741Y-105233008D01*
X168289100Y-105342131D01*
X168221032Y-105451254D01*
X168159783Y-105505816D01*
X168044105Y-105560378D01*
X167663105Y-105560378D01*
X169601940Y-106160555D02*
X169745165Y-105014761D01*
X171112699Y-104960200D02*
X169948839Y-106433363D01*
X171799677Y-105560378D02*
X171418677Y-105560378D01*
X171343655Y-106160555D02*
X171486880Y-105014761D01*
X172031166Y-105014761D01*
D13*
X99476000Y-69946000D02*
X99476000Y-69246000D01*
X100676000Y-69246000D02*
X100676000Y-69946000D01*
X101125000Y-69854000D02*
X101125000Y-70354000D01*
X102075000Y-70354000D02*
X102075000Y-69854000D01*
X95105600Y-82841200D02*
X96105600Y-82841200D01*
X96105600Y-81141200D02*
X95105600Y-81141200D01*
X89574000Y-85606000D02*
X89574000Y-86606000D01*
X91274000Y-86606000D02*
X91274000Y-85606000D01*
X86393000Y-71378000D02*
X86393000Y-71878000D01*
X87343000Y-71878000D02*
X87343000Y-71378000D01*
X90521600Y-90660200D02*
X90021600Y-90660200D01*
X90021600Y-91610200D02*
X90521600Y-91610200D01*
X144814100Y-89555300D02*
X144314100Y-89555300D01*
X144314100Y-90505300D02*
X144814100Y-90505300D01*
X159670000Y-66456000D02*
X160370000Y-66456000D01*
X160370000Y-67656000D02*
X159670000Y-67656000D01*
X151261000Y-89756000D02*
X151761000Y-89756000D01*
X151761000Y-88806000D02*
X151261000Y-88806000D01*
X149737000Y-92169000D02*
X150237000Y-92169000D01*
X150237000Y-91219000D02*
X149737000Y-91219000D01*
X157828000Y-97278000D02*
X157828000Y-96778000D01*
X156878000Y-96778000D02*
X156878000Y-97278000D01*
X158746000Y-88552000D02*
X158246000Y-88552000D01*
X158246000Y-89502000D02*
X158746000Y-89502000D01*
X130140000Y-71532000D02*
X130140000Y-72232000D01*
X128940000Y-72232000D02*
X128940000Y-71532000D01*
X147351000Y-92668800D02*
X148051000Y-92668800D01*
X148051000Y-93868800D02*
X147351000Y-93868800D01*
X149991000Y-94963000D02*
X150491000Y-94963000D01*
X150491000Y-94013000D02*
X149991000Y-94013000D01*
X151261000Y-87978000D02*
X151761000Y-87978000D01*
X151761000Y-87028000D02*
X151261000Y-87028000D01*
X135517000Y-75780000D02*
X136517000Y-75780000D01*
X136517000Y-74080000D02*
X135517000Y-74080000D01*
X136808400Y-98315800D02*
X137308400Y-98315800D01*
X137308400Y-97365800D02*
X136808400Y-97365800D01*
X133989000Y-80485000D02*
X134489000Y-80485000D01*
X134489000Y-79535000D02*
X133989000Y-79535000D01*
X154338000Y-77601000D02*
X154338000Y-78101000D01*
X155288000Y-78101000D02*
X155288000Y-77601000D01*
X178529000Y-85213000D02*
X178529000Y-84713000D01*
X177579000Y-84713000D02*
X177579000Y-85213000D01*
D10*
X91676600Y-92380800D02*
X91351600Y-92705800D01*
X91351600Y-92705800D02*
X90651600Y-92705800D01*
X93176600Y-92730800D02*
X93176600Y-92380800D01*
X93176600Y-92380800D02*
X92826600Y-92380800D01*
X91501600Y-95680800D02*
X91176600Y-95680800D01*
X91176600Y-95680800D02*
X91176600Y-95380800D01*
X93176600Y-95330800D02*
X93176600Y-95680800D01*
X93176600Y-95680800D02*
X92876600Y-95680800D01*
D13*
X171708000Y-84930000D02*
X172208000Y-84930000D01*
X172208000Y-83980000D02*
X171708000Y-83980000D01*
X99660000Y-79107000D02*
X98460000Y-79107000D01*
X98460000Y-77357000D02*
X99660000Y-77357000D01*
X95054800Y-101788600D02*
X96054800Y-101788600D01*
X96054800Y-103138600D02*
X95054800Y-103138600D01*
X99660000Y-76567000D02*
X98460000Y-76567000D01*
X98460000Y-74817000D02*
X99660000Y-74817000D01*
X92141600Y-100239800D02*
X90941600Y-100239800D01*
X90941600Y-98489800D02*
X92141600Y-98489800D01*
X107837000Y-75784000D02*
X107837000Y-74584000D01*
X109587000Y-74584000D02*
X109587000Y-75784000D01*
X110228000Y-79923000D02*
X109228000Y-79923000D01*
X109228000Y-78573000D02*
X110228000Y-78573000D01*
X151446200Y-98510800D02*
X151446200Y-99710800D01*
X149696200Y-99710800D02*
X149696200Y-98510800D01*
X134528000Y-107075000D02*
X135728000Y-107075000D01*
X135728000Y-108825000D02*
X134528000Y-108825000D01*
X134528000Y-102122000D02*
X135728000Y-102122000D01*
X135728000Y-103872000D02*
X134528000Y-103872000D01*
X134528000Y-109615000D02*
X135728000Y-109615000D01*
X135728000Y-111365000D02*
X134528000Y-111365000D01*
X136517000Y-78145000D02*
X135517000Y-78145000D01*
X135517000Y-76795000D02*
X136517000Y-76795000D01*
X134528000Y-99455000D02*
X135728000Y-99455000D01*
X135728000Y-101205000D02*
X134528000Y-101205000D01*
X134528000Y-94375000D02*
X135728000Y-94375000D01*
X135728000Y-96125000D02*
X134528000Y-96125000D01*
X134528000Y-91835000D02*
X135728000Y-91835000D01*
X135728000Y-93585000D02*
X134528000Y-93585000D01*
X134528000Y-89295000D02*
X135728000Y-89295000D01*
X135728000Y-91045000D02*
X134528000Y-91045000D01*
X134528000Y-86755000D02*
X135728000Y-86755000D01*
X135728000Y-88505000D02*
X134528000Y-88505000D01*
X137698800Y-72259700D02*
X135198800Y-72259700D01*
X137698800Y-70259700D02*
X135198800Y-70259700D01*
X137698800Y-72259700D02*
G75*
G03X137698800Y-70259700I0J1000000D01*
G01*
X135198800Y-70259700D02*
G75*
G03X135198800Y-72259700I0J-1000000D01*
G01*
D14*
X107086400Y-73812400D02*
X107086400Y-71475600D01*
X102209600Y-71475600D02*
X102209600Y-72339200D01*
X102209600Y-72339200D02*
X102209600Y-72948800D01*
X102209600Y-72948800D02*
X102209600Y-73812400D01*
D10*
X102209600Y-72339200D02*
G75*
G02X102209600Y-72948800I0J-304800D01*
G01*
X102327600Y-89794400D02*
X102027600Y-89794400D01*
X102027600Y-89794400D02*
X101427600Y-90394400D01*
X101427600Y-90394400D02*
X101427600Y-90894400D01*
X101427600Y-90894400D02*
X100427600Y-90894400D01*
X101427600Y-99994400D02*
X101427600Y-99494400D01*
X101427600Y-99994400D02*
X101927600Y-99994400D01*
X111627600Y-89794400D02*
X111127600Y-89794400D01*
X111627600Y-89794400D02*
X111627600Y-90294400D01*
X111627600Y-99994400D02*
X111127600Y-99994400D01*
X111627600Y-99994400D02*
X111627600Y-99494400D01*
X91306800Y-68367600D02*
X90906800Y-68367600D01*
X90906800Y-68367600D02*
X90606800Y-68667600D01*
X90606800Y-68667600D02*
X89806800Y-68667600D01*
X90406800Y-73267600D02*
X90406800Y-73567600D01*
X90406800Y-73567600D02*
X90706800Y-73567600D01*
X94606800Y-68667600D02*
X94606800Y-68367600D01*
X94606800Y-68367600D02*
X94306800Y-68367600D01*
X94606800Y-73267600D02*
X94606800Y-73567600D01*
X94606800Y-73567600D02*
X94306800Y-73567600D01*
D13*
X157283000Y-80199000D02*
X156683000Y-79399000D01*
X156683000Y-79399000D02*
X157283000Y-79899000D01*
X157283000Y-79899000D02*
X156983000Y-79399000D01*
X156983000Y-79399000D02*
X157183000Y-79599000D01*
X157183000Y-79599000D02*
X156883000Y-79499000D01*
X156883000Y-79499000D02*
X157183000Y-79499000D01*
X157183000Y-79499000D02*
X157183000Y-79999000D01*
X157283000Y-83899000D02*
X157283000Y-79399000D01*
X157283000Y-79399000D02*
X152583000Y-79399000D01*
X152583000Y-79399000D02*
X152583000Y-83899000D01*
X152583000Y-83899000D02*
X157283000Y-83899000D01*
X98628000Y-83839200D02*
X98428000Y-83639200D01*
X98628000Y-84039200D02*
X98228000Y-83539200D01*
X98628000Y-84239200D02*
X98028000Y-83539200D01*
X98628000Y-88639200D02*
X98628000Y-83539200D01*
X98628000Y-83539200D02*
X91628000Y-83539200D01*
X91628000Y-83539200D02*
X91628000Y-88639200D01*
X91628000Y-88639200D02*
X98628000Y-88639200D01*
X98657600Y-97096600D02*
X99157600Y-97096600D01*
X99157600Y-96146600D02*
X98657600Y-96146600D01*
X98657600Y-93134200D02*
X99157600Y-93134200D01*
X99157600Y-92184200D02*
X98657600Y-92184200D01*
X132080000Y-111760000D02*
X132080000Y-81280000D01*
X127000000Y-83820000D02*
X127000000Y-111760000D01*
X132080000Y-111760000D02*
X127000000Y-111760000D01*
X132080000Y-81280000D02*
X129540000Y-81280000D01*
X128270000Y-81000000D02*
X126720000Y-81000000D01*
X129540000Y-81280000D02*
X129540000Y-83820000D01*
X129540000Y-83820000D02*
X127000000Y-83820000D01*
X126720000Y-81000000D02*
X126720000Y-82550000D01*
X85035200Y-88374200D02*
X84535200Y-88374200D01*
X84535200Y-89324200D02*
X85035200Y-89324200D01*
X84236000Y-71978000D02*
X84236000Y-71278000D01*
X85436000Y-71278000D02*
X85436000Y-71978000D01*
X153383000Y-68449000D02*
X153383000Y-67949000D01*
X152433000Y-67949000D02*
X152433000Y-68449000D01*
X131920000Y-66925000D02*
X131920000Y-66425000D01*
X130970000Y-66425000D02*
X130970000Y-66925000D01*
X119739600Y-104107000D02*
X120239600Y-104107000D01*
X120239600Y-103157000D02*
X119739600Y-103157000D01*
X118092200Y-97946400D02*
X118092200Y-98446400D01*
X119042200Y-98446400D02*
X119042200Y-97946400D01*
X123588400Y-98465000D02*
X122588400Y-98465000D01*
X122588400Y-97115000D02*
X123588400Y-97115000D01*
X123407800Y-100642800D02*
X123407800Y-101642800D01*
X122057800Y-101642800D02*
X122057800Y-100642800D01*
D14*
X120853200Y-99568000D02*
X118821200Y-99568000D01*
X118821200Y-102717600D02*
X120853200Y-102717600D01*
D13*
X141551100Y-90862300D02*
X140951100Y-91462300D01*
X140951100Y-91462300D02*
X141451100Y-90862300D01*
X141451100Y-90862300D02*
X141051100Y-91262300D01*
X141051100Y-91262300D02*
X141251100Y-90962300D01*
X141251100Y-90962300D02*
X141051100Y-91062300D01*
X141051100Y-91062300D02*
X141051100Y-90962300D01*
X141051100Y-90962300D02*
X141051100Y-91162300D01*
X145151100Y-90862300D02*
X140951100Y-90862300D01*
X140951100Y-90862300D02*
X140951100Y-95662300D01*
X140951100Y-95662300D02*
X145151100Y-95662300D01*
X145151100Y-95662300D02*
X145151100Y-90862300D01*
D14*
X157702200Y-68611800D02*
X157702200Y-66986200D01*
X155263800Y-66986200D02*
X155263800Y-68611800D01*
X128682800Y-65563800D02*
X127057200Y-65563800D01*
X127057200Y-68002200D02*
X128682800Y-68002200D01*
D10*
X82095000Y-90337200D02*
X81545000Y-90337200D01*
X81545000Y-90337200D02*
X81545000Y-90987200D01*
X82145000Y-98537200D02*
X81545000Y-98537200D01*
X81545000Y-98537200D02*
X81545000Y-98137200D01*
X87245000Y-98037200D02*
X87245000Y-98537200D01*
X87245000Y-98537200D02*
X86545000Y-98537200D01*
X87245000Y-91087200D02*
X87245000Y-90637200D01*
X87245000Y-90637200D02*
X86895000Y-90337200D01*
X86895000Y-90337200D02*
X86595000Y-90337200D01*
X86595000Y-90337200D02*
X86595000Y-90187200D01*
X164968400Y-87805400D02*
X167518400Y-87805400D01*
X162943400Y-85705400D02*
X162943400Y-83255400D01*
X169668400Y-83330400D02*
X169668400Y-85505400D01*
X165118400Y-81130400D02*
X167443400Y-81130400D01*
D13*
X158746000Y-89822000D02*
X158246000Y-89822000D01*
X158246000Y-90772000D02*
X158746000Y-90772000D01*
X160774000Y-68238000D02*
X159774000Y-68238000D01*
X159774000Y-69938000D02*
X160774000Y-69938000D01*
X161638000Y-94357000D02*
X161638000Y-93857000D01*
X160688000Y-93857000D02*
X160688000Y-94357000D01*
X134060300Y-67175000D02*
X134060300Y-66175000D01*
X132360300Y-66175000D02*
X132360300Y-67175000D01*
X159262000Y-92677000D02*
X159762000Y-92677000D01*
X159762000Y-91727000D02*
X159262000Y-91727000D01*
X178535000Y-78585000D02*
X178535000Y-72585000D01*
X178535000Y-72585000D02*
X170715000Y-72585000D01*
X170715000Y-72585000D02*
X170715000Y-78585000D01*
X170715000Y-78585000D02*
X178535000Y-78585000D01*
X177165000Y-72585000D02*
X177165000Y-73585000D01*
X177165000Y-73585000D02*
X172085000Y-73585000D01*
X172085000Y-73585000D02*
X172085000Y-72585000D01*
X177165000Y-73585000D02*
X176915000Y-74015000D01*
X176915000Y-74015000D02*
X172335000Y-74015000D01*
X172335000Y-74015000D02*
X172085000Y-73585000D01*
X176915000Y-72585000D02*
X176915000Y-73585000D01*
X172335000Y-72585000D02*
X172335000Y-73585000D01*
X177965000Y-78585000D02*
X177965000Y-77965000D01*
X177965000Y-77965000D02*
X176365000Y-77965000D01*
X176365000Y-77965000D02*
X176365000Y-78585000D01*
X175425000Y-78585000D02*
X175425000Y-77965000D01*
X175425000Y-77965000D02*
X173825000Y-77965000D01*
X173825000Y-77965000D02*
X173825000Y-78585000D01*
X172885000Y-78585000D02*
X172885000Y-77965000D01*
X172885000Y-77965000D02*
X171285000Y-77965000D01*
X171285000Y-77965000D02*
X171285000Y-78585000D01*
X154465000Y-85094000D02*
X154465000Y-85594000D01*
X155415000Y-85594000D02*
X155415000Y-85094000D01*
X175100000Y-85213000D02*
X175100000Y-84713000D01*
X174150000Y-84713000D02*
X174150000Y-85213000D01*
X162945000Y-92677000D02*
X163445000Y-92677000D01*
X163445000Y-91727000D02*
X162945000Y-91727000D01*
X152340000Y-94610000D02*
X152340000Y-95310000D01*
X152340000Y-95310000D02*
X152940000Y-95310000D01*
X157540000Y-94610000D02*
X157540000Y-95310000D01*
X157540000Y-95310000D02*
X156740000Y-95310000D01*
X156840000Y-90110000D02*
X157540000Y-90110000D01*
X157540000Y-90110000D02*
X157540000Y-90810000D01*
X152340000Y-90810000D02*
X152340000Y-90110000D01*
X152340000Y-90110000D02*
X153040000Y-90110000D01*
X101379000Y-88243600D02*
X101379000Y-88743600D01*
X102329000Y-88743600D02*
X102329000Y-88243600D01*
X114397600Y-96146600D02*
X113897600Y-96146600D01*
X113897600Y-97096600D02*
X114397600Y-97096600D01*
X104970600Y-102764400D02*
X104970600Y-102264400D01*
X104020600Y-102264400D02*
X104020600Y-102764400D01*
X110558600Y-102764400D02*
X110558600Y-102264400D01*
X109608600Y-102264400D02*
X109608600Y-102764400D01*
X114397600Y-93657400D02*
X113897600Y-93657400D01*
X113897600Y-94607400D02*
X114397600Y-94607400D01*
X106306600Y-87024400D02*
X106306600Y-87524400D01*
X107256600Y-87524400D02*
X107256600Y-87024400D01*
X98657600Y-95623400D02*
X99157600Y-95623400D01*
X99157600Y-94673400D02*
X98657600Y-94673400D01*
X109253000Y-87024400D02*
X109253000Y-87524400D01*
X110203000Y-87524400D02*
X110203000Y-87024400D01*
X110675400Y-87989600D02*
X110675400Y-88489600D01*
X111625400Y-88489600D02*
X111625400Y-87989600D01*
X112047000Y-87989600D02*
X112047000Y-88489600D01*
X112997000Y-88489600D02*
X112997000Y-87989600D01*
X91432000Y-66206000D02*
X90432000Y-66206000D01*
X90432000Y-67906000D02*
X91432000Y-67906000D01*
X97794000Y-91915000D02*
X98294000Y-91915000D01*
X98294000Y-90965000D02*
X97794000Y-90965000D01*
D15*
X110629600Y-67045800D02*
X110629600Y-66445800D01*
X109029600Y-67025800D02*
X109029600Y-66425800D01*
X111163200Y-66380400D02*
X111163200Y-66980400D01*
X112763200Y-66400400D02*
X112763200Y-67000400D01*
D13*
X98207534Y-68835543D02*
X98159915Y-68883162D01*
X98017058Y-68930781D01*
X97921820Y-68930781D01*
X97778962Y-68883162D01*
X97683724Y-68787924D01*
X97636105Y-68692686D01*
X97588486Y-68502210D01*
X97588486Y-68359352D01*
X97636105Y-68168876D01*
X97683724Y-68073638D01*
X97778962Y-67978400D01*
X97921820Y-67930781D01*
X98017058Y-67930781D01*
X98159915Y-67978400D01*
X98207534Y-68026019D01*
X99159915Y-68930781D02*
X98588486Y-68930781D01*
X98874200Y-68930781D02*
X98874200Y-67930781D01*
X98778962Y-68073638D01*
X98683724Y-68168876D01*
X98588486Y-68216495D01*
X101992134Y-67971943D02*
X101944515Y-68019562D01*
X101801658Y-68067181D01*
X101706420Y-68067181D01*
X101563562Y-68019562D01*
X101468324Y-67924324D01*
X101420705Y-67829086D01*
X101373086Y-67638610D01*
X101373086Y-67495752D01*
X101420705Y-67305276D01*
X101468324Y-67210038D01*
X101563562Y-67114800D01*
X101706420Y-67067181D01*
X101801658Y-67067181D01*
X101944515Y-67114800D01*
X101992134Y-67162419D01*
X102373086Y-67162419D02*
X102420705Y-67114800D01*
X102515943Y-67067181D01*
X102754039Y-67067181D01*
X102849277Y-67114800D01*
X102896896Y-67162419D01*
X102944515Y-67257657D01*
X102944515Y-67352895D01*
X102896896Y-67495752D01*
X102325467Y-68067181D01*
X102944515Y-68067181D01*
X93914934Y-80570343D02*
X93867315Y-80617962D01*
X93724458Y-80665581D01*
X93629220Y-80665581D01*
X93486362Y-80617962D01*
X93391124Y-80522724D01*
X93343505Y-80427486D01*
X93295886Y-80237010D01*
X93295886Y-80094152D01*
X93343505Y-79903676D01*
X93391124Y-79808438D01*
X93486362Y-79713200D01*
X93629220Y-79665581D01*
X93724458Y-79665581D01*
X93867315Y-79713200D01*
X93914934Y-79760819D01*
X94248267Y-79665581D02*
X94867315Y-79665581D01*
X94533981Y-80046533D01*
X94676839Y-80046533D01*
X94772077Y-80094152D01*
X94819696Y-80141771D01*
X94867315Y-80237010D01*
X94867315Y-80475105D01*
X94819696Y-80570343D01*
X94772077Y-80617962D01*
X94676839Y-80665581D01*
X94391124Y-80665581D01*
X94295886Y-80617962D01*
X94248267Y-80570343D01*
X90003334Y-82957943D02*
X89955715Y-83005562D01*
X89812858Y-83053181D01*
X89717620Y-83053181D01*
X89574762Y-83005562D01*
X89479524Y-82910324D01*
X89431905Y-82815086D01*
X89384286Y-82624610D01*
X89384286Y-82481752D01*
X89431905Y-82291276D01*
X89479524Y-82196038D01*
X89574762Y-82100800D01*
X89717620Y-82053181D01*
X89812858Y-82053181D01*
X89955715Y-82100800D01*
X90003334Y-82148419D01*
X90908096Y-82053181D02*
X90431905Y-82053181D01*
X90384286Y-82529371D01*
X90431905Y-82481752D01*
X90527143Y-82434133D01*
X90765239Y-82434133D01*
X90860477Y-82481752D01*
X90908096Y-82529371D01*
X90955715Y-82624610D01*
X90955715Y-82862705D01*
X90908096Y-82957943D01*
X90860477Y-83005562D01*
X90765239Y-83053181D01*
X90527143Y-83053181D01*
X90431905Y-83005562D01*
X90384286Y-82957943D01*
X86701334Y-74271143D02*
X86653715Y-74318762D01*
X86510858Y-74366381D01*
X86415620Y-74366381D01*
X86272762Y-74318762D01*
X86177524Y-74223524D01*
X86129905Y-74128286D01*
X86082286Y-73937810D01*
X86082286Y-73794952D01*
X86129905Y-73604476D01*
X86177524Y-73509238D01*
X86272762Y-73414000D01*
X86415620Y-73366381D01*
X86510858Y-73366381D01*
X86653715Y-73414000D01*
X86701334Y-73461619D01*
X87558477Y-73366381D02*
X87368000Y-73366381D01*
X87272762Y-73414000D01*
X87225143Y-73461619D01*
X87129905Y-73604476D01*
X87082286Y-73794952D01*
X87082286Y-74175905D01*
X87129905Y-74271143D01*
X87177524Y-74318762D01*
X87272762Y-74366381D01*
X87463239Y-74366381D01*
X87558477Y-74318762D01*
X87606096Y-74271143D01*
X87653715Y-74175905D01*
X87653715Y-73937810D01*
X87606096Y-73842571D01*
X87558477Y-73794952D01*
X87463239Y-73747333D01*
X87272762Y-73747333D01*
X87177524Y-73794952D01*
X87129905Y-73842571D01*
X87082286Y-73937810D01*
X92314734Y-91492343D02*
X92267115Y-91539962D01*
X92124258Y-91587581D01*
X92029020Y-91587581D01*
X91886162Y-91539962D01*
X91790924Y-91444724D01*
X91743305Y-91349486D01*
X91695686Y-91159010D01*
X91695686Y-91016152D01*
X91743305Y-90825676D01*
X91790924Y-90730438D01*
X91886162Y-90635200D01*
X92029020Y-90587581D01*
X92124258Y-90587581D01*
X92267115Y-90635200D01*
X92314734Y-90682819D01*
X92886162Y-91016152D02*
X92790924Y-90968533D01*
X92743305Y-90920914D01*
X92695686Y-90825676D01*
X92695686Y-90778057D01*
X92743305Y-90682819D01*
X92790924Y-90635200D01*
X92886162Y-90587581D01*
X93076639Y-90587581D01*
X93171877Y-90635200D01*
X93219496Y-90682819D01*
X93267115Y-90778057D01*
X93267115Y-90825676D01*
X93219496Y-90920914D01*
X93171877Y-90968533D01*
X93076639Y-91016152D01*
X92886162Y-91016152D01*
X92790924Y-91063771D01*
X92743305Y-91111390D01*
X92695686Y-91206629D01*
X92695686Y-91397105D01*
X92743305Y-91492343D01*
X92790924Y-91539962D01*
X92886162Y-91587581D01*
X93076639Y-91587581D01*
X93171877Y-91539962D01*
X93219496Y-91492343D01*
X93267115Y-91397105D01*
X93267115Y-91206629D01*
X93219496Y-91111390D01*
X93171877Y-91063771D01*
X93076639Y-91016152D01*
X143629143Y-88926943D02*
X143581524Y-88974562D01*
X143438667Y-89022181D01*
X143343429Y-89022181D01*
X143200571Y-88974562D01*
X143105333Y-88879324D01*
X143057714Y-88784086D01*
X143010095Y-88593610D01*
X143010095Y-88450752D01*
X143057714Y-88260276D01*
X143105333Y-88165038D01*
X143200571Y-88069800D01*
X143343429Y-88022181D01*
X143438667Y-88022181D01*
X143581524Y-88069800D01*
X143629143Y-88117419D01*
X144581524Y-89022181D02*
X144010095Y-89022181D01*
X144295809Y-89022181D02*
X144295809Y-88022181D01*
X144200571Y-88165038D01*
X144105333Y-88260276D01*
X144010095Y-88307895D01*
X145533905Y-89022181D02*
X144962476Y-89022181D01*
X145248190Y-89022181D02*
X145248190Y-88022181D01*
X145152952Y-88165038D01*
X145057714Y-88260276D01*
X144962476Y-88307895D01*
X163187143Y-67159143D02*
X163139524Y-67206762D01*
X162996667Y-67254381D01*
X162901429Y-67254381D01*
X162758571Y-67206762D01*
X162663333Y-67111524D01*
X162615714Y-67016286D01*
X162568095Y-66825810D01*
X162568095Y-66682952D01*
X162615714Y-66492476D01*
X162663333Y-66397238D01*
X162758571Y-66302000D01*
X162901429Y-66254381D01*
X162996667Y-66254381D01*
X163139524Y-66302000D01*
X163187143Y-66349619D01*
X164139524Y-67254381D02*
X163568095Y-67254381D01*
X163853809Y-67254381D02*
X163853809Y-66254381D01*
X163758571Y-66397238D01*
X163663333Y-66492476D01*
X163568095Y-66540095D01*
X164520476Y-66349619D02*
X164568095Y-66302000D01*
X164663333Y-66254381D01*
X164901429Y-66254381D01*
X164996667Y-66302000D01*
X165044286Y-66349619D01*
X165091905Y-66444857D01*
X165091905Y-66540095D01*
X165044286Y-66682952D01*
X164472857Y-67254381D01*
X165091905Y-67254381D01*
X147947143Y-89765143D02*
X147899524Y-89812762D01*
X147756667Y-89860381D01*
X147661429Y-89860381D01*
X147518571Y-89812762D01*
X147423333Y-89717524D01*
X147375714Y-89622286D01*
X147328095Y-89431810D01*
X147328095Y-89288952D01*
X147375714Y-89098476D01*
X147423333Y-89003238D01*
X147518571Y-88908000D01*
X147661429Y-88860381D01*
X147756667Y-88860381D01*
X147899524Y-88908000D01*
X147947143Y-88955619D01*
X148899524Y-89860381D02*
X148328095Y-89860381D01*
X148613809Y-89860381D02*
X148613809Y-88860381D01*
X148518571Y-89003238D01*
X148423333Y-89098476D01*
X148328095Y-89146095D01*
X149232857Y-88860381D02*
X149851905Y-88860381D01*
X149518571Y-89241333D01*
X149661429Y-89241333D01*
X149756667Y-89288952D01*
X149804286Y-89336571D01*
X149851905Y-89431810D01*
X149851905Y-89669905D01*
X149804286Y-89765143D01*
X149756667Y-89812762D01*
X149661429Y-89860381D01*
X149375714Y-89860381D01*
X149280476Y-89812762D01*
X149232857Y-89765143D01*
X146346943Y-95251543D02*
X146299324Y-95299162D01*
X146156467Y-95346781D01*
X146061229Y-95346781D01*
X145918371Y-95299162D01*
X145823133Y-95203924D01*
X145775514Y-95108686D01*
X145727895Y-94918210D01*
X145727895Y-94775352D01*
X145775514Y-94584876D01*
X145823133Y-94489638D01*
X145918371Y-94394400D01*
X146061229Y-94346781D01*
X146156467Y-94346781D01*
X146299324Y-94394400D01*
X146346943Y-94442019D01*
X147299324Y-95346781D02*
X146727895Y-95346781D01*
X147013609Y-95346781D02*
X147013609Y-94346781D01*
X146918371Y-94489638D01*
X146823133Y-94584876D01*
X146727895Y-94632495D01*
X148156467Y-94680114D02*
X148156467Y-95346781D01*
X147918371Y-94299162D02*
X147680276Y-95013448D01*
X148299324Y-95013448D01*
X156710143Y-99290143D02*
X156662524Y-99337762D01*
X156519667Y-99385381D01*
X156424429Y-99385381D01*
X156281571Y-99337762D01*
X156186333Y-99242524D01*
X156138714Y-99147286D01*
X156091095Y-98956810D01*
X156091095Y-98813952D01*
X156138714Y-98623476D01*
X156186333Y-98528238D01*
X156281571Y-98433000D01*
X156424429Y-98385381D01*
X156519667Y-98385381D01*
X156662524Y-98433000D01*
X156710143Y-98480619D01*
X157662524Y-99385381D02*
X157091095Y-99385381D01*
X157376809Y-99385381D02*
X157376809Y-98385381D01*
X157281571Y-98528238D01*
X157186333Y-98623476D01*
X157091095Y-98671095D01*
X158567286Y-98385381D02*
X158091095Y-98385381D01*
X158043476Y-98861571D01*
X158091095Y-98813952D01*
X158186333Y-98766333D01*
X158424429Y-98766333D01*
X158519667Y-98813952D01*
X158567286Y-98861571D01*
X158614905Y-98956810D01*
X158614905Y-99194905D01*
X158567286Y-99290143D01*
X158519667Y-99337762D01*
X158424429Y-99385381D01*
X158186333Y-99385381D01*
X158091095Y-99337762D01*
X158043476Y-99290143D01*
X157802343Y-87987143D02*
X157754724Y-88034762D01*
X157611867Y-88082381D01*
X157516629Y-88082381D01*
X157373771Y-88034762D01*
X157278533Y-87939524D01*
X157230914Y-87844286D01*
X157183295Y-87653810D01*
X157183295Y-87510952D01*
X157230914Y-87320476D01*
X157278533Y-87225238D01*
X157373771Y-87130000D01*
X157516629Y-87082381D01*
X157611867Y-87082381D01*
X157754724Y-87130000D01*
X157802343Y-87177619D01*
X158754724Y-88082381D02*
X158183295Y-88082381D01*
X158469009Y-88082381D02*
X158469009Y-87082381D01*
X158373771Y-87225238D01*
X158278533Y-87320476D01*
X158183295Y-87368095D01*
X159611867Y-87082381D02*
X159421390Y-87082381D01*
X159326152Y-87130000D01*
X159278533Y-87177619D01*
X159183295Y-87320476D01*
X159135676Y-87510952D01*
X159135676Y-87891905D01*
X159183295Y-87987143D01*
X159230914Y-88034762D01*
X159326152Y-88082381D01*
X159516629Y-88082381D01*
X159611867Y-88034762D01*
X159659486Y-87987143D01*
X159707105Y-87891905D01*
X159707105Y-87653810D01*
X159659486Y-87558571D01*
X159611867Y-87510952D01*
X159516629Y-87463333D01*
X159326152Y-87463333D01*
X159230914Y-87510952D01*
X159183295Y-87558571D01*
X159135676Y-87653810D01*
X131797143Y-72524857D02*
X131844762Y-72572476D01*
X131892381Y-72715333D01*
X131892381Y-72810571D01*
X131844762Y-72953429D01*
X131749524Y-73048667D01*
X131654286Y-73096286D01*
X131463810Y-73143905D01*
X131320952Y-73143905D01*
X131130476Y-73096286D01*
X131035238Y-73048667D01*
X130940000Y-72953429D01*
X130892381Y-72810571D01*
X130892381Y-72715333D01*
X130940000Y-72572476D01*
X130987619Y-72524857D01*
X131892381Y-71572476D02*
X131892381Y-72143905D01*
X131892381Y-71858191D02*
X130892381Y-71858191D01*
X131035238Y-71953429D01*
X131130476Y-72048667D01*
X131178095Y-72143905D01*
X131320952Y-71001048D02*
X131273333Y-71096286D01*
X131225714Y-71143905D01*
X131130476Y-71191524D01*
X131082857Y-71191524D01*
X130987619Y-71143905D01*
X130940000Y-71096286D01*
X130892381Y-71001048D01*
X130892381Y-70810571D01*
X130940000Y-70715333D01*
X130987619Y-70667714D01*
X131082857Y-70620095D01*
X131130476Y-70620095D01*
X131225714Y-70667714D01*
X131273333Y-70715333D01*
X131320952Y-70810571D01*
X131320952Y-71001048D01*
X131368571Y-71096286D01*
X131416190Y-71143905D01*
X131511429Y-71191524D01*
X131701905Y-71191524D01*
X131797143Y-71143905D01*
X131844762Y-71096286D01*
X131892381Y-71001048D01*
X131892381Y-70810571D01*
X131844762Y-70715333D01*
X131797143Y-70667714D01*
X131701905Y-70620095D01*
X131511429Y-70620095D01*
X131416190Y-70667714D01*
X131368571Y-70715333D01*
X131320952Y-70810571D01*
X146600943Y-91771743D02*
X146553324Y-91819362D01*
X146410467Y-91866981D01*
X146315229Y-91866981D01*
X146172371Y-91819362D01*
X146077133Y-91724124D01*
X146029514Y-91628886D01*
X145981895Y-91438410D01*
X145981895Y-91295552D01*
X146029514Y-91105076D01*
X146077133Y-91009838D01*
X146172371Y-90914600D01*
X146315229Y-90866981D01*
X146410467Y-90866981D01*
X146553324Y-90914600D01*
X146600943Y-90962219D01*
X146981895Y-90962219D02*
X147029514Y-90914600D01*
X147124752Y-90866981D01*
X147362848Y-90866981D01*
X147458086Y-90914600D01*
X147505705Y-90962219D01*
X147553324Y-91057457D01*
X147553324Y-91152695D01*
X147505705Y-91295552D01*
X146934276Y-91866981D01*
X147553324Y-91866981D01*
X148172371Y-90866981D02*
X148267610Y-90866981D01*
X148362848Y-90914600D01*
X148410467Y-90962219D01*
X148458086Y-91057457D01*
X148505705Y-91247933D01*
X148505705Y-91486029D01*
X148458086Y-91676505D01*
X148410467Y-91771743D01*
X148362848Y-91819362D01*
X148267610Y-91866981D01*
X148172371Y-91866981D01*
X148077133Y-91819362D01*
X148029514Y-91771743D01*
X147981895Y-91676505D01*
X147934276Y-91486029D01*
X147934276Y-91247933D01*
X147981895Y-91057457D01*
X148029514Y-90962219D01*
X148077133Y-90914600D01*
X148172371Y-90866981D01*
X149534643Y-96343743D02*
X149487024Y-96391362D01*
X149344167Y-96438981D01*
X149248929Y-96438981D01*
X149106071Y-96391362D01*
X149010833Y-96296124D01*
X148963214Y-96200886D01*
X148915595Y-96010410D01*
X148915595Y-95867552D01*
X148963214Y-95677076D01*
X149010833Y-95581838D01*
X149106071Y-95486600D01*
X149248929Y-95438981D01*
X149344167Y-95438981D01*
X149487024Y-95486600D01*
X149534643Y-95534219D01*
X149915595Y-95534219D02*
X149963214Y-95486600D01*
X150058452Y-95438981D01*
X150296548Y-95438981D01*
X150391786Y-95486600D01*
X150439405Y-95534219D01*
X150487024Y-95629457D01*
X150487024Y-95724695D01*
X150439405Y-95867552D01*
X149867976Y-96438981D01*
X150487024Y-96438981D01*
X151439405Y-96438981D02*
X150867976Y-96438981D01*
X151153690Y-96438981D02*
X151153690Y-95438981D01*
X151058452Y-95581838D01*
X150963214Y-95677076D01*
X150867976Y-95724695D01*
X147947143Y-87860143D02*
X147899524Y-87907762D01*
X147756667Y-87955381D01*
X147661429Y-87955381D01*
X147518571Y-87907762D01*
X147423333Y-87812524D01*
X147375714Y-87717286D01*
X147328095Y-87526810D01*
X147328095Y-87383952D01*
X147375714Y-87193476D01*
X147423333Y-87098238D01*
X147518571Y-87003000D01*
X147661429Y-86955381D01*
X147756667Y-86955381D01*
X147899524Y-87003000D01*
X147947143Y-87050619D01*
X148328095Y-87050619D02*
X148375714Y-87003000D01*
X148470952Y-86955381D01*
X148709048Y-86955381D01*
X148804286Y-87003000D01*
X148851905Y-87050619D01*
X148899524Y-87145857D01*
X148899524Y-87241095D01*
X148851905Y-87383952D01*
X148280476Y-87955381D01*
X148899524Y-87955381D01*
X149280476Y-87050619D02*
X149328095Y-87003000D01*
X149423333Y-86955381D01*
X149661429Y-86955381D01*
X149756667Y-87003000D01*
X149804286Y-87050619D01*
X149851905Y-87145857D01*
X149851905Y-87241095D01*
X149804286Y-87383952D01*
X149232857Y-87955381D01*
X149851905Y-87955381D01*
X139311143Y-75414143D02*
X139263524Y-75461762D01*
X139120667Y-75509381D01*
X139025429Y-75509381D01*
X138882571Y-75461762D01*
X138787333Y-75366524D01*
X138739714Y-75271286D01*
X138692095Y-75080810D01*
X138692095Y-74937952D01*
X138739714Y-74747476D01*
X138787333Y-74652238D01*
X138882571Y-74557000D01*
X139025429Y-74509381D01*
X139120667Y-74509381D01*
X139263524Y-74557000D01*
X139311143Y-74604619D01*
X139692095Y-74604619D02*
X139739714Y-74557000D01*
X139834952Y-74509381D01*
X140073048Y-74509381D01*
X140168286Y-74557000D01*
X140215905Y-74604619D01*
X140263524Y-74699857D01*
X140263524Y-74795095D01*
X140215905Y-74937952D01*
X139644476Y-75509381D01*
X140263524Y-75509381D01*
X141168286Y-74509381D02*
X140692095Y-74509381D01*
X140644476Y-74985571D01*
X140692095Y-74937952D01*
X140787333Y-74890333D01*
X141025429Y-74890333D01*
X141120667Y-74937952D01*
X141168286Y-74985571D01*
X141215905Y-75080810D01*
X141215905Y-75318905D01*
X141168286Y-75414143D01*
X141120667Y-75461762D01*
X141025429Y-75509381D01*
X140787333Y-75509381D01*
X140692095Y-75461762D01*
X140644476Y-75414143D01*
X139361943Y-98147143D02*
X139314324Y-98194762D01*
X139171467Y-98242381D01*
X139076229Y-98242381D01*
X138933371Y-98194762D01*
X138838133Y-98099524D01*
X138790514Y-98004286D01*
X138742895Y-97813810D01*
X138742895Y-97670952D01*
X138790514Y-97480476D01*
X138838133Y-97385238D01*
X138933371Y-97290000D01*
X139076229Y-97242381D01*
X139171467Y-97242381D01*
X139314324Y-97290000D01*
X139361943Y-97337619D01*
X139742895Y-97337619D02*
X139790514Y-97290000D01*
X139885752Y-97242381D01*
X140123848Y-97242381D01*
X140219086Y-97290000D01*
X140266705Y-97337619D01*
X140314324Y-97432857D01*
X140314324Y-97528095D01*
X140266705Y-97670952D01*
X139695276Y-98242381D01*
X140314324Y-98242381D01*
X141171467Y-97242381D02*
X140980990Y-97242381D01*
X140885752Y-97290000D01*
X140838133Y-97337619D01*
X140742895Y-97480476D01*
X140695276Y-97670952D01*
X140695276Y-98051905D01*
X140742895Y-98147143D01*
X140790514Y-98194762D01*
X140885752Y-98242381D01*
X141076229Y-98242381D01*
X141171467Y-98194762D01*
X141219086Y-98147143D01*
X141266705Y-98051905D01*
X141266705Y-97813810D01*
X141219086Y-97718571D01*
X141171467Y-97670952D01*
X141076229Y-97623333D01*
X140885752Y-97623333D01*
X140790514Y-97670952D01*
X140742895Y-97718571D01*
X140695276Y-97813810D01*
X136390143Y-80367143D02*
X136342524Y-80414762D01*
X136199667Y-80462381D01*
X136104429Y-80462381D01*
X135961571Y-80414762D01*
X135866333Y-80319524D01*
X135818714Y-80224286D01*
X135771095Y-80033810D01*
X135771095Y-79890952D01*
X135818714Y-79700476D01*
X135866333Y-79605238D01*
X135961571Y-79510000D01*
X136104429Y-79462381D01*
X136199667Y-79462381D01*
X136342524Y-79510000D01*
X136390143Y-79557619D01*
X136771095Y-79557619D02*
X136818714Y-79510000D01*
X136913952Y-79462381D01*
X137152048Y-79462381D01*
X137247286Y-79510000D01*
X137294905Y-79557619D01*
X137342524Y-79652857D01*
X137342524Y-79748095D01*
X137294905Y-79890952D01*
X136723476Y-80462381D01*
X137342524Y-80462381D01*
X137675857Y-79462381D02*
X138342524Y-79462381D01*
X137913952Y-80462381D01*
X151884143Y-77573143D02*
X151836524Y-77620762D01*
X151693667Y-77668381D01*
X151598429Y-77668381D01*
X151455571Y-77620762D01*
X151360333Y-77525524D01*
X151312714Y-77430286D01*
X151265095Y-77239810D01*
X151265095Y-77096952D01*
X151312714Y-76906476D01*
X151360333Y-76811238D01*
X151455571Y-76716000D01*
X151598429Y-76668381D01*
X151693667Y-76668381D01*
X151836524Y-76716000D01*
X151884143Y-76763619D01*
X152265095Y-76763619D02*
X152312714Y-76716000D01*
X152407952Y-76668381D01*
X152646048Y-76668381D01*
X152741286Y-76716000D01*
X152788905Y-76763619D01*
X152836524Y-76858857D01*
X152836524Y-76954095D01*
X152788905Y-77096952D01*
X152217476Y-77668381D01*
X152836524Y-77668381D01*
X153407952Y-77096952D02*
X153312714Y-77049333D01*
X153265095Y-77001714D01*
X153217476Y-76906476D01*
X153217476Y-76858857D01*
X153265095Y-76763619D01*
X153312714Y-76716000D01*
X153407952Y-76668381D01*
X153598429Y-76668381D01*
X153693667Y-76716000D01*
X153741286Y-76763619D01*
X153788905Y-76858857D01*
X153788905Y-76906476D01*
X153741286Y-77001714D01*
X153693667Y-77049333D01*
X153598429Y-77096952D01*
X153407952Y-77096952D01*
X153312714Y-77144571D01*
X153265095Y-77192190D01*
X153217476Y-77287429D01*
X153217476Y-77477905D01*
X153265095Y-77573143D01*
X153312714Y-77620762D01*
X153407952Y-77668381D01*
X153598429Y-77668381D01*
X153693667Y-77620762D01*
X153741286Y-77573143D01*
X153788905Y-77477905D01*
X153788905Y-77287429D01*
X153741286Y-77192190D01*
X153693667Y-77144571D01*
X153598429Y-77096952D01*
X178858943Y-87580743D02*
X178811324Y-87628362D01*
X178668467Y-87675981D01*
X178573229Y-87675981D01*
X178430371Y-87628362D01*
X178335133Y-87533124D01*
X178287514Y-87437886D01*
X178239895Y-87247410D01*
X178239895Y-87104552D01*
X178287514Y-86914076D01*
X178335133Y-86818838D01*
X178430371Y-86723600D01*
X178573229Y-86675981D01*
X178668467Y-86675981D01*
X178811324Y-86723600D01*
X178858943Y-86771219D01*
X179192276Y-86675981D02*
X179811324Y-86675981D01*
X179477990Y-87056933D01*
X179620848Y-87056933D01*
X179716086Y-87104552D01*
X179763705Y-87152171D01*
X179811324Y-87247410D01*
X179811324Y-87485505D01*
X179763705Y-87580743D01*
X179716086Y-87628362D01*
X179620848Y-87675981D01*
X179335133Y-87675981D01*
X179239895Y-87628362D01*
X179192276Y-87580743D01*
X180430371Y-86675981D02*
X180525610Y-86675981D01*
X180620848Y-86723600D01*
X180668467Y-86771219D01*
X180716086Y-86866457D01*
X180763705Y-87056933D01*
X180763705Y-87295029D01*
X180716086Y-87485505D01*
X180668467Y-87580743D01*
X180620848Y-87628362D01*
X180525610Y-87675981D01*
X180430371Y-87675981D01*
X180335133Y-87628362D01*
X180287514Y-87580743D01*
X180239895Y-87485505D01*
X180192276Y-87295029D01*
X180192276Y-87056933D01*
X180239895Y-86866457D01*
X180287514Y-86771219D01*
X180335133Y-86723600D01*
X180430371Y-86675981D01*
X91540105Y-97200981D02*
X91540105Y-96200981D01*
X91778200Y-96200981D01*
X91921058Y-96248600D01*
X92016296Y-96343838D01*
X92063915Y-96439076D01*
X92111534Y-96629552D01*
X92111534Y-96772410D01*
X92063915Y-96962886D01*
X92016296Y-97058124D01*
X91921058Y-97153362D01*
X91778200Y-97200981D01*
X91540105Y-97200981D01*
X93063915Y-97200981D02*
X92492486Y-97200981D01*
X92778200Y-97200981D02*
X92778200Y-96200981D01*
X92682962Y-96343838D01*
X92587724Y-96439076D01*
X92492486Y-96486695D01*
X171791334Y-86607381D02*
X171315143Y-86607381D01*
X171315143Y-85607381D01*
X172553239Y-85940714D02*
X172553239Y-86607381D01*
X172315143Y-85559762D02*
X172077048Y-86274048D01*
X172696096Y-86274048D01*
X102423934Y-78633581D02*
X102090600Y-78157390D01*
X101852505Y-78633581D02*
X101852505Y-77633581D01*
X102233458Y-77633581D01*
X102328696Y-77681200D01*
X102376315Y-77728819D01*
X102423934Y-77824057D01*
X102423934Y-77966914D01*
X102376315Y-78062152D01*
X102328696Y-78109771D01*
X102233458Y-78157390D01*
X101852505Y-78157390D01*
X103376315Y-78633581D02*
X102804886Y-78633581D01*
X103090600Y-78633581D02*
X103090600Y-77633581D01*
X102995362Y-77776438D01*
X102900124Y-77871676D01*
X102804886Y-77919295D01*
X95388134Y-104815981D02*
X95054800Y-104339790D01*
X94816705Y-104815981D02*
X94816705Y-103815981D01*
X95197658Y-103815981D01*
X95292896Y-103863600D01*
X95340515Y-103911219D01*
X95388134Y-104006457D01*
X95388134Y-104149314D01*
X95340515Y-104244552D01*
X95292896Y-104292171D01*
X95197658Y-104339790D01*
X94816705Y-104339790D01*
X95769086Y-103911219D02*
X95816705Y-103863600D01*
X95911943Y-103815981D01*
X96150039Y-103815981D01*
X96245277Y-103863600D01*
X96292896Y-103911219D01*
X96340515Y-104006457D01*
X96340515Y-104101695D01*
X96292896Y-104244552D01*
X95721467Y-104815981D01*
X96340515Y-104815981D01*
X98131334Y-74213981D02*
X97798000Y-73737790D01*
X97559905Y-74213981D02*
X97559905Y-73213981D01*
X97940858Y-73213981D01*
X98036096Y-73261600D01*
X98083715Y-73309219D01*
X98131334Y-73404457D01*
X98131334Y-73547314D01*
X98083715Y-73642552D01*
X98036096Y-73690171D01*
X97940858Y-73737790D01*
X97559905Y-73737790D01*
X98464667Y-73213981D02*
X99083715Y-73213981D01*
X98750381Y-73594933D01*
X98893239Y-73594933D01*
X98988477Y-73642552D01*
X99036096Y-73690171D01*
X99083715Y-73785410D01*
X99083715Y-74023505D01*
X99036096Y-74118743D01*
X98988477Y-74166362D01*
X98893239Y-74213981D01*
X98607524Y-74213981D01*
X98512286Y-74166362D01*
X98464667Y-74118743D01*
X91247934Y-101823781D02*
X90914600Y-101347590D01*
X90676505Y-101823781D02*
X90676505Y-100823781D01*
X91057458Y-100823781D01*
X91152696Y-100871400D01*
X91200315Y-100919019D01*
X91247934Y-101014257D01*
X91247934Y-101157114D01*
X91200315Y-101252352D01*
X91152696Y-101299971D01*
X91057458Y-101347590D01*
X90676505Y-101347590D01*
X92105077Y-101157114D02*
X92105077Y-101823781D01*
X91866981Y-100776162D02*
X91628886Y-101490448D01*
X92247934Y-101490448D01*
X110645334Y-75636381D02*
X110312000Y-75160190D01*
X110073905Y-75636381D02*
X110073905Y-74636381D01*
X110454858Y-74636381D01*
X110550096Y-74684000D01*
X110597715Y-74731619D01*
X110645334Y-74826857D01*
X110645334Y-74969714D01*
X110597715Y-75064952D01*
X110550096Y-75112571D01*
X110454858Y-75160190D01*
X110073905Y-75160190D01*
X111550096Y-74636381D02*
X111073905Y-74636381D01*
X111026286Y-75112571D01*
X111073905Y-75064952D01*
X111169143Y-75017333D01*
X111407239Y-75017333D01*
X111502477Y-75064952D01*
X111550096Y-75112571D01*
X111597715Y-75207810D01*
X111597715Y-75445905D01*
X111550096Y-75541143D01*
X111502477Y-75588762D01*
X111407239Y-75636381D01*
X111169143Y-75636381D01*
X111073905Y-75588762D01*
X111026286Y-75541143D01*
X112761734Y-79700381D02*
X112428400Y-79224190D01*
X112190305Y-79700381D02*
X112190305Y-78700381D01*
X112571258Y-78700381D01*
X112666496Y-78748000D01*
X112714115Y-78795619D01*
X112761734Y-78890857D01*
X112761734Y-79033714D01*
X112714115Y-79128952D01*
X112666496Y-79176571D01*
X112571258Y-79224190D01*
X112190305Y-79224190D01*
X113618877Y-78700381D02*
X113428400Y-78700381D01*
X113333162Y-78748000D01*
X113285543Y-78795619D01*
X113190305Y-78938476D01*
X113142686Y-79128952D01*
X113142686Y-79509905D01*
X113190305Y-79605143D01*
X113237924Y-79652762D01*
X113333162Y-79700381D01*
X113523639Y-79700381D01*
X113618877Y-79652762D01*
X113666496Y-79605143D01*
X113714115Y-79509905D01*
X113714115Y-79271810D01*
X113666496Y-79176571D01*
X113618877Y-79128952D01*
X113523639Y-79081333D01*
X113333162Y-79081333D01*
X113237924Y-79128952D01*
X113190305Y-79176571D01*
X113142686Y-79271810D01*
X148220134Y-99588581D02*
X147886800Y-99112390D01*
X147648705Y-99588581D02*
X147648705Y-98588581D01*
X148029658Y-98588581D01*
X148124896Y-98636200D01*
X148172515Y-98683819D01*
X148220134Y-98779057D01*
X148220134Y-98921914D01*
X148172515Y-99017152D01*
X148124896Y-99064771D01*
X148029658Y-99112390D01*
X147648705Y-99112390D01*
X148553467Y-98588581D02*
X149220134Y-98588581D01*
X148791562Y-99588581D01*
X138466534Y-108415081D02*
X138133200Y-107938890D01*
X137895105Y-108415081D02*
X137895105Y-107415081D01*
X138276058Y-107415081D01*
X138371296Y-107462700D01*
X138418915Y-107510319D01*
X138466534Y-107605557D01*
X138466534Y-107748414D01*
X138418915Y-107843652D01*
X138371296Y-107891271D01*
X138276058Y-107938890D01*
X137895105Y-107938890D01*
X139037962Y-107843652D02*
X138942724Y-107796033D01*
X138895105Y-107748414D01*
X138847486Y-107653176D01*
X138847486Y-107605557D01*
X138895105Y-107510319D01*
X138942724Y-107462700D01*
X139037962Y-107415081D01*
X139228439Y-107415081D01*
X139323677Y-107462700D01*
X139371296Y-107510319D01*
X139418915Y-107605557D01*
X139418915Y-107653176D01*
X139371296Y-107748414D01*
X139323677Y-107796033D01*
X139228439Y-107843652D01*
X139037962Y-107843652D01*
X138942724Y-107891271D01*
X138895105Y-107938890D01*
X138847486Y-108034129D01*
X138847486Y-108224605D01*
X138895105Y-108319843D01*
X138942724Y-108367462D01*
X139037962Y-108415081D01*
X139228439Y-108415081D01*
X139323677Y-108367462D01*
X139371296Y-108319843D01*
X139418915Y-108224605D01*
X139418915Y-108034129D01*
X139371296Y-107938890D01*
X139323677Y-107891271D01*
X139228439Y-107843652D01*
X138390334Y-103576381D02*
X138057000Y-103100190D01*
X137818905Y-103576381D02*
X137818905Y-102576381D01*
X138199858Y-102576381D01*
X138295096Y-102624000D01*
X138342715Y-102671619D01*
X138390334Y-102766857D01*
X138390334Y-102909714D01*
X138342715Y-103004952D01*
X138295096Y-103052571D01*
X138199858Y-103100190D01*
X137818905Y-103100190D01*
X138866524Y-103576381D02*
X139057000Y-103576381D01*
X139152239Y-103528762D01*
X139199858Y-103481143D01*
X139295096Y-103338286D01*
X139342715Y-103147810D01*
X139342715Y-102766857D01*
X139295096Y-102671619D01*
X139247477Y-102624000D01*
X139152239Y-102576381D01*
X138961762Y-102576381D01*
X138866524Y-102624000D01*
X138818905Y-102671619D01*
X138771286Y-102766857D01*
X138771286Y-103004952D01*
X138818905Y-103100190D01*
X138866524Y-103147810D01*
X138961762Y-103195429D01*
X139152239Y-103195429D01*
X139247477Y-103147810D01*
X139295096Y-103100190D01*
X139342715Y-103004952D01*
X138422143Y-110942381D02*
X138088809Y-110466190D01*
X137850714Y-110942381D02*
X137850714Y-109942381D01*
X138231667Y-109942381D01*
X138326905Y-109990000D01*
X138374524Y-110037619D01*
X138422143Y-110132857D01*
X138422143Y-110275714D01*
X138374524Y-110370952D01*
X138326905Y-110418571D01*
X138231667Y-110466190D01*
X137850714Y-110466190D01*
X139374524Y-110942381D02*
X138803095Y-110942381D01*
X139088809Y-110942381D02*
X139088809Y-109942381D01*
X138993571Y-110085238D01*
X138898333Y-110180476D01*
X138803095Y-110228095D01*
X139993571Y-109942381D02*
X140088810Y-109942381D01*
X140184048Y-109990000D01*
X140231667Y-110037619D01*
X140279286Y-110132857D01*
X140326905Y-110323333D01*
X140326905Y-110561429D01*
X140279286Y-110751905D01*
X140231667Y-110847143D01*
X140184048Y-110894762D01*
X140088810Y-110942381D01*
X139993571Y-110942381D01*
X139898333Y-110894762D01*
X139850714Y-110847143D01*
X139803095Y-110751905D01*
X139755476Y-110561429D01*
X139755476Y-110323333D01*
X139803095Y-110132857D01*
X139850714Y-110037619D01*
X139898333Y-109990000D01*
X139993571Y-109942381D01*
X139057143Y-77922381D02*
X138723809Y-77446190D01*
X138485714Y-77922381D02*
X138485714Y-76922381D01*
X138866667Y-76922381D01*
X138961905Y-76970000D01*
X139009524Y-77017619D01*
X139057143Y-77112857D01*
X139057143Y-77255714D01*
X139009524Y-77350952D01*
X138961905Y-77398571D01*
X138866667Y-77446190D01*
X138485714Y-77446190D01*
X140009524Y-77922381D02*
X139438095Y-77922381D01*
X139723809Y-77922381D02*
X139723809Y-76922381D01*
X139628571Y-77065238D01*
X139533333Y-77160476D01*
X139438095Y-77208095D01*
X140342857Y-76922381D02*
X140961905Y-76922381D01*
X140628571Y-77303333D01*
X140771429Y-77303333D01*
X140866667Y-77350952D01*
X140914286Y-77398571D01*
X140961905Y-77493810D01*
X140961905Y-77731905D01*
X140914286Y-77827143D01*
X140866667Y-77874762D01*
X140771429Y-77922381D01*
X140485714Y-77922381D01*
X140390476Y-77874762D01*
X140342857Y-77827143D01*
X138549143Y-100401381D02*
X138215809Y-99925190D01*
X137977714Y-100401381D02*
X137977714Y-99401381D01*
X138358667Y-99401381D01*
X138453905Y-99449000D01*
X138501524Y-99496619D01*
X138549143Y-99591857D01*
X138549143Y-99734714D01*
X138501524Y-99829952D01*
X138453905Y-99877571D01*
X138358667Y-99925190D01*
X137977714Y-99925190D01*
X139501524Y-100401381D02*
X138930095Y-100401381D01*
X139215809Y-100401381D02*
X139215809Y-99401381D01*
X139120571Y-99544238D01*
X139025333Y-99639476D01*
X138930095Y-99687095D01*
X140358667Y-99734714D02*
X140358667Y-100401381D01*
X140120571Y-99353762D02*
X139882476Y-100068048D01*
X140501524Y-100068048D01*
X138422143Y-95702381D02*
X138088809Y-95226190D01*
X137850714Y-95702381D02*
X137850714Y-94702381D01*
X138231667Y-94702381D01*
X138326905Y-94750000D01*
X138374524Y-94797619D01*
X138422143Y-94892857D01*
X138422143Y-95035714D01*
X138374524Y-95130952D01*
X138326905Y-95178571D01*
X138231667Y-95226190D01*
X137850714Y-95226190D01*
X139374524Y-95702381D02*
X138803095Y-95702381D01*
X139088809Y-95702381D02*
X139088809Y-94702381D01*
X138993571Y-94845238D01*
X138898333Y-94940476D01*
X138803095Y-94988095D01*
X140279286Y-94702381D02*
X139803095Y-94702381D01*
X139755476Y-95178571D01*
X139803095Y-95130952D01*
X139898333Y-95083333D01*
X140136429Y-95083333D01*
X140231667Y-95130952D01*
X140279286Y-95178571D01*
X140326905Y-95273810D01*
X140326905Y-95511905D01*
X140279286Y-95607143D01*
X140231667Y-95654762D01*
X140136429Y-95702381D01*
X139898333Y-95702381D01*
X139803095Y-95654762D01*
X139755476Y-95607143D01*
X138422143Y-93162381D02*
X138088809Y-92686190D01*
X137850714Y-93162381D02*
X137850714Y-92162381D01*
X138231667Y-92162381D01*
X138326905Y-92210000D01*
X138374524Y-92257619D01*
X138422143Y-92352857D01*
X138422143Y-92495714D01*
X138374524Y-92590952D01*
X138326905Y-92638571D01*
X138231667Y-92686190D01*
X137850714Y-92686190D01*
X139374524Y-93162381D02*
X138803095Y-93162381D01*
X139088809Y-93162381D02*
X139088809Y-92162381D01*
X138993571Y-92305238D01*
X138898333Y-92400476D01*
X138803095Y-92448095D01*
X140231667Y-92162381D02*
X140041190Y-92162381D01*
X139945952Y-92210000D01*
X139898333Y-92257619D01*
X139803095Y-92400476D01*
X139755476Y-92590952D01*
X139755476Y-92971905D01*
X139803095Y-93067143D01*
X139850714Y-93114762D01*
X139945952Y-93162381D01*
X140136429Y-93162381D01*
X140231667Y-93114762D01*
X140279286Y-93067143D01*
X140326905Y-92971905D01*
X140326905Y-92733810D01*
X140279286Y-92638571D01*
X140231667Y-92590952D01*
X140136429Y-92543333D01*
X139945952Y-92543333D01*
X139850714Y-92590952D01*
X139803095Y-92638571D01*
X139755476Y-92733810D01*
X138422143Y-90622381D02*
X138088809Y-90146190D01*
X137850714Y-90622381D02*
X137850714Y-89622381D01*
X138231667Y-89622381D01*
X138326905Y-89670000D01*
X138374524Y-89717619D01*
X138422143Y-89812857D01*
X138422143Y-89955714D01*
X138374524Y-90050952D01*
X138326905Y-90098571D01*
X138231667Y-90146190D01*
X137850714Y-90146190D01*
X139374524Y-90622381D02*
X138803095Y-90622381D01*
X139088809Y-90622381D02*
X139088809Y-89622381D01*
X138993571Y-89765238D01*
X138898333Y-89860476D01*
X138803095Y-89908095D01*
X139707857Y-89622381D02*
X140374524Y-89622381D01*
X139945952Y-90622381D01*
X138422143Y-88209381D02*
X138088809Y-87733190D01*
X137850714Y-88209381D02*
X137850714Y-87209381D01*
X138231667Y-87209381D01*
X138326905Y-87257000D01*
X138374524Y-87304619D01*
X138422143Y-87399857D01*
X138422143Y-87542714D01*
X138374524Y-87637952D01*
X138326905Y-87685571D01*
X138231667Y-87733190D01*
X137850714Y-87733190D01*
X139374524Y-88209381D02*
X138803095Y-88209381D01*
X139088809Y-88209381D02*
X139088809Y-87209381D01*
X138993571Y-87352238D01*
X138898333Y-87447476D01*
X138803095Y-87495095D01*
X139945952Y-87637952D02*
X139850714Y-87590333D01*
X139803095Y-87542714D01*
X139755476Y-87447476D01*
X139755476Y-87399857D01*
X139803095Y-87304619D01*
X139850714Y-87257000D01*
X139945952Y-87209381D01*
X140136429Y-87209381D01*
X140231667Y-87257000D01*
X140279286Y-87304619D01*
X140326905Y-87399857D01*
X140326905Y-87447476D01*
X140279286Y-87542714D01*
X140231667Y-87590333D01*
X140136429Y-87637952D01*
X139945952Y-87637952D01*
X139850714Y-87685571D01*
X139803095Y-87733190D01*
X139755476Y-87828429D01*
X139755476Y-88018905D01*
X139803095Y-88114143D01*
X139850714Y-88161762D01*
X139945952Y-88209381D01*
X140136429Y-88209381D01*
X140231667Y-88161762D01*
X140279286Y-88114143D01*
X140326905Y-88018905D01*
X140326905Y-87828429D01*
X140279286Y-87733190D01*
X140231667Y-87685571D01*
X140136429Y-87637952D01*
X135186895Y-68712081D02*
X135758324Y-68712081D01*
X135472609Y-69712081D02*
X135472609Y-68712081D01*
X136091657Y-69712081D02*
X136091657Y-68712081D01*
X136472610Y-68712081D01*
X136567848Y-68759700D01*
X136615467Y-68807319D01*
X136663086Y-68902557D01*
X136663086Y-69045414D01*
X136615467Y-69140652D01*
X136567848Y-69188271D01*
X136472610Y-69235890D01*
X136091657Y-69235890D01*
X137615467Y-69712081D02*
X137044038Y-69712081D01*
X137329752Y-69712081D02*
X137329752Y-68712081D01*
X137234514Y-68854938D01*
X137139276Y-68950176D01*
X137044038Y-68997795D01*
D14*
X108090305Y-70639819D02*
X108090305Y-71462295D01*
X108138686Y-71559057D01*
X108187067Y-71607438D01*
X108283829Y-71655819D01*
X108477352Y-71655819D01*
X108574114Y-71607438D01*
X108622495Y-71559057D01*
X108670876Y-71462295D01*
X108670876Y-70639819D01*
X109686876Y-71655819D02*
X109106305Y-71655819D01*
X109396591Y-71655819D02*
X109396591Y-70639819D01*
X109299829Y-70784962D01*
X109203067Y-70881724D01*
X109106305Y-70930105D01*
D13*
X113944495Y-89571581D02*
X113944495Y-90381105D01*
X113992114Y-90476343D01*
X114039733Y-90523962D01*
X114134971Y-90571581D01*
X114325448Y-90571581D01*
X114420686Y-90523962D01*
X114468305Y-90476343D01*
X114515924Y-90381105D01*
X114515924Y-89571581D01*
X114944495Y-89666819D02*
X114992114Y-89619200D01*
X115087352Y-89571581D01*
X115325448Y-89571581D01*
X115420686Y-89619200D01*
X115468305Y-89666819D01*
X115515924Y-89762057D01*
X115515924Y-89857295D01*
X115468305Y-90000152D01*
X114896876Y-90571581D01*
X115515924Y-90571581D01*
X97002695Y-70445381D02*
X97002695Y-71254905D01*
X97050314Y-71350143D01*
X97097933Y-71397762D01*
X97193171Y-71445381D01*
X97383648Y-71445381D01*
X97478886Y-71397762D01*
X97526505Y-71350143D01*
X97574124Y-71254905D01*
X97574124Y-70445381D01*
X97955076Y-70445381D02*
X98574124Y-70445381D01*
X98240790Y-70826333D01*
X98383648Y-70826333D01*
X98478886Y-70873952D01*
X98526505Y-70921571D01*
X98574124Y-71016810D01*
X98574124Y-71254905D01*
X98526505Y-71350143D01*
X98478886Y-71397762D01*
X98383648Y-71445381D01*
X98097933Y-71445381D01*
X98002695Y-71397762D01*
X97955076Y-71350143D01*
X150622095Y-79716381D02*
X150622095Y-80525905D01*
X150669714Y-80621143D01*
X150717333Y-80668762D01*
X150812571Y-80716381D01*
X151003048Y-80716381D01*
X151098286Y-80668762D01*
X151145905Y-80621143D01*
X151193524Y-80525905D01*
X151193524Y-79716381D01*
X151574476Y-79716381D02*
X152241143Y-79716381D01*
X151812571Y-80716381D01*
X94646809Y-89460390D02*
X94646809Y-89936581D01*
X94313476Y-88936581D02*
X94646809Y-89460390D01*
X94980143Y-88936581D01*
X95837286Y-89936581D02*
X95265857Y-89936581D01*
X95551571Y-89936581D02*
X95551571Y-88936581D01*
X95456333Y-89079438D01*
X95361095Y-89174676D01*
X95265857Y-89222295D01*
X95470743Y-95810343D02*
X95423124Y-95857962D01*
X95280267Y-95905581D01*
X95185029Y-95905581D01*
X95042171Y-95857962D01*
X94946933Y-95762724D01*
X94899314Y-95667486D01*
X94851695Y-95477010D01*
X94851695Y-95334152D01*
X94899314Y-95143676D01*
X94946933Y-95048438D01*
X95042171Y-94953200D01*
X95185029Y-94905581D01*
X95280267Y-94905581D01*
X95423124Y-94953200D01*
X95470743Y-95000819D01*
X95804076Y-94905581D02*
X96423124Y-94905581D01*
X96089790Y-95286533D01*
X96232648Y-95286533D01*
X96327886Y-95334152D01*
X96375505Y-95381771D01*
X96423124Y-95477010D01*
X96423124Y-95715105D01*
X96375505Y-95810343D01*
X96327886Y-95857962D01*
X96232648Y-95905581D01*
X95946933Y-95905581D01*
X95851695Y-95857962D01*
X95804076Y-95810343D01*
X96756457Y-94905581D02*
X97375505Y-94905581D01*
X97042171Y-95286533D01*
X97185029Y-95286533D01*
X97280267Y-95334152D01*
X97327886Y-95381771D01*
X97375505Y-95477010D01*
X97375505Y-95715105D01*
X97327886Y-95810343D01*
X97280267Y-95857962D01*
X97185029Y-95905581D01*
X96899314Y-95905581D01*
X96804076Y-95857962D01*
X96756457Y-95810343D01*
X95623143Y-93219543D02*
X95575524Y-93267162D01*
X95432667Y-93314781D01*
X95337429Y-93314781D01*
X95194571Y-93267162D01*
X95099333Y-93171924D01*
X95051714Y-93076686D01*
X95004095Y-92886210D01*
X95004095Y-92743352D01*
X95051714Y-92552876D01*
X95099333Y-92457638D01*
X95194571Y-92362400D01*
X95337429Y-92314781D01*
X95432667Y-92314781D01*
X95575524Y-92362400D01*
X95623143Y-92410019D01*
X95956476Y-92314781D02*
X96575524Y-92314781D01*
X96242190Y-92695733D01*
X96385048Y-92695733D01*
X96480286Y-92743352D01*
X96527905Y-92790971D01*
X96575524Y-92886210D01*
X96575524Y-93124305D01*
X96527905Y-93219543D01*
X96480286Y-93267162D01*
X96385048Y-93314781D01*
X96099333Y-93314781D01*
X96004095Y-93267162D01*
X95956476Y-93219543D01*
X97480286Y-92314781D02*
X97004095Y-92314781D01*
X96956476Y-92790971D01*
X97004095Y-92743352D01*
X97099333Y-92695733D01*
X97337429Y-92695733D01*
X97432667Y-92743352D01*
X97480286Y-92790971D01*
X97527905Y-92886210D01*
X97527905Y-93124305D01*
X97480286Y-93219543D01*
X97432667Y-93267162D01*
X97337429Y-93314781D01*
X97099333Y-93314781D01*
X97004095Y-93267162D01*
X96956476Y-93219543D01*
X128497105Y-80005181D02*
X128497105Y-79005181D01*
X128878058Y-79005181D01*
X128973296Y-79052800D01*
X129020915Y-79100419D01*
X129068534Y-79195657D01*
X129068534Y-79338514D01*
X129020915Y-79433752D01*
X128973296Y-79481371D01*
X128878058Y-79528990D01*
X128497105Y-79528990D01*
X130020915Y-80005181D02*
X129449486Y-80005181D01*
X129735200Y-80005181D02*
X129735200Y-79005181D01*
X129639962Y-79148038D01*
X129544724Y-79243276D01*
X129449486Y-79290895D01*
X84618534Y-87506343D02*
X84570915Y-87553962D01*
X84428058Y-87601581D01*
X84332820Y-87601581D01*
X84189962Y-87553962D01*
X84094724Y-87458724D01*
X84047105Y-87363486D01*
X83999486Y-87173010D01*
X83999486Y-87030152D01*
X84047105Y-86839676D01*
X84094724Y-86744438D01*
X84189962Y-86649200D01*
X84332820Y-86601581D01*
X84428058Y-86601581D01*
X84570915Y-86649200D01*
X84618534Y-86696819D01*
X85094724Y-87601581D02*
X85285200Y-87601581D01*
X85380439Y-87553962D01*
X85428058Y-87506343D01*
X85523296Y-87363486D01*
X85570915Y-87173010D01*
X85570915Y-86792057D01*
X85523296Y-86696819D01*
X85475677Y-86649200D01*
X85380439Y-86601581D01*
X85189962Y-86601581D01*
X85094724Y-86649200D01*
X85047105Y-86696819D01*
X84999486Y-86792057D01*
X84999486Y-87030152D01*
X85047105Y-87125390D01*
X85094724Y-87173010D01*
X85189962Y-87220629D01*
X85380439Y-87220629D01*
X85475677Y-87173010D01*
X85523296Y-87125390D01*
X85570915Y-87030152D01*
X83685143Y-69318143D02*
X83637524Y-69365762D01*
X83494667Y-69413381D01*
X83399429Y-69413381D01*
X83256571Y-69365762D01*
X83161333Y-69270524D01*
X83113714Y-69175286D01*
X83066095Y-68984810D01*
X83066095Y-68841952D01*
X83113714Y-68651476D01*
X83161333Y-68556238D01*
X83256571Y-68461000D01*
X83399429Y-68413381D01*
X83494667Y-68413381D01*
X83637524Y-68461000D01*
X83685143Y-68508619D01*
X84637524Y-69413381D02*
X84066095Y-69413381D01*
X84351809Y-69413381D02*
X84351809Y-68413381D01*
X84256571Y-68556238D01*
X84161333Y-68651476D01*
X84066095Y-68699095D01*
X85256571Y-68413381D02*
X85351810Y-68413381D01*
X85447048Y-68461000D01*
X85494667Y-68508619D01*
X85542286Y-68603857D01*
X85589905Y-68794333D01*
X85589905Y-69032429D01*
X85542286Y-69222905D01*
X85494667Y-69318143D01*
X85447048Y-69365762D01*
X85351810Y-69413381D01*
X85256571Y-69413381D01*
X85161333Y-69365762D01*
X85113714Y-69318143D01*
X85066095Y-69222905D01*
X85018476Y-69032429D01*
X85018476Y-68794333D01*
X85066095Y-68603857D01*
X85113714Y-68508619D01*
X85161333Y-68461000D01*
X85256571Y-68413381D01*
X152138143Y-70588143D02*
X152090524Y-70635762D01*
X151947667Y-70683381D01*
X151852429Y-70683381D01*
X151709571Y-70635762D01*
X151614333Y-70540524D01*
X151566714Y-70445286D01*
X151519095Y-70254810D01*
X151519095Y-70111952D01*
X151566714Y-69921476D01*
X151614333Y-69826238D01*
X151709571Y-69731000D01*
X151852429Y-69683381D01*
X151947667Y-69683381D01*
X152090524Y-69731000D01*
X152138143Y-69778619D01*
X153090524Y-70683381D02*
X152519095Y-70683381D01*
X152804809Y-70683381D02*
X152804809Y-69683381D01*
X152709571Y-69826238D01*
X152614333Y-69921476D01*
X152519095Y-69969095D01*
X153423857Y-69683381D02*
X154090524Y-69683381D01*
X153661952Y-70683381D01*
X130408443Y-64898543D02*
X130360824Y-64946162D01*
X130217967Y-64993781D01*
X130122729Y-64993781D01*
X129979871Y-64946162D01*
X129884633Y-64850924D01*
X129837014Y-64755686D01*
X129789395Y-64565210D01*
X129789395Y-64422352D01*
X129837014Y-64231876D01*
X129884633Y-64136638D01*
X129979871Y-64041400D01*
X130122729Y-63993781D01*
X130217967Y-63993781D01*
X130360824Y-64041400D01*
X130408443Y-64089019D01*
X130789395Y-64089019D02*
X130837014Y-64041400D01*
X130932252Y-63993781D01*
X131170348Y-63993781D01*
X131265586Y-64041400D01*
X131313205Y-64089019D01*
X131360824Y-64184257D01*
X131360824Y-64279495D01*
X131313205Y-64422352D01*
X130741776Y-64993781D01*
X131360824Y-64993781D01*
X132217967Y-64327114D02*
X132217967Y-64993781D01*
X131979871Y-63946162D02*
X131741776Y-64660448D01*
X132360824Y-64660448D01*
X119092743Y-105538543D02*
X119045124Y-105586162D01*
X118902267Y-105633781D01*
X118807029Y-105633781D01*
X118664171Y-105586162D01*
X118568933Y-105490924D01*
X118521314Y-105395686D01*
X118473695Y-105205210D01*
X118473695Y-105062352D01*
X118521314Y-104871876D01*
X118568933Y-104776638D01*
X118664171Y-104681400D01*
X118807029Y-104633781D01*
X118902267Y-104633781D01*
X119045124Y-104681400D01*
X119092743Y-104729019D01*
X119426076Y-104633781D02*
X120045124Y-104633781D01*
X119711790Y-105014733D01*
X119854648Y-105014733D01*
X119949886Y-105062352D01*
X119997505Y-105109971D01*
X120045124Y-105205210D01*
X120045124Y-105443305D01*
X119997505Y-105538543D01*
X119949886Y-105586162D01*
X119854648Y-105633781D01*
X119568933Y-105633781D01*
X119473695Y-105586162D01*
X119426076Y-105538543D01*
X120378457Y-104633781D02*
X121045124Y-104633781D01*
X120616552Y-105633781D01*
X117924343Y-96572343D02*
X117876724Y-96619962D01*
X117733867Y-96667581D01*
X117638629Y-96667581D01*
X117495771Y-96619962D01*
X117400533Y-96524724D01*
X117352914Y-96429486D01*
X117305295Y-96239010D01*
X117305295Y-96096152D01*
X117352914Y-95905676D01*
X117400533Y-95810438D01*
X117495771Y-95715200D01*
X117638629Y-95667581D01*
X117733867Y-95667581D01*
X117876724Y-95715200D01*
X117924343Y-95762819D01*
X118257676Y-95667581D02*
X118876724Y-95667581D01*
X118543390Y-96048533D01*
X118686248Y-96048533D01*
X118781486Y-96096152D01*
X118829105Y-96143771D01*
X118876724Y-96239010D01*
X118876724Y-96477105D01*
X118829105Y-96572343D01*
X118781486Y-96619962D01*
X118686248Y-96667581D01*
X118400533Y-96667581D01*
X118305295Y-96619962D01*
X118257676Y-96572343D01*
X119448152Y-96096152D02*
X119352914Y-96048533D01*
X119305295Y-96000914D01*
X119257676Y-95905676D01*
X119257676Y-95858057D01*
X119305295Y-95762819D01*
X119352914Y-95715200D01*
X119448152Y-95667581D01*
X119638629Y-95667581D01*
X119733867Y-95715200D01*
X119781486Y-95762819D01*
X119829105Y-95858057D01*
X119829105Y-95905676D01*
X119781486Y-96000914D01*
X119733867Y-96048533D01*
X119638629Y-96096152D01*
X119448152Y-96096152D01*
X119352914Y-96143771D01*
X119305295Y-96191390D01*
X119257676Y-96286629D01*
X119257676Y-96477105D01*
X119305295Y-96572343D01*
X119352914Y-96619962D01*
X119448152Y-96667581D01*
X119638629Y-96667581D01*
X119733867Y-96619962D01*
X119781486Y-96572343D01*
X119829105Y-96477105D01*
X119829105Y-96286629D01*
X119781486Y-96191390D01*
X119733867Y-96143771D01*
X119638629Y-96096152D01*
X122445543Y-96342381D02*
X122112209Y-95866190D01*
X121874114Y-96342381D02*
X121874114Y-95342381D01*
X122255067Y-95342381D01*
X122350305Y-95390000D01*
X122397924Y-95437619D01*
X122445543Y-95532857D01*
X122445543Y-95675714D01*
X122397924Y-95770952D01*
X122350305Y-95818571D01*
X122255067Y-95866190D01*
X121874114Y-95866190D01*
X123397924Y-96342381D02*
X122826495Y-96342381D01*
X123112209Y-96342381D02*
X123112209Y-95342381D01*
X123016971Y-95485238D01*
X122921733Y-95580476D01*
X122826495Y-95628095D01*
X123874114Y-96342381D02*
X124064590Y-96342381D01*
X124159829Y-96294762D01*
X124207448Y-96247143D01*
X124302686Y-96104286D01*
X124350305Y-95913810D01*
X124350305Y-95532857D01*
X124302686Y-95437619D01*
X124255067Y-95390000D01*
X124159829Y-95342381D01*
X123969352Y-95342381D01*
X123874114Y-95390000D01*
X123826495Y-95437619D01*
X123778876Y-95532857D01*
X123778876Y-95770952D01*
X123826495Y-95866190D01*
X123874114Y-95913810D01*
X123969352Y-95961429D01*
X124159829Y-95961429D01*
X124255067Y-95913810D01*
X124302686Y-95866190D01*
X124350305Y-95770952D01*
X124477543Y-101722181D02*
X124144209Y-101245990D01*
X123906114Y-101722181D02*
X123906114Y-100722181D01*
X124287067Y-100722181D01*
X124382305Y-100769800D01*
X124429924Y-100817419D01*
X124477543Y-100912657D01*
X124477543Y-101055514D01*
X124429924Y-101150752D01*
X124382305Y-101198371D01*
X124287067Y-101245990D01*
X123906114Y-101245990D01*
X124858495Y-100817419D02*
X124906114Y-100769800D01*
X125001352Y-100722181D01*
X125239448Y-100722181D01*
X125334686Y-100769800D01*
X125382305Y-100817419D01*
X125429924Y-100912657D01*
X125429924Y-101007895D01*
X125382305Y-101150752D01*
X124810876Y-101722181D01*
X125429924Y-101722181D01*
X126048971Y-100722181D02*
X126144210Y-100722181D01*
X126239448Y-100769800D01*
X126287067Y-100817419D01*
X126334686Y-100912657D01*
X126382305Y-101103133D01*
X126382305Y-101341229D01*
X126334686Y-101531705D01*
X126287067Y-101626943D01*
X126239448Y-101674562D01*
X126144210Y-101722181D01*
X126048971Y-101722181D01*
X125953733Y-101674562D01*
X125906114Y-101626943D01*
X125858495Y-101531705D01*
X125810876Y-101341229D01*
X125810876Y-101103133D01*
X125858495Y-100912657D01*
X125906114Y-100817419D01*
X125953733Y-100769800D01*
X126048971Y-100722181D01*
D10*
X116306676Y-100704705D02*
X116306676Y-101352324D01*
X116344771Y-101428514D01*
X116382867Y-101466610D01*
X116459057Y-101504705D01*
X116611438Y-101504705D01*
X116687629Y-101466610D01*
X116725724Y-101428514D01*
X116763819Y-101352324D01*
X116763819Y-100704705D01*
X117259057Y-101047562D02*
X117182866Y-101009467D01*
X117144771Y-100971371D01*
X117106676Y-100895181D01*
X117106676Y-100857086D01*
X117144771Y-100780895D01*
X117182866Y-100742800D01*
X117259057Y-100704705D01*
X117411438Y-100704705D01*
X117487628Y-100742800D01*
X117525724Y-100780895D01*
X117563819Y-100857086D01*
X117563819Y-100895181D01*
X117525724Y-100971371D01*
X117487628Y-101009467D01*
X117411438Y-101047562D01*
X117259057Y-101047562D01*
X117182866Y-101085657D01*
X117144771Y-101123752D01*
X117106676Y-101199943D01*
X117106676Y-101352324D01*
X117144771Y-101428514D01*
X117182866Y-101466610D01*
X117259057Y-101504705D01*
X117411438Y-101504705D01*
X117487628Y-101466610D01*
X117525724Y-101428514D01*
X117563819Y-101352324D01*
X117563819Y-101199943D01*
X117525724Y-101123752D01*
X117487628Y-101085657D01*
X117411438Y-101047562D01*
D13*
X94089695Y-96817181D02*
X94661124Y-96817181D01*
X94375409Y-97817181D02*
X94375409Y-96817181D01*
X94994457Y-97817181D02*
X94994457Y-96817181D01*
X95375410Y-96817181D01*
X95470648Y-96864800D01*
X95518267Y-96912419D01*
X95565886Y-97007657D01*
X95565886Y-97150514D01*
X95518267Y-97245752D01*
X95470648Y-97293371D01*
X95375410Y-97340990D01*
X94994457Y-97340990D01*
X95946838Y-96912419D02*
X95994457Y-96864800D01*
X96089695Y-96817181D01*
X96327791Y-96817181D01*
X96423029Y-96864800D01*
X96470648Y-96912419D01*
X96518267Y-97007657D01*
X96518267Y-97102895D01*
X96470648Y-97245752D01*
X95899219Y-97817181D01*
X96518267Y-97817181D01*
X96934495Y-65187581D02*
X97505924Y-65187581D01*
X97220209Y-66187581D02*
X97220209Y-65187581D01*
X97839257Y-66187581D02*
X97839257Y-65187581D01*
X98220210Y-65187581D01*
X98315448Y-65235200D01*
X98363067Y-65282819D01*
X98410686Y-65378057D01*
X98410686Y-65520914D01*
X98363067Y-65616152D01*
X98315448Y-65663771D01*
X98220210Y-65711390D01*
X97839257Y-65711390D01*
X98744019Y-65187581D02*
X99363067Y-65187581D01*
X99029733Y-65568533D01*
X99172591Y-65568533D01*
X99267829Y-65616152D01*
X99315448Y-65663771D01*
X99363067Y-65759010D01*
X99363067Y-65997105D01*
X99315448Y-66092343D01*
X99267829Y-66139962D01*
X99172591Y-66187581D01*
X98886876Y-66187581D01*
X98791638Y-66139962D01*
X98744019Y-66092343D01*
X85860095Y-82662781D02*
X86431524Y-82662781D01*
X86145809Y-83662781D02*
X86145809Y-82662781D01*
X86764857Y-83662781D02*
X86764857Y-82662781D01*
X87145810Y-82662781D01*
X87241048Y-82710400D01*
X87288667Y-82758019D01*
X87336286Y-82853257D01*
X87336286Y-82996114D01*
X87288667Y-83091352D01*
X87241048Y-83138971D01*
X87145810Y-83186590D01*
X86764857Y-83186590D01*
X88193429Y-82996114D02*
X88193429Y-83662781D01*
X87955333Y-82615162D02*
X87717238Y-83329448D01*
X88336286Y-83329448D01*
X93581695Y-62495181D02*
X94153124Y-62495181D01*
X93867409Y-63495181D02*
X93867409Y-62495181D01*
X94486457Y-63495181D02*
X94486457Y-62495181D01*
X94867410Y-62495181D01*
X94962648Y-62542800D01*
X95010267Y-62590419D01*
X95057886Y-62685657D01*
X95057886Y-62828514D01*
X95010267Y-62923752D01*
X94962648Y-62971371D01*
X94867410Y-63018990D01*
X94486457Y-63018990D01*
X95962648Y-62495181D02*
X95486457Y-62495181D01*
X95438838Y-62971371D01*
X95486457Y-62923752D01*
X95581695Y-62876133D01*
X95819791Y-62876133D01*
X95915029Y-62923752D01*
X95962648Y-62971371D01*
X96010267Y-63066610D01*
X96010267Y-63304705D01*
X95962648Y-63399943D01*
X95915029Y-63447562D01*
X95819791Y-63495181D01*
X95581695Y-63495181D01*
X95486457Y-63447562D01*
X95438838Y-63399943D01*
X86368095Y-85101181D02*
X86939524Y-85101181D01*
X86653809Y-86101181D02*
X86653809Y-85101181D01*
X87272857Y-86101181D02*
X87272857Y-85101181D01*
X87653810Y-85101181D01*
X87749048Y-85148800D01*
X87796667Y-85196419D01*
X87844286Y-85291657D01*
X87844286Y-85434514D01*
X87796667Y-85529752D01*
X87749048Y-85577371D01*
X87653810Y-85624990D01*
X87272857Y-85624990D01*
X88701429Y-85101181D02*
X88510952Y-85101181D01*
X88415714Y-85148800D01*
X88368095Y-85196419D01*
X88272857Y-85339276D01*
X88225238Y-85529752D01*
X88225238Y-85910705D01*
X88272857Y-86005943D01*
X88320476Y-86053562D01*
X88415714Y-86101181D01*
X88606191Y-86101181D01*
X88701429Y-86053562D01*
X88749048Y-86005943D01*
X88796667Y-85910705D01*
X88796667Y-85672610D01*
X88749048Y-85577371D01*
X88701429Y-85529752D01*
X88606191Y-85482133D01*
X88415714Y-85482133D01*
X88320476Y-85529752D01*
X88272857Y-85577371D01*
X88225238Y-85672610D01*
X99907838Y-82103981D02*
X100145933Y-83103981D01*
X100336410Y-82389695D01*
X100526886Y-83103981D01*
X100764981Y-82103981D01*
X101669743Y-83103981D02*
X101098314Y-83103981D01*
X101384028Y-83103981D02*
X101384028Y-82103981D01*
X101288790Y-82246838D01*
X101193552Y-82342076D01*
X101098314Y-82389695D01*
X118551438Y-78700381D02*
X118789533Y-79700381D01*
X118980010Y-78986095D01*
X119170486Y-79700381D01*
X119408581Y-78700381D01*
X119741914Y-78795619D02*
X119789533Y-78748000D01*
X119884771Y-78700381D01*
X120122867Y-78700381D01*
X120218105Y-78748000D01*
X120265724Y-78795619D01*
X120313343Y-78890857D01*
X120313343Y-78986095D01*
X120265724Y-79128952D01*
X119694295Y-79700381D01*
X120313343Y-79700381D01*
X116773438Y-81951581D02*
X117011533Y-82951581D01*
X117202010Y-82237295D01*
X117392486Y-82951581D01*
X117630581Y-81951581D01*
X117916295Y-81951581D02*
X118535343Y-81951581D01*
X118202009Y-82332533D01*
X118344867Y-82332533D01*
X118440105Y-82380152D01*
X118487724Y-82427771D01*
X118535343Y-82523010D01*
X118535343Y-82761105D01*
X118487724Y-82856343D01*
X118440105Y-82903962D01*
X118344867Y-82951581D01*
X118059152Y-82951581D01*
X117963914Y-82903962D01*
X117916295Y-82856343D01*
X109001038Y-81418181D02*
X109239133Y-82418181D01*
X109429610Y-81703895D01*
X109620086Y-82418181D01*
X109858181Y-81418181D01*
X110667705Y-81751514D02*
X110667705Y-82418181D01*
X110429609Y-81370562D02*
X110191514Y-82084848D01*
X110810562Y-82084848D01*
X114563638Y-105192581D02*
X114801733Y-106192581D01*
X114992210Y-105478295D01*
X115182686Y-106192581D01*
X115420781Y-105192581D01*
X116277924Y-105192581D02*
X115801733Y-105192581D01*
X115754114Y-105668771D01*
X115801733Y-105621152D01*
X115896971Y-105573533D01*
X116135067Y-105573533D01*
X116230305Y-105621152D01*
X116277924Y-105668771D01*
X116325543Y-105764010D01*
X116325543Y-106002105D01*
X116277924Y-106097343D01*
X116230305Y-106144962D01*
X116135067Y-106192581D01*
X115896971Y-106192581D01*
X115801733Y-106144962D01*
X115754114Y-106097343D01*
X91678238Y-74509381D02*
X91916333Y-75509381D01*
X92106810Y-74795095D01*
X92297286Y-75509381D01*
X92535381Y-74509381D01*
X93344905Y-74509381D02*
X93154428Y-74509381D01*
X93059190Y-74557000D01*
X93011571Y-74604619D01*
X92916333Y-74747476D01*
X92868714Y-74937952D01*
X92868714Y-75318905D01*
X92916333Y-75414143D01*
X92963952Y-75461762D01*
X93059190Y-75509381D01*
X93249667Y-75509381D01*
X93344905Y-75461762D01*
X93392524Y-75414143D01*
X93440143Y-75318905D01*
X93440143Y-75080810D01*
X93392524Y-74985571D01*
X93344905Y-74937952D01*
X93249667Y-74890333D01*
X93059190Y-74890333D01*
X92963952Y-74937952D01*
X92916333Y-74985571D01*
X92868714Y-75080810D01*
X142573476Y-96099381D02*
X143240143Y-97099381D01*
X143240143Y-96099381D02*
X142573476Y-97099381D01*
X144144905Y-97099381D02*
X143573476Y-97099381D01*
X143859190Y-97099381D02*
X143859190Y-96099381D01*
X143763952Y-96242238D01*
X143668714Y-96337476D01*
X143573476Y-96385095D01*
D10*
X153924095Y-65111381D02*
X153924095Y-65920905D01*
X153971714Y-66016143D01*
X154019333Y-66063762D01*
X154114571Y-66111381D01*
X154305048Y-66111381D01*
X154400286Y-66063762D01*
X154447905Y-66016143D01*
X154495524Y-65920905D01*
X154495524Y-65111381D01*
X155400286Y-65444714D02*
X155400286Y-66111381D01*
X155162190Y-65063762D02*
X154924095Y-65778048D01*
X155543143Y-65778048D01*
X128295476Y-68268905D02*
X128295476Y-68916524D01*
X128333571Y-68992714D01*
X128371667Y-69030810D01*
X128447857Y-69068905D01*
X128600238Y-69068905D01*
X128676429Y-69030810D01*
X128714524Y-68992714D01*
X128752619Y-68916524D01*
X128752619Y-68268905D01*
X129514524Y-68268905D02*
X129133571Y-68268905D01*
X129095476Y-68649857D01*
X129133571Y-68611762D01*
X129209762Y-68573667D01*
X129400238Y-68573667D01*
X129476428Y-68611762D01*
X129514524Y-68649857D01*
X129552619Y-68726048D01*
X129552619Y-68916524D01*
X129514524Y-68992714D01*
X129476428Y-69030810D01*
X129400238Y-69068905D01*
X129209762Y-69068905D01*
X129133571Y-69030810D01*
X129095476Y-68992714D01*
D13*
X85290067Y-99375981D02*
X85290067Y-100090267D01*
X85242447Y-100233124D01*
X85147209Y-100328362D01*
X85004352Y-100375981D01*
X84909114Y-100375981D01*
X86290067Y-100375981D02*
X85718638Y-100375981D01*
X86004352Y-100375981D02*
X86004352Y-99375981D01*
X85909114Y-99518838D01*
X85813876Y-99614076D01*
X85718638Y-99661695D01*
X166310067Y-79132781D02*
X166310067Y-79847067D01*
X166262447Y-79989924D01*
X166167209Y-80085162D01*
X166024352Y-80132781D01*
X165929114Y-80132781D01*
X166691019Y-79132781D02*
X167310067Y-79132781D01*
X166976733Y-79513733D01*
X167119591Y-79513733D01*
X167214829Y-79561352D01*
X167262448Y-79608971D01*
X167310067Y-79704210D01*
X167310067Y-79942305D01*
X167262448Y-80037543D01*
X167214829Y-80085162D01*
X167119591Y-80132781D01*
X166833876Y-80132781D01*
X166738638Y-80085162D01*
X166691019Y-80037543D01*
X160494743Y-90679543D02*
X160447124Y-90727162D01*
X160304267Y-90774781D01*
X160209029Y-90774781D01*
X160066171Y-90727162D01*
X159970933Y-90631924D01*
X159923314Y-90536686D01*
X159875695Y-90346210D01*
X159875695Y-90203352D01*
X159923314Y-90012876D01*
X159970933Y-89917638D01*
X160066171Y-89822400D01*
X160209029Y-89774781D01*
X160304267Y-89774781D01*
X160447124Y-89822400D01*
X160494743Y-89870019D01*
X161447124Y-90774781D02*
X160875695Y-90774781D01*
X161161409Y-90774781D02*
X161161409Y-89774781D01*
X161066171Y-89917638D01*
X160970933Y-90012876D01*
X160875695Y-90060495D01*
X161923314Y-90774781D02*
X162113790Y-90774781D01*
X162209029Y-90727162D01*
X162256648Y-90679543D01*
X162351886Y-90536686D01*
X162399505Y-90346210D01*
X162399505Y-89965257D01*
X162351886Y-89870019D01*
X162304267Y-89822400D01*
X162209029Y-89774781D01*
X162018552Y-89774781D01*
X161923314Y-89822400D01*
X161875695Y-89870019D01*
X161828076Y-89965257D01*
X161828076Y-90203352D01*
X161875695Y-90298590D01*
X161923314Y-90346210D01*
X162018552Y-90393829D01*
X162209029Y-90393829D01*
X162304267Y-90346210D01*
X162351886Y-90298590D01*
X162399505Y-90203352D01*
X163314143Y-69445143D02*
X163266524Y-69492762D01*
X163123667Y-69540381D01*
X163028429Y-69540381D01*
X162885571Y-69492762D01*
X162790333Y-69397524D01*
X162742714Y-69302286D01*
X162695095Y-69111810D01*
X162695095Y-68968952D01*
X162742714Y-68778476D01*
X162790333Y-68683238D01*
X162885571Y-68588000D01*
X163028429Y-68540381D01*
X163123667Y-68540381D01*
X163266524Y-68588000D01*
X163314143Y-68635619D01*
X163695095Y-68635619D02*
X163742714Y-68588000D01*
X163837952Y-68540381D01*
X164076048Y-68540381D01*
X164171286Y-68588000D01*
X164218905Y-68635619D01*
X164266524Y-68730857D01*
X164266524Y-68826095D01*
X164218905Y-68968952D01*
X163647476Y-69540381D01*
X164266524Y-69540381D01*
X164599857Y-68540381D02*
X165218905Y-68540381D01*
X164885571Y-68921333D01*
X165028429Y-68921333D01*
X165123667Y-68968952D01*
X165171286Y-69016571D01*
X165218905Y-69111810D01*
X165218905Y-69349905D01*
X165171286Y-69445143D01*
X165123667Y-69492762D01*
X165028429Y-69540381D01*
X164742714Y-69540381D01*
X164647476Y-69492762D01*
X164599857Y-69445143D01*
X162729943Y-94540343D02*
X162682324Y-94587962D01*
X162539467Y-94635581D01*
X162444229Y-94635581D01*
X162301371Y-94587962D01*
X162206133Y-94492724D01*
X162158514Y-94397486D01*
X162110895Y-94207010D01*
X162110895Y-94064152D01*
X162158514Y-93873676D01*
X162206133Y-93778438D01*
X162301371Y-93683200D01*
X162444229Y-93635581D01*
X162539467Y-93635581D01*
X162682324Y-93683200D01*
X162729943Y-93730819D01*
X163110895Y-93730819D02*
X163158514Y-93683200D01*
X163253752Y-93635581D01*
X163491848Y-93635581D01*
X163587086Y-93683200D01*
X163634705Y-93730819D01*
X163682324Y-93826057D01*
X163682324Y-93921295D01*
X163634705Y-94064152D01*
X163063276Y-94635581D01*
X163682324Y-94635581D01*
X164158514Y-94635581D02*
X164348990Y-94635581D01*
X164444229Y-94587962D01*
X164491848Y-94540343D01*
X164587086Y-94397486D01*
X164634705Y-94207010D01*
X164634705Y-93826057D01*
X164587086Y-93730819D01*
X164539467Y-93683200D01*
X164444229Y-93635581D01*
X164253752Y-93635581D01*
X164158514Y-93683200D01*
X164110895Y-93730819D01*
X164063276Y-93826057D01*
X164063276Y-94064152D01*
X164110895Y-94159390D01*
X164158514Y-94207010D01*
X164253752Y-94254629D01*
X164444229Y-94254629D01*
X164539467Y-94207010D01*
X164587086Y-94159390D01*
X164634705Y-94064152D01*
X135120143Y-67159143D02*
X135072524Y-67206762D01*
X134929667Y-67254381D01*
X134834429Y-67254381D01*
X134691571Y-67206762D01*
X134596333Y-67111524D01*
X134548714Y-67016286D01*
X134501095Y-66825810D01*
X134501095Y-66682952D01*
X134548714Y-66492476D01*
X134596333Y-66397238D01*
X134691571Y-66302000D01*
X134834429Y-66254381D01*
X134929667Y-66254381D01*
X135072524Y-66302000D01*
X135120143Y-66349619D01*
X135453476Y-66254381D02*
X136072524Y-66254381D01*
X135739190Y-66635333D01*
X135882048Y-66635333D01*
X135977286Y-66682952D01*
X136024905Y-66730571D01*
X136072524Y-66825810D01*
X136072524Y-67063905D01*
X136024905Y-67159143D01*
X135977286Y-67206762D01*
X135882048Y-67254381D01*
X135596333Y-67254381D01*
X135501095Y-67206762D01*
X135453476Y-67159143D01*
X136929667Y-66254381D02*
X136739190Y-66254381D01*
X136643952Y-66302000D01*
X136596333Y-66349619D01*
X136501095Y-66492476D01*
X136453476Y-66682952D01*
X136453476Y-67063905D01*
X136501095Y-67159143D01*
X136548714Y-67206762D01*
X136643952Y-67254381D01*
X136834429Y-67254381D01*
X136929667Y-67206762D01*
X136977286Y-67159143D01*
X137024905Y-67063905D01*
X137024905Y-66825810D01*
X136977286Y-66730571D01*
X136929667Y-66682952D01*
X136834429Y-66635333D01*
X136643952Y-66635333D01*
X136548714Y-66682952D01*
X136501095Y-66730571D01*
X136453476Y-66825810D01*
X159192934Y-94076781D02*
X158716743Y-94076781D01*
X158716743Y-93076781D01*
X160050077Y-94076781D02*
X159478648Y-94076781D01*
X159764362Y-94076781D02*
X159764362Y-93076781D01*
X159669124Y-93219638D01*
X159573886Y-93314876D01*
X159478648Y-93362495D01*
X175426905Y-80517381D02*
X175426905Y-79517381D01*
X175807858Y-79517381D01*
X175903096Y-79565000D01*
X175950715Y-79612619D01*
X175998334Y-79707857D01*
X175998334Y-79850714D01*
X175950715Y-79945952D01*
X175903096Y-79993571D01*
X175807858Y-80041190D01*
X175426905Y-80041190D01*
X176379286Y-79612619D02*
X176426905Y-79565000D01*
X176522143Y-79517381D01*
X176760239Y-79517381D01*
X176855477Y-79565000D01*
X176903096Y-79612619D01*
X176950715Y-79707857D01*
X176950715Y-79803095D01*
X176903096Y-79945952D01*
X176331667Y-80517381D01*
X176950715Y-80517381D01*
X163052238Y-99147381D02*
X163290333Y-100147381D01*
X163480810Y-99433095D01*
X163671286Y-100147381D01*
X163909381Y-99147381D01*
X164195095Y-99147381D02*
X164861762Y-99147381D01*
X164433190Y-100147381D01*
X159242238Y-99274381D02*
X159480333Y-100274381D01*
X159670810Y-99560095D01*
X159861286Y-100274381D01*
X160099381Y-99274381D01*
X160623190Y-99702952D02*
X160527952Y-99655333D01*
X160480333Y-99607714D01*
X160432714Y-99512476D01*
X160432714Y-99464857D01*
X160480333Y-99369619D01*
X160527952Y-99322000D01*
X160623190Y-99274381D01*
X160813667Y-99274381D01*
X160908905Y-99322000D01*
X160956524Y-99369619D01*
X161004143Y-99464857D01*
X161004143Y-99512476D01*
X160956524Y-99607714D01*
X160908905Y-99655333D01*
X160813667Y-99702952D01*
X160623190Y-99702952D01*
X160527952Y-99750571D01*
X160480333Y-99798190D01*
X160432714Y-99893429D01*
X160432714Y-100083905D01*
X160480333Y-100179143D01*
X160527952Y-100226762D01*
X160623190Y-100274381D01*
X160813667Y-100274381D01*
X160908905Y-100226762D01*
X160956524Y-100179143D01*
X161004143Y-100083905D01*
X161004143Y-99893429D01*
X160956524Y-99798190D01*
X160908905Y-99750571D01*
X160813667Y-99702952D01*
X156583143Y-85574143D02*
X156535524Y-85621762D01*
X156392667Y-85669381D01*
X156297429Y-85669381D01*
X156154571Y-85621762D01*
X156059333Y-85526524D01*
X156011714Y-85431286D01*
X155964095Y-85240810D01*
X155964095Y-85097952D01*
X156011714Y-84907476D01*
X156059333Y-84812238D01*
X156154571Y-84717000D01*
X156297429Y-84669381D01*
X156392667Y-84669381D01*
X156535524Y-84717000D01*
X156583143Y-84764619D01*
X156916476Y-84669381D02*
X157535524Y-84669381D01*
X157202190Y-85050333D01*
X157345048Y-85050333D01*
X157440286Y-85097952D01*
X157487905Y-85145571D01*
X157535524Y-85240810D01*
X157535524Y-85478905D01*
X157487905Y-85574143D01*
X157440286Y-85621762D01*
X157345048Y-85669381D01*
X157059333Y-85669381D01*
X156964095Y-85621762D01*
X156916476Y-85574143D01*
X158011714Y-85669381D02*
X158202190Y-85669381D01*
X158297429Y-85621762D01*
X158345048Y-85574143D01*
X158440286Y-85431286D01*
X158487905Y-85240810D01*
X158487905Y-84859857D01*
X158440286Y-84764619D01*
X158392667Y-84717000D01*
X158297429Y-84669381D01*
X158106952Y-84669381D01*
X158011714Y-84717000D01*
X157964095Y-84764619D01*
X157916476Y-84859857D01*
X157916476Y-85097952D01*
X157964095Y-85193190D01*
X158011714Y-85240810D01*
X158106952Y-85288429D01*
X158297429Y-85288429D01*
X158392667Y-85240810D01*
X158440286Y-85193190D01*
X158487905Y-85097952D01*
X174769543Y-87834743D02*
X174721924Y-87882362D01*
X174579067Y-87929981D01*
X174483829Y-87929981D01*
X174340971Y-87882362D01*
X174245733Y-87787124D01*
X174198114Y-87691886D01*
X174150495Y-87501410D01*
X174150495Y-87358552D01*
X174198114Y-87168076D01*
X174245733Y-87072838D01*
X174340971Y-86977600D01*
X174483829Y-86929981D01*
X174579067Y-86929981D01*
X174721924Y-86977600D01*
X174769543Y-87025219D01*
X175102876Y-86929981D02*
X175721924Y-86929981D01*
X175388590Y-87310933D01*
X175531448Y-87310933D01*
X175626686Y-87358552D01*
X175674305Y-87406171D01*
X175721924Y-87501410D01*
X175721924Y-87739505D01*
X175674305Y-87834743D01*
X175626686Y-87882362D01*
X175531448Y-87929981D01*
X175245733Y-87929981D01*
X175150495Y-87882362D01*
X175102876Y-87834743D01*
X176674305Y-87929981D02*
X176102876Y-87929981D01*
X176388590Y-87929981D02*
X176388590Y-86929981D01*
X176293352Y-87072838D01*
X176198114Y-87168076D01*
X176102876Y-87215695D01*
X165219143Y-92686143D02*
X165171524Y-92733762D01*
X165028667Y-92781381D01*
X164933429Y-92781381D01*
X164790571Y-92733762D01*
X164695333Y-92638524D01*
X164647714Y-92543286D01*
X164600095Y-92352810D01*
X164600095Y-92209952D01*
X164647714Y-92019476D01*
X164695333Y-91924238D01*
X164790571Y-91829000D01*
X164933429Y-91781381D01*
X165028667Y-91781381D01*
X165171524Y-91829000D01*
X165219143Y-91876619D01*
X165552476Y-91781381D02*
X166171524Y-91781381D01*
X165838190Y-92162333D01*
X165981048Y-92162333D01*
X166076286Y-92209952D01*
X166123905Y-92257571D01*
X166171524Y-92352810D01*
X166171524Y-92590905D01*
X166123905Y-92686143D01*
X166076286Y-92733762D01*
X165981048Y-92781381D01*
X165695333Y-92781381D01*
X165600095Y-92733762D01*
X165552476Y-92686143D01*
X166552476Y-91876619D02*
X166600095Y-91829000D01*
X166695333Y-91781381D01*
X166933429Y-91781381D01*
X167028667Y-91829000D01*
X167076286Y-91876619D01*
X167123905Y-91971857D01*
X167123905Y-92067095D01*
X167076286Y-92209952D01*
X166504857Y-92781381D01*
X167123905Y-92781381D01*
X154051095Y-96734381D02*
X154051095Y-97543905D01*
X154098714Y-97639143D01*
X154146333Y-97686762D01*
X154241571Y-97734381D01*
X154432048Y-97734381D01*
X154527286Y-97686762D01*
X154574905Y-97639143D01*
X154622524Y-97543905D01*
X154622524Y-96734381D01*
X155527286Y-96734381D02*
X155336809Y-96734381D01*
X155241571Y-96782000D01*
X155193952Y-96829619D01*
X155098714Y-96972476D01*
X155051095Y-97162952D01*
X155051095Y-97543905D01*
X155098714Y-97639143D01*
X155146333Y-97686762D01*
X155241571Y-97734381D01*
X155432048Y-97734381D01*
X155527286Y-97686762D01*
X155574905Y-97639143D01*
X155622524Y-97543905D01*
X155622524Y-97305810D01*
X155574905Y-97210571D01*
X155527286Y-97162952D01*
X155432048Y-97115333D01*
X155241571Y-97115333D01*
X155146333Y-97162952D01*
X155098714Y-97210571D01*
X155051095Y-97305810D01*
X100499943Y-86869543D02*
X100452324Y-86917162D01*
X100309467Y-86964781D01*
X100214229Y-86964781D01*
X100071371Y-86917162D01*
X99976133Y-86821924D01*
X99928514Y-86726686D01*
X99880895Y-86536210D01*
X99880895Y-86393352D01*
X99928514Y-86202876D01*
X99976133Y-86107638D01*
X100071371Y-86012400D01*
X100214229Y-85964781D01*
X100309467Y-85964781D01*
X100452324Y-86012400D01*
X100499943Y-86060019D01*
X101357086Y-86298114D02*
X101357086Y-86964781D01*
X101118990Y-85917162D02*
X100880895Y-86631448D01*
X101499943Y-86631448D01*
X102071371Y-85964781D02*
X102166610Y-85964781D01*
X102261848Y-86012400D01*
X102309467Y-86060019D01*
X102357086Y-86155257D01*
X102404705Y-86345733D01*
X102404705Y-86583829D01*
X102357086Y-86774305D01*
X102309467Y-86869543D01*
X102261848Y-86917162D01*
X102166610Y-86964781D01*
X102071371Y-86964781D01*
X101976133Y-86917162D01*
X101928514Y-86869543D01*
X101880895Y-86774305D01*
X101833276Y-86583829D01*
X101833276Y-86345733D01*
X101880895Y-86155257D01*
X101928514Y-86060019D01*
X101976133Y-86012400D01*
X102071371Y-85964781D01*
X114114343Y-98451943D02*
X114066724Y-98499562D01*
X113923867Y-98547181D01*
X113828629Y-98547181D01*
X113685771Y-98499562D01*
X113590533Y-98404324D01*
X113542914Y-98309086D01*
X113495295Y-98118610D01*
X113495295Y-97975752D01*
X113542914Y-97785276D01*
X113590533Y-97690038D01*
X113685771Y-97594800D01*
X113828629Y-97547181D01*
X113923867Y-97547181D01*
X114066724Y-97594800D01*
X114114343Y-97642419D01*
X114971486Y-97880514D02*
X114971486Y-98547181D01*
X114733390Y-97499562D02*
X114495295Y-98213848D01*
X115114343Y-98213848D01*
X116019105Y-98547181D02*
X115447676Y-98547181D01*
X115733390Y-98547181D02*
X115733390Y-97547181D01*
X115638152Y-97690038D01*
X115542914Y-97785276D01*
X115447676Y-97832895D01*
X106087943Y-103379543D02*
X106040324Y-103427162D01*
X105897467Y-103474781D01*
X105802229Y-103474781D01*
X105659371Y-103427162D01*
X105564133Y-103331924D01*
X105516514Y-103236686D01*
X105468895Y-103046210D01*
X105468895Y-102903352D01*
X105516514Y-102712876D01*
X105564133Y-102617638D01*
X105659371Y-102522400D01*
X105802229Y-102474781D01*
X105897467Y-102474781D01*
X106040324Y-102522400D01*
X106087943Y-102570019D01*
X106945086Y-102808114D02*
X106945086Y-103474781D01*
X106706990Y-102427162D02*
X106468895Y-103141448D01*
X107087943Y-103141448D01*
X107421276Y-102570019D02*
X107468895Y-102522400D01*
X107564133Y-102474781D01*
X107802229Y-102474781D01*
X107897467Y-102522400D01*
X107945086Y-102570019D01*
X107992705Y-102665257D01*
X107992705Y-102760495D01*
X107945086Y-102903352D01*
X107373657Y-103474781D01*
X107992705Y-103474781D01*
X111980743Y-103176343D02*
X111933124Y-103223962D01*
X111790267Y-103271581D01*
X111695029Y-103271581D01*
X111552171Y-103223962D01*
X111456933Y-103128724D01*
X111409314Y-103033486D01*
X111361695Y-102843010D01*
X111361695Y-102700152D01*
X111409314Y-102509676D01*
X111456933Y-102414438D01*
X111552171Y-102319200D01*
X111695029Y-102271581D01*
X111790267Y-102271581D01*
X111933124Y-102319200D01*
X111980743Y-102366819D01*
X112837886Y-102604914D02*
X112837886Y-103271581D01*
X112599790Y-102223962D02*
X112361695Y-102938248D01*
X112980743Y-102938248D01*
X113266457Y-102271581D02*
X113885505Y-102271581D01*
X113552171Y-102652533D01*
X113695029Y-102652533D01*
X113790267Y-102700152D01*
X113837886Y-102747771D01*
X113885505Y-102843010D01*
X113885505Y-103081105D01*
X113837886Y-103176343D01*
X113790267Y-103223962D01*
X113695029Y-103271581D01*
X113409314Y-103271581D01*
X113314076Y-103223962D01*
X113266457Y-103176343D01*
X114114343Y-93016343D02*
X114066724Y-93063962D01*
X113923867Y-93111581D01*
X113828629Y-93111581D01*
X113685771Y-93063962D01*
X113590533Y-92968724D01*
X113542914Y-92873486D01*
X113495295Y-92683010D01*
X113495295Y-92540152D01*
X113542914Y-92349676D01*
X113590533Y-92254438D01*
X113685771Y-92159200D01*
X113828629Y-92111581D01*
X113923867Y-92111581D01*
X114066724Y-92159200D01*
X114114343Y-92206819D01*
X114971486Y-92444914D02*
X114971486Y-93111581D01*
X114733390Y-92063962D02*
X114495295Y-92778248D01*
X115114343Y-92778248D01*
X115923867Y-92444914D02*
X115923867Y-93111581D01*
X115685771Y-92063962D02*
X115447676Y-92778248D01*
X116066724Y-92778248D01*
X105275143Y-85751943D02*
X105227524Y-85799562D01*
X105084667Y-85847181D01*
X104989429Y-85847181D01*
X104846571Y-85799562D01*
X104751333Y-85704324D01*
X104703714Y-85609086D01*
X104656095Y-85418610D01*
X104656095Y-85275752D01*
X104703714Y-85085276D01*
X104751333Y-84990038D01*
X104846571Y-84894800D01*
X104989429Y-84847181D01*
X105084667Y-84847181D01*
X105227524Y-84894800D01*
X105275143Y-84942419D01*
X106132286Y-85180514D02*
X106132286Y-85847181D01*
X105894190Y-84799562D02*
X105656095Y-85513848D01*
X106275143Y-85513848D01*
X107132286Y-84847181D02*
X106656095Y-84847181D01*
X106608476Y-85323371D01*
X106656095Y-85275752D01*
X106751333Y-85228133D01*
X106989429Y-85228133D01*
X107084667Y-85275752D01*
X107132286Y-85323371D01*
X107179905Y-85418610D01*
X107179905Y-85656705D01*
X107132286Y-85751943D01*
X107084667Y-85799562D01*
X106989429Y-85847181D01*
X106751333Y-85847181D01*
X106656095Y-85799562D01*
X106608476Y-85751943D01*
X97858343Y-98401143D02*
X97810724Y-98448762D01*
X97667867Y-98496381D01*
X97572629Y-98496381D01*
X97429771Y-98448762D01*
X97334533Y-98353524D01*
X97286914Y-98258286D01*
X97239295Y-98067810D01*
X97239295Y-97924952D01*
X97286914Y-97734476D01*
X97334533Y-97639238D01*
X97429771Y-97544000D01*
X97572629Y-97496381D01*
X97667867Y-97496381D01*
X97810724Y-97544000D01*
X97858343Y-97591619D01*
X98715486Y-97829714D02*
X98715486Y-98496381D01*
X98477390Y-97448762D02*
X98239295Y-98163048D01*
X98858343Y-98163048D01*
X99667867Y-97496381D02*
X99477390Y-97496381D01*
X99382152Y-97544000D01*
X99334533Y-97591619D01*
X99239295Y-97734476D01*
X99191676Y-97924952D01*
X99191676Y-98305905D01*
X99239295Y-98401143D01*
X99286914Y-98448762D01*
X99382152Y-98496381D01*
X99572629Y-98496381D01*
X99667867Y-98448762D01*
X99715486Y-98401143D01*
X99763105Y-98305905D01*
X99763105Y-98067810D01*
X99715486Y-97972571D01*
X99667867Y-97924952D01*
X99572629Y-97877333D01*
X99382152Y-97877333D01*
X99286914Y-97924952D01*
X99239295Y-97972571D01*
X99191676Y-98067810D01*
X110085143Y-85174057D02*
X110132762Y-85221676D01*
X110180381Y-85364533D01*
X110180381Y-85459771D01*
X110132762Y-85602629D01*
X110037524Y-85697867D01*
X109942286Y-85745486D01*
X109751810Y-85793105D01*
X109608952Y-85793105D01*
X109418476Y-85745486D01*
X109323238Y-85697867D01*
X109228000Y-85602629D01*
X109180381Y-85459771D01*
X109180381Y-85364533D01*
X109228000Y-85221676D01*
X109275619Y-85174057D01*
X109513714Y-84316914D02*
X110180381Y-84316914D01*
X109132762Y-84555010D02*
X109847048Y-84793105D01*
X109847048Y-84174057D01*
X109180381Y-83888343D02*
X109180381Y-83221676D01*
X110180381Y-83650248D01*
X111456743Y-86088457D02*
X111504362Y-86136076D01*
X111551981Y-86278933D01*
X111551981Y-86374171D01*
X111504362Y-86517029D01*
X111409124Y-86612267D01*
X111313886Y-86659886D01*
X111123410Y-86707505D01*
X110980552Y-86707505D01*
X110790076Y-86659886D01*
X110694838Y-86612267D01*
X110599600Y-86517029D01*
X110551981Y-86374171D01*
X110551981Y-86278933D01*
X110599600Y-86136076D01*
X110647219Y-86088457D01*
X110885314Y-85231314D02*
X111551981Y-85231314D01*
X110504362Y-85469410D02*
X111218648Y-85707505D01*
X111218648Y-85088457D01*
X110980552Y-84564648D02*
X110932933Y-84659886D01*
X110885314Y-84707505D01*
X110790076Y-84755124D01*
X110742457Y-84755124D01*
X110647219Y-84707505D01*
X110599600Y-84659886D01*
X110551981Y-84564648D01*
X110551981Y-84374171D01*
X110599600Y-84278933D01*
X110647219Y-84231314D01*
X110742457Y-84183695D01*
X110790076Y-84183695D01*
X110885314Y-84231314D01*
X110932933Y-84278933D01*
X110980552Y-84374171D01*
X110980552Y-84564648D01*
X111028171Y-84659886D01*
X111075790Y-84707505D01*
X111171029Y-84755124D01*
X111361505Y-84755124D01*
X111456743Y-84707505D01*
X111504362Y-84659886D01*
X111551981Y-84564648D01*
X111551981Y-84374171D01*
X111504362Y-84278933D01*
X111456743Y-84231314D01*
X111361505Y-84183695D01*
X111171029Y-84183695D01*
X111075790Y-84231314D01*
X111028171Y-84278933D01*
X110980552Y-84374171D01*
X112980743Y-86120266D02*
X113028362Y-86167885D01*
X113075981Y-86310742D01*
X113075981Y-86405980D01*
X113028362Y-86548838D01*
X112933124Y-86644076D01*
X112837886Y-86691695D01*
X112647410Y-86739314D01*
X112504552Y-86739314D01*
X112314076Y-86691695D01*
X112218838Y-86644076D01*
X112123600Y-86548838D01*
X112075981Y-86405980D01*
X112075981Y-86310742D01*
X112123600Y-86167885D01*
X112171219Y-86120266D01*
X112409314Y-85263123D02*
X113075981Y-85263123D01*
X112028362Y-85501219D02*
X112742648Y-85739314D01*
X112742648Y-85120266D01*
X90765334Y-65313143D02*
X90717715Y-65360762D01*
X90574858Y-65408381D01*
X90479620Y-65408381D01*
X90336762Y-65360762D01*
X90241524Y-65265524D01*
X90193905Y-65170286D01*
X90146286Y-64979810D01*
X90146286Y-64836952D01*
X90193905Y-64646476D01*
X90241524Y-64551238D01*
X90336762Y-64456000D01*
X90479620Y-64408381D01*
X90574858Y-64408381D01*
X90717715Y-64456000D01*
X90765334Y-64503619D01*
X91098667Y-64408381D02*
X91765334Y-64408381D01*
X91336762Y-65408381D01*
X97350343Y-90323943D02*
X97302724Y-90371562D01*
X97159867Y-90419181D01*
X97064629Y-90419181D01*
X96921771Y-90371562D01*
X96826533Y-90276324D01*
X96778914Y-90181086D01*
X96731295Y-89990610D01*
X96731295Y-89847752D01*
X96778914Y-89657276D01*
X96826533Y-89562038D01*
X96921771Y-89466800D01*
X97064629Y-89419181D01*
X97159867Y-89419181D01*
X97302724Y-89466800D01*
X97350343Y-89514419D01*
X97683676Y-89419181D02*
X98302724Y-89419181D01*
X97969390Y-89800133D01*
X98112248Y-89800133D01*
X98207486Y-89847752D01*
X98255105Y-89895371D01*
X98302724Y-89990610D01*
X98302724Y-90228705D01*
X98255105Y-90323943D01*
X98207486Y-90371562D01*
X98112248Y-90419181D01*
X97826533Y-90419181D01*
X97731295Y-90371562D01*
X97683676Y-90323943D01*
X99159867Y-89752514D02*
X99159867Y-90419181D01*
X98921771Y-89371562D02*
X98683676Y-90085848D01*
X99302724Y-90085848D01*
X108456505Y-64155581D02*
X108456505Y-63155581D01*
X108694600Y-63155581D01*
X108837458Y-63203200D01*
X108932696Y-63298438D01*
X108980315Y-63393676D01*
X109027934Y-63584152D01*
X109027934Y-63727010D01*
X108980315Y-63917486D01*
X108932696Y-64012724D01*
X108837458Y-64107962D01*
X108694600Y-64155581D01*
X108456505Y-64155581D01*
X109408886Y-63250819D02*
X109456505Y-63203200D01*
X109551743Y-63155581D01*
X109789839Y-63155581D01*
X109885077Y-63203200D01*
X109932696Y-63250819D01*
X109980315Y-63346057D01*
X109980315Y-63441295D01*
X109932696Y-63584152D01*
X109361267Y-64155581D01*
X109980315Y-64155581D01*
X111955343Y-64104781D02*
X111622009Y-63628590D01*
X111383914Y-64104781D02*
X111383914Y-63104781D01*
X111764867Y-63104781D01*
X111860105Y-63152400D01*
X111907724Y-63200019D01*
X111955343Y-63295257D01*
X111955343Y-63438114D01*
X111907724Y-63533352D01*
X111860105Y-63580971D01*
X111764867Y-63628590D01*
X111383914Y-63628590D01*
X112907724Y-64104781D02*
X112336295Y-64104781D01*
X112622009Y-64104781D02*
X112622009Y-63104781D01*
X112526771Y-63247638D01*
X112431533Y-63342876D01*
X112336295Y-63390495D01*
X113860105Y-64104781D02*
X113288676Y-64104781D01*
X113574390Y-64104781D02*
X113574390Y-63104781D01*
X113479152Y-63247638D01*
X113383914Y-63342876D01*
X113288676Y-63390495D01*
M02*
