G04 #@! TF.FileFunction,Soldermask,Bot*
%FSLAX46Y46*%
G04 Gerber Fmt 4.6, Leading zero omitted, Abs format (unit mm)*
G04 Created by KiCad (PCBNEW 4.0.5+dfsg1-4~bpo8+1) date Sun Nov  3 08:51:25 2019*
%MOMM*%
%LPD*%
G01*
G04 APERTURE LIST*
%ADD10C,0.100000*%
%ADD11C,4.501600*%
%ADD12C,0.701600*%
%ADD13C,1.501600*%
%ADD14C,1.601600*%
%ADD15O,1.051600X1.351600*%
%ADD16O,1.651600X1.101600*%
%ADD17R,2.101600X2.701600*%
%ADD18O,2.101600X2.701600*%
%ADD19R,1.828800X1.828800*%
%ADD20O,1.828800X1.828800*%
G04 APERTURE END LIST*
D10*
D11*
X177800000Y-64770000D03*
D12*
X179450000Y-64770000D03*
X178966726Y-65936726D03*
X177800000Y-66420000D03*
X176633274Y-65936726D03*
X176150000Y-64770000D03*
X176633274Y-63603274D03*
X177800000Y-63120000D03*
X178966726Y-63603274D03*
D11*
X177800000Y-110617000D03*
D12*
X179450000Y-110617000D03*
X178966726Y-111783726D03*
X177800000Y-112267000D03*
X176633274Y-111783726D03*
X176150000Y-110617000D03*
X176633274Y-109450274D03*
X177800000Y-108967000D03*
X178966726Y-109450274D03*
D11*
X86360000Y-110617000D03*
D12*
X88010000Y-110617000D03*
X87526726Y-111783726D03*
X86360000Y-112267000D03*
X85193274Y-111783726D03*
X84710000Y-110617000D03*
X85193274Y-109450274D03*
X86360000Y-108967000D03*
X87526726Y-109450274D03*
D13*
X135178800Y-71259700D03*
X137718800Y-71259700D03*
D14*
X95351600Y-99364800D03*
X95707200Y-65786000D03*
X84785200Y-83972400D03*
X92252800Y-62992000D03*
X87934800Y-87376000D03*
X100584000Y-80772000D03*
X117221000Y-79222600D03*
X115316000Y-82296000D03*
X107543600Y-81838800D03*
X115417600Y-103835200D03*
X94488000Y-75692000D03*
D15*
X86995000Y-96937200D03*
X86995000Y-91937200D03*
D16*
X84295000Y-90937200D03*
X84295000Y-97937200D03*
D17*
X178511200Y-74447400D03*
D18*
X175971200Y-74447400D03*
X173431200Y-74447400D03*
D14*
X162306000Y-98044000D03*
X160020000Y-98044000D03*
D11*
X86360000Y-64770000D03*
D12*
X88010000Y-64770000D03*
X87526726Y-65936726D03*
X86360000Y-66420000D03*
X85193274Y-65936726D03*
X84710000Y-64770000D03*
X85193274Y-63603274D03*
X86360000Y-63120000D03*
X87526726Y-63603274D03*
D19*
X128270000Y-77470000D03*
D20*
X130810000Y-77470000D03*
X128270000Y-80010000D03*
X130810000Y-80010000D03*
X128270000Y-82550000D03*
X130810000Y-82550000D03*
X128270000Y-85090000D03*
X130810000Y-85090000D03*
X128270000Y-87630000D03*
X130810000Y-87630000D03*
X128270000Y-90170000D03*
X130810000Y-90170000D03*
X128270000Y-92710000D03*
X130810000Y-92710000D03*
X128270000Y-95250000D03*
X130810000Y-95250000D03*
X128270000Y-97790000D03*
X130810000Y-97790000D03*
X128270000Y-100330000D03*
X130810000Y-100330000D03*
X128270000Y-102870000D03*
X130810000Y-102870000D03*
X128270000Y-105410000D03*
X130810000Y-105410000D03*
X128270000Y-107950000D03*
X130810000Y-107950000D03*
X128270000Y-110490000D03*
X130810000Y-110490000D03*
M02*
