G04 #@! TF.FileFunction,Paste,Top*
%FSLAX46Y46*%
G04 Gerber Fmt 4.6, Leading zero omitted, Abs format (unit mm)*
G04 Created by KiCad (PCBNEW 4.0.7) date 12/01/19 13:00:30*
%MOMM*%
%LPD*%
G01*
G04 APERTURE LIST*
%ADD10C,0.100000*%
%ADD11R,1.219200X0.508000*%
%ADD12R,3.300000X3.300000*%
%ADD13R,0.300000X0.950000*%
%ADD14R,0.950000X0.300000*%
%ADD15R,0.750000X1.200000*%
%ADD16R,0.500000X0.600000*%
%ADD17R,1.500000X1.250000*%
%ADD18R,1.250000X1.500000*%
%ADD19R,0.600000X0.500000*%
%ADD20R,1.200000X0.750000*%
%ADD21R,1.200000X0.600000*%
%ADD22R,1.500000X1.300000*%
%ADD23R,1.200000X0.900000*%
%ADD24R,1.300000X1.500000*%
%ADD25R,0.558800X1.981200*%
%ADD26R,0.300000X1.200000*%
%ADD27R,1.200000X0.300000*%
%ADD28R,2.000000X0.600000*%
%ADD29R,0.810000X1.700000*%
%ADD30R,0.810000X0.960000*%
%ADD31R,1.500000X1.200000*%
%ADD32R,0.900000X1.200000*%
%ADD33R,0.900000X1.000000*%
%ADD34R,0.355600X1.168400*%
%ADD35R,1.168400X0.355600*%
%ADD36R,1.350000X0.400000*%
%ADD37R,1.000000X1.250000*%
%ADD38R,1.250000X1.000000*%
%ADD39R,1.200000X1.200000*%
%ADD40R,5.080000X2.413000*%
%ADD41R,2.283000X0.380000*%
%ADD42R,1.700000X0.810000*%
%ADD43R,0.960000X0.810000*%
G04 APERTURE END LIST*
D10*
D11*
X120980200Y-102092800D03*
X120980200Y-101142800D03*
X120980200Y-100192800D03*
X118694200Y-100192800D03*
X118694200Y-101142800D03*
X118694200Y-102092800D03*
D12*
X154940000Y-92710000D03*
D13*
X156340000Y-95130000D03*
X155840000Y-95130000D03*
X155340000Y-95130000D03*
X154840000Y-95130000D03*
X154340000Y-95130000D03*
X153840000Y-95130000D03*
X153340000Y-95130000D03*
X156440000Y-90330000D03*
X155940000Y-90330000D03*
X155440000Y-90330000D03*
X154940000Y-90330000D03*
X154440000Y-90330000D03*
X153940000Y-90330000D03*
X153440000Y-90330000D03*
D14*
X157320000Y-94210000D03*
X157320000Y-93710000D03*
X157320000Y-93210000D03*
X157320000Y-92710000D03*
X157320000Y-92210000D03*
X157320000Y-91710000D03*
X157320000Y-91210000D03*
X152560000Y-94210000D03*
X152560000Y-93710000D03*
X152560000Y-93210000D03*
X152560000Y-92710000D03*
X152560000Y-92210000D03*
X152560000Y-91710000D03*
X152560000Y-91210000D03*
D15*
X100076000Y-70546000D03*
X100076000Y-68646000D03*
D16*
X101600000Y-70654000D03*
X101600000Y-69554000D03*
D17*
X96855600Y-81991200D03*
X94355600Y-81991200D03*
D18*
X90424000Y-87356000D03*
X90424000Y-84856000D03*
D16*
X86868000Y-72178000D03*
X86868000Y-71078000D03*
D19*
X89721600Y-91135200D03*
X90821600Y-91135200D03*
X144014100Y-90030300D03*
X145114100Y-90030300D03*
D20*
X159070000Y-67056000D03*
X160970000Y-67056000D03*
D19*
X152061000Y-89281000D03*
X150961000Y-89281000D03*
X150537000Y-91694000D03*
X149437000Y-91694000D03*
D16*
X157353000Y-96478000D03*
X157353000Y-97578000D03*
D19*
X157946000Y-89027000D03*
X159046000Y-89027000D03*
D15*
X129540000Y-70932000D03*
X129540000Y-72832000D03*
D20*
X146751000Y-93268800D03*
X148651000Y-93268800D03*
D19*
X150791000Y-94488000D03*
X149691000Y-94488000D03*
X152061000Y-87503000D03*
X150961000Y-87503000D03*
D17*
X137267000Y-74930000D03*
X134767000Y-74930000D03*
D19*
X137608400Y-97840800D03*
X136508400Y-97840800D03*
X134789000Y-80010000D03*
X133689000Y-80010000D03*
D16*
X154813000Y-78401000D03*
X154813000Y-77301000D03*
X178358800Y-83295400D03*
X178358800Y-84395400D03*
D21*
X91026600Y-93080800D03*
X91026600Y-94030800D03*
X91026600Y-94980800D03*
X93326600Y-94980800D03*
X93326600Y-94030800D03*
X93326600Y-93080800D03*
D16*
X174117000Y-90280400D03*
X174117000Y-91380400D03*
D22*
X97710000Y-78232000D03*
X100410000Y-78232000D03*
D23*
X96654800Y-102463600D03*
X94454800Y-102463600D03*
D22*
X97710000Y-75692000D03*
X100410000Y-75692000D03*
X90191600Y-99364800D03*
X92891600Y-99364800D03*
D24*
X108712000Y-73834000D03*
X108712000Y-76534000D03*
D23*
X108628000Y-79248000D03*
X110828000Y-79248000D03*
D24*
X150571200Y-100460800D03*
X150571200Y-97760800D03*
D22*
X136478000Y-107950000D03*
X133778000Y-107950000D03*
X136478000Y-102997000D03*
X133778000Y-102997000D03*
X136478000Y-110490000D03*
X133778000Y-110490000D03*
D23*
X134917000Y-77470000D03*
X137117000Y-77470000D03*
D22*
X136478000Y-100330000D03*
X133778000Y-100330000D03*
X136478000Y-95250000D03*
X133778000Y-95250000D03*
X136478000Y-92710000D03*
X133778000Y-92710000D03*
X136478000Y-90170000D03*
X133778000Y-90170000D03*
X136478000Y-87630000D03*
X133778000Y-87630000D03*
D25*
X102743000Y-75006200D03*
X104013000Y-75006200D03*
X105283000Y-75006200D03*
X106553000Y-75006200D03*
X106553000Y-70281800D03*
X105283000Y-70281800D03*
X104013000Y-70281800D03*
X102743000Y-70281800D03*
D26*
X102777600Y-100644400D03*
D27*
X100777600Y-91144400D03*
X100777600Y-91644400D03*
X100777600Y-92144400D03*
X100777600Y-92644400D03*
X100777600Y-93144400D03*
X100777600Y-93644400D03*
X100777600Y-94144400D03*
X100777600Y-94644400D03*
X100777600Y-95144400D03*
X100777600Y-95644400D03*
X100777600Y-96144400D03*
X100777600Y-96644400D03*
X100777600Y-97144400D03*
X100777600Y-97644400D03*
X100777600Y-98144400D03*
X100777600Y-98644400D03*
D26*
X103277600Y-100644400D03*
X103777600Y-100644400D03*
X104277600Y-100644400D03*
X104777600Y-100644400D03*
X105277600Y-100644400D03*
X105777600Y-100644400D03*
X106277600Y-100644400D03*
X106777600Y-100644400D03*
X107277600Y-100644400D03*
X107777600Y-100644400D03*
X108277600Y-100644400D03*
X108777600Y-100644400D03*
X109277600Y-100644400D03*
X109777600Y-100644400D03*
X110277600Y-100644400D03*
D27*
X112277600Y-98644400D03*
X112277600Y-98144400D03*
X112277600Y-97644400D03*
X112277600Y-97144400D03*
X112277600Y-96644400D03*
X112277600Y-96144400D03*
X112277600Y-95644400D03*
X112277600Y-95144400D03*
X112277600Y-94644400D03*
X112277600Y-94144400D03*
X112277600Y-93644400D03*
X112277600Y-93144400D03*
X112277600Y-92644400D03*
X112277600Y-92144400D03*
X112277600Y-91644400D03*
X112277600Y-91144400D03*
D26*
X110277600Y-89144400D03*
X109777600Y-89144400D03*
X109277600Y-89144400D03*
X108777600Y-89144400D03*
X108277600Y-89144400D03*
X107777600Y-89144400D03*
X107277600Y-89144400D03*
X106777600Y-89144400D03*
X106277600Y-89144400D03*
X105777600Y-89144400D03*
X105277600Y-89144400D03*
X104777600Y-89144400D03*
X104277600Y-89144400D03*
X103777600Y-89144400D03*
X103277600Y-89144400D03*
X102777600Y-89144400D03*
D28*
X90056800Y-69062600D03*
X90056800Y-70332600D03*
X90056800Y-72872600D03*
X94956800Y-72872600D03*
X94956800Y-71602600D03*
X94956800Y-70332600D03*
X94956800Y-69062600D03*
X90056800Y-71602600D03*
D29*
X156083000Y-80899000D03*
D30*
X154893000Y-80529000D03*
X153703000Y-80529000D03*
X156083000Y-82759000D03*
X154893000Y-82759000D03*
X153703000Y-82759000D03*
D31*
X97028000Y-85039200D03*
X93228000Y-85039200D03*
X93228000Y-87239200D03*
X97028000Y-87239200D03*
D19*
X99457600Y-96621600D03*
X98357600Y-96621600D03*
X99457600Y-92659200D03*
X98357600Y-92659200D03*
X84235200Y-88849200D03*
X85335200Y-88849200D03*
D15*
X84836000Y-72578000D03*
X84836000Y-70678000D03*
D16*
X152908000Y-67649000D03*
X152908000Y-68749000D03*
X131445000Y-66125000D03*
X131445000Y-67225000D03*
D19*
X120539600Y-103632000D03*
X119439600Y-103632000D03*
D16*
X118567200Y-98746400D03*
X118567200Y-97646400D03*
D23*
X121988400Y-97790000D03*
X124188400Y-97790000D03*
D32*
X122732800Y-102242800D03*
X122732800Y-100042800D03*
D33*
X142151100Y-92062300D03*
X142151100Y-94462300D03*
X143951100Y-94462300D03*
X143951100Y-92062300D03*
D34*
X155835300Y-68764200D03*
X157130700Y-68764200D03*
X157143400Y-66833800D03*
X156483000Y-66833800D03*
X155822600Y-66833800D03*
D35*
X128835200Y-67430700D03*
X128835200Y-66135300D03*
X126904800Y-66122600D03*
X126904800Y-66783000D03*
X126904800Y-67443400D03*
D36*
X86995000Y-94437200D03*
X86995000Y-95087200D03*
X86995000Y-95737200D03*
X86995000Y-93787200D03*
X86995000Y-93137200D03*
D19*
X157946000Y-90297000D03*
X159046000Y-90297000D03*
D37*
X159274000Y-69088000D03*
X161274000Y-69088000D03*
D16*
X161163000Y-93557000D03*
X161163000Y-94657000D03*
D38*
X133210300Y-65675000D03*
X133210300Y-67675000D03*
D19*
X160062000Y-92202000D03*
X158962000Y-92202000D03*
D16*
X154940000Y-85894000D03*
X154940000Y-84794000D03*
X175971200Y-83295400D03*
X175971200Y-84395400D03*
D19*
X163745000Y-92202000D03*
X162645000Y-92202000D03*
D16*
X101854000Y-89043600D03*
X101854000Y-87943600D03*
D19*
X113597600Y-96621600D03*
X114697600Y-96621600D03*
D16*
X104495600Y-101964400D03*
X104495600Y-103064400D03*
X110083600Y-101964400D03*
X110083600Y-103064400D03*
D19*
X113597600Y-94132400D03*
X114697600Y-94132400D03*
D16*
X106781600Y-87824400D03*
X106781600Y-86724400D03*
D19*
X99457600Y-95148400D03*
X98357600Y-95148400D03*
D16*
X109728000Y-87824400D03*
X109728000Y-86724400D03*
X111150400Y-88789600D03*
X111150400Y-87689600D03*
X112522000Y-88789600D03*
X112522000Y-87689600D03*
D37*
X89932000Y-67056000D03*
X91932000Y-67056000D03*
D19*
X98594000Y-91440000D03*
X97494000Y-91440000D03*
D39*
X109829600Y-65675800D03*
X109829600Y-67775800D03*
X111963200Y-67750400D03*
X111963200Y-65650400D03*
D40*
X178993800Y-87947500D03*
X178993800Y-96456500D03*
D41*
X180390800Y-92202000D03*
D42*
X171881800Y-93395800D03*
D43*
X172251800Y-92205800D03*
X172251800Y-91015800D03*
X170021800Y-93395800D03*
X170021800Y-92205800D03*
X170021800Y-91015800D03*
M02*
