G04 #@! TF.GenerationSoftware,KiCad,Pcbnew,5.0.2-bee76a0~70~ubuntu18.04.1*
G04 #@! TF.CreationDate,2019-11-23T09:34:29-08:00*
G04 #@! TF.ProjectId,BaseBoard,42617365-426f-4617-9264-2e6b69636164,rev?*
G04 #@! TF.SameCoordinates,Original*
G04 #@! TF.FileFunction,Copper,L1,Top*
G04 #@! TF.FilePolarity,Positive*
%FSLAX46Y46*%
G04 Gerber Fmt 4.6, Leading zero omitted, Abs format (unit mm)*
G04 Created by KiCad (PCBNEW 5.0.2-bee76a0~70~ubuntu18.04.1) date Sat 23 Nov 2019 09:34:29 AM PST*
%MOMM*%
%LPD*%
G01*
G04 APERTURE LIST*
G04 #@! TA.AperFunction,NonConductor*
%ADD10C,0.150000*%
G04 #@! TD*
G04 #@! TA.AperFunction,ComponentPad*
%ADD11R,1.727200X1.727200*%
G04 #@! TD*
G04 #@! TA.AperFunction,ComponentPad*
%ADD12O,1.727200X1.727200*%
G04 #@! TD*
G04 #@! TA.AperFunction,ComponentPad*
%ADD13C,1.500000*%
G04 #@! TD*
G04 #@! TA.AperFunction,ComponentPad*
%ADD14C,4.400000*%
G04 #@! TD*
G04 #@! TA.AperFunction,ComponentPad*
%ADD15C,0.600000*%
G04 #@! TD*
G04 #@! TA.AperFunction,ComponentPad*
%ADD16R,1.700000X1.700000*%
G04 #@! TD*
G04 #@! TA.AperFunction,ComponentPad*
%ADD17O,1.700000X1.700000*%
G04 #@! TD*
G04 #@! TA.AperFunction,Conductor*
%ADD18C,0.100000*%
G04 #@! TD*
G04 #@! TA.AperFunction,SMDPad,CuDef*
%ADD19C,1.500000*%
G04 #@! TD*
G04 #@! TA.AperFunction,SMDPad,CuDef*
%ADD20C,1.230000*%
G04 #@! TD*
G04 #@! TA.AperFunction,Conductor*
%ADD21C,0.600000*%
G04 #@! TD*
G04 #@! TA.AperFunction,Conductor*
%ADD22C,1.016000*%
G04 #@! TD*
G04 #@! TA.AperFunction,Conductor*
%ADD23C,0.254000*%
G04 #@! TD*
G04 #@! TA.AperFunction,Conductor*
%ADD24C,0.400000*%
G04 #@! TD*
G04 #@! TA.AperFunction,Conductor*
%ADD25C,0.228600*%
G04 #@! TD*
G04 APERTURE END LIST*
D10*
X205750000Y-63750000D02*
X211000000Y-63750000D01*
X211000000Y-127750000D02*
X211000000Y-63750000D01*
X127750000Y-127750000D02*
X211000000Y-127750000D01*
X127750000Y-125000000D02*
X127750000Y-127750000D01*
X127750000Y-63750000D02*
X127750000Y-64000000D01*
X205750000Y-63750000D02*
X127750000Y-63750000D01*
X127750000Y-64000000D02*
X127750000Y-125000000D01*
D11*
G04 #@! TO.P,J7,1*
G04 #@! TO.N,Net-(J7-Pad1)*
X202750000Y-111750000D03*
D12*
G04 #@! TO.P,J7,2*
G04 #@! TO.N,GND*
X205290000Y-111750000D03*
G04 #@! TO.P,J7,3*
G04 #@! TO.N,Net-(J6-Pad18)*
X202750000Y-114290000D03*
G04 #@! TO.P,J7,4*
G04 #@! TO.N,Net-(J7-Pad4)*
X205290000Y-114290000D03*
G04 #@! TO.P,J7,5*
G04 #@! TO.N,Net-(J6-Pad20)*
X202750000Y-116830000D03*
G04 #@! TO.P,J7,6*
G04 #@! TO.N,Net-(J6-Pad16)*
X205290000Y-116830000D03*
G04 #@! TO.P,J7,7*
G04 #@! TO.N,Net-(J6-Pad19)*
X202750000Y-119370000D03*
G04 #@! TO.P,J7,8*
G04 #@! TO.N,Net-(J6-Pad17)*
X205290000Y-119370000D03*
G04 #@! TO.P,J7,9*
G04 #@! TO.N,Net-(J5-Pad1)*
X202750000Y-121910000D03*
G04 #@! TO.P,J7,10*
G04 #@! TO.N,GND*
X205290000Y-121910000D03*
G04 #@! TD*
D13*
G04 #@! TO.P,TP5,1*
G04 #@! TO.N,Net-(J2-Pad12)*
X136600000Y-106790000D03*
G04 #@! TD*
D14*
G04 #@! TO.P,REF\002A\002A,*
G04 #@! TO.N,*
X179530000Y-67300000D03*
D15*
X181180000Y-67300000D03*
X180696726Y-68466726D03*
X179530000Y-68950000D03*
X178363274Y-68466726D03*
X177880000Y-67300000D03*
X178363274Y-66133274D03*
X179530000Y-65650000D03*
X180696726Y-66133274D03*
G04 #@! TD*
D16*
G04 #@! TO.P,J1,1*
G04 #@! TO.N,/Sheet5DD758E7/+5V*
X130000000Y-80000000D03*
D17*
G04 #@! TO.P,J1,2*
X132540000Y-80000000D03*
G04 #@! TO.P,J1,3*
G04 #@! TO.N,GND*
X130000000Y-82540000D03*
G04 #@! TO.P,J1,4*
X132540000Y-82540000D03*
G04 #@! TO.P,J1,5*
G04 #@! TO.N,Net-(J1-Pad5)*
X130000000Y-85080000D03*
G04 #@! TO.P,J1,6*
G04 #@! TO.N,/Sheet5DD758E7/LD_GPS*
X132540000Y-85080000D03*
G04 #@! TO.P,J1,7*
G04 #@! TO.N,Net-(J1-Pad7)*
X130000000Y-87620000D03*
G04 #@! TO.P,J1,8*
G04 #@! TO.N,/Sheet5DD758E7/SHDN_GPS*
X132540000Y-87620000D03*
G04 #@! TO.P,J1,9*
G04 #@! TO.N,Net-(J1-Pad9)*
X130000000Y-90160000D03*
G04 #@! TO.P,J1,10*
G04 #@! TO.N,/Sheet5DD758E7/D0_GPS*
X132540000Y-90160000D03*
G04 #@! TO.P,J1,11*
G04 #@! TO.N,Net-(J1-Pad11)*
X130000000Y-92700000D03*
G04 #@! TO.P,J1,12*
G04 #@! TO.N,/Sheet5DD758E7/D1_GPS*
X132540000Y-92700000D03*
G04 #@! TO.P,J1,13*
G04 #@! TO.N,Net-(J1-Pad13)*
X130000000Y-95240000D03*
G04 #@! TO.P,J1,14*
G04 #@! TO.N,/Sheet5DD758E7/D2_GPS*
X132540000Y-95240000D03*
G04 #@! TO.P,J1,15*
G04 #@! TO.N,Net-(J1-Pad15)*
X130000000Y-97780000D03*
G04 #@! TO.P,J1,16*
G04 #@! TO.N,/Sheet5DD758E7/D3_GPS*
X132540000Y-97780000D03*
G04 #@! TO.P,J1,17*
G04 #@! TO.N,/Sheet5DD758E7/TXE#_USB*
X130000000Y-100320000D03*
G04 #@! TO.P,J1,18*
G04 #@! TO.N,Net-(J1-Pad18)*
X132540000Y-100320000D03*
G04 #@! TO.P,J1,19*
G04 #@! TO.N,Net-(J1-Pad19)*
X130000000Y-102860000D03*
G04 #@! TO.P,J1,20*
G04 #@! TO.N,/Sheet5DD758E7/WR#_GPS*
X132540000Y-102860000D03*
G04 #@! TO.P,J1,21*
G04 #@! TO.N,/Sheet5DD758E7/SCLK_USB*
X130000000Y-105400000D03*
G04 #@! TO.P,J1,22*
G04 #@! TO.N,/Sheet5DD758E7/SCLK_GPS*
X132540000Y-105400000D03*
G04 #@! TO.P,J1,23*
G04 #@! TO.N,/Sheet5DD758E7/SDI_USB*
X130000000Y-107940000D03*
G04 #@! TO.P,J1,24*
G04 #@! TO.N,Net-(J1-Pad24)*
X132540000Y-107940000D03*
G04 #@! TO.P,J1,25*
G04 #@! TO.N,/Sheet5DD758E7/SDO_USB*
X130000000Y-110480000D03*
G04 #@! TO.P,J1,26*
G04 #@! TO.N,/Sheet5DD758E7/SDO_GPS*
X132540000Y-110480000D03*
G04 #@! TO.P,J1,27*
G04 #@! TO.N,/Sheet5DD758E7/SCS_USB*
X130000000Y-113020000D03*
G04 #@! TO.P,J1,28*
G04 #@! TO.N,/Sheet5DD758E7/SCS_GPS*
X132540000Y-113020000D03*
G04 #@! TD*
D16*
G04 #@! TO.P,J2,1*
G04 #@! TO.N,GND*
X139090400Y-78689200D03*
D17*
G04 #@! TO.P,J2,2*
G04 #@! TO.N,/Sheet5DD758E7/LD_GPS*
X139090400Y-81229200D03*
G04 #@! TO.P,J2,3*
G04 #@! TO.N,/Sheet5DD758E7/SHDN_GPS*
X139090400Y-83769200D03*
G04 #@! TO.P,J2,4*
G04 #@! TO.N,/Sheet5DD758E7/D0_GPS*
X139090400Y-86309200D03*
G04 #@! TO.P,J2,5*
G04 #@! TO.N,/Sheet5DD758E7/D1_GPS*
X139090400Y-88849200D03*
G04 #@! TO.P,J2,6*
G04 #@! TO.N,/Sheet5DD758E7/D2_GPS*
X139090400Y-91389200D03*
G04 #@! TO.P,J2,7*
G04 #@! TO.N,/Sheet5DD758E7/D3_GPS*
X139090400Y-93929200D03*
G04 #@! TO.P,J2,8*
G04 #@! TO.N,Net-(J2-Pad8)*
X139090400Y-96469200D03*
G04 #@! TO.P,J2,9*
G04 #@! TO.N,Net-(J2-Pad9)*
X139090400Y-99009200D03*
G04 #@! TO.P,J2,10*
G04 #@! TO.N,/Sheet5DD758E7/TXE#_USB*
X139090400Y-101549200D03*
G04 #@! TO.P,J2,11*
G04 #@! TO.N,/Sheet5DD758E7/WR#_GPS*
X139090400Y-104089200D03*
G04 #@! TO.P,J2,12*
G04 #@! TO.N,Net-(J2-Pad12)*
X139090400Y-106629200D03*
G04 #@! TO.P,J2,13*
G04 #@! TO.N,/Sheet5DD758E7/SCLK_USB*
X139090400Y-109169200D03*
G04 #@! TO.P,J2,14*
G04 #@! TO.N,/Sheet5DD758E7/SDI_USB*
X139090400Y-111709200D03*
G04 #@! TO.P,J2,15*
G04 #@! TO.N,/Sheet5DD758E7/SDO_USB*
X139090400Y-114249200D03*
G04 #@! TO.P,J2,16*
G04 #@! TO.N,/Sheet5DD758E7/SCS_USB*
X139090400Y-116789200D03*
G04 #@! TD*
D18*
G04 #@! TO.N,Net-(J5-Pad1)*
G04 #@! TO.C,J5*
G36*
X189261756Y-118251806D02*
X189298159Y-118257206D01*
X189333857Y-118266147D01*
X189368506Y-118278545D01*
X189401774Y-118294280D01*
X189433339Y-118313199D01*
X189462897Y-118335121D01*
X189490165Y-118359835D01*
X189514879Y-118387103D01*
X189536801Y-118416661D01*
X189555720Y-118448226D01*
X189571455Y-118481494D01*
X189583853Y-118516143D01*
X189592794Y-118551841D01*
X189598194Y-118588244D01*
X189600000Y-118625000D01*
X189600000Y-120375000D01*
X189598194Y-120411756D01*
X189592794Y-120448159D01*
X189583853Y-120483857D01*
X189571455Y-120518506D01*
X189555720Y-120551774D01*
X189536801Y-120583339D01*
X189514879Y-120612897D01*
X189490165Y-120640165D01*
X189462897Y-120664879D01*
X189433339Y-120686801D01*
X189401774Y-120705720D01*
X189368506Y-120721455D01*
X189333857Y-120733853D01*
X189298159Y-120742794D01*
X189261756Y-120748194D01*
X189225000Y-120750000D01*
X188475000Y-120750000D01*
X188438244Y-120748194D01*
X188401841Y-120742794D01*
X188366143Y-120733853D01*
X188331494Y-120721455D01*
X188298226Y-120705720D01*
X188266661Y-120686801D01*
X188237103Y-120664879D01*
X188209835Y-120640165D01*
X188185121Y-120612897D01*
X188163199Y-120583339D01*
X188144280Y-120551774D01*
X188128545Y-120518506D01*
X188116147Y-120483857D01*
X188107206Y-120448159D01*
X188101806Y-120411756D01*
X188100000Y-120375000D01*
X188100000Y-118625000D01*
X188101806Y-118588244D01*
X188107206Y-118551841D01*
X188116147Y-118516143D01*
X188128545Y-118481494D01*
X188144280Y-118448226D01*
X188163199Y-118416661D01*
X188185121Y-118387103D01*
X188209835Y-118359835D01*
X188237103Y-118335121D01*
X188266661Y-118313199D01*
X188298226Y-118294280D01*
X188331494Y-118278545D01*
X188366143Y-118266147D01*
X188401841Y-118257206D01*
X188438244Y-118251806D01*
X188475000Y-118250000D01*
X189225000Y-118250000D01*
X189261756Y-118251806D01*
X189261756Y-118251806D01*
G37*
D19*
G04 #@! TD*
G04 #@! TO.P,J5,1*
G04 #@! TO.N,Net-(J5-Pad1)*
X188850000Y-119500000D03*
D18*
G04 #@! TO.N,Net-(J5-Pad2)*
G04 #@! TO.C,J5*
G36*
X187261756Y-118251806D02*
X187298159Y-118257206D01*
X187333857Y-118266147D01*
X187368506Y-118278545D01*
X187401774Y-118294280D01*
X187433339Y-118313199D01*
X187462897Y-118335121D01*
X187490165Y-118359835D01*
X187514879Y-118387103D01*
X187536801Y-118416661D01*
X187555720Y-118448226D01*
X187571455Y-118481494D01*
X187583853Y-118516143D01*
X187592794Y-118551841D01*
X187598194Y-118588244D01*
X187600000Y-118625000D01*
X187600000Y-120375000D01*
X187598194Y-120411756D01*
X187592794Y-120448159D01*
X187583853Y-120483857D01*
X187571455Y-120518506D01*
X187555720Y-120551774D01*
X187536801Y-120583339D01*
X187514879Y-120612897D01*
X187490165Y-120640165D01*
X187462897Y-120664879D01*
X187433339Y-120686801D01*
X187401774Y-120705720D01*
X187368506Y-120721455D01*
X187333857Y-120733853D01*
X187298159Y-120742794D01*
X187261756Y-120748194D01*
X187225000Y-120750000D01*
X186475000Y-120750000D01*
X186438244Y-120748194D01*
X186401841Y-120742794D01*
X186366143Y-120733853D01*
X186331494Y-120721455D01*
X186298226Y-120705720D01*
X186266661Y-120686801D01*
X186237103Y-120664879D01*
X186209835Y-120640165D01*
X186185121Y-120612897D01*
X186163199Y-120583339D01*
X186144280Y-120551774D01*
X186128545Y-120518506D01*
X186116147Y-120483857D01*
X186107206Y-120448159D01*
X186101806Y-120411756D01*
X186100000Y-120375000D01*
X186100000Y-118625000D01*
X186101806Y-118588244D01*
X186107206Y-118551841D01*
X186116147Y-118516143D01*
X186128545Y-118481494D01*
X186144280Y-118448226D01*
X186163199Y-118416661D01*
X186185121Y-118387103D01*
X186209835Y-118359835D01*
X186237103Y-118335121D01*
X186266661Y-118313199D01*
X186298226Y-118294280D01*
X186331494Y-118278545D01*
X186366143Y-118266147D01*
X186401841Y-118257206D01*
X186438244Y-118251806D01*
X186475000Y-118250000D01*
X187225000Y-118250000D01*
X187261756Y-118251806D01*
X187261756Y-118251806D01*
G37*
D19*
G04 #@! TD*
G04 #@! TO.P,J5,2*
G04 #@! TO.N,Net-(J5-Pad2)*
X186850000Y-119500000D03*
D18*
G04 #@! TO.N,Net-(J5-Pad3)*
G04 #@! TO.C,J5*
G36*
X185261756Y-118251806D02*
X185298159Y-118257206D01*
X185333857Y-118266147D01*
X185368506Y-118278545D01*
X185401774Y-118294280D01*
X185433339Y-118313199D01*
X185462897Y-118335121D01*
X185490165Y-118359835D01*
X185514879Y-118387103D01*
X185536801Y-118416661D01*
X185555720Y-118448226D01*
X185571455Y-118481494D01*
X185583853Y-118516143D01*
X185592794Y-118551841D01*
X185598194Y-118588244D01*
X185600000Y-118625000D01*
X185600000Y-120375000D01*
X185598194Y-120411756D01*
X185592794Y-120448159D01*
X185583853Y-120483857D01*
X185571455Y-120518506D01*
X185555720Y-120551774D01*
X185536801Y-120583339D01*
X185514879Y-120612897D01*
X185490165Y-120640165D01*
X185462897Y-120664879D01*
X185433339Y-120686801D01*
X185401774Y-120705720D01*
X185368506Y-120721455D01*
X185333857Y-120733853D01*
X185298159Y-120742794D01*
X185261756Y-120748194D01*
X185225000Y-120750000D01*
X184475000Y-120750000D01*
X184438244Y-120748194D01*
X184401841Y-120742794D01*
X184366143Y-120733853D01*
X184331494Y-120721455D01*
X184298226Y-120705720D01*
X184266661Y-120686801D01*
X184237103Y-120664879D01*
X184209835Y-120640165D01*
X184185121Y-120612897D01*
X184163199Y-120583339D01*
X184144280Y-120551774D01*
X184128545Y-120518506D01*
X184116147Y-120483857D01*
X184107206Y-120448159D01*
X184101806Y-120411756D01*
X184100000Y-120375000D01*
X184100000Y-118625000D01*
X184101806Y-118588244D01*
X184107206Y-118551841D01*
X184116147Y-118516143D01*
X184128545Y-118481494D01*
X184144280Y-118448226D01*
X184163199Y-118416661D01*
X184185121Y-118387103D01*
X184209835Y-118359835D01*
X184237103Y-118335121D01*
X184266661Y-118313199D01*
X184298226Y-118294280D01*
X184331494Y-118278545D01*
X184366143Y-118266147D01*
X184401841Y-118257206D01*
X184438244Y-118251806D01*
X184475000Y-118250000D01*
X185225000Y-118250000D01*
X185261756Y-118251806D01*
X185261756Y-118251806D01*
G37*
D19*
G04 #@! TD*
G04 #@! TO.P,J5,3*
G04 #@! TO.N,Net-(J5-Pad3)*
X184850000Y-119500000D03*
D18*
G04 #@! TO.N,Net-(J5-Pad4)*
G04 #@! TO.C,J5*
G36*
X183261756Y-118251806D02*
X183298159Y-118257206D01*
X183333857Y-118266147D01*
X183368506Y-118278545D01*
X183401774Y-118294280D01*
X183433339Y-118313199D01*
X183462897Y-118335121D01*
X183490165Y-118359835D01*
X183514879Y-118387103D01*
X183536801Y-118416661D01*
X183555720Y-118448226D01*
X183571455Y-118481494D01*
X183583853Y-118516143D01*
X183592794Y-118551841D01*
X183598194Y-118588244D01*
X183600000Y-118625000D01*
X183600000Y-120375000D01*
X183598194Y-120411756D01*
X183592794Y-120448159D01*
X183583853Y-120483857D01*
X183571455Y-120518506D01*
X183555720Y-120551774D01*
X183536801Y-120583339D01*
X183514879Y-120612897D01*
X183490165Y-120640165D01*
X183462897Y-120664879D01*
X183433339Y-120686801D01*
X183401774Y-120705720D01*
X183368506Y-120721455D01*
X183333857Y-120733853D01*
X183298159Y-120742794D01*
X183261756Y-120748194D01*
X183225000Y-120750000D01*
X182475000Y-120750000D01*
X182438244Y-120748194D01*
X182401841Y-120742794D01*
X182366143Y-120733853D01*
X182331494Y-120721455D01*
X182298226Y-120705720D01*
X182266661Y-120686801D01*
X182237103Y-120664879D01*
X182209835Y-120640165D01*
X182185121Y-120612897D01*
X182163199Y-120583339D01*
X182144280Y-120551774D01*
X182128545Y-120518506D01*
X182116147Y-120483857D01*
X182107206Y-120448159D01*
X182101806Y-120411756D01*
X182100000Y-120375000D01*
X182100000Y-118625000D01*
X182101806Y-118588244D01*
X182107206Y-118551841D01*
X182116147Y-118516143D01*
X182128545Y-118481494D01*
X182144280Y-118448226D01*
X182163199Y-118416661D01*
X182185121Y-118387103D01*
X182209835Y-118359835D01*
X182237103Y-118335121D01*
X182266661Y-118313199D01*
X182298226Y-118294280D01*
X182331494Y-118278545D01*
X182366143Y-118266147D01*
X182401841Y-118257206D01*
X182438244Y-118251806D01*
X182475000Y-118250000D01*
X183225000Y-118250000D01*
X183261756Y-118251806D01*
X183261756Y-118251806D01*
G37*
D19*
G04 #@! TD*
G04 #@! TO.P,J5,4*
G04 #@! TO.N,Net-(J5-Pad4)*
X182850000Y-119500000D03*
D18*
G04 #@! TO.N,Net-(J5-Pad5)*
G04 #@! TO.C,J5*
G36*
X181261756Y-118251806D02*
X181298159Y-118257206D01*
X181333857Y-118266147D01*
X181368506Y-118278545D01*
X181401774Y-118294280D01*
X181433339Y-118313199D01*
X181462897Y-118335121D01*
X181490165Y-118359835D01*
X181514879Y-118387103D01*
X181536801Y-118416661D01*
X181555720Y-118448226D01*
X181571455Y-118481494D01*
X181583853Y-118516143D01*
X181592794Y-118551841D01*
X181598194Y-118588244D01*
X181600000Y-118625000D01*
X181600000Y-120375000D01*
X181598194Y-120411756D01*
X181592794Y-120448159D01*
X181583853Y-120483857D01*
X181571455Y-120518506D01*
X181555720Y-120551774D01*
X181536801Y-120583339D01*
X181514879Y-120612897D01*
X181490165Y-120640165D01*
X181462897Y-120664879D01*
X181433339Y-120686801D01*
X181401774Y-120705720D01*
X181368506Y-120721455D01*
X181333857Y-120733853D01*
X181298159Y-120742794D01*
X181261756Y-120748194D01*
X181225000Y-120750000D01*
X180475000Y-120750000D01*
X180438244Y-120748194D01*
X180401841Y-120742794D01*
X180366143Y-120733853D01*
X180331494Y-120721455D01*
X180298226Y-120705720D01*
X180266661Y-120686801D01*
X180237103Y-120664879D01*
X180209835Y-120640165D01*
X180185121Y-120612897D01*
X180163199Y-120583339D01*
X180144280Y-120551774D01*
X180128545Y-120518506D01*
X180116147Y-120483857D01*
X180107206Y-120448159D01*
X180101806Y-120411756D01*
X180100000Y-120375000D01*
X180100000Y-118625000D01*
X180101806Y-118588244D01*
X180107206Y-118551841D01*
X180116147Y-118516143D01*
X180128545Y-118481494D01*
X180144280Y-118448226D01*
X180163199Y-118416661D01*
X180185121Y-118387103D01*
X180209835Y-118359835D01*
X180237103Y-118335121D01*
X180266661Y-118313199D01*
X180298226Y-118294280D01*
X180331494Y-118278545D01*
X180366143Y-118266147D01*
X180401841Y-118257206D01*
X180438244Y-118251806D01*
X180475000Y-118250000D01*
X181225000Y-118250000D01*
X181261756Y-118251806D01*
X181261756Y-118251806D01*
G37*
D19*
G04 #@! TD*
G04 #@! TO.P,J5,5*
G04 #@! TO.N,Net-(J5-Pad5)*
X180850000Y-119500000D03*
D18*
G04 #@! TO.N,Net-(J5-Pad6)*
G04 #@! TO.C,J5*
G36*
X179261756Y-118251806D02*
X179298159Y-118257206D01*
X179333857Y-118266147D01*
X179368506Y-118278545D01*
X179401774Y-118294280D01*
X179433339Y-118313199D01*
X179462897Y-118335121D01*
X179490165Y-118359835D01*
X179514879Y-118387103D01*
X179536801Y-118416661D01*
X179555720Y-118448226D01*
X179571455Y-118481494D01*
X179583853Y-118516143D01*
X179592794Y-118551841D01*
X179598194Y-118588244D01*
X179600000Y-118625000D01*
X179600000Y-120375000D01*
X179598194Y-120411756D01*
X179592794Y-120448159D01*
X179583853Y-120483857D01*
X179571455Y-120518506D01*
X179555720Y-120551774D01*
X179536801Y-120583339D01*
X179514879Y-120612897D01*
X179490165Y-120640165D01*
X179462897Y-120664879D01*
X179433339Y-120686801D01*
X179401774Y-120705720D01*
X179368506Y-120721455D01*
X179333857Y-120733853D01*
X179298159Y-120742794D01*
X179261756Y-120748194D01*
X179225000Y-120750000D01*
X178475000Y-120750000D01*
X178438244Y-120748194D01*
X178401841Y-120742794D01*
X178366143Y-120733853D01*
X178331494Y-120721455D01*
X178298226Y-120705720D01*
X178266661Y-120686801D01*
X178237103Y-120664879D01*
X178209835Y-120640165D01*
X178185121Y-120612897D01*
X178163199Y-120583339D01*
X178144280Y-120551774D01*
X178128545Y-120518506D01*
X178116147Y-120483857D01*
X178107206Y-120448159D01*
X178101806Y-120411756D01*
X178100000Y-120375000D01*
X178100000Y-118625000D01*
X178101806Y-118588244D01*
X178107206Y-118551841D01*
X178116147Y-118516143D01*
X178128545Y-118481494D01*
X178144280Y-118448226D01*
X178163199Y-118416661D01*
X178185121Y-118387103D01*
X178209835Y-118359835D01*
X178237103Y-118335121D01*
X178266661Y-118313199D01*
X178298226Y-118294280D01*
X178331494Y-118278545D01*
X178366143Y-118266147D01*
X178401841Y-118257206D01*
X178438244Y-118251806D01*
X178475000Y-118250000D01*
X179225000Y-118250000D01*
X179261756Y-118251806D01*
X179261756Y-118251806D01*
G37*
D19*
G04 #@! TD*
G04 #@! TO.P,J5,6*
G04 #@! TO.N,Net-(J5-Pad6)*
X178850000Y-119500000D03*
D18*
G04 #@! TO.N,Net-(J5-Pad7)*
G04 #@! TO.C,J5*
G36*
X177261756Y-118251806D02*
X177298159Y-118257206D01*
X177333857Y-118266147D01*
X177368506Y-118278545D01*
X177401774Y-118294280D01*
X177433339Y-118313199D01*
X177462897Y-118335121D01*
X177490165Y-118359835D01*
X177514879Y-118387103D01*
X177536801Y-118416661D01*
X177555720Y-118448226D01*
X177571455Y-118481494D01*
X177583853Y-118516143D01*
X177592794Y-118551841D01*
X177598194Y-118588244D01*
X177600000Y-118625000D01*
X177600000Y-120375000D01*
X177598194Y-120411756D01*
X177592794Y-120448159D01*
X177583853Y-120483857D01*
X177571455Y-120518506D01*
X177555720Y-120551774D01*
X177536801Y-120583339D01*
X177514879Y-120612897D01*
X177490165Y-120640165D01*
X177462897Y-120664879D01*
X177433339Y-120686801D01*
X177401774Y-120705720D01*
X177368506Y-120721455D01*
X177333857Y-120733853D01*
X177298159Y-120742794D01*
X177261756Y-120748194D01*
X177225000Y-120750000D01*
X176475000Y-120750000D01*
X176438244Y-120748194D01*
X176401841Y-120742794D01*
X176366143Y-120733853D01*
X176331494Y-120721455D01*
X176298226Y-120705720D01*
X176266661Y-120686801D01*
X176237103Y-120664879D01*
X176209835Y-120640165D01*
X176185121Y-120612897D01*
X176163199Y-120583339D01*
X176144280Y-120551774D01*
X176128545Y-120518506D01*
X176116147Y-120483857D01*
X176107206Y-120448159D01*
X176101806Y-120411756D01*
X176100000Y-120375000D01*
X176100000Y-118625000D01*
X176101806Y-118588244D01*
X176107206Y-118551841D01*
X176116147Y-118516143D01*
X176128545Y-118481494D01*
X176144280Y-118448226D01*
X176163199Y-118416661D01*
X176185121Y-118387103D01*
X176209835Y-118359835D01*
X176237103Y-118335121D01*
X176266661Y-118313199D01*
X176298226Y-118294280D01*
X176331494Y-118278545D01*
X176366143Y-118266147D01*
X176401841Y-118257206D01*
X176438244Y-118251806D01*
X176475000Y-118250000D01*
X177225000Y-118250000D01*
X177261756Y-118251806D01*
X177261756Y-118251806D01*
G37*
D19*
G04 #@! TD*
G04 #@! TO.P,J5,7*
G04 #@! TO.N,Net-(J5-Pad7)*
X176850000Y-119500000D03*
D18*
G04 #@! TO.N,Net-(J5-Pad8)*
G04 #@! TO.C,J5*
G36*
X175261756Y-118251806D02*
X175298159Y-118257206D01*
X175333857Y-118266147D01*
X175368506Y-118278545D01*
X175401774Y-118294280D01*
X175433339Y-118313199D01*
X175462897Y-118335121D01*
X175490165Y-118359835D01*
X175514879Y-118387103D01*
X175536801Y-118416661D01*
X175555720Y-118448226D01*
X175571455Y-118481494D01*
X175583853Y-118516143D01*
X175592794Y-118551841D01*
X175598194Y-118588244D01*
X175600000Y-118625000D01*
X175600000Y-120375000D01*
X175598194Y-120411756D01*
X175592794Y-120448159D01*
X175583853Y-120483857D01*
X175571455Y-120518506D01*
X175555720Y-120551774D01*
X175536801Y-120583339D01*
X175514879Y-120612897D01*
X175490165Y-120640165D01*
X175462897Y-120664879D01*
X175433339Y-120686801D01*
X175401774Y-120705720D01*
X175368506Y-120721455D01*
X175333857Y-120733853D01*
X175298159Y-120742794D01*
X175261756Y-120748194D01*
X175225000Y-120750000D01*
X174475000Y-120750000D01*
X174438244Y-120748194D01*
X174401841Y-120742794D01*
X174366143Y-120733853D01*
X174331494Y-120721455D01*
X174298226Y-120705720D01*
X174266661Y-120686801D01*
X174237103Y-120664879D01*
X174209835Y-120640165D01*
X174185121Y-120612897D01*
X174163199Y-120583339D01*
X174144280Y-120551774D01*
X174128545Y-120518506D01*
X174116147Y-120483857D01*
X174107206Y-120448159D01*
X174101806Y-120411756D01*
X174100000Y-120375000D01*
X174100000Y-118625000D01*
X174101806Y-118588244D01*
X174107206Y-118551841D01*
X174116147Y-118516143D01*
X174128545Y-118481494D01*
X174144280Y-118448226D01*
X174163199Y-118416661D01*
X174185121Y-118387103D01*
X174209835Y-118359835D01*
X174237103Y-118335121D01*
X174266661Y-118313199D01*
X174298226Y-118294280D01*
X174331494Y-118278545D01*
X174366143Y-118266147D01*
X174401841Y-118257206D01*
X174438244Y-118251806D01*
X174475000Y-118250000D01*
X175225000Y-118250000D01*
X175261756Y-118251806D01*
X175261756Y-118251806D01*
G37*
D19*
G04 #@! TD*
G04 #@! TO.P,J5,8*
G04 #@! TO.N,Net-(J5-Pad8)*
X174850000Y-119500000D03*
D18*
G04 #@! TO.N,GND*
G04 #@! TO.C,J5*
G36*
X173261756Y-118251806D02*
X173298159Y-118257206D01*
X173333857Y-118266147D01*
X173368506Y-118278545D01*
X173401774Y-118294280D01*
X173433339Y-118313199D01*
X173462897Y-118335121D01*
X173490165Y-118359835D01*
X173514879Y-118387103D01*
X173536801Y-118416661D01*
X173555720Y-118448226D01*
X173571455Y-118481494D01*
X173583853Y-118516143D01*
X173592794Y-118551841D01*
X173598194Y-118588244D01*
X173600000Y-118625000D01*
X173600000Y-120375000D01*
X173598194Y-120411756D01*
X173592794Y-120448159D01*
X173583853Y-120483857D01*
X173571455Y-120518506D01*
X173555720Y-120551774D01*
X173536801Y-120583339D01*
X173514879Y-120612897D01*
X173490165Y-120640165D01*
X173462897Y-120664879D01*
X173433339Y-120686801D01*
X173401774Y-120705720D01*
X173368506Y-120721455D01*
X173333857Y-120733853D01*
X173298159Y-120742794D01*
X173261756Y-120748194D01*
X173225000Y-120750000D01*
X172475000Y-120750000D01*
X172438244Y-120748194D01*
X172401841Y-120742794D01*
X172366143Y-120733853D01*
X172331494Y-120721455D01*
X172298226Y-120705720D01*
X172266661Y-120686801D01*
X172237103Y-120664879D01*
X172209835Y-120640165D01*
X172185121Y-120612897D01*
X172163199Y-120583339D01*
X172144280Y-120551774D01*
X172128545Y-120518506D01*
X172116147Y-120483857D01*
X172107206Y-120448159D01*
X172101806Y-120411756D01*
X172100000Y-120375000D01*
X172100000Y-118625000D01*
X172101806Y-118588244D01*
X172107206Y-118551841D01*
X172116147Y-118516143D01*
X172128545Y-118481494D01*
X172144280Y-118448226D01*
X172163199Y-118416661D01*
X172185121Y-118387103D01*
X172209835Y-118359835D01*
X172237103Y-118335121D01*
X172266661Y-118313199D01*
X172298226Y-118294280D01*
X172331494Y-118278545D01*
X172366143Y-118266147D01*
X172401841Y-118257206D01*
X172438244Y-118251806D01*
X172475000Y-118250000D01*
X173225000Y-118250000D01*
X173261756Y-118251806D01*
X173261756Y-118251806D01*
G37*
D19*
G04 #@! TD*
G04 #@! TO.P,J5,9*
G04 #@! TO.N,GND*
X172850000Y-119500000D03*
D18*
G04 #@! TO.N,Net-(J5-Pad10)*
G04 #@! TO.C,J5*
G36*
X171261756Y-118251806D02*
X171298159Y-118257206D01*
X171333857Y-118266147D01*
X171368506Y-118278545D01*
X171401774Y-118294280D01*
X171433339Y-118313199D01*
X171462897Y-118335121D01*
X171490165Y-118359835D01*
X171514879Y-118387103D01*
X171536801Y-118416661D01*
X171555720Y-118448226D01*
X171571455Y-118481494D01*
X171583853Y-118516143D01*
X171592794Y-118551841D01*
X171598194Y-118588244D01*
X171600000Y-118625000D01*
X171600000Y-120375000D01*
X171598194Y-120411756D01*
X171592794Y-120448159D01*
X171583853Y-120483857D01*
X171571455Y-120518506D01*
X171555720Y-120551774D01*
X171536801Y-120583339D01*
X171514879Y-120612897D01*
X171490165Y-120640165D01*
X171462897Y-120664879D01*
X171433339Y-120686801D01*
X171401774Y-120705720D01*
X171368506Y-120721455D01*
X171333857Y-120733853D01*
X171298159Y-120742794D01*
X171261756Y-120748194D01*
X171225000Y-120750000D01*
X170475000Y-120750000D01*
X170438244Y-120748194D01*
X170401841Y-120742794D01*
X170366143Y-120733853D01*
X170331494Y-120721455D01*
X170298226Y-120705720D01*
X170266661Y-120686801D01*
X170237103Y-120664879D01*
X170209835Y-120640165D01*
X170185121Y-120612897D01*
X170163199Y-120583339D01*
X170144280Y-120551774D01*
X170128545Y-120518506D01*
X170116147Y-120483857D01*
X170107206Y-120448159D01*
X170101806Y-120411756D01*
X170100000Y-120375000D01*
X170100000Y-118625000D01*
X170101806Y-118588244D01*
X170107206Y-118551841D01*
X170116147Y-118516143D01*
X170128545Y-118481494D01*
X170144280Y-118448226D01*
X170163199Y-118416661D01*
X170185121Y-118387103D01*
X170209835Y-118359835D01*
X170237103Y-118335121D01*
X170266661Y-118313199D01*
X170298226Y-118294280D01*
X170331494Y-118278545D01*
X170366143Y-118266147D01*
X170401841Y-118257206D01*
X170438244Y-118251806D01*
X170475000Y-118250000D01*
X171225000Y-118250000D01*
X171261756Y-118251806D01*
X171261756Y-118251806D01*
G37*
D19*
G04 #@! TD*
G04 #@! TO.P,J5,10*
G04 #@! TO.N,Net-(J5-Pad10)*
X170850000Y-119500000D03*
D18*
G04 #@! TO.N,Net-(J5-Pad11)*
G04 #@! TO.C,J5*
G36*
X169261756Y-118251806D02*
X169298159Y-118257206D01*
X169333857Y-118266147D01*
X169368506Y-118278545D01*
X169401774Y-118294280D01*
X169433339Y-118313199D01*
X169462897Y-118335121D01*
X169490165Y-118359835D01*
X169514879Y-118387103D01*
X169536801Y-118416661D01*
X169555720Y-118448226D01*
X169571455Y-118481494D01*
X169583853Y-118516143D01*
X169592794Y-118551841D01*
X169598194Y-118588244D01*
X169600000Y-118625000D01*
X169600000Y-120375000D01*
X169598194Y-120411756D01*
X169592794Y-120448159D01*
X169583853Y-120483857D01*
X169571455Y-120518506D01*
X169555720Y-120551774D01*
X169536801Y-120583339D01*
X169514879Y-120612897D01*
X169490165Y-120640165D01*
X169462897Y-120664879D01*
X169433339Y-120686801D01*
X169401774Y-120705720D01*
X169368506Y-120721455D01*
X169333857Y-120733853D01*
X169298159Y-120742794D01*
X169261756Y-120748194D01*
X169225000Y-120750000D01*
X168475000Y-120750000D01*
X168438244Y-120748194D01*
X168401841Y-120742794D01*
X168366143Y-120733853D01*
X168331494Y-120721455D01*
X168298226Y-120705720D01*
X168266661Y-120686801D01*
X168237103Y-120664879D01*
X168209835Y-120640165D01*
X168185121Y-120612897D01*
X168163199Y-120583339D01*
X168144280Y-120551774D01*
X168128545Y-120518506D01*
X168116147Y-120483857D01*
X168107206Y-120448159D01*
X168101806Y-120411756D01*
X168100000Y-120375000D01*
X168100000Y-118625000D01*
X168101806Y-118588244D01*
X168107206Y-118551841D01*
X168116147Y-118516143D01*
X168128545Y-118481494D01*
X168144280Y-118448226D01*
X168163199Y-118416661D01*
X168185121Y-118387103D01*
X168209835Y-118359835D01*
X168237103Y-118335121D01*
X168266661Y-118313199D01*
X168298226Y-118294280D01*
X168331494Y-118278545D01*
X168366143Y-118266147D01*
X168401841Y-118257206D01*
X168438244Y-118251806D01*
X168475000Y-118250000D01*
X169225000Y-118250000D01*
X169261756Y-118251806D01*
X169261756Y-118251806D01*
G37*
D19*
G04 #@! TD*
G04 #@! TO.P,J5,11*
G04 #@! TO.N,Net-(J5-Pad11)*
X168850000Y-119500000D03*
D18*
G04 #@! TO.N,Net-(J5-Pad12)*
G04 #@! TO.C,J5*
G36*
X167261756Y-118251806D02*
X167298159Y-118257206D01*
X167333857Y-118266147D01*
X167368506Y-118278545D01*
X167401774Y-118294280D01*
X167433339Y-118313199D01*
X167462897Y-118335121D01*
X167490165Y-118359835D01*
X167514879Y-118387103D01*
X167536801Y-118416661D01*
X167555720Y-118448226D01*
X167571455Y-118481494D01*
X167583853Y-118516143D01*
X167592794Y-118551841D01*
X167598194Y-118588244D01*
X167600000Y-118625000D01*
X167600000Y-120375000D01*
X167598194Y-120411756D01*
X167592794Y-120448159D01*
X167583853Y-120483857D01*
X167571455Y-120518506D01*
X167555720Y-120551774D01*
X167536801Y-120583339D01*
X167514879Y-120612897D01*
X167490165Y-120640165D01*
X167462897Y-120664879D01*
X167433339Y-120686801D01*
X167401774Y-120705720D01*
X167368506Y-120721455D01*
X167333857Y-120733853D01*
X167298159Y-120742794D01*
X167261756Y-120748194D01*
X167225000Y-120750000D01*
X166475000Y-120750000D01*
X166438244Y-120748194D01*
X166401841Y-120742794D01*
X166366143Y-120733853D01*
X166331494Y-120721455D01*
X166298226Y-120705720D01*
X166266661Y-120686801D01*
X166237103Y-120664879D01*
X166209835Y-120640165D01*
X166185121Y-120612897D01*
X166163199Y-120583339D01*
X166144280Y-120551774D01*
X166128545Y-120518506D01*
X166116147Y-120483857D01*
X166107206Y-120448159D01*
X166101806Y-120411756D01*
X166100000Y-120375000D01*
X166100000Y-118625000D01*
X166101806Y-118588244D01*
X166107206Y-118551841D01*
X166116147Y-118516143D01*
X166128545Y-118481494D01*
X166144280Y-118448226D01*
X166163199Y-118416661D01*
X166185121Y-118387103D01*
X166209835Y-118359835D01*
X166237103Y-118335121D01*
X166266661Y-118313199D01*
X166298226Y-118294280D01*
X166331494Y-118278545D01*
X166366143Y-118266147D01*
X166401841Y-118257206D01*
X166438244Y-118251806D01*
X166475000Y-118250000D01*
X167225000Y-118250000D01*
X167261756Y-118251806D01*
X167261756Y-118251806D01*
G37*
D19*
G04 #@! TD*
G04 #@! TO.P,J5,12*
G04 #@! TO.N,Net-(J5-Pad12)*
X166850000Y-119500000D03*
D18*
G04 #@! TO.N,Net-(J5-Pad13)*
G04 #@! TO.C,J5*
G36*
X165261756Y-118251806D02*
X165298159Y-118257206D01*
X165333857Y-118266147D01*
X165368506Y-118278545D01*
X165401774Y-118294280D01*
X165433339Y-118313199D01*
X165462897Y-118335121D01*
X165490165Y-118359835D01*
X165514879Y-118387103D01*
X165536801Y-118416661D01*
X165555720Y-118448226D01*
X165571455Y-118481494D01*
X165583853Y-118516143D01*
X165592794Y-118551841D01*
X165598194Y-118588244D01*
X165600000Y-118625000D01*
X165600000Y-120375000D01*
X165598194Y-120411756D01*
X165592794Y-120448159D01*
X165583853Y-120483857D01*
X165571455Y-120518506D01*
X165555720Y-120551774D01*
X165536801Y-120583339D01*
X165514879Y-120612897D01*
X165490165Y-120640165D01*
X165462897Y-120664879D01*
X165433339Y-120686801D01*
X165401774Y-120705720D01*
X165368506Y-120721455D01*
X165333857Y-120733853D01*
X165298159Y-120742794D01*
X165261756Y-120748194D01*
X165225000Y-120750000D01*
X164475000Y-120750000D01*
X164438244Y-120748194D01*
X164401841Y-120742794D01*
X164366143Y-120733853D01*
X164331494Y-120721455D01*
X164298226Y-120705720D01*
X164266661Y-120686801D01*
X164237103Y-120664879D01*
X164209835Y-120640165D01*
X164185121Y-120612897D01*
X164163199Y-120583339D01*
X164144280Y-120551774D01*
X164128545Y-120518506D01*
X164116147Y-120483857D01*
X164107206Y-120448159D01*
X164101806Y-120411756D01*
X164100000Y-120375000D01*
X164100000Y-118625000D01*
X164101806Y-118588244D01*
X164107206Y-118551841D01*
X164116147Y-118516143D01*
X164128545Y-118481494D01*
X164144280Y-118448226D01*
X164163199Y-118416661D01*
X164185121Y-118387103D01*
X164209835Y-118359835D01*
X164237103Y-118335121D01*
X164266661Y-118313199D01*
X164298226Y-118294280D01*
X164331494Y-118278545D01*
X164366143Y-118266147D01*
X164401841Y-118257206D01*
X164438244Y-118251806D01*
X164475000Y-118250000D01*
X165225000Y-118250000D01*
X165261756Y-118251806D01*
X165261756Y-118251806D01*
G37*
D19*
G04 #@! TD*
G04 #@! TO.P,J5,13*
G04 #@! TO.N,Net-(J5-Pad13)*
X164850000Y-119500000D03*
D18*
G04 #@! TO.N,Net-(J5-Pad14)*
G04 #@! TO.C,J5*
G36*
X163261756Y-118251806D02*
X163298159Y-118257206D01*
X163333857Y-118266147D01*
X163368506Y-118278545D01*
X163401774Y-118294280D01*
X163433339Y-118313199D01*
X163462897Y-118335121D01*
X163490165Y-118359835D01*
X163514879Y-118387103D01*
X163536801Y-118416661D01*
X163555720Y-118448226D01*
X163571455Y-118481494D01*
X163583853Y-118516143D01*
X163592794Y-118551841D01*
X163598194Y-118588244D01*
X163600000Y-118625000D01*
X163600000Y-120375000D01*
X163598194Y-120411756D01*
X163592794Y-120448159D01*
X163583853Y-120483857D01*
X163571455Y-120518506D01*
X163555720Y-120551774D01*
X163536801Y-120583339D01*
X163514879Y-120612897D01*
X163490165Y-120640165D01*
X163462897Y-120664879D01*
X163433339Y-120686801D01*
X163401774Y-120705720D01*
X163368506Y-120721455D01*
X163333857Y-120733853D01*
X163298159Y-120742794D01*
X163261756Y-120748194D01*
X163225000Y-120750000D01*
X162475000Y-120750000D01*
X162438244Y-120748194D01*
X162401841Y-120742794D01*
X162366143Y-120733853D01*
X162331494Y-120721455D01*
X162298226Y-120705720D01*
X162266661Y-120686801D01*
X162237103Y-120664879D01*
X162209835Y-120640165D01*
X162185121Y-120612897D01*
X162163199Y-120583339D01*
X162144280Y-120551774D01*
X162128545Y-120518506D01*
X162116147Y-120483857D01*
X162107206Y-120448159D01*
X162101806Y-120411756D01*
X162100000Y-120375000D01*
X162100000Y-118625000D01*
X162101806Y-118588244D01*
X162107206Y-118551841D01*
X162116147Y-118516143D01*
X162128545Y-118481494D01*
X162144280Y-118448226D01*
X162163199Y-118416661D01*
X162185121Y-118387103D01*
X162209835Y-118359835D01*
X162237103Y-118335121D01*
X162266661Y-118313199D01*
X162298226Y-118294280D01*
X162331494Y-118278545D01*
X162366143Y-118266147D01*
X162401841Y-118257206D01*
X162438244Y-118251806D01*
X162475000Y-118250000D01*
X163225000Y-118250000D01*
X163261756Y-118251806D01*
X163261756Y-118251806D01*
G37*
D19*
G04 #@! TD*
G04 #@! TO.P,J5,14*
G04 #@! TO.N,Net-(J5-Pad14)*
X162850000Y-119500000D03*
D18*
G04 #@! TO.N,Net-(J5-Pad15)*
G04 #@! TO.C,J5*
G36*
X161261756Y-118251806D02*
X161298159Y-118257206D01*
X161333857Y-118266147D01*
X161368506Y-118278545D01*
X161401774Y-118294280D01*
X161433339Y-118313199D01*
X161462897Y-118335121D01*
X161490165Y-118359835D01*
X161514879Y-118387103D01*
X161536801Y-118416661D01*
X161555720Y-118448226D01*
X161571455Y-118481494D01*
X161583853Y-118516143D01*
X161592794Y-118551841D01*
X161598194Y-118588244D01*
X161600000Y-118625000D01*
X161600000Y-120375000D01*
X161598194Y-120411756D01*
X161592794Y-120448159D01*
X161583853Y-120483857D01*
X161571455Y-120518506D01*
X161555720Y-120551774D01*
X161536801Y-120583339D01*
X161514879Y-120612897D01*
X161490165Y-120640165D01*
X161462897Y-120664879D01*
X161433339Y-120686801D01*
X161401774Y-120705720D01*
X161368506Y-120721455D01*
X161333857Y-120733853D01*
X161298159Y-120742794D01*
X161261756Y-120748194D01*
X161225000Y-120750000D01*
X160475000Y-120750000D01*
X160438244Y-120748194D01*
X160401841Y-120742794D01*
X160366143Y-120733853D01*
X160331494Y-120721455D01*
X160298226Y-120705720D01*
X160266661Y-120686801D01*
X160237103Y-120664879D01*
X160209835Y-120640165D01*
X160185121Y-120612897D01*
X160163199Y-120583339D01*
X160144280Y-120551774D01*
X160128545Y-120518506D01*
X160116147Y-120483857D01*
X160107206Y-120448159D01*
X160101806Y-120411756D01*
X160100000Y-120375000D01*
X160100000Y-118625000D01*
X160101806Y-118588244D01*
X160107206Y-118551841D01*
X160116147Y-118516143D01*
X160128545Y-118481494D01*
X160144280Y-118448226D01*
X160163199Y-118416661D01*
X160185121Y-118387103D01*
X160209835Y-118359835D01*
X160237103Y-118335121D01*
X160266661Y-118313199D01*
X160298226Y-118294280D01*
X160331494Y-118278545D01*
X160366143Y-118266147D01*
X160401841Y-118257206D01*
X160438244Y-118251806D01*
X160475000Y-118250000D01*
X161225000Y-118250000D01*
X161261756Y-118251806D01*
X161261756Y-118251806D01*
G37*
D19*
G04 #@! TD*
G04 #@! TO.P,J5,15*
G04 #@! TO.N,Net-(J5-Pad15)*
X160850000Y-119500000D03*
D18*
G04 #@! TO.N,Net-(J5-Pad16)*
G04 #@! TO.C,J5*
G36*
X159261756Y-118251806D02*
X159298159Y-118257206D01*
X159333857Y-118266147D01*
X159368506Y-118278545D01*
X159401774Y-118294280D01*
X159433339Y-118313199D01*
X159462897Y-118335121D01*
X159490165Y-118359835D01*
X159514879Y-118387103D01*
X159536801Y-118416661D01*
X159555720Y-118448226D01*
X159571455Y-118481494D01*
X159583853Y-118516143D01*
X159592794Y-118551841D01*
X159598194Y-118588244D01*
X159600000Y-118625000D01*
X159600000Y-120375000D01*
X159598194Y-120411756D01*
X159592794Y-120448159D01*
X159583853Y-120483857D01*
X159571455Y-120518506D01*
X159555720Y-120551774D01*
X159536801Y-120583339D01*
X159514879Y-120612897D01*
X159490165Y-120640165D01*
X159462897Y-120664879D01*
X159433339Y-120686801D01*
X159401774Y-120705720D01*
X159368506Y-120721455D01*
X159333857Y-120733853D01*
X159298159Y-120742794D01*
X159261756Y-120748194D01*
X159225000Y-120750000D01*
X158475000Y-120750000D01*
X158438244Y-120748194D01*
X158401841Y-120742794D01*
X158366143Y-120733853D01*
X158331494Y-120721455D01*
X158298226Y-120705720D01*
X158266661Y-120686801D01*
X158237103Y-120664879D01*
X158209835Y-120640165D01*
X158185121Y-120612897D01*
X158163199Y-120583339D01*
X158144280Y-120551774D01*
X158128545Y-120518506D01*
X158116147Y-120483857D01*
X158107206Y-120448159D01*
X158101806Y-120411756D01*
X158100000Y-120375000D01*
X158100000Y-118625000D01*
X158101806Y-118588244D01*
X158107206Y-118551841D01*
X158116147Y-118516143D01*
X158128545Y-118481494D01*
X158144280Y-118448226D01*
X158163199Y-118416661D01*
X158185121Y-118387103D01*
X158209835Y-118359835D01*
X158237103Y-118335121D01*
X158266661Y-118313199D01*
X158298226Y-118294280D01*
X158331494Y-118278545D01*
X158366143Y-118266147D01*
X158401841Y-118257206D01*
X158438244Y-118251806D01*
X158475000Y-118250000D01*
X159225000Y-118250000D01*
X159261756Y-118251806D01*
X159261756Y-118251806D01*
G37*
D19*
G04 #@! TD*
G04 #@! TO.P,J5,16*
G04 #@! TO.N,Net-(J5-Pad16)*
X158850000Y-119500000D03*
D18*
G04 #@! TO.N,Net-(J5-Pad17)*
G04 #@! TO.C,J5*
G36*
X157261756Y-118251806D02*
X157298159Y-118257206D01*
X157333857Y-118266147D01*
X157368506Y-118278545D01*
X157401774Y-118294280D01*
X157433339Y-118313199D01*
X157462897Y-118335121D01*
X157490165Y-118359835D01*
X157514879Y-118387103D01*
X157536801Y-118416661D01*
X157555720Y-118448226D01*
X157571455Y-118481494D01*
X157583853Y-118516143D01*
X157592794Y-118551841D01*
X157598194Y-118588244D01*
X157600000Y-118625000D01*
X157600000Y-120375000D01*
X157598194Y-120411756D01*
X157592794Y-120448159D01*
X157583853Y-120483857D01*
X157571455Y-120518506D01*
X157555720Y-120551774D01*
X157536801Y-120583339D01*
X157514879Y-120612897D01*
X157490165Y-120640165D01*
X157462897Y-120664879D01*
X157433339Y-120686801D01*
X157401774Y-120705720D01*
X157368506Y-120721455D01*
X157333857Y-120733853D01*
X157298159Y-120742794D01*
X157261756Y-120748194D01*
X157225000Y-120750000D01*
X156475000Y-120750000D01*
X156438244Y-120748194D01*
X156401841Y-120742794D01*
X156366143Y-120733853D01*
X156331494Y-120721455D01*
X156298226Y-120705720D01*
X156266661Y-120686801D01*
X156237103Y-120664879D01*
X156209835Y-120640165D01*
X156185121Y-120612897D01*
X156163199Y-120583339D01*
X156144280Y-120551774D01*
X156128545Y-120518506D01*
X156116147Y-120483857D01*
X156107206Y-120448159D01*
X156101806Y-120411756D01*
X156100000Y-120375000D01*
X156100000Y-118625000D01*
X156101806Y-118588244D01*
X156107206Y-118551841D01*
X156116147Y-118516143D01*
X156128545Y-118481494D01*
X156144280Y-118448226D01*
X156163199Y-118416661D01*
X156185121Y-118387103D01*
X156209835Y-118359835D01*
X156237103Y-118335121D01*
X156266661Y-118313199D01*
X156298226Y-118294280D01*
X156331494Y-118278545D01*
X156366143Y-118266147D01*
X156401841Y-118257206D01*
X156438244Y-118251806D01*
X156475000Y-118250000D01*
X157225000Y-118250000D01*
X157261756Y-118251806D01*
X157261756Y-118251806D01*
G37*
D19*
G04 #@! TD*
G04 #@! TO.P,J5,17*
G04 #@! TO.N,Net-(J5-Pad17)*
X156850000Y-119500000D03*
D18*
G04 #@! TO.N,Net-(J5-Pad18)*
G04 #@! TO.C,J5*
G36*
X155261756Y-118251806D02*
X155298159Y-118257206D01*
X155333857Y-118266147D01*
X155368506Y-118278545D01*
X155401774Y-118294280D01*
X155433339Y-118313199D01*
X155462897Y-118335121D01*
X155490165Y-118359835D01*
X155514879Y-118387103D01*
X155536801Y-118416661D01*
X155555720Y-118448226D01*
X155571455Y-118481494D01*
X155583853Y-118516143D01*
X155592794Y-118551841D01*
X155598194Y-118588244D01*
X155600000Y-118625000D01*
X155600000Y-120375000D01*
X155598194Y-120411756D01*
X155592794Y-120448159D01*
X155583853Y-120483857D01*
X155571455Y-120518506D01*
X155555720Y-120551774D01*
X155536801Y-120583339D01*
X155514879Y-120612897D01*
X155490165Y-120640165D01*
X155462897Y-120664879D01*
X155433339Y-120686801D01*
X155401774Y-120705720D01*
X155368506Y-120721455D01*
X155333857Y-120733853D01*
X155298159Y-120742794D01*
X155261756Y-120748194D01*
X155225000Y-120750000D01*
X154475000Y-120750000D01*
X154438244Y-120748194D01*
X154401841Y-120742794D01*
X154366143Y-120733853D01*
X154331494Y-120721455D01*
X154298226Y-120705720D01*
X154266661Y-120686801D01*
X154237103Y-120664879D01*
X154209835Y-120640165D01*
X154185121Y-120612897D01*
X154163199Y-120583339D01*
X154144280Y-120551774D01*
X154128545Y-120518506D01*
X154116147Y-120483857D01*
X154107206Y-120448159D01*
X154101806Y-120411756D01*
X154100000Y-120375000D01*
X154100000Y-118625000D01*
X154101806Y-118588244D01*
X154107206Y-118551841D01*
X154116147Y-118516143D01*
X154128545Y-118481494D01*
X154144280Y-118448226D01*
X154163199Y-118416661D01*
X154185121Y-118387103D01*
X154209835Y-118359835D01*
X154237103Y-118335121D01*
X154266661Y-118313199D01*
X154298226Y-118294280D01*
X154331494Y-118278545D01*
X154366143Y-118266147D01*
X154401841Y-118257206D01*
X154438244Y-118251806D01*
X154475000Y-118250000D01*
X155225000Y-118250000D01*
X155261756Y-118251806D01*
X155261756Y-118251806D01*
G37*
D19*
G04 #@! TD*
G04 #@! TO.P,J5,18*
G04 #@! TO.N,Net-(J5-Pad18)*
X154850000Y-119500000D03*
D18*
G04 #@! TO.N,Net-(J5-Pad19)*
G04 #@! TO.C,J5*
G36*
X153261756Y-118251806D02*
X153298159Y-118257206D01*
X153333857Y-118266147D01*
X153368506Y-118278545D01*
X153401774Y-118294280D01*
X153433339Y-118313199D01*
X153462897Y-118335121D01*
X153490165Y-118359835D01*
X153514879Y-118387103D01*
X153536801Y-118416661D01*
X153555720Y-118448226D01*
X153571455Y-118481494D01*
X153583853Y-118516143D01*
X153592794Y-118551841D01*
X153598194Y-118588244D01*
X153600000Y-118625000D01*
X153600000Y-120375000D01*
X153598194Y-120411756D01*
X153592794Y-120448159D01*
X153583853Y-120483857D01*
X153571455Y-120518506D01*
X153555720Y-120551774D01*
X153536801Y-120583339D01*
X153514879Y-120612897D01*
X153490165Y-120640165D01*
X153462897Y-120664879D01*
X153433339Y-120686801D01*
X153401774Y-120705720D01*
X153368506Y-120721455D01*
X153333857Y-120733853D01*
X153298159Y-120742794D01*
X153261756Y-120748194D01*
X153225000Y-120750000D01*
X152475000Y-120750000D01*
X152438244Y-120748194D01*
X152401841Y-120742794D01*
X152366143Y-120733853D01*
X152331494Y-120721455D01*
X152298226Y-120705720D01*
X152266661Y-120686801D01*
X152237103Y-120664879D01*
X152209835Y-120640165D01*
X152185121Y-120612897D01*
X152163199Y-120583339D01*
X152144280Y-120551774D01*
X152128545Y-120518506D01*
X152116147Y-120483857D01*
X152107206Y-120448159D01*
X152101806Y-120411756D01*
X152100000Y-120375000D01*
X152100000Y-118625000D01*
X152101806Y-118588244D01*
X152107206Y-118551841D01*
X152116147Y-118516143D01*
X152128545Y-118481494D01*
X152144280Y-118448226D01*
X152163199Y-118416661D01*
X152185121Y-118387103D01*
X152209835Y-118359835D01*
X152237103Y-118335121D01*
X152266661Y-118313199D01*
X152298226Y-118294280D01*
X152331494Y-118278545D01*
X152366143Y-118266147D01*
X152401841Y-118257206D01*
X152438244Y-118251806D01*
X152475000Y-118250000D01*
X153225000Y-118250000D01*
X153261756Y-118251806D01*
X153261756Y-118251806D01*
G37*
D19*
G04 #@! TD*
G04 #@! TO.P,J5,19*
G04 #@! TO.N,Net-(J5-Pad19)*
X152850000Y-119500000D03*
D18*
G04 #@! TO.N,Net-(J5-Pad20)*
G04 #@! TO.C,J5*
G36*
X151261756Y-118251806D02*
X151298159Y-118257206D01*
X151333857Y-118266147D01*
X151368506Y-118278545D01*
X151401774Y-118294280D01*
X151433339Y-118313199D01*
X151462897Y-118335121D01*
X151490165Y-118359835D01*
X151514879Y-118387103D01*
X151536801Y-118416661D01*
X151555720Y-118448226D01*
X151571455Y-118481494D01*
X151583853Y-118516143D01*
X151592794Y-118551841D01*
X151598194Y-118588244D01*
X151600000Y-118625000D01*
X151600000Y-120375000D01*
X151598194Y-120411756D01*
X151592794Y-120448159D01*
X151583853Y-120483857D01*
X151571455Y-120518506D01*
X151555720Y-120551774D01*
X151536801Y-120583339D01*
X151514879Y-120612897D01*
X151490165Y-120640165D01*
X151462897Y-120664879D01*
X151433339Y-120686801D01*
X151401774Y-120705720D01*
X151368506Y-120721455D01*
X151333857Y-120733853D01*
X151298159Y-120742794D01*
X151261756Y-120748194D01*
X151225000Y-120750000D01*
X150475000Y-120750000D01*
X150438244Y-120748194D01*
X150401841Y-120742794D01*
X150366143Y-120733853D01*
X150331494Y-120721455D01*
X150298226Y-120705720D01*
X150266661Y-120686801D01*
X150237103Y-120664879D01*
X150209835Y-120640165D01*
X150185121Y-120612897D01*
X150163199Y-120583339D01*
X150144280Y-120551774D01*
X150128545Y-120518506D01*
X150116147Y-120483857D01*
X150107206Y-120448159D01*
X150101806Y-120411756D01*
X150100000Y-120375000D01*
X150100000Y-118625000D01*
X150101806Y-118588244D01*
X150107206Y-118551841D01*
X150116147Y-118516143D01*
X150128545Y-118481494D01*
X150144280Y-118448226D01*
X150163199Y-118416661D01*
X150185121Y-118387103D01*
X150209835Y-118359835D01*
X150237103Y-118335121D01*
X150266661Y-118313199D01*
X150298226Y-118294280D01*
X150331494Y-118278545D01*
X150366143Y-118266147D01*
X150401841Y-118257206D01*
X150438244Y-118251806D01*
X150475000Y-118250000D01*
X151225000Y-118250000D01*
X151261756Y-118251806D01*
X151261756Y-118251806D01*
G37*
D19*
G04 #@! TD*
G04 #@! TO.P,J5,20*
G04 #@! TO.N,Net-(J5-Pad20)*
X150850000Y-119500000D03*
D18*
G04 #@! TO.N,/Sheet5DD758E7/SCS_USB*
G04 #@! TO.C,J3*
G36*
X147261756Y-114251806D02*
X147298159Y-114257206D01*
X147333857Y-114266147D01*
X147368506Y-114278545D01*
X147401774Y-114294280D01*
X147433339Y-114313199D01*
X147462897Y-114335121D01*
X147490165Y-114359835D01*
X147514879Y-114387103D01*
X147536801Y-114416661D01*
X147555720Y-114448226D01*
X147571455Y-114481494D01*
X147583853Y-114516143D01*
X147592794Y-114551841D01*
X147598194Y-114588244D01*
X147600000Y-114625000D01*
X147600000Y-115375000D01*
X147598194Y-115411756D01*
X147592794Y-115448159D01*
X147583853Y-115483857D01*
X147571455Y-115518506D01*
X147555720Y-115551774D01*
X147536801Y-115583339D01*
X147514879Y-115612897D01*
X147490165Y-115640165D01*
X147462897Y-115664879D01*
X147433339Y-115686801D01*
X147401774Y-115705720D01*
X147368506Y-115721455D01*
X147333857Y-115733853D01*
X147298159Y-115742794D01*
X147261756Y-115748194D01*
X147225000Y-115750000D01*
X145475000Y-115750000D01*
X145438244Y-115748194D01*
X145401841Y-115742794D01*
X145366143Y-115733853D01*
X145331494Y-115721455D01*
X145298226Y-115705720D01*
X145266661Y-115686801D01*
X145237103Y-115664879D01*
X145209835Y-115640165D01*
X145185121Y-115612897D01*
X145163199Y-115583339D01*
X145144280Y-115551774D01*
X145128545Y-115518506D01*
X145116147Y-115483857D01*
X145107206Y-115448159D01*
X145101806Y-115411756D01*
X145100000Y-115375000D01*
X145100000Y-114625000D01*
X145101806Y-114588244D01*
X145107206Y-114551841D01*
X145116147Y-114516143D01*
X145128545Y-114481494D01*
X145144280Y-114448226D01*
X145163199Y-114416661D01*
X145185121Y-114387103D01*
X145209835Y-114359835D01*
X145237103Y-114335121D01*
X145266661Y-114313199D01*
X145298226Y-114294280D01*
X145331494Y-114278545D01*
X145366143Y-114266147D01*
X145401841Y-114257206D01*
X145438244Y-114251806D01*
X145475000Y-114250000D01*
X147225000Y-114250000D01*
X147261756Y-114251806D01*
X147261756Y-114251806D01*
G37*
D19*
G04 #@! TD*
G04 #@! TO.P,J3,1*
G04 #@! TO.N,/Sheet5DD758E7/SCS_USB*
X146350000Y-115000000D03*
D18*
G04 #@! TO.N,/Sheet5DD758E7/SDO_USB*
G04 #@! TO.C,J3*
G36*
X147261756Y-112251806D02*
X147298159Y-112257206D01*
X147333857Y-112266147D01*
X147368506Y-112278545D01*
X147401774Y-112294280D01*
X147433339Y-112313199D01*
X147462897Y-112335121D01*
X147490165Y-112359835D01*
X147514879Y-112387103D01*
X147536801Y-112416661D01*
X147555720Y-112448226D01*
X147571455Y-112481494D01*
X147583853Y-112516143D01*
X147592794Y-112551841D01*
X147598194Y-112588244D01*
X147600000Y-112625000D01*
X147600000Y-113375000D01*
X147598194Y-113411756D01*
X147592794Y-113448159D01*
X147583853Y-113483857D01*
X147571455Y-113518506D01*
X147555720Y-113551774D01*
X147536801Y-113583339D01*
X147514879Y-113612897D01*
X147490165Y-113640165D01*
X147462897Y-113664879D01*
X147433339Y-113686801D01*
X147401774Y-113705720D01*
X147368506Y-113721455D01*
X147333857Y-113733853D01*
X147298159Y-113742794D01*
X147261756Y-113748194D01*
X147225000Y-113750000D01*
X145475000Y-113750000D01*
X145438244Y-113748194D01*
X145401841Y-113742794D01*
X145366143Y-113733853D01*
X145331494Y-113721455D01*
X145298226Y-113705720D01*
X145266661Y-113686801D01*
X145237103Y-113664879D01*
X145209835Y-113640165D01*
X145185121Y-113612897D01*
X145163199Y-113583339D01*
X145144280Y-113551774D01*
X145128545Y-113518506D01*
X145116147Y-113483857D01*
X145107206Y-113448159D01*
X145101806Y-113411756D01*
X145100000Y-113375000D01*
X145100000Y-112625000D01*
X145101806Y-112588244D01*
X145107206Y-112551841D01*
X145116147Y-112516143D01*
X145128545Y-112481494D01*
X145144280Y-112448226D01*
X145163199Y-112416661D01*
X145185121Y-112387103D01*
X145209835Y-112359835D01*
X145237103Y-112335121D01*
X145266661Y-112313199D01*
X145298226Y-112294280D01*
X145331494Y-112278545D01*
X145366143Y-112266147D01*
X145401841Y-112257206D01*
X145438244Y-112251806D01*
X145475000Y-112250000D01*
X147225000Y-112250000D01*
X147261756Y-112251806D01*
X147261756Y-112251806D01*
G37*
D19*
G04 #@! TD*
G04 #@! TO.P,J3,2*
G04 #@! TO.N,/Sheet5DD758E7/SDO_USB*
X146350000Y-113000000D03*
D18*
G04 #@! TO.N,/Sheet5DD758E7/SDI_USB*
G04 #@! TO.C,J3*
G36*
X147261756Y-110251806D02*
X147298159Y-110257206D01*
X147333857Y-110266147D01*
X147368506Y-110278545D01*
X147401774Y-110294280D01*
X147433339Y-110313199D01*
X147462897Y-110335121D01*
X147490165Y-110359835D01*
X147514879Y-110387103D01*
X147536801Y-110416661D01*
X147555720Y-110448226D01*
X147571455Y-110481494D01*
X147583853Y-110516143D01*
X147592794Y-110551841D01*
X147598194Y-110588244D01*
X147600000Y-110625000D01*
X147600000Y-111375000D01*
X147598194Y-111411756D01*
X147592794Y-111448159D01*
X147583853Y-111483857D01*
X147571455Y-111518506D01*
X147555720Y-111551774D01*
X147536801Y-111583339D01*
X147514879Y-111612897D01*
X147490165Y-111640165D01*
X147462897Y-111664879D01*
X147433339Y-111686801D01*
X147401774Y-111705720D01*
X147368506Y-111721455D01*
X147333857Y-111733853D01*
X147298159Y-111742794D01*
X147261756Y-111748194D01*
X147225000Y-111750000D01*
X145475000Y-111750000D01*
X145438244Y-111748194D01*
X145401841Y-111742794D01*
X145366143Y-111733853D01*
X145331494Y-111721455D01*
X145298226Y-111705720D01*
X145266661Y-111686801D01*
X145237103Y-111664879D01*
X145209835Y-111640165D01*
X145185121Y-111612897D01*
X145163199Y-111583339D01*
X145144280Y-111551774D01*
X145128545Y-111518506D01*
X145116147Y-111483857D01*
X145107206Y-111448159D01*
X145101806Y-111411756D01*
X145100000Y-111375000D01*
X145100000Y-110625000D01*
X145101806Y-110588244D01*
X145107206Y-110551841D01*
X145116147Y-110516143D01*
X145128545Y-110481494D01*
X145144280Y-110448226D01*
X145163199Y-110416661D01*
X145185121Y-110387103D01*
X145209835Y-110359835D01*
X145237103Y-110335121D01*
X145266661Y-110313199D01*
X145298226Y-110294280D01*
X145331494Y-110278545D01*
X145366143Y-110266147D01*
X145401841Y-110257206D01*
X145438244Y-110251806D01*
X145475000Y-110250000D01*
X147225000Y-110250000D01*
X147261756Y-110251806D01*
X147261756Y-110251806D01*
G37*
D19*
G04 #@! TD*
G04 #@! TO.P,J3,3*
G04 #@! TO.N,/Sheet5DD758E7/SDI_USB*
X146350000Y-111000000D03*
D18*
G04 #@! TO.N,/Sheet5DD758E7/SCLK_USB*
G04 #@! TO.C,J3*
G36*
X147261756Y-108251806D02*
X147298159Y-108257206D01*
X147333857Y-108266147D01*
X147368506Y-108278545D01*
X147401774Y-108294280D01*
X147433339Y-108313199D01*
X147462897Y-108335121D01*
X147490165Y-108359835D01*
X147514879Y-108387103D01*
X147536801Y-108416661D01*
X147555720Y-108448226D01*
X147571455Y-108481494D01*
X147583853Y-108516143D01*
X147592794Y-108551841D01*
X147598194Y-108588244D01*
X147600000Y-108625000D01*
X147600000Y-109375000D01*
X147598194Y-109411756D01*
X147592794Y-109448159D01*
X147583853Y-109483857D01*
X147571455Y-109518506D01*
X147555720Y-109551774D01*
X147536801Y-109583339D01*
X147514879Y-109612897D01*
X147490165Y-109640165D01*
X147462897Y-109664879D01*
X147433339Y-109686801D01*
X147401774Y-109705720D01*
X147368506Y-109721455D01*
X147333857Y-109733853D01*
X147298159Y-109742794D01*
X147261756Y-109748194D01*
X147225000Y-109750000D01*
X145475000Y-109750000D01*
X145438244Y-109748194D01*
X145401841Y-109742794D01*
X145366143Y-109733853D01*
X145331494Y-109721455D01*
X145298226Y-109705720D01*
X145266661Y-109686801D01*
X145237103Y-109664879D01*
X145209835Y-109640165D01*
X145185121Y-109612897D01*
X145163199Y-109583339D01*
X145144280Y-109551774D01*
X145128545Y-109518506D01*
X145116147Y-109483857D01*
X145107206Y-109448159D01*
X145101806Y-109411756D01*
X145100000Y-109375000D01*
X145100000Y-108625000D01*
X145101806Y-108588244D01*
X145107206Y-108551841D01*
X145116147Y-108516143D01*
X145128545Y-108481494D01*
X145144280Y-108448226D01*
X145163199Y-108416661D01*
X145185121Y-108387103D01*
X145209835Y-108359835D01*
X145237103Y-108335121D01*
X145266661Y-108313199D01*
X145298226Y-108294280D01*
X145331494Y-108278545D01*
X145366143Y-108266147D01*
X145401841Y-108257206D01*
X145438244Y-108251806D01*
X145475000Y-108250000D01*
X147225000Y-108250000D01*
X147261756Y-108251806D01*
X147261756Y-108251806D01*
G37*
D19*
G04 #@! TD*
G04 #@! TO.P,J3,4*
G04 #@! TO.N,/Sheet5DD758E7/SCLK_USB*
X146350000Y-109000000D03*
D18*
G04 #@! TO.N,Net-(J2-Pad12)*
G04 #@! TO.C,J3*
G36*
X147261756Y-106251806D02*
X147298159Y-106257206D01*
X147333857Y-106266147D01*
X147368506Y-106278545D01*
X147401774Y-106294280D01*
X147433339Y-106313199D01*
X147462897Y-106335121D01*
X147490165Y-106359835D01*
X147514879Y-106387103D01*
X147536801Y-106416661D01*
X147555720Y-106448226D01*
X147571455Y-106481494D01*
X147583853Y-106516143D01*
X147592794Y-106551841D01*
X147598194Y-106588244D01*
X147600000Y-106625000D01*
X147600000Y-107375000D01*
X147598194Y-107411756D01*
X147592794Y-107448159D01*
X147583853Y-107483857D01*
X147571455Y-107518506D01*
X147555720Y-107551774D01*
X147536801Y-107583339D01*
X147514879Y-107612897D01*
X147490165Y-107640165D01*
X147462897Y-107664879D01*
X147433339Y-107686801D01*
X147401774Y-107705720D01*
X147368506Y-107721455D01*
X147333857Y-107733853D01*
X147298159Y-107742794D01*
X147261756Y-107748194D01*
X147225000Y-107750000D01*
X145475000Y-107750000D01*
X145438244Y-107748194D01*
X145401841Y-107742794D01*
X145366143Y-107733853D01*
X145331494Y-107721455D01*
X145298226Y-107705720D01*
X145266661Y-107686801D01*
X145237103Y-107664879D01*
X145209835Y-107640165D01*
X145185121Y-107612897D01*
X145163199Y-107583339D01*
X145144280Y-107551774D01*
X145128545Y-107518506D01*
X145116147Y-107483857D01*
X145107206Y-107448159D01*
X145101806Y-107411756D01*
X145100000Y-107375000D01*
X145100000Y-106625000D01*
X145101806Y-106588244D01*
X145107206Y-106551841D01*
X145116147Y-106516143D01*
X145128545Y-106481494D01*
X145144280Y-106448226D01*
X145163199Y-106416661D01*
X145185121Y-106387103D01*
X145209835Y-106359835D01*
X145237103Y-106335121D01*
X145266661Y-106313199D01*
X145298226Y-106294280D01*
X145331494Y-106278545D01*
X145366143Y-106266147D01*
X145401841Y-106257206D01*
X145438244Y-106251806D01*
X145475000Y-106250000D01*
X147225000Y-106250000D01*
X147261756Y-106251806D01*
X147261756Y-106251806D01*
G37*
D19*
G04 #@! TD*
G04 #@! TO.P,J3,5*
G04 #@! TO.N,Net-(J2-Pad12)*
X146350000Y-107000000D03*
D18*
G04 #@! TO.N,Net-(J3-Pad6)*
G04 #@! TO.C,J3*
G36*
X147261756Y-104251806D02*
X147298159Y-104257206D01*
X147333857Y-104266147D01*
X147368506Y-104278545D01*
X147401774Y-104294280D01*
X147433339Y-104313199D01*
X147462897Y-104335121D01*
X147490165Y-104359835D01*
X147514879Y-104387103D01*
X147536801Y-104416661D01*
X147555720Y-104448226D01*
X147571455Y-104481494D01*
X147583853Y-104516143D01*
X147592794Y-104551841D01*
X147598194Y-104588244D01*
X147600000Y-104625000D01*
X147600000Y-105375000D01*
X147598194Y-105411756D01*
X147592794Y-105448159D01*
X147583853Y-105483857D01*
X147571455Y-105518506D01*
X147555720Y-105551774D01*
X147536801Y-105583339D01*
X147514879Y-105612897D01*
X147490165Y-105640165D01*
X147462897Y-105664879D01*
X147433339Y-105686801D01*
X147401774Y-105705720D01*
X147368506Y-105721455D01*
X147333857Y-105733853D01*
X147298159Y-105742794D01*
X147261756Y-105748194D01*
X147225000Y-105750000D01*
X145475000Y-105750000D01*
X145438244Y-105748194D01*
X145401841Y-105742794D01*
X145366143Y-105733853D01*
X145331494Y-105721455D01*
X145298226Y-105705720D01*
X145266661Y-105686801D01*
X145237103Y-105664879D01*
X145209835Y-105640165D01*
X145185121Y-105612897D01*
X145163199Y-105583339D01*
X145144280Y-105551774D01*
X145128545Y-105518506D01*
X145116147Y-105483857D01*
X145107206Y-105448159D01*
X145101806Y-105411756D01*
X145100000Y-105375000D01*
X145100000Y-104625000D01*
X145101806Y-104588244D01*
X145107206Y-104551841D01*
X145116147Y-104516143D01*
X145128545Y-104481494D01*
X145144280Y-104448226D01*
X145163199Y-104416661D01*
X145185121Y-104387103D01*
X145209835Y-104359835D01*
X145237103Y-104335121D01*
X145266661Y-104313199D01*
X145298226Y-104294280D01*
X145331494Y-104278545D01*
X145366143Y-104266147D01*
X145401841Y-104257206D01*
X145438244Y-104251806D01*
X145475000Y-104250000D01*
X147225000Y-104250000D01*
X147261756Y-104251806D01*
X147261756Y-104251806D01*
G37*
D19*
G04 #@! TD*
G04 #@! TO.P,J3,6*
G04 #@! TO.N,Net-(J3-Pad6)*
X146350000Y-105000000D03*
D18*
G04 #@! TO.N,/Sheet5DD758E7/WR#_GPS*
G04 #@! TO.C,J3*
G36*
X147261756Y-102251806D02*
X147298159Y-102257206D01*
X147333857Y-102266147D01*
X147368506Y-102278545D01*
X147401774Y-102294280D01*
X147433339Y-102313199D01*
X147462897Y-102335121D01*
X147490165Y-102359835D01*
X147514879Y-102387103D01*
X147536801Y-102416661D01*
X147555720Y-102448226D01*
X147571455Y-102481494D01*
X147583853Y-102516143D01*
X147592794Y-102551841D01*
X147598194Y-102588244D01*
X147600000Y-102625000D01*
X147600000Y-103375000D01*
X147598194Y-103411756D01*
X147592794Y-103448159D01*
X147583853Y-103483857D01*
X147571455Y-103518506D01*
X147555720Y-103551774D01*
X147536801Y-103583339D01*
X147514879Y-103612897D01*
X147490165Y-103640165D01*
X147462897Y-103664879D01*
X147433339Y-103686801D01*
X147401774Y-103705720D01*
X147368506Y-103721455D01*
X147333857Y-103733853D01*
X147298159Y-103742794D01*
X147261756Y-103748194D01*
X147225000Y-103750000D01*
X145475000Y-103750000D01*
X145438244Y-103748194D01*
X145401841Y-103742794D01*
X145366143Y-103733853D01*
X145331494Y-103721455D01*
X145298226Y-103705720D01*
X145266661Y-103686801D01*
X145237103Y-103664879D01*
X145209835Y-103640165D01*
X145185121Y-103612897D01*
X145163199Y-103583339D01*
X145144280Y-103551774D01*
X145128545Y-103518506D01*
X145116147Y-103483857D01*
X145107206Y-103448159D01*
X145101806Y-103411756D01*
X145100000Y-103375000D01*
X145100000Y-102625000D01*
X145101806Y-102588244D01*
X145107206Y-102551841D01*
X145116147Y-102516143D01*
X145128545Y-102481494D01*
X145144280Y-102448226D01*
X145163199Y-102416661D01*
X145185121Y-102387103D01*
X145209835Y-102359835D01*
X145237103Y-102335121D01*
X145266661Y-102313199D01*
X145298226Y-102294280D01*
X145331494Y-102278545D01*
X145366143Y-102266147D01*
X145401841Y-102257206D01*
X145438244Y-102251806D01*
X145475000Y-102250000D01*
X147225000Y-102250000D01*
X147261756Y-102251806D01*
X147261756Y-102251806D01*
G37*
D19*
G04 #@! TD*
G04 #@! TO.P,J3,7*
G04 #@! TO.N,/Sheet5DD758E7/WR#_GPS*
X146350000Y-103000000D03*
D18*
G04 #@! TO.N,/Sheet5DD758E7/TXE#_USB*
G04 #@! TO.C,J3*
G36*
X147261756Y-100251806D02*
X147298159Y-100257206D01*
X147333857Y-100266147D01*
X147368506Y-100278545D01*
X147401774Y-100294280D01*
X147433339Y-100313199D01*
X147462897Y-100335121D01*
X147490165Y-100359835D01*
X147514879Y-100387103D01*
X147536801Y-100416661D01*
X147555720Y-100448226D01*
X147571455Y-100481494D01*
X147583853Y-100516143D01*
X147592794Y-100551841D01*
X147598194Y-100588244D01*
X147600000Y-100625000D01*
X147600000Y-101375000D01*
X147598194Y-101411756D01*
X147592794Y-101448159D01*
X147583853Y-101483857D01*
X147571455Y-101518506D01*
X147555720Y-101551774D01*
X147536801Y-101583339D01*
X147514879Y-101612897D01*
X147490165Y-101640165D01*
X147462897Y-101664879D01*
X147433339Y-101686801D01*
X147401774Y-101705720D01*
X147368506Y-101721455D01*
X147333857Y-101733853D01*
X147298159Y-101742794D01*
X147261756Y-101748194D01*
X147225000Y-101750000D01*
X145475000Y-101750000D01*
X145438244Y-101748194D01*
X145401841Y-101742794D01*
X145366143Y-101733853D01*
X145331494Y-101721455D01*
X145298226Y-101705720D01*
X145266661Y-101686801D01*
X145237103Y-101664879D01*
X145209835Y-101640165D01*
X145185121Y-101612897D01*
X145163199Y-101583339D01*
X145144280Y-101551774D01*
X145128545Y-101518506D01*
X145116147Y-101483857D01*
X145107206Y-101448159D01*
X145101806Y-101411756D01*
X145100000Y-101375000D01*
X145100000Y-100625000D01*
X145101806Y-100588244D01*
X145107206Y-100551841D01*
X145116147Y-100516143D01*
X145128545Y-100481494D01*
X145144280Y-100448226D01*
X145163199Y-100416661D01*
X145185121Y-100387103D01*
X145209835Y-100359835D01*
X145237103Y-100335121D01*
X145266661Y-100313199D01*
X145298226Y-100294280D01*
X145331494Y-100278545D01*
X145366143Y-100266147D01*
X145401841Y-100257206D01*
X145438244Y-100251806D01*
X145475000Y-100250000D01*
X147225000Y-100250000D01*
X147261756Y-100251806D01*
X147261756Y-100251806D01*
G37*
D19*
G04 #@! TD*
G04 #@! TO.P,J3,8*
G04 #@! TO.N,/Sheet5DD758E7/TXE#_USB*
X146350000Y-101000000D03*
D18*
G04 #@! TO.N,Net-(J2-Pad9)*
G04 #@! TO.C,J3*
G36*
X147261756Y-98251806D02*
X147298159Y-98257206D01*
X147333857Y-98266147D01*
X147368506Y-98278545D01*
X147401774Y-98294280D01*
X147433339Y-98313199D01*
X147462897Y-98335121D01*
X147490165Y-98359835D01*
X147514879Y-98387103D01*
X147536801Y-98416661D01*
X147555720Y-98448226D01*
X147571455Y-98481494D01*
X147583853Y-98516143D01*
X147592794Y-98551841D01*
X147598194Y-98588244D01*
X147600000Y-98625000D01*
X147600000Y-99375000D01*
X147598194Y-99411756D01*
X147592794Y-99448159D01*
X147583853Y-99483857D01*
X147571455Y-99518506D01*
X147555720Y-99551774D01*
X147536801Y-99583339D01*
X147514879Y-99612897D01*
X147490165Y-99640165D01*
X147462897Y-99664879D01*
X147433339Y-99686801D01*
X147401774Y-99705720D01*
X147368506Y-99721455D01*
X147333857Y-99733853D01*
X147298159Y-99742794D01*
X147261756Y-99748194D01*
X147225000Y-99750000D01*
X145475000Y-99750000D01*
X145438244Y-99748194D01*
X145401841Y-99742794D01*
X145366143Y-99733853D01*
X145331494Y-99721455D01*
X145298226Y-99705720D01*
X145266661Y-99686801D01*
X145237103Y-99664879D01*
X145209835Y-99640165D01*
X145185121Y-99612897D01*
X145163199Y-99583339D01*
X145144280Y-99551774D01*
X145128545Y-99518506D01*
X145116147Y-99483857D01*
X145107206Y-99448159D01*
X145101806Y-99411756D01*
X145100000Y-99375000D01*
X145100000Y-98625000D01*
X145101806Y-98588244D01*
X145107206Y-98551841D01*
X145116147Y-98516143D01*
X145128545Y-98481494D01*
X145144280Y-98448226D01*
X145163199Y-98416661D01*
X145185121Y-98387103D01*
X145209835Y-98359835D01*
X145237103Y-98335121D01*
X145266661Y-98313199D01*
X145298226Y-98294280D01*
X145331494Y-98278545D01*
X145366143Y-98266147D01*
X145401841Y-98257206D01*
X145438244Y-98251806D01*
X145475000Y-98250000D01*
X147225000Y-98250000D01*
X147261756Y-98251806D01*
X147261756Y-98251806D01*
G37*
D19*
G04 #@! TD*
G04 #@! TO.P,J3,9*
G04 #@! TO.N,Net-(J2-Pad9)*
X146350000Y-99000000D03*
D18*
G04 #@! TO.N,Net-(J2-Pad8)*
G04 #@! TO.C,J3*
G36*
X147261756Y-96251806D02*
X147298159Y-96257206D01*
X147333857Y-96266147D01*
X147368506Y-96278545D01*
X147401774Y-96294280D01*
X147433339Y-96313199D01*
X147462897Y-96335121D01*
X147490165Y-96359835D01*
X147514879Y-96387103D01*
X147536801Y-96416661D01*
X147555720Y-96448226D01*
X147571455Y-96481494D01*
X147583853Y-96516143D01*
X147592794Y-96551841D01*
X147598194Y-96588244D01*
X147600000Y-96625000D01*
X147600000Y-97375000D01*
X147598194Y-97411756D01*
X147592794Y-97448159D01*
X147583853Y-97483857D01*
X147571455Y-97518506D01*
X147555720Y-97551774D01*
X147536801Y-97583339D01*
X147514879Y-97612897D01*
X147490165Y-97640165D01*
X147462897Y-97664879D01*
X147433339Y-97686801D01*
X147401774Y-97705720D01*
X147368506Y-97721455D01*
X147333857Y-97733853D01*
X147298159Y-97742794D01*
X147261756Y-97748194D01*
X147225000Y-97750000D01*
X145475000Y-97750000D01*
X145438244Y-97748194D01*
X145401841Y-97742794D01*
X145366143Y-97733853D01*
X145331494Y-97721455D01*
X145298226Y-97705720D01*
X145266661Y-97686801D01*
X145237103Y-97664879D01*
X145209835Y-97640165D01*
X145185121Y-97612897D01*
X145163199Y-97583339D01*
X145144280Y-97551774D01*
X145128545Y-97518506D01*
X145116147Y-97483857D01*
X145107206Y-97448159D01*
X145101806Y-97411756D01*
X145100000Y-97375000D01*
X145100000Y-96625000D01*
X145101806Y-96588244D01*
X145107206Y-96551841D01*
X145116147Y-96516143D01*
X145128545Y-96481494D01*
X145144280Y-96448226D01*
X145163199Y-96416661D01*
X145185121Y-96387103D01*
X145209835Y-96359835D01*
X145237103Y-96335121D01*
X145266661Y-96313199D01*
X145298226Y-96294280D01*
X145331494Y-96278545D01*
X145366143Y-96266147D01*
X145401841Y-96257206D01*
X145438244Y-96251806D01*
X145475000Y-96250000D01*
X147225000Y-96250000D01*
X147261756Y-96251806D01*
X147261756Y-96251806D01*
G37*
D19*
G04 #@! TD*
G04 #@! TO.P,J3,10*
G04 #@! TO.N,Net-(J2-Pad8)*
X146350000Y-97000000D03*
D18*
G04 #@! TO.N,Net-(J3-Pad11)*
G04 #@! TO.C,J3*
G36*
X147261756Y-94251806D02*
X147298159Y-94257206D01*
X147333857Y-94266147D01*
X147368506Y-94278545D01*
X147401774Y-94294280D01*
X147433339Y-94313199D01*
X147462897Y-94335121D01*
X147490165Y-94359835D01*
X147514879Y-94387103D01*
X147536801Y-94416661D01*
X147555720Y-94448226D01*
X147571455Y-94481494D01*
X147583853Y-94516143D01*
X147592794Y-94551841D01*
X147598194Y-94588244D01*
X147600000Y-94625000D01*
X147600000Y-95375000D01*
X147598194Y-95411756D01*
X147592794Y-95448159D01*
X147583853Y-95483857D01*
X147571455Y-95518506D01*
X147555720Y-95551774D01*
X147536801Y-95583339D01*
X147514879Y-95612897D01*
X147490165Y-95640165D01*
X147462897Y-95664879D01*
X147433339Y-95686801D01*
X147401774Y-95705720D01*
X147368506Y-95721455D01*
X147333857Y-95733853D01*
X147298159Y-95742794D01*
X147261756Y-95748194D01*
X147225000Y-95750000D01*
X145475000Y-95750000D01*
X145438244Y-95748194D01*
X145401841Y-95742794D01*
X145366143Y-95733853D01*
X145331494Y-95721455D01*
X145298226Y-95705720D01*
X145266661Y-95686801D01*
X145237103Y-95664879D01*
X145209835Y-95640165D01*
X145185121Y-95612897D01*
X145163199Y-95583339D01*
X145144280Y-95551774D01*
X145128545Y-95518506D01*
X145116147Y-95483857D01*
X145107206Y-95448159D01*
X145101806Y-95411756D01*
X145100000Y-95375000D01*
X145100000Y-94625000D01*
X145101806Y-94588244D01*
X145107206Y-94551841D01*
X145116147Y-94516143D01*
X145128545Y-94481494D01*
X145144280Y-94448226D01*
X145163199Y-94416661D01*
X145185121Y-94387103D01*
X145209835Y-94359835D01*
X145237103Y-94335121D01*
X145266661Y-94313199D01*
X145298226Y-94294280D01*
X145331494Y-94278545D01*
X145366143Y-94266147D01*
X145401841Y-94257206D01*
X145438244Y-94251806D01*
X145475000Y-94250000D01*
X147225000Y-94250000D01*
X147261756Y-94251806D01*
X147261756Y-94251806D01*
G37*
D19*
G04 #@! TD*
G04 #@! TO.P,J3,11*
G04 #@! TO.N,Net-(J3-Pad11)*
X146350000Y-95000000D03*
D18*
G04 #@! TO.N,/Sheet5DD758E7/D3_GPS*
G04 #@! TO.C,J3*
G36*
X147261756Y-92251806D02*
X147298159Y-92257206D01*
X147333857Y-92266147D01*
X147368506Y-92278545D01*
X147401774Y-92294280D01*
X147433339Y-92313199D01*
X147462897Y-92335121D01*
X147490165Y-92359835D01*
X147514879Y-92387103D01*
X147536801Y-92416661D01*
X147555720Y-92448226D01*
X147571455Y-92481494D01*
X147583853Y-92516143D01*
X147592794Y-92551841D01*
X147598194Y-92588244D01*
X147600000Y-92625000D01*
X147600000Y-93375000D01*
X147598194Y-93411756D01*
X147592794Y-93448159D01*
X147583853Y-93483857D01*
X147571455Y-93518506D01*
X147555720Y-93551774D01*
X147536801Y-93583339D01*
X147514879Y-93612897D01*
X147490165Y-93640165D01*
X147462897Y-93664879D01*
X147433339Y-93686801D01*
X147401774Y-93705720D01*
X147368506Y-93721455D01*
X147333857Y-93733853D01*
X147298159Y-93742794D01*
X147261756Y-93748194D01*
X147225000Y-93750000D01*
X145475000Y-93750000D01*
X145438244Y-93748194D01*
X145401841Y-93742794D01*
X145366143Y-93733853D01*
X145331494Y-93721455D01*
X145298226Y-93705720D01*
X145266661Y-93686801D01*
X145237103Y-93664879D01*
X145209835Y-93640165D01*
X145185121Y-93612897D01*
X145163199Y-93583339D01*
X145144280Y-93551774D01*
X145128545Y-93518506D01*
X145116147Y-93483857D01*
X145107206Y-93448159D01*
X145101806Y-93411756D01*
X145100000Y-93375000D01*
X145100000Y-92625000D01*
X145101806Y-92588244D01*
X145107206Y-92551841D01*
X145116147Y-92516143D01*
X145128545Y-92481494D01*
X145144280Y-92448226D01*
X145163199Y-92416661D01*
X145185121Y-92387103D01*
X145209835Y-92359835D01*
X145237103Y-92335121D01*
X145266661Y-92313199D01*
X145298226Y-92294280D01*
X145331494Y-92278545D01*
X145366143Y-92266147D01*
X145401841Y-92257206D01*
X145438244Y-92251806D01*
X145475000Y-92250000D01*
X147225000Y-92250000D01*
X147261756Y-92251806D01*
X147261756Y-92251806D01*
G37*
D19*
G04 #@! TD*
G04 #@! TO.P,J3,12*
G04 #@! TO.N,/Sheet5DD758E7/D3_GPS*
X146350000Y-93000000D03*
D18*
G04 #@! TO.N,/Sheet5DD758E7/D2_GPS*
G04 #@! TO.C,J3*
G36*
X147261756Y-90251806D02*
X147298159Y-90257206D01*
X147333857Y-90266147D01*
X147368506Y-90278545D01*
X147401774Y-90294280D01*
X147433339Y-90313199D01*
X147462897Y-90335121D01*
X147490165Y-90359835D01*
X147514879Y-90387103D01*
X147536801Y-90416661D01*
X147555720Y-90448226D01*
X147571455Y-90481494D01*
X147583853Y-90516143D01*
X147592794Y-90551841D01*
X147598194Y-90588244D01*
X147600000Y-90625000D01*
X147600000Y-91375000D01*
X147598194Y-91411756D01*
X147592794Y-91448159D01*
X147583853Y-91483857D01*
X147571455Y-91518506D01*
X147555720Y-91551774D01*
X147536801Y-91583339D01*
X147514879Y-91612897D01*
X147490165Y-91640165D01*
X147462897Y-91664879D01*
X147433339Y-91686801D01*
X147401774Y-91705720D01*
X147368506Y-91721455D01*
X147333857Y-91733853D01*
X147298159Y-91742794D01*
X147261756Y-91748194D01*
X147225000Y-91750000D01*
X145475000Y-91750000D01*
X145438244Y-91748194D01*
X145401841Y-91742794D01*
X145366143Y-91733853D01*
X145331494Y-91721455D01*
X145298226Y-91705720D01*
X145266661Y-91686801D01*
X145237103Y-91664879D01*
X145209835Y-91640165D01*
X145185121Y-91612897D01*
X145163199Y-91583339D01*
X145144280Y-91551774D01*
X145128545Y-91518506D01*
X145116147Y-91483857D01*
X145107206Y-91448159D01*
X145101806Y-91411756D01*
X145100000Y-91375000D01*
X145100000Y-90625000D01*
X145101806Y-90588244D01*
X145107206Y-90551841D01*
X145116147Y-90516143D01*
X145128545Y-90481494D01*
X145144280Y-90448226D01*
X145163199Y-90416661D01*
X145185121Y-90387103D01*
X145209835Y-90359835D01*
X145237103Y-90335121D01*
X145266661Y-90313199D01*
X145298226Y-90294280D01*
X145331494Y-90278545D01*
X145366143Y-90266147D01*
X145401841Y-90257206D01*
X145438244Y-90251806D01*
X145475000Y-90250000D01*
X147225000Y-90250000D01*
X147261756Y-90251806D01*
X147261756Y-90251806D01*
G37*
D19*
G04 #@! TD*
G04 #@! TO.P,J3,13*
G04 #@! TO.N,/Sheet5DD758E7/D2_GPS*
X146350000Y-91000000D03*
D18*
G04 #@! TO.N,/Sheet5DD758E7/D1_GPS*
G04 #@! TO.C,J3*
G36*
X147261756Y-88251806D02*
X147298159Y-88257206D01*
X147333857Y-88266147D01*
X147368506Y-88278545D01*
X147401774Y-88294280D01*
X147433339Y-88313199D01*
X147462897Y-88335121D01*
X147490165Y-88359835D01*
X147514879Y-88387103D01*
X147536801Y-88416661D01*
X147555720Y-88448226D01*
X147571455Y-88481494D01*
X147583853Y-88516143D01*
X147592794Y-88551841D01*
X147598194Y-88588244D01*
X147600000Y-88625000D01*
X147600000Y-89375000D01*
X147598194Y-89411756D01*
X147592794Y-89448159D01*
X147583853Y-89483857D01*
X147571455Y-89518506D01*
X147555720Y-89551774D01*
X147536801Y-89583339D01*
X147514879Y-89612897D01*
X147490165Y-89640165D01*
X147462897Y-89664879D01*
X147433339Y-89686801D01*
X147401774Y-89705720D01*
X147368506Y-89721455D01*
X147333857Y-89733853D01*
X147298159Y-89742794D01*
X147261756Y-89748194D01*
X147225000Y-89750000D01*
X145475000Y-89750000D01*
X145438244Y-89748194D01*
X145401841Y-89742794D01*
X145366143Y-89733853D01*
X145331494Y-89721455D01*
X145298226Y-89705720D01*
X145266661Y-89686801D01*
X145237103Y-89664879D01*
X145209835Y-89640165D01*
X145185121Y-89612897D01*
X145163199Y-89583339D01*
X145144280Y-89551774D01*
X145128545Y-89518506D01*
X145116147Y-89483857D01*
X145107206Y-89448159D01*
X145101806Y-89411756D01*
X145100000Y-89375000D01*
X145100000Y-88625000D01*
X145101806Y-88588244D01*
X145107206Y-88551841D01*
X145116147Y-88516143D01*
X145128545Y-88481494D01*
X145144280Y-88448226D01*
X145163199Y-88416661D01*
X145185121Y-88387103D01*
X145209835Y-88359835D01*
X145237103Y-88335121D01*
X145266661Y-88313199D01*
X145298226Y-88294280D01*
X145331494Y-88278545D01*
X145366143Y-88266147D01*
X145401841Y-88257206D01*
X145438244Y-88251806D01*
X145475000Y-88250000D01*
X147225000Y-88250000D01*
X147261756Y-88251806D01*
X147261756Y-88251806D01*
G37*
D19*
G04 #@! TD*
G04 #@! TO.P,J3,14*
G04 #@! TO.N,/Sheet5DD758E7/D1_GPS*
X146350000Y-89000000D03*
D18*
G04 #@! TO.N,/Sheet5DD758E7/D0_GPS*
G04 #@! TO.C,J3*
G36*
X147261756Y-86251806D02*
X147298159Y-86257206D01*
X147333857Y-86266147D01*
X147368506Y-86278545D01*
X147401774Y-86294280D01*
X147433339Y-86313199D01*
X147462897Y-86335121D01*
X147490165Y-86359835D01*
X147514879Y-86387103D01*
X147536801Y-86416661D01*
X147555720Y-86448226D01*
X147571455Y-86481494D01*
X147583853Y-86516143D01*
X147592794Y-86551841D01*
X147598194Y-86588244D01*
X147600000Y-86625000D01*
X147600000Y-87375000D01*
X147598194Y-87411756D01*
X147592794Y-87448159D01*
X147583853Y-87483857D01*
X147571455Y-87518506D01*
X147555720Y-87551774D01*
X147536801Y-87583339D01*
X147514879Y-87612897D01*
X147490165Y-87640165D01*
X147462897Y-87664879D01*
X147433339Y-87686801D01*
X147401774Y-87705720D01*
X147368506Y-87721455D01*
X147333857Y-87733853D01*
X147298159Y-87742794D01*
X147261756Y-87748194D01*
X147225000Y-87750000D01*
X145475000Y-87750000D01*
X145438244Y-87748194D01*
X145401841Y-87742794D01*
X145366143Y-87733853D01*
X145331494Y-87721455D01*
X145298226Y-87705720D01*
X145266661Y-87686801D01*
X145237103Y-87664879D01*
X145209835Y-87640165D01*
X145185121Y-87612897D01*
X145163199Y-87583339D01*
X145144280Y-87551774D01*
X145128545Y-87518506D01*
X145116147Y-87483857D01*
X145107206Y-87448159D01*
X145101806Y-87411756D01*
X145100000Y-87375000D01*
X145100000Y-86625000D01*
X145101806Y-86588244D01*
X145107206Y-86551841D01*
X145116147Y-86516143D01*
X145128545Y-86481494D01*
X145144280Y-86448226D01*
X145163199Y-86416661D01*
X145185121Y-86387103D01*
X145209835Y-86359835D01*
X145237103Y-86335121D01*
X145266661Y-86313199D01*
X145298226Y-86294280D01*
X145331494Y-86278545D01*
X145366143Y-86266147D01*
X145401841Y-86257206D01*
X145438244Y-86251806D01*
X145475000Y-86250000D01*
X147225000Y-86250000D01*
X147261756Y-86251806D01*
X147261756Y-86251806D01*
G37*
D19*
G04 #@! TD*
G04 #@! TO.P,J3,15*
G04 #@! TO.N,/Sheet5DD758E7/D0_GPS*
X146350000Y-87000000D03*
D18*
G04 #@! TO.N,/Sheet5DD758E7/SHDN_GPS*
G04 #@! TO.C,J3*
G36*
X147261756Y-84251806D02*
X147298159Y-84257206D01*
X147333857Y-84266147D01*
X147368506Y-84278545D01*
X147401774Y-84294280D01*
X147433339Y-84313199D01*
X147462897Y-84335121D01*
X147490165Y-84359835D01*
X147514879Y-84387103D01*
X147536801Y-84416661D01*
X147555720Y-84448226D01*
X147571455Y-84481494D01*
X147583853Y-84516143D01*
X147592794Y-84551841D01*
X147598194Y-84588244D01*
X147600000Y-84625000D01*
X147600000Y-85375000D01*
X147598194Y-85411756D01*
X147592794Y-85448159D01*
X147583853Y-85483857D01*
X147571455Y-85518506D01*
X147555720Y-85551774D01*
X147536801Y-85583339D01*
X147514879Y-85612897D01*
X147490165Y-85640165D01*
X147462897Y-85664879D01*
X147433339Y-85686801D01*
X147401774Y-85705720D01*
X147368506Y-85721455D01*
X147333857Y-85733853D01*
X147298159Y-85742794D01*
X147261756Y-85748194D01*
X147225000Y-85750000D01*
X145475000Y-85750000D01*
X145438244Y-85748194D01*
X145401841Y-85742794D01*
X145366143Y-85733853D01*
X145331494Y-85721455D01*
X145298226Y-85705720D01*
X145266661Y-85686801D01*
X145237103Y-85664879D01*
X145209835Y-85640165D01*
X145185121Y-85612897D01*
X145163199Y-85583339D01*
X145144280Y-85551774D01*
X145128545Y-85518506D01*
X145116147Y-85483857D01*
X145107206Y-85448159D01*
X145101806Y-85411756D01*
X145100000Y-85375000D01*
X145100000Y-84625000D01*
X145101806Y-84588244D01*
X145107206Y-84551841D01*
X145116147Y-84516143D01*
X145128545Y-84481494D01*
X145144280Y-84448226D01*
X145163199Y-84416661D01*
X145185121Y-84387103D01*
X145209835Y-84359835D01*
X145237103Y-84335121D01*
X145266661Y-84313199D01*
X145298226Y-84294280D01*
X145331494Y-84278545D01*
X145366143Y-84266147D01*
X145401841Y-84257206D01*
X145438244Y-84251806D01*
X145475000Y-84250000D01*
X147225000Y-84250000D01*
X147261756Y-84251806D01*
X147261756Y-84251806D01*
G37*
D19*
G04 #@! TD*
G04 #@! TO.P,J3,16*
G04 #@! TO.N,/Sheet5DD758E7/SHDN_GPS*
X146350000Y-85000000D03*
D18*
G04 #@! TO.N,/Sheet5DD758E7/LD_GPS*
G04 #@! TO.C,J3*
G36*
X147261756Y-82251806D02*
X147298159Y-82257206D01*
X147333857Y-82266147D01*
X147368506Y-82278545D01*
X147401774Y-82294280D01*
X147433339Y-82313199D01*
X147462897Y-82335121D01*
X147490165Y-82359835D01*
X147514879Y-82387103D01*
X147536801Y-82416661D01*
X147555720Y-82448226D01*
X147571455Y-82481494D01*
X147583853Y-82516143D01*
X147592794Y-82551841D01*
X147598194Y-82588244D01*
X147600000Y-82625000D01*
X147600000Y-83375000D01*
X147598194Y-83411756D01*
X147592794Y-83448159D01*
X147583853Y-83483857D01*
X147571455Y-83518506D01*
X147555720Y-83551774D01*
X147536801Y-83583339D01*
X147514879Y-83612897D01*
X147490165Y-83640165D01*
X147462897Y-83664879D01*
X147433339Y-83686801D01*
X147401774Y-83705720D01*
X147368506Y-83721455D01*
X147333857Y-83733853D01*
X147298159Y-83742794D01*
X147261756Y-83748194D01*
X147225000Y-83750000D01*
X145475000Y-83750000D01*
X145438244Y-83748194D01*
X145401841Y-83742794D01*
X145366143Y-83733853D01*
X145331494Y-83721455D01*
X145298226Y-83705720D01*
X145266661Y-83686801D01*
X145237103Y-83664879D01*
X145209835Y-83640165D01*
X145185121Y-83612897D01*
X145163199Y-83583339D01*
X145144280Y-83551774D01*
X145128545Y-83518506D01*
X145116147Y-83483857D01*
X145107206Y-83448159D01*
X145101806Y-83411756D01*
X145100000Y-83375000D01*
X145100000Y-82625000D01*
X145101806Y-82588244D01*
X145107206Y-82551841D01*
X145116147Y-82516143D01*
X145128545Y-82481494D01*
X145144280Y-82448226D01*
X145163199Y-82416661D01*
X145185121Y-82387103D01*
X145209835Y-82359835D01*
X145237103Y-82335121D01*
X145266661Y-82313199D01*
X145298226Y-82294280D01*
X145331494Y-82278545D01*
X145366143Y-82266147D01*
X145401841Y-82257206D01*
X145438244Y-82251806D01*
X145475000Y-82250000D01*
X147225000Y-82250000D01*
X147261756Y-82251806D01*
X147261756Y-82251806D01*
G37*
D19*
G04 #@! TD*
G04 #@! TO.P,J3,17*
G04 #@! TO.N,/Sheet5DD758E7/LD_GPS*
X146350000Y-83000000D03*
D18*
G04 #@! TO.N,Net-(J3-Pad18)*
G04 #@! TO.C,J3*
G36*
X147261756Y-80251806D02*
X147298159Y-80257206D01*
X147333857Y-80266147D01*
X147368506Y-80278545D01*
X147401774Y-80294280D01*
X147433339Y-80313199D01*
X147462897Y-80335121D01*
X147490165Y-80359835D01*
X147514879Y-80387103D01*
X147536801Y-80416661D01*
X147555720Y-80448226D01*
X147571455Y-80481494D01*
X147583853Y-80516143D01*
X147592794Y-80551841D01*
X147598194Y-80588244D01*
X147600000Y-80625000D01*
X147600000Y-81375000D01*
X147598194Y-81411756D01*
X147592794Y-81448159D01*
X147583853Y-81483857D01*
X147571455Y-81518506D01*
X147555720Y-81551774D01*
X147536801Y-81583339D01*
X147514879Y-81612897D01*
X147490165Y-81640165D01*
X147462897Y-81664879D01*
X147433339Y-81686801D01*
X147401774Y-81705720D01*
X147368506Y-81721455D01*
X147333857Y-81733853D01*
X147298159Y-81742794D01*
X147261756Y-81748194D01*
X147225000Y-81750000D01*
X145475000Y-81750000D01*
X145438244Y-81748194D01*
X145401841Y-81742794D01*
X145366143Y-81733853D01*
X145331494Y-81721455D01*
X145298226Y-81705720D01*
X145266661Y-81686801D01*
X145237103Y-81664879D01*
X145209835Y-81640165D01*
X145185121Y-81612897D01*
X145163199Y-81583339D01*
X145144280Y-81551774D01*
X145128545Y-81518506D01*
X145116147Y-81483857D01*
X145107206Y-81448159D01*
X145101806Y-81411756D01*
X145100000Y-81375000D01*
X145100000Y-80625000D01*
X145101806Y-80588244D01*
X145107206Y-80551841D01*
X145116147Y-80516143D01*
X145128545Y-80481494D01*
X145144280Y-80448226D01*
X145163199Y-80416661D01*
X145185121Y-80387103D01*
X145209835Y-80359835D01*
X145237103Y-80335121D01*
X145266661Y-80313199D01*
X145298226Y-80294280D01*
X145331494Y-80278545D01*
X145366143Y-80266147D01*
X145401841Y-80257206D01*
X145438244Y-80251806D01*
X145475000Y-80250000D01*
X147225000Y-80250000D01*
X147261756Y-80251806D01*
X147261756Y-80251806D01*
G37*
D19*
G04 #@! TD*
G04 #@! TO.P,J3,18*
G04 #@! TO.N,Net-(J3-Pad18)*
X146350000Y-81000000D03*
D18*
G04 #@! TO.N,GND*
G04 #@! TO.C,J3*
G36*
X147261756Y-78251806D02*
X147298159Y-78257206D01*
X147333857Y-78266147D01*
X147368506Y-78278545D01*
X147401774Y-78294280D01*
X147433339Y-78313199D01*
X147462897Y-78335121D01*
X147490165Y-78359835D01*
X147514879Y-78387103D01*
X147536801Y-78416661D01*
X147555720Y-78448226D01*
X147571455Y-78481494D01*
X147583853Y-78516143D01*
X147592794Y-78551841D01*
X147598194Y-78588244D01*
X147600000Y-78625000D01*
X147600000Y-79375000D01*
X147598194Y-79411756D01*
X147592794Y-79448159D01*
X147583853Y-79483857D01*
X147571455Y-79518506D01*
X147555720Y-79551774D01*
X147536801Y-79583339D01*
X147514879Y-79612897D01*
X147490165Y-79640165D01*
X147462897Y-79664879D01*
X147433339Y-79686801D01*
X147401774Y-79705720D01*
X147368506Y-79721455D01*
X147333857Y-79733853D01*
X147298159Y-79742794D01*
X147261756Y-79748194D01*
X147225000Y-79750000D01*
X145475000Y-79750000D01*
X145438244Y-79748194D01*
X145401841Y-79742794D01*
X145366143Y-79733853D01*
X145331494Y-79721455D01*
X145298226Y-79705720D01*
X145266661Y-79686801D01*
X145237103Y-79664879D01*
X145209835Y-79640165D01*
X145185121Y-79612897D01*
X145163199Y-79583339D01*
X145144280Y-79551774D01*
X145128545Y-79518506D01*
X145116147Y-79483857D01*
X145107206Y-79448159D01*
X145101806Y-79411756D01*
X145100000Y-79375000D01*
X145100000Y-78625000D01*
X145101806Y-78588244D01*
X145107206Y-78551841D01*
X145116147Y-78516143D01*
X145128545Y-78481494D01*
X145144280Y-78448226D01*
X145163199Y-78416661D01*
X145185121Y-78387103D01*
X145209835Y-78359835D01*
X145237103Y-78335121D01*
X145266661Y-78313199D01*
X145298226Y-78294280D01*
X145331494Y-78278545D01*
X145366143Y-78266147D01*
X145401841Y-78257206D01*
X145438244Y-78251806D01*
X145475000Y-78250000D01*
X147225000Y-78250000D01*
X147261756Y-78251806D01*
X147261756Y-78251806D01*
G37*
D19*
G04 #@! TD*
G04 #@! TO.P,J3,19*
G04 #@! TO.N,GND*
X146350000Y-79000000D03*
D18*
G04 #@! TO.N,/Sheet5DD758E7/+5V*
G04 #@! TO.C,J3*
G36*
X147261756Y-76251806D02*
X147298159Y-76257206D01*
X147333857Y-76266147D01*
X147368506Y-76278545D01*
X147401774Y-76294280D01*
X147433339Y-76313199D01*
X147462897Y-76335121D01*
X147490165Y-76359835D01*
X147514879Y-76387103D01*
X147536801Y-76416661D01*
X147555720Y-76448226D01*
X147571455Y-76481494D01*
X147583853Y-76516143D01*
X147592794Y-76551841D01*
X147598194Y-76588244D01*
X147600000Y-76625000D01*
X147600000Y-77375000D01*
X147598194Y-77411756D01*
X147592794Y-77448159D01*
X147583853Y-77483857D01*
X147571455Y-77518506D01*
X147555720Y-77551774D01*
X147536801Y-77583339D01*
X147514879Y-77612897D01*
X147490165Y-77640165D01*
X147462897Y-77664879D01*
X147433339Y-77686801D01*
X147401774Y-77705720D01*
X147368506Y-77721455D01*
X147333857Y-77733853D01*
X147298159Y-77742794D01*
X147261756Y-77748194D01*
X147225000Y-77750000D01*
X145475000Y-77750000D01*
X145438244Y-77748194D01*
X145401841Y-77742794D01*
X145366143Y-77733853D01*
X145331494Y-77721455D01*
X145298226Y-77705720D01*
X145266661Y-77686801D01*
X145237103Y-77664879D01*
X145209835Y-77640165D01*
X145185121Y-77612897D01*
X145163199Y-77583339D01*
X145144280Y-77551774D01*
X145128545Y-77518506D01*
X145116147Y-77483857D01*
X145107206Y-77448159D01*
X145101806Y-77411756D01*
X145100000Y-77375000D01*
X145100000Y-76625000D01*
X145101806Y-76588244D01*
X145107206Y-76551841D01*
X145116147Y-76516143D01*
X145128545Y-76481494D01*
X145144280Y-76448226D01*
X145163199Y-76416661D01*
X145185121Y-76387103D01*
X145209835Y-76359835D01*
X145237103Y-76335121D01*
X145266661Y-76313199D01*
X145298226Y-76294280D01*
X145331494Y-76278545D01*
X145366143Y-76266147D01*
X145401841Y-76257206D01*
X145438244Y-76251806D01*
X145475000Y-76250000D01*
X147225000Y-76250000D01*
X147261756Y-76251806D01*
X147261756Y-76251806D01*
G37*
D19*
G04 #@! TD*
G04 #@! TO.P,J3,20*
G04 #@! TO.N,/Sheet5DD758E7/+5V*
X146350000Y-77000000D03*
D18*
G04 #@! TO.N,Net-(J4-Pad20)*
G04 #@! TO.C,J4*
G36*
X189261756Y-71251806D02*
X189298159Y-71257206D01*
X189333857Y-71266147D01*
X189368506Y-71278545D01*
X189401774Y-71294280D01*
X189433339Y-71313199D01*
X189462897Y-71335121D01*
X189490165Y-71359835D01*
X189514879Y-71387103D01*
X189536801Y-71416661D01*
X189555720Y-71448226D01*
X189571455Y-71481494D01*
X189583853Y-71516143D01*
X189592794Y-71551841D01*
X189598194Y-71588244D01*
X189600000Y-71625000D01*
X189600000Y-73375000D01*
X189598194Y-73411756D01*
X189592794Y-73448159D01*
X189583853Y-73483857D01*
X189571455Y-73518506D01*
X189555720Y-73551774D01*
X189536801Y-73583339D01*
X189514879Y-73612897D01*
X189490165Y-73640165D01*
X189462897Y-73664879D01*
X189433339Y-73686801D01*
X189401774Y-73705720D01*
X189368506Y-73721455D01*
X189333857Y-73733853D01*
X189298159Y-73742794D01*
X189261756Y-73748194D01*
X189225000Y-73750000D01*
X188475000Y-73750000D01*
X188438244Y-73748194D01*
X188401841Y-73742794D01*
X188366143Y-73733853D01*
X188331494Y-73721455D01*
X188298226Y-73705720D01*
X188266661Y-73686801D01*
X188237103Y-73664879D01*
X188209835Y-73640165D01*
X188185121Y-73612897D01*
X188163199Y-73583339D01*
X188144280Y-73551774D01*
X188128545Y-73518506D01*
X188116147Y-73483857D01*
X188107206Y-73448159D01*
X188101806Y-73411756D01*
X188100000Y-73375000D01*
X188100000Y-71625000D01*
X188101806Y-71588244D01*
X188107206Y-71551841D01*
X188116147Y-71516143D01*
X188128545Y-71481494D01*
X188144280Y-71448226D01*
X188163199Y-71416661D01*
X188185121Y-71387103D01*
X188209835Y-71359835D01*
X188237103Y-71335121D01*
X188266661Y-71313199D01*
X188298226Y-71294280D01*
X188331494Y-71278545D01*
X188366143Y-71266147D01*
X188401841Y-71257206D01*
X188438244Y-71251806D01*
X188475000Y-71250000D01*
X189225000Y-71250000D01*
X189261756Y-71251806D01*
X189261756Y-71251806D01*
G37*
D19*
G04 #@! TD*
G04 #@! TO.P,J4,20*
G04 #@! TO.N,Net-(J4-Pad20)*
X188850000Y-72500000D03*
D18*
G04 #@! TO.N,Net-(J4-Pad19)*
G04 #@! TO.C,J4*
G36*
X187261756Y-71251806D02*
X187298159Y-71257206D01*
X187333857Y-71266147D01*
X187368506Y-71278545D01*
X187401774Y-71294280D01*
X187433339Y-71313199D01*
X187462897Y-71335121D01*
X187490165Y-71359835D01*
X187514879Y-71387103D01*
X187536801Y-71416661D01*
X187555720Y-71448226D01*
X187571455Y-71481494D01*
X187583853Y-71516143D01*
X187592794Y-71551841D01*
X187598194Y-71588244D01*
X187600000Y-71625000D01*
X187600000Y-73375000D01*
X187598194Y-73411756D01*
X187592794Y-73448159D01*
X187583853Y-73483857D01*
X187571455Y-73518506D01*
X187555720Y-73551774D01*
X187536801Y-73583339D01*
X187514879Y-73612897D01*
X187490165Y-73640165D01*
X187462897Y-73664879D01*
X187433339Y-73686801D01*
X187401774Y-73705720D01*
X187368506Y-73721455D01*
X187333857Y-73733853D01*
X187298159Y-73742794D01*
X187261756Y-73748194D01*
X187225000Y-73750000D01*
X186475000Y-73750000D01*
X186438244Y-73748194D01*
X186401841Y-73742794D01*
X186366143Y-73733853D01*
X186331494Y-73721455D01*
X186298226Y-73705720D01*
X186266661Y-73686801D01*
X186237103Y-73664879D01*
X186209835Y-73640165D01*
X186185121Y-73612897D01*
X186163199Y-73583339D01*
X186144280Y-73551774D01*
X186128545Y-73518506D01*
X186116147Y-73483857D01*
X186107206Y-73448159D01*
X186101806Y-73411756D01*
X186100000Y-73375000D01*
X186100000Y-71625000D01*
X186101806Y-71588244D01*
X186107206Y-71551841D01*
X186116147Y-71516143D01*
X186128545Y-71481494D01*
X186144280Y-71448226D01*
X186163199Y-71416661D01*
X186185121Y-71387103D01*
X186209835Y-71359835D01*
X186237103Y-71335121D01*
X186266661Y-71313199D01*
X186298226Y-71294280D01*
X186331494Y-71278545D01*
X186366143Y-71266147D01*
X186401841Y-71257206D01*
X186438244Y-71251806D01*
X186475000Y-71250000D01*
X187225000Y-71250000D01*
X187261756Y-71251806D01*
X187261756Y-71251806D01*
G37*
D19*
G04 #@! TD*
G04 #@! TO.P,J4,19*
G04 #@! TO.N,Net-(J4-Pad19)*
X186850000Y-72500000D03*
D18*
G04 #@! TO.N,Net-(J4-Pad18)*
G04 #@! TO.C,J4*
G36*
X185261756Y-71251806D02*
X185298159Y-71257206D01*
X185333857Y-71266147D01*
X185368506Y-71278545D01*
X185401774Y-71294280D01*
X185433339Y-71313199D01*
X185462897Y-71335121D01*
X185490165Y-71359835D01*
X185514879Y-71387103D01*
X185536801Y-71416661D01*
X185555720Y-71448226D01*
X185571455Y-71481494D01*
X185583853Y-71516143D01*
X185592794Y-71551841D01*
X185598194Y-71588244D01*
X185600000Y-71625000D01*
X185600000Y-73375000D01*
X185598194Y-73411756D01*
X185592794Y-73448159D01*
X185583853Y-73483857D01*
X185571455Y-73518506D01*
X185555720Y-73551774D01*
X185536801Y-73583339D01*
X185514879Y-73612897D01*
X185490165Y-73640165D01*
X185462897Y-73664879D01*
X185433339Y-73686801D01*
X185401774Y-73705720D01*
X185368506Y-73721455D01*
X185333857Y-73733853D01*
X185298159Y-73742794D01*
X185261756Y-73748194D01*
X185225000Y-73750000D01*
X184475000Y-73750000D01*
X184438244Y-73748194D01*
X184401841Y-73742794D01*
X184366143Y-73733853D01*
X184331494Y-73721455D01*
X184298226Y-73705720D01*
X184266661Y-73686801D01*
X184237103Y-73664879D01*
X184209835Y-73640165D01*
X184185121Y-73612897D01*
X184163199Y-73583339D01*
X184144280Y-73551774D01*
X184128545Y-73518506D01*
X184116147Y-73483857D01*
X184107206Y-73448159D01*
X184101806Y-73411756D01*
X184100000Y-73375000D01*
X184100000Y-71625000D01*
X184101806Y-71588244D01*
X184107206Y-71551841D01*
X184116147Y-71516143D01*
X184128545Y-71481494D01*
X184144280Y-71448226D01*
X184163199Y-71416661D01*
X184185121Y-71387103D01*
X184209835Y-71359835D01*
X184237103Y-71335121D01*
X184266661Y-71313199D01*
X184298226Y-71294280D01*
X184331494Y-71278545D01*
X184366143Y-71266147D01*
X184401841Y-71257206D01*
X184438244Y-71251806D01*
X184475000Y-71250000D01*
X185225000Y-71250000D01*
X185261756Y-71251806D01*
X185261756Y-71251806D01*
G37*
D19*
G04 #@! TD*
G04 #@! TO.P,J4,18*
G04 #@! TO.N,Net-(J4-Pad18)*
X184850000Y-72500000D03*
D18*
G04 #@! TO.N,Net-(J4-Pad17)*
G04 #@! TO.C,J4*
G36*
X183261756Y-71251806D02*
X183298159Y-71257206D01*
X183333857Y-71266147D01*
X183368506Y-71278545D01*
X183401774Y-71294280D01*
X183433339Y-71313199D01*
X183462897Y-71335121D01*
X183490165Y-71359835D01*
X183514879Y-71387103D01*
X183536801Y-71416661D01*
X183555720Y-71448226D01*
X183571455Y-71481494D01*
X183583853Y-71516143D01*
X183592794Y-71551841D01*
X183598194Y-71588244D01*
X183600000Y-71625000D01*
X183600000Y-73375000D01*
X183598194Y-73411756D01*
X183592794Y-73448159D01*
X183583853Y-73483857D01*
X183571455Y-73518506D01*
X183555720Y-73551774D01*
X183536801Y-73583339D01*
X183514879Y-73612897D01*
X183490165Y-73640165D01*
X183462897Y-73664879D01*
X183433339Y-73686801D01*
X183401774Y-73705720D01*
X183368506Y-73721455D01*
X183333857Y-73733853D01*
X183298159Y-73742794D01*
X183261756Y-73748194D01*
X183225000Y-73750000D01*
X182475000Y-73750000D01*
X182438244Y-73748194D01*
X182401841Y-73742794D01*
X182366143Y-73733853D01*
X182331494Y-73721455D01*
X182298226Y-73705720D01*
X182266661Y-73686801D01*
X182237103Y-73664879D01*
X182209835Y-73640165D01*
X182185121Y-73612897D01*
X182163199Y-73583339D01*
X182144280Y-73551774D01*
X182128545Y-73518506D01*
X182116147Y-73483857D01*
X182107206Y-73448159D01*
X182101806Y-73411756D01*
X182100000Y-73375000D01*
X182100000Y-71625000D01*
X182101806Y-71588244D01*
X182107206Y-71551841D01*
X182116147Y-71516143D01*
X182128545Y-71481494D01*
X182144280Y-71448226D01*
X182163199Y-71416661D01*
X182185121Y-71387103D01*
X182209835Y-71359835D01*
X182237103Y-71335121D01*
X182266661Y-71313199D01*
X182298226Y-71294280D01*
X182331494Y-71278545D01*
X182366143Y-71266147D01*
X182401841Y-71257206D01*
X182438244Y-71251806D01*
X182475000Y-71250000D01*
X183225000Y-71250000D01*
X183261756Y-71251806D01*
X183261756Y-71251806D01*
G37*
D19*
G04 #@! TD*
G04 #@! TO.P,J4,17*
G04 #@! TO.N,Net-(J4-Pad17)*
X182850000Y-72500000D03*
D18*
G04 #@! TO.N,Net-(J4-Pad16)*
G04 #@! TO.C,J4*
G36*
X181261756Y-71251806D02*
X181298159Y-71257206D01*
X181333857Y-71266147D01*
X181368506Y-71278545D01*
X181401774Y-71294280D01*
X181433339Y-71313199D01*
X181462897Y-71335121D01*
X181490165Y-71359835D01*
X181514879Y-71387103D01*
X181536801Y-71416661D01*
X181555720Y-71448226D01*
X181571455Y-71481494D01*
X181583853Y-71516143D01*
X181592794Y-71551841D01*
X181598194Y-71588244D01*
X181600000Y-71625000D01*
X181600000Y-73375000D01*
X181598194Y-73411756D01*
X181592794Y-73448159D01*
X181583853Y-73483857D01*
X181571455Y-73518506D01*
X181555720Y-73551774D01*
X181536801Y-73583339D01*
X181514879Y-73612897D01*
X181490165Y-73640165D01*
X181462897Y-73664879D01*
X181433339Y-73686801D01*
X181401774Y-73705720D01*
X181368506Y-73721455D01*
X181333857Y-73733853D01*
X181298159Y-73742794D01*
X181261756Y-73748194D01*
X181225000Y-73750000D01*
X180475000Y-73750000D01*
X180438244Y-73748194D01*
X180401841Y-73742794D01*
X180366143Y-73733853D01*
X180331494Y-73721455D01*
X180298226Y-73705720D01*
X180266661Y-73686801D01*
X180237103Y-73664879D01*
X180209835Y-73640165D01*
X180185121Y-73612897D01*
X180163199Y-73583339D01*
X180144280Y-73551774D01*
X180128545Y-73518506D01*
X180116147Y-73483857D01*
X180107206Y-73448159D01*
X180101806Y-73411756D01*
X180100000Y-73375000D01*
X180100000Y-71625000D01*
X180101806Y-71588244D01*
X180107206Y-71551841D01*
X180116147Y-71516143D01*
X180128545Y-71481494D01*
X180144280Y-71448226D01*
X180163199Y-71416661D01*
X180185121Y-71387103D01*
X180209835Y-71359835D01*
X180237103Y-71335121D01*
X180266661Y-71313199D01*
X180298226Y-71294280D01*
X180331494Y-71278545D01*
X180366143Y-71266147D01*
X180401841Y-71257206D01*
X180438244Y-71251806D01*
X180475000Y-71250000D01*
X181225000Y-71250000D01*
X181261756Y-71251806D01*
X181261756Y-71251806D01*
G37*
D19*
G04 #@! TD*
G04 #@! TO.P,J4,16*
G04 #@! TO.N,Net-(J4-Pad16)*
X180850000Y-72500000D03*
D18*
G04 #@! TO.N,Net-(J4-Pad15)*
G04 #@! TO.C,J4*
G36*
X179261756Y-71251806D02*
X179298159Y-71257206D01*
X179333857Y-71266147D01*
X179368506Y-71278545D01*
X179401774Y-71294280D01*
X179433339Y-71313199D01*
X179462897Y-71335121D01*
X179490165Y-71359835D01*
X179514879Y-71387103D01*
X179536801Y-71416661D01*
X179555720Y-71448226D01*
X179571455Y-71481494D01*
X179583853Y-71516143D01*
X179592794Y-71551841D01*
X179598194Y-71588244D01*
X179600000Y-71625000D01*
X179600000Y-73375000D01*
X179598194Y-73411756D01*
X179592794Y-73448159D01*
X179583853Y-73483857D01*
X179571455Y-73518506D01*
X179555720Y-73551774D01*
X179536801Y-73583339D01*
X179514879Y-73612897D01*
X179490165Y-73640165D01*
X179462897Y-73664879D01*
X179433339Y-73686801D01*
X179401774Y-73705720D01*
X179368506Y-73721455D01*
X179333857Y-73733853D01*
X179298159Y-73742794D01*
X179261756Y-73748194D01*
X179225000Y-73750000D01*
X178475000Y-73750000D01*
X178438244Y-73748194D01*
X178401841Y-73742794D01*
X178366143Y-73733853D01*
X178331494Y-73721455D01*
X178298226Y-73705720D01*
X178266661Y-73686801D01*
X178237103Y-73664879D01*
X178209835Y-73640165D01*
X178185121Y-73612897D01*
X178163199Y-73583339D01*
X178144280Y-73551774D01*
X178128545Y-73518506D01*
X178116147Y-73483857D01*
X178107206Y-73448159D01*
X178101806Y-73411756D01*
X178100000Y-73375000D01*
X178100000Y-71625000D01*
X178101806Y-71588244D01*
X178107206Y-71551841D01*
X178116147Y-71516143D01*
X178128545Y-71481494D01*
X178144280Y-71448226D01*
X178163199Y-71416661D01*
X178185121Y-71387103D01*
X178209835Y-71359835D01*
X178237103Y-71335121D01*
X178266661Y-71313199D01*
X178298226Y-71294280D01*
X178331494Y-71278545D01*
X178366143Y-71266147D01*
X178401841Y-71257206D01*
X178438244Y-71251806D01*
X178475000Y-71250000D01*
X179225000Y-71250000D01*
X179261756Y-71251806D01*
X179261756Y-71251806D01*
G37*
D19*
G04 #@! TD*
G04 #@! TO.P,J4,15*
G04 #@! TO.N,Net-(J4-Pad15)*
X178850000Y-72500000D03*
D18*
G04 #@! TO.N,Net-(J4-Pad14)*
G04 #@! TO.C,J4*
G36*
X177261756Y-71251806D02*
X177298159Y-71257206D01*
X177333857Y-71266147D01*
X177368506Y-71278545D01*
X177401774Y-71294280D01*
X177433339Y-71313199D01*
X177462897Y-71335121D01*
X177490165Y-71359835D01*
X177514879Y-71387103D01*
X177536801Y-71416661D01*
X177555720Y-71448226D01*
X177571455Y-71481494D01*
X177583853Y-71516143D01*
X177592794Y-71551841D01*
X177598194Y-71588244D01*
X177600000Y-71625000D01*
X177600000Y-73375000D01*
X177598194Y-73411756D01*
X177592794Y-73448159D01*
X177583853Y-73483857D01*
X177571455Y-73518506D01*
X177555720Y-73551774D01*
X177536801Y-73583339D01*
X177514879Y-73612897D01*
X177490165Y-73640165D01*
X177462897Y-73664879D01*
X177433339Y-73686801D01*
X177401774Y-73705720D01*
X177368506Y-73721455D01*
X177333857Y-73733853D01*
X177298159Y-73742794D01*
X177261756Y-73748194D01*
X177225000Y-73750000D01*
X176475000Y-73750000D01*
X176438244Y-73748194D01*
X176401841Y-73742794D01*
X176366143Y-73733853D01*
X176331494Y-73721455D01*
X176298226Y-73705720D01*
X176266661Y-73686801D01*
X176237103Y-73664879D01*
X176209835Y-73640165D01*
X176185121Y-73612897D01*
X176163199Y-73583339D01*
X176144280Y-73551774D01*
X176128545Y-73518506D01*
X176116147Y-73483857D01*
X176107206Y-73448159D01*
X176101806Y-73411756D01*
X176100000Y-73375000D01*
X176100000Y-71625000D01*
X176101806Y-71588244D01*
X176107206Y-71551841D01*
X176116147Y-71516143D01*
X176128545Y-71481494D01*
X176144280Y-71448226D01*
X176163199Y-71416661D01*
X176185121Y-71387103D01*
X176209835Y-71359835D01*
X176237103Y-71335121D01*
X176266661Y-71313199D01*
X176298226Y-71294280D01*
X176331494Y-71278545D01*
X176366143Y-71266147D01*
X176401841Y-71257206D01*
X176438244Y-71251806D01*
X176475000Y-71250000D01*
X177225000Y-71250000D01*
X177261756Y-71251806D01*
X177261756Y-71251806D01*
G37*
D19*
G04 #@! TD*
G04 #@! TO.P,J4,14*
G04 #@! TO.N,Net-(J4-Pad14)*
X176850000Y-72500000D03*
D18*
G04 #@! TO.N,Net-(J4-Pad13)*
G04 #@! TO.C,J4*
G36*
X175261756Y-71251806D02*
X175298159Y-71257206D01*
X175333857Y-71266147D01*
X175368506Y-71278545D01*
X175401774Y-71294280D01*
X175433339Y-71313199D01*
X175462897Y-71335121D01*
X175490165Y-71359835D01*
X175514879Y-71387103D01*
X175536801Y-71416661D01*
X175555720Y-71448226D01*
X175571455Y-71481494D01*
X175583853Y-71516143D01*
X175592794Y-71551841D01*
X175598194Y-71588244D01*
X175600000Y-71625000D01*
X175600000Y-73375000D01*
X175598194Y-73411756D01*
X175592794Y-73448159D01*
X175583853Y-73483857D01*
X175571455Y-73518506D01*
X175555720Y-73551774D01*
X175536801Y-73583339D01*
X175514879Y-73612897D01*
X175490165Y-73640165D01*
X175462897Y-73664879D01*
X175433339Y-73686801D01*
X175401774Y-73705720D01*
X175368506Y-73721455D01*
X175333857Y-73733853D01*
X175298159Y-73742794D01*
X175261756Y-73748194D01*
X175225000Y-73750000D01*
X174475000Y-73750000D01*
X174438244Y-73748194D01*
X174401841Y-73742794D01*
X174366143Y-73733853D01*
X174331494Y-73721455D01*
X174298226Y-73705720D01*
X174266661Y-73686801D01*
X174237103Y-73664879D01*
X174209835Y-73640165D01*
X174185121Y-73612897D01*
X174163199Y-73583339D01*
X174144280Y-73551774D01*
X174128545Y-73518506D01*
X174116147Y-73483857D01*
X174107206Y-73448159D01*
X174101806Y-73411756D01*
X174100000Y-73375000D01*
X174100000Y-71625000D01*
X174101806Y-71588244D01*
X174107206Y-71551841D01*
X174116147Y-71516143D01*
X174128545Y-71481494D01*
X174144280Y-71448226D01*
X174163199Y-71416661D01*
X174185121Y-71387103D01*
X174209835Y-71359835D01*
X174237103Y-71335121D01*
X174266661Y-71313199D01*
X174298226Y-71294280D01*
X174331494Y-71278545D01*
X174366143Y-71266147D01*
X174401841Y-71257206D01*
X174438244Y-71251806D01*
X174475000Y-71250000D01*
X175225000Y-71250000D01*
X175261756Y-71251806D01*
X175261756Y-71251806D01*
G37*
D19*
G04 #@! TD*
G04 #@! TO.P,J4,13*
G04 #@! TO.N,Net-(J4-Pad13)*
X174850000Y-72500000D03*
D18*
G04 #@! TO.N,Net-(J4-Pad12)*
G04 #@! TO.C,J4*
G36*
X173261756Y-71251806D02*
X173298159Y-71257206D01*
X173333857Y-71266147D01*
X173368506Y-71278545D01*
X173401774Y-71294280D01*
X173433339Y-71313199D01*
X173462897Y-71335121D01*
X173490165Y-71359835D01*
X173514879Y-71387103D01*
X173536801Y-71416661D01*
X173555720Y-71448226D01*
X173571455Y-71481494D01*
X173583853Y-71516143D01*
X173592794Y-71551841D01*
X173598194Y-71588244D01*
X173600000Y-71625000D01*
X173600000Y-73375000D01*
X173598194Y-73411756D01*
X173592794Y-73448159D01*
X173583853Y-73483857D01*
X173571455Y-73518506D01*
X173555720Y-73551774D01*
X173536801Y-73583339D01*
X173514879Y-73612897D01*
X173490165Y-73640165D01*
X173462897Y-73664879D01*
X173433339Y-73686801D01*
X173401774Y-73705720D01*
X173368506Y-73721455D01*
X173333857Y-73733853D01*
X173298159Y-73742794D01*
X173261756Y-73748194D01*
X173225000Y-73750000D01*
X172475000Y-73750000D01*
X172438244Y-73748194D01*
X172401841Y-73742794D01*
X172366143Y-73733853D01*
X172331494Y-73721455D01*
X172298226Y-73705720D01*
X172266661Y-73686801D01*
X172237103Y-73664879D01*
X172209835Y-73640165D01*
X172185121Y-73612897D01*
X172163199Y-73583339D01*
X172144280Y-73551774D01*
X172128545Y-73518506D01*
X172116147Y-73483857D01*
X172107206Y-73448159D01*
X172101806Y-73411756D01*
X172100000Y-73375000D01*
X172100000Y-71625000D01*
X172101806Y-71588244D01*
X172107206Y-71551841D01*
X172116147Y-71516143D01*
X172128545Y-71481494D01*
X172144280Y-71448226D01*
X172163199Y-71416661D01*
X172185121Y-71387103D01*
X172209835Y-71359835D01*
X172237103Y-71335121D01*
X172266661Y-71313199D01*
X172298226Y-71294280D01*
X172331494Y-71278545D01*
X172366143Y-71266147D01*
X172401841Y-71257206D01*
X172438244Y-71251806D01*
X172475000Y-71250000D01*
X173225000Y-71250000D01*
X173261756Y-71251806D01*
X173261756Y-71251806D01*
G37*
D19*
G04 #@! TD*
G04 #@! TO.P,J4,12*
G04 #@! TO.N,Net-(J4-Pad12)*
X172850000Y-72500000D03*
D18*
G04 #@! TO.N,Net-(J4-Pad11)*
G04 #@! TO.C,J4*
G36*
X171261756Y-71251806D02*
X171298159Y-71257206D01*
X171333857Y-71266147D01*
X171368506Y-71278545D01*
X171401774Y-71294280D01*
X171433339Y-71313199D01*
X171462897Y-71335121D01*
X171490165Y-71359835D01*
X171514879Y-71387103D01*
X171536801Y-71416661D01*
X171555720Y-71448226D01*
X171571455Y-71481494D01*
X171583853Y-71516143D01*
X171592794Y-71551841D01*
X171598194Y-71588244D01*
X171600000Y-71625000D01*
X171600000Y-73375000D01*
X171598194Y-73411756D01*
X171592794Y-73448159D01*
X171583853Y-73483857D01*
X171571455Y-73518506D01*
X171555720Y-73551774D01*
X171536801Y-73583339D01*
X171514879Y-73612897D01*
X171490165Y-73640165D01*
X171462897Y-73664879D01*
X171433339Y-73686801D01*
X171401774Y-73705720D01*
X171368506Y-73721455D01*
X171333857Y-73733853D01*
X171298159Y-73742794D01*
X171261756Y-73748194D01*
X171225000Y-73750000D01*
X170475000Y-73750000D01*
X170438244Y-73748194D01*
X170401841Y-73742794D01*
X170366143Y-73733853D01*
X170331494Y-73721455D01*
X170298226Y-73705720D01*
X170266661Y-73686801D01*
X170237103Y-73664879D01*
X170209835Y-73640165D01*
X170185121Y-73612897D01*
X170163199Y-73583339D01*
X170144280Y-73551774D01*
X170128545Y-73518506D01*
X170116147Y-73483857D01*
X170107206Y-73448159D01*
X170101806Y-73411756D01*
X170100000Y-73375000D01*
X170100000Y-71625000D01*
X170101806Y-71588244D01*
X170107206Y-71551841D01*
X170116147Y-71516143D01*
X170128545Y-71481494D01*
X170144280Y-71448226D01*
X170163199Y-71416661D01*
X170185121Y-71387103D01*
X170209835Y-71359835D01*
X170237103Y-71335121D01*
X170266661Y-71313199D01*
X170298226Y-71294280D01*
X170331494Y-71278545D01*
X170366143Y-71266147D01*
X170401841Y-71257206D01*
X170438244Y-71251806D01*
X170475000Y-71250000D01*
X171225000Y-71250000D01*
X171261756Y-71251806D01*
X171261756Y-71251806D01*
G37*
D19*
G04 #@! TD*
G04 #@! TO.P,J4,11*
G04 #@! TO.N,Net-(J4-Pad11)*
X170850000Y-72500000D03*
D18*
G04 #@! TO.N,Net-(J4-Pad10)*
G04 #@! TO.C,J4*
G36*
X169261756Y-71251806D02*
X169298159Y-71257206D01*
X169333857Y-71266147D01*
X169368506Y-71278545D01*
X169401774Y-71294280D01*
X169433339Y-71313199D01*
X169462897Y-71335121D01*
X169490165Y-71359835D01*
X169514879Y-71387103D01*
X169536801Y-71416661D01*
X169555720Y-71448226D01*
X169571455Y-71481494D01*
X169583853Y-71516143D01*
X169592794Y-71551841D01*
X169598194Y-71588244D01*
X169600000Y-71625000D01*
X169600000Y-73375000D01*
X169598194Y-73411756D01*
X169592794Y-73448159D01*
X169583853Y-73483857D01*
X169571455Y-73518506D01*
X169555720Y-73551774D01*
X169536801Y-73583339D01*
X169514879Y-73612897D01*
X169490165Y-73640165D01*
X169462897Y-73664879D01*
X169433339Y-73686801D01*
X169401774Y-73705720D01*
X169368506Y-73721455D01*
X169333857Y-73733853D01*
X169298159Y-73742794D01*
X169261756Y-73748194D01*
X169225000Y-73750000D01*
X168475000Y-73750000D01*
X168438244Y-73748194D01*
X168401841Y-73742794D01*
X168366143Y-73733853D01*
X168331494Y-73721455D01*
X168298226Y-73705720D01*
X168266661Y-73686801D01*
X168237103Y-73664879D01*
X168209835Y-73640165D01*
X168185121Y-73612897D01*
X168163199Y-73583339D01*
X168144280Y-73551774D01*
X168128545Y-73518506D01*
X168116147Y-73483857D01*
X168107206Y-73448159D01*
X168101806Y-73411756D01*
X168100000Y-73375000D01*
X168100000Y-71625000D01*
X168101806Y-71588244D01*
X168107206Y-71551841D01*
X168116147Y-71516143D01*
X168128545Y-71481494D01*
X168144280Y-71448226D01*
X168163199Y-71416661D01*
X168185121Y-71387103D01*
X168209835Y-71359835D01*
X168237103Y-71335121D01*
X168266661Y-71313199D01*
X168298226Y-71294280D01*
X168331494Y-71278545D01*
X168366143Y-71266147D01*
X168401841Y-71257206D01*
X168438244Y-71251806D01*
X168475000Y-71250000D01*
X169225000Y-71250000D01*
X169261756Y-71251806D01*
X169261756Y-71251806D01*
G37*
D19*
G04 #@! TD*
G04 #@! TO.P,J4,10*
G04 #@! TO.N,Net-(J4-Pad10)*
X168850000Y-72500000D03*
D18*
G04 #@! TO.N,GND*
G04 #@! TO.C,J4*
G36*
X167261756Y-71251806D02*
X167298159Y-71257206D01*
X167333857Y-71266147D01*
X167368506Y-71278545D01*
X167401774Y-71294280D01*
X167433339Y-71313199D01*
X167462897Y-71335121D01*
X167490165Y-71359835D01*
X167514879Y-71387103D01*
X167536801Y-71416661D01*
X167555720Y-71448226D01*
X167571455Y-71481494D01*
X167583853Y-71516143D01*
X167592794Y-71551841D01*
X167598194Y-71588244D01*
X167600000Y-71625000D01*
X167600000Y-73375000D01*
X167598194Y-73411756D01*
X167592794Y-73448159D01*
X167583853Y-73483857D01*
X167571455Y-73518506D01*
X167555720Y-73551774D01*
X167536801Y-73583339D01*
X167514879Y-73612897D01*
X167490165Y-73640165D01*
X167462897Y-73664879D01*
X167433339Y-73686801D01*
X167401774Y-73705720D01*
X167368506Y-73721455D01*
X167333857Y-73733853D01*
X167298159Y-73742794D01*
X167261756Y-73748194D01*
X167225000Y-73750000D01*
X166475000Y-73750000D01*
X166438244Y-73748194D01*
X166401841Y-73742794D01*
X166366143Y-73733853D01*
X166331494Y-73721455D01*
X166298226Y-73705720D01*
X166266661Y-73686801D01*
X166237103Y-73664879D01*
X166209835Y-73640165D01*
X166185121Y-73612897D01*
X166163199Y-73583339D01*
X166144280Y-73551774D01*
X166128545Y-73518506D01*
X166116147Y-73483857D01*
X166107206Y-73448159D01*
X166101806Y-73411756D01*
X166100000Y-73375000D01*
X166100000Y-71625000D01*
X166101806Y-71588244D01*
X166107206Y-71551841D01*
X166116147Y-71516143D01*
X166128545Y-71481494D01*
X166144280Y-71448226D01*
X166163199Y-71416661D01*
X166185121Y-71387103D01*
X166209835Y-71359835D01*
X166237103Y-71335121D01*
X166266661Y-71313199D01*
X166298226Y-71294280D01*
X166331494Y-71278545D01*
X166366143Y-71266147D01*
X166401841Y-71257206D01*
X166438244Y-71251806D01*
X166475000Y-71250000D01*
X167225000Y-71250000D01*
X167261756Y-71251806D01*
X167261756Y-71251806D01*
G37*
D19*
G04 #@! TD*
G04 #@! TO.P,J4,9*
G04 #@! TO.N,GND*
X166850000Y-72500000D03*
D18*
G04 #@! TO.N,Net-(J4-Pad8)*
G04 #@! TO.C,J4*
G36*
X165261756Y-71251806D02*
X165298159Y-71257206D01*
X165333857Y-71266147D01*
X165368506Y-71278545D01*
X165401774Y-71294280D01*
X165433339Y-71313199D01*
X165462897Y-71335121D01*
X165490165Y-71359835D01*
X165514879Y-71387103D01*
X165536801Y-71416661D01*
X165555720Y-71448226D01*
X165571455Y-71481494D01*
X165583853Y-71516143D01*
X165592794Y-71551841D01*
X165598194Y-71588244D01*
X165600000Y-71625000D01*
X165600000Y-73375000D01*
X165598194Y-73411756D01*
X165592794Y-73448159D01*
X165583853Y-73483857D01*
X165571455Y-73518506D01*
X165555720Y-73551774D01*
X165536801Y-73583339D01*
X165514879Y-73612897D01*
X165490165Y-73640165D01*
X165462897Y-73664879D01*
X165433339Y-73686801D01*
X165401774Y-73705720D01*
X165368506Y-73721455D01*
X165333857Y-73733853D01*
X165298159Y-73742794D01*
X165261756Y-73748194D01*
X165225000Y-73750000D01*
X164475000Y-73750000D01*
X164438244Y-73748194D01*
X164401841Y-73742794D01*
X164366143Y-73733853D01*
X164331494Y-73721455D01*
X164298226Y-73705720D01*
X164266661Y-73686801D01*
X164237103Y-73664879D01*
X164209835Y-73640165D01*
X164185121Y-73612897D01*
X164163199Y-73583339D01*
X164144280Y-73551774D01*
X164128545Y-73518506D01*
X164116147Y-73483857D01*
X164107206Y-73448159D01*
X164101806Y-73411756D01*
X164100000Y-73375000D01*
X164100000Y-71625000D01*
X164101806Y-71588244D01*
X164107206Y-71551841D01*
X164116147Y-71516143D01*
X164128545Y-71481494D01*
X164144280Y-71448226D01*
X164163199Y-71416661D01*
X164185121Y-71387103D01*
X164209835Y-71359835D01*
X164237103Y-71335121D01*
X164266661Y-71313199D01*
X164298226Y-71294280D01*
X164331494Y-71278545D01*
X164366143Y-71266147D01*
X164401841Y-71257206D01*
X164438244Y-71251806D01*
X164475000Y-71250000D01*
X165225000Y-71250000D01*
X165261756Y-71251806D01*
X165261756Y-71251806D01*
G37*
D19*
G04 #@! TD*
G04 #@! TO.P,J4,8*
G04 #@! TO.N,Net-(J4-Pad8)*
X164850000Y-72500000D03*
D18*
G04 #@! TO.N,Net-(J4-Pad7)*
G04 #@! TO.C,J4*
G36*
X163261756Y-71251806D02*
X163298159Y-71257206D01*
X163333857Y-71266147D01*
X163368506Y-71278545D01*
X163401774Y-71294280D01*
X163433339Y-71313199D01*
X163462897Y-71335121D01*
X163490165Y-71359835D01*
X163514879Y-71387103D01*
X163536801Y-71416661D01*
X163555720Y-71448226D01*
X163571455Y-71481494D01*
X163583853Y-71516143D01*
X163592794Y-71551841D01*
X163598194Y-71588244D01*
X163600000Y-71625000D01*
X163600000Y-73375000D01*
X163598194Y-73411756D01*
X163592794Y-73448159D01*
X163583853Y-73483857D01*
X163571455Y-73518506D01*
X163555720Y-73551774D01*
X163536801Y-73583339D01*
X163514879Y-73612897D01*
X163490165Y-73640165D01*
X163462897Y-73664879D01*
X163433339Y-73686801D01*
X163401774Y-73705720D01*
X163368506Y-73721455D01*
X163333857Y-73733853D01*
X163298159Y-73742794D01*
X163261756Y-73748194D01*
X163225000Y-73750000D01*
X162475000Y-73750000D01*
X162438244Y-73748194D01*
X162401841Y-73742794D01*
X162366143Y-73733853D01*
X162331494Y-73721455D01*
X162298226Y-73705720D01*
X162266661Y-73686801D01*
X162237103Y-73664879D01*
X162209835Y-73640165D01*
X162185121Y-73612897D01*
X162163199Y-73583339D01*
X162144280Y-73551774D01*
X162128545Y-73518506D01*
X162116147Y-73483857D01*
X162107206Y-73448159D01*
X162101806Y-73411756D01*
X162100000Y-73375000D01*
X162100000Y-71625000D01*
X162101806Y-71588244D01*
X162107206Y-71551841D01*
X162116147Y-71516143D01*
X162128545Y-71481494D01*
X162144280Y-71448226D01*
X162163199Y-71416661D01*
X162185121Y-71387103D01*
X162209835Y-71359835D01*
X162237103Y-71335121D01*
X162266661Y-71313199D01*
X162298226Y-71294280D01*
X162331494Y-71278545D01*
X162366143Y-71266147D01*
X162401841Y-71257206D01*
X162438244Y-71251806D01*
X162475000Y-71250000D01*
X163225000Y-71250000D01*
X163261756Y-71251806D01*
X163261756Y-71251806D01*
G37*
D19*
G04 #@! TD*
G04 #@! TO.P,J4,7*
G04 #@! TO.N,Net-(J4-Pad7)*
X162850000Y-72500000D03*
D18*
G04 #@! TO.N,Net-(J4-Pad6)*
G04 #@! TO.C,J4*
G36*
X161261756Y-71251806D02*
X161298159Y-71257206D01*
X161333857Y-71266147D01*
X161368506Y-71278545D01*
X161401774Y-71294280D01*
X161433339Y-71313199D01*
X161462897Y-71335121D01*
X161490165Y-71359835D01*
X161514879Y-71387103D01*
X161536801Y-71416661D01*
X161555720Y-71448226D01*
X161571455Y-71481494D01*
X161583853Y-71516143D01*
X161592794Y-71551841D01*
X161598194Y-71588244D01*
X161600000Y-71625000D01*
X161600000Y-73375000D01*
X161598194Y-73411756D01*
X161592794Y-73448159D01*
X161583853Y-73483857D01*
X161571455Y-73518506D01*
X161555720Y-73551774D01*
X161536801Y-73583339D01*
X161514879Y-73612897D01*
X161490165Y-73640165D01*
X161462897Y-73664879D01*
X161433339Y-73686801D01*
X161401774Y-73705720D01*
X161368506Y-73721455D01*
X161333857Y-73733853D01*
X161298159Y-73742794D01*
X161261756Y-73748194D01*
X161225000Y-73750000D01*
X160475000Y-73750000D01*
X160438244Y-73748194D01*
X160401841Y-73742794D01*
X160366143Y-73733853D01*
X160331494Y-73721455D01*
X160298226Y-73705720D01*
X160266661Y-73686801D01*
X160237103Y-73664879D01*
X160209835Y-73640165D01*
X160185121Y-73612897D01*
X160163199Y-73583339D01*
X160144280Y-73551774D01*
X160128545Y-73518506D01*
X160116147Y-73483857D01*
X160107206Y-73448159D01*
X160101806Y-73411756D01*
X160100000Y-73375000D01*
X160100000Y-71625000D01*
X160101806Y-71588244D01*
X160107206Y-71551841D01*
X160116147Y-71516143D01*
X160128545Y-71481494D01*
X160144280Y-71448226D01*
X160163199Y-71416661D01*
X160185121Y-71387103D01*
X160209835Y-71359835D01*
X160237103Y-71335121D01*
X160266661Y-71313199D01*
X160298226Y-71294280D01*
X160331494Y-71278545D01*
X160366143Y-71266147D01*
X160401841Y-71257206D01*
X160438244Y-71251806D01*
X160475000Y-71250000D01*
X161225000Y-71250000D01*
X161261756Y-71251806D01*
X161261756Y-71251806D01*
G37*
D19*
G04 #@! TD*
G04 #@! TO.P,J4,6*
G04 #@! TO.N,Net-(J4-Pad6)*
X160850000Y-72500000D03*
D18*
G04 #@! TO.N,Net-(J4-Pad5)*
G04 #@! TO.C,J4*
G36*
X159261756Y-71251806D02*
X159298159Y-71257206D01*
X159333857Y-71266147D01*
X159368506Y-71278545D01*
X159401774Y-71294280D01*
X159433339Y-71313199D01*
X159462897Y-71335121D01*
X159490165Y-71359835D01*
X159514879Y-71387103D01*
X159536801Y-71416661D01*
X159555720Y-71448226D01*
X159571455Y-71481494D01*
X159583853Y-71516143D01*
X159592794Y-71551841D01*
X159598194Y-71588244D01*
X159600000Y-71625000D01*
X159600000Y-73375000D01*
X159598194Y-73411756D01*
X159592794Y-73448159D01*
X159583853Y-73483857D01*
X159571455Y-73518506D01*
X159555720Y-73551774D01*
X159536801Y-73583339D01*
X159514879Y-73612897D01*
X159490165Y-73640165D01*
X159462897Y-73664879D01*
X159433339Y-73686801D01*
X159401774Y-73705720D01*
X159368506Y-73721455D01*
X159333857Y-73733853D01*
X159298159Y-73742794D01*
X159261756Y-73748194D01*
X159225000Y-73750000D01*
X158475000Y-73750000D01*
X158438244Y-73748194D01*
X158401841Y-73742794D01*
X158366143Y-73733853D01*
X158331494Y-73721455D01*
X158298226Y-73705720D01*
X158266661Y-73686801D01*
X158237103Y-73664879D01*
X158209835Y-73640165D01*
X158185121Y-73612897D01*
X158163199Y-73583339D01*
X158144280Y-73551774D01*
X158128545Y-73518506D01*
X158116147Y-73483857D01*
X158107206Y-73448159D01*
X158101806Y-73411756D01*
X158100000Y-73375000D01*
X158100000Y-71625000D01*
X158101806Y-71588244D01*
X158107206Y-71551841D01*
X158116147Y-71516143D01*
X158128545Y-71481494D01*
X158144280Y-71448226D01*
X158163199Y-71416661D01*
X158185121Y-71387103D01*
X158209835Y-71359835D01*
X158237103Y-71335121D01*
X158266661Y-71313199D01*
X158298226Y-71294280D01*
X158331494Y-71278545D01*
X158366143Y-71266147D01*
X158401841Y-71257206D01*
X158438244Y-71251806D01*
X158475000Y-71250000D01*
X159225000Y-71250000D01*
X159261756Y-71251806D01*
X159261756Y-71251806D01*
G37*
D19*
G04 #@! TD*
G04 #@! TO.P,J4,5*
G04 #@! TO.N,Net-(J4-Pad5)*
X158850000Y-72500000D03*
D18*
G04 #@! TO.N,Net-(J4-Pad4)*
G04 #@! TO.C,J4*
G36*
X157261756Y-71251806D02*
X157298159Y-71257206D01*
X157333857Y-71266147D01*
X157368506Y-71278545D01*
X157401774Y-71294280D01*
X157433339Y-71313199D01*
X157462897Y-71335121D01*
X157490165Y-71359835D01*
X157514879Y-71387103D01*
X157536801Y-71416661D01*
X157555720Y-71448226D01*
X157571455Y-71481494D01*
X157583853Y-71516143D01*
X157592794Y-71551841D01*
X157598194Y-71588244D01*
X157600000Y-71625000D01*
X157600000Y-73375000D01*
X157598194Y-73411756D01*
X157592794Y-73448159D01*
X157583853Y-73483857D01*
X157571455Y-73518506D01*
X157555720Y-73551774D01*
X157536801Y-73583339D01*
X157514879Y-73612897D01*
X157490165Y-73640165D01*
X157462897Y-73664879D01*
X157433339Y-73686801D01*
X157401774Y-73705720D01*
X157368506Y-73721455D01*
X157333857Y-73733853D01*
X157298159Y-73742794D01*
X157261756Y-73748194D01*
X157225000Y-73750000D01*
X156475000Y-73750000D01*
X156438244Y-73748194D01*
X156401841Y-73742794D01*
X156366143Y-73733853D01*
X156331494Y-73721455D01*
X156298226Y-73705720D01*
X156266661Y-73686801D01*
X156237103Y-73664879D01*
X156209835Y-73640165D01*
X156185121Y-73612897D01*
X156163199Y-73583339D01*
X156144280Y-73551774D01*
X156128545Y-73518506D01*
X156116147Y-73483857D01*
X156107206Y-73448159D01*
X156101806Y-73411756D01*
X156100000Y-73375000D01*
X156100000Y-71625000D01*
X156101806Y-71588244D01*
X156107206Y-71551841D01*
X156116147Y-71516143D01*
X156128545Y-71481494D01*
X156144280Y-71448226D01*
X156163199Y-71416661D01*
X156185121Y-71387103D01*
X156209835Y-71359835D01*
X156237103Y-71335121D01*
X156266661Y-71313199D01*
X156298226Y-71294280D01*
X156331494Y-71278545D01*
X156366143Y-71266147D01*
X156401841Y-71257206D01*
X156438244Y-71251806D01*
X156475000Y-71250000D01*
X157225000Y-71250000D01*
X157261756Y-71251806D01*
X157261756Y-71251806D01*
G37*
D19*
G04 #@! TD*
G04 #@! TO.P,J4,4*
G04 #@! TO.N,Net-(J4-Pad4)*
X156850000Y-72500000D03*
D18*
G04 #@! TO.N,Net-(J4-Pad3)*
G04 #@! TO.C,J4*
G36*
X155261756Y-71251806D02*
X155298159Y-71257206D01*
X155333857Y-71266147D01*
X155368506Y-71278545D01*
X155401774Y-71294280D01*
X155433339Y-71313199D01*
X155462897Y-71335121D01*
X155490165Y-71359835D01*
X155514879Y-71387103D01*
X155536801Y-71416661D01*
X155555720Y-71448226D01*
X155571455Y-71481494D01*
X155583853Y-71516143D01*
X155592794Y-71551841D01*
X155598194Y-71588244D01*
X155600000Y-71625000D01*
X155600000Y-73375000D01*
X155598194Y-73411756D01*
X155592794Y-73448159D01*
X155583853Y-73483857D01*
X155571455Y-73518506D01*
X155555720Y-73551774D01*
X155536801Y-73583339D01*
X155514879Y-73612897D01*
X155490165Y-73640165D01*
X155462897Y-73664879D01*
X155433339Y-73686801D01*
X155401774Y-73705720D01*
X155368506Y-73721455D01*
X155333857Y-73733853D01*
X155298159Y-73742794D01*
X155261756Y-73748194D01*
X155225000Y-73750000D01*
X154475000Y-73750000D01*
X154438244Y-73748194D01*
X154401841Y-73742794D01*
X154366143Y-73733853D01*
X154331494Y-73721455D01*
X154298226Y-73705720D01*
X154266661Y-73686801D01*
X154237103Y-73664879D01*
X154209835Y-73640165D01*
X154185121Y-73612897D01*
X154163199Y-73583339D01*
X154144280Y-73551774D01*
X154128545Y-73518506D01*
X154116147Y-73483857D01*
X154107206Y-73448159D01*
X154101806Y-73411756D01*
X154100000Y-73375000D01*
X154100000Y-71625000D01*
X154101806Y-71588244D01*
X154107206Y-71551841D01*
X154116147Y-71516143D01*
X154128545Y-71481494D01*
X154144280Y-71448226D01*
X154163199Y-71416661D01*
X154185121Y-71387103D01*
X154209835Y-71359835D01*
X154237103Y-71335121D01*
X154266661Y-71313199D01*
X154298226Y-71294280D01*
X154331494Y-71278545D01*
X154366143Y-71266147D01*
X154401841Y-71257206D01*
X154438244Y-71251806D01*
X154475000Y-71250000D01*
X155225000Y-71250000D01*
X155261756Y-71251806D01*
X155261756Y-71251806D01*
G37*
D19*
G04 #@! TD*
G04 #@! TO.P,J4,3*
G04 #@! TO.N,Net-(J4-Pad3)*
X154850000Y-72500000D03*
D18*
G04 #@! TO.N,Net-(J4-Pad2)*
G04 #@! TO.C,J4*
G36*
X153261756Y-71251806D02*
X153298159Y-71257206D01*
X153333857Y-71266147D01*
X153368506Y-71278545D01*
X153401774Y-71294280D01*
X153433339Y-71313199D01*
X153462897Y-71335121D01*
X153490165Y-71359835D01*
X153514879Y-71387103D01*
X153536801Y-71416661D01*
X153555720Y-71448226D01*
X153571455Y-71481494D01*
X153583853Y-71516143D01*
X153592794Y-71551841D01*
X153598194Y-71588244D01*
X153600000Y-71625000D01*
X153600000Y-73375000D01*
X153598194Y-73411756D01*
X153592794Y-73448159D01*
X153583853Y-73483857D01*
X153571455Y-73518506D01*
X153555720Y-73551774D01*
X153536801Y-73583339D01*
X153514879Y-73612897D01*
X153490165Y-73640165D01*
X153462897Y-73664879D01*
X153433339Y-73686801D01*
X153401774Y-73705720D01*
X153368506Y-73721455D01*
X153333857Y-73733853D01*
X153298159Y-73742794D01*
X153261756Y-73748194D01*
X153225000Y-73750000D01*
X152475000Y-73750000D01*
X152438244Y-73748194D01*
X152401841Y-73742794D01*
X152366143Y-73733853D01*
X152331494Y-73721455D01*
X152298226Y-73705720D01*
X152266661Y-73686801D01*
X152237103Y-73664879D01*
X152209835Y-73640165D01*
X152185121Y-73612897D01*
X152163199Y-73583339D01*
X152144280Y-73551774D01*
X152128545Y-73518506D01*
X152116147Y-73483857D01*
X152107206Y-73448159D01*
X152101806Y-73411756D01*
X152100000Y-73375000D01*
X152100000Y-71625000D01*
X152101806Y-71588244D01*
X152107206Y-71551841D01*
X152116147Y-71516143D01*
X152128545Y-71481494D01*
X152144280Y-71448226D01*
X152163199Y-71416661D01*
X152185121Y-71387103D01*
X152209835Y-71359835D01*
X152237103Y-71335121D01*
X152266661Y-71313199D01*
X152298226Y-71294280D01*
X152331494Y-71278545D01*
X152366143Y-71266147D01*
X152401841Y-71257206D01*
X152438244Y-71251806D01*
X152475000Y-71250000D01*
X153225000Y-71250000D01*
X153261756Y-71251806D01*
X153261756Y-71251806D01*
G37*
D19*
G04 #@! TD*
G04 #@! TO.P,J4,2*
G04 #@! TO.N,Net-(J4-Pad2)*
X152850000Y-72500000D03*
D18*
G04 #@! TO.N,Net-(J4-Pad1)*
G04 #@! TO.C,J4*
G36*
X151261756Y-71251806D02*
X151298159Y-71257206D01*
X151333857Y-71266147D01*
X151368506Y-71278545D01*
X151401774Y-71294280D01*
X151433339Y-71313199D01*
X151462897Y-71335121D01*
X151490165Y-71359835D01*
X151514879Y-71387103D01*
X151536801Y-71416661D01*
X151555720Y-71448226D01*
X151571455Y-71481494D01*
X151583853Y-71516143D01*
X151592794Y-71551841D01*
X151598194Y-71588244D01*
X151600000Y-71625000D01*
X151600000Y-73375000D01*
X151598194Y-73411756D01*
X151592794Y-73448159D01*
X151583853Y-73483857D01*
X151571455Y-73518506D01*
X151555720Y-73551774D01*
X151536801Y-73583339D01*
X151514879Y-73612897D01*
X151490165Y-73640165D01*
X151462897Y-73664879D01*
X151433339Y-73686801D01*
X151401774Y-73705720D01*
X151368506Y-73721455D01*
X151333857Y-73733853D01*
X151298159Y-73742794D01*
X151261756Y-73748194D01*
X151225000Y-73750000D01*
X150475000Y-73750000D01*
X150438244Y-73748194D01*
X150401841Y-73742794D01*
X150366143Y-73733853D01*
X150331494Y-73721455D01*
X150298226Y-73705720D01*
X150266661Y-73686801D01*
X150237103Y-73664879D01*
X150209835Y-73640165D01*
X150185121Y-73612897D01*
X150163199Y-73583339D01*
X150144280Y-73551774D01*
X150128545Y-73518506D01*
X150116147Y-73483857D01*
X150107206Y-73448159D01*
X150101806Y-73411756D01*
X150100000Y-73375000D01*
X150100000Y-71625000D01*
X150101806Y-71588244D01*
X150107206Y-71551841D01*
X150116147Y-71516143D01*
X150128545Y-71481494D01*
X150144280Y-71448226D01*
X150163199Y-71416661D01*
X150185121Y-71387103D01*
X150209835Y-71359835D01*
X150237103Y-71335121D01*
X150266661Y-71313199D01*
X150298226Y-71294280D01*
X150331494Y-71278545D01*
X150366143Y-71266147D01*
X150401841Y-71257206D01*
X150438244Y-71251806D01*
X150475000Y-71250000D01*
X151225000Y-71250000D01*
X151261756Y-71251806D01*
X151261756Y-71251806D01*
G37*
D19*
G04 #@! TD*
G04 #@! TO.P,J4,1*
G04 #@! TO.N,Net-(J4-Pad1)*
X150850000Y-72500000D03*
D18*
G04 #@! TO.N,Net-(J6-Pad1)*
G04 #@! TO.C,J6*
G36*
X194322640Y-76386481D02*
X194352490Y-76390909D01*
X194381763Y-76398241D01*
X194410175Y-76408407D01*
X194437454Y-76421309D01*
X194463338Y-76436823D01*
X194487576Y-76454799D01*
X194509935Y-76475065D01*
X194530201Y-76497424D01*
X194548177Y-76521662D01*
X194563691Y-76547546D01*
X194576593Y-76574825D01*
X194586759Y-76603237D01*
X194594091Y-76632510D01*
X194598519Y-76662360D01*
X194600000Y-76692500D01*
X194600000Y-77307500D01*
X194598519Y-77337640D01*
X194594091Y-77367490D01*
X194586759Y-77396763D01*
X194576593Y-77425175D01*
X194563691Y-77452454D01*
X194548177Y-77478338D01*
X194530201Y-77502576D01*
X194509935Y-77524935D01*
X194487576Y-77545201D01*
X194463338Y-77563177D01*
X194437454Y-77578691D01*
X194410175Y-77591593D01*
X194381763Y-77601759D01*
X194352490Y-77609091D01*
X194322640Y-77613519D01*
X194292500Y-77615000D01*
X192407500Y-77615000D01*
X192377360Y-77613519D01*
X192347510Y-77609091D01*
X192318237Y-77601759D01*
X192289825Y-77591593D01*
X192262546Y-77578691D01*
X192236662Y-77563177D01*
X192212424Y-77545201D01*
X192190065Y-77524935D01*
X192169799Y-77502576D01*
X192151823Y-77478338D01*
X192136309Y-77452454D01*
X192123407Y-77425175D01*
X192113241Y-77396763D01*
X192105909Y-77367490D01*
X192101481Y-77337640D01*
X192100000Y-77307500D01*
X192100000Y-76692500D01*
X192101481Y-76662360D01*
X192105909Y-76632510D01*
X192113241Y-76603237D01*
X192123407Y-76574825D01*
X192136309Y-76547546D01*
X192151823Y-76521662D01*
X192169799Y-76497424D01*
X192190065Y-76475065D01*
X192212424Y-76454799D01*
X192236662Y-76436823D01*
X192262546Y-76421309D01*
X192289825Y-76408407D01*
X192318237Y-76398241D01*
X192347510Y-76390909D01*
X192377360Y-76386481D01*
X192407500Y-76385000D01*
X194292500Y-76385000D01*
X194322640Y-76386481D01*
X194322640Y-76386481D01*
G37*
D20*
G04 #@! TD*
G04 #@! TO.P,J6,1*
G04 #@! TO.N,Net-(J6-Pad1)*
X193350000Y-77000000D03*
D18*
G04 #@! TO.N,Net-(J6-Pad2)*
G04 #@! TO.C,J6*
G36*
X194322640Y-78386481D02*
X194352490Y-78390909D01*
X194381763Y-78398241D01*
X194410175Y-78408407D01*
X194437454Y-78421309D01*
X194463338Y-78436823D01*
X194487576Y-78454799D01*
X194509935Y-78475065D01*
X194530201Y-78497424D01*
X194548177Y-78521662D01*
X194563691Y-78547546D01*
X194576593Y-78574825D01*
X194586759Y-78603237D01*
X194594091Y-78632510D01*
X194598519Y-78662360D01*
X194600000Y-78692500D01*
X194600000Y-79307500D01*
X194598519Y-79337640D01*
X194594091Y-79367490D01*
X194586759Y-79396763D01*
X194576593Y-79425175D01*
X194563691Y-79452454D01*
X194548177Y-79478338D01*
X194530201Y-79502576D01*
X194509935Y-79524935D01*
X194487576Y-79545201D01*
X194463338Y-79563177D01*
X194437454Y-79578691D01*
X194410175Y-79591593D01*
X194381763Y-79601759D01*
X194352490Y-79609091D01*
X194322640Y-79613519D01*
X194292500Y-79615000D01*
X192407500Y-79615000D01*
X192377360Y-79613519D01*
X192347510Y-79609091D01*
X192318237Y-79601759D01*
X192289825Y-79591593D01*
X192262546Y-79578691D01*
X192236662Y-79563177D01*
X192212424Y-79545201D01*
X192190065Y-79524935D01*
X192169799Y-79502576D01*
X192151823Y-79478338D01*
X192136309Y-79452454D01*
X192123407Y-79425175D01*
X192113241Y-79396763D01*
X192105909Y-79367490D01*
X192101481Y-79337640D01*
X192100000Y-79307500D01*
X192100000Y-78692500D01*
X192101481Y-78662360D01*
X192105909Y-78632510D01*
X192113241Y-78603237D01*
X192123407Y-78574825D01*
X192136309Y-78547546D01*
X192151823Y-78521662D01*
X192169799Y-78497424D01*
X192190065Y-78475065D01*
X192212424Y-78454799D01*
X192236662Y-78436823D01*
X192262546Y-78421309D01*
X192289825Y-78408407D01*
X192318237Y-78398241D01*
X192347510Y-78390909D01*
X192377360Y-78386481D01*
X192407500Y-78385000D01*
X194292500Y-78385000D01*
X194322640Y-78386481D01*
X194322640Y-78386481D01*
G37*
D20*
G04 #@! TD*
G04 #@! TO.P,J6,2*
G04 #@! TO.N,Net-(J6-Pad2)*
X193350000Y-79000000D03*
D18*
G04 #@! TO.N,Net-(J6-Pad3)*
G04 #@! TO.C,J6*
G36*
X194322640Y-80386481D02*
X194352490Y-80390909D01*
X194381763Y-80398241D01*
X194410175Y-80408407D01*
X194437454Y-80421309D01*
X194463338Y-80436823D01*
X194487576Y-80454799D01*
X194509935Y-80475065D01*
X194530201Y-80497424D01*
X194548177Y-80521662D01*
X194563691Y-80547546D01*
X194576593Y-80574825D01*
X194586759Y-80603237D01*
X194594091Y-80632510D01*
X194598519Y-80662360D01*
X194600000Y-80692500D01*
X194600000Y-81307500D01*
X194598519Y-81337640D01*
X194594091Y-81367490D01*
X194586759Y-81396763D01*
X194576593Y-81425175D01*
X194563691Y-81452454D01*
X194548177Y-81478338D01*
X194530201Y-81502576D01*
X194509935Y-81524935D01*
X194487576Y-81545201D01*
X194463338Y-81563177D01*
X194437454Y-81578691D01*
X194410175Y-81591593D01*
X194381763Y-81601759D01*
X194352490Y-81609091D01*
X194322640Y-81613519D01*
X194292500Y-81615000D01*
X192407500Y-81615000D01*
X192377360Y-81613519D01*
X192347510Y-81609091D01*
X192318237Y-81601759D01*
X192289825Y-81591593D01*
X192262546Y-81578691D01*
X192236662Y-81563177D01*
X192212424Y-81545201D01*
X192190065Y-81524935D01*
X192169799Y-81502576D01*
X192151823Y-81478338D01*
X192136309Y-81452454D01*
X192123407Y-81425175D01*
X192113241Y-81396763D01*
X192105909Y-81367490D01*
X192101481Y-81337640D01*
X192100000Y-81307500D01*
X192100000Y-80692500D01*
X192101481Y-80662360D01*
X192105909Y-80632510D01*
X192113241Y-80603237D01*
X192123407Y-80574825D01*
X192136309Y-80547546D01*
X192151823Y-80521662D01*
X192169799Y-80497424D01*
X192190065Y-80475065D01*
X192212424Y-80454799D01*
X192236662Y-80436823D01*
X192262546Y-80421309D01*
X192289825Y-80408407D01*
X192318237Y-80398241D01*
X192347510Y-80390909D01*
X192377360Y-80386481D01*
X192407500Y-80385000D01*
X194292500Y-80385000D01*
X194322640Y-80386481D01*
X194322640Y-80386481D01*
G37*
D20*
G04 #@! TD*
G04 #@! TO.P,J6,3*
G04 #@! TO.N,Net-(J6-Pad3)*
X193350000Y-81000000D03*
D18*
G04 #@! TO.N,Net-(J6-Pad4)*
G04 #@! TO.C,J6*
G36*
X194322640Y-82386481D02*
X194352490Y-82390909D01*
X194381763Y-82398241D01*
X194410175Y-82408407D01*
X194437454Y-82421309D01*
X194463338Y-82436823D01*
X194487576Y-82454799D01*
X194509935Y-82475065D01*
X194530201Y-82497424D01*
X194548177Y-82521662D01*
X194563691Y-82547546D01*
X194576593Y-82574825D01*
X194586759Y-82603237D01*
X194594091Y-82632510D01*
X194598519Y-82662360D01*
X194600000Y-82692500D01*
X194600000Y-83307500D01*
X194598519Y-83337640D01*
X194594091Y-83367490D01*
X194586759Y-83396763D01*
X194576593Y-83425175D01*
X194563691Y-83452454D01*
X194548177Y-83478338D01*
X194530201Y-83502576D01*
X194509935Y-83524935D01*
X194487576Y-83545201D01*
X194463338Y-83563177D01*
X194437454Y-83578691D01*
X194410175Y-83591593D01*
X194381763Y-83601759D01*
X194352490Y-83609091D01*
X194322640Y-83613519D01*
X194292500Y-83615000D01*
X192407500Y-83615000D01*
X192377360Y-83613519D01*
X192347510Y-83609091D01*
X192318237Y-83601759D01*
X192289825Y-83591593D01*
X192262546Y-83578691D01*
X192236662Y-83563177D01*
X192212424Y-83545201D01*
X192190065Y-83524935D01*
X192169799Y-83502576D01*
X192151823Y-83478338D01*
X192136309Y-83452454D01*
X192123407Y-83425175D01*
X192113241Y-83396763D01*
X192105909Y-83367490D01*
X192101481Y-83337640D01*
X192100000Y-83307500D01*
X192100000Y-82692500D01*
X192101481Y-82662360D01*
X192105909Y-82632510D01*
X192113241Y-82603237D01*
X192123407Y-82574825D01*
X192136309Y-82547546D01*
X192151823Y-82521662D01*
X192169799Y-82497424D01*
X192190065Y-82475065D01*
X192212424Y-82454799D01*
X192236662Y-82436823D01*
X192262546Y-82421309D01*
X192289825Y-82408407D01*
X192318237Y-82398241D01*
X192347510Y-82390909D01*
X192377360Y-82386481D01*
X192407500Y-82385000D01*
X194292500Y-82385000D01*
X194322640Y-82386481D01*
X194322640Y-82386481D01*
G37*
D20*
G04 #@! TD*
G04 #@! TO.P,J6,4*
G04 #@! TO.N,Net-(J6-Pad4)*
X193350000Y-83000000D03*
D18*
G04 #@! TO.N,Net-(J6-Pad5)*
G04 #@! TO.C,J6*
G36*
X194322640Y-84386481D02*
X194352490Y-84390909D01*
X194381763Y-84398241D01*
X194410175Y-84408407D01*
X194437454Y-84421309D01*
X194463338Y-84436823D01*
X194487576Y-84454799D01*
X194509935Y-84475065D01*
X194530201Y-84497424D01*
X194548177Y-84521662D01*
X194563691Y-84547546D01*
X194576593Y-84574825D01*
X194586759Y-84603237D01*
X194594091Y-84632510D01*
X194598519Y-84662360D01*
X194600000Y-84692500D01*
X194600000Y-85307500D01*
X194598519Y-85337640D01*
X194594091Y-85367490D01*
X194586759Y-85396763D01*
X194576593Y-85425175D01*
X194563691Y-85452454D01*
X194548177Y-85478338D01*
X194530201Y-85502576D01*
X194509935Y-85524935D01*
X194487576Y-85545201D01*
X194463338Y-85563177D01*
X194437454Y-85578691D01*
X194410175Y-85591593D01*
X194381763Y-85601759D01*
X194352490Y-85609091D01*
X194322640Y-85613519D01*
X194292500Y-85615000D01*
X192407500Y-85615000D01*
X192377360Y-85613519D01*
X192347510Y-85609091D01*
X192318237Y-85601759D01*
X192289825Y-85591593D01*
X192262546Y-85578691D01*
X192236662Y-85563177D01*
X192212424Y-85545201D01*
X192190065Y-85524935D01*
X192169799Y-85502576D01*
X192151823Y-85478338D01*
X192136309Y-85452454D01*
X192123407Y-85425175D01*
X192113241Y-85396763D01*
X192105909Y-85367490D01*
X192101481Y-85337640D01*
X192100000Y-85307500D01*
X192100000Y-84692500D01*
X192101481Y-84662360D01*
X192105909Y-84632510D01*
X192113241Y-84603237D01*
X192123407Y-84574825D01*
X192136309Y-84547546D01*
X192151823Y-84521662D01*
X192169799Y-84497424D01*
X192190065Y-84475065D01*
X192212424Y-84454799D01*
X192236662Y-84436823D01*
X192262546Y-84421309D01*
X192289825Y-84408407D01*
X192318237Y-84398241D01*
X192347510Y-84390909D01*
X192377360Y-84386481D01*
X192407500Y-84385000D01*
X194292500Y-84385000D01*
X194322640Y-84386481D01*
X194322640Y-84386481D01*
G37*
D20*
G04 #@! TD*
G04 #@! TO.P,J6,5*
G04 #@! TO.N,Net-(J6-Pad5)*
X193350000Y-85000000D03*
D18*
G04 #@! TO.N,GND*
G04 #@! TO.C,J6*
G36*
X194322640Y-86386481D02*
X194352490Y-86390909D01*
X194381763Y-86398241D01*
X194410175Y-86408407D01*
X194437454Y-86421309D01*
X194463338Y-86436823D01*
X194487576Y-86454799D01*
X194509935Y-86475065D01*
X194530201Y-86497424D01*
X194548177Y-86521662D01*
X194563691Y-86547546D01*
X194576593Y-86574825D01*
X194586759Y-86603237D01*
X194594091Y-86632510D01*
X194598519Y-86662360D01*
X194600000Y-86692500D01*
X194600000Y-87307500D01*
X194598519Y-87337640D01*
X194594091Y-87367490D01*
X194586759Y-87396763D01*
X194576593Y-87425175D01*
X194563691Y-87452454D01*
X194548177Y-87478338D01*
X194530201Y-87502576D01*
X194509935Y-87524935D01*
X194487576Y-87545201D01*
X194463338Y-87563177D01*
X194437454Y-87578691D01*
X194410175Y-87591593D01*
X194381763Y-87601759D01*
X194352490Y-87609091D01*
X194322640Y-87613519D01*
X194292500Y-87615000D01*
X192407500Y-87615000D01*
X192377360Y-87613519D01*
X192347510Y-87609091D01*
X192318237Y-87601759D01*
X192289825Y-87591593D01*
X192262546Y-87578691D01*
X192236662Y-87563177D01*
X192212424Y-87545201D01*
X192190065Y-87524935D01*
X192169799Y-87502576D01*
X192151823Y-87478338D01*
X192136309Y-87452454D01*
X192123407Y-87425175D01*
X192113241Y-87396763D01*
X192105909Y-87367490D01*
X192101481Y-87337640D01*
X192100000Y-87307500D01*
X192100000Y-86692500D01*
X192101481Y-86662360D01*
X192105909Y-86632510D01*
X192113241Y-86603237D01*
X192123407Y-86574825D01*
X192136309Y-86547546D01*
X192151823Y-86521662D01*
X192169799Y-86497424D01*
X192190065Y-86475065D01*
X192212424Y-86454799D01*
X192236662Y-86436823D01*
X192262546Y-86421309D01*
X192289825Y-86408407D01*
X192318237Y-86398241D01*
X192347510Y-86390909D01*
X192377360Y-86386481D01*
X192407500Y-86385000D01*
X194292500Y-86385000D01*
X194322640Y-86386481D01*
X194322640Y-86386481D01*
G37*
D20*
G04 #@! TD*
G04 #@! TO.P,J6,6*
G04 #@! TO.N,GND*
X193350000Y-87000000D03*
D18*
G04 #@! TO.N,Net-(J6-Pad7)*
G04 #@! TO.C,J6*
G36*
X194322640Y-88386481D02*
X194352490Y-88390909D01*
X194381763Y-88398241D01*
X194410175Y-88408407D01*
X194437454Y-88421309D01*
X194463338Y-88436823D01*
X194487576Y-88454799D01*
X194509935Y-88475065D01*
X194530201Y-88497424D01*
X194548177Y-88521662D01*
X194563691Y-88547546D01*
X194576593Y-88574825D01*
X194586759Y-88603237D01*
X194594091Y-88632510D01*
X194598519Y-88662360D01*
X194600000Y-88692500D01*
X194600000Y-89307500D01*
X194598519Y-89337640D01*
X194594091Y-89367490D01*
X194586759Y-89396763D01*
X194576593Y-89425175D01*
X194563691Y-89452454D01*
X194548177Y-89478338D01*
X194530201Y-89502576D01*
X194509935Y-89524935D01*
X194487576Y-89545201D01*
X194463338Y-89563177D01*
X194437454Y-89578691D01*
X194410175Y-89591593D01*
X194381763Y-89601759D01*
X194352490Y-89609091D01*
X194322640Y-89613519D01*
X194292500Y-89615000D01*
X192407500Y-89615000D01*
X192377360Y-89613519D01*
X192347510Y-89609091D01*
X192318237Y-89601759D01*
X192289825Y-89591593D01*
X192262546Y-89578691D01*
X192236662Y-89563177D01*
X192212424Y-89545201D01*
X192190065Y-89524935D01*
X192169799Y-89502576D01*
X192151823Y-89478338D01*
X192136309Y-89452454D01*
X192123407Y-89425175D01*
X192113241Y-89396763D01*
X192105909Y-89367490D01*
X192101481Y-89337640D01*
X192100000Y-89307500D01*
X192100000Y-88692500D01*
X192101481Y-88662360D01*
X192105909Y-88632510D01*
X192113241Y-88603237D01*
X192123407Y-88574825D01*
X192136309Y-88547546D01*
X192151823Y-88521662D01*
X192169799Y-88497424D01*
X192190065Y-88475065D01*
X192212424Y-88454799D01*
X192236662Y-88436823D01*
X192262546Y-88421309D01*
X192289825Y-88408407D01*
X192318237Y-88398241D01*
X192347510Y-88390909D01*
X192377360Y-88386481D01*
X192407500Y-88385000D01*
X194292500Y-88385000D01*
X194322640Y-88386481D01*
X194322640Y-88386481D01*
G37*
D20*
G04 #@! TD*
G04 #@! TO.P,J6,7*
G04 #@! TO.N,Net-(J6-Pad7)*
X193350000Y-89000000D03*
D18*
G04 #@! TO.N,Net-(J6-Pad8)*
G04 #@! TO.C,J6*
G36*
X194322640Y-90386481D02*
X194352490Y-90390909D01*
X194381763Y-90398241D01*
X194410175Y-90408407D01*
X194437454Y-90421309D01*
X194463338Y-90436823D01*
X194487576Y-90454799D01*
X194509935Y-90475065D01*
X194530201Y-90497424D01*
X194548177Y-90521662D01*
X194563691Y-90547546D01*
X194576593Y-90574825D01*
X194586759Y-90603237D01*
X194594091Y-90632510D01*
X194598519Y-90662360D01*
X194600000Y-90692500D01*
X194600000Y-91307500D01*
X194598519Y-91337640D01*
X194594091Y-91367490D01*
X194586759Y-91396763D01*
X194576593Y-91425175D01*
X194563691Y-91452454D01*
X194548177Y-91478338D01*
X194530201Y-91502576D01*
X194509935Y-91524935D01*
X194487576Y-91545201D01*
X194463338Y-91563177D01*
X194437454Y-91578691D01*
X194410175Y-91591593D01*
X194381763Y-91601759D01*
X194352490Y-91609091D01*
X194322640Y-91613519D01*
X194292500Y-91615000D01*
X192407500Y-91615000D01*
X192377360Y-91613519D01*
X192347510Y-91609091D01*
X192318237Y-91601759D01*
X192289825Y-91591593D01*
X192262546Y-91578691D01*
X192236662Y-91563177D01*
X192212424Y-91545201D01*
X192190065Y-91524935D01*
X192169799Y-91502576D01*
X192151823Y-91478338D01*
X192136309Y-91452454D01*
X192123407Y-91425175D01*
X192113241Y-91396763D01*
X192105909Y-91367490D01*
X192101481Y-91337640D01*
X192100000Y-91307500D01*
X192100000Y-90692500D01*
X192101481Y-90662360D01*
X192105909Y-90632510D01*
X192113241Y-90603237D01*
X192123407Y-90574825D01*
X192136309Y-90547546D01*
X192151823Y-90521662D01*
X192169799Y-90497424D01*
X192190065Y-90475065D01*
X192212424Y-90454799D01*
X192236662Y-90436823D01*
X192262546Y-90421309D01*
X192289825Y-90408407D01*
X192318237Y-90398241D01*
X192347510Y-90390909D01*
X192377360Y-90386481D01*
X192407500Y-90385000D01*
X194292500Y-90385000D01*
X194322640Y-90386481D01*
X194322640Y-90386481D01*
G37*
D20*
G04 #@! TD*
G04 #@! TO.P,J6,8*
G04 #@! TO.N,Net-(J6-Pad8)*
X193350000Y-91000000D03*
D18*
G04 #@! TO.N,Net-(J6-Pad9)*
G04 #@! TO.C,J6*
G36*
X194322640Y-92386481D02*
X194352490Y-92390909D01*
X194381763Y-92398241D01*
X194410175Y-92408407D01*
X194437454Y-92421309D01*
X194463338Y-92436823D01*
X194487576Y-92454799D01*
X194509935Y-92475065D01*
X194530201Y-92497424D01*
X194548177Y-92521662D01*
X194563691Y-92547546D01*
X194576593Y-92574825D01*
X194586759Y-92603237D01*
X194594091Y-92632510D01*
X194598519Y-92662360D01*
X194600000Y-92692500D01*
X194600000Y-93307500D01*
X194598519Y-93337640D01*
X194594091Y-93367490D01*
X194586759Y-93396763D01*
X194576593Y-93425175D01*
X194563691Y-93452454D01*
X194548177Y-93478338D01*
X194530201Y-93502576D01*
X194509935Y-93524935D01*
X194487576Y-93545201D01*
X194463338Y-93563177D01*
X194437454Y-93578691D01*
X194410175Y-93591593D01*
X194381763Y-93601759D01*
X194352490Y-93609091D01*
X194322640Y-93613519D01*
X194292500Y-93615000D01*
X192407500Y-93615000D01*
X192377360Y-93613519D01*
X192347510Y-93609091D01*
X192318237Y-93601759D01*
X192289825Y-93591593D01*
X192262546Y-93578691D01*
X192236662Y-93563177D01*
X192212424Y-93545201D01*
X192190065Y-93524935D01*
X192169799Y-93502576D01*
X192151823Y-93478338D01*
X192136309Y-93452454D01*
X192123407Y-93425175D01*
X192113241Y-93396763D01*
X192105909Y-93367490D01*
X192101481Y-93337640D01*
X192100000Y-93307500D01*
X192100000Y-92692500D01*
X192101481Y-92662360D01*
X192105909Y-92632510D01*
X192113241Y-92603237D01*
X192123407Y-92574825D01*
X192136309Y-92547546D01*
X192151823Y-92521662D01*
X192169799Y-92497424D01*
X192190065Y-92475065D01*
X192212424Y-92454799D01*
X192236662Y-92436823D01*
X192262546Y-92421309D01*
X192289825Y-92408407D01*
X192318237Y-92398241D01*
X192347510Y-92390909D01*
X192377360Y-92386481D01*
X192407500Y-92385000D01*
X194292500Y-92385000D01*
X194322640Y-92386481D01*
X194322640Y-92386481D01*
G37*
D20*
G04 #@! TD*
G04 #@! TO.P,J6,9*
G04 #@! TO.N,Net-(J6-Pad9)*
X193350000Y-93000000D03*
D18*
G04 #@! TO.N,Net-(J6-Pad10)*
G04 #@! TO.C,J6*
G36*
X194322640Y-94386481D02*
X194352490Y-94390909D01*
X194381763Y-94398241D01*
X194410175Y-94408407D01*
X194437454Y-94421309D01*
X194463338Y-94436823D01*
X194487576Y-94454799D01*
X194509935Y-94475065D01*
X194530201Y-94497424D01*
X194548177Y-94521662D01*
X194563691Y-94547546D01*
X194576593Y-94574825D01*
X194586759Y-94603237D01*
X194594091Y-94632510D01*
X194598519Y-94662360D01*
X194600000Y-94692500D01*
X194600000Y-95307500D01*
X194598519Y-95337640D01*
X194594091Y-95367490D01*
X194586759Y-95396763D01*
X194576593Y-95425175D01*
X194563691Y-95452454D01*
X194548177Y-95478338D01*
X194530201Y-95502576D01*
X194509935Y-95524935D01*
X194487576Y-95545201D01*
X194463338Y-95563177D01*
X194437454Y-95578691D01*
X194410175Y-95591593D01*
X194381763Y-95601759D01*
X194352490Y-95609091D01*
X194322640Y-95613519D01*
X194292500Y-95615000D01*
X192407500Y-95615000D01*
X192377360Y-95613519D01*
X192347510Y-95609091D01*
X192318237Y-95601759D01*
X192289825Y-95591593D01*
X192262546Y-95578691D01*
X192236662Y-95563177D01*
X192212424Y-95545201D01*
X192190065Y-95524935D01*
X192169799Y-95502576D01*
X192151823Y-95478338D01*
X192136309Y-95452454D01*
X192123407Y-95425175D01*
X192113241Y-95396763D01*
X192105909Y-95367490D01*
X192101481Y-95337640D01*
X192100000Y-95307500D01*
X192100000Y-94692500D01*
X192101481Y-94662360D01*
X192105909Y-94632510D01*
X192113241Y-94603237D01*
X192123407Y-94574825D01*
X192136309Y-94547546D01*
X192151823Y-94521662D01*
X192169799Y-94497424D01*
X192190065Y-94475065D01*
X192212424Y-94454799D01*
X192236662Y-94436823D01*
X192262546Y-94421309D01*
X192289825Y-94408407D01*
X192318237Y-94398241D01*
X192347510Y-94390909D01*
X192377360Y-94386481D01*
X192407500Y-94385000D01*
X194292500Y-94385000D01*
X194322640Y-94386481D01*
X194322640Y-94386481D01*
G37*
D20*
G04 #@! TD*
G04 #@! TO.P,J6,10*
G04 #@! TO.N,Net-(J6-Pad10)*
X193350000Y-95000000D03*
D18*
G04 #@! TO.N,Net-(J6-Pad11)*
G04 #@! TO.C,J6*
G36*
X194322640Y-96386481D02*
X194352490Y-96390909D01*
X194381763Y-96398241D01*
X194410175Y-96408407D01*
X194437454Y-96421309D01*
X194463338Y-96436823D01*
X194487576Y-96454799D01*
X194509935Y-96475065D01*
X194530201Y-96497424D01*
X194548177Y-96521662D01*
X194563691Y-96547546D01*
X194576593Y-96574825D01*
X194586759Y-96603237D01*
X194594091Y-96632510D01*
X194598519Y-96662360D01*
X194600000Y-96692500D01*
X194600000Y-97307500D01*
X194598519Y-97337640D01*
X194594091Y-97367490D01*
X194586759Y-97396763D01*
X194576593Y-97425175D01*
X194563691Y-97452454D01*
X194548177Y-97478338D01*
X194530201Y-97502576D01*
X194509935Y-97524935D01*
X194487576Y-97545201D01*
X194463338Y-97563177D01*
X194437454Y-97578691D01*
X194410175Y-97591593D01*
X194381763Y-97601759D01*
X194352490Y-97609091D01*
X194322640Y-97613519D01*
X194292500Y-97615000D01*
X192407500Y-97615000D01*
X192377360Y-97613519D01*
X192347510Y-97609091D01*
X192318237Y-97601759D01*
X192289825Y-97591593D01*
X192262546Y-97578691D01*
X192236662Y-97563177D01*
X192212424Y-97545201D01*
X192190065Y-97524935D01*
X192169799Y-97502576D01*
X192151823Y-97478338D01*
X192136309Y-97452454D01*
X192123407Y-97425175D01*
X192113241Y-97396763D01*
X192105909Y-97367490D01*
X192101481Y-97337640D01*
X192100000Y-97307500D01*
X192100000Y-96692500D01*
X192101481Y-96662360D01*
X192105909Y-96632510D01*
X192113241Y-96603237D01*
X192123407Y-96574825D01*
X192136309Y-96547546D01*
X192151823Y-96521662D01*
X192169799Y-96497424D01*
X192190065Y-96475065D01*
X192212424Y-96454799D01*
X192236662Y-96436823D01*
X192262546Y-96421309D01*
X192289825Y-96408407D01*
X192318237Y-96398241D01*
X192347510Y-96390909D01*
X192377360Y-96386481D01*
X192407500Y-96385000D01*
X194292500Y-96385000D01*
X194322640Y-96386481D01*
X194322640Y-96386481D01*
G37*
D20*
G04 #@! TD*
G04 #@! TO.P,J6,11*
G04 #@! TO.N,Net-(J6-Pad11)*
X193350000Y-97000000D03*
D18*
G04 #@! TO.N,Net-(J6-Pad12)*
G04 #@! TO.C,J6*
G36*
X194322640Y-98386481D02*
X194352490Y-98390909D01*
X194381763Y-98398241D01*
X194410175Y-98408407D01*
X194437454Y-98421309D01*
X194463338Y-98436823D01*
X194487576Y-98454799D01*
X194509935Y-98475065D01*
X194530201Y-98497424D01*
X194548177Y-98521662D01*
X194563691Y-98547546D01*
X194576593Y-98574825D01*
X194586759Y-98603237D01*
X194594091Y-98632510D01*
X194598519Y-98662360D01*
X194600000Y-98692500D01*
X194600000Y-99307500D01*
X194598519Y-99337640D01*
X194594091Y-99367490D01*
X194586759Y-99396763D01*
X194576593Y-99425175D01*
X194563691Y-99452454D01*
X194548177Y-99478338D01*
X194530201Y-99502576D01*
X194509935Y-99524935D01*
X194487576Y-99545201D01*
X194463338Y-99563177D01*
X194437454Y-99578691D01*
X194410175Y-99591593D01*
X194381763Y-99601759D01*
X194352490Y-99609091D01*
X194322640Y-99613519D01*
X194292500Y-99615000D01*
X192407500Y-99615000D01*
X192377360Y-99613519D01*
X192347510Y-99609091D01*
X192318237Y-99601759D01*
X192289825Y-99591593D01*
X192262546Y-99578691D01*
X192236662Y-99563177D01*
X192212424Y-99545201D01*
X192190065Y-99524935D01*
X192169799Y-99502576D01*
X192151823Y-99478338D01*
X192136309Y-99452454D01*
X192123407Y-99425175D01*
X192113241Y-99396763D01*
X192105909Y-99367490D01*
X192101481Y-99337640D01*
X192100000Y-99307500D01*
X192100000Y-98692500D01*
X192101481Y-98662360D01*
X192105909Y-98632510D01*
X192113241Y-98603237D01*
X192123407Y-98574825D01*
X192136309Y-98547546D01*
X192151823Y-98521662D01*
X192169799Y-98497424D01*
X192190065Y-98475065D01*
X192212424Y-98454799D01*
X192236662Y-98436823D01*
X192262546Y-98421309D01*
X192289825Y-98408407D01*
X192318237Y-98398241D01*
X192347510Y-98390909D01*
X192377360Y-98386481D01*
X192407500Y-98385000D01*
X194292500Y-98385000D01*
X194322640Y-98386481D01*
X194322640Y-98386481D01*
G37*
D20*
G04 #@! TD*
G04 #@! TO.P,J6,12*
G04 #@! TO.N,Net-(J6-Pad12)*
X193350000Y-99000000D03*
D18*
G04 #@! TO.N,Net-(J6-Pad13)*
G04 #@! TO.C,J6*
G36*
X194322640Y-100386481D02*
X194352490Y-100390909D01*
X194381763Y-100398241D01*
X194410175Y-100408407D01*
X194437454Y-100421309D01*
X194463338Y-100436823D01*
X194487576Y-100454799D01*
X194509935Y-100475065D01*
X194530201Y-100497424D01*
X194548177Y-100521662D01*
X194563691Y-100547546D01*
X194576593Y-100574825D01*
X194586759Y-100603237D01*
X194594091Y-100632510D01*
X194598519Y-100662360D01*
X194600000Y-100692500D01*
X194600000Y-101307500D01*
X194598519Y-101337640D01*
X194594091Y-101367490D01*
X194586759Y-101396763D01*
X194576593Y-101425175D01*
X194563691Y-101452454D01*
X194548177Y-101478338D01*
X194530201Y-101502576D01*
X194509935Y-101524935D01*
X194487576Y-101545201D01*
X194463338Y-101563177D01*
X194437454Y-101578691D01*
X194410175Y-101591593D01*
X194381763Y-101601759D01*
X194352490Y-101609091D01*
X194322640Y-101613519D01*
X194292500Y-101615000D01*
X192407500Y-101615000D01*
X192377360Y-101613519D01*
X192347510Y-101609091D01*
X192318237Y-101601759D01*
X192289825Y-101591593D01*
X192262546Y-101578691D01*
X192236662Y-101563177D01*
X192212424Y-101545201D01*
X192190065Y-101524935D01*
X192169799Y-101502576D01*
X192151823Y-101478338D01*
X192136309Y-101452454D01*
X192123407Y-101425175D01*
X192113241Y-101396763D01*
X192105909Y-101367490D01*
X192101481Y-101337640D01*
X192100000Y-101307500D01*
X192100000Y-100692500D01*
X192101481Y-100662360D01*
X192105909Y-100632510D01*
X192113241Y-100603237D01*
X192123407Y-100574825D01*
X192136309Y-100547546D01*
X192151823Y-100521662D01*
X192169799Y-100497424D01*
X192190065Y-100475065D01*
X192212424Y-100454799D01*
X192236662Y-100436823D01*
X192262546Y-100421309D01*
X192289825Y-100408407D01*
X192318237Y-100398241D01*
X192347510Y-100390909D01*
X192377360Y-100386481D01*
X192407500Y-100385000D01*
X194292500Y-100385000D01*
X194322640Y-100386481D01*
X194322640Y-100386481D01*
G37*
D20*
G04 #@! TD*
G04 #@! TO.P,J6,13*
G04 #@! TO.N,Net-(J6-Pad13)*
X193350000Y-101000000D03*
D18*
G04 #@! TO.N,Net-(J6-Pad14)*
G04 #@! TO.C,J6*
G36*
X194322640Y-102386481D02*
X194352490Y-102390909D01*
X194381763Y-102398241D01*
X194410175Y-102408407D01*
X194437454Y-102421309D01*
X194463338Y-102436823D01*
X194487576Y-102454799D01*
X194509935Y-102475065D01*
X194530201Y-102497424D01*
X194548177Y-102521662D01*
X194563691Y-102547546D01*
X194576593Y-102574825D01*
X194586759Y-102603237D01*
X194594091Y-102632510D01*
X194598519Y-102662360D01*
X194600000Y-102692500D01*
X194600000Y-103307500D01*
X194598519Y-103337640D01*
X194594091Y-103367490D01*
X194586759Y-103396763D01*
X194576593Y-103425175D01*
X194563691Y-103452454D01*
X194548177Y-103478338D01*
X194530201Y-103502576D01*
X194509935Y-103524935D01*
X194487576Y-103545201D01*
X194463338Y-103563177D01*
X194437454Y-103578691D01*
X194410175Y-103591593D01*
X194381763Y-103601759D01*
X194352490Y-103609091D01*
X194322640Y-103613519D01*
X194292500Y-103615000D01*
X192407500Y-103615000D01*
X192377360Y-103613519D01*
X192347510Y-103609091D01*
X192318237Y-103601759D01*
X192289825Y-103591593D01*
X192262546Y-103578691D01*
X192236662Y-103563177D01*
X192212424Y-103545201D01*
X192190065Y-103524935D01*
X192169799Y-103502576D01*
X192151823Y-103478338D01*
X192136309Y-103452454D01*
X192123407Y-103425175D01*
X192113241Y-103396763D01*
X192105909Y-103367490D01*
X192101481Y-103337640D01*
X192100000Y-103307500D01*
X192100000Y-102692500D01*
X192101481Y-102662360D01*
X192105909Y-102632510D01*
X192113241Y-102603237D01*
X192123407Y-102574825D01*
X192136309Y-102547546D01*
X192151823Y-102521662D01*
X192169799Y-102497424D01*
X192190065Y-102475065D01*
X192212424Y-102454799D01*
X192236662Y-102436823D01*
X192262546Y-102421309D01*
X192289825Y-102408407D01*
X192318237Y-102398241D01*
X192347510Y-102390909D01*
X192377360Y-102386481D01*
X192407500Y-102385000D01*
X194292500Y-102385000D01*
X194322640Y-102386481D01*
X194322640Y-102386481D01*
G37*
D20*
G04 #@! TD*
G04 #@! TO.P,J6,14*
G04 #@! TO.N,Net-(J6-Pad14)*
X193350000Y-103000000D03*
D18*
G04 #@! TO.N,Net-(J6-Pad15)*
G04 #@! TO.C,J6*
G36*
X194322640Y-104386481D02*
X194352490Y-104390909D01*
X194381763Y-104398241D01*
X194410175Y-104408407D01*
X194437454Y-104421309D01*
X194463338Y-104436823D01*
X194487576Y-104454799D01*
X194509935Y-104475065D01*
X194530201Y-104497424D01*
X194548177Y-104521662D01*
X194563691Y-104547546D01*
X194576593Y-104574825D01*
X194586759Y-104603237D01*
X194594091Y-104632510D01*
X194598519Y-104662360D01*
X194600000Y-104692500D01*
X194600000Y-105307500D01*
X194598519Y-105337640D01*
X194594091Y-105367490D01*
X194586759Y-105396763D01*
X194576593Y-105425175D01*
X194563691Y-105452454D01*
X194548177Y-105478338D01*
X194530201Y-105502576D01*
X194509935Y-105524935D01*
X194487576Y-105545201D01*
X194463338Y-105563177D01*
X194437454Y-105578691D01*
X194410175Y-105591593D01*
X194381763Y-105601759D01*
X194352490Y-105609091D01*
X194322640Y-105613519D01*
X194292500Y-105615000D01*
X192407500Y-105615000D01*
X192377360Y-105613519D01*
X192347510Y-105609091D01*
X192318237Y-105601759D01*
X192289825Y-105591593D01*
X192262546Y-105578691D01*
X192236662Y-105563177D01*
X192212424Y-105545201D01*
X192190065Y-105524935D01*
X192169799Y-105502576D01*
X192151823Y-105478338D01*
X192136309Y-105452454D01*
X192123407Y-105425175D01*
X192113241Y-105396763D01*
X192105909Y-105367490D01*
X192101481Y-105337640D01*
X192100000Y-105307500D01*
X192100000Y-104692500D01*
X192101481Y-104662360D01*
X192105909Y-104632510D01*
X192113241Y-104603237D01*
X192123407Y-104574825D01*
X192136309Y-104547546D01*
X192151823Y-104521662D01*
X192169799Y-104497424D01*
X192190065Y-104475065D01*
X192212424Y-104454799D01*
X192236662Y-104436823D01*
X192262546Y-104421309D01*
X192289825Y-104408407D01*
X192318237Y-104398241D01*
X192347510Y-104390909D01*
X192377360Y-104386481D01*
X192407500Y-104385000D01*
X194292500Y-104385000D01*
X194322640Y-104386481D01*
X194322640Y-104386481D01*
G37*
D20*
G04 #@! TD*
G04 #@! TO.P,J6,15*
G04 #@! TO.N,Net-(J6-Pad15)*
X193350000Y-105000000D03*
D18*
G04 #@! TO.N,Net-(J6-Pad16)*
G04 #@! TO.C,J6*
G36*
X194322640Y-106386481D02*
X194352490Y-106390909D01*
X194381763Y-106398241D01*
X194410175Y-106408407D01*
X194437454Y-106421309D01*
X194463338Y-106436823D01*
X194487576Y-106454799D01*
X194509935Y-106475065D01*
X194530201Y-106497424D01*
X194548177Y-106521662D01*
X194563691Y-106547546D01*
X194576593Y-106574825D01*
X194586759Y-106603237D01*
X194594091Y-106632510D01*
X194598519Y-106662360D01*
X194600000Y-106692500D01*
X194600000Y-107307500D01*
X194598519Y-107337640D01*
X194594091Y-107367490D01*
X194586759Y-107396763D01*
X194576593Y-107425175D01*
X194563691Y-107452454D01*
X194548177Y-107478338D01*
X194530201Y-107502576D01*
X194509935Y-107524935D01*
X194487576Y-107545201D01*
X194463338Y-107563177D01*
X194437454Y-107578691D01*
X194410175Y-107591593D01*
X194381763Y-107601759D01*
X194352490Y-107609091D01*
X194322640Y-107613519D01*
X194292500Y-107615000D01*
X192407500Y-107615000D01*
X192377360Y-107613519D01*
X192347510Y-107609091D01*
X192318237Y-107601759D01*
X192289825Y-107591593D01*
X192262546Y-107578691D01*
X192236662Y-107563177D01*
X192212424Y-107545201D01*
X192190065Y-107524935D01*
X192169799Y-107502576D01*
X192151823Y-107478338D01*
X192136309Y-107452454D01*
X192123407Y-107425175D01*
X192113241Y-107396763D01*
X192105909Y-107367490D01*
X192101481Y-107337640D01*
X192100000Y-107307500D01*
X192100000Y-106692500D01*
X192101481Y-106662360D01*
X192105909Y-106632510D01*
X192113241Y-106603237D01*
X192123407Y-106574825D01*
X192136309Y-106547546D01*
X192151823Y-106521662D01*
X192169799Y-106497424D01*
X192190065Y-106475065D01*
X192212424Y-106454799D01*
X192236662Y-106436823D01*
X192262546Y-106421309D01*
X192289825Y-106408407D01*
X192318237Y-106398241D01*
X192347510Y-106390909D01*
X192377360Y-106386481D01*
X192407500Y-106385000D01*
X194292500Y-106385000D01*
X194322640Y-106386481D01*
X194322640Y-106386481D01*
G37*
D20*
G04 #@! TD*
G04 #@! TO.P,J6,16*
G04 #@! TO.N,Net-(J6-Pad16)*
X193350000Y-107000000D03*
D18*
G04 #@! TO.N,Net-(J6-Pad17)*
G04 #@! TO.C,J6*
G36*
X194322640Y-108386481D02*
X194352490Y-108390909D01*
X194381763Y-108398241D01*
X194410175Y-108408407D01*
X194437454Y-108421309D01*
X194463338Y-108436823D01*
X194487576Y-108454799D01*
X194509935Y-108475065D01*
X194530201Y-108497424D01*
X194548177Y-108521662D01*
X194563691Y-108547546D01*
X194576593Y-108574825D01*
X194586759Y-108603237D01*
X194594091Y-108632510D01*
X194598519Y-108662360D01*
X194600000Y-108692500D01*
X194600000Y-109307500D01*
X194598519Y-109337640D01*
X194594091Y-109367490D01*
X194586759Y-109396763D01*
X194576593Y-109425175D01*
X194563691Y-109452454D01*
X194548177Y-109478338D01*
X194530201Y-109502576D01*
X194509935Y-109524935D01*
X194487576Y-109545201D01*
X194463338Y-109563177D01*
X194437454Y-109578691D01*
X194410175Y-109591593D01*
X194381763Y-109601759D01*
X194352490Y-109609091D01*
X194322640Y-109613519D01*
X194292500Y-109615000D01*
X192407500Y-109615000D01*
X192377360Y-109613519D01*
X192347510Y-109609091D01*
X192318237Y-109601759D01*
X192289825Y-109591593D01*
X192262546Y-109578691D01*
X192236662Y-109563177D01*
X192212424Y-109545201D01*
X192190065Y-109524935D01*
X192169799Y-109502576D01*
X192151823Y-109478338D01*
X192136309Y-109452454D01*
X192123407Y-109425175D01*
X192113241Y-109396763D01*
X192105909Y-109367490D01*
X192101481Y-109337640D01*
X192100000Y-109307500D01*
X192100000Y-108692500D01*
X192101481Y-108662360D01*
X192105909Y-108632510D01*
X192113241Y-108603237D01*
X192123407Y-108574825D01*
X192136309Y-108547546D01*
X192151823Y-108521662D01*
X192169799Y-108497424D01*
X192190065Y-108475065D01*
X192212424Y-108454799D01*
X192236662Y-108436823D01*
X192262546Y-108421309D01*
X192289825Y-108408407D01*
X192318237Y-108398241D01*
X192347510Y-108390909D01*
X192377360Y-108386481D01*
X192407500Y-108385000D01*
X194292500Y-108385000D01*
X194322640Y-108386481D01*
X194322640Y-108386481D01*
G37*
D20*
G04 #@! TD*
G04 #@! TO.P,J6,17*
G04 #@! TO.N,Net-(J6-Pad17)*
X193350000Y-109000000D03*
D18*
G04 #@! TO.N,Net-(J6-Pad18)*
G04 #@! TO.C,J6*
G36*
X194322640Y-110386481D02*
X194352490Y-110390909D01*
X194381763Y-110398241D01*
X194410175Y-110408407D01*
X194437454Y-110421309D01*
X194463338Y-110436823D01*
X194487576Y-110454799D01*
X194509935Y-110475065D01*
X194530201Y-110497424D01*
X194548177Y-110521662D01*
X194563691Y-110547546D01*
X194576593Y-110574825D01*
X194586759Y-110603237D01*
X194594091Y-110632510D01*
X194598519Y-110662360D01*
X194600000Y-110692500D01*
X194600000Y-111307500D01*
X194598519Y-111337640D01*
X194594091Y-111367490D01*
X194586759Y-111396763D01*
X194576593Y-111425175D01*
X194563691Y-111452454D01*
X194548177Y-111478338D01*
X194530201Y-111502576D01*
X194509935Y-111524935D01*
X194487576Y-111545201D01*
X194463338Y-111563177D01*
X194437454Y-111578691D01*
X194410175Y-111591593D01*
X194381763Y-111601759D01*
X194352490Y-111609091D01*
X194322640Y-111613519D01*
X194292500Y-111615000D01*
X192407500Y-111615000D01*
X192377360Y-111613519D01*
X192347510Y-111609091D01*
X192318237Y-111601759D01*
X192289825Y-111591593D01*
X192262546Y-111578691D01*
X192236662Y-111563177D01*
X192212424Y-111545201D01*
X192190065Y-111524935D01*
X192169799Y-111502576D01*
X192151823Y-111478338D01*
X192136309Y-111452454D01*
X192123407Y-111425175D01*
X192113241Y-111396763D01*
X192105909Y-111367490D01*
X192101481Y-111337640D01*
X192100000Y-111307500D01*
X192100000Y-110692500D01*
X192101481Y-110662360D01*
X192105909Y-110632510D01*
X192113241Y-110603237D01*
X192123407Y-110574825D01*
X192136309Y-110547546D01*
X192151823Y-110521662D01*
X192169799Y-110497424D01*
X192190065Y-110475065D01*
X192212424Y-110454799D01*
X192236662Y-110436823D01*
X192262546Y-110421309D01*
X192289825Y-110408407D01*
X192318237Y-110398241D01*
X192347510Y-110390909D01*
X192377360Y-110386481D01*
X192407500Y-110385000D01*
X194292500Y-110385000D01*
X194322640Y-110386481D01*
X194322640Y-110386481D01*
G37*
D20*
G04 #@! TD*
G04 #@! TO.P,J6,18*
G04 #@! TO.N,Net-(J6-Pad18)*
X193350000Y-111000000D03*
D18*
G04 #@! TO.N,Net-(J6-Pad19)*
G04 #@! TO.C,J6*
G36*
X194322640Y-112386481D02*
X194352490Y-112390909D01*
X194381763Y-112398241D01*
X194410175Y-112408407D01*
X194437454Y-112421309D01*
X194463338Y-112436823D01*
X194487576Y-112454799D01*
X194509935Y-112475065D01*
X194530201Y-112497424D01*
X194548177Y-112521662D01*
X194563691Y-112547546D01*
X194576593Y-112574825D01*
X194586759Y-112603237D01*
X194594091Y-112632510D01*
X194598519Y-112662360D01*
X194600000Y-112692500D01*
X194600000Y-113307500D01*
X194598519Y-113337640D01*
X194594091Y-113367490D01*
X194586759Y-113396763D01*
X194576593Y-113425175D01*
X194563691Y-113452454D01*
X194548177Y-113478338D01*
X194530201Y-113502576D01*
X194509935Y-113524935D01*
X194487576Y-113545201D01*
X194463338Y-113563177D01*
X194437454Y-113578691D01*
X194410175Y-113591593D01*
X194381763Y-113601759D01*
X194352490Y-113609091D01*
X194322640Y-113613519D01*
X194292500Y-113615000D01*
X192407500Y-113615000D01*
X192377360Y-113613519D01*
X192347510Y-113609091D01*
X192318237Y-113601759D01*
X192289825Y-113591593D01*
X192262546Y-113578691D01*
X192236662Y-113563177D01*
X192212424Y-113545201D01*
X192190065Y-113524935D01*
X192169799Y-113502576D01*
X192151823Y-113478338D01*
X192136309Y-113452454D01*
X192123407Y-113425175D01*
X192113241Y-113396763D01*
X192105909Y-113367490D01*
X192101481Y-113337640D01*
X192100000Y-113307500D01*
X192100000Y-112692500D01*
X192101481Y-112662360D01*
X192105909Y-112632510D01*
X192113241Y-112603237D01*
X192123407Y-112574825D01*
X192136309Y-112547546D01*
X192151823Y-112521662D01*
X192169799Y-112497424D01*
X192190065Y-112475065D01*
X192212424Y-112454799D01*
X192236662Y-112436823D01*
X192262546Y-112421309D01*
X192289825Y-112408407D01*
X192318237Y-112398241D01*
X192347510Y-112390909D01*
X192377360Y-112386481D01*
X192407500Y-112385000D01*
X194292500Y-112385000D01*
X194322640Y-112386481D01*
X194322640Y-112386481D01*
G37*
D20*
G04 #@! TD*
G04 #@! TO.P,J6,19*
G04 #@! TO.N,Net-(J6-Pad19)*
X193350000Y-113000000D03*
D18*
G04 #@! TO.N,Net-(J6-Pad20)*
G04 #@! TO.C,J6*
G36*
X194322640Y-114386481D02*
X194352490Y-114390909D01*
X194381763Y-114398241D01*
X194410175Y-114408407D01*
X194437454Y-114421309D01*
X194463338Y-114436823D01*
X194487576Y-114454799D01*
X194509935Y-114475065D01*
X194530201Y-114497424D01*
X194548177Y-114521662D01*
X194563691Y-114547546D01*
X194576593Y-114574825D01*
X194586759Y-114603237D01*
X194594091Y-114632510D01*
X194598519Y-114662360D01*
X194600000Y-114692500D01*
X194600000Y-115307500D01*
X194598519Y-115337640D01*
X194594091Y-115367490D01*
X194586759Y-115396763D01*
X194576593Y-115425175D01*
X194563691Y-115452454D01*
X194548177Y-115478338D01*
X194530201Y-115502576D01*
X194509935Y-115524935D01*
X194487576Y-115545201D01*
X194463338Y-115563177D01*
X194437454Y-115578691D01*
X194410175Y-115591593D01*
X194381763Y-115601759D01*
X194352490Y-115609091D01*
X194322640Y-115613519D01*
X194292500Y-115615000D01*
X192407500Y-115615000D01*
X192377360Y-115613519D01*
X192347510Y-115609091D01*
X192318237Y-115601759D01*
X192289825Y-115591593D01*
X192262546Y-115578691D01*
X192236662Y-115563177D01*
X192212424Y-115545201D01*
X192190065Y-115524935D01*
X192169799Y-115502576D01*
X192151823Y-115478338D01*
X192136309Y-115452454D01*
X192123407Y-115425175D01*
X192113241Y-115396763D01*
X192105909Y-115367490D01*
X192101481Y-115337640D01*
X192100000Y-115307500D01*
X192100000Y-114692500D01*
X192101481Y-114662360D01*
X192105909Y-114632510D01*
X192113241Y-114603237D01*
X192123407Y-114574825D01*
X192136309Y-114547546D01*
X192151823Y-114521662D01*
X192169799Y-114497424D01*
X192190065Y-114475065D01*
X192212424Y-114454799D01*
X192236662Y-114436823D01*
X192262546Y-114421309D01*
X192289825Y-114408407D01*
X192318237Y-114398241D01*
X192347510Y-114390909D01*
X192377360Y-114386481D01*
X192407500Y-114385000D01*
X194292500Y-114385000D01*
X194322640Y-114386481D01*
X194322640Y-114386481D01*
G37*
D20*
G04 #@! TD*
G04 #@! TO.P,J6,20*
G04 #@! TO.N,Net-(J6-Pad20)*
X193350000Y-115000000D03*
D13*
G04 #@! TO.P,TP1,1*
G04 #@! TO.N,/Sheet5DD758E7/SCLK_GPS*
X135020000Y-104600000D03*
G04 #@! TD*
G04 #@! TO.P,TP2,1*
G04 #@! TO.N,/Sheet5DD758E7/SCS_GPS*
X134280000Y-114990000D03*
G04 #@! TD*
G04 #@! TO.P,TP3,1*
G04 #@! TO.N,/Sheet5DD758E7/SDO_GPS*
X135810000Y-111160000D03*
G04 #@! TD*
G04 #@! TO.P,TP4,1*
G04 #@! TO.N,Net-(J2-Pad8)*
X136660000Y-97270000D03*
G04 #@! TD*
G04 #@! TO.P,TP6,1*
G04 #@! TO.N,Net-(J2-Pad9)*
X135250000Y-99850000D03*
G04 #@! TD*
G04 #@! TO.P,TP7,1*
G04 #@! TO.N,Net-(J5-Pad2)*
X186840000Y-123050000D03*
G04 #@! TD*
G04 #@! TO.P,TP8,1*
G04 #@! TO.N,Net-(J7-Pad1)*
X197700000Y-112090000D03*
G04 #@! TD*
D21*
G04 #@! TO.N,GND*
X130000000Y-82540000D02*
X132540000Y-82540000D01*
X137640400Y-78689200D02*
X139090400Y-78689200D01*
X137592881Y-78689200D02*
X137640400Y-78689200D01*
X133742081Y-82540000D02*
X137592881Y-78689200D01*
X132540000Y-82540000D02*
X133742081Y-82540000D01*
X139090400Y-78689200D02*
X142443200Y-78689200D01*
X142754000Y-79000000D02*
X146350000Y-79000000D01*
X142443200Y-78689200D02*
X142754000Y-79000000D01*
D22*
X147700000Y-79000000D02*
X147706000Y-78994000D01*
X146350000Y-79000000D02*
X147700000Y-79000000D01*
X147706000Y-78994000D02*
X163068000Y-78994000D01*
X166850000Y-75212000D02*
X166850000Y-72500000D01*
X163068000Y-78994000D02*
X166850000Y-75212000D01*
X166850000Y-75212000D02*
X166850000Y-75283000D01*
X166850000Y-75283000D02*
X178567000Y-87000000D01*
X184912000Y-87000000D02*
X183129000Y-87000000D01*
X178567000Y-87000000D02*
X184912000Y-87000000D01*
X184912000Y-87000000D02*
X193350000Y-87000000D01*
X172850000Y-97279000D02*
X172850000Y-119500000D01*
X183129000Y-87000000D02*
X172850000Y-97279000D01*
X209500000Y-121250000D02*
X208840000Y-121910000D01*
X209500000Y-87250000D02*
X209500000Y-121250000D01*
X208840000Y-121910000D02*
X205290000Y-121910000D01*
X193350000Y-87000000D02*
X209750000Y-87000000D01*
X209750000Y-87000000D02*
X209500000Y-87250000D01*
D21*
G04 #@! TO.N,/Sheet5DD758E7/+5V*
X130000000Y-80000000D02*
X132540000Y-80000000D01*
X132540000Y-80000000D02*
X132540000Y-77010000D01*
X132540000Y-77010000D02*
X134112000Y-75438000D01*
X134112000Y-75438000D02*
X142748000Y-75438000D01*
X144310000Y-77000000D02*
X146350000Y-77000000D01*
X142748000Y-75438000D02*
X144310000Y-77000000D01*
G04 #@! TO.N,/Sheet5DD758E7/LD_GPS*
X133742081Y-85080000D02*
X135763000Y-83059081D01*
X132540000Y-85080000D02*
X133742081Y-85080000D01*
X135763000Y-83059081D02*
X135763000Y-83058000D01*
X137591800Y-81229200D02*
X139090400Y-81229200D01*
X135763000Y-83058000D02*
X137591800Y-81229200D01*
X145000000Y-83000000D02*
X146350000Y-83000000D01*
X140292481Y-81229200D02*
X142063281Y-83000000D01*
X142063281Y-83000000D02*
X145000000Y-83000000D01*
X139090400Y-81229200D02*
X140292481Y-81229200D01*
G04 #@! TO.N,/Sheet5DD758E7/SHDN_GPS*
X132540000Y-87620000D02*
X133868000Y-87620000D01*
X137718800Y-83769200D02*
X139090400Y-83769200D01*
X133868000Y-87620000D02*
X137718800Y-83769200D01*
X145000000Y-85000000D02*
X146350000Y-85000000D01*
X141523281Y-85000000D02*
X145000000Y-85000000D01*
X140292481Y-83769200D02*
X141523281Y-85000000D01*
X139090400Y-83769200D02*
X140292481Y-83769200D01*
G04 #@! TO.N,/Sheet5DD758E7/D0_GPS*
X133742081Y-90160000D02*
X134112000Y-89790081D01*
X132540000Y-90160000D02*
X133742081Y-90160000D01*
X134112000Y-89790081D02*
X134112000Y-89789000D01*
X137591800Y-86309200D02*
X139090400Y-86309200D01*
X134112000Y-89789000D02*
X137591800Y-86309200D01*
X139090400Y-86309200D02*
X141046200Y-86309200D01*
X141737000Y-87000000D02*
X146350000Y-87000000D01*
X141046200Y-86309200D02*
X141737000Y-87000000D01*
G04 #@! TO.N,/Sheet5DD758E7/D1_GPS*
X133742081Y-92700000D02*
X135382000Y-91060081D01*
X132540000Y-92700000D02*
X133742081Y-92700000D01*
X135382000Y-91060081D02*
X135382000Y-91059000D01*
X137591800Y-88849200D02*
X139090400Y-88849200D01*
X135382000Y-91059000D02*
X137591800Y-88849200D01*
X139090400Y-88849200D02*
X142189200Y-88849200D01*
X142340000Y-89000000D02*
X146350000Y-89000000D01*
X142189200Y-88849200D02*
X142340000Y-89000000D01*
G04 #@! TO.N,/Sheet5DD758E7/D2_GPS*
X133742081Y-95240000D02*
X136145081Y-92837000D01*
X132540000Y-95240000D02*
X133742081Y-95240000D01*
X136145081Y-92837000D02*
X136145081Y-92835919D01*
X137591800Y-91389200D02*
X139090400Y-91389200D01*
X136145081Y-92835919D02*
X137591800Y-91389200D01*
X139090400Y-91389200D02*
X142417800Y-91389200D01*
X142807000Y-91000000D02*
X146350000Y-91000000D01*
X142417800Y-91389200D02*
X142807000Y-91000000D01*
G04 #@! TO.N,/Sheet5DD758E7/D3_GPS*
X132540000Y-97780000D02*
X133487000Y-97780000D01*
X137337800Y-93929200D02*
X139090400Y-93929200D01*
X133487000Y-97780000D02*
X137337800Y-93929200D01*
X140292481Y-93929200D02*
X141257681Y-92964000D01*
X139090400Y-93929200D02*
X140292481Y-93929200D01*
X141293681Y-93000000D02*
X146350000Y-93000000D01*
X141257681Y-92964000D02*
X141293681Y-93000000D01*
D23*
G04 #@! TO.N,/Sheet5DD758E7/TXE#_USB*
X137888319Y-101549200D02*
X139090400Y-101549200D01*
X137886518Y-101551001D02*
X137888319Y-101549200D01*
X131231001Y-101551001D02*
X137886518Y-101551001D01*
X130000000Y-100320000D02*
X131231001Y-101551001D01*
D21*
X139090400Y-101549200D02*
X142036800Y-101549200D01*
X142586000Y-101000000D02*
X146350000Y-101000000D01*
X142036800Y-101549200D02*
X142586000Y-101000000D01*
G04 #@! TO.N,/Sheet5DD758E7/WR#_GPS*
X133742081Y-102860000D02*
X133752081Y-102870000D01*
X132540000Y-102860000D02*
X133742081Y-102860000D01*
X137871200Y-102870000D02*
X139090400Y-104089200D01*
X133752081Y-102870000D02*
X137871200Y-102870000D01*
X139090400Y-104089200D02*
X140292481Y-104089200D01*
X141381681Y-103000000D02*
X146350000Y-103000000D01*
X140292481Y-104089200D02*
X141381681Y-103000000D01*
D23*
G04 #@! TO.N,/Sheet5DD758E7/SCLK_USB*
X130000000Y-105400000D02*
X131308999Y-106708999D01*
D21*
X140292481Y-109169200D02*
X140495681Y-108966000D01*
X139090400Y-109169200D02*
X140292481Y-109169200D01*
X140529681Y-109000000D02*
X146350000Y-109000000D01*
X140495681Y-108966000D02*
X140529681Y-109000000D01*
D23*
X131308999Y-106708999D02*
X133318999Y-106708999D01*
X133318999Y-106708999D02*
X135230000Y-108620000D01*
X138240401Y-108319201D02*
X139090400Y-109169200D01*
X135530799Y-108319201D02*
X138240401Y-108319201D01*
X135230000Y-108620000D02*
X135530799Y-108319201D01*
D21*
G04 #@! TO.N,/Sheet5DD758E7/SCLK_GPS*
X134220000Y-105400000D02*
X135020000Y-104600000D01*
X132540000Y-105400000D02*
X134220000Y-105400000D01*
G04 #@! TO.N,/Sheet5DD758E7/SDI_USB*
X140292481Y-111709200D02*
X141003681Y-110998000D01*
X139090400Y-111709200D02*
X140292481Y-111709200D01*
X141005681Y-111000000D02*
X146350000Y-111000000D01*
X141003681Y-110998000D02*
X141005681Y-111000000D01*
D23*
X139090400Y-111580400D02*
X139090400Y-111709200D01*
X136681001Y-109171001D02*
X139090400Y-111580400D01*
X130000000Y-107940000D02*
X131231001Y-109171001D01*
X131231001Y-109171001D02*
X136681001Y-109171001D01*
D21*
G04 #@! TO.N,/Sheet5DD758E7/SDO_USB*
X141541681Y-113000000D02*
X146350000Y-113000000D01*
X139090400Y-114249200D02*
X140292481Y-114249200D01*
X140292481Y-114249200D02*
X141541681Y-113000000D01*
D23*
X136199200Y-114249200D02*
X139090400Y-114249200D01*
X133661001Y-111711001D02*
X136199200Y-114249200D01*
X130000000Y-110480000D02*
X131231001Y-111711001D01*
X131231001Y-111711001D02*
X133661001Y-111711001D01*
D21*
G04 #@! TO.N,/Sheet5DD758E7/SDO_GPS*
X135130000Y-110480000D02*
X135810000Y-111160000D01*
X132540000Y-110480000D02*
X135130000Y-110480000D01*
G04 #@! TO.N,/Sheet5DD758E7/SCS_USB*
X130000000Y-114222081D02*
X130048000Y-114270081D01*
X130000000Y-113020000D02*
X130000000Y-114222081D01*
X130048000Y-114270081D02*
X130048000Y-115062000D01*
X131775200Y-116789200D02*
X139090400Y-116789200D01*
X130048000Y-115062000D02*
X131775200Y-116789200D01*
X139090400Y-116789200D02*
X140292481Y-116789200D01*
X142081681Y-115000000D02*
X146350000Y-115000000D01*
X140292481Y-116789200D02*
X142081681Y-115000000D01*
G04 #@! TO.N,/Sheet5DD758E7/SCS_GPS*
X132540000Y-113250000D02*
X134280000Y-114990000D01*
X132540000Y-113020000D02*
X132540000Y-113250000D01*
G04 #@! TO.N,Net-(J5-Pad2)*
X186850000Y-123040000D02*
X186840000Y-123050000D01*
X186850000Y-119500000D02*
X186850000Y-123040000D01*
D24*
G04 #@! TO.N,Net-(J5-Pad1)*
X200982000Y-120142000D02*
X202750000Y-121910000D01*
X188850000Y-119500000D02*
X189700000Y-119500000D01*
X190342000Y-120142000D02*
X200982000Y-120142000D01*
X189700000Y-119500000D02*
X190342000Y-120142000D01*
D25*
G04 #@! TO.N,Net-(J6-Pad16)*
X206670000Y-116830000D02*
X205290000Y-116830000D01*
X207250000Y-111000000D02*
X207250000Y-116250000D01*
X191350000Y-107000000D02*
X190860000Y-107490000D01*
X193350000Y-107000000D02*
X191350000Y-107000000D01*
X190860000Y-109480000D02*
X191363310Y-109983310D01*
X207250000Y-116250000D02*
X206670000Y-116830000D01*
X190860000Y-107490000D02*
X190860000Y-109480000D01*
X191363310Y-109983310D02*
X206233310Y-109983310D01*
X206233310Y-109983310D02*
X207250000Y-111000000D01*
D24*
G04 #@! TO.N,Net-(J6-Pad17)*
X208000000Y-118750000D02*
X207380000Y-119370000D01*
X208000000Y-110250000D02*
X208000000Y-118750000D01*
X207380000Y-119370000D02*
X205290000Y-119370000D01*
X193350000Y-109000000D02*
X206750000Y-109000000D01*
X206750000Y-109000000D02*
X208000000Y-110250000D01*
G04 #@! TO.N,Net-(J6-Pad18)*
X193350000Y-111000000D02*
X195000000Y-111000000D01*
X195000000Y-111000000D02*
X195750000Y-111750000D01*
X195750000Y-111750000D02*
X195750000Y-113500000D01*
X196540000Y-114290000D02*
X202750000Y-114290000D01*
X195750000Y-113500000D02*
X196540000Y-114290000D01*
G04 #@! TO.N,Net-(J6-Pad19)*
X193350000Y-113000000D02*
X191673000Y-113000000D01*
X191673000Y-113000000D02*
X190881000Y-113792000D01*
X190881000Y-113792000D02*
X190881000Y-118110000D01*
X190881000Y-118110000D02*
X191643000Y-118872000D01*
X191643000Y-118872000D02*
X201372000Y-118872000D01*
X201372000Y-118872000D02*
X202000000Y-119500000D01*
X202620000Y-119500000D02*
X202750000Y-119370000D01*
X202000000Y-119500000D02*
X202620000Y-119500000D01*
G04 #@! TO.N,Net-(J6-Pad20)*
X193350000Y-115715000D02*
X195237000Y-117602000D01*
X193350000Y-115000000D02*
X193350000Y-115715000D01*
X195237000Y-117602000D02*
X200398000Y-117602000D01*
X201170000Y-116830000D02*
X202750000Y-116830000D01*
X200398000Y-117602000D02*
X201170000Y-116830000D01*
D21*
G04 #@! TO.N,Net-(J2-Pad8)*
X139090400Y-96469200D02*
X142697200Y-96469200D01*
X143228000Y-97000000D02*
X146350000Y-97000000D01*
X142697200Y-96469200D02*
X143228000Y-97000000D01*
X138289600Y-97270000D02*
X139090400Y-96469200D01*
X136660000Y-97270000D02*
X138289600Y-97270000D01*
D24*
G04 #@! TO.N,Net-(J7-Pad1)*
X197700000Y-112090000D02*
X199910000Y-112090000D01*
X200250000Y-111750000D02*
X202750000Y-111750000D01*
X199910000Y-112090000D02*
X200250000Y-111750000D01*
D21*
G04 #@! TO.N,Net-(J2-Pad9)*
X140292481Y-99009200D02*
X140343281Y-99060000D01*
X139090400Y-99009200D02*
X140292481Y-99009200D01*
X140403281Y-99000000D02*
X146350000Y-99000000D01*
X140343281Y-99060000D02*
X140403281Y-99000000D01*
X138249600Y-99850000D02*
X139090400Y-99009200D01*
X135250000Y-99850000D02*
X138249600Y-99850000D01*
G04 #@! TO.N,Net-(J2-Pad12)*
X140292481Y-106629200D02*
X140724281Y-107061000D01*
X139090400Y-106629200D02*
X140292481Y-106629200D01*
X140785281Y-107000000D02*
X146350000Y-107000000D01*
X140724281Y-107061000D02*
X140785281Y-107000000D01*
X138929600Y-106790000D02*
X139090400Y-106629200D01*
X136600000Y-106790000D02*
X138929600Y-106790000D01*
G04 #@! TD*
M02*
