%FSLAX45Y45*%
G04 Gerber Fmt 4.5, Leading zero omitted, Abs format (unit mm)*
G04 Created by KiCad (PCBNEW 5.0.2-bee76a0~70~ubuntu18.04.1) date Sat 23 Nov 2019 09:42:46 AM PST*
%MOMM*%
%LPD*%
G01*
G04 APERTURE LIST*
%ADD10C,0.050000*%
%ADD11C,0.200000*%
%ADD12C,0.300000*%
G04 APERTURE END LIST*
D10*
X9825000Y-7525000D02*
X7600000Y-7525000D01*
X9850000Y-9325000D02*
X9825000Y-7525000D01*
X7600000Y-9325000D02*
X9850000Y-9325000D01*
X7600000Y-7525000D02*
X7600000Y-9325000D01*
D11*
D12*
X7883928Y-9793214D02*
X7883928Y-9493214D01*
X7955357Y-9493214D01*
X7998214Y-9507500D01*
X8026786Y-9536072D01*
X8041071Y-9564643D01*
X8055357Y-9621786D01*
X8055357Y-9664643D01*
X8041071Y-9721786D01*
X8026786Y-9750357D01*
X7998214Y-9778929D01*
X7955357Y-9793214D01*
X7883928Y-9793214D01*
X8183928Y-9793214D02*
X8183928Y-9593214D01*
X8183928Y-9650357D02*
X8198214Y-9621786D01*
X8212500Y-9607500D01*
X8241071Y-9593214D01*
X8269643Y-9593214D01*
X8369643Y-9793214D02*
X8369643Y-9593214D01*
X8369643Y-9493214D02*
X8355357Y-9507500D01*
X8369643Y-9521786D01*
X8383928Y-9507500D01*
X8369643Y-9493214D01*
X8369643Y-9521786D01*
X8555357Y-9793214D02*
X8526786Y-9778929D01*
X8512500Y-9750357D01*
X8512500Y-9493214D01*
X8712500Y-9793214D02*
X8683928Y-9778929D01*
X8669643Y-9750357D01*
X8669643Y-9493214D01*
X9055357Y-9793214D02*
X9055357Y-9493214D01*
X9155357Y-9707500D01*
X9255357Y-9493214D01*
X9255357Y-9793214D01*
X9526786Y-9793214D02*
X9526786Y-9636072D01*
X9512500Y-9607500D01*
X9483928Y-9593214D01*
X9426786Y-9593214D01*
X9398214Y-9607500D01*
X9526786Y-9778929D02*
X9498214Y-9793214D01*
X9426786Y-9793214D01*
X9398214Y-9778929D01*
X9383928Y-9750357D01*
X9383928Y-9721786D01*
X9398214Y-9693214D01*
X9426786Y-9678929D01*
X9498214Y-9678929D01*
X9526786Y-9664643D01*
X9669643Y-9593214D02*
X9669643Y-9893214D01*
X9669643Y-9607500D02*
X9698214Y-9593214D01*
X9755357Y-9593214D01*
X9783928Y-9607500D01*
X9798214Y-9621786D01*
X9812500Y-9650357D01*
X9812500Y-9736072D01*
X9798214Y-9764643D01*
X9783928Y-9778929D01*
X9755357Y-9793214D01*
X9698214Y-9793214D01*
X9669643Y-9778929D01*
X9941071Y-9764643D02*
X9955357Y-9778929D01*
X9941071Y-9793214D01*
X9926786Y-9778929D01*
X9941071Y-9764643D01*
X9941071Y-9793214D01*
X9941071Y-9607500D02*
X9955357Y-9621786D01*
X9941071Y-9636072D01*
X9926786Y-9621786D01*
X9941071Y-9607500D01*
X9941071Y-9636072D01*
M02*
